<svg width="331" height="99" viewBox="0 0 331 99" fill="none" xmlns="http://www.w3.org/2000/svg">
<path d="M237.931 13.4058L209.528 67.483C208.921 68.653 207.166 68.653 206.538 67.483L178.091 13.4058C177.809 12.8641 177.246 12.5175 176.639 12.5175H162.903C161.972 12.5175 161.387 13.5141 161.82 14.3374L206.581 98.0965C207.21 99.2447 208.856 99.2447 209.484 98.0965L254.245 14.3374C254.679 13.5141 254.094 12.5175 253.162 12.5175H239.405C238.776 12.5175 238.213 12.8641 237.931 13.4058Z" fill="#03479C"/>
<path d="M254.051 85.5519L282.454 31.4747C283.061 30.3047 284.816 30.3047 285.444 31.4747L313.869 85.5519C314.151 86.0935 314.715 86.4402 315.321 86.4402H329.057C329.989 86.4402 330.574 85.4436 330.14 84.6203L285.401 0.861206C284.773 -0.287069 283.126 -0.287069 282.498 0.861206L237.737 84.6203C237.303 85.4436 237.888 86.4402 238.82 86.4402H252.578C253.206 86.4402 253.769 86.0935 254.051 85.5519Z" fill="#03479C"/>
<path d="M41.5546 86.4404H15.9459C15.0359 86.4404 14.2993 85.7038 14.2993 84.7938V61.8283C14.2993 60.9183 15.0359 60.1817 15.9459 60.1817H41.5546C53.7523 60.1817 59.212 63.6482 59.212 73.311C59.212 82.9739 53.8823 86.4404 41.5546 86.4404ZM15.9459 25.0185H41.2079C50.5241 25.0185 55.2689 29.005 55.2689 36.3279C55.2689 43.6942 50.5458 47.659 41.2079 47.659H15.9459C15.0359 47.659 14.2993 46.9224 14.2993 46.0124V26.6651C14.321 25.7551 15.0359 25.0185 15.9459 25.0185ZM59.927 52.4038C65.8633 49.4356 69.5682 43.0226 69.5682 35.1147C69.5682 21.6603 59.082 12.5175 44.2411 12.5175H1.6466C0.73665 12.5175 0 13.2541 0 14.1641V97.3382C0 98.2481 0.73665 98.9847 1.6466 98.9847H42.3562C62.7435 98.9847 73.4896 90.2102 73.4896 73.0511C73.4896 56.2819 59.927 52.4038 59.927 52.4038Z" fill="#03479C"/>
<path d="M128.91 86.4404H103.302C102.392 86.4404 101.655 85.7038 101.655 84.7938V61.8283C101.655 60.9183 102.392 60.1817 103.302 60.1817H128.91C141.108 60.1817 146.568 63.6482 146.568 73.311C146.568 82.9739 141.238 86.4404 128.91 86.4404ZM103.302 25.0185H128.564C137.88 25.0185 142.625 29.005 142.625 36.3279C142.625 43.6942 137.902 47.659 128.564 47.659H103.302C102.392 47.659 101.655 46.9224 101.655 46.0124V26.6651C101.655 25.7551 102.392 25.0185 103.302 25.0185ZM147.283 52.4038C153.219 49.4356 156.924 43.0226 156.924 35.1147C156.924 21.6603 146.438 12.5175 131.597 12.5175H89.0026C88.0926 12.5175 87.356 13.2541 87.356 14.1641V97.3382C87.356 98.2481 88.0926 98.9847 89.0026 98.9847H129.712C150.099 98.9847 160.846 90.2102 160.846 73.0511C160.846 56.2819 147.283 52.4038 147.283 52.4038Z" fill="#03479C"/>
</svg>
