
<svg width="210" height="120" viewBox="0 0 210 120" fill="none" xmlns="http://www.w3.org/2000/svg">
<path d="M209.527 0L0 0V88.9789H2.82145C21.4899 88.9789 39.9008 94.1999 55.4318 104.605C69.9599 114.335 87.4047 120 106.174 120C124.944 120 142.389 114.326 156.917 104.605C172.448 94.1999 190.85 88.9789 209.527 88.9789V0Z" fill="#ED1164"/>
<path d="M95.6149 53.6475C88.9535 46.1782 77.7801 52.9253 78.068 62.4525C78.3757 72.4149 88.3181 77.9551 94.8753 71.4998C95.1731 71.208 95.3816 70.9705 95.5504 70.7974L95.5404 74.0721H101.527V50.5608H95.6298L95.6149 53.6475ZM95.5752 63.9909C94.92 67.2408 92.5175 69.4124 89.6435 69.4964C86.2582 69.5954 83.5082 66.3751 83.5082 62.5267C83.5082 58.6931 86.2433 55.4976 89.6335 55.3937C92.5423 55.3096 94.9497 57.2388 95.5901 60.4738L95.5752 63.9909Z" fill="white"/>
<path d="M93.1131 25.0316L42.4033 49.0077L61.7173 46.7026L93.1131 25.0316Z" fill="white"/>
<path d="M67.6242 64.1443L73.263 47.4396L93.9272 24.7693L62.4817 47.4644L67.6242 64.1443Z" fill="white"/>
<path d="M94.4286 24.7397L74.4543 47.2121L90.3732 48.9236L94.4286 24.7397Z" fill="white"/>
<path d="M128.956 55.1562C128.966 55.7844 129.225 55.9081 130.421 55.8685H141.232L135.26 62.309L130.078 68.0124C129.378 68.7643 128.728 69.531 128.743 70.7182V74.0374H146.469C147.154 74.0275 147.819 74.0275 148.454 74.0374V69.4617C148.429 68.8335 148.186 68.7099 146.99 68.7346H136.169L142.14 62.304L147.337 56.6006C148.022 55.8487 148.673 55.082 148.673 53.8948V50.5756H130.952C130.267 50.5905 129.602 50.5905 128.966 50.5756V55.1562H128.956Z" fill="white"/>
<path d="M167.014 50.561V66.024C164.775 67.968 162.586 69.269 160.01 69.269C157.235 69.269 156.113 67.9631 156.113 65.381V50.561H150.132V66.9144C150.132 71.767 153.061 74.0821 157.771 74.0821C161.995 74.0821 165.118 72.0886 167.014 70.1446L166.964 74.0177H172.861L173 50.561H167.014Z" fill="white"/>
<path d="M104.361 50.1207L104.232 74.0721H110.218V58.1144C112.447 56.1704 114.636 54.8793 117.222 54.8793C119.982 54.8793 121.104 56.1704 121.104 58.7624V74.0672H127.09V57.2389C127.09 52.3763 124.176 50.0712 119.451 50.0712C115.222 50.0712 112.105 52.0647 110.218 54.0087L110.258 50.1207H104.361V50.1207Z" fill="white"/>
<path d="M74.3352 47.9987L68.4134 65.297H66.825L61.3401 47.5485L55.736 48.2163L64.5715 74.0722H70.1855L79.4628 48.5478L74.3352 47.9987Z" fill="white"/>
<path d="M52.986 73.3054C54.6042 72.7019 56.0288 71.7868 57.3641 70.56L57.4534 70.471L57.3889 70.372L55.2346 66.9094L55.1304 66.761L55.0013 66.8847C54.0731 67.7602 52.9513 68.5022 51.6905 69.0167C50.529 69.4816 49.2582 69.7438 47.8833 69.7438C46.1013 69.7438 44.5476 69.2442 43.4407 68.2153C42.4479 67.3002 41.8225 65.9448 41.7083 64.1541H57.5229H57.6768V64.0057V62.779C57.6768 58.5942 56.6096 55.6757 54.9765 53.7168C52.9662 51.3078 50.1021 50.3828 47.2727 50.3828C44.5327 50.3828 41.3261 51.4216 39.0378 53.8405C37.236 55.7598 36 58.515 36 62.2992C36 66.1971 37.1814 69.0562 39.0577 70.9854C41.2368 73.2163 44.3143 74.2205 47.5904 74.2205C49.6107 74.2205 51.3778 73.9187 52.986 73.3054ZM43.5648 56.3484C44.5575 55.3937 45.868 54.9436 47.233 54.9436C48.8016 54.9436 50.0078 55.4086 50.8764 56.2693C51.7401 57.1349 52.2514 58.4012 52.4053 59.9792H41.7778C42.0459 58.3765 42.6812 57.1745 43.5648 56.3484Z" fill="white"/>
<path d="M79.984 48.6121L77.5468 55.5373L82.2723 48.8643L79.984 48.6121Z" fill="white"/>
<path d="M109.94 97.1925C108.61 97.1282 107.27 96.9947 105.954 96.7919L106.183 95.3277C107.444 95.5206 108.734 95.6492 110.01 95.7135L109.94 97.1925ZM113.941 97.1777L113.857 95.6937C115.137 95.6245 116.428 95.4859 117.684 95.2831L117.917 96.7473C116.617 96.965 115.276 97.1035 113.941 97.1777ZM102.028 95.9757C100.742 95.6344 99.4568 95.2238 98.2159 94.7539L98.747 93.3688C99.9433 93.8239 101.174 94.2196 102.41 94.5461L102.028 95.9757ZM121.838 95.9213L121.451 94.4867C122.687 94.1553 123.913 93.7546 125.11 93.2946L125.646 94.6797C124.405 95.1545 123.124 95.575 121.838 95.9213ZM94.5526 93.1363C93.3663 92.5378 92.1948 91.865 91.078 91.1478L91.8871 89.9012C92.9593 90.5938 94.0811 91.2368 95.2277 91.8156L94.5526 93.1363ZM129.304 93.0423L128.624 91.7216C129.761 91.1428 130.877 90.4899 131.95 89.7924L132.764 91.034C131.647 91.7661 130.485 92.4388 129.304 93.0423ZM87.8367 88.808C86.7992 87.977 85.7965 87.0817 84.8534 86.1468L85.9057 85.0931C86.8141 85.9934 87.7771 86.8541 88.7748 87.6505L87.8367 88.808ZM135.995 88.6794L135.052 87.5318C136.045 86.7255 137.003 85.8599 137.906 84.9546L138.963 86.0033C138.025 86.9382 137.028 87.8435 135.995 88.6794ZM82.1581 83.1936C81.3143 82.1648 80.5201 81.0814 79.7904 79.9734L81.0363 79.1622C81.7362 80.2257 82.5006 81.2694 83.3097 82.2538L82.1581 83.1936ZM141.634 83.0255L140.472 82.0955C141.277 81.1012 142.036 80.0575 142.731 78.989L143.982 79.7953C143.262 80.9083 142.468 81.9966 141.634 83.0255ZM77.7801 76.5256C77.1745 75.3483 76.6185 74.1216 76.137 72.8849L77.5269 72.3507C77.9885 73.5428 78.5197 74.7152 79.1054 75.8479L77.7801 76.5256ZM74.8862 69.0909C74.5387 67.8147 74.2558 66.4989 74.0473 65.188L75.5166 64.9555C75.7201 66.2169 75.9931 67.4783 76.3257 68.705L74.8862 69.0909ZM146.126 45.8171C145.665 44.6299 145.133 43.4526 144.548 42.3199L145.873 41.6422C146.484 42.8244 147.035 44.0462 147.516 45.2829L146.126 45.8171ZM142.607 39.0056C141.907 37.9421 141.143 36.9033 140.329 35.914L141.48 34.9742C142.324 36.003 143.123 37.0864 143.848 38.1894L142.607 39.0056ZM137.737 33.0747C136.829 32.1793 135.861 31.3186 134.868 30.5173L135.802 29.3598C136.839 30.1908 137.842 31.0861 138.79 32.021L137.737 33.0747ZM131.746 28.2765C130.674 27.5839 129.547 26.9458 128.406 26.3671L129.076 25.0414C130.262 25.6399 131.433 26.3077 132.55 27.025L131.746 28.2765ZM98.5187 24.9177L97.9826 23.5327C99.2235 23.0528 100.504 22.6324 101.79 22.2861L102.182 23.7206C100.946 24.0521 99.7149 24.4527 98.5187 24.9177ZM124.886 24.8188C123.69 24.3637 122.454 23.9729 121.218 23.6464L121.6 22.2119C122.886 22.5483 124.166 22.9589 125.417 23.4337L124.886 24.8188ZM105.94 22.9143L105.701 21.4501C107.012 21.2424 108.347 21.094 109.682 21.0198L109.767 22.5038C108.486 22.573 107.2 22.7115 105.94 22.9143ZM117.45 22.8649C116.19 22.672 114.899 22.5433 113.618 22.484L113.688 21C115.018 21.0643 116.358 21.1979 117.674 21.3957L117.45 22.8649Z" fill="white"/>
</svg>
