<svg width="98" height="58" viewBox="0 0 137 77" fill="none" xmlns="http://www.w3.org/2000/svg">
<path d="M59.6149 32.6475C52.9535 25.1782 41.7801 31.9253 42.068 41.4525C42.3757 51.4149 52.3181 56.9551 58.8753 50.4998C59.1731 50.208 59.3816 49.9705 59.5504 49.7974L59.5404 53.0721H65.5267V29.5608H59.6298L59.6149 32.6475ZM59.5752 42.9909C58.92 46.2408 56.5175 48.4124 53.6435 48.4964C50.2582 48.5954 47.5082 45.3751 47.5082 41.5267C47.5082 37.6931 50.2433 34.4976 53.6335 34.3937C56.5423 34.3096 58.9497 36.2388 59.5901 39.4738L59.5752 42.9909Z" fill="white"/>
<path d="M57.1132 4.03156L6.40332 28.0077L25.7173 25.7026L57.1132 4.03156Z" fill="white"/>
<path d="M31.6242 43.1443L37.263 26.4396L57.9272 3.76935L26.4817 26.4644L31.6242 43.1443Z" fill="white"/>
<path d="M58.4286 3.73965L38.4543 26.2121L54.3732 27.9236L58.4286 3.73965Z" fill="white"/>
<path d="M92.9565 34.1562C92.9664 34.7844 93.2245 34.9081 94.4208 34.8685H105.232L99.2605 41.309L94.0783 47.0124C93.3784 47.7643 92.7282 48.531 92.743 49.7182V53.0374H110.469C111.154 53.0275 111.819 53.0275 112.454 53.0374V48.4617C112.429 47.8335 112.186 47.7099 110.99 47.7346H100.169L106.14 41.304L111.337 35.6006C112.022 34.8487 112.673 34.082 112.673 32.8948V29.5756H94.9519C94.2669 29.5905 93.6018 29.5905 92.9664 29.5756V34.1562H92.9565Z" fill="white"/>
<path d="M131.014 29.561V45.024C128.775 46.968 126.586 48.269 124.01 48.269C121.235 48.269 120.113 46.9631 120.113 44.381V29.561H114.132V45.9144C114.132 50.767 117.061 53.0821 121.771 53.0821C125.995 53.0821 129.118 51.0886 131.014 49.1446L130.964 53.0177H136.861L137 29.561H131.014Z" fill="white"/>
<path d="M68.361 29.1207L68.2319 53.0721H74.2182V37.1144C76.447 35.1704 78.636 33.8793 81.2221 33.8793C83.982 33.8793 85.1038 35.1704 85.1038 37.7624V53.0672H91.0901V36.2389C91.0901 31.3763 88.1764 29.0712 83.4508 29.0712C79.2217 29.0712 76.1045 31.0647 74.2182 33.0087L74.2579 29.1207H68.361Z" fill="white"/>
<path d="M38.3352 26.9987L32.4134 44.297H30.825L25.3401 26.5485L19.736 27.2163L28.5715 53.0722H34.1855L43.4628 27.5478L38.3352 26.9987Z" fill="white"/>
<path d="M16.986 52.3054C18.6042 51.7019 20.0288 50.7868 21.3641 49.56L21.4534 49.471L21.3889 49.372L19.2346 45.9094L19.1304 45.761L19.0013 45.8847C18.0731 46.7602 16.9513 47.5022 15.6905 48.0167C14.529 48.4816 13.2582 48.7438 11.8833 48.7438C10.1013 48.7438 8.54761 48.2442 7.44069 47.2153C6.44794 46.3002 5.8225 44.9448 5.70833 43.1541H21.5229H21.6768V43.0057V41.779C21.6768 37.5942 20.6096 34.6757 18.9765 32.7168C16.9662 30.3078 14.1021 29.3828 11.2727 29.3828C8.53272 29.3828 5.32612 30.4216 3.03783 32.8405C1.23598 34.7598 0 37.515 0 41.2992C0 45.1971 1.18138 48.0562 3.05768 49.9854C5.23678 52.2163 8.31431 53.2205 11.5904 53.2205C13.6107 53.2205 15.3778 52.9187 16.986 52.3054ZM7.56478 35.3484C8.55754 34.3937 9.86797 33.9436 11.233 33.9436C12.8016 33.9436 14.0078 34.4086 14.8764 35.2693C15.7401 36.1349 16.2514 37.4012 16.4053 38.9792H5.77783C6.04587 37.3765 6.68123 36.1745 7.56478 35.3484Z" fill="white"/>
<path d="M43.984 27.6121L41.5468 34.5373L46.2723 27.8643L43.984 27.6121Z" fill="white"/>
<path d="M73.9403 76.1925C72.61 76.1282 71.2697 75.9947 69.9543 75.7919L70.1827 74.3277C71.4435 74.5206 72.7341 74.6492 74.0098 74.7135L73.9403 76.1925ZM77.9411 76.1777L77.8567 74.6937C79.1373 74.6245 80.4279 74.4859 81.6837 74.2831L81.917 75.7473C80.6165 75.965 79.2763 76.1035 77.9411 76.1777ZM66.028 74.9757C64.7424 74.6344 63.4568 74.2238 62.2158 73.7539L62.747 72.3688C63.9432 72.8239 65.1742 73.2196 66.4102 73.5461L66.028 74.9757ZM85.8384 74.9213L85.4512 73.4867C86.6872 73.1553 87.9133 72.7546 89.1095 72.2946L89.6456 73.6796C88.4047 74.1545 87.124 74.575 85.8384 74.9213ZM58.5526 72.1363C57.3662 71.5378 56.1948 70.865 55.0779 70.1478L55.887 68.9012C56.9592 69.5938 58.081 70.2368 59.2276 70.8156L58.5526 72.1363ZM93.3039 72.0423L92.6239 70.7216C93.7606 70.1428 94.8774 69.4899 95.9496 68.7924L96.7637 70.034C95.6468 70.7661 94.4853 71.4388 93.3039 72.0423ZM51.8366 67.808C50.7992 66.977 49.7965 66.0817 48.8534 65.1468L49.9057 64.0931C50.8141 64.9934 51.777 65.8541 52.7747 66.6505L51.8366 67.808ZM99.9951 67.6794L99.052 66.5318C100.045 65.7255 101.003 64.8599 101.906 63.9546L102.963 65.0033C102.025 65.9382 101.028 66.8435 99.9951 67.6794ZM46.158 62.1936C45.3142 61.1647 44.52 60.0814 43.7903 58.9734L45.0362 58.1622C45.7361 59.2257 46.5005 60.2694 47.3096 61.2538L46.158 62.1936ZM105.634 62.0255L104.472 61.0955C105.277 60.1012 106.036 59.0575 106.731 57.989L107.982 58.7953C107.262 59.9083 106.468 60.9966 105.634 62.0255ZM41.78 55.5256C41.1744 54.3483 40.6185 53.1216 40.137 51.8849L41.5268 51.3507C41.9885 52.5428 42.5196 53.7152 43.1053 54.8479L41.78 55.5256ZM38.8861 48.0909C38.5387 46.8147 38.2557 45.4989 38.0472 44.188L39.5165 43.9555C39.72 45.2169 39.993 46.4783 40.3256 47.705L38.8861 48.0909ZM110.126 24.8171C109.664 23.6299 109.133 22.4526 108.548 21.3199L109.873 20.6422C110.484 21.8244 111.035 23.0462 111.516 24.2829L110.126 24.8171ZM106.607 18.0056C105.907 16.9421 105.143 15.9033 104.328 14.914L105.48 13.9742C106.324 15.003 107.123 16.0864 107.848 17.1894L106.607 18.0056ZM101.737 12.0747C100.829 11.1793 99.8611 10.3186 98.8683 9.51726L99.8015 8.35976C100.839 9.19079 101.842 10.0861 102.79 11.021L101.737 12.0747ZM95.7461 7.27645C94.6739 6.58393 93.5471 5.94582 92.4055 5.36706L93.0756 4.04137C94.2619 4.63991 95.4334 5.30771 96.5502 6.02496L95.7461 7.27645ZM62.5186 3.91771L61.9825 2.53266C63.2235 2.05284 64.5041 1.63238 65.7897 1.28612L66.1819 2.72063C64.9459 3.05205 63.7149 3.45273 62.5186 3.91771ZM88.8862 3.81878C87.6899 3.36369 86.4539 2.97291 85.2179 2.64643L85.6001 1.21192C86.8858 1.54829 88.1664 1.95885 89.4173 2.43373L88.8862 3.81878ZM69.9395 1.91434L69.7012 0.450141C71.0116 0.242384 72.3469 0.0939855 73.6821 0.0197864L73.7665 1.50377C72.4859 1.57302 71.2003 1.71152 69.9395 1.91434ZM81.4504 1.86487C80.1896 1.67195 78.8991 1.54334 77.6184 1.48398L77.6879 0C79.0182 0.0643058 80.3584 0.197864 81.6738 0.395728L81.4504 1.86487Z" fill="white"/>
</svg>
