<svg width="576" height="117" viewBox="0 0 576 117" fill="none" xmlns="http://www.w3.org/2000/svg">
<path d="M102.343 83.6024C109.463 83.6024 115.779 79.3534 118.459 72.7693L129.981 44.2128L120.87 22.9294C118.42 17.2258 113.061 13.2064 106.86 12.4408L0.902344 0L16.2907 37.8201C18.5875 43.5238 23.7169 47.39 29.7268 48.0408C28.1956 48.8446 26.8941 50.0696 26.0137 51.5625C24.4825 54.1272 24.2146 57.3044 25.3629 60.0988L43.8519 105.766C46.3784 112.044 52.3883 116.063 59.1637 116.063H90.2084L77.0785 83.5641H102.343V83.6024Z" fill="white"/>
<path d="M59.1302 111.623C54.0774 111.623 49.7518 108.522 47.9909 104.12L38.3445 80.2337L69.7719 84.4827C71.6476 84.7507 73.1405 85.9756 73.8296 87.6216L83.5526 111.623H59.1302Z" fill="url(#paint0_linear_3602_3307)"/>
<path d="M31.5954 43.6755C26.5425 43.6755 22.2169 40.5749 20.4561 36.1345L7.90039 5.31949L106.355 16.8799C111.14 17.4541 114.968 20.5547 116.729 24.6889L124.883 43.6755H31.5954Z" fill="url(#paint1_linear_3602_3307)"/>
<path d="M29.5042 58.4133C28.93 56.997 29.0066 55.3127 29.8487 53.858C30.7291 52.3651 32.2603 51.523 33.8298 51.4082L124.935 44.7092L114.255 71.0838C112.341 75.7922 107.709 79.1225 102.312 79.1225H37.8874L29.5042 58.4133Z" fill="url(#paint2_linear_3602_3307)"/>
<path d="M257.342 67.6394C257.342 71.697 257.151 72.8837 256.5 76.5585H225.647C227.293 81.2669 231.618 84.2144 238.164 84.2144C241.762 84.2144 246.356 83.4871 253.82 81.9177L255.581 91.9469C248.653 94.1671 242.873 95.3538 237.781 95.3538C220.824 95.3538 212.172 85.0183 212.172 71.8502C212.172 57.5719 222.202 48.3466 235.485 48.3466C247.964 48.3466 257.151 56.1173 257.342 67.6394ZM225.111 67.448H245.935C245.667 62.0123 241.494 58.3375 235.791 58.3375C230.087 58.2992 226.298 61.8975 225.111 67.448Z" fill="#E42618"/>
<path d="M264.732 37.8571H277.555V49.6854H291.451V61.5138H277.555V76.2131C277.555 81.1129 279.508 83.9456 284.484 83.9456C287.163 83.9456 289.537 83.7542 293.135 83.2948L294.322 93.8983C289.881 94.8935 287.585 95.3912 281.69 95.3912C270.895 95.3912 264.732 89.0368 264.732 77.5146V37.8571V37.8571Z" fill="#E42618"/>
<path d="M329.652 60.977C324.293 60.977 319.048 61.0536 313.996 61.5129V93.9357H306.225C303.43 93.9357 301.172 91.6772 301.172 88.8828V51.2923C309.287 49.7994 321.077 48.4213 329.652 48.4213V60.977Z" fill="#E42618"/>
<path d="M382.597 71.5818C382.597 85.9749 372.644 95.6213 357.83 95.6213C342.901 95.6213 332.872 85.9366 332.872 71.5818C332.872 57.3801 342.901 47.8867 357.83 47.8867C372.644 47.8867 382.597 57.3801 382.597 71.5818ZM369.965 71.5818C369.965 64.1938 365.065 59.3323 357.792 59.3323C350.519 59.3323 345.543 64.2321 345.543 71.5818C345.543 79.1228 350.519 84.214 357.792 84.214C365.103 84.214 369.965 79.1228 369.965 71.5818Z" fill="#E42618"/>
<path d="M436.101 71.6561C436.101 85.3984 427.182 94.5089 414.818 94.5089C410.569 94.5089 406.971 94.5089 401.65 93.973V111.696H393.879C391.085 111.696 388.826 109.438 388.826 106.644V50.5641C395.257 49.7219 404.597 48.4587 413.976 48.4587C428.101 48.4587 435.719 57.6841 436.101 71.6561ZM423.661 72.0389C423.661 64.6509 420.636 59.0621 411.947 59.0621C407.889 59.0621 404.559 59.3301 401.612 59.598V83.1016C406.971 83.9438 409.918 83.829 412.751 83.829C419.335 83.829 423.661 78.5847 423.661 72.0389Z" fill="#E42618"/>
<path d="M486.256 67.6394C486.256 71.697 486.065 72.8837 485.414 76.5585H454.561C456.207 81.2669 460.532 84.2144 467.078 84.2144C470.676 84.2144 475.27 83.4871 482.735 81.9177L484.495 91.9469C477.567 94.1671 471.787 95.3538 466.695 95.3538C449.738 95.3538 441.086 85.0183 441.086 71.8502C441.086 57.5719 451.116 48.3466 464.399 48.3466C476.878 48.3466 486.103 56.1173 486.256 67.6394ZM454.025 67.448H474.849C474.581 62.0123 470.409 58.3375 464.705 58.3375C459.001 58.2992 455.212 61.8975 454.025 67.448Z" fill="#E42618"/>
<path d="M522.665 60.977C517.305 60.977 512.061 61.0536 507.008 61.5129V93.9357H499.237C496.443 93.9357 494.185 91.6772 494.185 88.8828V51.2923C502.3 49.7994 514.09 48.4213 522.665 48.4213V60.977Z" fill="#E42618"/>
<path d="M575.098 93.056C569.471 94.0512 557.413 95.2762 548.838 95.2762C537.967 95.2762 530.311 90.6826 530.311 78.3949V49.6853H543.134V75.3708C543.134 81.7252 546.082 84.4813 551.9 84.4813C555.116 84.4813 558.638 84.2134 562.389 83.8306V49.6853H575.098V93.056ZM557.298 43.7902H545.278L551.479 31.9619H566.255L557.298 43.7902Z" fill="#E42618"/>
<path d="M209.138 53.743C209.138 67.1792 198.803 75.9834 183.759 75.9834H174.304V94.0131H166.61C163.815 94.0131 161.557 91.7546 161.557 88.9602V32.7659C167.375 32.4214 175.529 31.962 183.759 31.962C198.803 31.9237 209.138 40.2304 209.138 53.743ZM184.907 64.3465C191.644 64.3465 196.659 60.2888 196.659 53.8196C196.659 47.3504 191.606 43.8287 184.907 43.8287C181.271 43.8287 177.672 43.8287 174.304 44.0201V64.3847H184.907V64.3465Z" fill="#E42618"/>
<defs>
<linearGradient id="paint0_linear_3602_3307" x1="38.3085" y1="95.9229" x2="83.5139" y2="95.9229" gradientUnits="userSpaceOnUse">
<stop stop-color="#6FBC85"/>
<stop offset="1" stop-color="#00B388"/>
</linearGradient>
<linearGradient id="paint1_linear_3602_3307" x1="7.90384" y1="24.5067" x2="124.855" y2="24.5067" gradientUnits="userSpaceOnUse">
<stop stop-color="#DA291C"/>
<stop offset="1" stop-color="#CD1316"/>
</linearGradient>
<linearGradient id="paint2_linear_3602_3307" x1="29.1222" y1="61.9182" x2="124.946" y2="61.9182" gradientUnits="userSpaceOnUse">
<stop stop-color="#00A9E0"/>
<stop offset="1" stop-color="#007AC3"/>
</linearGradient>
</defs>
</svg>
