<svg width="365" height="107" viewBox="0 0 365 107" fill="none" xmlns="http://www.w3.org/2000/svg">
<path d="M171.71 53.6873C156.013 53.6873 148.113 61.2623 148.113 76.4097V84.4892C148.113 99.8392 156.317 106.606 174.547 106.606C179.51 106.606 183.662 106.202 186.903 105.294C191.359 104.183 192.271 103.174 192.271 98.7293V97.6183C192.271 92.872 191.258 91.8616 186.903 92.7701C182.345 93.6786 178.194 94.1844 174.649 94.1844C165.332 94.1844 161.382 91.7609 161.382 86.5088V84.9938H187.106C191.968 84.9938 193.184 83.9834 193.69 79.4397C193.791 77.824 193.893 76.5116 193.893 75.5012C193.89 60.9578 186.497 53.6873 171.71 53.6873ZM181.332 74.2894H161.381V72.7745C161.381 67.6242 164.723 65.0989 171.305 65.0989C177.989 65.0989 181.332 67.6242 181.332 72.7745V74.2894Z" fill="#74119E"/>
<path d="M231.188 93.5783C229.062 93.9823 226.935 94.1836 225.01 94.1836C216.199 94.1836 212.958 91.7601 212.958 84.5891V75.5004C212.958 68.3294 215.895 66.1085 224.098 66.1085C226.528 66.1085 228.656 66.311 230.478 66.8156C234.631 67.7241 235.846 66.8156 235.846 62.2707V61.1596C235.846 56.6146 234.834 55.3022 230.478 54.3925C228.554 53.8879 226.428 53.6853 223.895 53.6853C208.401 53.6853 199.69 61.8655 199.69 75.2966V84.9918C199.69 99.4333 207.893 106.603 224.401 106.603C227.034 106.603 229.263 106.402 231.186 105.896C235.643 104.987 236.756 103.774 236.756 99.2307V98.2216C236.758 93.679 235.645 92.7705 231.188 93.5783Z" fill="#74119E"/>
<path d="M264.892 53.6873C249.093 53.6873 240.586 61.6662 240.586 76.1065V84.186C240.586 99.2328 248.384 106.605 264.892 106.605C280.691 106.605 288.996 98.7282 288.996 84.186V76.1065C288.995 61.0597 281.4 53.6873 264.892 53.6873ZM275.728 84.186C275.728 91.4577 273.297 94.1845 264.891 94.1845C256.484 94.1845 253.852 91.3571 253.852 84.186V76.1065C253.852 68.9367 256.486 66.1081 264.891 66.1081C273.297 66.1081 275.728 68.8348 275.728 76.1065V84.186Z" fill="#74119E"/>
<path d="M314.009 93.9828H313.503C310.261 93.9828 309.046 92.3671 309.046 87.2157V40.3578C309.046 35.8129 307.932 34.7018 303.374 34.7018H301.551C296.993 34.7018 295.879 35.8129 295.879 40.3578V90.1462C295.879 100.952 301.551 106.406 310.969 106.406C312.082 106.406 313.096 106.305 314.007 106.203C316.741 105.699 317.45 104.588 317.45 100.549V98.6297C317.454 94.69 316.846 93.9828 314.009 93.9828Z" fill="#74119E"/>
<path d="M340.413 53.6873C337.78 53.6873 335.045 53.8899 332.21 54.1919C327.754 54.8991 326.741 56.0102 326.741 60.3526V60.7565C326.741 65.1995 327.956 66.2099 332.413 65.5028C335.451 65.0989 338.388 64.8975 341.225 64.8975C348.517 64.8975 351.757 66.3118 351.757 71.0581V74.8959H341.529C327.856 74.8959 320.97 80.148 320.97 90.6498C320.97 101.456 327.856 106.606 342.947 106.606C358.038 106.606 364.924 101.355 364.924 90.3478V71.0569C364.921 58.8376 356.718 53.6873 340.413 53.6873ZM351.755 89.6394C351.35 94.5883 348.514 95.6994 342.741 95.5975C337.069 95.6981 334.538 94.7896 334.133 90.3466C334.133 86.6094 336.564 84.7924 341.324 84.7924H351.755V89.6394Z" fill="#74119E"/>
<path d="M50.2138 45.4593C48.832 41.4408 45.0429 38.7419 40.7819 38.7419H32.9239C28.6641 38.7419 24.8738 41.4408 23.492 45.4593L4.02103 102.103C3.46635 103.717 4.66815 105.394 6.37841 105.394H12.9251C15.055 105.394 16.9501 104.044 17.6411 102.035L21.8145 89.8974H51.8925L56.0659 102.035C56.7569 104.044 58.652 105.394 60.7819 105.394H67.3286C69.0388 105.394 70.2407 103.717 69.686 102.103L50.2138 45.4593ZM45.1609 77.5215C42.6819 78.5113 39.8538 79.0753 36.8517 79.0753C33.8496 79.0753 31.0215 78.5125 28.5424 77.5215C27.32 77.0327 26.7118 75.6572 27.1399 74.4151L33.4239 56.1783V49.1322H33.3363C32.6393 49.1322 32.0773 48.5111 32.1929 47.787C32.2841 47.2157 32.8205 46.8203 33.4007 46.8203H40.3087C40.8853 46.8203 41.418 47.2157 41.5093 47.7834C41.6248 48.5087 41.0702 49.1322 40.3659 49.1322H40.2783V56.1783L46.5622 74.4151C46.9916 75.6572 46.3834 77.0327 45.1609 77.5215Z" fill="#74119E"/>
<path d="M138.656 93.4781C136.631 93.8821 134.301 94.0846 131.567 94.0846C127.313 94.0846 125.187 91.8625 125.187 87.3187V67.3219H136.732C141.288 67.3219 142.403 66.2108 142.403 61.667V60.556C142.403 56.011 141.288 54.9011 136.732 54.9011H125.187V47.0242C125.187 42.6818 124.276 41.7721 119.921 41.7721H119.313C114.958 41.7721 113.743 42.7825 113.237 46.9223L112.207 54.8999H96.9142C83.1409 54.8999 75.8486 61.2619 75.8486 73.2799V99.7382C75.8486 104.283 76.9629 105.394 81.5207 105.394H83.445C88.0029 105.394 89.1159 104.283 89.1159 99.7382V74.2903C89.1159 69.1401 90.8371 67.3219 96.9142 67.3219H112.021V87.2168C112.021 100.043 118.503 106.505 131.567 106.505C134.606 106.505 136.935 106.303 138.656 105.899C143.011 104.99 144.226 103.273 144.226 98.7291V97.618C144.226 93.2756 143.214 92.6703 138.656 93.4781Z" fill="#74119E"/>
<path d="M31.3268 26.2764C31.5847 29.1317 33.9834 31.3186 36.8565 31.3223C39.7309 31.3199 42.1284 29.1317 42.3863 26.2764L44.0503 7.85513C44.4323 3.63767 41.103 0.00363888 36.8578 0C32.6125 0.00363888 29.2832 3.63767 29.664 7.85513L31.3268 26.2764Z" fill="#C93F3F"/>
<path d="M1.68799 19.7284C1.689 19.7274 1.69001 19.7263 1.69102 19.7263C1.69203 19.7253 1.69304 19.7243 1.69304 19.7233L1.68799 19.7284Z" fill="#C93F3F"/>
<path d="M19.457 37.4476L19.4621 37.4426C19.4611 37.4436 19.4601 37.4446 19.4591 37.4456C19.458 37.4466 19.458 37.4466 19.457 37.4476Z" fill="#C93F3F"/>
<path d="M19.4597 37.4448C21.0836 35.8219 21.1992 33.2322 19.7261 31.471L10.2163 20.1116C8.03894 17.511 4.09416 17.3339 1.69055 19.7259C-0.70941 22.1227 -0.530599 26.0563 2.07736 28.2275L13.469 37.7105C15.2352 39.1806 17.8322 39.0654 19.4597 37.4448Z" fill="#C93F3F"/>
<path d="M63.4892 20.1131L53.9793 31.4725C52.5051 33.2325 52.6218 35.8234 54.2457 37.4463C55.8733 39.0656 58.4703 39.1808 60.2365 37.7119L71.6281 28.229C74.236 26.0578 74.4136 22.1242 72.0149 19.7274C69.6113 17.3342 65.6665 17.5125 63.4892 20.1131Z" fill="#C93F3F"/>
<path d="M72.0122 19.7233C72.0131 19.7242 72.014 19.7251 72.014 19.726C72.0149 19.7269 72.0158 19.7278 72.0167 19.7287L72.0122 19.7233Z" fill="#C93F3F"/>
<path d="M54.2486 37.447C54.2477 37.4461 54.2468 37.4452 54.2459 37.4443C54.245 37.4434 54.2441 37.4425 54.2432 37.4416L54.2486 37.447Z" fill="#C93F3F"/>
</svg>
