<svg width="96" height="87" viewBox="0 0 96 87" fill="none" xmlns="http://www.w3.org/2000/svg">
<path d="M84.7441 79.0188C91.7948 70.6223 96.0343 59.779 96.0003 47.9423C95.9266 21.8333 74.7462 0.368122 48.6803 0.00478694C21.8605 -0.369902 0 21.2996 0 48.0785C0 59.8642 4.23381 70.6564 11.2561 79.0188C11.4885 79.2969 11.9136 79.3083 12.1687 79.0528L48.0001 43.1622L83.8316 79.0528C84.0867 79.314 84.5118 79.2969 84.7441 79.0188Z" fill="#ED1164"/>
<path d="M47.9999 86.8575C69.4602 86.8575 86.8573 69.4605 86.8573 48.0002C86.8573 26.5399 69.4602 9.14282 47.9999 9.14282C26.5396 9.14282 9.14258 26.5399 9.14258 48.0002C9.14258 69.4605 26.5396 86.8575 47.9999 86.8575Z" fill="#FFD9E7"/>
<mask id="mask0_1805_11772" style="mask-type:alpha" maskUnits="userSpaceOnUse" x="9" y="9" width="78" height="78">
<path d="M47.9008 86.8017C69.3852 86.8017 86.8017 69.3852 86.8017 47.9008C86.8017 26.4165 69.3852 9 47.9008 9C26.4165 9 9 26.4165 9 47.9008C9 69.3852 26.4165 86.8017 47.9008 86.8017Z" fill="#FBC000"/>
</mask>
<g mask="url(#mask0_1805_11772)">
<g opacity="0.8">
<path d="M65 85.5001L31 62.5001L43 48.5001L47 46.8772L56.5 42.0001L47 15.5001L93.2853 46.8772L74.1761 81.6833L65 85.5001Z" fill="#FFCDE0" fill-opacity="0.5" style="mix-blend-mode:multiply"/>
</g>
<path d="M47.7056 42.6163L40.6007 49.434L43.1841 59.2372L43.1554 60.6294C43.1077 62.9405 44.9348 64.8446 47.246 64.8924C49.5571 64.94 51.4613 63.113 51.509 60.8017L51.5377 59.4096L54.5233 49.7212L47.7056 42.6163ZM40.1716 58.5659C40.4392 58.1892 40.5022 57.7063 40.341 57.2731C39.4364 54.8414 38.659 50.7217 38.2629 46.252C38.2219 45.7982 37.9624 45.3929 37.5657 45.1672C36.7504 44.7014 36.0782 45.2503 35.8844 45.3052C35.6234 45.4291 29.4783 48.4484 29.2903 57.558C29.1483 64.4404 33.1535 64.6019 33.3235 64.6054C34.0931 64.6213 34.7287 64.0115 34.7445 63.2419C34.7921 60.9387 36.7042 59.1038 39.0075 59.1513C39.4683 59.1607 39.904 58.9412 40.1716 58.5659ZM57.7318 45.5832C57.3262 45.7925 57.0501 46.1866 56.9904 46.6383C56.3895 51.2425 55.4695 55.2198 54.4638 57.5521C54.2808 57.9782 54.3211 58.4673 54.5714 58.8574C54.8232 59.2462 55.2508 59.4862 55.7145 59.4958C58.0176 59.5433 59.8525 61.4556 59.8051 63.7588C59.7892 64.5284 60.3991 65.1639 61.1686 65.1797C61.3385 65.1832 65.347 65.187 65.489 58.3046C65.677 49.1951 59.6616 45.9248 59.4073 45.7917C59.2247 45.7319 58.5628 45.1514 57.7318 45.5832ZM49.1097 15.0669C48.616 14.6945 47.9478 14.6808 47.4389 15.0324C47.1559 15.2493 42.8846 18.3927 39.4747 24.3394L47.9589 27.3001L56.6831 24.6944C53.5215 18.6122 49.3835 15.2953 49.1097 15.0669ZM42.3089 34.1479C42.2457 37.2109 44.7 39.7686 47.7631 39.8318C50.8538 39.8956 53.3838 37.4407 53.447 34.3777C53.5108 31.2869 51.0836 28.7575 47.9929 28.6937C44.9298 28.6305 42.3728 31.0571 42.3089 34.1479Z" fill="#FAFAFA"/>
<path d="M39.4746 24.3388C37.2218 28.2203 35.3618 33.3075 35.2325 39.5727C35.19 41.6333 35.2798 44.0309 35.4797 46.4863C35.9117 51.2031 36.7405 55.5938 37.7446 58.233C37.9286 58.7661 38.4224 59.1384 39.0071 59.1505L43.1839 59.2367L43.3849 49.4908C43.4326 47.1797 45.3367 45.3526 47.6479 45.4002C49.9868 45.4484 51.7867 47.3242 51.7386 49.6632L51.5375 59.4089L55.7143 59.4951C56.2711 59.5066 56.807 59.1834 57.0129 58.6584C58.1244 56.0907 59.1312 51.8492 59.7608 46.9873C60.0619 44.5422 60.2507 42.1502 60.2932 40.0898C60.4224 33.8246 58.7739 28.665 56.6829 24.694L39.4746 24.3388ZM53.4468 34.3771C53.3836 37.4401 50.8536 39.8949 47.7628 39.8312C44.6998 39.768 42.2455 37.2103 42.3087 34.1473C42.3724 31.0565 44.9296 28.6299 47.9926 28.6931C51.0834 28.7569 53.5105 31.2863 53.4468 34.3771ZM47.2022 67.6646C46.4327 67.6488 45.7972 68.2586 45.7813 69.0281L45.5575 79.2083C45.5416 79.9779 46.1515 80.6134 46.921 80.6293C47.6905 80.6451 48.3262 80.0353 48.342 79.2657L48.5657 69.0856C48.5816 68.316 47.9718 67.6804 47.2022 67.6646ZM51.3502 69.143L51.2928 71.9275C51.2769 72.6971 51.8868 73.3327 52.6563 73.3485C53.4259 73.3643 54.0615 72.7545 54.0773 71.9849L54.1347 69.2005C54.1507 68.4309 53.5407 67.7953 52.7712 67.7795C52.0017 67.7637 51.3662 68.3735 51.3502 69.143ZM42.9392 71.7552L42.9967 68.9707C43.0126 68.2011 42.4027 67.5656 41.6332 67.5497C40.8636 67.5339 40.228 68.1437 40.2122 68.9133L40.1548 71.6978C40.1388 72.4673 40.7487 73.1029 41.5183 73.1187C42.2878 73.1345 42.9234 72.5247 42.9392 71.7552Z" fill="#ED1164"/>
</g>
</svg>
