<svg width="95" height="86" viewBox="0 0 95 86" fill="none" xmlns="http://www.w3.org/2000/svg">
<path d="M83.4196 77.7837C90.36 69.5185 94.5333 58.8447 94.4998 47.1929C94.4273 21.492 73.5779 0.362368 47.9194 0.00471212C21.5188 -0.364121 0 20.9667 0 47.3271C0 58.9285 4.16763 69.552 11.0802 77.7837C11.309 78.0575 11.7274 78.0687 11.9785 77.8172L47.2499 42.4875L82.5213 77.8172C82.7724 78.0743 83.1908 78.0575 83.4196 77.7837Z" fill="#ED1164"/>
<path d="M47.25 85.5C68.3749 85.5 85.5 68.3749 85.5 47.25C85.5 26.1251 68.3749 9 47.25 9C26.1251 9 9 26.1251 9 47.25C9 68.3749 26.1251 85.5 47.25 85.5Z" fill="#FFD9E7"/>
<mask id="mask0" style="mask-type:alpha" maskUnits="userSpaceOnUse" x="8" y="8" width="78" height="78">
<path d="M47.2655 85.319C68.414 85.319 85.5583 68.1747 85.5583 47.0262C85.5583 25.8777 68.414 8.7334 47.2655 8.7334C26.1169 8.7334 8.97266 25.8777 8.97266 47.0262C8.97266 68.1747 26.1169 85.319 47.2655 85.319Z" fill="#FBC000"/>
</mask>
<g mask="url(#mask0)">
<g opacity="0.8">
<path d="M53 90.5L25.5 64.5L38.5 60L43 53.7966L56 46.0185L54.3191 39L71.5 25L91.9401 46.0185L73.1296 80.2805L53 90.5Z" fill="#FFCDE0" fill-opacity="0.5" style="mix-blend-mode:multiply"/>
</g>
</g>
<path d="M48.0771 63.3203L45.4244 65.4085C44.6912 65.9856 43.6309 65.8594 43.0539 65.1262C42.4768 64.3931 42.6031 63.3328 43.3362 62.7558L45.9889 60.6676C46.7208 60.0915 46.8473 59.029 46.2712 58.2971L44.3513 55.8581C43.7742 55.1249 43.9004 54.0647 44.6336 53.4876C45.3667 52.9105 46.427 53.0368 47.004 53.7699L48.924 56.209C50.6514 58.4031 50.2715 61.593 48.0771 63.3203Z" fill="#ED1164"/>
<path d="M50.362 74.4109C48.8969 75.5642 46.7743 75.3114 45.6211 73.8463L35.18 60.5823L40.4855 56.4059L50.9266 69.6699C52.08 71.135 51.8272 73.2576 50.362 74.4109Z" fill="#FAFAFA"/>
<path d="M36.7904 46.2537L43.2639 54.4775L42.574 59.0594L33.2892 66.3681C31.0875 68.1013 27.8692 67.67 26.136 65.4681L21.9596 60.1624C20.2472 57.9871 20.6463 54.8372 22.8483 53.104L32.1331 45.7953L36.7904 46.2537Z" fill="#FE318F"/>
<path d="M40.0068 50.339L43.2644 54.4774L42.5745 59.0592L33.2897 66.368C31.0879 68.1012 27.8696 67.6699 26.1364 65.4679L24.0899 62.8681L40.0068 50.339Z" fill="#FD0F7F"/>
<path d="M60.2066 27.0385C59.2817 26.9295 58.62 26.0888 58.7303 25.163L59.1285 21.8097C59.2386 20.8836 60.078 20.2228 61.0041 20.3331C61.929 20.4422 62.5907 21.2828 62.4804 22.2086L62.0822 25.5619C61.972 26.488 61.1327 27.1488 60.2066 27.0385Z" fill="#ED1164"/>
<path d="M72.4179 38.6928L69.0649 38.2924C68.1389 38.1821 67.4771 37.3415 67.5885 36.4169C67.6988 35.4909 68.5382 34.8303 69.464 34.9405L72.8171 35.3409C73.743 35.4512 74.4048 36.2918 74.2934 37.2165C74.1832 38.1423 73.3439 38.8031 72.4179 38.6928Z" fill="#ED1164"/>
<path d="M71.8404 25.2805C72.425 26.0232 72.3009 27.0663 71.5581 27.6509L67.5789 30.7832C66.836 31.368 65.793 31.2437 65.2084 30.5009C64.6237 29.7581 64.7479 28.7151 65.4907 28.1305L69.4699 24.9982C70.2127 24.4134 71.2556 24.5376 71.8404 25.2805Z" fill="#ED1164"/>
<path d="M51.4046 26.6135L66.0221 45.1831C66.4398 45.7137 66.4367 50.7859 67.0417 50.9542L62.2562 51.3701C55.1706 51.9207 48.1498 54.9553 43.1626 58.8811L42.7116 59.2361L32.2704 45.972L32.7213 45.617C37.974 41.4822 42.1744 35.6836 44.4435 28.7416L45.9941 23.9978L51.4046 26.6135Z" fill="white"/>
<path d="M34.701 54.5149C35.2857 55.2577 35.1616 56.3007 34.4187 56.8854L31.7659 58.9737C31.0231 59.5584 29.98 59.4341 29.3955 58.6914C28.8107 57.9485 28.9349 56.9056 29.6778 56.3209L32.3305 54.2328C33.0734 53.648 34.1163 53.7722 34.701 54.5149Z" fill="white"/>
<path d="M58.2086 35.4488L65.5174 44.7336C65.935 45.2642 66.5011 50.8797 67.1061 51.048L61.6233 51.3038C54.5376 51.8543 48.4657 54.7588 43.4785 58.6847L42.5291 59.026L36.9863 52.1545L58.2086 35.4488Z" fill="#F798BC" fill-opacity="0.13" style="mix-blend-mode:multiply"/>
<path d="M34.7009 54.5153C35.2855 55.258 35.1614 56.3011 34.4186 56.8857L31.7658 58.974C31.023 59.5588 29.9799 59.4344 29.3954 58.6917L34.7009 54.5153Z" fill="#FFDC68"/>
<path d="M51.7754 22.0433L70.5693 45.9185C71.7178 47.3775 71.4637 49.511 70.0047 50.6595C69.8455 50.7848 69.6445 50.8569 69.4435 50.9292C68.6228 51.3605 67.6996 51.4428 66.8477 51.1249C66.2428 50.9568 65.6812 50.6255 65.2635 50.0949L46.4696 26.2196C45.9893 25.6093 45.8105 24.8909 45.8002 24.1685C45.7902 23.4461 46.0173 22.7517 46.4489 22.1542C46.6459 21.9131 46.7954 21.6666 47.0342 21.4786C48.4932 20.3302 50.6268 20.5842 51.7754 22.0433Z" fill="#FE318F"/>
<path d="M61.2231 33.9901L70.62 45.9277C71.7685 47.3867 71.5144 49.5202 70.0554 50.6687C69.8962 50.794 69.6953 50.8661 69.4942 50.9384C68.6735 51.3697 67.7503 51.452 66.8984 51.1341C66.2935 50.966 65.7319 50.6347 65.3142 50.1041L55.9173 38.1666L61.2231 33.9901Z" fill="#FD0F7F"/>
</svg>
