<svg width="96" height="87" viewBox="0 0 96 87" fill="none" xmlns="http://www.w3.org/2000/svg">
<path d="M84.7441 79.0188C91.7948 70.6223 96.0343 59.779 96.0003 47.9423C95.9266 21.8333 74.7462 0.368122 48.6803 0.00478694C21.8605 -0.369902 0 21.2996 0 48.0785C0 59.8642 4.23381 70.6564 11.2561 79.0188C11.4885 79.2969 11.9136 79.3083 12.1687 79.0528L48.0001 43.1622L83.8316 79.0528C84.0867 79.314 84.5118 79.2969 84.7441 79.0188Z" fill="#FBC000"/>
<path d="M47.9999 86.8573C69.4602 86.8573 86.8573 69.4602 86.8573 47.9999C86.8573 26.5396 69.4602 9.14258 47.9999 9.14258C26.5396 9.14258 9.14258 26.5396 9.14258 47.9999C9.14258 69.4602 26.5396 86.8573 47.9999 86.8573Z" fill="#FFF6DA"/>
<mask id="mask0_1277_20899" style="mask-type:alpha" maskUnits="userSpaceOnUse" x="9" y="9" width="78" height="78">
<path d="M47.9008 86.8017C69.3852 86.8017 86.8017 69.3852 86.8017 47.9008C86.8017 26.4165 69.3852 9 47.9008 9C26.4165 9 9 26.4165 9 47.9008C9 69.3852 26.4165 86.8017 47.9008 86.8017Z" fill="#FBC000"/>
</mask>
<g mask="url(#mask0_1277_20899)">
<g opacity="0.8">
<path d="M54 91.5L28.5 73.5L62 35L70 23.5L93 47.5L74.176 81.6831L54 91.5Z" fill="#FBC000" fill-opacity="0.5" style="mix-blend-mode:multiply"/>
</g>
</g>
<path d="M26.6719 34.1875C24.1479 34.1875 22 36.2338 22 38.7578V60.0859C22 62.6099 24.1479 64.6562 26.6719 64.6562H28.1953V72.4766C28.1953 73.0923 28.5659 73.6489 29.1356 73.8838C29.3244 73.9627 29.5224 74 29.7188 74C30.1143 74 30.5043 73.8453 30.7959 73.5537L39.5917 64.6562H57.2422C59.7662 64.6562 61.8125 62.6099 61.8125 60.0859V38.7578C61.8125 36.2338 59.7662 34.1875 57.2422 34.1875H26.6719Z" fill="white"/>
<path d="M41.8086 55.5684H32.5664C31.7245 55.5684 31.043 54.8868 31.043 54.0449C31.043 53.2031 31.7245 52.5215 32.5664 52.5215H41.8086C42.6505 52.5215 43.332 53.2031 43.332 54.0449C43.332 54.8868 42.6505 55.5684 41.8086 55.5684Z" fill="#FBC000"/>
<path d="M51.8788 50.5342C51.8141 50.5985 51.7494 50.6632 51.6848 50.6846L42.7005 55.36C42.076 55.6401 41.4297 55.468 40.9985 55.0371C40.5677 54.6063 40.3955 53.9596 40.6756 53.3351L45.351 44.3508C45.3724 44.2862 45.4371 44.2215 45.5018 44.1572L50.6723 45.3633L51.1246 45.4712L51.8788 50.5342Z" fill="#FFCEBF"/>
<path d="M73.5478 28.9158L70.316 32.1475L64.9943 31.0057L64.8436 30.9843L63.8525 25.684L67.0843 22.4523C67.6873 21.8492 68.6355 21.8492 69.2385 22.4523L73.5474 26.7615C74.1508 27.3646 74.1508 28.3127 73.5478 28.9158Z" fill="#FBC000"/>
<path d="M51.0695 45.4907L51.8236 50.5538C51.759 50.618 51.6943 50.6827 51.6296 50.7041L42.6453 55.3796C42.0209 55.6597 41.3746 55.4875 40.9434 55.0566L50.6172 45.3828L51.0695 45.4907Z" fill="#FFB99C"/>
<path d="M73.5476 28.9163L70.3159 32.148L64.9941 31.0063L71.393 24.6074L73.5476 26.7621C74.1506 27.3651 74.1506 28.3133 73.5476 28.9163Z" fill="#FBC000" fill-opacity="0.6" style="mix-blend-mode:multiply"/>
<path d="M70.3162 32.1471L52.0611 50.4018C51.9965 50.4664 51.9104 50.5097 51.8243 50.5529L45.4473 44.1755C45.4901 44.0894 45.5334 44.0033 45.598 43.9387L63.8527 25.6836L70.3162 32.1471Z" fill="#F03C80"/>
<path d="M70.3582 32.2405L52.1031 50.4952C52.0384 50.5599 51.9523 50.6031 51.8662 50.6464L48.6777 47.4575L67.1264 29.0088L70.3582 32.2405Z" fill="#ED1164"/>
</svg>
