<svg width="96" height="87" viewBox="0 0 96 87" fill="none" xmlns="http://www.w3.org/2000/svg">
<path d="M84.7441 79.0188C91.7948 70.6223 96.0343 59.779 96.0003 47.9423C95.9266 21.8333 74.7462 0.368122 48.6803 0.00478694C21.8605 -0.369902 0 21.2996 0 48.0785C0 59.8642 4.23381 70.6564 11.2561 79.0188C11.4885 79.2969 11.9136 79.3083 12.1687 79.0528L48.0001 43.1622L83.8316 79.0528C84.0867 79.314 84.5118 79.2969 84.7441 79.0188Z" fill="#FBC000"/>
<path d="M47.9999 86.8573C69.4602 86.8573 86.8573 69.4602 86.8573 47.9999C86.8573 26.5396 69.4602 9.14258 47.9999 9.14258C26.5396 9.14258 9.14258 26.5396 9.14258 47.9999C9.14258 69.4602 26.5396 86.8573 47.9999 86.8573Z" fill="#FFF6DA"/>
<mask id="mask0_1277_20885" style="mask-type:alpha" maskUnits="userSpaceOnUse" x="9" y="9" width="78" height="78">
<path d="M47.9008 86.8017C69.3852 86.8017 86.8017 69.3852 86.8017 47.9008C86.8017 26.4165 69.3852 9 47.9008 9C26.4165 9 9 26.4165 9 47.9008C9 69.3852 26.4165 86.8017 47.9008 86.8017Z" fill="#FBC000"/>
</mask>
<g mask="url(#mask0_1277_20885)">
<g opacity="0.8">
<path d="M55.0668 88.8491L29.5 70.5L43.5 53.5L53 48.5L67.5 28.5L96 56L74.176 81.6831L55.0668 88.8491Z" fill="#FBC000" fill-opacity="0.5" style="mix-blend-mode:multiply"/>
</g>
</g>
<path d="M51.6057 23.7559V46.582L36.7394 45.6456L25.4785 38.3318C29.51 28.4932 39.0888 22 49.8498 22C50.8191 22 51.6057 22.7866 51.6057 23.7559Z" fill="white"/>
<path d="M76.1876 48.3379C76.1876 62.3063 65.3411 73.7159 51.6056 74.6172C51.025 74.6559 50.4397 74.6758 49.8498 74.6758C45.4613 74.6758 41.1723 73.5906 37.3457 71.5234L40.8457 57.2342L51.6056 46.582H74.4318C75.401 46.582 76.1876 47.3687 76.1876 48.3379Z" fill="#E0E0E0"/>
<path d="M76.1875 48.3379C76.1875 62.3063 65.341 73.7159 51.6055 74.6172V46.582H74.4316C75.4009 46.582 76.1875 47.3687 76.1875 48.3379Z" fill="white"/>
<path d="M51.6054 46.5826C50.4166 48.662 37.105 71.9443 36.4465 73.0961C35.9315 73.9201 34.8464 74.1671 34.0258 73.6533C25.504 68.3154 20 58.8865 20 48.3385C20 45.11 20.5127 41.9331 21.5241 38.8966C21.8308 37.9777 22.8258 37.4791 23.7458 37.7858C23.7647 37.7917 51.3567 46.5041 51.6054 46.5826Z" fill="#ED1164"/>
<path d="M56.8262 43.1019L66.5744 29.9238M66.5744 29.9238H60.9782M66.5744 29.9238L67.6575 34.6174" stroke="#ED1164" stroke-width="4" stroke-linecap="round" stroke-linejoin="round"/>
</svg>
