<svg width="55" height="54" viewBox="0 0 55 54" fill="none" xmlns="http://www.w3.org/2000/svg">
                                        <path d="M50.483 38.4544H37.4545V18.5961C37.7707 18.4361 38.0781 18.2642 38.3726 18.0717L41.4794 21.8964C40.0671 23.2899 39.1916 25.213 39.1916 27.3336C39.1916 31.5792 42.698 35.0326 47.0087 35.0326C51.3195 35.0326 54.8259 31.5792 54.8259 27.3336C54.8259 23.0889 51.3195 19.6346 47.0087 19.6346C45.4757 19.6346 44.0487 20.0777 42.8405 20.8322L39.7267 16.999C41.3387 15.472 42.4088 13.3976 42.6225 11.0802H44.7348H45.6034L47.3405 14.5019H54.4941L52.3227 10.2247L54.4941 5.94749H47.3405L45.6034 9.36927H44.7348H42.6225C42.1812 4.58049 38.0868 0.814819 33.1117 0.814819C30.7848 0.814819 28.6524 1.64032 26.9935 3.00647C26.8067 1.7695 25.7323 0.814819 24.426 0.814819H14.0031C12.8723 0.814819 11.9168 1.53254 11.5573 2.52571H5.31745C2.92281 2.52571 0.974609 4.44447 0.974609 6.80294V49.5752C0.974609 51.9337 2.92281 53.8524 5.31745 53.8524H33.1117C35.5063 53.8524 37.4545 51.9337 37.4545 49.5752V47.0089H50.483C52.8777 47.0089 54.8259 45.0901 54.8259 42.7316C54.8259 40.3732 52.8777 38.4544 50.483 38.4544ZM53.0887 27.3336C53.0887 30.6348 50.3606 33.3217 47.0087 33.3217C43.6569 33.3217 40.9288 30.6348 40.9288 27.3336C40.9288 24.0316 43.6569 21.3455 47.0087 21.3455C50.3606 21.3455 53.0887 24.0316 53.0887 27.3336ZM48.4141 12.7911L47.5455 11.0802H49.6145H50.8148L51.6834 12.7911H48.4141ZM48.4141 7.65838H51.6834L50.8148 9.36927H49.6145H47.5455L48.4141 7.65838ZM11.5573 7.65838C11.9168 8.65155 12.8723 9.36927 14.0031 9.36927H23.6017C23.5756 9.65157 23.5574 9.93558 23.5574 10.2247C23.5574 12.9647 24.7604 15.4275 26.6643 17.1487L25.3397 18.8604C23.573 17.7312 21.4728 17.0683 19.2146 17.0683C12.9887 17.0683 7.92316 22.0572 7.92316 28.1891C7.92316 34.3209 12.9887 39.3099 19.2146 39.3099C25.4405 39.3099 30.5059 34.3209 30.5059 28.1891C30.5059 24.8947 29.0355 21.9392 26.7172 19.9015L28.0436 18.1872C29.283 18.9554 30.7092 19.4541 32.2431 19.591V38.4544H27.7422L21.4598 40.7752C20.6364 41.0798 20.0831 41.8659 20.0831 42.7316C20.0831 43.5973 20.6364 44.3835 21.4598 44.6889L27.7422 47.0089H32.2431V48.7198H6.18602V7.65838H11.5573ZM23.5574 32.4663H21.8203V25.6227H23.5574V32.4663ZM20.0831 32.4663H18.346V27.3336V23.9118H20.0831V32.4663ZM16.6088 32.4663H14.8717V29.0445H16.6088V32.4663ZM26.5791 34.1772C24.8255 36.2653 22.1755 37.599 19.2146 37.599C16.2536 37.599 13.6045 36.2653 11.85 34.1772H26.5791ZM27.7144 32.4663H25.2945V23.9118H21.8203V22.201H16.6088V27.3336H13.1346V32.4663H10.7147C10.0459 31.1814 9.6603 29.7297 9.6603 28.1891C9.6603 23.0008 13.9467 18.7792 19.2146 18.7792C24.4824 18.7792 28.7688 23.0008 28.7688 28.1891C28.7688 29.7297 28.3832 31.1814 27.7144 32.4663ZM22.0704 43.0875C21.921 43.0319 21.8203 42.889 21.8203 42.7316C21.8203 42.5742 21.921 42.4314 22.0704 42.3766L27.0317 40.5443V44.919L22.0704 43.0875ZM28.7688 45.298V43.5871H46.1402V45.298H28.7688ZM46.1402 41.8762H28.7688V40.1653H46.1402V41.8762ZM35.7174 38.4544H33.9802V19.591C34.5778 19.5379 35.1571 19.4267 35.7174 19.2693V38.4544ZM33.1117 2.52571C37.1288 2.52571 40.4441 5.52576 40.8775 9.36927H37.3668C36.9629 7.41971 35.2084 5.94749 33.1117 5.94749C30.717 5.94749 28.7688 7.86625 28.7688 10.2247C28.7688 12.5832 30.717 14.5019 33.1117 14.5019C35.2084 14.5019 36.9629 13.0297 37.3668 11.0802H40.8775C40.4441 14.9237 37.1288 17.9237 33.1117 17.9237C28.8009 17.9237 25.2945 14.4694 25.2945 10.2247C25.2945 5.98 28.8009 2.52571 33.1117 2.52571ZM35.5575 11.0802C35.198 12.0733 34.2425 12.7911 33.1117 12.7911C31.675 12.7911 30.5059 11.6396 30.5059 10.2247C30.5059 8.80981 31.675 7.65838 33.1117 7.65838C34.2425 7.65838 35.198 8.3761 35.5575 9.36927H33.0985C32.6261 9.36927 32.2431 9.75227 32.2431 10.2247C32.2431 10.6972 32.6261 11.0802 33.0985 11.0802H35.5575ZM13.1346 3.38116C13.1346 2.9098 13.5237 2.52571 14.0031 2.52571H24.426C24.9054 2.52571 25.2945 2.9098 25.2945 3.38116V4.83113C24.6883 5.68059 24.2245 6.63185 23.9291 7.6541L14.0031 7.65838C13.5237 7.65838 13.1346 7.27429 13.1346 6.80294V3.38116ZM35.7174 49.5752C35.7174 50.9901 34.5483 52.1415 33.1117 52.1415H5.31745C3.88084 52.1415 2.71175 50.9901 2.71175 49.5752V6.80294C2.71175 5.38803 3.88084 4.2366 5.31745 4.2366H11.3974V5.94749H6.18602C5.22799 5.94749 4.44888 6.71483 4.44888 7.65838V48.7198C4.44888 49.6633 5.22799 50.4306 6.18602 50.4306H32.2431C33.2011 50.4306 33.9802 49.6633 33.9802 48.7198V47.0089H35.7174V49.5752ZM50.483 45.298H47.8773V40.1653H50.483C51.9196 40.1653 53.0887 41.3167 53.0887 42.7316C53.0887 44.1465 51.9196 45.298 50.483 45.298Z" fill="white"/>
                                        </svg>