<svg width="96" height="87" viewBox="0 0 96 87" fill="none" xmlns="http://www.w3.org/2000/svg">
<path d="M84.7441 79.0188C91.7948 70.6223 96.0343 59.779 96.0003 47.9423C95.9266 21.8333 74.7462 0.368122 48.6803 0.00478694C21.8605 -0.369902 0 21.2996 0 48.0785C0 59.8642 4.23381 70.6564 11.2561 79.0188C11.4885 79.2969 11.9136 79.3083 12.1687 79.0528L48.0001 43.1622L83.8316 79.0528C84.0867 79.314 84.5118 79.2969 84.7441 79.0188Z" fill="#ED1164"/>
<path d="M48.0004 86.8575C69.4607 86.8575 86.8577 69.4605 86.8577 48.0002C86.8577 26.5399 69.4607 9.14282 48.0004 9.14282C26.5401 9.14282 9.14307 26.5399 9.14307 48.0002C9.14307 69.4605 26.5401 86.8575 48.0004 86.8575Z" fill="#FFD9E7"/>
<mask id="mask0" mask-type="alpha" maskUnits="userSpaceOnUse" x="9" y="8" width="78" height="79">
<path d="M48.0161 86.6737C69.5004 86.6737 86.9169 69.2572 86.9169 47.7729C86.9169 26.2886 69.5004 8.87207 48.0161 8.87207C26.5317 8.87207 9.11523 26.2886 9.11523 47.7729C9.11523 69.2572 26.5317 86.6737 48.0161 86.6737Z" fill="#FBC000"/>
</mask>
<g mask="url(#mask0)">
<g opacity="0.8">
<path d="M55.182 88.7212L29.5894 73.0243L63.0304 68.5883L65.8286 56.9939V54.6508L65.4191 22.5215L93.4004 46.7492L74.2912 81.5552L55.182 88.7212Z" fill="#FFCDE0" fill-opacity="0.5" style="mix-blend-mode:multiply"/>
</g>
</g>
<path d="M29.5894 23.5476V73.5109H59.6688C63.2069 73.5109 66.0751 70.6427 66.0751 67.1046V23.5476C66.0751 22.9812 65.6157 22.5217 65.0493 22.5217H30.6152C30.0488 22.5217 29.5894 22.9812 29.5894 23.5476Z" fill="white"/>
<path d="M66.0755 23.5473V67.1047C66.0755 70.642 63.2069 73.5107 59.6688 73.5107H56.7231C60.2616 73.5107 63.1302 70.642 63.1302 67.1047V23.5473C63.1302 22.9809 62.6704 22.5215 62.104 22.5215H65.0497C65.6161 22.5215 66.0755 22.9809 66.0755 23.5473Z" fill="#FFA7C8" style="mix-blend-mode:multiply"/>
<path d="M57.6104 31.9297H35.7492C35.0878 31.9297 34.5513 31.4756 34.5513 30.9155V28.5331C34.5513 27.9733 35.0878 27.5193 35.7492 27.5193H57.6104C58.2722 27.5193 58.8083 27.9733 58.8083 28.5331V30.9155C58.8083 31.4756 58.2722 31.9297 57.6104 31.9297Z" fill="#ED1164"/>
<path d="M35.6538 36.3399C35.6538 35.731 36.1475 35.2373 36.7564 35.2373H49.9875C50.5964 35.2373 51.0901 35.731 51.0901 36.3399C51.0901 36.9488 50.5964 37.4425 49.9875 37.4425H36.7564C36.1475 37.4425 35.6538 36.9488 35.6538 36.3399Z" fill="#F798BC"/>
<path d="M35.6538 47.366C35.6538 46.7571 36.1475 46.2634 36.7564 46.2634H49.9875C50.5964 46.2634 51.0901 46.7571 51.0901 47.366C51.0901 47.975 50.5964 48.4686 49.9875 48.4686H36.7564C36.1475 48.4686 35.6538 47.975 35.6538 47.366Z" fill="#F798BC"/>
<path d="M35.6538 58.3919C35.6538 57.783 36.1475 57.2893 36.7564 57.2893H49.9875C50.5964 57.2893 51.0901 57.783 51.0901 58.3919C51.0901 59.0008 50.5964 59.4945 49.9875 59.4945H36.7564C36.1475 59.4945 35.6538 59.0008 35.6538 58.3919Z" fill="#F798BC"/>
<path d="M35.6538 39.6475C35.6538 39.0386 36.1475 38.5449 36.7564 38.5449H56.603C57.212 38.5449 57.7056 39.0386 57.7056 39.6475C57.7056 40.2565 57.212 40.7501 56.603 40.7501H36.7564C36.1475 40.7501 35.6538 40.2565 35.6538 39.6475Z" fill="#ED1164"/>
<path d="M35.6538 50.6734C35.6538 50.0644 36.1475 49.5708 36.7564 49.5708H56.603C57.212 49.5708 57.7056 50.0644 57.7056 50.6734C57.7056 51.2823 57.212 51.776 56.603 51.776H36.7564C36.1475 51.776 35.6538 51.2823 35.6538 50.6734Z" fill="#ED1164"/>
<path d="M35.6538 61.6993C35.6538 61.0903 36.1475 60.5967 36.7564 60.5967H56.603C57.212 60.5967 57.7056 61.0903 57.7056 61.6993C57.7056 62.3082 57.212 62.8019 56.603 62.8019H36.7564C36.1475 62.8019 35.6538 62.3082 35.6538 61.6993Z" fill="#ED1164"/>
</svg>
