<svg width="60" height="60" viewBox="0 0 60 60" fill="red" xmlns="http://www.w3.org/2000/svg">
                        <path d="M57.828 21.2535C56.703 19.9697 55.08 19.2349 53.3708 19.2349H52.706V5.11774C52.706 2.68459 50.7251 0.703613 48.2919 0.703613H44.0877C41.6546 0.703613 39.6736 2.68459 39.6736 5.11774V8.01384H26.2563V3.40592C26.2563 1.94172 25.0666 0.752061 23.6024 0.752061H8.42749C6.96329 0.752061 5.77363 1.94172 5.77363 3.40592V14.2394C5.77363 15.7036 6.96329 16.8932 8.42749 16.8932H15.0379V19.2322H6.66722C4.96078 19.2322 3.33509 19.9697 2.21003 21.2535C1.08497 22.5374 0.56819 24.2465 0.794279 25.9368L3.94069 49.6493C4.33096 52.5831 6.85563 54.7955 9.81632 54.7955H11.8134L19.1479 59.3388C19.4601 59.5326 19.8046 59.6295 20.1518 59.6295C20.4694 59.6295 20.7897 59.5488 21.0831 59.3846C21.6968 59.0428 22.0628 58.4183 22.0628 57.7158V54.9947H50.219C53.1797 54.9947 55.7071 52.7796 56.0947 49.8431L59.2519 25.9287C59.4699 24.2438 58.9531 22.5347 57.828 21.2535ZM46.2087 37.7904L41.8887 30.4505L50.4936 30.3752L46.2087 37.7904ZM45.385 15.2837V28.2488H41.2912V15.2406H45.3904C45.3877 15.2541 45.385 15.2675 45.385 15.2837ZM46.9946 15.2406H51.0938V28.2488H47V15.2837C47 15.2675 46.9946 15.2541 46.9946 15.2406ZM51.0938 13.6257H41.2912V11.4348H51.0938V13.6257V13.6257ZM41.2912 5.11774C41.2912 3.5728 42.5482 2.31854 44.0904 2.31854H48.2946C49.8395 2.31854 51.0938 3.57549 51.0938 5.11774V9.81986H41.2912V5.11774V5.11774ZM7.29166 14.2394V3.40592C7.29166 2.77879 7.80036 2.27009 8.42749 2.27009H23.6051C24.2322 2.27009 24.7409 2.77879 24.7409 3.40592V8.55484C24.7113 8.63828 24.6925 8.72979 24.6925 8.82399C24.6925 8.9182 24.7113 9.00702 24.7409 9.09315V14.2421C24.7409 14.8692 24.2322 15.3779 23.6051 15.3779H8.42749C7.80036 15.3752 7.29166 14.8665 7.29166 14.2394ZM16.6528 16.8932H23.6024C25.0666 16.8932 26.2563 15.7036 26.2563 14.2394V9.63145H39.6736V19.2349H16.6528V16.8932ZM57.6477 25.7242L54.4905 49.6385C54.2079 51.7756 52.3723 53.3851 50.2164 53.3851H21.2554C20.8086 53.3851 20.4479 53.7458 20.4479 54.1926V57.7212C20.4479 57.8719 20.3537 57.9473 20.2972 57.9796C20.2407 58.0119 20.1249 58.0523 19.9984 57.9715L12.4675 53.3071C12.341 53.229 12.193 53.186 12.0422 53.186H9.81632C7.66309 53.186 5.82477 51.5764 5.54216 49.442L2.39305 25.7269C2.22887 24.4941 2.60569 23.2533 3.42391 22.3194C4.24214 21.3854 5.42373 20.8498 6.66722 20.8498H39.6763V29.0563C39.6763 29.1667 39.6978 29.2716 39.7382 29.3658C39.6494 29.5946 39.6601 29.853 39.7866 30.0683L44.5534 38.1645H38.8796C38.4328 38.1645 38.0721 38.5251 38.0721 38.9719C38.0721 39.4187 38.4328 39.7794 38.8796 39.7794H46.1898C46.5343 39.7794 46.8277 39.5614 46.9434 39.2572C47.2018 39.12 47.4225 38.9154 47.576 38.6543L52.5984 29.9634C52.7141 29.7615 52.7329 29.5246 52.663 29.3093C52.6899 29.2286 52.706 29.1451 52.706 29.0563V20.8471H53.3708C54.6116 20.8471 55.7932 21.3827 56.6115 22.3167C57.4324 23.2507 57.8092 24.4915 57.6477 25.7242Z" fill="white"/>
                        <path d="M51.0993 45.7734H38.8797C38.4329 45.7734 38.0723 46.1341 38.0723 46.5809C38.0723 47.0277 38.4329 47.3884 38.8797 47.3884H51.0993C51.5461 47.3884 51.9068 47.0277 51.9068 46.5809C51.9068 46.1341 51.5461 45.7734 51.0993 45.7734Z" fill="white"/>
                        <path d="M51.0993 41.9678H38.8797C38.4329 41.9678 38.0723 42.3284 38.0723 42.7752C38.0723 43.222 38.4329 43.5827 38.8797 43.5827H51.0993C51.5461 43.5827 51.9068 43.222 51.9068 42.7752C51.9068 42.3284 51.5461 41.9678 51.0993 41.9678Z" fill="white"/>
                        <path d="M46.1926 49.5791H38.8797C38.4329 49.5791 38.0723 49.9398 38.0723 50.3866C38.0723 50.8334 38.4329 51.194 38.8797 51.194H46.19C46.6368 51.194 46.9974 50.8334 46.9974 50.3866C46.9974 49.9398 46.6367 49.5791 46.1926 49.5791Z" fill="white"/>
                        <path d="M18.9434 10.7159C19.6378 10.3229 20.0604 9.61236 20.0711 8.81297C20.0819 8.01358 19.6782 7.29225 18.9945 6.88314L14.8415 4.39077C14.147 3.97358 13.3127 3.96281 12.6075 4.36385C11.9023 4.7622 11.4824 5.48353 11.4824 6.29369V11.1304C11.4824 11.9271 11.8942 12.643 12.5833 13.0468C12.9332 13.2513 13.3154 13.3536 13.7003 13.3536C14.0744 13.3536 14.4485 13.2567 14.7903 13.0629L18.9434 10.7159ZM13.3477 11.736C13.2427 11.6741 13.0005 11.4937 13.0005 11.1304V6.29369C13.0005 5.92495 13.2481 5.74461 13.3557 5.68271C13.4203 5.64772 13.5468 5.5885 13.7056 5.5885C13.8133 5.5885 13.9344 5.61542 14.0609 5.69078L18.214 8.18315C18.5262 8.37156 18.5558 8.67301 18.5531 8.79413C18.5504 8.91525 18.5127 9.2167 18.1978 9.39434L14.0448 11.7387C13.7299 11.919 13.4526 11.7979 13.3477 11.736Z" fill="white"/>
                        <path d="M32.4766 31.5463V25.8483C32.4766 24.1876 31.1254 22.8364 29.4647 22.8364C27.9252 22.8364 26.6548 23.9992 26.4771 25.4903C22.0495 29.9502 14.2602 29.6514 14.1795 29.646C14.1714 29.646 14.166 29.646 14.1606 29.646C14.1553 29.646 14.1499 29.6433 14.1418 29.6433H12.2389C8.64567 29.6433 5.72266 32.5663 5.72266 36.1596C5.72266 39.2521 7.88935 41.8468 10.7828 42.5089L13.3774 50.0425C13.4904 50.3682 13.7973 50.5862 14.1418 50.5862H18.0472C18.494 50.5862 18.8547 50.2255 18.8547 49.7788V43.1145C21.3309 43.607 24.2943 44.6487 26.461 46.8234C26.539 48.4141 27.8552 49.6872 29.4647 49.6872C31.1254 49.6872 32.4766 48.3361 32.4766 46.6754V40.9774C34.934 40.8078 36.8826 38.7596 36.8826 36.2591C36.8826 33.7587 34.934 31.7158 32.4766 31.5463ZM7.34027 36.1649C7.34027 33.4626 9.53926 31.2636 12.2416 31.2636H13.337V41.0662H12.2416C9.53926 41.0662 7.34027 38.8672 7.34027 36.1649ZM17.2425 48.9767H14.7205L12.5511 42.6785H14.0637C14.1041 42.6838 14.1418 42.6865 14.1822 42.6865C14.2145 42.6838 15.4687 42.6381 17.2425 42.8588V48.9767ZM14.952 41.0662V31.269C17.0217 31.2367 22.4291 30.8276 26.4556 27.6704V44.6621C22.4264 41.5076 17.0191 41.1012 14.952 41.0662ZM30.8617 46.6808C30.8617 47.4506 30.2345 48.0777 29.4647 48.0777C28.695 48.0777 28.0678 47.4506 28.0678 46.6808V25.8483C28.0678 25.0785 28.695 24.4514 29.4647 24.4514C30.2345 24.4514 30.8617 25.0785 30.8617 25.8483V32.3376V40.1915V46.6808ZM32.4766 39.3679V33.1639C34.0431 33.3281 35.2677 34.6577 35.2677 36.2672C35.2677 37.8768 34.0431 39.2037 32.4766 39.3679Z" fill="white"/>
                        </svg>