<svg width="96" height="87" viewBox="0 0 96 87" fill="none" xmlns="http://www.w3.org/2000/svg">
<path d="M84.7441 79.0188C91.7948 70.6223 96.0343 59.779 96.0003 47.9423C95.9266 21.8333 74.7462 0.368122 48.6803 0.00478694C21.8605 -0.369902 0 21.2996 0 48.0785C0 59.8642 4.23381 70.6564 11.2561 79.0188C11.4885 79.2969 11.9136 79.3083 12.1687 79.0528L48.0001 43.1622L83.8316 79.0528C84.0867 79.314 84.5118 79.2969 84.7441 79.0188Z" fill="#FBC000"/>
<path d="M47.9999 86.8573C69.4602 86.8573 86.8573 69.4602 86.8573 47.9999C86.8573 26.5396 69.4602 9.14258 47.9999 9.14258C26.5396 9.14258 9.14258 26.5396 9.14258 47.9999C9.14258 69.4602 26.5396 86.8573 47.9999 86.8573Z" fill="#FFF6DA"/>
<mask id="mask0_1277_19426" style="mask-type:alpha" maskUnits="userSpaceOnUse" x="9" y="8" width="78" height="79">
<path d="M48.0161 86.6728C69.5004 86.6728 86.9169 69.2563 86.9169 47.7719C86.9169 26.2876 69.5004 8.87109 48.0161 8.87109C26.5317 8.87109 9.11523 26.2876 9.11523 47.7719C9.11523 69.2563 26.5317 86.6728 48.0161 86.6728Z" fill="#FBC000"/>
</mask>
<g mask="url(#mask0_1277_19426)">
<g opacity="0.8">
<path d="M55.182 88.7212L23.5 68.5883L39.5 55.5L23.5 45.5L43 25.5L58 37L67 25.5L93.4004 46.7492L74.2912 81.5552L55.182 88.7212Z" fill="#FBC000" fill-opacity="0.5" style="mix-blend-mode:multiply"/>
</g>
</g>
<path d="M42.5703 45.8383H24.268C23.5679 45.8383 23 45.2704 23 44.5703V26.268C23 25.5679 23.5679 25 24.268 25H42.5703C43.2704 25 43.8383 25.5679 43.8383 26.268V44.5703C43.8403 45.2704 43.2704 45.8383 42.5703 45.8383Z" fill="#ED1164"/>
<path d="M66.0518 45.8383H47.7495C47.0494 45.8383 46.4814 45.2704 46.4814 44.5703V26.268C46.4814 25.5679 47.0494 25 47.7495 25H66.0518C66.7518 25 67.3198 25.5679 67.3198 26.268V44.5703C67.3198 45.2704 66.7518 45.8383 66.0518 45.8383Z" fill="white"/>
<path d="M42.5703 69.1743H24.268C23.5679 69.1743 23 68.6063 23 67.9062V49.6039C23 48.9039 23.5679 48.3359 24.268 48.3359H42.5703C43.2704 48.3359 43.8383 48.9039 43.8383 49.6039V67.9062C43.8403 68.6063 43.2704 69.1743 42.5703 69.1743Z" fill="white"/>
<path d="M66.0518 69.1743H47.7495C47.0494 69.1743 46.4814 68.6063 46.4814 67.9062V49.6039C46.4814 48.9039 47.0494 48.3359 47.7495 48.3359H66.0518C66.7518 48.3359 67.3198 48.9039 67.3198 49.6039V67.9062C67.3198 68.6063 66.7518 69.1743 66.0518 69.1743Z" fill="#ED1164"/>
<path d="M30.8334 56.6629C32.2623 56.6629 33.4207 55.5045 33.4207 54.0756C33.4207 52.6466 32.2623 51.4883 30.8334 51.4883C29.4045 51.4883 28.2461 52.6466 28.2461 54.0756C28.2461 55.5045 29.4045 56.6629 30.8334 56.6629Z" fill="#EEC542"/>
<mask id="mask1_1277_19426" style="mask-type:alpha" maskUnits="userSpaceOnUse" x="23" y="48" width="21" height="22">
<path d="M42.5703 69.1743H24.268C23.5679 69.1743 23 68.6063 23 67.9062V49.6039C23 48.9039 23.5679 48.3359 24.268 48.3359H42.5703C43.2704 48.3359 43.8383 48.9039 43.8383 49.6039V67.9062C43.8403 68.6063 43.2704 69.1743 42.5703 69.1743Z" fill="white"/>
</mask>
<g mask="url(#mask1_1277_19426)">
<path d="M26.5459 69.037L40.1489 54.6117C41.3814 53.3042 43.456 53.2865 44.7102 54.5703L60.0564 70.2754L26.5459 69.037Z" fill="#ED1164"/>
<path d="M20.6748 69.7619L29.6928 60.1976C30.9254 58.8902 32.9999 58.8724 34.2541 60.1562L44.4988 70.6414L20.6748 69.7619Z" fill="#F53C82"/>
</g>
<g style="mix-blend-mode:multiply" opacity="0.4">
<path d="M62.1484 28.9902L67.3171 34.4606V44.6205C67.3171 45.2949 66.7708 45.8392 66.0984 45.8392H58.4785L52.9766 40.8756L58.8808 30.3174L62.1484 28.9902Z" fill="#E0E0E0"/>
</g>
<g style="mix-blend-mode:multiply" opacity="0.4">
<path d="M37.5181 34.7353L43.8404 41.8484V44.6171C43.8404 45.2916 43.2941 45.8358 42.6216 45.8358H34.9998L29.1094 40.5212L31.8801 34.0234L37.5181 34.7353Z" fill="#ED1164"/>
</g>
<g opacity="0.41">
<path d="M62.1486 55.3652L67.3173 59.2679V67.9546C67.3173 68.629 66.7711 69.1733 66.0986 69.1733H58.4787L51.6536 63.0147L57.4158 61.0289L51.4248 57.3294L62.1486 55.3652Z" fill="#ED1164" style="mix-blend-mode:multiply"/>
</g>
<path d="M62.1479 28.9902H59.4659H57.0443V31.4099V34.3305C55.932 33.873 54.5654 33.9045 53.2028 34.7466C52.8281 34.9773 52.5145 35.3007 52.2937 35.6813C50.5228 38.7281 52.6762 41.8498 55.5574 41.8498C57.277 41.8498 58.7343 40.7375 59.2569 39.1935C59.389 38.801 59.4659 38.381 59.4659 37.9432V31.4099H62.1479V28.9902Z" fill="#ED1164"/>
<path d="M28.9297 31.1077V39.7313C28.9297 40.3407 29.5903 40.7213 30.1188 40.4136L37.5178 36.1028C38.0404 35.7971 38.0404 35.0418 37.5178 34.7362L30.1188 30.4253C29.5903 30.1177 28.9297 30.4983 28.9297 31.1077Z" fill="white"/>
<path d="M61.451 57.7258H52.3521C51.6422 57.7258 51.0684 57.1499 51.0684 56.442C51.0684 55.7321 51.6442 55.1582 52.3521 55.1582H61.451C62.161 55.1582 62.7348 55.734 62.7348 56.442C62.7348 57.1519 62.159 57.7258 61.451 57.7258Z" fill="white"/>
<path d="M61.451 63.0832H52.3521C51.6422 63.0832 51.0684 62.5074 51.0684 61.7994C51.0684 61.0895 51.6442 60.5156 52.3521 60.5156H61.451C62.161 60.5156 62.7348 61.0915 62.7348 61.7994C62.7348 62.5074 62.159 63.0832 61.451 63.0832Z" fill="white"/>
</svg>
