<svg width="96" height="87" viewBox="0 0 96 87" fill="none" xmlns="http://www.w3.org/2000/svg">
<path d="M84.7441 79.0188C91.7948 70.6223 96.0343 59.779 96.0003 47.9423C95.9266 21.8333 74.7462 0.368122 48.6803 0.00478694C21.8605 -0.369902 0 21.2996 0 48.0785C0 59.8642 4.23381 70.6564 11.2561 79.0188C11.4885 79.2969 11.9136 79.3083 12.1687 79.0528L48.0001 43.1622L83.8316 79.0528C84.0867 79.314 84.5118 79.2969 84.7441 79.0188Z" fill="#ED1164"/>
<path d="M47.9999 86.8573C69.4602 86.8573 86.8573 69.4602 86.8573 47.9999C86.8573 26.5396 69.4602 9.14258 47.9999 9.14258C26.5396 9.14258 9.14258 26.5396 9.14258 47.9999C9.14258 69.4602 26.5396 86.8573 47.9999 86.8573Z" fill="#FFD9E7"/>
<mask id="mask0_1277_19452" style="mask-type:alpha" maskUnits="userSpaceOnUse" x="9" y="9" width="78" height="78">
<path d="M47.9008 86.8017C69.3852 86.8017 86.8017 69.3852 86.8017 47.9008C86.8017 26.4165 69.3852 9 47.9008 9C26.4165 9 9 26.4165 9 47.9008C9 69.3852 26.4165 86.8017 47.9008 86.8017Z" fill="#FBC000"/>
</mask>
<g mask="url(#mask0_1277_19452)">
<g opacity="0.8">
<path d="M55.0668 88.8501L23 72L48.8848 69.5L48 60V19.5L91.5 50L82.8848 77.6289L55.0668 88.8501Z" fill="#FFCDE0" fill-opacity="0.5" style="mix-blend-mode:multiply"/>
</g>
</g>
<path d="M42.8833 30.1602H52.739C53.8288 30.1602 54.7145 31.0459 54.7145 32.1356V69.5825H40.9189V32.1246C40.9189 31.0344 41.7931 30.1602 42.8833 30.1602Z" fill="#ED1164"/>
<path d="M47.812 42.6588C46.3475 42.6588 45.1553 41.4665 45.1553 40.0016C45.1553 39.6268 45.4618 39.3203 45.8365 39.3203C46.2113 39.3203 46.5178 39.6268 46.5178 40.0016C46.5178 40.7054 47.0855 41.2847 47.8009 41.2962C48.5048 41.2621 49.0725 40.6944 49.1067 40.0016C49.0952 39.4795 48.4933 39.1389 47.5171 38.6506C46.4726 38.1281 45.1668 37.481 45.1668 36.0732C45.1668 36.0617 45.1668 36.0617 45.1668 36.0501C45.212 34.6198 46.3701 33.4728 47.8009 33.416H47.8236C49.2881 33.416 50.4803 34.6082 50.4803 36.0732C50.4803 36.4476 50.1738 36.7545 49.799 36.7545C49.4247 36.7545 49.1178 36.4476 49.1178 36.0732C49.1178 35.3689 48.5501 34.7901 47.8351 34.7785C47.1308 34.8127 46.563 35.3804 46.5293 36.0732C46.5404 36.5952 47.1423 36.9359 48.1189 37.4242C49.1635 37.9467 50.4692 38.5938 50.4692 40.0016V40.0242C50.4235 41.455 49.2655 42.602 47.8351 42.6588C47.8236 42.6588 47.8236 42.6588 47.812 42.6588Z" fill="white"/>
<path d="M49.7872 54.4784H46.835C45.9151 54.4784 45.166 53.7293 45.166 52.8094V46.8936C45.166 45.9742 45.9151 45.2246 46.835 45.2246H49.7872C50.1619 45.2246 50.4684 45.5311 50.4684 45.9059C50.4684 46.2807 50.1619 46.5871 49.7872 46.5871H46.835C46.6647 46.5871 46.5285 46.7233 46.5285 46.8936V52.8094C46.5285 52.9798 46.6647 53.1159 46.835 53.1159H49.7872C50.1619 53.1159 50.4684 53.4224 50.4684 53.7972C50.4684 54.172 50.1619 54.4784 49.7872 54.4784Z" fill="white"/>
<path d="M49.7872 50.5383H45.8473C45.4725 50.5383 45.166 50.2318 45.166 49.857C45.166 49.4823 45.4725 49.1758 45.8473 49.1758H49.7872C50.1619 49.1758 50.4684 49.4823 50.4684 49.857C50.4684 50.2318 50.1619 50.5383 49.7872 50.5383Z" fill="white"/>
<path d="M47.811 66.3105C46.3465 66.3105 45.1543 65.1183 45.1543 63.6537V59.7138C45.1543 58.2489 46.3465 57.0566 47.811 57.0566C49.276 57.0566 50.4682 58.2489 50.4682 59.7138V63.6537C50.4682 65.1183 49.276 66.3105 47.811 66.3105ZM47.811 58.4307C47.0961 58.4307 46.5168 59.01 46.5168 59.7249V63.6653C46.5168 64.3802 47.0961 64.9595 47.811 64.9595C48.5265 64.9595 49.1057 64.3802 49.1057 63.6653V59.7249C49.1057 58.9984 48.5265 58.4307 47.811 58.4307Z" fill="white"/>
<path d="M58.2955 40.002H68.1512C69.2414 40.002 70.1266 40.8877 70.1266 41.9779V69.5691H56.3311V41.9779C56.3311 40.8877 57.2057 40.002 58.2955 40.002Z" fill="white"/>
<path d="M27.5162 49.8594H37.3719C38.4616 49.8594 39.3473 50.7451 39.3473 51.8349V69.5708H25.5518V51.8349C25.5518 50.7451 26.426 49.8594 27.5162 49.8594Z" fill="white"/>
<path d="M47.8334 27.7464C47.0187 27.7464 46.3564 27.0965 46.3564 26.2963V20.4501C46.3564 19.6499 47.0187 19 47.8334 19C48.6475 19 49.3098 19.6499 49.3098 20.4501V26.2963C49.3098 27.0965 48.6475 27.7464 47.8334 27.7464Z" fill="#FBC000"/>
<path d="M23.8007 68.7207H72.2882C73.2817 68.7207 74.0889 69.5165 74.0889 70.4965C74.0889 71.4764 73.2817 72.2722 72.2882 72.2722H23.8007C22.8072 72.2722 22 71.4764 22 70.4965C22 69.5165 22.8072 68.7207 23.8007 68.7207Z" fill="#F798BC"/>
<path d="M50.7012 24.7931C50.3197 24.7931 49.9551 24.6433 49.6895 24.3763L47.8326 22.5094L45.9589 24.3763C45.3954 24.9265 44.5004 24.9096 43.9362 24.3594C43.3889 23.8098 43.3728 22.8929 43.92 22.3257L46.8048 19.4254C47.3682 18.8582 48.2802 18.8582 48.8443 19.4254L51.729 22.3257C52.1435 22.7425 52.2595 23.3592 52.0445 23.9094C51.7957 24.4427 51.2815 24.7931 50.7012 24.7931Z" fill="#FBC000"/>
</svg>
