<svg width="95" height="86" viewBox="0 0 95 86" fill="none" xmlns="http://www.w3.org/2000/svg">
<path d="M83.4196 77.7837C90.36 69.5185 94.5333 58.8447 94.4998 47.1929C94.4273 21.492 73.5779 0.362368 47.9194 0.00471212C21.5188 -0.364121 0 20.9667 0 47.3271C0 58.9285 4.16763 69.552 11.0802 77.7837C11.309 78.0575 11.7274 78.0687 11.9785 77.8172L47.2499 42.4875L82.5213 77.8172C82.7724 78.0743 83.1908 78.0575 83.4196 77.7837Z" fill="#ED1164"/>
<path d="M47.25 85.5C68.3749 85.5 85.5 68.3749 85.5 47.25C85.5 26.1251 68.3749 9 47.25 9C26.1251 9 9 26.1251 9 47.25C9 68.3749 26.1251 85.5 47.25 85.5Z" fill="#FFD9E7"/>
<mask id="mask0_1277_20824" style="mask-type:alpha" maskUnits="userSpaceOnUse" x="9" y="9" width="77" height="77">
<path d="M47.2928 85.5856C68.4413 85.5856 85.5856 68.4413 85.5856 47.2928C85.5856 26.1443 68.4413 9 47.2928 9C26.1443 9 9 26.1443 9 47.2928C9 68.4413 26.1443 85.5856 47.2928 85.5856Z" fill="#FBC000"/>
</mask>
<g mask="url(#mask0_1277_20824)">
<g opacity="0.8">
<path d="M60.5 96L17 51.5L38 40.5L52 57L67 40.5L77 27.5L100.5 57L73.1569 80.5471L60.5 96Z" fill="#FFCDE0" fill-opacity="0.5" style="mix-blend-mode:multiply"/>
</g>
</g>
<path d="M40.4877 33.9441L35.0459 37.0859L48.1158 59.7237L53.5576 56.5819L40.4877 33.9441Z" fill="white"/>
<path d="M20.0136 52.6469L40.3761 40.8906C41.9175 40.0007 42.4457 38.0297 41.5557 36.4883C40.6658 34.9468 38.6948 34.4187 37.1533 35.3086L16.7909 47.0649C15.2495 47.9549 14.7213 49.9259 15.6113 51.4673C16.5012 53.0087 18.4722 53.5368 20.0136 52.6469Z" fill="white"/>
<path d="M54.7322 62.3153L78.4722 32.538C79.5818 31.1462 79.353 29.1186 77.9613 28.009C76.5696 26.8995 74.5419 27.1282 73.4324 28.5199L49.6923 58.2973C48.5828 59.689 48.8115 61.7167 50.2032 62.8262C51.595 63.9358 53.6226 63.7071 54.7322 62.3153Z" fill="white"/>
<path d="M39.0717 42.6395C42.363 42.6395 45.0311 39.9714 45.0311 36.6801C45.0311 33.3888 42.363 30.7207 39.0717 30.7207C35.7804 30.7207 33.1123 33.3888 33.1123 36.6801C33.1123 39.9714 35.7804 42.6395 39.0717 42.6395Z" fill="#ED1164"/>
<path d="M54.137 65.021C56.9873 63.3753 57.9639 59.7306 56.3183 56.8803C54.6726 54.03 51.0279 53.0534 48.1776 54.699C45.3273 56.3447 44.3507 59.9894 45.9963 62.8397C47.6419 65.69 51.2866 66.6666 54.137 65.021Z" fill="#ED1164"/>
<path d="M26.1399 52.188C28.9902 50.5423 29.9668 46.8976 28.3212 44.0473C26.6755 41.197 23.0308 40.2204 20.1805 41.866C17.3302 43.5116 16.3536 47.1564 17.9992 50.0067C19.6449 52.857 23.2896 53.8336 26.1399 52.188Z" fill="#ED1164"/>
<path d="M69.7197 46.7977C72.0115 44.4355 71.9544 40.6626 69.5922 38.3708C67.23 36.079 63.4572 36.136 61.1653 38.4982C58.8735 40.8604 58.9306 44.6333 61.2928 46.9251C63.655 49.2169 67.4278 49.1599 69.7197 46.7977Z" fill="#ED1164"/>
</svg>
