<svg width="95" height="86" viewBox="0 0 95 86" fill="none" xmlns="http://www.w3.org/2000/svg">
<path d="M83.4196 77.7837C90.36 69.5185 94.5333 58.8447 94.4998 47.1929C94.4273 21.492 73.5779 0.362368 47.9194 0.00471212C21.5188 -0.364121 0 20.9667 0 47.3271C0 58.9285 4.16763 69.552 11.0802 77.7837C11.309 78.0575 11.7274 78.0687 11.9785 77.8172L47.2499 42.4875L82.5213 77.8172C82.7724 78.0743 83.1908 78.0575 83.4196 77.7837Z" fill="#FBC000"/>
<path d="M47.25 85.5C68.3749 85.5 85.5 68.3749 85.5 47.25C85.5 26.1251 68.3749 9 47.25 9C26.1251 9 9 26.1251 9 47.25C9 68.3749 26.1251 85.5 47.25 85.5Z" fill="#FFF6DA"/>
<mask id="mask0_1277_19338" style="mask-type:alpha" maskUnits="userSpaceOnUse" x="8" y="8" width="78" height="78">
<path d="M47.2655 85.318C68.414 85.318 85.5583 68.1738 85.5583 47.0252C85.5583 25.8767 68.414 8.73242 47.2655 8.73242C26.1169 8.73242 8.97266 25.8767 8.97266 47.0252C8.97266 68.1738 26.1169 85.318 47.2655 85.318Z" fill="#FBC000"/>
</mask>
<g mask="url(#mask0_1277_19338)">
<g opacity="0.8">
<path d="M53.5 93L26 72.5L35 59L52 61L50 50.5L66.5 23L91.9401 46.0166L73.1296 80.2786L53.5 93Z" fill="#FBC000" fill-opacity="0.25" style="mix-blend-mode:multiply"/>
</g>
</g>
<path d="M23.6719 33.1875C21.1479 33.1875 19 35.2338 19 37.7578V59.0859C19 61.6099 21.1479 63.6562 23.6719 63.6562H25.1953V71.4766C25.1953 72.0923 25.5659 72.6489 26.1356 72.8838C26.3244 72.9627 26.5224 73 26.7188 73C27.1143 73 27.5043 72.8453 27.7959 72.5537L36.5917 63.6562H54.2422C56.7662 63.6562 58.8125 61.6099 58.8125 59.0859V37.7578C58.8125 35.2338 56.7662 33.1875 54.2422 33.1875H23.6719Z" fill="white"/>
<path d="M38.8086 54.5684H29.5664C28.7245 54.5684 28.043 53.8868 28.043 53.0449C28.043 52.2031 28.7245 51.5215 29.5664 51.5215H38.8086C39.6505 51.5215 40.332 52.2031 40.332 53.0449C40.332 53.8868 39.6505 54.5684 38.8086 54.5684Z" fill="#FBC000"/>
<path d="M48.8788 49.5333C48.8141 49.5975 48.7494 49.6622 48.6848 49.6836L39.7005 54.3591C39.076 54.6392 38.4297 54.467 37.9985 54.0361C37.5677 53.6053 37.3955 52.9586 37.6756 52.3342L42.351 43.3499C42.3724 43.2852 42.4371 43.2205 42.5018 43.1562L47.6723 44.3623L48.1246 44.4702L48.8788 49.5333Z" fill="#FFCEBF"/>
<path d="M70.5478 27.9158L67.316 31.1475L61.9943 30.0057L61.8436 29.9843L60.8525 24.684L64.0843 21.4523C64.6873 20.8492 65.6355 20.8492 66.2385 21.4523L70.5474 25.7615C71.1508 26.3646 71.1508 27.3127 70.5478 27.9158Z" fill="#FBC000"/>
<path d="M48.0695 44.4907L48.8236 49.5538C48.759 49.618 48.6943 49.6827 48.6296 49.7041L39.6453 54.3796C39.0209 54.6597 38.3746 54.4875 37.9434 54.0566L47.6172 44.3828L48.0695 44.4907Z" fill="#FFB99C"/>
<path d="M70.5476 27.9163L67.3159 31.148L61.9941 30.0063L68.393 23.6074L70.5476 25.7621C71.1506 26.3651 71.1506 27.3133 70.5476 27.9163Z" fill="#FBC000" fill-opacity="0.6" style="mix-blend-mode:multiply"/>
<path d="M67.3162 31.1471L49.0611 49.4018C48.9965 49.4664 48.9104 49.5097 48.8243 49.5529L42.4473 43.1755C42.4901 43.0894 42.5334 43.0033 42.598 42.9387L60.8527 24.6836L67.3162 31.1471Z" fill="#F03C80"/>
<path d="M67.3582 31.2415L49.1031 49.4962C49.0384 49.5609 48.9523 49.6041 48.8662 49.6473L45.6777 46.4584L64.1264 28.0098L67.3582 31.2415Z" fill="#ED1164"/>
</svg>
