<svg width="95" height="86" viewBox="0 0 95 86" fill="none" xmlns="http://www.w3.org/2000/svg">
<path d="M83.4196 77.7837C90.36 69.5185 94.5333 58.8447 94.4998 47.1929C94.4273 21.492 73.5779 0.362368 47.9194 0.00471212C21.5188 -0.364121 0 20.9667 0 47.3271C0 58.9285 4.16763 69.552 11.0802 77.7837C11.309 78.0575 11.7274 78.0687 11.9785 77.8172L47.2499 42.4875L82.5213 77.8172C82.7724 78.0743 83.1908 78.0575 83.4196 77.7837Z" fill="#FBC000"/>
<path d="M47.25 85.5C68.3749 85.5 85.5 68.3749 85.5 47.25C85.5 26.1251 68.3749 9 47.25 9C26.1251 9 9 26.1251 9 47.25C9 68.3749 26.1251 85.5 47.25 85.5Z" fill="#FFF6DA"/>
<mask id="mask0_1277_20812" style="mask-type:alpha" maskUnits="userSpaceOnUse" x="9" y="9" width="77" height="77">
<path d="M47.2928 85.5856C68.4413 85.5856 85.5856 68.4413 85.5856 47.2928C85.5856 26.1443 68.4413 9 47.2928 9C26.1443 9 9 26.1443 9 47.2928C9 68.4413 26.1443 85.5856 47.2928 85.5856Z" fill="#FBC000"/>
</mask>
<g mask="url(#mask0_1277_20812)">
<g opacity="0.8">
<path d="M57.5 91L26 64.5L28.5273 61.2666L42.5 64.5L63 46V25.5L97 59L73.1569 80.5471L57.5 91Z" fill="#FBC000" fill-opacity="0.25" style="mix-blend-mode:multiply"/>
</g>
</g>
<path d="M65.8233 47.9357C70.435 43.3239 71.3305 36.2049 67.9948 30.6305C68.0171 30.6081 68.0171 30.6081 68.0171 30.6081C67.3903 29.5784 66.6515 28.6156 65.8232 27.7873C63.5845 25.5486 60.6519 24.0935 57.4504 23.7129C53.085 23.198 48.7866 24.6757 45.675 27.7873L41.1976 32.2647C37.5261 35.9362 36.1381 41.3091 37.5485 46.1224C37.638 46.5702 38.7125 49.5251 39.1154 49.7043C39.7199 50.7116 40.414 51.6295 41.1975 52.413C42.8093 54.0248 44.7123 55.1218 46.727 55.7935V55.8383L49.8835 60.1142L55.8609 55.8383L55.861 55.7488C57.8534 55.0995 59.7563 54.0026 61.3458 52.413L65.8233 47.9357ZM55.7493 46.8163L50.936 44.8238L46.884 46.7268L46.7944 46.7716C45.675 45.6522 44.9364 44.1523 44.8468 42.5852C44.7573 41.018 45.3169 39.3391 46.7946 37.8614L51.2719 33.3841C53.7121 30.9439 57.7417 30.9887 60.2043 33.4064C60.2267 33.4288 60.2267 33.4288 60.2491 33.4513C62.8235 36.0257 62.6221 39.9436 60.2268 42.3389L55.7493 46.8163Z" fill="#FBC000"/>
<path d="M55.8611 55.8369C52.906 56.8219 49.6825 56.8219 46.7273 55.8369L42.3618 60.2024C39.4067 63.1575 35.6681 62.4187 33.4295 60.18C31.1683 57.9637 30.4073 54.2474 33.4071 51.2477L37.8844 46.7703C40.3247 44.3301 44.3096 44.3749 46.7944 46.7703L46.8616 46.8375C49.1003 49.0315 52.8167 49.7477 55.7494 46.815L55.8389 46.7255C55.5478 45.8075 55.1225 44.8897 54.6076 44.0166L54.6299 43.9944C54.0031 42.9645 53.2419 42.0243 52.4136 41.196C50.8465 39.6289 48.9884 38.4423 46.9064 37.7484C45.9885 37.4124 45.026 37.2111 44.0632 37.099C41.8917 36.8529 39.7426 37.0767 37.7725 37.7485C35.7352 38.4424 33.8548 39.6065 32.2876 41.1737L27.8101 45.651C24.1387 49.3223 22.7508 54.6951 24.1388 59.5308C24.2507 59.9562 25.3252 62.9111 25.7283 63.0902C26.3327 64.0976 27.0267 65.0156 27.8102 65.799C33.3621 71.3509 42.4067 71.3509 47.9586 65.799L52.4359 61.3217C54.0255 59.7322 55.1672 57.8294 55.8611 55.8369Z" fill="#ED1164"/>
<path d="M46.8613 46.8389L46.8164 46.794L52.4132 41.1973C53.2415 42.0256 54.0027 42.9658 54.6295 43.9956L54.6072 44.0179C55.1221 44.8909 55.5474 45.8088 55.8385 46.7267L55.749 46.8162C52.8162 49.749 49.0999 49.0327 46.8613 46.8389Z" fill="#ED1164"/>
</svg>
