<svg width="96" height="87" viewBox="0 0 96 87" fill="none" xmlns="http://www.w3.org/2000/svg">
<path d="M84.7441 79.0188C91.7948 70.6223 96.0343 59.779 96.0003 47.9423C95.9266 21.8333 74.7462 0.368122 48.6803 0.00478694C21.8605 -0.369902 0 21.2996 0 48.0785C0 59.8642 4.23381 70.6564 11.2561 79.0188C11.4885 79.2969 11.9136 79.3083 12.1687 79.0528L48.0001 43.1622L83.8316 79.0528C84.0867 79.314 84.5118 79.2969 84.7441 79.0188Z" fill="#ED1164"/>
<path d="M47.9999 86.8573C69.4602 86.8573 86.8573 69.4602 86.8573 47.9999C86.8573 26.5396 69.4602 9.14258 47.9999 9.14258C26.5396 9.14258 9.14258 26.5396 9.14258 47.9999C9.14258 69.4602 26.5396 86.8573 47.9999 86.8573Z" fill="#FFD9E7"/>
<mask id="mask0_1277_20916" style="mask-type:alpha" maskUnits="userSpaceOnUse" x="9" y="9" width="78" height="78">
<path d="M47.9008 86.8017C69.3852 86.8017 86.8017 69.3852 86.8017 47.9008C86.8017 26.4165 69.3852 9 47.9008 9C26.4165 9 9 26.4165 9 47.9008C9 69.3852 26.4165 86.8017 47.9008 86.8017Z" fill="#FBC000"/>
</mask>
<g mask="url(#mask0_1277_20916)">
<g opacity="0.8">
<path d="M55.5668 89.3491L27 72L30 59.6279H48V43.5L67 23L92.3848 46.5L83.3848 78.1279L55.5668 89.3491Z" fill="#FFCDE0" fill-opacity="0.5" style="mix-blend-mode:multiply"/>
</g>
</g>
<path d="M64.3212 58.5466H48.8659V54.3027H46.3162V58.5466H30.8609H28.3135V61.1133V64.64H30.8609V61.1133H46.3162V64.64H48.8659V61.1133H64.3212V64.64H66.871V61.1133V58.5466H64.3212Z" fill="#B80649"/>
<path d="M47.6522 73C44.997 73 42.8457 70.8344 42.8457 68.1616C42.8457 65.4888 44.997 63.3232 47.6522 63.3232C50.3074 63.3232 52.4587 65.4888 52.4587 68.1616C52.4587 70.8321 50.305 73 47.6522 73Z" fill="#ED1164"/>
<path d="M29.8065 73C27.1513 73 25 70.8344 25 68.1616C25 65.4888 27.1513 63.3232 29.8065 63.3232C32.4617 63.3232 34.613 65.4888 34.613 68.1616C34.613 70.8321 32.4617 73 29.8065 73Z" fill="#ED1164"/>
<path d="M66.0067 73C63.3515 73 61.2002 70.8344 61.2002 68.1616C61.2002 65.4888 63.3515 63.3232 66.0067 63.3232C68.6619 63.3232 70.8132 65.4888 70.8132 68.1616C70.8132 70.8321 68.6619 73 66.0067 73Z" fill="#ED1164"/>
<path d="M61.8979 56.2343H32.3781C31.2735 56.2343 30.3781 55.3389 30.3781 54.2344L30.3779 48.6591V24C30.3779 22.8954 31.2734 22 32.3779 22H65.7004C66.805 22 67.7004 22.8954 67.7004 24V50.3934C67.7004 53.6182 65.1015 56.2343 61.8979 56.2343Z" fill="white"/>
<path d="M30.2451 24C30.2451 22.8954 31.1405 22 32.2451 22H65.336C66.4406 22 67.336 22.8954 67.336 24V30.6932H30.2451V24Z" fill="#ED1164"/>
<path d="M36.04 48.0225C36.04 45.8133 37.8309 44.0225 40.04 44.0225H57.54C59.7492 44.0225 61.54 45.8133 61.54 48.0225V48.1361C61.54 50.3452 59.7492 52.1361 57.54 52.1361H40.04C37.8309 52.1361 36.04 50.3452 36.04 48.1361V48.0225Z" fill="#ED1164"/>
<path d="M37.1992 35.9091C37.1992 35.2689 37.7182 34.75 38.3583 34.75H59.2219C59.8621 34.75 60.381 35.2689 60.381 35.9091C60.381 36.5492 59.8621 37.0682 59.2219 37.0682H38.3583C37.7182 37.0682 37.1992 36.5492 37.1992 35.9091Z" fill="#ED1164"/>
<path d="M32.5625 26.6366C32.5625 25.9965 33.0814 25.4775 33.7216 25.4775C34.3617 25.4775 34.8807 25.9965 34.8807 26.6366C34.8807 27.2768 34.3617 27.7957 33.7216 27.7957C33.0814 27.7957 32.5625 27.2768 32.5625 26.6366Z" fill="white"/>
<path d="M37.1992 26.6366C37.1992 25.9965 37.7182 25.4775 38.3583 25.4775C38.9985 25.4775 39.5174 25.9965 39.5174 26.6366C39.5174 27.2768 38.9985 27.7957 38.3583 27.7957C37.7182 27.7957 37.1992 27.2768 37.1992 26.6366Z" fill="#FBC000"/>
<path d="M41.8359 26.6366C41.8359 25.9965 42.3549 25.4775 42.995 25.4775C43.6352 25.4775 44.1541 25.9965 44.1541 26.6366C44.1541 27.2768 43.6352 27.7957 42.995 27.7957C42.3549 27.7957 41.8359 27.2768 41.8359 26.6366Z" fill="white"/>
<path d="M37.1992 40.5458C37.1992 39.9057 37.7182 39.3867 38.3583 39.3867H59.2219C59.8621 39.3867 60.381 39.9057 60.381 40.5458C60.381 41.186 59.8621 41.7049 59.2219 41.7049H38.3583C37.7182 41.7049 37.1992 41.186 37.1992 40.5458Z" fill="#ED1164"/>
</svg>
