<svg width="95" height="86" viewBox="0 0 95 86" fill="none" xmlns="http://www.w3.org/2000/svg">
<path d="M83.4196 77.7837C90.36 69.5185 94.5333 58.8447 94.4998 47.1929C94.4273 21.492 73.5779 0.362368 47.9194 0.00471212C21.5188 -0.364121 0 20.9667 0 47.3271C0 58.9285 4.16763 69.552 11.0802 77.7837C11.309 78.0575 11.7274 78.0687 11.9785 77.8172L47.2499 42.4875L82.5213 77.8172C82.7724 78.0743 83.1908 78.0575 83.4196 77.7837Z" fill="#FBC000"/>
<path d="M47.25 85.5C68.3749 85.5 85.5 68.3749 85.5 47.25C85.5 26.1251 68.3749 9 47.25 9C26.1251 9 9 26.1251 9 47.25C9 68.3749 26.1251 85.5 47.25 85.5Z" fill="#FFF6DA"/>
<mask id="mask0_1277_20796" style="mask-type:alpha" maskUnits="userSpaceOnUse" x="9" y="9" width="77" height="77">
<path d="M47.2928 85.5856C68.4413 85.5856 85.5856 68.4413 85.5856 47.2928C85.5856 26.1443 68.4413 9 47.2928 9C26.1443 9 9 26.1443 9 47.2928C9 68.4413 26.1443 85.5856 47.2928 85.5856Z" fill="#FBC000"/>
</mask>
<g mask="url(#mask0_1277_20796)">
<g opacity="0.8">
<path d="M62 87.5L41 78L47.0273 23L91 50L73.1569 80.5471L62 87.5Z" fill="#FBC000" fill-opacity="0.25" style="mix-blend-mode:multiply"/>
</g>
</g>
<path d="M67.068 61.778L49.6748 29.5319C48.6612 27.6526 46.316 26.951 44.4371 27.9646L44.0205 28.1894C42.3712 29.0788 40.3132 28.463 39.4238 26.8137C37.398 23.0581 32.7112 21.6558 28.9559 23.6816C25.2002 25.7074 23.798 30.3938 25.8233 34.1495C26.7131 35.7988 26.0974 37.8569 24.4481 38.7462L24.0315 38.9711C22.1521 39.9846 21.4506 42.3294 22.4641 44.2087L39.8578 76.4553C40.8714 78.3342 43.2166 79.0362 45.0955 78.0226L65.5011 67.0161C67.3804 66.0026 68.082 63.6574 67.068 61.778ZM29.7333 30.6936C29.04 29.4082 29.5197 27.8042 30.8052 27.1109C32.0906 26.4177 33.6951 26.8974 34.3883 28.1829C35.0816 29.4683 34.6014 31.0723 33.316 31.766C32.0305 32.4593 30.4265 31.9791 29.7333 30.6936Z" fill="#FBC000"/>
<path d="M74.8676 50.3822L48.9608 24.4754C47.4509 22.9655 45.0029 22.9655 43.4935 24.4754L43.1588 24.81C41.8337 26.1347 39.6855 26.1347 38.3608 24.81C35.3433 21.7925 30.4512 21.7925 27.4341 24.81C24.4165 27.8271 24.4165 32.7193 27.4341 35.7364C28.7592 37.0615 28.7592 39.2097 27.4341 40.5344L27.0994 40.869C25.5895 42.3789 25.5895 44.8269 27.0994 46.3363L53.0067 72.2436C54.5161 73.7535 56.9641 73.7535 58.474 72.2436L74.8681 55.8495C76.3775 54.3401 76.3775 51.8921 74.8676 50.3822ZM30.1888 31.3048C29.1561 30.2721 29.1561 28.5975 30.1888 27.5648C31.2216 26.5321 32.8961 26.5321 33.9289 27.5648C34.9616 28.5975 34.9616 30.2721 33.9289 31.3048C32.8961 32.3375 31.2216 32.3375 30.1888 31.3048Z" fill="#ED1164"/>
<path d="M53.3546 66.292L32.8514 45.7888C31.4805 44.4184 31.4805 42.1961 32.8514 40.8257L43.4487 30.2283C44.8192 28.8575 47.0415 28.8575 48.4119 30.2283L68.9155 50.7315C70.2859 52.1019 70.2859 54.3242 68.9155 55.6947L58.3181 66.292C56.9473 67.6629 54.725 67.6629 53.3546 66.292Z" fill="white"/>
<path d="M37.1855 41.4542C37.3581 41.2817 37.5942 41.1728 37.894 41.127C38.1934 41.0817 38.4252 41.1409 38.5891 41.3044C38.6888 41.4041 38.7507 41.5828 38.7751 41.8399C38.7995 42.097 38.8126 42.3615 38.8135 42.6325C38.8148 42.9035 38.8954 43.236 39.0562 43.6295C39.217 44.023 39.4697 44.392 39.8148 44.7372C40.3325 45.2548 40.8715 45.5472 41.431 45.6139C41.9909 45.681 42.5086 45.4766 42.9831 45.0021C43.4215 44.5637 43.6346 44.0465 43.6224 43.45C43.6102 42.8534 43.4751 42.2525 43.2175 41.6477C42.9596 41.0429 42.7134 40.422 42.4781 39.7853C42.2432 39.1483 42.1744 38.4768 42.272 37.7709C42.3692 37.0645 42.7195 36.4105 43.3221 35.8078C43.8023 35.3277 44.3121 35.0039 44.852 34.8366C45.3915 34.6692 45.9153 34.6496 46.4233 34.7773C46.9314 34.9045 47.4033 35.1002 47.8391 35.3643C48.2748 35.6274 48.6879 35.9547 49.0788 36.3451C49.3241 36.5904 49.5646 36.8628 49.8012 37.1621C50.0374 37.4615 50.2514 37.7787 50.4431 38.1143C50.6344 38.4493 50.7494 38.7705 50.7873 39.0781C50.8248 39.3853 50.7586 39.6241 50.5882 39.7949C50.4174 39.9657 50.1908 40.083 49.9084 40.1474C49.6261 40.2124 49.3938 40.1535 49.2121 39.9718C49.1215 39.8812 49.0417 39.7152 48.9746 39.4738C48.9067 39.2324 48.7868 38.9396 48.6147 38.594C48.4426 38.248 48.1885 37.9073 47.8526 37.5713C47.3349 37.0536 46.8186 36.743 46.3048 36.6397C45.7902 36.5364 45.3231 36.695 44.903 37.1151C44.6294 37.3887 44.4755 37.706 44.4429 38.0659C44.4102 38.4254 44.459 38.7988 44.5901 39.1853C44.7209 39.5723 44.8838 39.9858 45.0786 40.4272C45.273 40.8682 45.4451 41.3274 45.5941 41.8055C45.7431 42.283 45.8394 42.7589 45.8839 43.2321C45.9279 43.7053 45.8447 44.2112 45.6338 44.7489C45.4229 45.2871 45.0708 45.8026 44.5779 46.2954C43.6394 47.234 42.6402 47.6654 41.5809 47.5896C40.5216 47.5133 39.5242 47.0078 38.5886 46.0723C37.7529 45.237 37.2173 44.3515 36.9811 43.416C36.745 42.4809 36.8134 41.8268 37.1855 41.4542Z" fill="#ED1164"/>
<path d="M43.6426 49.9565L52.6477 40.9514C52.7928 40.8063 52.9724 40.754 53.1859 40.7945C53.3994 40.8355 53.5924 40.9422 53.765 41.1148L58.6148 45.9646C58.7691 46.1189 58.8235 46.301 58.7782 46.5098C58.7329 46.7189 58.6283 46.9046 58.4649 47.0684C58.2832 47.2501 58.0858 47.3612 57.8723 47.4022C57.6588 47.4427 57.4797 47.3904 57.3342 47.2453L53.2883 43.199L50.1683 46.3189L52.2664 48.417C52.4115 48.5621 52.4704 48.7347 52.4434 48.9347C52.4159 49.1343 52.3209 49.316 52.1575 49.4794C52.012 49.6249 51.8416 49.7134 51.6464 49.7452C51.4512 49.777 51.2764 49.7156 51.1217 49.5613L49.0241 47.4632L45.8906 50.5966L49.9369 54.6425C50.082 54.7881 50.1339 54.9672 50.0934 55.1807C50.0524 55.3942 49.9413 55.592 49.7596 55.7733C49.5962 55.9371 49.4101 56.0413 49.201 56.087C48.9922 56.1324 48.8105 56.0774 48.6563 55.9232L43.8064 51.0733C43.6334 50.9008 43.5267 50.7077 43.4862 50.4947C43.4452 50.2812 43.4975 50.1016 43.6426 49.9565Z" fill="#ED1164"/>
<path d="M53.0307 54.3818L56.9951 50.4174C58.0392 49.3729 59.0841 48.8823 60.1286 48.9459C61.1726 49.0095 62.1583 49.5045 63.0847 50.4309C64.0111 51.3573 64.5083 52.3452 64.5767 53.394C64.6446 54.4428 64.1562 55.4899 63.1121 56.534L59.1477 60.4984C58.1032 61.5429 57.0566 62.0314 56.0073 61.963C54.9584 61.895 53.971 61.3978 53.0442 60.4714C52.1178 59.545 51.6228 58.5593 51.5592 57.5153C51.4956 56.4708 51.9862 55.4263 53.0307 54.3818ZM54.4748 55.8259C53.303 56.9976 53.2529 58.1188 54.3249 59.1907C54.8425 59.7084 55.3872 59.9629 55.9598 59.9537C56.5315 59.9446 57.1128 59.6452 57.7032 59.0548L61.6676 55.0904C62.2581 54.4999 62.5574 53.9186 62.567 53.3465C62.5757 52.7744 62.3217 52.2293 61.804 51.7116C60.7325 50.6397 59.6109 50.6898 58.4392 51.8615L54.4748 55.8259Z" fill="#ED1164"/>
<path d="M30.8121 29.0695C29.7524 29.0695 28.8936 28.2107 28.8936 27.151V23.919C28.8936 22.8593 29.7524 22 30.8121 22C31.8719 22 32.7312 22.8593 32.7312 23.919V27.151C32.7312 28.2107 31.8723 29.0695 30.8121 29.0695Z" fill="#FBC000"/>
</svg>
