<svg width="96" height="87" viewBox="0 0 96 87" fill="none" xmlns="http://www.w3.org/2000/svg">
<path d="M84.7441 79.0188C91.7948 70.6223 96.0343 59.779 96.0003 47.9423C95.9266 21.8333 74.7462 0.368122 48.6803 0.00478694C21.8605 -0.369902 0 21.2996 0 48.0785C0 59.8642 4.23381 70.6564 11.2561 79.0188C11.4885 79.2969 11.9136 79.3083 12.1687 79.0528L48.0001 43.1622L83.8316 79.0528C84.0867 79.314 84.5118 79.2969 84.7441 79.0188Z" fill="#ED1164"/>
<path d="M47.9999 86.8573C69.4602 86.8573 86.8573 69.4602 86.8573 47.9999C86.8573 26.5396 69.4602 9.14258 47.9999 9.14258C26.5396 9.14258 9.14258 26.5396 9.14258 47.9999C9.14258 69.4602 26.5396 86.8573 47.9999 86.8573Z" fill="#FFD9E7"/>
<mask id="mask0_1277_20864" style="mask-type:alpha" maskUnits="userSpaceOnUse" x="9" y="9" width="78" height="78">
<path d="M47.9008 86.8017C69.3852 86.8017 86.8017 69.3852 86.8017 47.9008C86.8017 26.4165 69.3852 9 47.9008 9C26.4165 9 9 26.4165 9 47.9008C9 69.3852 26.4165 86.8017 47.9008 86.8017Z" fill="#FBC000"/>
</mask>
<g mask="url(#mask0_1277_20864)">
<g opacity="0.8">
<path d="M68.5 86.5L36.5 58V53L19.5 40L34 28L69 24.5L93.2851 46.8771L88 74L68.5 86.5Z" fill="#FFCDE0" fill-opacity="0.5" style="mix-blend-mode:multiply"/>
</g>
</g>
<path d="M51.0314 41.2354H38.7201C37.3602 41.2354 36.2578 42.3377 36.2578 43.6976V56.009C36.2578 57.3688 37.3602 58.4712 38.7201 58.4712H51.0314C52.3913 58.4712 53.4937 57.3688 53.4937 56.009V43.6976C53.4937 42.3377 52.3913 41.2354 51.0314 41.2354Z" fill="white"/>
<path d="M67.6828 41.5283H55.3714C54.0116 41.5283 52.9092 42.6307 52.9092 43.9906V56.3019C52.9092 57.6618 54.0116 58.7642 55.3714 58.7642H67.6828C69.0427 58.7642 70.1451 57.6618 70.1451 56.3019V43.9906C70.1451 42.6307 69.0427 41.5283 67.6828 41.5283Z" fill="#ED1164"/>
<path d="M68.2668 24H55.9554C54.5956 24 53.4932 25.1024 53.4932 26.4623V38.7736C53.4932 40.1335 54.5956 41.2359 55.9554 41.2359H68.2668C69.6267 41.2359 70.7291 40.1335 70.7291 38.7736V26.4623C70.7291 25.1024 69.6267 24 68.2668 24Z" fill="white"/>
<path d="M51.0314 24H38.7201C37.3602 24 36.2578 25.1024 36.2578 26.4623V38.7736C36.2578 40.1335 37.3602 41.2359 38.7201 41.2359H51.0314C52.3913 41.2359 53.4937 40.1335 53.4937 38.7736V26.4623C53.4937 25.1024 52.3913 24 51.0314 24Z" fill="#F798BC"/>
<path d="M33.7951 24H21.4838C20.1239 24 19.0215 25.1024 19.0215 26.4623V38.7736C19.0215 40.1335 20.1239 41.2359 21.4838 41.2359H33.7951C35.155 41.2359 36.2574 40.1335 36.2574 38.7736V26.4623C36.2574 25.1024 35.155 24 33.7951 24Z" fill="#FBC000"/>
<path d="M42.4138 37.5424H47.3383C47.6648 37.5424 47.978 37.4127 48.2088 37.1818C48.4397 36.951 48.5694 36.6378 48.5694 36.3113C48.5694 35.9848 48.4397 35.6716 48.2088 35.4408C47.978 35.2099 47.6648 35.0802 47.3383 35.0802H43.6449V28.9245C43.6449 28.598 43.5152 28.2848 43.2843 28.054C43.0534 27.8231 42.7403 27.6934 42.4138 27.6934C42.0872 27.6934 41.7741 27.8231 41.5432 28.054C41.3123 28.2848 41.1826 28.598 41.1826 28.9245V36.3113C41.1826 36.6378 41.3123 36.951 41.5432 37.1818C41.7741 37.4127 42.0872 37.5424 42.4138 37.5424Z" fill="white"/>
<path d="M65.9201 45.9679C65.6281 45.8219 65.29 45.7978 64.9803 45.901C64.6705 46.0043 64.4145 46.2263 64.2684 46.5184L61.6761 51.7028L59.0838 46.5184C58.9362 46.2289 58.6803 46.0096 58.3717 45.9081C58.0631 45.8066 57.7269 45.8311 57.4364 45.9764C57.1458 46.1217 56.9245 46.376 56.8205 46.6838C56.7166 46.9915 56.7386 47.3279 56.8816 47.6196L60.575 55.0064C60.6773 55.2109 60.8344 55.3828 61.0289 55.503C61.2234 55.6232 61.4475 55.6868 61.6761 55.6868C61.9047 55.6868 62.1288 55.6232 62.3233 55.503C62.5178 55.3828 62.6749 55.2109 62.7772 55.0064L66.4706 47.6196C66.6166 47.3276 66.6407 46.9895 66.5374 46.6797C66.4342 46.37 66.2122 46.1139 65.9201 45.9679Z" fill="white"/>
<path d="M44.876 44.9287H42.4138C42.0872 44.9287 41.7741 45.0584 41.5432 45.2893C41.3123 45.5202 41.1826 45.8333 41.1826 46.1598V53.5467C41.1826 53.8732 41.3123 54.1863 41.5432 54.4172C41.7741 54.6481 42.0872 54.7778 42.4138 54.7778C42.7403 54.7778 43.0534 54.6481 43.2843 54.4172C43.5152 54.1863 43.6449 53.8732 43.6449 53.5467V52.3155H44.876C45.8556 52.3155 46.795 51.9264 47.4877 51.2337C48.1803 50.5411 48.5694 49.6017 48.5694 48.6221C48.5694 47.6426 48.1803 46.7031 47.4877 46.0105C46.795 45.3178 45.8556 44.9287 44.876 44.9287ZM44.876 49.8533H43.6449V47.391H44.876C45.2025 47.391 45.5157 47.5207 45.7466 47.7516C45.9774 47.9825 46.1072 48.2956 46.1072 48.6221C46.1072 48.9486 45.9774 49.2618 45.7466 49.4927C45.5157 49.7235 45.2025 49.8533 44.876 49.8533Z" fill="#CBCBCD"/>
<path d="M63.2127 28.3738C63.1105 28.1693 62.9533 27.9974 62.7588 27.8772C62.5644 27.757 62.3403 27.6934 62.1117 27.6934C61.883 27.6934 61.6589 27.757 61.4645 27.8772C61.27 27.9974 61.1128 28.1693 61.0106 28.3738L57.3172 35.7606C57.1741 36.0523 57.1522 36.3887 57.2561 36.6964C57.36 37.0042 57.5814 37.2585 57.8719 37.4038C58.1625 37.5491 58.4986 37.5736 58.8072 37.4721C59.1158 37.3706 59.3718 37.1513 59.5193 36.8618L59.9485 36.0034H64.2748L64.704 36.8618C64.7755 37.0077 64.8752 37.138 64.9973 37.2452C65.1195 37.3524 65.2616 37.4343 65.4155 37.4863C65.5695 37.5382 65.7322 37.5592 65.8943 37.548C66.0564 37.5368 66.2147 37.4936 66.36 37.4209C66.5053 37.3483 66.6348 37.2475 66.741 37.1246C66.8472 37.0016 66.9281 36.8589 66.9788 36.7045C67.0296 36.5502 67.0493 36.3873 67.0368 36.2253C67.0244 36.0633 66.98 35.9053 66.9062 35.7606L63.2127 28.3738ZM61.1797 33.5412L62.1117 31.6774L63.0436 33.5412H61.1797Z" fill="#ED1164"/>
<path d="M67.6828 58.7646H55.3714C54.0116 58.7646 52.9092 59.867 52.9092 61.2269V73.5383C52.9092 74.8981 54.0116 76.0005 55.3714 76.0005H67.6828C69.0427 76.0005 70.1451 74.8981 70.1451 73.5383V61.2269C70.1451 59.867 69.0427 58.7646 67.6828 58.7646Z" fill="white"/>
<path d="M64.2537 71.1486C64.2537 70.9869 64.2218 70.8268 64.16 70.6774C64.0981 70.528 64.0074 70.3923 63.8931 70.278C63.7788 70.1637 63.643 70.073 63.4937 70.0111C63.3443 69.9492 63.1842 69.9174 63.0225 69.9174L61.269 69.9174L61.2689 68.6489L63.2712 68.6489C63.5964 68.6469 63.9076 68.5163 64.1369 68.2856C64.3661 68.055 64.4948 67.743 64.4948 67.4177C64.4948 67.0925 64.3661 66.7805 64.1368 66.5498C63.9075 66.3192 63.5963 66.1886 63.2711 66.1867L61.2688 66.1867L61.2687 64.918L63.0227 64.9181C63.348 64.9161 63.6592 64.7855 63.8884 64.5548C64.1177 64.3241 64.2464 64.0121 64.2463 63.6869C64.2463 63.3617 64.1176 63.0497 63.8884 62.819C63.6591 62.5884 63.3478 62.4578 63.0226 62.4559L60.0378 62.4556C59.8761 62.4556 59.716 62.4875 59.5666 62.5493C59.4172 62.6112 59.2815 62.7019 59.1672 62.8162C59.0528 62.9306 58.9622 63.0663 58.9003 63.2156C58.8384 63.365 58.8066 63.5251 58.8066 63.6868L58.8066 71.1484C58.8066 71.3101 58.8384 71.4702 58.9003 71.6196C58.9622 71.769 59.0528 71.9047 59.1672 72.019C59.2815 72.1333 59.4172 72.224 59.5666 72.2859C59.716 72.3478 59.8761 72.3796 60.0378 72.3796H63.0224C63.1841 72.3796 63.3442 72.3478 63.4936 72.2859C63.643 72.2241 63.7787 72.1334 63.893 72.0191C64.0074 71.9048 64.0981 71.7691 64.1599 71.6197C64.2218 71.4703 64.2537 71.3102 64.2537 71.1486Z" fill="#ED1164"/>
<path d="M30.81 33.6722L31.5137 33.7532C32.4318 33.8587 32.8873 34.9481 32.3027 35.6696C32.2986 35.6747 32.2946 35.6798 32.2905 35.6839C31.8889 36.1748 31.3754 36.556 30.7511 36.8276C30.1268 37.0992 29.3326 37.2355 28.3697 37.2355C27.4394 37.2355 26.6656 37.1484 26.0464 36.9741C25.4272 36.7999 24.8954 36.5171 24.449 36.1266C24.0037 35.7362 23.6539 35.2781 23.4007 34.7513C23.1485 34.2246 23.0225 33.5257 23.0225 32.6566C23.0225 31.7476 23.176 30.9913 23.4851 30.3877C23.7108 29.944 24.0189 29.5474 24.4094 29.1948C24.7998 28.8433 25.2014 28.581 25.6143 28.4098C26.2691 28.1383 27.1079 28.002 28.1318 28.002C29.5624 28.002 30.6535 28.2602 31.4049 28.7757C31.6143 28.9192 31.8065 29.0821 31.9814 29.2635C32.6555 29.9624 32.2488 31.1368 31.291 31.266L30.6158 31.3561C30.203 31.4115 29.8075 31.2198 29.5584 30.8837C29.4801 30.7771 29.3886 30.6859 29.2838 30.6091C29.0225 30.4174 28.6717 30.3221 28.2315 30.3221C27.6753 30.3221 27.2259 30.523 26.8822 30.9247C26.5385 31.3264 26.3667 31.9331 26.3667 32.7478C26.3667 33.4734 26.5375 34.0237 26.8781 34.3998C27.2187 34.7759 27.6539 34.9645 28.1827 34.9645C28.6229 34.9645 28.993 34.8507 29.293 34.6232C29.4425 34.5095 29.5736 34.365 29.6865 34.1908C29.9254 33.8147 30.3688 33.622 30.81 33.6722Z" fill="white"/>
</svg>
