<svg width="95" height="86" viewBox="0 0 95 86" fill="none" xmlns="http://www.w3.org/2000/svg">
<path d="M83.4196 77.7837C90.36 69.5185 94.5333 58.8447 94.4998 47.1929C94.4273 21.492 73.5779 0.362368 47.9194 0.00471212C21.5188 -0.364121 0 20.9667 0 47.3271C0 58.9285 4.16763 69.552 11.0802 77.7837C11.309 78.0575 11.7274 78.0687 11.9785 77.8172L47.2499 42.4875L82.5213 77.8172C82.7724 78.0743 83.1908 78.0575 83.4196 77.7837Z" fill="#FBC000"/>
<path d="M47.25 85.5C68.3749 85.5 85.5 68.3749 85.5 47.25C85.5 26.1251 68.3749 9 47.25 9C26.1251 9 9 26.1251 9 47.25C9 68.3749 26.1251 85.5 47.25 85.5Z" fill="#FFF6DA"/>
<mask id="mask0" style="mask-type:alpha" maskUnits="userSpaceOnUse" x="8" y="8" width="78" height="78">
<path d="M47.2655 85.319C68.414 85.319 85.5583 68.1747 85.5583 47.0262C85.5583 25.8777 68.414 8.7334 47.2655 8.7334C26.1169 8.7334 8.97266 25.8777 8.97266 47.0262C8.97266 68.1747 26.1169 85.319 47.2655 85.319Z" fill="#FBC000"/>
</mask>
<g mask="url(#mask0)">
<g opacity="0.8">
<path d="M54 89.5L29 74L52.8745 64.875L64.7993 56.1031V53.7966L56 19.5L91 52L79.5 75.5L54 89.5Z" fill="#FBC000" fill-opacity="0.25" style="mix-blend-mode:multiply"/>
</g>
</g>
<path d="M66.5284 29.3571V72.6333C66.5284 73.388 65.9154 74 65.1617 74H30.3667C29.6131 74 29 73.388 29 72.6333V20.3667C29 19.612 29.6132 19 30.3667 19H56.1713L66.5284 29.3571Z" fill="white"/>
<path d="M66.5282 29.3572V72.6334C66.5282 73.3882 65.9151 74.0002 65.1614 74.0002H60.8677C61.6224 74.0002 62.2344 73.3882 62.2344 72.6334V25.0635L66.5282 29.3572Z" fill="#FFD54D"/>
<path d="M56.0952 27.9903V19L66.4523 29.3571H57.4619C56.7083 29.3571 56.0952 28.7451 56.0952 27.9903Z" fill="#FFD54D"/>
<path d="M56.4769 48.8305C56.3186 49.0065 56.1515 49.1802 55.9778 49.3484C51.455 53.7473 44.17 53.7329 39.6626 49.3185C37.3098 47.0146 36.1401 43.9668 36.1534 40.9235C36.1557 40.3082 36.6824 39.8258 37.2944 39.8889L47.8351 40.97L48.0587 40.4123L56.4769 48.8305Z" fill="#FEE265"/>
<path d="M56.4769 48.8309C56.3186 49.0069 56.1515 49.1806 55.9778 49.3488C51.6143 53.5917 44.6791 53.73 40.1484 49.7682C44.1147 51.8885 49.1764 51.313 52.5473 48.0341C53.0918 47.5051 53.5665 46.9318 53.9715 46.3254L56.4769 48.8309Z" fill="#FDD330"/>
<path d="M47.835 40.971L51.7788 31.1328C52.0047 30.5694 52.6675 30.3144 53.2067 30.5935C54.2472 31.1321 55.2236 31.838 56.0957 32.7102C60.658 37.2725 60.658 44.6694 56.0957 49.2317L47.835 40.971Z" fill="#ED1164"/>
<path d="M56.0954 49.2315L53.6479 46.784C56.7591 42.6334 56.4278 36.7196 52.654 32.9459C52.2772 32.5691 51.8786 32.2264 51.4634 31.9189L51.7781 31.1331C52.0038 30.5699 52.6675 30.3141 53.2059 30.5937C54.2464 31.1321 55.2227 31.8382 56.0954 32.7099C60.6571 37.2724 60.6571 44.6698 56.0954 49.2315Z" fill="#F82071"/>
<path d="M49.8717 27.3151L46.2186 36.4279C46.0467 36.8567 45.6114 37.1197 45.1519 37.0725L35.3873 36.0704C34.7753 36.0075 34.3578 35.4292 34.4797 34.8262C34.919 32.6518 35.9818 30.5784 37.6681 28.8921C40.7936 25.7668 45.2491 24.7827 49.2124 25.9394C49.7949 26.1095 50.0974 26.752 49.8717 27.3151Z" fill="#FBD500"/>
<path d="M49.8722 27.3148L46.2196 36.4277C46.0478 36.8563 45.6119 37.1203 45.1533 37.0726L42.2803 36.7775C42.5836 36.6833 42.8373 36.4566 42.9605 36.1491L46.7652 26.6563C46.932 26.239 46.8222 25.7814 46.5261 25.4863C47.4331 25.5319 48.3348 25.683 49.2138 25.9398C49.7956 26.1097 50.0979 26.7515 49.8722 27.3148Z" fill="#FBBE00"/>
<path d="M35.8207 26.4487C35.6083 26.4487 35.3958 26.3676 35.2338 26.2056L34.0957 25.0675C33.7715 24.7434 33.7715 24.2179 34.0956 23.8937C34.4198 23.5697 34.9453 23.5695 35.2694 23.8937L35.8207 24.4449L36.372 23.8937C36.6961 23.5695 37.2216 23.5697 37.5458 23.8937C37.8699 24.2179 37.8699 24.7433 37.5457 25.0675L36.4075 26.2056C36.2454 26.3676 36.0329 26.4487 35.8207 26.4487Z" fill="#FBD500"/>
<path d="M36.5057 53.9889C36.2856 53.9889 36.0745 53.9015 35.9189 53.7458L34.7808 52.6078C34.4566 52.2837 34.4566 51.7582 34.7807 51.434C35.1049 51.1099 35.6304 51.1098 35.9544 51.434L36.5057 51.9852L37.0568 51.434C37.381 51.1099 37.9065 51.1098 38.2306 51.434C38.5548 51.7581 38.5548 52.2836 38.2307 52.6078L37.0927 53.7458C36.9369 53.9015 36.7258 53.9889 36.5057 53.9889Z" fill="#FBD500"/>
<path d="M39.6647 58.8305H34.7494C34.2909 58.8305 33.9194 58.459 33.9194 58.0006C33.9194 57.5422 34.291 57.1707 34.7494 57.1707H39.6647C40.1231 57.1707 40.4946 57.5422 40.4946 58.0006C40.4946 58.459 40.1231 58.8305 39.6647 58.8305Z" fill="#FBC000"/>
<path d="M57.9027 62.8784H42.6444C42.1859 62.8784 41.8145 62.5068 41.8145 62.0484C41.8145 61.5901 42.186 61.2185 42.6444 61.2185H57.9027C58.3612 61.2185 58.7326 61.5901 58.7326 62.0484C58.7326 62.5068 58.361 62.8784 57.9027 62.8784Z" fill="#FBC000"/>
<path d="M39.7568 62.8784H38.9012C38.4428 62.8784 38.0713 62.5068 38.0713 62.0484C38.0713 61.5901 38.4429 61.2185 38.9012 61.2185H39.7568C40.2153 61.2185 40.5868 61.5901 40.5868 62.0484C40.5869 62.5068 40.2153 62.8784 39.7568 62.8784Z" fill="#FBC000"/>
<path d="M36.0824 62.8784H34.7494C34.2909 62.8784 33.9194 62.5068 33.9194 62.0484C33.9194 61.5901 34.291 61.2185 34.7494 61.2185H36.0824C36.5408 61.2185 36.9123 61.5901 36.9123 62.0484C36.9123 62.5068 36.5408 62.8784 36.0824 62.8784Z" fill="#FBC000"/>
<path d="M46.7607 66.1469H34.7494C34.2909 66.1469 33.9194 65.7754 33.9194 65.317C33.9194 64.8586 34.291 64.4871 34.7494 64.4871H46.7608C47.2193 64.4871 47.5908 64.8586 47.5908 65.317C47.5908 65.7754 47.2192 66.1469 46.7607 66.1469Z" fill="#FBC000"/>
<path d="M57.9027 66.1469H54.6673C54.2089 66.1469 53.8374 65.7754 53.8374 65.317C53.8374 64.8586 54.209 64.4871 54.6673 64.4871H57.9027C58.3611 64.4871 58.7326 64.8586 58.7326 65.317C58.7326 65.7754 58.361 66.1469 57.9027 66.1469Z" fill="#FBC000"/>
<path d="M51.4287 66.1469H49.8583C49.3998 66.1469 49.0283 65.7754 49.0283 65.317C49.0283 64.8586 49.3999 64.4871 49.8583 64.4871H51.4287C51.8871 64.4871 52.2586 64.8586 52.2586 65.317C52.2587 65.7754 51.8871 66.1469 51.4287 66.1469Z" fill="#FBC000"/>
<path d="M57.9031 69.416H41.8153C41.3568 69.416 40.9854 69.0444 40.9854 68.586C40.9854 68.1277 41.3569 67.7561 41.8153 67.7561H57.9031C58.3616 67.7561 58.733 68.1277 58.733 68.586C58.733 69.0444 58.3615 69.416 57.9031 69.416Z" fill="#FBC000"/>
<path d="M55.9877 58.7734C57.3087 58.7734 58.3796 57.7025 58.3796 56.3815C58.3796 55.0604 57.3087 53.9895 55.9877 53.9895C54.6666 53.9895 53.5957 55.0604 53.5957 56.3815C53.5957 57.7025 54.6666 58.7734 55.9877 58.7734Z" fill="#ED1164"/>
</svg>
