<svg width="95" height="86" viewBox="0 0 95 86" fill="none" xmlns="http://www.w3.org/2000/svg">
<path d="M83.4196 77.7837C90.36 69.5185 94.5333 58.8447 94.4998 47.1929C94.4273 21.492 73.5779 0.362368 47.9194 0.00471212C21.5188 -0.364121 0 20.9667 0 47.3271C0 58.9285 4.16763 69.552 11.0802 77.7837C11.309 78.0575 11.7274 78.0687 11.9785 77.8172L47.2499 42.4875L82.5213 77.8172C82.7724 78.0743 83.1908 78.0575 83.4196 77.7837Z" fill="#FBC000"/>
<path d="M47.25 85.5C68.3749 85.5 85.5 68.3749 85.5 47.25C85.5 26.1251 68.3749 9 47.25 9C26.1251 9 9 26.1251 9 47.25C9 68.3749 26.1251 85.5 47.25 85.5Z" fill="#FFF6DA"/>
<mask id="mask0_1277_21547" style="mask-type:alpha" maskUnits="userSpaceOnUse" x="9" y="9" width="77" height="77">
<path d="M47.2928 85.5856C68.4413 85.5856 85.5856 68.4413 85.5856 47.2928C85.5856 26.1443 68.4413 9 47.2928 9C26.1443 9 9 26.1443 9 47.2928C9 68.4413 26.1443 85.5856 47.2928 85.5856Z" fill="#FBC000"/>
</mask>
<g mask="url(#mask0_1277_21547)">
<g opacity="0.8">
<path d="M55 91L25.5 72.5L28.5273 61.2666H47.0273V56.7666L60.5 54.0632H64.8266L67 21.5L91.9674 46.2851L73.1569 80.5471L55 91Z" fill="#FBC000" fill-opacity="0.25" style="mix-blend-mode:multiply"/>
</g>
</g>
<path d="M64.0442 58.6216H48.1344V54.2529H45.5097V58.6216H29.5998H26.9775V61.2638V64.8942H29.5998V61.2638H45.5097V64.8942H48.1344V61.2638H64.0442V64.8942H66.6689V61.2638V58.6216H64.0442Z" fill="#ED1164"/>
<path d="M46.8854 73.4994C44.1521 73.4994 41.9375 71.2701 41.9375 68.5188C41.9375 65.7674 44.1521 63.5381 46.8854 63.5381C49.6186 63.5381 51.8332 65.7674 51.8332 68.5188C51.8332 71.2677 49.6162 73.4994 46.8854 73.4994Z" fill="#ED1164"/>
<path d="M28.5152 73.4994C25.782 73.4994 23.5674 71.2701 23.5674 68.5188C23.5674 65.7674 25.782 63.5381 28.5152 63.5381C31.2485 63.5381 33.4631 65.7674 33.4631 68.5188C33.4631 71.2677 31.2485 73.4994 28.5152 73.4994Z" fill="#ED1164"/>
<path d="M65.7799 73.4994C63.0466 73.4994 60.832 71.2701 60.832 68.5188C60.832 65.7674 63.0466 63.5381 65.7799 63.5381C68.5131 63.5381 70.7277 65.7674 70.7277 68.5188C70.7277 71.2677 68.5131 73.4994 65.7799 73.4994Z" fill="#ED1164"/>
<path d="M61.5505 56.2411H26.0977L29.1035 52.0837V21H67.5236V50.2284C67.5236 53.548 64.8482 56.2411 61.5505 56.2411Z" fill="white"/>
<path d="M26.0975 56.2406C24.3871 56.2406 23 54.8443 23 53.1225V40.2471H29.1927V53.1225C29.1927 54.8443 27.8079 56.2406 26.0975 56.2406Z" fill="#FBC000"/>
<path d="M59.1984 36.9033H36.9367C36.0682 36.9033 35.3662 36.1942 35.3662 35.3224V29.1786C35.3662 28.3043 36.0706 27.5977 36.9367 27.5977H59.1984C60.0669 27.5977 60.7689 28.3068 60.7689 29.1786V35.3224C60.7689 36.1942 60.0645 36.9033 59.1984 36.9033Z" fill="#FBC000"/>
<path d="M58.7639 43.2526H36.5021C35.6337 43.2526 34.9316 42.5435 34.9316 41.6717C34.9316 40.7975 35.6361 40.0908 36.5021 40.0908H58.7639C59.6323 40.0908 60.3343 40.7999 60.3343 41.6717C60.3343 42.5459 59.6299 43.2526 58.7639 43.2526Z" fill="#ED1164"/>
<path d="M59.1984 49.8249H36.9367C36.0682 49.8249 35.3662 49.1158 35.3662 48.244C35.3662 47.3698 36.0706 46.6631 36.9367 46.6631H59.1984C60.0669 46.6631 60.7689 47.3722 60.7689 48.244C60.7689 49.1158 60.0645 49.8249 59.1984 49.8249Z" fill="#ED1164"/>
</svg>
