<svg width="96" height="87" viewBox="0 0 96 87" fill="none" xmlns="http://www.w3.org/2000/svg">
<path d="M84.7441 79.0188C91.7948 70.6223 96.0343 59.779 96.0003 47.9423C95.9266 21.8333 74.7462 0.368122 48.6803 0.00478694C21.8605 -0.369902 0 21.2996 0 48.0785C0 59.8642 4.23381 70.6564 11.2561 79.0188C11.4885 79.2969 11.9136 79.3083 12.1687 79.0528L48.0001 43.1622L83.8316 79.0528C84.0867 79.314 84.5118 79.2969 84.7441 79.0188Z" fill="#FBC000"/>
<path d="M47.9999 86.8573C69.4602 86.8573 86.8573 69.4602 86.8573 47.9999C86.8573 26.5396 69.4602 9.14258 47.9999 9.14258C26.5396 9.14258 9.14258 26.5396 9.14258 47.9999C9.14258 69.4602 26.5396 86.8573 47.9999 86.8573Z" fill="#FFF6DA"/>
<mask id="mask0_1277_21617" style="mask-type:alpha" maskUnits="userSpaceOnUse" x="9" y="9" width="78" height="78">
<path d="M47.9008 86.8017C69.3852 86.8017 86.8017 69.3852 86.8017 47.9008C86.8017 26.4165 69.3852 9 47.9008 9C26.4165 9 9 26.4165 9 47.9008C9 69.3852 26.4165 86.8017 47.9008 86.8017Z" fill="#FBC000"/>
</mask>
<g mask="url(#mask0_1277_21617)">
<g opacity="0.8">
<path d="M55.0668 88.8491L26.5 70L43.5 53.5L26.5 46.5L46 26L62 35L69.5 26L93.2851 46.8771L74.176 81.6831L55.0668 88.8491Z" fill="#FBC000" fill-opacity="0.5" style="mix-blend-mode:multiply"/>
</g>
</g>
<path d="M45.5703 46.8383H27.268C26.5679 46.8383 26 46.2704 26 45.5703V27.268C26 26.5679 26.5679 26 27.268 26H45.5703C46.2704 26 46.8383 26.5679 46.8383 27.268V45.5703C46.8403 46.2704 46.2704 46.8383 45.5703 46.8383Z" fill="#ED1164"/>
<path d="M69.0518 46.8383H50.7495C50.0494 46.8383 49.4814 46.2704 49.4814 45.5703V27.268C49.4814 26.5679 50.0494 26 50.7495 26H69.0518C69.7518 26 70.3198 26.5679 70.3198 27.268V45.5703C70.3198 46.2704 69.7518 46.8383 69.0518 46.8383Z" fill="white"/>
<path d="M45.5703 70.1733H27.268C26.5679 70.1733 26 69.6053 26 68.9053V50.603C26 49.9029 26.5679 49.335 27.268 49.335H45.5703C46.2704 49.335 46.8383 49.9029 46.8383 50.603V68.9053C46.8403 69.6053 46.2704 70.1733 45.5703 70.1733Z" fill="white"/>
<path d="M69.0518 70.1733H50.7495C50.0494 70.1733 49.4814 69.6053 49.4814 68.9053V50.603C49.4814 49.9029 50.0494 49.335 50.7495 49.335H69.0518C69.7518 49.335 70.3198 49.9029 70.3198 50.603V68.9053C70.3198 69.6053 69.7518 70.1733 69.0518 70.1733Z" fill="#ED1164"/>
<path d="M33.8334 57.6629C35.2623 57.6629 36.4207 56.5045 36.4207 55.0756C36.4207 53.6466 35.2623 52.4883 33.8334 52.4883C32.4045 52.4883 31.2461 53.6466 31.2461 55.0756C31.2461 56.5045 32.4045 57.6629 33.8334 57.6629Z" fill="#EEC542"/>
<mask id="mask1_1277_21617" style="mask-type:alpha" maskUnits="userSpaceOnUse" x="26" y="49" width="21" height="22">
<path d="M45.5703 70.1733H27.268C26.5679 70.1733 26 69.6053 26 68.9053V50.603C26 49.9029 26.5679 49.335 27.268 49.335H45.5703C46.2704 49.335 46.8383 49.9029 46.8383 50.603V68.9053C46.8403 69.6053 46.2704 70.1733 45.5703 70.1733Z" fill="white"/>
</mask>
<g mask="url(#mask1_1277_21617)">
<path d="M29.5459 70.035L43.1489 55.6097C44.3814 54.3023 46.456 54.2845 47.7102 55.5683L63.0564 71.2735L29.5459 70.035Z" fill="#ED1164"/>
<path d="M23.6748 70.7609L32.6928 61.1966C33.9254 59.8892 35.9999 59.8715 37.2541 61.1552L47.4988 71.6405L23.6748 70.7609Z" fill="#F53C82"/>
</g>
<g style="mix-blend-mode:multiply" opacity="0.4">
<path d="M65.1484 29.9893L70.3171 35.4596V45.6195C70.3171 46.2939 69.7708 46.8382 69.0984 46.8382H61.4785L55.9766 41.8746L61.8808 31.3164L65.1484 29.9893Z" fill="#E0E0E0"/>
</g>
<g style="mix-blend-mode:multiply" opacity="0.4">
<path d="M40.5181 35.7353L46.8404 42.8484V45.6171C46.8404 46.2916 46.2941 46.8358 45.6216 46.8358H37.9998L32.1094 41.5212L34.8801 35.0234L40.5181 35.7353Z" fill="#ED1164"/>
</g>
<g opacity="0.41">
<path d="M65.1486 56.3652L70.3173 60.2679V68.9546C70.3173 69.629 69.7711 70.1733 69.0986 70.1733H61.4787L54.6536 64.0147L60.4158 62.0289L54.4248 58.3294L65.1486 56.3652Z" fill="#ED1164" style="mix-blend-mode:multiply"/>
</g>
<path d="M65.1479 29.9893H62.4659H60.0443V32.4089V35.3295C58.932 34.872 57.5654 34.9035 56.2028 35.7456C55.8281 35.9763 55.5145 36.2997 55.2937 36.6803C53.5228 39.7271 55.6762 42.8488 58.5574 42.8488C60.277 42.8488 61.7343 41.7366 62.2569 40.1925C62.389 39.8 62.4659 39.38 62.4659 38.9422V32.4089H65.1479V29.9893Z" fill="#ED1164"/>
<path d="M31.9297 32.1067V40.7303C31.9297 41.3397 32.5903 41.7203 33.1188 41.4126L40.5178 37.1018C41.0404 36.7961 41.0404 36.0409 40.5178 35.7352L33.1188 31.4244C32.5903 31.1167 31.9297 31.4973 31.9297 32.1067Z" fill="white"/>
<path d="M64.451 58.7258H55.3521C54.6422 58.7258 54.0684 58.1499 54.0684 57.442C54.0684 56.7321 54.6442 56.1582 55.3521 56.1582H64.451C65.161 56.1582 65.7348 56.734 65.7348 57.442C65.7348 58.1519 65.159 58.7258 64.451 58.7258Z" fill="white"/>
<path d="M64.451 64.0832H55.3521C54.6422 64.0832 54.0684 63.5074 54.0684 62.7994C54.0684 62.0895 54.6442 61.5156 55.3521 61.5156H64.451C65.161 61.5156 65.7348 62.0915 65.7348 62.7994C65.7348 63.5074 65.159 64.0832 64.451 64.0832Z" fill="white"/>
</svg>
