<svg width="95" height="86" viewBox="0 0 95 86" fill="none" xmlns="http://www.w3.org/2000/svg">
<path d="M83.4196 77.7837C90.36 69.5185 94.5333 58.8447 94.4998 47.1929C94.4273 21.492 73.5779 0.362368 47.9194 0.00471212C21.5188 -0.364121 0 20.9667 0 47.3271C0 58.9285 4.16763 69.552 11.0802 77.7837C11.309 78.0575 11.7274 78.0687 11.9785 77.8172L47.2499 42.4875L82.5213 77.8172C82.7724 78.0743 83.1908 78.0575 83.4196 77.7837Z" fill="#ED1164"/>
<path d="M47.25 85.5C68.3749 85.5 85.5 68.3749 85.5 47.25C85.5 26.1251 68.3749 9 47.25 9C26.1251 9 9 26.1251 9 47.25C9 68.3749 26.1251 85.5 47.25 85.5Z" fill="#FFD9E7"/>
<mask id="mask0_1277_19355" style="mask-type:alpha" maskUnits="userSpaceOnUse" x="8" y="8" width="78" height="78">
<path d="M47.2655 85.318C68.414 85.318 85.5583 68.1738 85.5583 47.0252C85.5583 25.8767 68.414 8.73242 47.2655 8.73242C26.1169 8.73242 8.97266 25.8767 8.97266 47.0252C8.97266 68.1738 26.1169 85.318 47.2655 85.318Z" fill="#FBC000"/>
</mask>
<g mask="url(#mask0_1277_19355)">
<g opacity="0.8">
<path d="M53 90.498L24 65.5L38.5 59.998L43 53.7946L56 46.0166L54.3191 38.998L71 27L91.9401 46.0166L73.1296 80.2786L53 90.498Z" fill="#FFCDE0" fill-opacity="0.5" style="mix-blend-mode:multiply"/>
</g>
</g>
<path d="M70.322 66.9838H25.3639C24.4757 66.9838 23.7559 66.2637 23.7559 65.3756V28.5397C23.7559 27.6515 24.4759 26.9316 25.3639 26.9316H70.3218C71.21 26.9316 71.9298 27.6517 71.9298 28.5397V65.3758C71.93 66.2637 71.21 66.9838 70.322 66.9838Z" fill="white"/>
<path d="M70.3197 58.1919C69.9862 58.1919 69.7158 57.9215 69.7158 57.588L69.7182 36.5102C69.7182 36.1766 69.9886 35.9062 70.3221 35.9062C70.6557 35.9062 70.9261 36.1766 70.9261 36.5102L70.9236 57.588C70.9236 57.9215 70.6533 58.1919 70.3197 58.1919Z" fill="#FAFAFA"/>
<path d="M70.3892 67.0201H25.297C24.4076 67.0201 23.6865 66.299 23.6865 65.4096V58.6758H71.9996V65.4096C71.9996 66.299 71.2785 67.0201 70.3892 67.0201Z" fill="#ED1164"/>
<path d="M71.93 35.2759H23.7559V28.5421C23.7559 27.6527 24.4769 26.9316 25.3663 26.9316H70.3196C71.209 26.9316 71.93 27.6527 71.93 28.5421V35.2759Z" fill="#ED1164"/>
<path d="M42.6475 42.5749V51.534C42.6475 52.4092 43.5844 52.9665 44.3559 52.5504L53.2127 47.7722C54.0472 47.3219 54.0147 46.1161 53.1571 45.7113L44.3004 41.5304C43.5324 41.1677 42.6475 41.7268 42.6475 42.5749Z" fill="#ED1164"/>
<path d="M27.7828 65.008C27.3381 65.008 26.9775 64.6474 26.9775 64.2027V61.4908C26.9775 61.0461 27.3381 60.6855 27.7828 60.6855C28.2274 60.6855 28.588 61.0461 28.588 61.4908V64.2027C28.588 64.6474 28.2274 65.008 27.7828 65.008Z" fill="white"/>
<path d="M30.0025 65.008C29.5578 65.008 29.1973 64.6474 29.1973 64.2027V61.4908C29.1973 61.0461 29.5578 60.6855 30.0025 60.6855C30.4472 60.6855 30.8077 61.0461 30.8077 61.4908V64.2027C30.8077 64.6474 30.4472 65.008 30.0025 65.008Z" fill="white"/>
<path d="M33.5747 61.0392L35.8899 62.1343C36.1881 62.2754 36.1995 62.6955 35.9093 62.8523L33.594 64.104C33.3257 64.249 33 64.0547 33 63.75V61.4031C33 61.1076 33.3076 60.9128 33.5747 61.0392Z" fill="#FBC000"/>
<path d="M37.8008 64.3886V61.6507C37.8008 61.4282 37.9809 61.248 38.2034 61.248H40.9367C41.1591 61.248 41.3393 61.4282 41.3393 61.6507V64.3886C41.3393 64.611 41.1591 64.7912 40.9367 64.7912H38.2034C37.9809 64.7912 37.8008 64.611 37.8008 64.3886Z" fill="white"/>
<path d="M67.8338 63.6443H44.3387C43.9931 63.6443 43.7129 63.3641 43.7129 63.0184C43.7129 62.6728 43.9931 62.3926 44.3387 62.3926H67.8336C68.1792 62.3926 68.4595 62.6728 68.4595 63.0184C68.4597 63.3641 68.1794 63.6443 67.8338 63.6443Z" fill="white"/>
<path d="M57.0099 32.9582H54.4598C54.1077 32.9582 53.8223 32.6728 53.8223 32.3207V29.7703C53.8223 29.4183 54.1077 29.1328 54.4598 29.1328H57.0099C57.362 29.1328 57.6475 29.4183 57.6475 29.7703V32.3207C57.6475 32.6728 57.362 32.9582 57.0099 32.9582Z" fill="white"/>
<path d="M63.3136 32.9582H60.7635C60.4114 32.9582 60.126 32.6728 60.126 32.3207V29.7703C60.126 29.4183 60.4114 29.1328 60.7635 29.1328H63.3136C63.6657 29.1328 63.9512 29.4183 63.9512 29.7703V32.3207C63.9512 32.6728 63.6657 32.9582 63.3136 32.9582Z" fill="white"/>
<path d="M69.6173 32.9582H67.0672C66.7151 32.9582 66.4297 32.6728 66.4297 32.3207V29.7703C66.4297 29.4183 66.7151 29.1328 67.0672 29.1328H69.6173C69.9694 29.1328 70.2549 29.4183 70.2549 29.7703V32.3207C70.2549 32.6728 69.9694 32.9582 69.6173 32.9582Z" fill="white"/>
<path d="M48.9468 63.0182C48.9468 62.6726 49.227 62.3926 49.5727 62.3926H44.3387C43.9931 62.3926 43.7129 62.6728 43.7129 63.0182C43.7129 63.3639 43.9931 63.6441 44.3387 63.6441H49.5727C49.2268 63.6439 48.9468 63.3639 48.9468 63.0182Z" fill="#FBC000"/>
<path d="M49.1965 64.6429C48.8706 64.6429 48.6064 64.3788 48.6064 64.0529V61.9865C48.6064 61.6606 48.8706 61.3965 49.1965 61.3965C49.5224 61.3965 49.7865 61.6606 49.7865 61.9865V64.0529C49.7865 64.3788 49.5224 64.6429 49.1965 64.6429Z" fill="#FBC000"/>
</svg>
