<svg width="61" height="36" viewBox="0 0 61 36" fill="none" xmlns="http://www.w3.org/2000/svg">
<path d="M58.6729 1.24651C57.4492 0.320741 55.8134 0.0963554 54.3836 0.653452L39.9596 5.24404C39.9122 5.25906 39.8658 5.2759 39.8202 5.29501C38.3725 5.89034 37.3472 7.21663 37.1443 8.75548C36.9419 10.2939 37.59 11.8354 38.8358 12.7785L39.9665 13.6342L35.9128 17.8156L24.3202 5.19852C22.9448 3.59141 20.9359 2.69614 18.7977 2.7453C16.6512 2.79582 14.6754 3.79531 13.3703 5.49528L1.53442 21.0985C0.400925 22.5755 -0.0834788 24.4011 0.170454 26.2385C0.424846 28.0764 1.38675 29.7058 2.87998 30.8272C4.14597 31.7789 5.63644 32.2382 7.11541 32.2382C9.23657 32.2382 11.3343 31.2929 12.713 29.4964C12.7162 29.4928 12.7189 29.4887 12.7222 29.4846L19.3037 20.7572L30.4293 32.8422C31.7445 34.3783 33.6638 35.2722 35.7081 35.2963H35.7835C37.7934 35.2963 39.7075 34.4429 41.0388 32.9541L51.174 22.1171L52.901 23.4243C53.6122 23.9623 54.4609 24.2704 55.3552 24.3146C56.0047 24.3474 56.6667 24.2336 57.268 23.986C58.7156 23.3902 59.741 22.0644 59.9434 20.5255C59.9513 20.4659 59.9559 20.4058 59.9577 20.3453L60.3763 5.16803C60.5378 3.66378 59.8915 2.16908 58.6729 1.24651ZM56.8144 4.81256C56.8066 4.87218 56.802 4.93272 56.8001 4.9928L56.3829 20.1327C56.3268 20.3931 56.1437 20.6129 55.8929 20.7162C55.7789 20.7631 55.6588 20.784 55.5351 20.7777C55.3676 20.7695 55.2089 20.7117 55.0755 20.6111L52.055 18.3244C51.3212 17.7692 50.2807 17.8575 49.6537 18.5283L38.3969 30.5646C38.3863 30.5755 38.3762 30.5869 38.3661 30.5983C37.7133 31.3334 36.7721 31.7548 35.7831 31.7548H35.7426C34.7384 31.743 33.7926 31.2992 33.1476 30.5378C33.1315 30.5191 33.1154 30.5004 33.0988 30.4822L20.4892 16.7856C20.1492 16.4165 19.6685 16.2076 19.1662 16.2076C19.1372 16.2076 19.1082 16.208 19.0787 16.2094C18.5451 16.2353 18.0511 16.4957 17.7318 16.9194L9.85806 27.36C8.71031 28.8496 6.55234 29.1396 5.04439 28.0067C3.5346 26.8725 3.2388 24.7338 4.39162 23.2323L16.2271 7.62899C16.8637 6.80018 17.8316 6.30999 18.8805 6.28541C19.9358 6.26265 20.9271 6.70551 21.601 7.50155C21.6167 7.52021 21.6328 7.53796 21.6489 7.55572L34.5534 21.6006C34.887 21.9638 35.358 22.1736 35.8535 22.1804C36.3489 22.1895 36.8259 21.9897 37.1691 21.6356L43.9347 14.6564C44.2875 14.2928 44.4665 13.798 44.4278 13.2955C44.3887 12.7931 44.1352 12.3306 43.7309 12.0243L41.0103 9.96525C40.7771 9.78911 40.6561 9.50055 40.6938 9.21244C40.7297 8.94209 40.9008 8.70678 41.146 8.58662L55.541 4.00513C55.5884 3.99011 55.6349 3.97327 55.6809 3.95416C55.9518 3.84265 56.2646 3.88316 56.4979 4.0593C56.7311 4.23635 56.8526 4.52445 56.8144 4.81256Z" fill="white"/>
</svg>