<svg width="96" height="87" viewBox="0 0 96 87" fill="none" xmlns="http://www.w3.org/2000/svg">
<path d="M84.7441 79.0188C91.7948 70.6223 96.0343 59.779 96.0003 47.9423C95.9266 21.8333 74.7462 0.368122 48.6803 0.00478694C21.8605 -0.369902 0 21.2996 0 48.0785C0 59.8642 4.23381 70.6564 11.2561 79.0188C11.4885 79.2969 11.9136 79.3083 12.1687 79.0528L48.0001 43.1622L83.8316 79.0528C84.0867 79.314 84.5118 79.2969 84.7441 79.0188Z" fill="#ED1164"/>
<path d="M47.9999 86.8573C69.4602 86.8573 86.8573 69.4602 86.8573 47.9999C86.8573 26.5396 69.4602 9.14258 47.9999 9.14258C26.5396 9.14258 9.14258 26.5396 9.14258 47.9999C9.14258 69.4602 26.5396 86.8573 47.9999 86.8573Z" fill="#FFD9E7"/>
<mask id="mask0_1277_21643" style="mask-type:alpha" maskUnits="userSpaceOnUse" x="9" y="8" width="78" height="79">
<path d="M48.0161 86.6737C69.5004 86.6737 86.9169 69.2572 86.9169 47.7729C86.9169 26.2886 69.5004 8.87207 48.0161 8.87207C26.5317 8.87207 9.11523 26.2886 9.11523 47.7729C9.11523 69.2572 26.5317 86.6737 48.0161 86.6737Z" fill="#FBC000"/>
</mask>
<g mask="url(#mask0_1277_21643)">
<g opacity="0.8">
<path d="M55.182 88.7212L28.5 76L47 61.5L63 59L56 20L92 52.5L83 77.5L55.182 88.7212Z" fill="#FFCDE0" fill-opacity="0.5" style="mix-blend-mode:multiply"/>
</g>
</g>
<path d="M66.9999 30.1899V75.1506C66.9999 75.9347 66.363 76.5705 65.58 76.5705H29.4307C28.6477 76.5705 28.0107 75.9347 28.0107 75.1506V20.8496C28.0107 20.0655 28.6478 19.4297 29.4307 19.4297H56.2397L66.9999 30.1899Z" fill="white"/>
<path d="M66.999 30.1904V75.1511C66.999 75.9352 66.362 76.571 65.579 76.571H61.1182C61.9023 76.571 62.5381 75.9352 62.5381 75.1511V25.7295L66.999 30.1904Z" fill="#FD97BD"/>
<path d="M56.1611 28.77V19.4297L66.9213 30.1899H57.5811C56.798 30.1899 56.1611 29.5541 56.1611 28.77Z" fill="#FD97BD"/>
<path d="M56.557 50.4215C56.3926 50.6043 56.2189 50.7847 56.0385 50.9595C51.3397 55.5296 43.7711 55.5147 39.0882 50.9285C36.6439 48.5348 35.4287 45.3684 35.4425 42.2067C35.4448 41.5674 35.992 41.0662 36.6278 41.1317L47.5789 42.255L47.8111 41.6756L56.557 50.4215Z" fill="#FEE265"/>
<path d="M56.5568 50.4214C56.3924 50.6042 56.2187 50.7847 56.0382 50.9594C51.5049 55.3674 44.2997 55.5111 39.5928 51.3951C43.7134 53.5979 48.9721 53.0001 52.4742 49.5935C53.0399 49.044 53.5331 48.4484 53.9538 47.8184L56.5568 50.4214Z" fill="#FDD330"/>
<path d="M47.5791 42.2561L51.6765 32.0349C51.9112 31.4496 52.5998 31.1847 53.1599 31.4747C54.2409 32.0342 55.2554 32.7676 56.1614 33.6737C60.9013 38.4136 60.9013 46.0984 56.1614 50.8383L47.5791 42.2561Z" fill="#ED1164"/>
<path d="M56.1609 50.8381L53.6182 48.2953C56.8504 43.9832 56.5062 37.8392 52.5856 33.9186C52.1941 33.5271 51.78 33.1711 51.3486 32.8516L51.6756 32.0352C51.9101 31.4501 52.5996 31.1843 53.1589 31.4749C54.2399 32.0342 55.2543 32.7678 56.1609 33.6734C60.9002 38.4135 60.9002 46.0989 56.1609 50.8381Z" fill="#F82071"/>
<path d="M49.6957 28.0685L45.9005 37.536C45.7219 37.9815 45.2697 38.2547 44.7922 38.2057L34.6475 37.1646C34.0117 37.0993 33.578 36.4984 33.7046 35.872C34.1611 33.6129 35.2653 31.4589 37.0172 29.707C40.2643 26.46 44.8932 25.4376 49.0108 26.6393C49.6159 26.816 49.9302 27.4835 49.6957 28.0685Z" fill="#FBD500"/>
<path d="M49.696 28.0676L45.9013 37.5352C45.7227 37.9805 45.2698 38.2548 44.7934 38.2052L41.8086 37.8987C42.1238 37.8008 42.3873 37.5652 42.5153 37.2458L46.4681 27.3834C46.6413 26.95 46.5273 26.4745 46.2197 26.168C47.162 26.2153 48.0988 26.3723 49.012 26.639C49.6164 26.8156 49.9305 27.4824 49.696 28.0676Z" fill="#FBBE00"/>
<path d="M35.0975 27.1677C34.8768 27.1677 34.6561 27.0834 34.4878 26.9151L33.3054 25.7328C32.9685 25.3961 32.9685 24.8501 33.3053 24.5133C33.6421 24.1766 34.188 24.1765 34.5247 24.5133L35.0975 25.0859L35.6702 24.5133C36.0069 24.1765 36.5529 24.1766 36.8897 24.5133C37.2264 24.8501 37.2264 25.396 36.8896 25.7328L35.7072 26.9151C35.5388 27.0834 35.318 27.1677 35.0975 27.1677Z" fill="#FBD500"/>
<path d="M35.8084 55.78C35.5797 55.78 35.3604 55.6891 35.1987 55.5274L34.0163 54.3451C33.6795 54.0084 33.6795 53.4624 34.0162 53.1256C34.353 52.7889 34.899 52.7888 35.2357 53.1256L35.8084 53.6983L36.3809 53.1256C36.7178 52.7889 37.2637 52.7888 37.6004 53.1256C37.9372 53.4623 37.9372 54.0083 37.6005 54.3451L36.4182 55.5274C36.2564 55.6891 36.0371 55.78 35.8084 55.78Z" fill="#FBD500"/>
<path d="M40.8614 60.8104H35.7548C35.2785 60.8104 34.8926 60.4244 34.8926 59.9482C34.8926 59.472 35.2786 59.0859 35.7548 59.0859H40.8614C41.3378 59.0859 41.7237 59.472 41.7237 59.9482C41.7237 60.4244 41.3378 60.8104 40.8614 60.8104Z" fill="#ED1164"/>
<path d="M59.8092 65.0155H43.957C43.4806 65.0155 43.0947 64.6295 43.0947 64.1533C43.0947 63.677 43.4808 63.291 43.957 63.291H59.8092C60.2855 63.291 60.6714 63.677 60.6714 64.1533C60.6714 64.6295 60.2854 65.0155 59.8092 65.0155Z" fill="#ED1164"/>
<path d="M40.9572 65.0155H40.0683C39.592 65.0155 39.2061 64.6295 39.2061 64.1533C39.2061 63.677 39.5921 63.291 40.0683 63.291H40.9572C41.4335 63.291 41.8195 63.677 41.8195 64.1533C41.8196 64.6295 41.4335 65.0155 40.9572 65.0155Z" fill="#ED1164"/>
<path d="M37.1397 65.0155H35.7548C35.2785 65.0155 34.8926 64.6295 34.8926 64.1533C34.8926 63.677 35.2786 63.291 35.7548 63.291H37.1397C37.616 63.291 38.0019 63.677 38.0019 64.1533C38.0019 64.6295 37.616 65.0155 37.1397 65.0155Z" fill="#ED1164"/>
<path d="M48.2337 68.411H35.7548C35.2785 68.411 34.8926 68.025 34.8926 67.5488C34.8926 67.0726 35.2786 66.6865 35.7548 66.6865H48.2338C48.7101 66.6865 49.0961 67.0726 49.0961 67.5488C49.0961 68.025 48.71 68.411 48.2337 68.411Z" fill="#ED1164"/>
<path d="M59.8094 68.411H56.4482C55.9719 68.411 55.5859 68.025 55.5859 67.5488C55.5859 67.0726 55.972 66.6865 56.4482 66.6865H59.8094C60.2858 66.6865 60.6717 67.0726 60.6717 67.5488C60.6717 68.025 60.2856 68.411 59.8094 68.411Z" fill="#ED1164"/>
<path d="M53.0836 68.411H51.4521C50.9758 68.411 50.5898 68.025 50.5898 67.5488C50.5898 67.0726 50.9759 66.6865 51.4521 66.6865H53.0836C53.5599 66.6865 53.9459 67.0726 53.9459 67.5488C53.946 68.025 53.5599 68.411 53.0836 68.411Z" fill="#ED1164"/>
<path d="M59.8096 71.8085H43.0956C42.6193 71.8085 42.2334 71.4224 42.2334 70.9462C42.2334 70.47 42.6194 70.084 43.0956 70.084H59.8096C60.2859 70.084 60.6719 70.47 60.6719 70.9462C60.6719 71.4224 60.2858 71.8085 59.8096 71.8085Z" fill="#ED1164"/>
<path d="M57.3239 60.7523C58.6964 60.7523 59.809 59.6398 59.809 58.2673C59.809 56.8948 58.6964 55.7822 57.3239 55.7822C55.9515 55.7822 54.8389 56.8948 54.8389 58.2673C54.8389 59.6398 55.9515 60.7523 57.3239 60.7523Z" fill="#FBC000"/>
<path d="M59.8097 58.2673C59.8097 59.6396 58.698 60.7523 57.3247 60.7523C56.9321 60.7523 56.5594 60.6611 56.2295 60.4972C57.1751 60.197 57.8602 59.3119 57.8602 58.2673C57.8602 57.2227 57.1752 56.3376 56.2295 56.0374C56.5594 55.8735 56.9321 55.7822 57.3247 55.7822C58.698 55.7822 59.8097 56.895 59.8097 58.2673Z" fill="#FBC000" fill-opacity="0.4" style="mix-blend-mode:multiply"/>
</svg>
