<svg width="96" height="87" viewBox="0 0 96 87" fill="none" xmlns="http://www.w3.org/2000/svg">
<path d="M84.7441 79.0188C91.7948 70.6223 96.0343 59.779 96.0003 47.9423C95.9266 21.8333 74.7462 0.368122 48.6803 0.00478694C21.8605 -0.369902 0 21.2996 0 48.0785C0 59.8642 4.23381 70.6564 11.2561 79.0188C11.4885 79.2969 11.9136 79.3083 12.1687 79.0528L48.0001 43.1622L83.8316 79.0528C84.0867 79.314 84.5118 79.2969 84.7441 79.0188Z" fill="#ED1164"/>
<path d="M48.0004 86.8575C69.4607 86.8575 86.8577 69.4605 86.8577 48.0002C86.8577 26.5399 69.4607 9.14282 48.0004 9.14282C26.5401 9.14282 9.14307 26.5399 9.14307 48.0002C9.14307 69.4605 26.5401 86.8575 48.0004 86.8575Z" fill="#FFD9E7"/>
<mask id="mask0" style="mask-type:alpha" maskUnits="userSpaceOnUse" x="9" y="8" width="78" height="79">
<path d="M48.0161 86.6737C69.5004 86.6737 86.9169 69.2572 86.9169 47.7729C86.9169 26.2886 69.5004 8.87207 48.0161 8.87207C26.5317 8.87207 9.11523 26.2886 9.11523 47.7729C9.11523 69.2572 26.5317 86.6737 48.0161 86.6737Z" fill="#FBC000"/>
</mask>
<g mask="url(#mask0)">
<g opacity="0.8">
<path d="M55.182 88.7212L47 83.5V61.5L63 59L49 13.5L92 46.5L83 77.5L55.182 88.7212Z" fill="#FFCDE0" fill-opacity="0.5" style="mix-blend-mode:multiply"/>
</g>
</g>
<path d="M47.7092 42.8427L40.1287 50.1168L42.885 60.5762L42.8544 62.0616C42.8035 64.5274 44.7529 66.559 47.2188 66.6099C49.6845 66.6608 51.7162 64.7114 51.7671 62.2455L51.7978 60.7601L54.9832 50.4232L47.7092 42.8427ZM39.6708 59.8599C39.9563 59.458 40.0235 58.9428 39.8516 58.4806C38.8864 55.8862 38.057 51.4907 37.6343 46.7218C37.5906 46.2376 37.3137 45.8052 36.8905 45.5643C36.0206 45.0674 35.3035 45.6531 35.0966 45.7116C34.8182 45.8438 28.2617 49.0652 28.0612 58.7846C27.9097 66.1277 32.183 66.3 32.3643 66.3038C33.1854 66.3207 33.8635 65.67 33.8804 64.849C33.9312 62.3916 35.9714 60.4339 38.4287 60.4845C38.9204 60.4946 39.3853 60.2604 39.6708 59.8599ZM58.4064 46.0082C57.9737 46.2315 57.6791 46.652 57.6155 47.134C56.9743 52.0463 55.9927 56.2899 54.9197 58.7783C54.7245 59.2329 54.7675 59.7548 55.0346 60.171C55.3031 60.5858 55.7594 60.8419 56.2541 60.8521C58.7114 60.9028 60.6692 62.9431 60.6185 65.4004C60.6016 66.2216 61.2523 66.8997 62.0733 66.9165C62.2546 66.9202 66.5315 66.9243 66.683 59.5812C66.8835 49.8619 60.4655 46.3727 60.1941 46.2307C59.9993 46.1669 59.2931 45.5475 58.4064 46.0082ZM49.2073 13.4492C48.6805 13.0519 47.9675 13.0372 47.4246 13.4124C47.1226 13.6438 42.5654 16.9976 38.9273 23.3424L47.9794 26.5013L57.2876 23.7212C53.9144 17.2318 49.4993 13.6929 49.2073 13.4492ZM41.9512 33.8074C41.8838 37.0755 44.5024 39.8044 47.7705 39.8719C51.0681 39.9399 53.7675 37.3207 53.8349 34.0526C53.9029 30.755 51.3133 28.0562 48.0156 27.9882C44.7476 27.9208 42.0193 30.5097 41.9512 33.8074Z" fill="white"/>
<path d="M38.9273 23.3427C36.5237 27.484 34.5392 32.9117 34.4013 39.5963C34.3559 41.7948 34.4516 44.3529 34.665 46.9727C35.1259 52.0052 36.0101 56.6898 37.0814 59.5057C37.2778 60.0745 37.8046 60.4717 38.4285 60.4846L42.8849 60.5766L43.0994 50.1783C43.1502 47.7125 45.1818 45.7631 47.6477 45.8139C50.1431 45.8654 52.0636 47.8667 52.0121 50.3622L51.7976 60.7604L56.254 60.8523C56.8481 60.8646 57.4199 60.5197 57.6395 59.9596C58.8255 57.22 59.8997 52.6945 60.5714 47.5072C60.8926 44.8985 61.094 42.3464 61.1394 40.148C61.2773 33.4634 59.5184 27.9585 57.2874 23.7216L38.9273 23.3427ZM53.8347 34.0529C53.7673 37.3209 51.068 39.9401 47.7703 39.8721C44.5022 39.8047 41.8836 37.0758 41.951 33.8077C42.0191 30.5101 44.7474 27.921 48.0155 27.9885C51.3131 28.0565 53.9027 30.7553 53.8347 34.0529ZM47.1722 69.5686C46.3511 69.5518 45.6731 70.2024 45.6561 71.0234L45.4173 81.885C45.4004 82.7062 46.0511 83.3843 46.8721 83.4011C47.6932 83.418 48.3713 82.7674 48.3882 81.9463L48.627 71.0847C48.6439 70.2636 47.9932 69.5855 47.1722 69.5686ZM51.5978 71.146L51.5365 74.1169C51.5196 74.938 52.1703 75.6161 52.9913 75.633C53.8124 75.6499 54.4905 74.9992 54.5074 74.1782L54.5687 71.2073C54.5857 70.3863 53.935 69.7081 53.1139 69.6912C52.2929 69.6743 51.6148 70.325 51.5978 71.146ZM42.6238 73.9331L42.6851 70.9622C42.7021 70.1411 42.0514 69.463 41.2303 69.4461C40.4092 69.4292 39.7311 70.0798 39.7142 70.9009L39.6529 73.8718C39.6359 74.6928 40.2867 75.371 41.1077 75.3879C41.9288 75.4047 42.6069 74.754 42.6238 73.9331Z" fill="#ED1164"/>
</svg>
