<svg width="61" height="61" viewBox="0 0 61 61" fill="none" xmlns="http://www.w3.org/2000/svg">
<path d="M39.3712 5.46906H21.2823C20.7273 5.46906 20.2773 5.91898 20.2773 6.47399C20.2773 7.029 20.7273 7.47893 21.2823 7.47893H39.3712C39.9262 7.47893 40.3761 7.029 40.3761 6.47399C40.3761 5.91898 39.9262 5.46906 39.3712 5.46906Z" fill="white"/>
<path d="M49.9234 38.1295C49.9234 36.1902 48.3453 34.6122 46.4061 34.6122H44.3962V21.548C44.3962 20.993 43.9463 20.5431 43.3913 20.5431C42.8363 20.5431 42.3864 20.993 42.3864 21.548V34.6122H39.874C37.9347 34.6122 36.3567 36.1904 36.3567 38.1295C36.3567 39.1141 36.766 40.0027 37.4202 40.6418C36.766 41.281 36.3567 42.1696 36.3567 43.1542C36.3567 43.8316 36.5584 44.4594 36.8917 44.9967C35.6896 45.5566 34.8493 46.768 34.8493 48.1789C34.8493 48.7204 34.9826 49.2277 35.2022 49.6863H27.3123C27.3123 46.6136 25.7725 43.8942 23.4241 42.2592C25.695 41.3935 27.3123 39.1934 27.3123 36.6221C27.3123 36.0671 26.8628 35.6172 26.3074 35.6172H18.2679V26.5727C18.2679 26.0177 17.8179 25.5678 17.2629 25.5678C16.7079 25.5678 16.258 26.0177 16.258 26.5727V35.6172C14.5956 35.6172 13.2432 36.9696 13.2432 38.632V59.7357C13.2432 60.2907 13.6931 60.7406 14.2481 60.7406C14.8031 60.7406 15.253 60.2907 15.253 59.7357V38.632C15.253 38.078 15.7035 37.627 16.258 37.627H25.1748C24.7282 39.3587 23.1521 40.6418 21.2827 40.6418H18.2679C17.7124 40.6418 17.2629 41.0918 17.2629 41.6468C17.2629 42.2018 17.7124 42.6517 18.2679 42.6517C22.1463 42.6517 25.3024 45.8074 25.3024 49.6863V50.6912C25.3024 51.2462 25.7519 51.6962 26.3074 51.6962H32.1874C31.9678 52.1548 31.8345 52.662 31.8345 53.2036C31.8345 55.1429 33.4126 56.7209 35.3518 56.7209V59.7357C35.3518 60.2907 35.8017 60.7406 36.3567 60.7406C36.9118 60.7406 37.3617 60.2907 37.3617 59.7357V56.7209H41.3814H41.8839C43.8232 56.7209 45.4012 55.1427 45.4012 53.2036C45.4012 52.6563 45.2646 52.1442 45.0405 51.6818C46.9129 51.6055 48.416 50.0695 48.416 48.1789C48.416 47.5014 48.2144 46.8737 47.881 46.3363C49.0831 45.7765 49.9234 44.5651 49.9234 43.1542C49.9234 42.1696 49.5141 41.281 48.8599 40.6418C49.5141 40.0027 49.9234 39.1141 49.9234 38.1295ZM41.8839 54.711H41.3814H36.3567H35.3518C34.5206 54.711 33.8444 54.0348 33.8444 53.2036C33.8444 52.3724 34.5206 51.6962 35.3518 51.6962H38.3666H41.8839C42.7151 51.6962 43.3913 52.3724 43.3913 53.2036C43.3913 54.0348 42.7151 54.711 41.8839 54.711ZM44.8987 49.6863H41.8839H38.3666C37.5354 49.6863 36.8592 49.0101 36.8592 48.1789C36.8592 47.3477 37.5354 46.6715 38.3666 46.6715H39.874H44.8987C45.7299 46.6715 46.4061 47.3477 46.4061 48.1789C46.4061 49.0101 45.7299 49.6863 44.8987 49.6863ZM46.4061 44.6616H44.8987H39.874C39.0428 44.6616 38.3666 43.9854 38.3666 43.1542C38.3666 42.323 39.0428 41.6468 39.874 41.6468H46.4061C47.2373 41.6468 47.9135 42.323 47.9135 43.1542C47.9135 43.9854 47.2373 44.6616 46.4061 44.6616ZM46.4061 39.6369H39.874C39.0428 39.6369 38.3666 38.9607 38.3666 38.1295C38.3666 37.2983 39.0428 36.6221 39.874 36.6221H46.4061C47.2373 36.6221 47.9135 37.2983 47.9135 38.1295C47.9135 38.9607 47.2373 39.6369 46.4061 39.6369Z" fill="white"/>
<path d="M15.2497 13.2357C15.2291 12.9472 15.0858 12.6813 14.8551 12.5065L13.809 11.7135C13.5588 10.4467 12.4468 9.48883 11.117 9.48883C9.61651 9.48883 8.39262 10.7087 8.37302 12.2156C7.5702 12.0753 6.80281 11.7672 6.1158 11.3044L5.76546 11.0678C5.45832 10.8603 5.05987 10.8377 4.73113 11.0133C4.40339 11.1876 4.19826 11.5291 4.19826 11.9006V12.725C4.19826 13.9361 4.5633 15.0911 5.2405 16.0613L4.48881 16.8219C4.20328 17.1099 4.11975 17.5413 4.27589 17.9156C4.43178 18.2894 4.79783 18.5333 5.2032 18.5333H10.0729C12.015 18.5333 13.6206 17.0529 13.8365 15.1529L14.9621 14.0141C15.1653 13.8084 15.2703 13.5248 15.2497 13.2357ZM12.1415 14.0082C11.9551 14.1961 11.851 14.4503 11.851 14.7148C11.851 15.7119 11.0531 16.5234 10.0727 16.5234H7.51631C7.67534 16.1573 7.60663 15.7157 7.30929 15.415C6.84024 14.94 6.50459 14.3423 6.33476 13.698C7.29359 14.1024 8.32403 14.3124 9.37808 14.3124C9.93356 14.3124 10.383 13.8624 10.383 13.3075V12.2524C10.383 11.8367 10.7128 11.4987 11.1171 11.4987C11.5215 11.4987 11.8512 11.8367 11.8512 12.2524C11.8512 12.567 11.9985 12.8633 12.2487 13.0532L12.7277 13.4159L12.1415 14.0082Z" fill="white"/>
<path d="M32.3372 17.5284C32.8922 17.5284 33.3421 17.0784 33.3421 16.5234C33.3421 15.9684 32.8922 15.5185 32.3372 15.5185L30.3273 15.5185C29.7718 15.5185 29.3224 15.9685 29.3224 16.5234V19.5382H28.3174C27.7624 19.5382 27.3125 19.9882 27.3125 20.5432C27.3125 21.0982 27.7624 21.5481 28.3174 21.5481H29.3224V24.5629C29.3224 25.1179 29.7723 25.5679 30.3273 25.5679C30.8823 25.5679 31.3323 25.1179 31.3323 24.5629V21.5481H32.3372C32.8922 21.5481 33.3421 21.0982 33.3421 20.5432C33.3421 19.9882 32.8922 19.5382 32.3372 19.5382H31.3323V17.5284H32.3372Z" fill="white"/>
<path d="M36.3563 11.4987H24.297C22.6346 11.4987 21.2822 12.8511 21.2822 14.5135V26.5728C21.2822 28.2352 22.6346 29.5876 24.297 29.5876H36.3563C38.0187 29.5876 39.3711 28.2352 39.3711 26.5728V14.5135C39.3711 12.8511 38.0187 11.4987 36.3563 11.4987ZM37.3612 26.5728C37.3612 27.1268 36.9108 27.5777 36.3563 27.5777H24.297C23.7426 27.5777 23.2921 27.1268 23.2921 26.5728V14.5135C23.2921 13.9596 23.7426 13.5086 24.297 13.5086H36.3563C36.9108 13.5086 37.3612 13.9596 37.3612 14.5135V26.5728Z" fill="white"/>
<path d="M15.2528 5.46906H3.19352C1.53111 5.46906 0.178711 6.82145 0.178711 8.48387V20.5431C0.178711 22.2055 1.53111 23.5579 3.19352 23.5579H15.2528C16.9152 23.5579 18.2676 22.2055 18.2676 20.5431V8.48387C18.2676 6.82145 16.9152 5.46906 15.2528 5.46906ZM16.2577 20.5431C16.2577 21.0971 15.8073 21.5481 15.2528 21.5481H3.19352C2.63905 21.5481 2.18859 21.0971 2.18859 20.5431V8.48387C2.18859 7.9299 2.63905 7.47893 3.19352 7.47893H15.2528C15.8073 7.47893 16.2577 7.9299 16.2577 8.48387V20.5431Z" fill="white"/>
<path d="M57.4608 0.444458H45.4015C43.7391 0.444458 42.3867 1.79685 42.3867 3.45927V15.5185C42.3867 17.1809 43.7391 18.5333 45.4015 18.5333H57.4608C59.1232 18.5333 60.4756 17.1809 60.4756 15.5185V3.45927C60.4756 1.79685 59.1232 0.444458 57.4608 0.444458ZM58.4657 15.5185C58.4657 16.0725 58.0153 16.5235 57.4608 16.5235H45.4015C44.8471 16.5235 44.3966 16.0725 44.3966 15.5185V10.4938H46.5081C46.975 12.7843 49.0049 14.5136 51.4312 14.5136C53.8575 14.5136 55.8873 12.7843 56.3542 10.4938H58.4657V15.5185ZM48.4163 9.4889C48.4163 7.82648 49.7687 6.47409 51.4312 6.47409C53.0936 6.47409 54.446 7.82648 54.446 9.4889C54.446 11.1513 53.0936 12.5037 51.4312 12.5037C49.7687 12.5037 48.4163 11.1513 48.4163 9.4889ZM58.4657 8.48396H56.3542C55.8873 6.19346 53.8575 4.46421 51.4312 4.46421C49.0049 4.46421 46.975 6.19346 46.5081 8.48396H44.3966V3.45927C44.3966 2.9053 44.8471 2.45433 45.4015 2.45433H57.4608C58.0153 2.45433 58.4657 2.9053 58.4657 3.45927V8.48396Z" fill="white"/>
<path d="M29.3213 42.6518C29.3213 43.2068 29.7712 43.6567 30.3262 43.6567C30.8812 43.6567 31.3312 43.2068 31.3312 42.6518C31.3312 42.0968 30.8812 41.6469 30.3262 41.6469C29.7712 41.6469 29.3213 42.0968 29.3213 42.6518Z" fill="white"/>
</svg>