<svg width="95" height="86" viewBox="0 0 95 86" fill="none" xmlns="http://www.w3.org/2000/svg">
<path d="M83.4196 77.7837C90.36 69.5185 94.5333 58.8447 94.4998 47.1929C94.4273 21.492 73.5779 0.362368 47.9194 0.00471212C21.5188 -0.364121 0 20.9667 0 47.3271C0 58.9285 4.16763 69.552 11.0802 77.7837C11.309 78.0575 11.7274 78.0687 11.9785 77.8172L47.2499 42.4875L82.5213 77.8172C82.7724 78.0743 83.1908 78.0575 83.4196 77.7837Z" fill="#FBC000"/>
<path d="M47.25 85.5C68.3749 85.5 85.5 68.3749 85.5 47.25C85.5 26.1251 68.3749 9 47.25 9C26.1251 9 9 26.1251 9 47.25C9 68.3749 26.1251 85.5 47.25 85.5Z" fill="#FFF6DA"/>
<mask id="mask0" mask-type="alpha" maskUnits="userSpaceOnUse" x="8" y="8" width="78" height="78">
<path d="M47.2655 85.319C68.414 85.319 85.5583 68.1747 85.5583 47.0262C85.5583 25.8777 68.414 8.7334 47.2655 8.7334C26.1169 8.7334 8.97266 25.8777 8.97266 47.0262C8.97266 68.1747 26.1169 85.319 47.2655 85.319Z" fill="#FBC000"/>
</mask>
<g mask="url(#mask0)">
<g opacity="0.8">
<path d="M54.3191 87.3344L22.4995 60L52.8745 64.875L64.7993 56.1031V53.7966L67.4995 26.625L91.9401 46.0185L73.1296 80.2805L54.3191 87.3344Z" fill="#FBC000" fill-opacity="0.25" style="mix-blend-mode:multiply"/>
</g>
</g>
<path d="M32.7342 61.0443C29.7186 61.0443 27.0362 59.1135 26.0622 56.239L25.9963 56.0224C25.7666 55.2612 25.6704 54.621 25.6704 53.9805V41.1375L21.1007 56.3914C20.513 58.6351 21.8523 60.9611 24.0993 61.5809L53.2266 69.3814C53.5902 69.4756 53.9537 69.5208 54.3117 69.5208C56.1877 69.5208 57.9019 68.2756 58.3823 66.4407L60.0793 61.0443H32.7342Z" fill="#FBC000"/>
<path d="M69.75 30.4299V56.1666C69.75 58.9416 67.4897 61.202 64.7146 61.202H30.0261C29.8024 61.202 29.5786 61.1794 29.377 61.1569C27.0273 60.8664 25.1923 58.9416 25.0133 56.5694C24.9907 56.435 24.9907 56.3006 24.9907 56.1666V30.4299C24.9907 27.6549 27.2511 25.3945 30.0261 25.3945H64.7146C67.4897 25.3945 69.75 27.6549 69.75 30.4299Z" fill="#ED1164"/>
<path d="M66.1696 32.3183V53.9807C66.1696 56.3165 64.267 58.219 61.9313 58.219H32.7343C32.546 58.219 32.3577 58.2 32.188 58.181C30.2103 57.9365 28.6658 56.3165 28.5151 54.3198C28.4961 54.2067 28.4961 54.0935 28.4961 53.9807V32.3183C28.4961 29.9826 30.3986 28.0801 32.7343 28.0801H61.9313C64.267 28.0801 66.1696 29.9826 66.1696 32.3183Z" fill="white"/>
<path d="M41.681 37.4987C41.681 39.5791 39.9944 41.2661 37.9139 41.2661C35.8331 41.2661 34.1465 39.5791 34.1465 37.4987C34.1465 35.4182 35.8331 33.7312 37.9139 33.7312C39.9944 33.7312 41.681 35.4182 41.681 37.4987Z" fill="#FFC107"/>
<path d="M66.169 48.6875V53.9808C66.169 56.3165 64.2665 58.2191 61.9308 58.2191H32.7338C32.5455 58.2191 32.3572 58.2001 32.1875 58.1811L51.5894 38.7796C52.8704 37.4986 54.9798 37.4986 56.2608 38.7796L66.169 48.6875Z" fill="#FBC000"/>
<path d="M54.9804 58.219H32.7344C32.5461 58.219 32.3578 58.2 32.1881 58.181C30.2104 57.9365 28.6659 56.3164 28.5151 54.3198L37.4624 45.3721C38.7434 44.0915 40.8529 44.0915 42.1339 45.3721L54.9804 58.219Z" fill="#FFE89E"/>
</svg>
