<svg width="66" height="34" viewBox="0 0 66 34" fill="none" xmlns="http://www.w3.org/2000/svg">
<path d="M6.83785 20.1859C4.81817 20.1859 2.85995 19.5254 1.5852 18.8616L0.623047 22.8365C1.80349 23.4992 4.16649 24.1296 6.55916 24.1296C12.3088 24.1296 15.0119 21.1014 15.0119 17.5363C15.0119 14.5393 13.2709 12.5836 9.57385 11.1948C6.86964 10.1524 5.6892 9.55427 5.6892 8.19775C5.6892 7.09295 6.68314 6.1463 8.73461 6.1463C10.7861 6.1463 12.2781 6.74656 13.1162 7.15642L14.1738 3.2762C12.9297 2.7082 11.1898 2.20367 8.82786 2.20367C3.88675 2.20367 0.902792 4.97911 0.902792 8.60761C0.902792 11.6993 3.17149 13.655 6.65241 14.8857C9.16906 15.8011 10.1641 16.5585 10.1641 17.8816C10.1641 19.2715 9.0133 20.1859 6.83785 20.1859Z" fill="white"/>
<path d="M30.7707 19.5051H21.5025V14.4633H29.7997V10.5551H21.5025V6.14299H30.3029V2.20367H16.3818V23.4444H30.7707V19.5051Z" fill="white"/>
<path d="M43.8923 25.2303C46.9204 25.2303 49.6953 24.1612 51.8558 22.3911L56.1518 26.3229C56.1453 26.7617 56.3079 27.1962 56.6592 27.5183L62.963 33.2909C63.2784 33.5799 63.6778 33.7222 64.0782 33.7222C64.5158 33.7222 64.9534 33.551 65.2753 33.2106C65.8918 32.5643 65.8558 31.5454 65.1967 30.9419L58.8929 25.1704C58.5415 24.8482 58.0854 24.7209 57.6424 24.7562L53.4031 20.8768C55.2265 18.7546 56.3319 16.0171 56.3319 13.0302C56.3319 6.30409 50.7537 0.833313 43.8956 0.833313C37.0375 0.833313 31.4561 6.30623 31.4561 13.0313C31.455 19.7595 37.0342 25.2303 43.8923 25.2303ZM43.8923 4.04493C48.9456 4.04493 53.0561 8.07631 53.0561 13.0313C53.0561 17.9862 48.9434 22.0187 43.8923 22.0187C38.8412 22.0187 34.7285 17.9862 34.7285 13.0313C34.7285 8.07631 38.839 4.04493 43.8923 4.04493Z" fill="white"/>
</svg>