<svg width="63" height="63" viewBox="0 0 63 63" fill="none" xmlns="http://www.w3.org/2000/svg">
<path d="M43.697 12.1357H51.03C51.6062 12.1357 52.0776 11.6643 52.0776 11.0881C52.0776 10.512 51.6062 10.0406 51.03 10.0406H43.697C43.1208 10.0406 42.6494 10.512 42.6494 11.0881C42.6494 11.6643 43.1208 12.1357 43.697 12.1357Z" fill="white"/>
<path d="M43.697 7.94542H51.03C51.6062 7.94542 52.0776 7.47402 52.0776 6.89785C52.0776 6.32169 51.6062 5.85028 51.03 5.85028H43.697C43.1208 5.85028 42.6494 6.32169 42.6494 6.89785C42.6494 7.47402 43.1208 7.94542 43.697 7.94542Z" fill="white"/>
<path d="M58.8863 11.7271V4.347C58.8863 2.00044 56.9745 0.088623 54.6279 0.088623H39.5743C37.2278 0.088623 35.316 2.00044 35.316 4.347V11.6119H4.8421C2.58458 11.6119 0.746094 13.4504 0.746094 15.7079V45.2285C0.746094 47.486 2.58458 49.3245 4.8421 49.3245H24.0022C23.8346 51.1525 23.2427 52.9177 22.2527 54.4733L20.8595 56.6575H20.3881C18.6543 56.6575 17.2453 58.0665 17.2453 59.8002C17.2453 61.5339 18.6543 62.9429 20.3881 62.9429H42.3871C44.1208 62.9429 45.5298 61.5339 45.5298 59.8002C45.5298 58.0665 44.1208 56.6575 42.3871 56.6575H41.9157L40.5276 54.4733C39.5377 52.9124 38.9406 51.1525 38.7782 49.3245H57.9383C60.1958 49.3245 62.0343 47.486 62.0343 45.2285V15.7079C62.029 13.7804 60.6882 12.1619 58.8863 11.7271ZM37.4111 4.347C37.4111 3.15277 38.3801 2.18377 39.5743 2.18377H54.6279C55.8222 2.18377 56.7912 3.15277 56.7912 4.347V13.1152C56.7912 14.3094 55.8222 15.2784 54.6279 15.2784H47.8868C47.6092 15.2784 47.3421 15.3884 47.1483 15.5874L42.649 20.0815V16.326C42.649 15.7498 42.1776 15.2784 41.6014 15.2784H39.5743C38.3801 15.2784 37.4111 14.3094 37.4111 13.1152V4.347ZM43.4346 59.8002C43.4346 60.3764 42.9632 60.8478 42.3871 60.8478H20.3881C19.8119 60.8478 19.3405 60.3764 19.3405 59.8002C19.3405 59.224 19.8119 58.7526 20.3881 58.7526H21.4356H41.3395H42.3871C42.9632 58.7526 43.4346 59.224 43.4346 59.8002ZM38.7572 55.5995L39.4329 56.6575H23.3422L24.0179 55.5995C25.2226 53.7034 25.9402 51.5506 26.1078 49.3245H36.6621C36.8349 51.5506 37.5525 53.7034 38.7572 55.5995ZM57.933 47.2294H37.673H25.1021H4.8421C3.73691 47.2294 2.84124 46.3337 2.84124 45.2285V43.5629H51.0295C51.6057 43.5629 52.0771 43.0914 52.0771 42.5153C52.0771 41.9391 51.6057 41.4677 51.0295 41.4677H2.84124V18.9449H12.7932C13.3693 18.9449 13.8407 18.4735 13.8407 17.8973C13.8407 17.3212 13.3693 16.8498 12.7932 16.8498H2.84124V15.7079C2.84124 14.6027 3.73691 13.7071 4.8421 13.7071H35.3631C35.6512 15.776 37.4268 17.3736 39.5743 17.3736H40.5538V22.6114C40.5538 23.0357 40.8105 23.418 41.1981 23.5804C41.329 23.6328 41.4652 23.659 41.6014 23.659C41.8738 23.659 42.1409 23.5542 42.3399 23.35L48.3216 17.3736H54.6279C56.7021 17.3736 58.4306 15.8808 58.8078 13.9166C59.473 14.2413 59.9339 14.917 59.9339 15.7079V41.4677H55.2198C54.6437 41.4677 54.1723 41.9391 54.1723 42.5153C54.1723 43.0914 54.6437 43.5629 55.2198 43.5629H59.9339V45.2285C59.9339 46.3337 59.0382 47.2294 57.933 47.2294Z" fill="#FBC000"/>
<path d="M36.144 19.9977L33.5041 19.9925C30.8537 19.9925 29.1409 21.7105 29.1409 24.3661V26.1732H26.632C26.5953 26.1732 26.5587 26.1889 26.5273 26.2151C26.4958 26.2413 26.4854 26.2779 26.4854 26.3198V29.8344C26.4854 29.8711 26.5063 29.913 26.5325 29.9392C26.5587 29.9654 26.6006 29.9863 26.6372 29.9863H29.1357V37.3089C29.1357 37.3455 29.1567 37.3874 29.1828 37.4136C29.209 37.4398 29.2509 37.4608 29.2876 37.4608H32.9803C33.017 37.4608 33.0589 37.4398 33.0851 37.4136C33.1112 37.3874 33.1322 37.3455 33.1322 37.3089V29.9863H35.0073C35.0807 29.9863 35.1383 29.9339 35.1488 29.8659L35.7302 26.3408C35.7354 26.2989 35.7249 26.257 35.6987 26.2255C35.6726 26.1941 35.6307 26.1732 35.5887 26.1732H33.1374V24.6647C33.1374 24.2509 33.195 24.0152 33.3312 23.8633C33.4884 23.6904 33.7765 23.6119 34.2479 23.6119H36.1335C36.1702 23.6119 36.2121 23.5909 36.2382 23.5647C36.2644 23.5385 36.2854 23.4966 36.2854 23.46V20.1444C36.2906 20.0606 36.2225 19.9977 36.144 19.9977Z" fill="white"/>
</svg>
