<svg width="95" height="86" viewBox="0 0 95 86" fill="none" xmlns="http://www.w3.org/2000/svg">
<path d="M83.4196 77.7837C90.36 69.5185 94.5333 58.8447 94.4998 47.1929C94.4273 21.492 73.5779 0.362368 47.9194 0.00471211C21.5188 -0.364121 0 20.9667 0 47.3271C0 58.9285 4.16763 69.552 11.0802 77.7837C11.309 78.0575 11.7274 78.0687 11.9785 77.8172L47.2499 42.4875L82.5213 77.8172C82.7724 78.0743 83.1908 78.0575 83.4196 77.7837Z" fill="#ED1164"/>
<path d="M47.25 85.5C68.3749 85.5 85.5 68.3749 85.5 47.25C85.5 26.1251 68.3749 9 47.25 9C26.1251 9 9 26.1251 9 47.25C9 68.3749 26.1251 85.5 47.25 85.5Z" fill="#FFD9E7"/>
<mask id="mask0_1277_20840" style="mask-type:alpha" maskUnits="userSpaceOnUse" x="9" y="9" width="77" height="77">
<path d="M47.2928 85.5856C68.4413 85.5856 85.5856 68.4413 85.5856 47.2928C85.5856 26.1443 68.4413 9 47.2928 9C26.1443 9 9 26.1443 9 47.2928C9 68.4413 26.1443 85.5856 47.2928 85.5856Z" fill="#FBC000"/>
</mask>
<g mask="url(#mask0_1277_20840)">
<g opacity="0.8">
<path d="M60.5 96L22.5 64.5L38 40.5L52 57L67 40.5L70 29.5L100.5 57L73.1569 80.5471L60.5 96Z" fill="#FFCDE0" fill-opacity="0.5" style="mix-blend-mode:multiply"/>
</g>
</g>
<path d="M22.4874 36.4922L22 37.3701V62.7507C22 64.4256 23.3577 65.7833 25.0326 65.7833H68.5106C70.1855 65.7833 71.5432 64.4256 71.5432 62.7507V37.3701L71.0558 36.4922H22.4874Z" fill="white"/>
<path d="M68.5106 29H25.0326C23.3577 29 22 30.3577 22 32.0326V37.3691H71.5432V32.0326C71.5432 30.3577 70.1855 29 68.5106 29V29Z" fill="#ED1164"/>
<path d="M68.5102 29H66.5771V37.3691H71.5428V32.0326C71.5428 30.3577 70.1851 29 68.5102 29V29Z" fill="#FBC000" fill-opacity="0.4" style="mix-blend-mode:multiply"/>
<path d="M27.3 34.5452C28.0513 34.5452 28.6605 33.9361 28.6605 33.1847C28.6605 32.4333 28.0513 31.8242 27.3 31.8242C26.5486 31.8242 25.9395 32.4333 25.9395 33.1847C25.9395 33.9361 26.5486 34.5452 27.3 34.5452Z" fill="#FBC000"/>
<path d="M31.4845 34.5452C32.2359 34.5452 32.845 33.9361 32.845 33.1847C32.845 32.4333 32.2359 31.8242 31.4845 31.8242C30.7331 31.8242 30.124 32.4333 30.124 33.1847C30.124 33.9361 30.7331 34.5452 31.4845 34.5452Z" fill="white"/>
<path d="M35.6691 34.5452C36.4205 34.5452 37.0296 33.9361 37.0296 33.1847C37.0296 32.4333 36.4205 31.8242 35.6691 31.8242C34.9177 31.8242 34.3086 32.4333 34.3086 33.1847C34.3086 33.9361 34.9177 34.5452 35.6691 34.5452Z" fill="#FBC000"/>
<path d="M46.7713 70.5378C54.6834 70.5378 61.0974 64.1238 61.0974 56.2118C61.0974 48.2997 54.6834 41.8857 46.7713 41.8857C38.8593 41.8857 32.4453 48.2997 32.4453 56.2118C32.4453 64.1238 38.8593 70.5378 46.7713 70.5378Z" fill="#FFE3EE"/>
<path d="M54.5574 59.9225C53.1701 62.8275 50.205 64.8343 46.7712 64.8343C42.0084 64.8343 38.1475 60.9734 38.1475 56.2106C38.1475 51.4479 42.0084 47.5869 46.7712 47.5869C51.5339 47.5869 55.0943 58.7983 54.5574 59.9225V59.9225Z" fill="#FBC000"/>
<path d="M46.7717 71.9994C38.066 71.9994 30.9834 64.9168 30.9834 56.2112C30.9834 47.5055 38.0659 40.4229 46.7717 40.4229C55.4773 40.4229 62.5599 47.5054 62.5599 56.2112C62.5599 64.9168 55.4774 71.9994 46.7717 71.9994V71.9994ZM46.7717 43.3474C39.6785 43.3474 33.9079 49.1181 33.9079 56.2112C33.9079 63.3043 39.6786 69.075 46.7717 69.075C53.8648 69.075 59.6354 63.3043 59.6354 56.2112C59.6355 49.1181 53.8648 43.3474 46.7717 43.3474V43.3474Z" fill="#ED1164"/>
<path d="M46.9795 47.7939V56.4177L54.7657 60.1295C55.3027 59.0053 55.6032 57.7466 55.6032 56.4177C55.6032 51.6549 51.7422 47.7939 46.9795 47.7939Z" fill="#ED1164"/>
<path d="M47.2732 57.3718C46.7822 57.8628 45.9862 57.8628 45.4952 57.3718C45.0042 56.8809 45.0042 56.0848 45.4952 55.5938C45.8242 55.2648 50.1368 51.7506 52.9465 49.4676C53.2471 49.2234 53.6436 49.62 53.3994 49.9204C51.1164 52.7303 47.6022 57.0428 47.2732 57.3718Z" fill="white"/>
<path d="M32.3571 43.1986H26.8112C26.4074 43.1986 26.0801 42.8714 26.0801 42.4675C26.0801 42.0637 26.4073 41.7363 26.8112 41.7363H32.3571C32.7609 41.7363 33.0882 42.0636 33.0882 42.4675C33.0881 42.8714 32.7609 43.1986 32.3571 43.1986Z" fill="#ED1164"/>
<path d="M30.0047 46.2689H26.8112C26.4074 46.2689 26.0801 45.9417 26.0801 45.5378C26.0801 45.1339 26.4073 44.8066 26.8112 44.8066H30.0047C30.4085 44.8066 30.7359 45.1339 30.7359 45.5378C30.7359 45.9417 30.4085 46.2689 30.0047 46.2689Z" fill="#ED1164"/>
<path d="M66.1055 45.1878C64.8896 45.1878 63.9004 44.1984 63.9004 42.9825C63.9004 41.7666 64.8896 40.7773 66.1055 40.7773C67.3215 40.7773 68.3108 41.7666 68.3108 42.9825C68.3108 44.1984 67.3215 45.1878 66.1055 45.1878ZM66.1055 42.2396C65.6959 42.2396 65.3626 42.5729 65.3626 42.9826C65.3626 43.3923 65.6958 43.7257 66.1055 43.7257C66.5152 43.7257 66.8486 43.3924 66.8486 42.9826C66.8485 42.5729 66.5152 42.2396 66.1055 42.2396Z" fill="#ED1164"/>
<path d="M66.1055 50.9465C64.8896 50.9465 63.9004 49.9572 63.9004 48.7413C63.9004 47.5254 64.8896 46.5361 66.1055 46.5361C67.3215 46.5361 68.3108 47.5254 68.3108 48.7413C68.3108 49.9572 67.3215 50.9465 66.1055 50.9465ZM66.1055 47.9984C65.6959 47.9984 65.3626 48.3317 65.3626 48.7414C65.3626 49.1511 65.6958 49.4844 66.1055 49.4844C66.5152 49.4844 66.8486 49.1512 66.8486 48.7414C66.8485 48.3317 66.5152 47.9984 66.1055 47.9984Z" fill="#ED1164"/>
</svg>
