<svg width="222" height="53" viewBox="0 0 222 53" fill="none" xmlns="http://www.w3.org/2000/svg">
<path d="M221.157 52.2778H0V41.369C0 29.7385 8.11652 19.6698 19.4867 17.2088L79.414 4.24131C99.9538 -0.20739 121.203 -0.20739 141.743 4.24131L201.671 17.2088C213.041 19.6698 221.157 29.7267 221.157 41.369V52.2778Z" fill="#FBC000"/>
<path d="M72.4917 36.3857V30.9058H75.9014C77.3871 30.9058 78.7023 30.37 79.8713 29.274C81.0404 28.178 81.6249 26.8141 81.6249 25.1579C81.6249 23.4287 81.016 22.0405 79.8226 20.9932C78.6292 19.9459 77.3384 19.4101 75.9014 19.4101H68.741V36.3857H72.4917ZM72.4917 22.8198H75.6822C76.1937 22.8198 76.7052 23.0147 77.1679 23.38C77.6307 23.7453 77.8742 24.3299 77.8742 25.1579C77.8742 25.986 77.6307 26.5949 77.1679 26.9602C76.7052 27.3256 76.1937 27.4961 75.6822 27.4961H72.4917V22.8198ZM89.0948 23.7453C87.1951 23.7453 85.5876 24.3786 84.2481 25.6451C82.9329 26.8872 82.2753 28.4216 82.2753 30.2482C82.2753 32.0749 82.9329 33.6092 84.2481 34.8757C85.5876 36.1178 87.1951 36.7511 89.0948 36.7511C90.9701 36.7511 92.5776 36.1178 93.9171 34.8757C95.2567 33.6092 95.9143 32.0749 95.9143 30.2482C95.9143 28.4216 95.2567 26.8872 93.9171 25.6451C92.5776 24.3786 90.9701 23.7453 89.0948 23.7453ZM85.9042 30.2482C85.9042 29.3471 86.2208 28.592 86.8297 27.9832C87.4386 27.3499 88.1936 27.0333 89.0948 27.0333C89.9959 27.0333 90.7509 27.3499 91.3598 27.9832C91.9687 28.592 92.2853 29.3471 92.2853 30.2482C92.2853 31.1494 91.9687 31.9044 91.3598 32.5376C90.7509 33.1465 89.9959 33.4631 89.0948 33.4631C88.1936 33.4631 87.4386 33.1465 86.8297 32.5376C86.2208 31.9287 85.9042 31.1494 85.9042 30.2482ZM96.5363 34.5347C97.7297 35.9961 99.5076 36.7267 101.894 36.7267C105.499 36.7267 107.301 35.0949 107.301 32.5863C107.301 30.9545 106.303 29.7855 104.281 29.1035C102.917 28.6164 101.894 28.4459 101.432 28.2511C101.042 28.0806 100.92 27.9101 100.92 27.5935C100.92 27.1307 101.359 26.8141 102.138 26.8141C103.185 26.8141 104.062 27.1064 104.72 27.7153L106.449 25.3284C105.353 24.2812 103.965 23.7453 102.235 23.7453C100.896 23.7453 99.7755 24.0863 98.85 24.7926C97.9245 25.4746 97.4618 26.4488 97.4618 27.6909C97.4618 29.3227 98.4116 30.443 100.287 31.1006C100.652 31.2224 101.212 31.3929 101.943 31.5634C102.674 31.7339 103.161 31.9044 103.429 32.0505C103.697 32.1966 103.843 32.3915 103.843 32.635C103.843 33.2926 103.234 33.6336 101.992 33.6336C100.604 33.6336 99.3128 33.0978 98.6308 32.2941L96.5363 34.5347ZM109.49 32.3184C109.49 35.241 110.903 36.7024 113.728 36.7024C114.434 36.7024 115.019 36.6537 115.506 36.5319V33.317C115.092 33.39 114.775 33.4144 114.58 33.4144C113.484 33.4144 113.022 32.9516 113.022 31.7826V27.3986H115.749V24.1107H113.022V19.4101H109.49V24.1107H107.883V27.3986H109.49V32.3184ZM117.201 31.5634C117.201 34.7539 118.93 36.6537 122.023 36.6537C123.801 36.6537 125.019 36.0448 125.628 34.8514C125.798 35.3628 126.163 35.8012 126.724 36.1665C127.235 36.4588 127.917 36.6049 128.721 36.6049C129.427 36.6049 129.963 36.5319 130.352 36.4101V33.39C130.133 33.4144 129.914 33.4388 129.744 33.4388C129.086 33.4388 128.842 33.0491 128.842 32.0749V24.1107H125.213V31.0032C125.213 32.4402 124.288 33.4388 122.948 33.4388C121.585 33.4388 120.83 32.562 120.83 31.125V24.1107H117.201V31.5634ZM131.829 32.3915C131.829 35.2654 133.217 36.7024 136.018 36.7024C136.749 36.7024 137.333 36.6537 137.748 36.5319V33.317C137.504 33.39 137.212 33.4144 136.871 33.4144C135.872 33.4144 135.458 32.9273 135.458 31.8313V19.4101H131.829V32.3915ZM138.573 30.2482C138.573 32.0505 139.158 33.5605 140.302 34.8026C141.471 36.0204 142.933 36.6293 144.662 36.6293C146.586 36.6293 147.926 36.0448 148.729 34.8514C148.9 35.3628 149.265 35.8012 149.825 36.1665C150.337 36.4588 151.019 36.6049 151.822 36.6049C152.529 36.6049 153.065 36.5319 153.454 36.4101V33.39C153.235 33.4144 153.016 33.4388 152.845 33.4388C152.188 33.4388 151.944 33.0491 151.944 32.0749V24.1107H148.315V25.7181C147.95 24.6465 146.513 23.8915 144.662 23.8915C142.933 23.8915 141.471 24.5004 140.302 25.7425C139.158 26.9602 138.573 28.4703 138.573 30.2482ZM145.32 33.317C144.443 33.317 143.712 33.0247 143.103 32.4402C142.494 31.8313 142.202 31.1006 142.202 30.2482C142.202 29.3958 142.494 28.6651 143.103 28.0806C143.712 27.4717 144.443 27.1794 145.32 27.1794C146.221 27.1794 146.976 27.4717 147.585 28.0806C148.218 28.6651 148.534 29.3958 148.534 30.2482C148.534 31.1006 148.218 31.8313 147.585 32.4402C146.976 33.0247 146.221 33.317 145.32 33.317Z" fill="white"/>
</svg>

