<svg width="19" height="18" viewBox="0 0 19 18" fill="none" xmlns="http://www.w3.org/2000/svg">
<path opacity="0.7" d="M6.21727 16.8835L14.1026 8.66117C15.0558 7.66726 15.0558 6.06669 14.1026 5.07279C13.1494 4.07889 11.6144 4.07889 10.6613 5.07279L6.61339 9.31947C6.41533 9.52599 6.41533 9.86159 6.61339 10.0681L6.89811 10.365C7.09617 10.5715 7.41802 10.5715 7.61608 10.365L11.7259 6.0796C12.1344 5.71818 12.7533 5.73109 13.1247 6.14414C13.5208 6.5701 13.5084 7.24131 13.0999 7.65436L5.22696 15.8637C4.34807 16.7802 2.9245 16.7802 2.05798 15.8637C1.17908 14.9473 1.17908 13.4629 2.05798 12.5593L11.6887 2.51704C13.038 1.11009 15.2414 1.11009 16.5907 2.52995C17.94 3.94981 17.9153 6.2345 16.5536 7.64145L9.25008 15.2571C9.05202 15.4636 9.05202 15.7992 9.25008 16.0057L9.5348 16.3026C9.73286 16.5091 10.0547 16.5091 10.2528 16.3026L17.6058 8.63535C19.475 6.66045 19.4626 3.45931 17.581 1.48442C15.6995 -0.490482 12.6295 -0.490482 10.7232 1.4586L1.06767 11.5267C-0.355892 13.0111 -0.355892 15.4249 1.06767 16.9093C2.47886 18.3679 4.7937 18.3679 6.21727 16.8835Z" fill="white"/>
</svg>