<svg width="248" height="299" viewBox="0 0 248 286" fill="none" xmlns="http://www.w3.org/2000/svg">
  <path d="M24.5672 236V232.92H18.5832V220.666H15.1952V236H24.5672ZM25.8406 232.392C25.8406 234.988 27.0946 236.286 29.6246 236.286C30.2846 236.286 30.8126 236.242 31.1866 236.132V233.228C30.9666 233.294 30.7026 233.316 30.3946 233.316C29.4926 233.316 29.1186 232.876 29.1186 231.886V220.666H25.8406V232.392ZM31.9324 230.522C31.9324 232.26 32.4824 233.646 33.6044 234.702C34.7264 235.736 36.1784 236.264 38.0044 236.264C39.8744 236.264 41.4804 235.582 42.7784 234.24L40.8644 232.414C40.0944 233.14 39.1924 233.492 38.1584 233.492C36.4204 233.492 35.2764 232.634 35.2104 231.314H43.5924C43.6144 230.984 43.6364 230.632 43.6364 230.258C43.6364 228.652 43.1084 227.332 42.0524 226.254C40.9964 225.176 39.6324 224.626 37.9384 224.626C36.2004 224.626 34.7484 225.154 33.6264 226.232C32.5044 227.288 31.9324 228.696 31.9324 230.434V230.522ZM35.2544 229.18C35.3424 228.146 36.5084 227.332 37.9384 227.332C39.2584 227.332 40.3364 228.146 40.3364 229.18H35.2544ZM51.22 236L55.972 224.912H52.65L49.768 231.952L46.864 224.912H43.542L48.294 236H51.22ZM55.8875 230.456C55.8875 232.084 56.4155 233.448 57.4495 234.57C58.5055 235.67 59.8255 236.22 61.3875 236.22C63.1255 236.22 64.3355 235.692 65.0615 234.614C65.2155 235.076 65.5455 235.472 66.0515 235.802C66.5135 236.066 67.1295 236.198 67.8555 236.198C68.4935 236.198 68.9775 236.132 69.3295 236.022V233.294C69.1315 233.316 68.9335 233.338 68.7795 233.338C68.1855 233.338 67.9655 232.986 67.9655 232.106V224.912H64.6875V226.364C64.3575 225.396 63.0595 224.714 61.3875 224.714C59.8255 224.714 58.5055 225.264 57.4495 226.386C56.4155 227.486 55.8875 228.85 55.8875 230.456ZM61.9815 233.228C61.1895 233.228 60.5295 232.964 59.9795 232.436C59.4295 231.886 59.1655 231.226 59.1655 230.456C59.1655 229.686 59.4295 229.026 59.9795 228.498C60.5295 227.948 61.1895 227.684 61.9815 227.684C62.7955 227.684 63.4775 227.948 64.0275 228.498C64.5995 229.026 64.8855 229.686 64.8855 230.456C64.8855 231.226 64.5995 231.886 64.0275 232.436C63.4775 232.964 62.7955 233.228 61.9815 233.228ZM74.0655 236V229.774C74.0655 228.476 74.8355 227.574 75.8915 227.574C76.9475 227.574 77.5415 228.366 77.5415 229.664V236H80.8195V229.774C80.8195 228.476 81.5675 227.574 82.6235 227.574C83.6575 227.574 84.2295 228.366 84.2295 229.664V232.964C84.2295 235.076 85.1975 236.132 87.1555 236.132C87.7935 236.132 88.2555 236.088 88.5635 235.978V233.206L88.4315 233.228H88.2335C87.6835 233.228 87.5075 232.92 87.5075 232.062V229.268C87.5075 226.386 86.0995 224.67 83.6135 224.67C81.7875 224.67 80.5775 225.264 79.9615 226.43C79.4555 225.264 78.4435 224.67 76.9475 224.67C75.6055 224.67 74.4835 225.33 74.0655 226.298V224.912H70.7875V236H74.0655ZM95.6276 224.582C93.9116 224.582 92.4596 225.154 91.2496 226.298C90.0616 227.42 89.4676 228.806 89.4676 230.456C89.4676 232.106 90.0616 233.492 91.2496 234.636C92.4596 235.758 93.9116 236.33 95.6276 236.33C97.3216 236.33 98.7736 235.758 99.9836 234.636C101.194 233.492 101.788 232.106 101.788 230.456C101.788 228.806 101.194 227.42 99.9836 226.298C98.7736 225.154 97.3216 224.582 95.6276 224.582ZM92.7456 230.456C92.7456 229.642 93.0316 228.96 93.5816 228.41C94.1316 227.838 94.8136 227.552 95.6276 227.552C96.4416 227.552 97.1236 227.838 97.6736 228.41C98.2236 228.96 98.5096 229.642 98.5096 230.456C98.5096 231.27 98.2236 231.952 97.6736 232.524C97.1236 233.074 96.4416 233.36 95.6276 233.36C94.8136 233.36 94.1316 233.074 93.5816 232.524C93.0316 231.974 92.7456 231.27 92.7456 230.456ZM102.349 234.328C103.427 235.648 105.033 236.308 107.189 236.308C110.445 236.308 112.073 234.834 112.073 232.568C112.073 231.094 111.171 230.038 109.345 229.422C108.113 228.982 107.189 228.828 106.771 228.652C106.419 228.498 106.309 228.344 106.309 228.058C106.309 227.64 106.705 227.354 107.409 227.354C108.355 227.354 109.147 227.618 109.741 228.168L111.303 226.012C110.313 225.066 109.059 224.582 107.497 224.582C106.287 224.582 105.275 224.89 104.439 225.528C103.603 226.144 103.185 227.024 103.185 228.146C103.185 229.62 104.043 230.632 105.737 231.226C106.067 231.336 106.573 231.49 107.233 231.644C107.893 231.798 108.333 231.952 108.575 232.084C108.817 232.216 108.949 232.392 108.949 232.612C108.949 233.206 108.399 233.514 107.277 233.514C106.023 233.514 104.857 233.03 104.241 232.304L102.349 234.328ZM121.673 230.522C121.673 232.26 122.223 233.646 123.345 234.702C124.467 235.736 125.919 236.264 127.745 236.264C129.615 236.264 131.221 235.582 132.519 234.24L130.605 232.414C129.835 233.14 128.933 233.492 127.899 233.492C126.161 233.492 125.017 232.634 124.951 231.314H133.333C133.355 230.984 133.377 230.632 133.377 230.258C133.377 228.652 132.849 227.332 131.793 226.254C130.737 225.176 129.373 224.626 127.679 224.626C125.941 224.626 124.489 225.154 123.367 226.232C122.245 227.288 121.673 228.696 121.673 230.434V230.522ZM124.995 229.18C125.083 228.146 126.249 227.332 127.679 227.332C128.999 227.332 130.077 228.146 130.077 229.18H124.995ZM134.082 234.328C135.16 235.648 136.766 236.308 138.922 236.308C142.178 236.308 143.806 234.834 143.806 232.568C143.806 231.094 142.904 230.038 141.078 229.422C139.846 228.982 138.922 228.828 138.504 228.652C138.152 228.498 138.042 228.344 138.042 228.058C138.042 227.64 138.438 227.354 139.142 227.354C140.088 227.354 140.88 227.618 141.474 228.168L143.036 226.012C142.046 225.066 140.792 224.582 139.23 224.582C138.02 224.582 137.008 224.89 136.172 225.528C135.336 226.144 134.918 227.024 134.918 228.146C134.918 229.62 135.776 230.632 137.47 231.226C137.8 231.336 138.306 231.49 138.966 231.644C139.626 231.798 140.066 231.952 140.308 232.084C140.55 232.216 140.682 232.392 140.682 232.612C140.682 233.206 140.132 233.514 139.01 233.514C137.756 233.514 136.59 233.03 135.974 232.304L134.082 234.328ZM145.783 232.326C145.783 234.966 147.059 236.286 149.611 236.286C150.249 236.286 150.777 236.242 151.217 236.132V233.228C150.843 233.294 150.557 233.316 150.381 233.316C149.391 233.316 148.973 232.898 148.973 231.842V227.882H151.437V224.912H148.973V220.666H145.783V224.912H144.331V227.882H145.783V232.326ZM156.136 236V230.588C156.136 228.762 157.236 227.706 159.106 227.706C159.502 227.706 159.876 227.75 160.206 227.816V224.736C159.854 224.692 159.568 224.67 159.348 224.67C157.83 224.67 156.642 225.308 156.136 226.43V224.912H152.858V236H156.136ZM160.817 230.456C160.817 232.084 161.345 233.448 162.379 234.57C163.435 235.67 164.755 236.22 166.317 236.22C168.055 236.22 169.265 235.692 169.991 234.614C170.145 235.076 170.475 235.472 170.981 235.802C171.443 236.066 172.059 236.198 172.785 236.198C173.423 236.198 173.907 236.132 174.259 236.022V233.294C174.061 233.316 173.863 233.338 173.709 233.338C173.115 233.338 172.895 232.986 172.895 232.106V224.912H169.617V226.364C169.287 225.396 167.989 224.714 166.317 224.714C164.755 224.714 163.435 225.264 162.379 226.386C161.345 227.486 160.817 228.85 160.817 230.456ZM166.911 233.228C166.119 233.228 165.459 232.964 164.909 232.436C164.359 231.886 164.095 231.226 164.095 230.456C164.095 229.686 164.359 229.026 164.909 228.498C165.459 227.948 166.119 227.684 166.911 227.684C167.725 227.684 168.407 227.948 168.957 228.498C169.529 229.026 169.815 229.686 169.815 230.456C169.815 231.226 169.529 231.886 168.957 232.436C168.407 232.964 167.725 233.228 166.911 233.228ZM176.033 232.326C176.033 234.966 177.309 236.286 179.861 236.286C180.499 236.286 181.027 236.242 181.467 236.132V233.228C181.093 233.294 180.807 233.316 180.631 233.316C179.641 233.316 179.223 232.898 179.223 231.842V227.882H181.687V224.912H179.223V220.666H176.033V224.912H174.581V227.882H176.033V232.326ZM182.624 230.522C182.624 232.26 183.174 233.646 184.296 234.702C185.418 235.736 186.87 236.264 188.696 236.264C190.566 236.264 192.172 235.582 193.47 234.24L191.556 232.414C190.786 233.14 189.884 233.492 188.85 233.492C187.112 233.492 185.968 232.634 185.902 231.314H194.284C194.306 230.984 194.328 230.632 194.328 230.258C194.328 228.652 193.8 227.332 192.744 226.254C191.688 225.176 190.324 224.626 188.63 224.626C186.892 224.626 185.44 225.154 184.318 226.232C183.196 227.288 182.624 228.696 182.624 230.434V230.522ZM185.946 229.18C186.034 228.146 187.2 227.332 188.63 227.332C189.95 227.332 191.028 228.146 191.028 229.18H185.946ZM196.153 239.278C197.627 240.312 199.431 240.84 201.587 240.84C203.193 240.84 204.535 240.422 205.613 239.564C207.131 238.398 207.549 236.726 207.549 234.152V224.912H204.271V226.364C203.941 225.396 202.643 224.714 200.971 224.714C199.409 224.714 198.089 225.264 197.033 226.386C195.999 227.486 195.471 228.85 195.471 230.456C195.471 232.04 195.999 233.382 197.033 234.46C198.089 235.538 199.409 236.066 200.971 236.066C202.577 236.066 203.897 235.516 204.359 234.724V234.966C204.359 236.132 204.029 236.946 203.391 237.386C202.841 237.76 202.071 237.958 201.125 237.958C199.959 237.958 198.837 237.606 197.715 236.902L196.153 239.278ZM198.749 230.456C198.749 229.686 199.013 229.026 199.563 228.498C200.113 227.948 200.773 227.684 201.565 227.684C202.379 227.684 203.061 227.948 203.611 228.498C204.183 229.026 204.469 229.686 204.469 230.456C204.469 231.226 204.183 231.864 203.611 232.392C203.061 232.92 202.379 233.184 201.565 233.184C200.773 233.184 200.113 232.92 199.563 232.392C199.013 231.864 198.749 231.226 198.749 230.456ZM209.684 233.074C209.684 235.164 210.652 236.198 212.588 236.198C213.314 236.198 213.82 236.132 214.106 236.022V233.228C214.04 233.25 213.908 233.272 213.71 233.272C213.16 233.272 212.962 232.92 212.962 232.106V224.912H209.684V233.074ZM209.442 222.118C209.442 223.152 210.278 223.966 211.312 223.966C212.346 223.966 213.182 223.152 213.182 222.118C213.182 221.062 212.346 220.248 211.312 220.248C210.278 220.248 209.442 221.062 209.442 222.118ZM214.958 230.456C214.958 232.084 215.486 233.448 216.52 234.57C217.576 235.67 218.896 236.22 220.458 236.22C222.196 236.22 223.406 235.692 224.132 234.614C224.286 235.076 224.616 235.472 225.122 235.802C225.584 236.066 226.2 236.198 226.926 236.198C227.564 236.198 228.048 236.132 228.4 236.022V233.294C228.202 233.316 228.004 233.338 227.85 233.338C227.256 233.338 227.036 232.986 227.036 232.106V224.912H223.758V226.364C223.428 225.396 222.13 224.714 220.458 224.714C218.896 224.714 217.576 225.264 216.52 226.386C215.486 227.486 214.958 228.85 214.958 230.456ZM221.052 233.228C220.26 233.228 219.6 232.964 219.05 232.436C218.5 231.886 218.236 231.226 218.236 230.456C218.236 229.686 218.5 229.026 219.05 228.498C219.6 227.948 220.26 227.684 221.052 227.684C221.866 227.684 222.548 227.948 223.098 228.498C223.67 229.026 223.956 229.686 223.956 230.456C223.956 231.226 223.67 231.886 223.098 232.436C222.548 232.964 221.866 233.228 221.052 233.228ZM230.799 238.816L233.571 233.558H230.315L228.379 238.816H230.799ZM14.9015 246.582C13.3395 246.582 11.9975 247.154 10.9195 248.276C9.84148 249.398 9.29148 250.784 9.29148 252.456C9.29148 254.128 9.84148 255.536 10.9195 256.658C11.9975 257.78 13.3395 258.33 14.9015 258.33C16.7495 258.33 18.0915 257.67 18.9275 256.372C18.9935 257.098 19.2575 257.626 19.6755 257.956C19.9615 258.154 20.3575 258.264 20.8415 258.264C21.2595 258.264 21.6115 258.198 21.8755 258.088V256.856C21.6775 256.878 21.4795 256.9 21.3035 256.9C20.6875 256.9 20.4675 256.482 20.4675 255.514V242.666H18.8395V248.562C18.2015 247.44 16.9035 246.582 14.9015 246.582ZM14.9015 256.812C13.7575 256.812 12.8115 256.394 12.0415 255.58C11.2935 254.744 10.9195 253.71 10.9195 252.456C10.9195 251.202 11.2935 250.168 12.0415 249.354C12.8115 248.518 13.7575 248.1 14.9015 248.1C16.0895 248.1 17.0795 248.518 17.8495 249.354C18.6415 250.168 19.0375 251.202 19.0375 252.456C19.0375 253.71 18.6415 254.744 17.8495 255.58C17.0795 256.394 16.0895 256.812 14.9015 256.812ZM23.6334 255.91C23.6334 257.472 24.2934 258.264 25.6354 258.264C26.0534 258.264 26.4054 258.198 26.6694 258.088V256.746C26.4714 256.768 26.2734 256.79 26.0974 256.79C25.4814 256.79 25.2614 256.438 25.2614 255.624V246.912H23.6334V255.91ZM25.2174 244.756C25.6574 244.316 25.6574 243.612 25.2174 243.194C24.7774 242.754 24.1174 242.754 23.6774 243.194C23.2374 243.612 23.2374 244.316 23.6774 244.756C24.1174 245.174 24.7774 245.174 25.2174 244.756ZM27.4155 255.602C27.8555 257.296 29.4835 258.264 31.5955 258.264C34.2355 258.264 35.6655 256.812 35.6655 255.052C35.6655 253.358 34.5875 252.39 32.2995 251.51C30.6275 250.872 29.8795 250.41 29.8795 249.508C29.8795 248.606 30.5835 248.078 31.6175 248.078C32.4755 248.078 33.0915 248.452 33.4875 249.178L34.8075 248.496C34.1695 247.22 33.0915 246.582 31.5955 246.582C29.6375 246.582 28.2515 247.814 28.2515 249.508C28.2515 251.114 29.2415 251.95 31.2655 252.742C32.2995 253.16 33.0255 253.512 33.4215 253.798C33.8395 254.084 34.0375 254.502 34.0375 255.052C34.0375 255.91 33.4215 256.746 31.5955 256.746C30.0775 256.746 29.0875 256.02 28.8015 255.074L27.4155 255.602ZM36.8989 252.588C36.8989 254.304 37.4049 255.69 38.4389 256.724C39.4729 257.758 40.8369 258.286 42.4869 258.286C44.3129 258.286 45.8089 257.626 46.9749 256.328L45.8969 255.272C44.9069 256.328 44.0049 256.812 42.4869 256.812C40.1769 256.812 38.6149 255.25 38.5269 252.808H47.5249C47.5469 252.588 47.5469 252.346 47.5469 252.104C47.5469 250.542 47.0629 249.244 46.1169 248.188C45.1709 247.11 43.9609 246.582 42.4429 246.582C40.8369 246.582 39.4949 247.132 38.4609 248.21C37.4269 249.288 36.8989 250.718 36.8989 252.5V252.588ZM38.6369 251.378C38.7029 250.476 39.0989 249.706 39.8249 249.068C40.5509 248.43 41.4309 248.1 42.4429 248.1C43.3669 248.1 44.1589 248.43 44.8189 249.068C45.4789 249.706 45.8089 250.476 45.8089 251.378H38.6369ZM51.1281 258V251.378C51.1281 249.53 52.3821 248.254 54.2081 248.254C55.9681 248.254 57.0461 249.42 57.0461 251.268V255.602C57.0461 257.824 58.3001 258.066 59.1581 258.066C59.4441 258.066 59.6861 258.022 59.8621 257.956V256.614C59.6861 256.636 59.5541 256.658 59.4441 256.658C58.8061 256.658 58.6741 256.394 58.6741 255.492V250.916C58.6741 248.386 57.1121 246.736 54.6261 246.736C52.9761 246.736 51.7221 247.55 51.1281 248.782V246.912H49.5001V258H51.1281ZM52.1401 244.932C52.2501 244.426 52.5801 244.162 53.0861 244.162C53.3281 244.162 53.7241 244.316 54.2521 244.602C54.8021 244.888 55.2641 245.02 55.6821 245.02C56.8701 245.02 57.5521 244.294 57.7061 242.864L56.6281 242.776C56.4741 243.37 56.1441 243.678 55.6161 243.678C55.3741 243.678 54.9781 243.546 54.4281 243.26C53.9001 242.974 53.4381 242.82 53.0421 242.82C51.9641 242.82 51.2161 243.678 51.0621 244.844L52.1401 244.932ZM62.6989 256.658C63.8429 257.78 65.2289 258.33 66.8789 258.33C68.5289 258.33 69.9149 257.78 71.0589 256.658C72.2029 255.536 72.7749 254.128 72.7749 252.456C72.7749 250.784 72.2029 249.398 71.0589 248.276C69.9149 247.154 68.5289 246.582 66.8789 246.582C65.2289 246.582 63.8429 247.154 62.6989 248.276C61.5549 249.398 60.9829 250.784 60.9829 252.456C60.9829 254.128 61.5549 255.536 62.6989 256.658ZM63.8209 249.354C64.6349 248.518 65.6469 248.1 66.8789 248.1C68.1109 248.1 69.1229 248.518 69.9369 249.354C70.7509 250.168 71.1469 251.202 71.1469 252.456C71.1469 253.71 70.7509 254.744 69.9369 255.58C69.1229 256.394 68.1109 256.812 66.8789 256.812C65.6469 256.812 64.6349 256.394 63.8209 255.58C63.0069 254.744 62.6109 253.71 62.6109 252.456C62.6109 251.202 63.0069 250.168 63.8209 249.354ZM83.1482 262.4C83.4562 262.532 83.8302 262.598 84.2482 262.598C85.1502 262.598 85.8542 262.312 86.4042 261.762C86.8222 261.322 87.1742 260.706 87.4822 259.892L92.4982 246.912H90.8702L87.3502 256.262L83.6982 246.912H82.0702L86.5582 258.242L86.0742 259.496C85.8102 260.156 85.5242 260.596 85.1942 260.838C84.9522 260.992 84.6222 261.08 84.2482 261.08C83.8302 261.08 83.4562 261.014 83.1482 260.904V262.4ZM102.755 254.898C102.755 257.186 103.745 258.33 105.725 258.33C106.297 258.33 106.715 258.264 106.957 258.154V256.746C106.671 256.79 106.341 256.812 105.923 256.812C104.845 256.812 104.383 256.306 104.383 254.898V248.43H106.957V246.912H104.383V242.666H102.755V246.912H101.457V248.43H102.755V254.898ZM108.12 252.588C108.12 254.304 108.626 255.69 109.66 256.724C110.694 257.758 112.058 258.286 113.708 258.286C115.534 258.286 117.03 257.626 118.196 256.328L117.118 255.272C116.128 256.328 115.226 256.812 113.708 256.812C111.398 256.812 109.836 255.25 109.748 252.808H118.746C118.768 252.588 118.768 252.346 118.768 252.104C118.768 250.542 118.284 249.244 117.338 248.188C116.392 247.11 115.182 246.582 113.664 246.582C112.058 246.582 110.716 247.132 109.682 248.21C108.648 249.288 108.12 250.718 108.12 252.5V252.588ZM109.858 251.378C109.924 250.476 110.32 249.706 111.046 249.068C111.772 248.43 112.652 248.1 113.664 248.1C114.588 248.1 115.38 248.43 116.04 249.068C116.7 249.706 117.03 250.476 117.03 251.378H109.858ZM126.133 246.582C124.483 246.582 123.097 247.154 121.953 248.276C120.809 249.398 120.237 250.784 120.237 252.456C120.237 254.128 120.809 255.536 121.953 256.658C123.097 257.78 124.483 258.33 126.133 258.33C127.849 258.33 129.257 257.78 130.335 256.658L129.345 255.514C128.509 256.372 127.431 256.812 126.133 256.812C124.901 256.812 123.889 256.394 123.075 255.58C122.261 254.744 121.865 253.71 121.865 252.456C121.865 251.202 122.261 250.168 123.075 249.354C123.889 248.518 124.901 248.1 126.133 248.1C127.431 248.1 128.509 248.54 129.345 249.398L130.335 248.254C129.257 247.132 127.849 246.582 126.133 246.582ZM133.714 258V251.378C133.714 249.53 134.968 248.254 136.794 248.254C138.554 248.254 139.632 249.42 139.632 251.268V255.602C139.632 257.824 140.886 258.066 141.744 258.066C142.03 258.066 142.272 258.022 142.448 257.956V256.614C142.272 256.636 142.14 256.658 142.03 256.658C141.392 256.658 141.26 256.394 141.26 255.492V250.916C141.26 248.386 139.698 246.736 137.212 246.736C135.562 246.736 134.308 247.55 133.714 248.782V246.912H132.086V258H133.714ZM145.285 256.658C146.429 257.78 147.815 258.33 149.465 258.33C151.115 258.33 152.501 257.78 153.645 256.658C154.789 255.536 155.361 254.128 155.361 252.456C155.361 250.784 154.789 249.398 153.645 248.276C152.501 247.154 151.115 246.582 149.465 246.582C147.815 246.582 146.429 247.154 145.285 248.276C144.141 249.398 143.569 250.784 143.569 252.456C143.569 254.128 144.141 255.536 145.285 256.658ZM146.407 249.354C147.221 248.518 148.233 248.1 149.465 248.1C150.697 248.1 151.709 248.518 152.523 249.354C153.337 250.168 153.733 251.202 153.733 252.456C153.733 253.71 153.337 254.744 152.523 255.58C151.709 256.394 150.697 256.812 149.465 256.812C148.233 256.812 147.221 256.394 146.407 255.58C145.593 254.744 145.197 253.71 145.197 252.456C145.197 251.202 145.593 250.168 146.407 249.354ZM157.417 255.206C157.417 256.548 157.791 257.472 158.407 257.846C159.045 258.22 159.529 258.33 160.211 258.33C160.673 258.33 161.025 258.264 161.223 258.154V256.768C161.069 256.79 160.805 256.812 160.431 256.812C159.397 256.812 159.045 256.328 159.045 255.096V242.666H157.417V255.206ZM163.783 256.658C164.927 257.78 166.313 258.33 167.963 258.33C169.613 258.33 170.999 257.78 172.143 256.658C173.287 255.536 173.859 254.128 173.859 252.456C173.859 250.784 173.287 249.398 172.143 248.276C170.999 247.154 169.613 246.582 167.963 246.582C166.313 246.582 164.927 247.154 163.783 248.276C162.639 249.398 162.067 250.784 162.067 252.456C162.067 254.128 162.639 255.536 163.783 256.658ZM164.905 249.354C165.719 248.518 166.731 248.1 167.963 248.1C169.195 248.1 170.207 248.518 171.021 249.354C171.835 250.168 172.231 251.202 172.231 252.456C172.231 253.71 171.835 254.744 171.021 255.58C170.207 256.394 169.195 256.812 167.963 256.812C166.731 256.812 165.719 256.394 164.905 255.58C164.091 254.744 163.695 253.71 163.695 252.456C163.695 251.202 164.091 250.168 164.905 249.354ZM175.827 261.146C177.389 262.268 179.127 262.84 181.085 262.84C182.603 262.84 183.835 262.444 184.825 261.674C185.573 261.08 186.057 260.376 186.255 259.54C186.475 258.726 186.585 257.582 186.585 256.152V246.912H184.957V248.562C184.319 247.44 183.021 246.582 181.019 246.582C179.457 246.582 178.115 247.132 177.037 248.232C175.959 249.332 175.409 250.718 175.409 252.368C175.409 254.018 175.959 255.404 177.037 256.504C178.115 257.582 179.457 258.132 181.019 258.132C183.021 258.132 184.319 257.274 184.957 256.152V257.076C184.957 258.726 184.583 259.87 183.813 260.508C183.131 261.058 182.229 261.322 181.063 261.322C179.501 261.322 178.027 260.838 176.663 259.848L175.827 261.146ZM181.019 256.614C179.875 256.614 178.929 256.218 178.159 255.404C177.411 254.59 177.037 253.578 177.037 252.368C177.037 251.158 177.411 250.146 178.159 249.332C178.929 248.518 179.875 248.1 181.019 248.1C182.207 248.1 183.197 248.518 183.967 249.332C184.759 250.146 185.155 251.158 185.155 252.368C185.155 253.578 184.759 254.59 183.967 255.404C183.197 256.218 182.207 256.614 181.019 256.614ZM189.106 255.91C189.106 257.472 189.766 258.264 191.108 258.264C191.526 258.264 191.878 258.198 192.142 258.088V256.746C191.944 256.768 191.746 256.79 191.57 256.79C190.954 256.79 190.734 256.438 190.734 255.624V246.912H189.106V255.91ZM190.448 245.856L192.494 242.666H190.316L189.15 245.856H190.448ZM198.657 246.582C197.095 246.582 195.753 247.154 194.675 248.276C193.597 249.398 193.047 250.784 193.047 252.456C193.047 254.128 193.597 255.536 194.675 256.658C195.753 257.78 197.095 258.33 198.657 258.33C200.505 258.33 201.847 257.67 202.683 256.372C202.749 257.098 203.013 257.626 203.431 257.956C203.717 258.154 204.113 258.264 204.597 258.264C205.015 258.264 205.367 258.198 205.631 258.088V256.856C205.433 256.878 205.235 256.9 205.059 256.9C204.443 256.9 204.223 256.482 204.223 255.514V246.912H202.595V248.562C201.957 247.44 200.659 246.582 198.657 246.582ZM198.657 256.812C197.513 256.812 196.567 256.394 195.797 255.58C195.049 254.744 194.675 253.71 194.675 252.456C194.675 251.202 195.049 250.168 195.797 249.354C196.567 248.518 197.513 248.1 198.657 248.1C199.845 248.1 200.835 248.518 201.605 249.354C202.397 250.168 202.793 251.202 202.793 252.456C202.793 253.71 202.397 254.744 201.605 255.58C200.835 256.394 199.845 256.812 198.657 256.812ZM215.95 252.588C215.95 254.304 216.456 255.69 217.49 256.724C218.524 257.758 219.888 258.286 221.538 258.286C223.364 258.286 224.86 257.626 226.026 256.328L224.948 255.272C223.958 256.328 223.056 256.812 221.538 256.812C219.228 256.812 217.666 255.25 217.578 252.808H226.576C226.598 252.588 226.598 252.346 226.598 252.104C226.598 250.542 226.114 249.244 225.168 248.188C224.222 247.11 223.012 246.582 221.494 246.582C219.888 246.582 218.546 247.132 217.512 248.21C216.478 249.288 215.95 250.718 215.95 252.5V252.588ZM217.688 251.378C217.754 250.476 218.15 249.706 218.876 249.068C219.602 248.43 220.482 248.1 221.494 248.1C222.418 248.1 223.21 248.43 223.87 249.068C224.53 249.706 224.86 250.476 224.86 251.378H217.688ZM230.179 258V251.378C230.179 249.53 231.433 248.254 233.259 248.254C235.019 248.254 236.097 249.42 236.097 251.268V255.602C236.097 257.824 237.351 258.066 238.209 258.066C238.495 258.066 238.737 258.022 238.913 257.956V256.614C238.737 256.636 238.605 256.658 238.495 256.658C237.857 256.658 237.725 256.394 237.725 255.492V250.916C237.725 248.386 236.163 246.736 233.677 246.736C232.027 246.736 230.773 247.55 230.179 248.782V246.912H228.551V258H230.179ZM60.7316 280V273.378C60.7316 271.53 61.9856 270.254 63.8116 270.254C65.5716 270.254 66.6496 271.42 66.6496 273.268V277.602C66.6496 279.824 67.9036 280.066 68.7616 280.066C69.0476 280.066 69.2896 280.022 69.4656 279.956V278.614C69.2896 278.636 69.1576 278.658 69.0476 278.658C68.4096 278.658 68.2776 278.394 68.2776 277.492V272.916C68.2776 270.386 66.7156 268.736 64.2296 268.736C62.5796 268.736 61.3256 269.55 60.7316 270.782V268.912H59.1036V280H60.7316ZM71.0458 275.996C71.0458 278.526 72.5858 280.176 75.0278 280.176C76.6778 280.176 77.8658 279.648 78.5698 278.57C78.6358 279.032 78.8118 279.384 79.0758 279.67C79.3838 280 79.8458 280.176 80.4398 280.176C80.9018 280.176 81.2318 280.11 81.4738 280V278.768C81.2758 278.79 81.0778 278.812 80.9018 278.812C80.2858 278.812 80.0658 278.394 80.0658 277.426V268.912H78.4378V275.534C78.4378 277.382 77.1838 278.658 75.4238 278.658C73.7298 278.658 72.6738 277.492 72.6738 275.644V268.912H71.0458V275.996ZM82.6177 274.588C82.6177 276.304 83.1237 277.69 84.1577 278.724C85.1917 279.758 86.5557 280.286 88.2057 280.286C90.0317 280.286 91.5277 279.626 92.6937 278.328L91.6157 277.272C90.6257 278.328 89.7237 278.812 88.2057 278.812C85.8957 278.812 84.3337 277.25 84.2457 274.808H93.2437C93.2657 274.588 93.2657 274.346 93.2657 274.104C93.2657 272.542 92.7817 271.244 91.8357 270.188C90.8897 269.11 89.6797 268.582 88.1617 268.582C86.5557 268.582 85.2137 269.132 84.1797 270.21C83.1457 271.288 82.6177 272.718 82.6177 274.5V274.588ZM84.3557 273.378C84.4217 272.476 84.8177 271.706 85.5437 271.068C86.2697 270.43 87.1497 270.1 88.1617 270.1C89.0857 270.1 89.8777 270.43 90.5377 271.068C91.1977 271.706 91.5277 272.476 91.5277 273.378H84.3557ZM94.3608 277.602C94.8008 279.296 96.4288 280.264 98.5408 280.264C101.181 280.264 102.611 278.812 102.611 277.052C102.611 275.358 101.533 274.39 99.2448 273.51C97.5728 272.872 96.8248 272.41 96.8248 271.508C96.8248 270.606 97.5288 270.078 98.5628 270.078C99.4208 270.078 100.037 270.452 100.433 271.178L101.753 270.496C101.115 269.22 100.037 268.582 98.5408 268.582C96.5828 268.582 95.1968 269.814 95.1968 271.508C95.1968 273.114 96.1868 273.95 98.2108 274.742C99.2448 275.16 99.9708 275.512 100.367 275.798C100.785 276.084 100.983 276.502 100.983 277.052C100.983 277.91 100.367 278.746 98.5408 278.746C97.0228 278.746 96.0328 278.02 95.7468 277.074L94.3608 277.602ZM105.032 276.898C105.032 279.186 106.022 280.33 108.002 280.33C108.574 280.33 108.992 280.264 109.234 280.154V278.746C108.948 278.79 108.618 278.812 108.2 278.812C107.122 278.812 106.66 278.306 106.66 276.898V270.43H109.234V268.912H106.66V264.666H105.032V268.912H103.734V270.43H105.032V276.898ZM112.724 280V273.554C112.724 271.706 113.978 270.43 115.716 270.43C116.156 270.43 116.53 270.474 116.816 270.54V268.78C116.618 268.758 116.376 268.736 116.134 268.736C114.528 268.736 113.318 269.55 112.724 270.782V268.912H111.096V280H112.724ZM119.289 278.658C120.433 279.78 121.819 280.33 123.469 280.33C125.119 280.33 126.505 279.78 127.649 278.658C128.793 277.536 129.365 276.128 129.365 274.456C129.365 272.784 128.793 271.398 127.649 270.276C126.505 269.154 125.119 268.582 123.469 268.582C121.819 268.582 120.433 269.154 119.289 270.276C118.145 271.398 117.573 272.784 117.573 274.456C117.573 276.128 118.145 277.536 119.289 278.658ZM120.411 271.354C121.225 270.518 122.237 270.1 123.469 270.1C124.701 270.1 125.713 270.518 126.527 271.354C127.341 272.168 127.737 273.202 127.737 274.456C127.737 275.71 127.341 276.744 126.527 277.58C125.713 278.394 124.701 278.812 123.469 278.812C122.237 278.812 121.225 278.394 120.411 277.58C119.597 276.744 119.201 275.71 119.201 274.456C119.201 273.202 119.597 272.168 120.411 271.354ZM140.304 280L141.888 276.216H149.324L150.908 280H152.756L146.266 264.666H144.946L138.456 280H140.304ZM145.606 267.328L148.664 274.632H142.548L145.606 267.328ZM160.494 280C162.936 280 164.872 279.296 166.28 277.91C167.688 276.502 168.392 274.654 168.392 272.344C168.392 270.034 167.688 268.186 166.258 266.778C164.85 265.37 162.914 264.666 160.472 264.666H155.544V280H160.494ZM157.26 266.25H160.34C164.498 266.25 166.676 268.626 166.676 272.344C166.676 276.04 164.498 278.416 160.362 278.416H157.26V266.25ZM173.222 280V267.592L182.594 280H183.98V264.666H182.264V276.942L173.002 264.666H171.506V280H173.222ZM187.302 279.846C187.742 280.264 188.402 280.264 188.842 279.846C189.282 279.406 189.282 278.702 188.842 278.284C188.402 277.844 187.742 277.844 187.302 278.284C186.862 278.702 186.862 279.406 187.302 279.846Z" fill="white" />
  <path d="M155.54 198.09H93.44C92.09 198.09 91 197 91 195.65C91 194.3 92.09 193.21 93.44 193.21H155.54C156.89 193.21 157.98 194.3 157.98 195.65C157.98 197 156.89 198.09 155.54 198.09Z" fill="#FBC000" />
  <path d="M110.44 135.47L102.31 149.83H85.66L96.97 129.85L110.44 135.47Z" fill="#FBC000" />
  <path d="M148.46 135.47L156.59 149.83H173.23L161.92 129.85L148.46 135.47Z" fill="#FBC000" />
  <path d="M129.45 138.2C166.569 138.2 196.66 108.109 196.66 70.99C196.66 33.871 166.569 3.78003 129.45 3.78003C92.3309 3.78003 62.24 33.871 62.24 70.99C62.24 108.109 92.3309 138.2 129.45 138.2Z" fill="#ED1164" />
  <path d="M129.45 117.52C155.148 117.52 175.98 96.6878 175.98 70.99C175.98 45.2922 155.148 24.46 129.45 24.46C103.752 24.46 82.92 45.2922 82.92 70.99C82.92 96.6878 103.752 117.52 129.45 117.52Z" fill="white" />
  <path d="M129.45 96.8399C143.727 96.8399 155.3 85.2665 155.3 70.9899C155.3 56.7133 143.727 45.1399 129.45 45.1399C115.173 45.1399 103.6 56.7133 103.6 70.9899C103.6 85.2665 115.173 96.8399 129.45 96.8399Z" fill="#ED1164" />
  <path d="M189.52 57.4399L175.98 70.9899L189.52 84.5399H221.21L207.67 70.9899L221.21 57.4399H189.52Z" fill="#FBC000" />
  <path d="M160.11 40.42C160.74 41.05 161.57 41.37 162.39 41.37C163.21 41.37 164.04 41.05 164.67 40.42C165.93 39.16 165.93 37.11 164.67 35.85L164.63 35.81C163.37 34.55 161.32 34.55 160.06 35.81C158.8 37.07 158.8 39.12 160.06 40.38L160.11 40.42Z" fill="black" />
  <path d="M212.24 70.9901L223.5 59.7301C224.42 58.8101 224.7 57.4201 224.2 56.2101C223.7 55.0001 222.52 54.2201 221.21 54.2201H197.86C194.81 41.7301 188.4 30.3501 179.25 21.1901C165.95 7.89006 148.26 0.560059 129.44 0.560059C110.62 0.560059 92.94 7.89006 79.63 21.1901C66.33 34.4901 59 52.1801 59 71.0001C59 89.8201 66.33 107.5 79.63 120.81C83.59 124.77 87.93 128.19 92.58 131.05L82.85 148.25C82.28 149.25 82.29 150.48 82.87 151.47C83.45 152.46 84.51 153.07 85.66 153.07H102.3C103.46 153.07 104.54 152.44 105.11 151.43L111.99 139.27C117.62 140.7 123.47 141.44 129.44 141.44C135.41 141.44 141.25 140.7 146.89 139.27L153.77 151.43C154.34 152.44 155.42 153.07 156.58 153.07H173.22C174.37 153.07 175.43 152.46 176.01 151.47C176.59 150.48 176.6 149.25 176.03 148.25L166.3 131.05C170.95 128.19 175.29 124.76 179.25 120.81C188.4 111.66 194.81 100.27 197.86 87.7801H221.21C222.52 87.7801 223.7 86.9901 224.2 85.7901C224.7 84.5801 224.42 83.1901 223.5 82.2701L212.24 70.9901ZM206.33 67.7601H183.78L190.86 60.6801H213.41L206.33 67.7601ZM100.42 146.6H91.21L98.24 134.18C100.65 135.37 103.13 136.43 105.67 137.34L100.42 146.6ZM167.69 146.6H158.48L153.23 137.33C155.77 136.42 158.24 135.37 160.66 134.17L167.69 146.6ZM174.69 116.23C170.42 120.5 165.65 124.09 160.52 126.95C160.46 126.98 160.39 127.01 160.33 127.05C160.29 127.07 160.26 127.1 160.22 127.12C156.28 129.29 152.14 131.02 147.83 132.31C147.66 132.34 147.49 132.39 147.33 132.46C141.59 134.12 135.59 134.98 129.45 134.98C123.31 134.98 117.31 134.12 111.57 132.46C111.4 132.4 111.24 132.35 111.07 132.31C106.77 131.03 102.62 129.29 98.68 127.12C98.64 127.1 98.61 127.07 98.57 127.05C98.51 127.01 98.44 126.99 98.38 126.95C93.25 124.09 88.48 120.5 84.21 116.23C72.13 104.15 65.47 88.0801 65.47 70.9901C65.47 53.9001 72.12 37.8301 84.21 25.7501C96.3 13.6701 112.36 7.01006 129.45 7.01006C146.54 7.01006 162.61 13.6601 174.69 25.7501C182.63 33.6901 188.29 43.4701 191.2 54.2101H189.53C188.67 54.2101 187.85 54.5501 187.25 55.1601L178.67 63.7401C177.8 57.8701 175.91 52.1501 173.04 46.9601C172.18 45.4001 170.21 44.8301 168.65 45.6901C167.09 46.5501 166.52 48.5201 167.38 50.0801C170.45 55.6401 172.16 61.6801 172.6 67.7601H158.35C157.63 61.2101 154.74 55.1501 150.02 50.4301C144.53 44.9401 137.22 41.9101 129.46 41.9101C121.7 41.9101 114.38 44.9301 108.88 50.4201C103.39 55.9101 100.36 63.2201 100.36 70.9801C100.36 78.7501 103.39 86.0501 108.88 91.5401C114.37 97.0301 121.68 100.06 129.44 100.06C137.2 100.06 144.51 97.0301 150 91.5401C154.72 86.8201 157.62 80.7501 158.33 74.2101H172.56C171.79 84.3101 167.53 94.1101 160.05 101.59C151.87 109.77 141 114.27 129.43 114.27C117.86 114.27 106.99 109.77 98.81 101.59C90.63 93.4101 86.13 82.5401 86.13 70.9701C86.13 59.4001 90.63 48.5301 98.81 40.3501C112.38 26.7801 133.57 23.7801 150.34 33.0401C151.9 33.9001 153.87 33.3401 154.73 31.7701C155.59 30.2101 155.03 28.2401 153.46 27.3801C144.2 22.2701 133.31 20.2301 122.77 21.6501C111.89 23.1101 102.02 28.0001 94.23 35.7801C84.83 45.1801 79.66 57.6701 79.66 70.9701C79.66 84.2701 84.84 96.7601 94.23 106.16C103.63 115.56 116.12 120.73 129.42 120.73C142.72 120.73 155.21 115.55 164.61 106.16C172.25 98.5201 177.09 88.8801 178.65 78.2401L187.21 86.8001C187.82 87.4101 188.64 87.7501 189.49 87.7501H191.16C188.29 98.5101 182.62 108.29 174.69 116.23ZM140 64.9001C139.11 63.3501 137.13 62.8201 135.59 63.7201L127.84 68.2001C126.84 68.7801 126.22 69.8401 126.22 71.0001C126.22 72.1601 126.84 73.2201 127.84 73.8001L135.59 78.2801C136.1 78.5701 136.65 78.7101 137.2 78.7101C138.32 78.7101 139.4 78.1301 140 77.0901C140.52 76.1801 140.55 75.1301 140.18 74.2301H151.84C151.16 79.0501 148.95 83.4901 145.45 86.9901C141.18 91.2601 135.5 93.6101 129.46 93.6101C123.42 93.6101 117.74 91.2601 113.47 86.9901C109.2 82.7201 106.85 77.0401 106.85 71.0001C106.85 64.9601 109.2 59.2801 113.47 55.0101C117.74 50.7401 123.42 48.3901 129.46 48.3901C135.5 48.3901 141.18 50.7401 145.45 55.0101C148.95 58.5101 151.16 62.9601 151.84 67.7701H140.18C140.55 66.8601 140.52 65.8001 140 64.9001ZM190.86 81.3001L183.78 74.2201H206.33L213.42 81.3001H190.86Z" fill="black" />
</svg>