<svg classclass="my-5" id="icon-pink-background" viewBox="0 0 701 254" fill="none" xmlns="http://www.w3.org/2000/svg">
  <path d="M623.978 211.278H40.8074V79.8637C40.8074 57.0405 59.3121 38.5239 82.1472 38.5239H665.318V169.938C665.306 192.773 646.801 211.278 623.978 211.278Z" fill="white" />
  <path d="M336.871 38.536V10.353H111.099V236.113H336.871V211.278" stroke="#ED1164" stroke-width="2" stroke-miterlimit="10" />
  <path d="M240.313 36.9147C239.331 39.4467 241.011 42.2034 242.892 44.1556C244.773 46.1079 247.057 47.9654 247.648 50.6039C248.145 52.8282 247.317 55.1354 247.518 57.3953C247.719 59.7143 248.973 61.7966 249.683 64.0092C250.973 68.0201 250.452 72.4096 249.305 76.4561C248.37 79.7808 246.974 83.0463 244.667 85.6256C242.371 88.2049 239.059 90.027 235.604 89.9678C234.622 89.9441 233.569 89.743 232.93 88.9976C232.374 88.3587 232.255 87.4595 232.161 86.6194C230.185 69.2387 230.173 51.6214 232.149 34.2407" fill="#222221" />
  <path d="M238.49 93.0086C246.015 92.6773 252.961 99.8828 252.357 107.384C259.977 109.242 265.348 117.618 263.858 125.309C263.361 127.853 262.237 130.266 262.083 132.846C261.917 135.662 262.911 138.395 263.455 141.175C264.437 146.18 263.905 151.469 261.953 156.178C260.769 159.041 258.557 161.999 255.457 162.082C253.351 162.141 251.411 160.78 250.239 159.029C249.068 157.278 248.547 155.184 248.145 153.125C246.808 146.369 246.406 139.424 244.548 132.798C242.691 126.161 239.094 119.63 233.095 116.258C229.782 114.388 225.807 113.513 223.168 110.768C220.412 107.893 219.773 103.326 221.216 99.6107C222.66 95.8956 225.949 93.056 229.688 91.6953" fill="#222221" />
  <path d="M186.431 43.1022C186.337 39.884 189.307 37.4112 192.3 36.2281C195.293 35.0567 198.618 34.6071 201.28 32.8087C203.646 31.2233 205.232 28.7386 207.231 26.7154C212.13 21.7461 219.797 19.6874 226.529 21.5213C233.261 23.3552 238.81 29.0226 240.514 35.7903C241.662 40.3691 240.881 45.7762 237.272 48.8169C233.084 52.3428 226.884 51.5619 221.512 50.4615C216.153 49.3612 210.071 48.2845 205.599 51.4317C202.901 53.3366 201.351 56.4247 199.695 59.2879C198.038 62.1512 195.968 65.0736 192.844 66.1385C189.721 67.2152 185.485 65.3576 185.355 62.0565" fill="#222221" />
  <path d="M199.103 43.7647C196.323 44.0605 194.24 46.4387 194.3 49.2309L197.506 121.854C197.636 130.432 210.178 135.247 219.359 135.034C228.635 134.821 228.931 130.266 229.049 122.114C229.238 108.484 229.227 103.361 229.227 103.444C229.227 103.444 240.94 101.468 243.33 86.1812C244.525 78.5734 244.111 66.1147 243.448 55.9277C242.845 46.7581 236.751 35.5181 227.606 36.5001L199.103 43.7647Z" fill="#FFBE9D" />
  <path d="M240.822 65.5122C240.857 66.5533 240.017 67.4289 238.94 67.4999C237.864 67.559 236.953 66.7663 236.917 65.737C236.882 64.7076 237.722 63.8084 238.798 63.7492C239.875 63.6901 240.786 64.471 240.822 65.5122Z" fill="#263238" />
  <path d="M240.774 62.3999C240.538 62.6602 239.047 61.5599 236.929 61.5717C234.823 61.548 233.273 62.6365 233.048 62.3881C232.93 62.2698 233.178 61.8083 233.853 61.3232C234.515 60.8381 235.651 60.353 236.964 60.353C238.278 60.353 239.39 60.8381 240.017 61.3351C240.668 61.832 240.893 62.2934 240.774 62.3999Z" fill="#263238" />
  <path d="M220.554 65.5112C220.589 66.5524 219.749 67.4279 218.673 67.4989C217.596 67.5581 216.685 66.7653 216.649 65.736C216.614 64.7066 217.454 63.8074 218.531 63.7483C219.607 63.6891 220.507 64.47 220.554 65.5112Z" fill="#263238" />
  <path d="M220.033 62.8379C219.785 63.0982 218.306 61.9978 216.188 62.0097C214.082 61.986 212.532 63.0745 212.307 62.8261C212.201 62.7077 212.437 62.2463 213.112 61.7612C213.774 61.2761 214.91 60.791 216.223 60.791C217.537 60.791 218.649 61.2761 219.276 61.773C219.927 62.27 220.152 62.7314 220.033 62.8379Z" fill="#263238" />
  <path d="M227.724 78.4671C227.712 78.3488 229.025 78.1121 231.155 77.84C231.699 77.7809 232.208 77.6744 232.291 77.3076C232.421 76.9171 232.184 76.3374 231.924 75.7103C231.415 74.4088 230.883 73.0482 230.327 71.6166C228.102 65.7836 226.493 60.9799 226.73 60.8971C226.966 60.8143 228.966 65.4641 231.19 71.3089C231.723 72.7524 232.243 74.1249 232.728 75.4382C232.93 76.0534 233.284 76.7397 233.012 77.5561C232.87 77.9583 232.468 78.2541 232.125 78.3488C231.782 78.4553 231.474 78.4671 231.214 78.4789C229.061 78.5854 227.735 78.5972 227.724 78.4671Z" fill="#263238" />
  <path d="M229.238 103.432C229.238 103.432 218.957 104.118 208.746 98.0132C208.746 98.0132 213.739 108.508 229.037 107.041L229.238 103.432Z" fill="#EB996E" />
  <path d="M226.848 83.5553C226.091 82.5496 224.754 82.0053 223.441 82.1473C222.53 82.2419 221.607 82.6915 221.051 83.4369C220.495 84.1823 220.376 85.2472 220.885 85.9571C221.453 86.7616 222.648 86.9391 223.654 86.6551C224.659 86.3712 225.523 85.6968 226.351 85.0342C226.576 84.8567 226.813 84.6556 226.955 84.4071C227.097 84.1587 227.12 83.8274 226.955 83.6262" fill="#EB996E" />
  <path d="M221.512 79.9465C221.855 79.9228 221.867 82.2181 223.831 83.8391C225.795 85.46 228.233 85.1997 228.256 85.5192C228.292 85.6612 227.712 85.9688 226.683 85.9924C225.677 86.0279 224.198 85.7085 222.991 84.7146C221.796 83.7208 221.276 82.3956 221.193 81.4491C221.11 80.5026 221.358 79.9346 221.512 79.9465Z" fill="#263238" />
  <path d="M220.968 59.146C220.767 59.7258 218.649 59.4537 216.176 59.7613C213.691 60.0097 211.704 60.7433 211.372 60.2346C211.23 59.9861 211.574 59.4537 212.378 58.8857C213.183 58.3297 214.449 57.7972 215.939 57.6316C217.43 57.4659 218.791 57.7026 219.69 58.0575C220.601 58.4243 221.062 58.8739 220.968 59.146Z" fill="#263238" />
  <path d="M239.982 56.2951C239.615 56.7802 238.159 56.2832 236.408 56.2596C234.657 56.1767 233.178 56.5908 232.835 56.0939C232.681 55.8455 232.918 55.3722 233.569 54.9108C234.208 54.4611 235.273 54.0825 236.468 54.118C237.663 54.1535 238.716 54.5913 239.319 55.0764C239.946 55.5733 240.147 56.0584 239.982 56.2951Z" fill="#263238" />
  <path d="M188.431 94.0616C192.631 94.9135 197.21 93.612 200.357 90.7014C203.505 87.779 205.126 83.3066 204.581 79.059C204.108 75.3084 202.085 71.4868 203.386 67.9255C205.102 63.2283 211.692 61.7848 213.443 57.0877C214.461 54.3664 213.55 51.1718 214.697 48.5097C215.786 46.0014 218.424 44.5579 220.992 43.6232C223.559 42.6885 226.316 42.0496 228.481 40.3695C230.635 38.6894 231.983 35.5186 230.599 33.1641C219.193 34.5365 207.953 37.2578 197.187 41.2806C194.69 42.2153 192.075 43.3275 190.596 45.5518C189.035 47.8945 189.106 50.9352 189.236 53.7511C189.875 67.4759 187.792 80.3369 188.431 94.0616Z" fill="#222221" />
  <path d="M229.215 23.0956C229.226 23.0719 229.439 23.1193 229.806 23.2731C230.173 23.4269 230.682 23.7109 231.25 24.1486C232.374 25.0123 233.699 26.6924 234.03 28.9049C234.35 31.1293 233.581 33.117 232.764 34.2647C232.35 34.8563 231.948 35.2704 231.64 35.5188C231.333 35.7791 231.143 35.8856 231.12 35.862C231.06 35.8028 231.77 35.2585 232.492 34.0872C233.214 32.9395 233.888 31.0346 233.581 28.9641C233.261 26.8936 232.066 25.2726 231.037 24.3853C230.019 23.4742 229.179 23.1666 229.215 23.0956Z" fill="#535354" />
  <path d="M263.089 128.018C263.041 127.995 263.361 127.462 263.526 126.397C263.704 125.344 263.621 123.723 262.781 121.996C261.965 120.257 260.237 118.6 257.954 117.5C256.818 116.944 255.54 116.506 254.203 116.163C252.854 115.82 251.423 115.524 249.991 115.063C248.571 114.601 247.175 113.974 246.134 112.957C245.045 111.963 244.537 110.555 244.312 109.289C244.075 107.999 243.992 106.781 243.708 105.692C243.436 104.604 242.916 103.681 242.312 102.935C241.094 101.444 239.626 100.746 238.609 100.415C237.58 100.108 236.964 100.108 236.964 100.06C236.964 100.048 237.118 100.037 237.402 100.048C237.686 100.06 238.112 100.119 238.656 100.25C239.709 100.533 241.247 101.208 242.549 102.734C243.188 103.491 243.756 104.462 244.052 105.597C244.359 106.721 244.454 107.964 244.702 109.206C244.939 110.448 245.412 111.714 246.418 112.637C247.388 113.584 248.713 114.187 250.109 114.637C251.505 115.086 252.925 115.382 254.286 115.737C255.658 116.092 256.948 116.542 258.119 117.133C260.462 118.281 262.237 120.044 263.053 121.866C263.893 123.676 263.929 125.368 263.692 126.433C263.586 126.977 263.42 127.379 263.302 127.64C263.171 127.888 263.1 128.018 263.089 128.018Z" fill="#535354" />
  <path d="M196.583 100.935C188.845 98.8649 182.148 91.2808 179.439 83.7322C176.729 76.1836 176.717 67.9488 177.416 59.9624C177.924 54.1767 178.93 48.0597 182.775 43.6939C188.573 37.1273 194.844 33.7671 203.599 34.0392" fill="#222221" />
  <path d="M184.787 89.7549C184.787 89.7667 184.704 89.7312 184.538 89.672C184.373 89.6247 184.136 89.5064 183.84 89.3289C183.26 88.9858 182.48 88.2641 181.935 87.0691C181.391 85.8977 181.072 84.2531 181.438 82.4311C181.805 80.609 182.858 78.7278 184.219 76.882C185.556 75.0126 187.26 73.1195 188.419 70.7059C188.987 69.5109 189.413 68.1739 189.437 66.766C189.46 65.358 189.011 63.95 188.537 62.5184C188.052 61.0868 187.579 59.5368 187.638 57.8922C187.709 56.2713 188.171 54.6267 189.034 53.1714C189.886 51.7161 191.093 50.4264 192.607 49.5391C194.11 48.6044 195.909 48.2849 197.648 48.1074C199.387 47.9063 201.126 47.8116 202.688 47.2319C204.262 46.6758 205.48 45.469 206.238 44.0373C207.007 42.6057 207.444 41.0439 207.918 39.5295C208.379 38.0032 208.923 36.5124 209.645 35.1636C211.053 32.4423 213.041 30.1706 215.372 28.7272C217.702 27.2837 220.305 26.6921 222.624 26.846C224.955 26.9998 226.978 27.9226 228.339 29.1886C229.7 30.4428 230.504 31.8744 230.895 33.1049C231.297 34.3472 231.309 35.3766 231.25 36.051C231.191 36.7254 231.072 37.0685 231.072 37.0685C231.049 37.0685 231.131 36.7136 231.167 36.0391C231.202 35.3766 231.155 34.3591 230.741 33.1641C230.339 31.9691 229.522 30.5729 228.185 29.3779C226.86 28.1711 224.884 27.2956 222.624 27.1654C220.365 27.0353 217.844 27.6268 215.585 29.0466C213.325 30.4664 211.396 32.6908 210.024 35.3647C209.326 36.7017 208.793 38.1452 208.344 39.6715C207.882 41.1859 207.444 42.7714 206.64 44.2621C206.238 45.0075 205.729 45.7056 205.09 46.309C204.451 46.9006 203.682 47.362 202.866 47.6697C201.209 48.2849 199.446 48.3796 197.719 48.5807C195.991 48.7582 194.288 49.0776 192.856 49.9532C191.412 50.7932 190.253 52.0237 189.437 53.4198C188.608 54.816 188.159 56.3778 188.088 57.9277C188.029 59.4895 188.466 60.9684 188.952 62.4119C189.425 63.8435 189.886 65.3107 189.851 66.8014C189.827 68.2804 189.377 69.6765 188.774 70.8952C187.567 73.368 185.84 75.2493 184.503 77.095C183.142 78.9171 182.089 80.7391 181.711 82.5139C181.332 84.2768 181.616 85.8859 182.125 87.0336C182.633 88.2049 183.367 88.9148 183.923 89.2816C184.444 89.6365 184.799 89.7194 184.787 89.7549Z" fill="#535354" />
  <path d="M241.803 117.796L234.586 115.986C236.278 114.637 236.751 112.91 236.018 110.945C235.154 108.65 232.942 107.136 230.504 106.852L197.577 103.137C196.394 103.006 195.246 103.657 194.82 104.758C193.353 108.461 193.306 111.525 194.666 113.927H194.512L188.171 115.193L177.439 210.059L247.873 206.77L241.803 117.796Z" fill="#FDE7F0" />
  <path d="M231.439 116.353C231.439 116.388 230.977 116.471 230.114 116.601C229.262 116.743 228.02 116.897 226.47 117.039C223.381 117.335 219.098 117.536 214.378 117.299C209.645 117.063 205.397 116.448 202.368 115.844C200.854 115.548 199.624 115.264 198.795 115.04C197.955 114.827 197.494 114.685 197.506 114.661C197.517 114.625 197.991 114.708 198.831 114.874C199.683 115.04 200.901 115.276 202.428 115.536C205.468 116.057 209.704 116.625 214.401 116.862C219.098 117.086 223.37 116.956 226.446 116.731C227.984 116.625 229.226 116.519 230.09 116.436C230.966 116.353 231.439 116.317 231.439 116.353Z" fill="#ED1164" />
  <path d="M199.6 131.426C199.494 131.355 200.606 129.521 202.061 127.332C203.528 125.132 204.794 123.416 204.901 123.487C205.007 123.558 203.895 125.392 202.44 127.581C200.973 129.77 199.707 131.497 199.6 131.426Z" fill="#F798BC" />
  <path d="M222.305 133.035C222.21 133.118 220.802 131.532 219.182 129.509C217.549 127.486 216.306 125.77 216.401 125.699C216.496 125.617 217.904 127.202 219.525 129.237C221.157 131.248 222.4 132.952 222.305 133.035Z" fill="#F798BC" />
  <path d="M211.763 145.091C211.645 145.115 211.16 142.997 210.698 140.37C210.237 137.744 209.953 135.59 210.083 135.567C210.201 135.543 210.686 137.661 211.148 140.287C211.609 142.914 211.881 145.067 211.763 145.091Z" fill="#F798BC" />
  <path d="M229.096 145.837C229.179 145.92 227.393 147.825 225.097 150.097C222.802 152.357 220.873 154.119 220.779 154.025C220.696 153.942 222.482 152.037 224.778 149.765C227.073 147.506 229.002 145.754 229.096 145.837Z" fill="#F798BC" />
  <path d="M205.847 161.998C205.788 162.093 203.646 160.792 201.54 158.555C199.422 156.331 198.251 154.107 198.346 154.059C198.464 153.988 199.789 156.059 201.872 158.248C203.93 160.448 205.93 161.892 205.847 161.998Z" fill="#F798BC" />
  <path d="M213.313 174.481C213.348 174.611 211.337 175.25 209.054 176.457C206.77 177.652 205.102 178.953 205.019 178.847C204.936 178.764 206.51 177.285 208.841 176.055C211.183 174.824 213.289 174.374 213.313 174.481Z" fill="#F798BC" />
  <path d="M225.464 175.298C225.417 175.333 224.884 174.777 224.092 173.819C223.299 172.86 222.234 171.5 221.122 169.961C220.022 168.412 219.075 166.968 218.436 165.903C217.785 164.838 217.43 164.152 217.49 164.117C217.549 164.081 217.998 164.708 218.708 165.726C219.525 166.885 220.459 168.222 221.5 169.689C222.565 171.145 223.524 172.47 224.352 173.617C225.074 174.623 225.511 175.25 225.464 175.298Z" fill="#F798BC" />
  <path d="M226.683 185.935C226.706 186.053 224.399 186.668 221.477 187.141C218.566 187.626 216.176 187.78 216.164 187.662C216.153 187.532 218.507 187.177 221.406 186.692C224.305 186.23 226.647 185.816 226.683 185.935Z" fill="#F798BC" />
  <path d="M207.018 115.004C206.959 114.957 207.373 114.483 207.728 113.572C208.095 112.673 208.32 111.301 208.107 109.822C207.894 108.343 207.373 107.053 206.995 106.13C206.604 105.207 206.356 104.639 206.415 104.604C206.462 104.58 206.817 105.089 207.291 105.988C207.752 106.887 208.332 108.189 208.568 109.751C208.793 111.312 208.497 112.768 208.036 113.691C207.563 114.637 207.042 115.039 207.018 115.004Z" fill="#F798BC" />
  <path d="M220.175 107.905C220.27 107.846 221.074 109.029 221.477 110.733C221.879 112.436 221.69 113.856 221.571 113.844C221.441 113.844 221.429 112.46 221.039 110.827C220.66 109.206 220.057 107.964 220.175 107.905Z" fill="#F798BC" />
  <path d="M279.511 175.499L312.285 117.95L316.236 107.964C316.236 107.964 326.447 86.0041 327.157 83.7679C327.985 81.1886 329.429 80.9638 330.352 81.3306C331.807 81.9104 332.268 84.0637 331.629 86.2999C331.405 87.069 327.441 99.1373 327.441 99.1373C327.441 99.1373 328.317 98.309 330.825 96.6171C333.345 94.9252 337.947 94.9843 342.219 96.4988C346.49 98.0132 347.543 98.8178 347.034 100.51C346.833 101.184 346.277 101.61 345.662 101.87C344.668 102.296 343.532 102.284 342.503 101.941C335.64 99.5987 332.6 102.699 332.6 102.699L332.079 104C332.079 104 337.238 102.344 340.172 104.686C340.645 105.065 340.988 105.491 341.237 105.94C343.071 106.544 344.55 108.129 344.999 109.999C345.472 111.951 344.81 114.128 343.343 115.5C342.645 116.151 341.58 116.624 340.74 116.163C340.302 115.915 340.018 115.465 339.758 115.027C339.616 114.802 339.462 114.578 339.285 114.376L337.32 117.831C337.32 117.831 332.505 125.356 330.778 128.87L308.226 188.975C305.103 197.304 295.744 201.457 287.474 198.18C278.493 194.619 274.731 183.911 279.511 175.499Z" fill="#FFBE9D" />
  <path d="M314.545 117.748C315.704 118.505 317.301 117.984 318.343 117.085C319.384 116.186 320.094 114.956 321.064 113.974C323.986 111.051 328.873 110.779 331.641 107.726C332.032 107.3 332.375 106.65 332.044 106.188C331.736 105.751 331.085 105.81 330.565 105.916C326.092 106.804 321.632 107.691 317.159 108.566" fill="#FFBE9D" />
  <path d="M317.147 108.578C317.136 108.531 317.644 108.377 318.567 108.141C319.49 107.904 320.839 107.596 322.495 107.241C324.223 106.875 326.199 106.46 328.34 105.999C328.896 105.881 329.452 105.774 330.032 105.656C330.576 105.585 331.263 105.254 332.079 105.727C332.481 105.987 332.623 106.543 332.517 106.946C332.422 107.348 332.221 107.655 331.996 107.928C331.535 108.425 331.05 108.874 330.482 109.265C328.246 110.803 325.796 111.442 323.856 112.471C322.874 112.968 321.998 113.536 321.312 114.21C320.626 114.873 320.082 115.642 319.502 116.293C318.413 117.653 316.958 118.328 315.953 118.292C314.923 118.268 314.509 117.783 314.533 117.783C314.568 117.712 315.018 118.067 315.929 117.996C316.84 117.925 318.07 117.298 319.076 115.949C319.608 115.299 320.117 114.518 320.851 113.772C321.584 113.027 322.507 112.388 323.525 111.856C325.536 110.767 327.973 110.093 330.032 108.649C330.541 108.294 331.002 107.868 331.405 107.454C331.783 107.028 331.913 106.52 331.641 106.378C331.369 106.177 330.754 106.295 330.186 106.413C329.606 106.52 329.038 106.626 328.494 106.733C326.329 107.135 324.353 107.49 322.614 107.809C320.934 108.105 319.573 108.33 318.638 108.472C317.692 108.578 317.159 108.626 317.147 108.578Z" fill="#EB996E" />
  <path d="M331.913 104.012C332.008 104.059 332.186 102.947 333.452 101.941C334.079 101.456 334.99 101.113 336.043 101.089C337.096 101.054 338.255 101.314 339.462 101.669C340.669 102.024 341.84 102.379 342.976 102.462C344.1 102.545 345.141 102.403 345.922 102.012C346.727 101.622 347.105 100.912 347.176 100.439C347.259 99.9654 347.176 99.7051 347.164 99.7051C347.117 99.7051 347.117 99.9654 346.987 100.391C346.857 100.817 346.502 101.385 345.768 101.693C345.058 102.012 344.076 102.107 343.023 102.012C341.959 101.906 340.823 101.551 339.616 101.196C338.397 100.841 337.179 100.581 336.043 100.64C334.907 100.687 333.889 101.101 333.25 101.681C332.588 102.249 332.245 102.876 332.079 103.314C331.89 103.74 331.89 104 331.913 104.012Z" fill="#EB996E" />
  <path d="M331.866 85.4361C331.795 85.4243 331.511 86.3354 331.062 87.8261C330.553 89.4826 329.937 91.4585 329.275 93.6355C328.565 95.8007 327.926 97.7647 327.394 99.4212C326.909 100.9 326.613 101.811 326.672 101.847C326.731 101.87 327.145 100.995 327.725 99.5513C328.305 98.096 329.026 96.0728 329.748 93.8011C330.47 91.5294 331.038 89.4589 331.405 87.9326C331.771 86.4063 331.937 85.448 331.866 85.4361Z" fill="#EB996E" />
  <path d="M333.771 107.609C333.783 107.645 334.067 107.609 334.564 107.562C335.037 107.526 335.841 107.491 336.445 108.071C336.741 108.355 336.847 108.792 336.753 109.278C336.67 109.763 336.398 110.248 336.137 110.804C335.877 111.348 335.605 112.046 335.818 112.792C336.031 113.513 336.634 114.093 337.356 114.342C338.101 114.602 338.894 114.46 339.509 114.129C340.136 113.797 340.633 113.324 340.941 112.732C341.497 111.608 341.734 110.532 341.887 109.621C342.029 108.71 342.018 107.941 341.911 107.432C341.805 106.923 341.627 106.675 341.604 106.686C341.556 106.71 341.663 106.97 341.71 107.455C341.757 107.952 341.71 108.674 341.533 109.55C341.343 110.413 341.059 111.478 340.527 112.496C340.006 113.43 338.705 114.259 337.51 113.845C336.93 113.643 336.445 113.17 336.279 112.638C336.114 112.094 336.303 111.514 336.551 110.981C336.788 110.449 337.072 109.905 337.155 109.337C337.273 108.769 337.084 108.13 336.682 107.81C335.889 107.136 335.001 107.278 334.516 107.373C334.019 107.479 333.759 107.586 333.771 107.609Z" fill="#EB996E" />
  <path d="M339.427 113.69C339.403 113.679 339.261 113.915 339.273 114.4C339.296 114.862 339.533 115.595 340.278 116.092C341.012 116.577 342.172 116.66 343.189 116.128C344.207 115.595 344.999 114.542 345.39 113.324C345.78 112.093 345.745 110.815 345.39 109.762C345.047 108.697 344.408 107.893 343.792 107.337C343.165 106.781 342.55 106.485 342.124 106.331C341.686 106.177 341.438 106.154 341.426 106.177C341.391 106.272 342.42 106.497 343.544 107.597C344.1 108.141 344.656 108.922 344.952 109.892C345.248 110.863 345.271 112.034 344.916 113.158C344.562 114.27 343.852 115.229 342.976 115.702C342.112 116.187 341.107 116.151 340.468 115.773C339.817 115.394 339.545 114.779 339.474 114.365C339.391 113.951 339.462 113.702 339.427 113.69Z" fill="#EB996E" />
  <path d="M328.506 119.109C328.518 119.062 328.116 118.837 327.346 118.755C326.589 118.672 325.442 118.778 324.341 119.476L324.708 119.725C324.815 119.204 324.909 118.624 324.956 118.033C325.252 114.696 324.187 112.117 324.081 112.188C323.927 112.223 324.744 114.779 324.46 117.985C324.412 118.565 324.329 119.121 324.235 119.63L324.128 120.198L324.602 119.879C325.572 119.228 326.613 119.062 327.323 119.062C328.056 119.05 328.494 119.169 328.506 119.109Z" fill="#EB996E" />
  <path d="M335.333 98.5933C335.202 98.6169 335.392 99.6345 336.303 100.427C337.214 101.232 338.243 101.279 338.243 101.149C338.279 101.007 337.415 100.747 336.634 100.049C335.829 99.3623 335.463 98.5459 335.333 98.5933Z" fill="#EB996E" />
  <path d="M233.024 223.251L267.301 223.582L261.539 198.712L263.467 203.409C267.111 212.271 275.737 218.057 285.32 218.057C296.158 218.057 303.647 209.988 308.238 200.167C318.958 177.202 329.287 140.228 329.287 140.228L308.38 121.865C293.259 150.474 279.038 175.321 279.038 175.321C279.038 175.321 274.932 162.838 271.761 151.717C268.59 140.595 268.614 134.738 263.739 129.177C256.25 120.647 245.578 118.517 235.663 115.961L235.296 162.164L233.024 223.251Z" fill="#ED1164" />
  <path d="M193.814 188.845L256.226 201.008L259.267 224.991H163.561C152.463 225.144 143.636 215.715 144.512 204.652C145.884 187.177 147.387 165.643 148.523 156.544C149.41 149.445 152.238 142.11 155.598 135.792C160.425 126.693 176.528 115.015 190.643 114.436L193.317 173.89" fill="#ED1164" />
  <path d="M181.935 187.105C181.924 187.105 181.912 186.904 181.912 186.537C181.912 186.111 181.912 185.579 181.924 184.905C181.935 183.426 181.947 181.391 181.959 178.894C181.971 173.818 181.876 166.802 181.474 159.064C181.285 155.195 181.024 151.516 180.764 148.167C180.516 144.819 180.22 141.814 179.51 139.388C178.836 136.951 177.735 135.188 176.753 134.171C175.783 133.153 175.073 132.774 175.109 132.727C175.109 132.727 175.854 133.047 176.883 134.052C177.913 135.046 179.084 136.844 179.818 139.305C180.575 141.755 180.906 144.807 181.178 148.144C181.474 151.492 181.734 155.172 181.935 159.052C182.326 166.802 182.373 173.818 182.29 178.906C182.243 181.45 182.172 183.497 182.113 184.916C182.077 185.591 182.042 186.135 182.018 186.549C181.971 186.904 181.947 187.105 181.935 187.105Z" fill="#263238" />
  <path d="M255.031 202.688C254.984 202.747 254.404 201.789 252.76 200.842C251.943 200.369 250.867 199.931 249.577 199.564C248.287 199.198 246.773 198.914 245.105 198.57C238.432 197.21 229.227 195.317 219.016 193.412C208.805 191.507 199.529 189.969 192.809 188.892C189.484 188.36 186.775 187.922 184.846 187.614C183.935 187.461 183.213 187.342 182.681 187.248C182.184 187.165 181.924 187.106 181.935 187.094C181.935 187.082 182.196 187.106 182.693 187.165C183.225 187.236 183.959 187.33 184.87 187.449C186.751 187.697 189.484 188.088 192.856 188.585C199.588 189.578 208.876 191.069 219.099 192.986C229.309 194.891 238.514 196.831 245.164 198.275C246.82 198.641 248.335 198.949 249.636 199.34C250.938 199.73 252.026 200.203 252.843 200.7C253.671 201.197 254.215 201.706 254.558 202.084C254.736 202.262 254.842 202.428 254.925 202.522C254.996 202.629 255.031 202.688 255.031 202.688Z" fill="#263238" />
  <path d="M182.125 187.105C182.148 187.188 180.977 187.46 179.19 188.182C178.303 188.537 177.274 189.046 176.173 189.673C175.085 190.324 173.925 191.104 172.801 192.039C171.689 192.986 170.719 193.991 169.891 194.95C169.086 195.92 168.412 196.855 167.903 197.671C166.885 199.304 166.412 200.404 166.341 200.369C166.317 200.357 166.412 200.073 166.613 199.564C166.803 199.055 167.158 198.345 167.631 197.494C168.104 196.642 168.767 195.683 169.571 194.678C170.399 193.684 171.381 192.654 172.517 191.684C173.665 190.726 174.848 189.945 175.972 189.306C177.108 188.679 178.161 188.206 179.084 187.874C179.995 187.543 180.764 187.33 181.296 187.224C181.817 187.117 182.113 187.07 182.125 187.105Z" fill="#263238" />
  <path d="M262.722 202.049C262.71 202.049 262.663 201.848 262.592 201.457C262.521 201.02 262.426 200.452 262.308 199.742C262.071 198.251 261.752 196.086 261.385 193.412C260.651 188.052 259.776 180.646 259.03 172.434C258.297 164.223 257.835 156.769 257.599 151.362C257.48 148.665 257.41 146.476 257.374 144.961C257.362 144.24 257.35 143.66 257.35 143.222C257.35 142.82 257.35 142.619 257.374 142.619C257.386 142.619 257.41 142.832 257.445 143.222C257.469 143.66 257.516 144.24 257.551 144.961C257.646 146.523 257.764 148.688 257.918 151.35C258.238 156.746 258.735 164.188 259.48 172.399C260.225 180.61 261.054 188.017 261.704 193.376C262.024 196.015 262.296 198.18 262.485 199.73C262.568 200.44 262.639 201.02 262.686 201.457C262.722 201.836 262.746 202.049 262.722 202.049Z" fill="#263238" />
  <path d="M283.415 192.749C283.392 192.773 283.214 192.56 282.919 192.181C282.611 191.803 282.22 191.211 281.771 190.466C280.872 188.975 279.854 186.75 279.239 184.147C278.635 181.545 278.553 179.095 278.695 177.356C278.766 176.481 278.86 175.783 278.967 175.309C279.061 174.836 279.132 174.576 279.168 174.576C279.251 174.588 279.073 175.652 279.014 177.368C278.955 179.084 279.085 181.474 279.677 184.041C280.28 186.597 281.227 188.797 282.043 190.312C282.859 191.826 283.486 192.702 283.415 192.749Z" fill="#263238" />
  <path d="M181.687 154.982C181.687 154.994 181.58 155.018 181.367 155.053C181.154 155.077 180.835 155.136 180.433 155.148C179.616 155.195 178.41 155.148 176.966 154.876C175.523 154.616 173.843 154.071 172.044 153.338C170.258 152.592 168.353 151.646 166.365 150.652C164.377 149.67 162.437 148.83 160.615 148.238C158.793 147.659 157.089 147.327 155.645 147.268C152.735 147.126 151.031 147.907 151.007 147.789C151.007 147.777 151.102 147.73 151.303 147.647C151.504 147.576 151.8 147.434 152.202 147.351C152.995 147.114 154.178 146.925 155.657 146.949C157.136 146.972 158.876 147.28 160.733 147.836C162.591 148.404 164.555 149.244 166.566 150.238C168.566 151.232 170.447 152.19 172.21 152.947C173.973 153.705 175.617 154.261 177.025 154.557C179.853 155.184 181.687 154.876 181.687 154.982Z" fill="#FAFAFA" />
  <path d="M192.371 152.877C192.395 152.996 190.111 153.493 187.283 153.978C184.456 154.463 182.137 154.747 182.125 154.628C182.101 154.51 184.385 154.013 187.212 153.528C190.04 153.043 192.347 152.759 192.371 152.877Z" fill="#FAFAFA" />
  <path d="M181.297 171.441C181.308 171.465 180.859 171.666 180.042 171.985C179.226 172.305 178.019 172.731 176.528 173.216C173.535 174.186 169.323 175.334 164.579 176.174C162.212 176.588 159.941 176.895 157.858 177.096C155.788 177.321 153.895 177.416 152.309 177.25C150.724 177.096 149.481 176.647 148.7 176.221C148.31 176.008 148.026 175.819 147.849 175.665C147.671 175.523 147.576 175.44 147.588 175.428C147.612 175.393 148.002 175.7 148.783 176.067C149.564 176.434 150.783 176.824 152.333 176.931C153.883 177.061 155.752 176.931 157.811 176.682C159.87 176.458 162.129 176.138 164.496 175.724C169.217 174.896 173.417 173.807 176.422 172.908C177.925 172.458 179.143 172.08 179.972 171.808C180.823 171.547 181.285 171.405 181.297 171.441Z" fill="#FAFAFA" />
  <path d="M192.122 175.984C192.122 176.114 190.016 176.244 187.413 176.292C184.81 176.339 182.704 176.268 182.692 176.15C182.692 176.031 184.798 175.889 187.401 175.842C190.016 175.795 192.122 175.866 192.122 175.984Z" fill="#FAFAFA" />
  <path d="M147.635 215.371C147.624 215.371 147.647 215.205 147.73 214.91C147.825 214.567 147.943 214.141 148.073 213.608C148.156 213.324 148.239 213.005 148.334 212.673C148.44 212.33 148.594 211.975 148.736 211.585C149.043 210.816 149.327 209.905 149.801 208.982C150.025 208.509 150.262 208.012 150.511 207.503C150.759 206.994 151.079 206.486 151.374 205.953C151.954 204.865 152.723 203.8 153.504 202.652C155.149 200.428 157.172 198.144 159.562 196.026C161.987 193.944 164.543 192.264 166.968 190.939C168.211 190.323 169.37 189.708 170.53 189.294C171.098 189.069 171.642 188.821 172.186 188.643C172.73 188.478 173.251 188.312 173.748 188.146C174.73 187.803 175.677 187.638 176.481 187.448C176.883 187.366 177.262 187.271 177.605 187.2C177.948 187.153 178.268 187.105 178.563 187.07C179.096 186.999 179.545 186.951 179.9 186.904C180.208 186.869 180.362 186.857 180.374 186.88C180.374 186.892 180.22 186.94 179.912 186.999C179.557 187.07 179.131 187.141 178.599 187.247C178.303 187.295 177.995 187.354 177.652 187.413C177.309 187.484 176.942 187.59 176.54 187.685C175.748 187.898 174.825 188.075 173.854 188.442C173.358 188.608 172.849 188.774 172.316 188.963C171.784 189.14 171.251 189.401 170.684 189.625C169.548 190.063 168.4 190.678 167.181 191.294C164.791 192.619 162.271 194.299 159.881 196.358C157.515 198.452 155.504 200.7 153.859 202.889C153.078 204.013 152.309 205.066 151.717 206.131C151.41 206.663 151.09 207.148 150.83 207.657C150.582 208.166 150.333 208.651 150.108 209.112C149.611 210.023 149.304 210.911 148.984 211.668C148.83 212.046 148.677 212.401 148.558 212.733C148.452 213.064 148.357 213.372 148.263 213.656C148.085 214.164 147.955 214.59 147.837 214.921C147.718 215.229 147.659 215.371 147.635 215.371Z" fill="#FAFAFA" />
  <path d="M190.998 188.821C191.093 188.892 189.105 190.111 187.449 193.282C186.621 194.843 185.911 196.855 185.461 199.15C185 201.445 184.822 204.037 184.645 206.746C184.467 209.467 184.266 212.07 183.757 214.401C183.26 216.732 182.48 218.755 181.592 220.317C180.693 221.879 179.711 222.991 178.954 223.653C178.575 223.985 178.267 224.221 178.043 224.363C177.83 224.517 177.711 224.588 177.7 224.576C177.605 224.505 179.616 223.31 181.308 220.163C182.148 218.613 182.882 216.614 183.343 214.318C183.817 212.023 184.006 209.432 184.183 206.722C184.361 204.001 184.55 201.398 185.047 199.067C185.532 196.736 186.289 194.701 187.165 193.128C188.04 191.554 189.011 190.43 189.756 189.756C190.135 189.425 190.43 189.176 190.655 189.022C190.868 188.88 190.987 188.809 190.998 188.821Z" fill="#FAFAFA" />
  <path d="M205.752 225.121C205.622 225.121 205.776 217.667 206.072 208.486C206.368 199.304 206.723 191.862 206.841 191.862C206.959 191.862 206.817 199.316 206.522 208.498C206.226 217.679 205.871 225.121 205.752 225.121Z" fill="#FAFAFA" />
  <path d="M229.215 223.843C229.179 223.855 229.049 223.464 228.836 222.766C228.718 222.411 228.599 221.985 228.481 221.465C228.363 220.956 228.209 220.376 228.114 219.726C227.866 218.424 227.712 216.862 227.653 215.111C227.629 213.36 227.724 211.432 228.02 209.444C228.339 207.444 228.824 205.587 229.368 203.919C229.948 202.262 230.575 200.819 231.19 199.647C231.474 199.056 231.794 198.547 232.054 198.097C232.314 197.636 232.563 197.269 232.776 196.962C233.202 196.358 233.439 196.027 233.462 196.051C233.533 196.098 232.61 197.435 231.463 199.789C230.883 200.961 230.303 202.404 229.747 204.049C229.226 205.693 228.753 207.539 228.446 209.503C228.15 211.479 228.043 213.372 228.055 215.099C228.091 216.827 228.209 218.377 228.41 219.666C228.812 222.258 229.297 223.819 229.215 223.843Z" fill="#FAFAFA" />
  <path d="M189.366 128.291C189.33 128.362 187.993 127.758 185.757 127.036C183.521 126.315 180.35 125.534 176.765 125.214C173.18 124.907 169.926 125.108 167.595 125.439C165.265 125.759 163.845 126.114 163.821 126.043C163.809 126.007 164.164 125.901 164.803 125.723C165.442 125.534 166.377 125.333 167.548 125.131C169.891 124.729 173.18 124.457 176.812 124.777C180.433 125.096 183.639 125.936 185.863 126.752C186.976 127.155 187.863 127.521 188.466 127.817C189.058 128.089 189.377 128.267 189.366 128.291Z" fill="#FAFAFA" />
  <path d="M257.658 164.638C257.658 164.697 256.427 164.662 254.451 164.591C252.476 164.52 249.742 164.413 246.725 164.33C243.708 164.259 240.975 164.224 238.999 164.2C237.023 164.177 235.793 164.153 235.793 164.094C235.793 164.058 236.101 164.023 236.657 163.987C237.213 163.952 238.005 163.916 238.999 163.881C240.975 163.822 243.72 163.798 246.737 163.881C249.766 163.952 252.499 164.117 254.475 164.271C255.457 164.354 256.262 164.425 256.806 164.496C257.362 164.555 257.658 164.614 257.658 164.638Z" fill="#FAFAFA" />
  <path d="M274.731 161.407C274.755 161.478 273.642 161.856 271.962 162.685C270.282 163.513 268.046 164.862 265.904 166.767C263.775 168.671 262.166 170.742 261.16 172.316C260.142 173.889 259.646 174.954 259.575 174.919C259.551 174.907 259.646 174.635 259.858 174.138C260.06 173.653 260.415 172.966 260.888 172.138C261.846 170.494 263.432 168.364 265.609 166.423C267.786 164.483 270.093 163.158 271.832 162.389C272.696 162.01 273.418 161.738 273.938 161.596C274.435 161.454 274.719 161.383 274.731 161.407Z" fill="#FAFAFA" />
  <path d="M266.307 133.698C266.307 133.804 264.544 133.426 261.917 134.313C260.604 134.727 259.113 135.437 257.48 136.289C255.848 137.117 254.049 138.099 252.002 138.75C247.909 140.087 243.909 139.98 241.164 139.46C239.792 139.199 238.703 138.856 237.97 138.596C237.236 138.312 236.846 138.135 236.858 138.111C236.881 138.028 238.479 138.714 241.212 139.152C243.921 139.59 247.838 139.637 251.848 138.336C253.848 137.697 255.635 136.75 257.279 135.934C258.924 135.106 260.45 134.419 261.799 134.029C263.148 133.627 264.295 133.52 265.088 133.556C265.479 133.556 265.786 133.615 265.987 133.639C266.212 133.65 266.319 133.674 266.307 133.698Z" fill="#FAFAFA" />
  <path d="M262 191.638C262.012 191.661 261.657 191.827 260.994 192.111C260.663 192.253 260.261 192.419 259.776 192.572C259.291 192.726 258.746 192.939 258.131 193.093C256.901 193.448 255.41 193.767 253.73 194.004C252.05 194.217 250.18 194.347 248.228 194.3C246.276 194.229 244.418 193.992 242.75 193.685C241.094 193.341 239.615 192.939 238.408 192.501C237.793 192.312 237.272 192.075 236.799 191.886C236.325 191.697 235.935 191.519 235.616 191.354C234.977 191.034 234.622 190.857 234.645 190.821C234.681 190.738 236.101 191.425 238.526 192.194C239.733 192.584 241.2 192.951 242.845 193.27C244.489 193.554 246.323 193.779 248.252 193.85C250.18 193.897 252.026 193.791 253.683 193.602C255.339 193.389 256.83 193.105 258.06 192.785C260.509 192.158 261.965 191.555 262 191.638Z" fill="#FAFAFA" />
  <path d="M281.866 217.217C281.854 217.229 281.735 217.135 281.534 216.945C281.333 216.744 281.002 216.484 280.647 216.07C279.902 215.289 278.908 214.07 277.914 212.402C275.891 209.101 274.175 203.848 274.057 197.92C273.95 191.992 275.11 186.727 276.021 182.988C276.482 181.119 276.908 179.616 277.204 178.587C277.346 178.114 277.464 177.723 277.571 177.404C277.654 177.132 277.713 176.99 277.725 177.002C277.736 177.002 277.713 177.155 277.654 177.428C277.583 177.759 277.488 178.149 277.37 178.634C277.109 179.747 276.754 181.249 276.328 183.071C275.5 186.81 274.4 192.052 274.506 197.908C274.613 203.765 276.257 208.935 278.186 212.236C279.133 213.893 280.067 215.147 280.777 215.951C281.463 216.768 281.889 217.194 281.866 217.217Z" fill="#FAFAFA" />
  <path d="M313.326 187.863C313.255 187.969 311.835 186.408 308.759 185.295C307.233 184.739 305.351 184.266 303.222 183.852C301.104 183.426 298.737 183.036 296.336 182.267C291.508 180.728 287.722 177.972 285.379 175.676C284.196 174.529 283.344 173.499 282.788 172.766C282.504 172.399 282.315 172.103 282.173 171.902C282.043 171.701 281.972 171.594 281.984 171.583C282.007 171.559 282.327 171.961 282.919 172.659C283.51 173.357 284.397 174.339 285.592 175.451C287.959 177.664 291.721 180.326 296.466 181.841C298.832 182.598 301.175 183 303.293 183.45C305.422 183.887 307.327 184.384 308.854 185C310.392 185.603 311.539 186.325 312.261 186.893C312.64 187.153 312.876 187.425 313.066 187.591C313.243 187.768 313.338 187.863 313.326 187.863Z" fill="#FAFAFA" />
  <path d="M323.205 159.017C323.182 159.041 322.85 158.745 322.282 158.213C321.998 157.941 321.644 157.609 321.218 157.255C320.792 156.9 320.33 156.462 319.762 156.036C318.674 155.148 317.313 154.178 315.751 153.196C314.166 152.238 312.379 151.268 310.415 150.416C308.451 149.588 306.511 148.949 304.724 148.475C302.926 148.026 301.293 147.706 299.897 147.529C299.199 147.411 298.572 147.375 298.016 147.316C297.46 147.257 296.986 147.221 296.584 147.209C295.803 147.162 295.365 147.127 295.365 147.091C295.365 147.056 295.803 147.044 296.596 147.032C296.986 147.02 297.471 147.02 298.039 147.067C298.595 147.103 299.234 147.115 299.944 147.209C301.352 147.34 303.021 147.635 304.831 148.061C306.641 148.523 308.605 149.15 310.605 149.99C312.592 150.854 314.403 151.836 315.988 152.829C317.562 153.847 318.91 154.853 319.987 155.776C320.543 156.213 320.993 156.675 321.407 157.053C321.821 157.432 322.152 157.775 322.424 158.071C322.945 158.662 323.229 158.994 323.205 159.017Z" fill="#FAFAFA" />
  <path d="M247.566 119.334C247.589 119.393 246.974 119.713 245.921 120.127C244.88 120.541 243.401 121.038 241.721 121.428C240.052 121.819 238.502 122.032 237.378 122.126C236.254 122.221 235.556 122.197 235.556 122.138C235.545 121.996 238.301 121.771 241.614 120.991C244.939 120.221 247.518 119.204 247.566 119.334Z" fill="#FAFAFA" />
  <path d="M278.233 241.093C278.718 242.762 277.322 244.383 275.595 244.146C274.66 244.016 273.891 243.353 273.619 242.454L272.885 239.733L272.992 239.768C273.453 241.401 271.879 242.904 270.188 242.738C269.052 242.714 268.07 241.081 267.75 240.218C265.869 240.443 264.082 239.33 263.361 238.112L258.285 230.196L248.891 223.322L254.57 203.019L274.802 216.105C275.595 216.72 275.713 216.98 276.979 218.152L290.029 230.161C288.55 231.048 287.296 230.977 285.237 230.161C283.191 229.344 274.163 223.263 274.163 223.263L278.233 241.093Z" fill="#FFBE9D" />
  <path d="M260.935 224.387C260.959 224.363 261.172 224.494 261.539 224.742C261.752 224.884 261.965 225.038 262.201 225.203C262.462 225.381 262.769 225.618 263.041 225.937C263.313 226.256 263.562 226.647 263.728 227.108C263.881 227.558 264.047 228.031 264.224 228.528C264.568 229.546 264.946 230.634 265.325 231.782C266.094 234.089 266.768 236.195 267.242 237.721C267.703 239.248 267.963 240.206 267.904 240.218C267.845 240.241 267.478 239.319 266.934 237.816C266.39 236.313 265.668 234.231 264.899 231.924C264.52 230.776 264.165 229.688 263.834 228.67C263.68 228.173 263.526 227.7 263.384 227.238C263.242 226.813 263.041 226.446 262.805 226.15C262.568 225.842 262.32 225.618 262.059 225.416C261.834 225.227 261.633 225.05 261.444 224.884C261.089 224.588 260.912 224.411 260.935 224.387Z" fill="#EB996E" />
  <path d="M273.098 240.17C273.063 240.182 272.968 239.875 272.814 239.33C272.637 238.691 272.412 237.911 272.164 237.011C271.619 235.059 270.874 232.35 269.939 229.404C268.993 226.469 268.011 223.819 266.827 222.198C266.248 221.382 265.644 220.837 265.171 220.542C264.698 220.246 264.39 220.163 264.402 220.116C264.402 220.104 264.485 220.116 264.627 220.151C264.781 220.187 264.982 220.27 265.254 220.388C265.774 220.648 266.449 221.181 267.076 221.997C268.366 223.642 269.407 226.304 270.353 229.25C271.3 232.208 271.998 234.929 272.459 236.917C272.696 237.911 272.862 238.715 272.968 239.271C273.086 239.851 273.134 240.159 273.098 240.17Z" fill="#EB996E" />
  <path d="M278.316 241.39C278.281 241.402 278.162 241.07 277.961 240.479C277.748 239.793 277.476 238.952 277.157 237.959C276.494 235.829 275.618 232.871 274.684 229.594C273.773 226.375 272.945 223.453 272.306 221.205C271.974 220.152 271.418 219.442 270.921 219.087C270.424 218.732 270.069 218.685 270.081 218.638C270.081 218.626 270.176 218.614 270.342 218.661C270.507 218.697 270.744 218.78 271.016 218.945C271.572 219.265 272.223 220.022 272.601 221.099C273.311 223.24 274.151 226.186 275.11 229.464C276.056 232.741 276.884 235.711 277.464 237.864C277.725 238.87 277.949 239.722 278.127 240.42C278.281 241.047 278.34 241.39 278.316 241.39Z" fill="#EB996E" />
  <path d="M95.8602 186.668L93.0797 183.887L90.2993 186.668L93.0797 189.448L95.8602 186.668ZM93.0916 184.893L94.8663 186.668L93.0916 188.442L91.3168 186.668L93.0916 184.893Z" fill="white" />
  <path d="M95.8602 164.756L93.0797 161.975L90.2993 164.756L93.0797 167.536L95.8602 164.756ZM93.0916 162.969L94.8663 164.744L93.0916 166.518L91.3168 164.744L93.0916 162.969Z" fill="white" />
  <path d="M84.5727 176.043L81.7922 173.263L79.0118 176.043L81.7922 178.824L84.5727 176.043ZM81.7922 174.257L83.567 176.031L81.7922 177.806L80.0175 176.031L81.7922 174.257Z" fill="white" />
  <path d="M73.2854 186.668L70.505 183.887L67.7245 186.668L70.505 189.448L73.2854 186.668ZM70.505 184.893L72.2797 186.668L70.505 188.442L68.7302 186.668L70.505 184.893Z" fill="white" />
  <path d="M73.2854 164.756L70.505 161.975L67.7245 164.756L70.505 167.536L73.2854 164.756ZM70.505 162.969L72.2797 164.744L70.505 166.518L68.7302 164.744L70.505 162.969Z" fill="white" />
  <path d="M61.9979 176.043L59.2174 173.263L56.437 176.043L59.2174 178.824L61.9979 176.043ZM59.2174 174.257L60.9922 176.031L59.2174 177.806L57.4427 176.031L59.2174 174.257Z" fill="white" />
  <path d="M50.7104 186.668L47.9299 183.887L45.1495 186.668L47.9299 189.448L50.7104 186.668ZM47.9299 184.893L49.7047 186.668L47.9299 188.442L46.1552 186.668L47.9299 184.893Z" fill="white" />
  <path d="M50.7104 164.756L47.9299 161.975L45.1495 164.756L47.9299 167.536L50.7104 164.756ZM47.9299 162.969L49.7047 164.744L47.9299 166.518L46.1552 164.744L47.9299 162.969Z" fill="white" />
  <path d="M39.4232 176.043L36.6427 173.263L33.8623 176.043L36.6427 178.824L39.4232 176.043ZM36.6427 174.257L38.4175 176.031L36.6427 177.806L34.868 176.031L36.6427 174.257Z" fill="white" />
  <path d="M28.1239 186.668L25.3435 183.887L22.563 186.668L25.3435 189.448L28.1239 186.668ZM25.3553 184.893L27.1301 186.668L25.3553 188.442L23.5806 186.668L25.3553 184.893Z" fill="white" />
  <path d="M28.1239 164.756L25.3435 161.975L22.563 164.756L25.3435 167.536L28.1239 164.756ZM25.3553 162.969L27.1301 164.744L25.3553 166.518L23.5806 164.744L25.3553 162.969Z" fill="white" />
  <path d="M16.8364 176.043L14.056 173.263L11.2755 176.043L14.056 178.824L16.8364 176.043ZM14.0678 174.257L15.8426 176.031L14.0678 177.806L12.2931 176.031L14.0678 174.257Z" fill="white" />
  <path d="M5.54904 186.668L2.76861 183.887L0 186.668L2.78044 189.448L5.54904 186.668ZM2.78044 184.893L4.55519 186.668L2.78044 188.442L1.00569 186.668L2.78044 184.893Z" fill="white" />
  <path d="M5.54904 164.756L2.76861 161.975L0 164.756L2.78044 167.536L5.54904 164.756ZM2.78044 162.969L4.55519 164.744L2.78044 166.518L1.00569 164.744L2.78044 162.969Z" fill="white" />
  <path d="M95.8602 208.769L93.0797 205.989L90.2993 208.769L93.0797 211.55L95.8602 208.769ZM93.0916 206.994L94.8663 208.769L93.0916 210.544L91.3168 208.769L93.0916 206.994Z" fill="white" />
  <path d="M84.5727 198.145L81.7922 195.364L79.0118 198.145L81.7922 200.925L84.5727 198.145ZM81.7922 196.358L83.567 198.133L81.7922 199.908L80.0175 198.133L81.7922 196.358Z" fill="white" />
  <path d="M73.2854 208.769L70.505 205.989L67.7245 208.769L70.505 211.55L73.2854 208.769ZM70.505 206.994L72.2797 208.769L70.505 210.544L68.7302 208.769L70.505 206.994Z" fill="white" />
  <path d="M61.9979 198.145L59.2174 195.364L56.437 198.145L59.2174 200.925L61.9979 198.145ZM59.2174 196.358L60.9922 198.133L59.2174 199.908L57.4427 198.133L59.2174 196.358Z" fill="white" />
  <path d="M50.7104 208.769L47.9299 205.989L45.1495 208.769L47.9299 211.55L50.7104 208.769ZM47.9299 206.994L49.7047 208.769L47.9299 210.544L46.1552 208.769L47.9299 206.994Z" fill="white" />
  <path d="M39.4232 198.145L36.6427 195.364L33.8623 198.145L36.6427 200.925L39.4232 198.145ZM36.6427 196.358L38.4175 198.133L36.6427 199.908L34.868 198.133L36.6427 196.358Z" fill="white" />
  <path d="M28.1239 208.769L25.3435 205.989L22.563 208.769L25.3435 211.55L28.1239 208.769ZM25.3553 206.994L27.1301 208.769L25.3553 210.544L23.5806 208.769L25.3553 206.994Z" fill="white" />
  <path d="M16.8364 198.145L14.056 195.364L11.2755 198.145L14.056 200.925L16.8364 198.145ZM14.0678 196.358L15.8426 198.133L14.0678 199.908L12.2931 198.133L14.0678 196.358Z" fill="white" />
  <path d="M5.54904 208.769L2.76861 205.989L0 208.769L2.78044 211.55L5.54904 208.769ZM2.78044 206.994L4.55519 208.769L2.78044 210.544L1.00569 208.769L2.78044 206.994Z" fill="white" />
  <path d="M95.8602 229.522L93.0797 226.742L90.2993 229.522L93.0797 232.303L95.8602 229.522ZM93.0916 227.747L94.8663 229.522L93.0916 231.297L91.3168 229.522L93.0916 227.747Z" fill="white" />
  <path d="M84.5728 218.886L81.7923 216.105L79.0237 218.886L81.8042 221.666L84.5728 218.886ZM81.7923 217.111L83.5671 218.886L81.7923 220.661L80.0176 218.886L81.7923 217.111Z" fill="white" />
  <path d="M73.2854 229.522L70.505 226.742L67.7245 229.522L70.505 232.303L73.2854 229.522ZM70.505 227.747L72.2797 229.522L70.505 231.297L68.7302 229.522L70.505 227.747Z" fill="white" />
  <path d="M61.9978 218.886L59.2173 216.105L56.4487 218.886L59.2292 221.666L61.9978 218.886ZM59.2173 217.111L60.9921 218.886L59.2173 220.661L57.4426 218.886L59.2173 217.111Z" fill="white" />
  <path d="M50.7104 229.522L47.9299 226.742L45.1495 229.522L47.9299 232.303L50.7104 229.522ZM47.9299 227.747L49.7047 229.522L47.9299 231.297L46.1552 229.522L47.9299 227.747Z" fill="white" />
  <path d="M39.4232 218.886L36.6427 216.105L33.8623 218.886L36.6427 221.666L39.4232 218.886ZM36.6427 217.111L38.4175 218.886L36.6427 220.661L34.868 218.886L36.6427 217.111Z" fill="white" />
  <path d="M28.1239 229.522L25.3435 226.742L22.563 229.522L25.3435 232.303L28.1239 229.522ZM25.3553 227.747L27.1301 229.522L25.3553 231.297L23.5806 229.522L25.3553 227.747Z" fill="white" />
  <path d="M16.8366 218.886L14.0561 216.105L11.2875 218.886L14.0679 221.666L16.8366 218.886ZM14.0679 217.111L15.8427 218.886L14.0679 220.661L12.2932 218.886L14.0679 217.111Z" fill="white" />
  <path d="M5.54904 229.522L2.76861 226.742L0 229.522L2.78044 232.303L5.54904 229.522ZM2.78044 227.747L4.55519 229.522L2.78044 231.297L1.00569 229.522L2.78044 227.747Z" fill="white" />
  <path d="M95.8602 250.275L93.0797 247.494L90.2993 250.275L93.0797 253.055L95.8602 250.275ZM93.0916 248.5L94.8663 250.275L93.0916 252.049L91.3168 250.275L93.0916 248.5Z" fill="white" />
  <path d="M84.5727 239.638L81.7922 236.858L79.0118 239.638L81.7922 242.419L84.5727 239.638ZM81.7922 237.864L83.567 239.638L81.7922 241.413L80.0175 239.638L81.7922 237.864Z" fill="white" />
  <path d="M73.2854 250.275L70.505 247.494L67.7245 250.275L70.505 253.055L73.2854 250.275ZM70.505 248.5L72.2797 250.275L70.505 252.049L68.7302 250.275L70.505 248.5Z" fill="white" />
  <path d="M61.9979 239.638L59.2174 236.858L56.437 239.638L59.2174 242.419L61.9979 239.638ZM59.2174 237.864L60.9922 239.638L59.2174 241.413L57.4427 239.638L59.2174 237.864Z" fill="white" />
  <path d="M50.7104 250.275L47.9299 247.494L45.1495 250.275L47.9299 253.055L50.7104 250.275ZM47.9299 248.5L49.7047 250.275L47.9299 252.049L46.1552 250.275L47.9299 248.5Z" fill="white" />
  <path d="M39.4232 239.638L36.6427 236.858L33.8623 239.638L36.6427 242.419L39.4232 239.638ZM36.6427 237.864L38.4175 239.638L36.6427 241.413L34.868 239.638L36.6427 237.864Z" fill="white" />
  <path d="M28.1239 250.275L25.3435 247.494L22.563 250.275L25.3435 253.055L28.1239 250.275ZM25.3553 248.5L27.1301 250.275L25.3553 252.049L23.5806 250.275L25.3553 248.5Z" fill="white" />
  <path d="M16.8364 239.638L14.056 236.858L11.2755 239.638L14.056 242.419L16.8364 239.638ZM14.0678 237.864L15.8426 239.638L14.0678 241.413L12.2931 239.638L14.0678 237.864Z" fill="white" />
  <path d="M5.54904 250.275L2.76861 247.494L0 250.275L2.78044 253.055L5.54904 250.275ZM2.78044 248.5L4.55519 250.275L2.78044 252.049L1.00569 250.275L2.78044 248.5Z" fill="white" />
  <path d="M700.8 24.693L698.02 21.9126L695.24 24.693L698.02 27.4735L700.8 24.693ZM698.02 22.9183L699.795 24.693L698.02 26.4678L696.245 24.693L698.02 22.9183Z" fill="white" />
  <path d="M700.8 2.78044L698.02 0L695.24 2.78044L698.02 5.56088L700.8 2.78044ZM698.02 0.993859L699.795 2.76861L698.02 4.54335L696.245 2.76861L698.02 0.993859Z" fill="white" />
  <path d="M689.513 14.068L686.733 11.2876L683.953 14.068L686.733 16.8485L689.513 14.068ZM686.733 12.2815L688.508 14.0562L686.733 15.831L684.958 14.0562L686.733 12.2815Z" fill="white" />
  <path d="M678.214 24.693L675.434 21.9126L672.653 24.693L675.434 27.4735L678.214 24.693ZM675.446 22.9183L677.22 24.693L675.446 26.4678L673.671 24.693L675.446 22.9183Z" fill="white" />
  <path d="M678.214 2.78044L675.445 0L672.665 2.78044L675.445 5.56088L678.214 2.78044ZM675.445 0.993859L677.22 2.76861L675.445 4.54335L673.671 2.76861L675.445 0.993859Z" fill="white" />
  <path d="M666.927 14.068L664.146 11.2876L661.366 14.068L664.146 16.8485L666.927 14.068ZM664.158 12.2815L665.933 14.0562L664.158 15.831L662.383 14.0562L664.158 12.2815Z" fill="white" />
  <path d="M655.639 24.693L652.859 21.9126L650.078 24.693L652.859 27.4735L655.639 24.693ZM652.87 22.9183L654.645 24.693L652.87 26.4678L651.096 24.693L652.87 22.9183Z" fill="white" />
  <path d="M655.639 2.78044L652.871 0L650.09 2.78044L652.871 5.56088L655.639 2.78044ZM652.871 0.993859L654.645 2.76861L652.871 4.54335L651.096 2.76861L652.871 0.993859Z" fill="white" />
  <path d="M644.352 14.068L641.571 11.2876L638.791 14.068L641.571 16.8485L644.352 14.068ZM641.571 12.2815L643.346 14.0562L641.571 15.831L639.797 14.0562L641.571 12.2815Z" fill="white" />
  <path d="M633.064 24.693L630.284 21.9126L627.503 24.693L630.284 27.4735L633.064 24.693ZM630.284 22.9183L632.059 24.693L630.284 26.4678L628.509 24.693L630.284 22.9183Z" fill="white" />
  <path d="M633.064 2.78044L630.284 0L627.503 2.78044L630.284 5.56088L633.064 2.78044ZM630.284 0.993859L632.059 2.76861L630.284 4.54335L628.509 2.76861L630.284 0.993859Z" fill="white" />
  <path d="M621.777 14.068L618.997 11.2876L616.216 14.068L618.997 16.8485L621.777 14.068ZM618.997 12.2815L620.771 14.0562L618.997 15.831L617.222 14.0562L618.997 12.2815Z" fill="white" />
  <path d="M610.49 24.693L607.709 21.9126L604.929 24.693L607.709 27.4735L610.49 24.693ZM607.709 22.9183L609.484 24.693L607.709 26.4678L605.934 24.693L607.709 22.9183Z" fill="white" />
  <path d="M610.49 2.78044L607.709 0L604.929 2.78044L607.709 5.56088L610.49 2.78044ZM607.709 0.993859L609.484 2.76861L607.709 4.54335L605.934 2.76861L607.709 0.993859Z" fill="white" />
  <path d="M700.8 46.7946L698.02 44.0142L695.24 46.7946L698.02 49.575L700.8 46.7946ZM698.02 45.0198L699.795 46.7946L698.02 48.5693L696.245 46.7946L698.02 45.0198Z" fill="white" />
  <path d="M689.513 36.1691L686.733 33.3887L683.953 36.1691L686.733 38.9495L689.513 36.1691ZM686.733 34.3825L688.508 36.1573L686.733 37.932L684.958 36.1573L686.733 34.3825Z" fill="white" />
  <path d="M678.214 46.7946L675.434 44.0142L672.653 46.7946L675.434 49.575L678.214 46.7946ZM675.446 45.0198L677.22 46.7946L675.446 48.5693L673.671 46.7946L675.446 45.0198Z" fill="white" />
  <path d="M666.927 36.1691L664.146 33.3887L661.366 36.1691L664.146 38.9495L666.927 36.1691ZM664.158 34.3825L665.933 36.1573L664.158 37.932L662.383 36.1573L664.158 34.3825Z" fill="white" />
  <path d="M655.639 46.7946L652.859 44.0142L650.078 46.7946L652.859 49.575L655.639 46.7946ZM652.87 45.0198L654.645 46.7946L652.87 48.5693L651.096 46.7946L652.87 45.0198Z" fill="white" />
  <path d="M644.352 36.1691L641.571 33.3887L638.791 36.1691L641.571 38.9495L644.352 36.1691ZM641.571 34.3825L643.346 36.1573L641.571 37.932L639.797 36.1573L641.571 34.3825Z" fill="white" />
  <path d="M633.064 46.7946L630.284 44.0142L627.503 46.7946L630.284 49.575L633.064 46.7946ZM630.284 45.0198L632.059 46.7946L630.284 48.5693L628.509 46.7946L630.284 45.0198Z" fill="white" />
  <path d="M621.777 36.1691L618.997 33.3887L616.216 36.1691L618.997 38.9495L621.777 36.1691ZM618.997 34.3825L620.771 36.1573L618.997 37.932L617.222 36.1573L618.997 34.3825Z" fill="white" />
  <path d="M610.49 46.7946L607.709 44.0142L604.929 46.7946L607.709 49.575L610.49 46.7946ZM607.709 45.0198L609.484 46.7946L607.709 48.5693L605.934 46.7946L607.709 45.0198Z" fill="white" />
  <path d="M700.8 67.547L698.02 64.7666L695.24 67.547L698.02 70.3275L700.8 67.547ZM698.02 65.7723L699.795 67.547L698.02 69.3218L696.245 67.547L698.02 65.7723Z" fill="white" />
  <path d="M689.513 56.9103L686.733 54.1299L683.953 56.9103L686.733 59.6908L689.513 56.9103ZM686.733 55.1356L688.508 56.9103L686.733 58.6851L684.958 56.9103L686.733 55.1356Z" fill="white" />
  <path d="M678.214 67.547L675.434 64.7666L672.653 67.547L675.434 70.3275L678.214 67.547ZM675.446 65.7723L677.22 67.547L675.446 69.3218L673.671 67.547L675.446 65.7723Z" fill="white" />
  <path d="M666.927 56.9103L664.146 54.1299L661.366 56.9103L664.146 59.6908L666.927 56.9103ZM664.158 55.1356L665.933 56.9103L664.158 58.6851L662.383 56.9103L664.158 55.1356Z" fill="white" />
  <path d="M655.639 67.547L652.859 64.7666L650.078 67.547L652.859 70.3275L655.639 67.547ZM652.87 65.7723L654.645 67.547L652.87 69.3218L651.096 67.547L652.87 65.7723Z" fill="white" />
  <path d="M644.352 56.9103L641.571 54.1299L638.791 56.9103L641.571 59.6908L644.352 56.9103ZM641.571 55.1356L643.346 56.9103L641.571 58.6851L639.797 56.9103L641.571 55.1356Z" fill="white" />
  <path d="M633.064 67.547L630.284 64.7666L627.503 67.547L630.284 70.3275L633.064 67.547ZM630.284 65.7723L632.059 67.547L630.284 69.3218L628.509 67.547L630.284 65.7723Z" fill="white" />
  <path d="M621.777 56.9103L618.997 54.1299L616.216 56.9103L618.997 59.6908L621.777 56.9103ZM618.997 55.1356L620.771 56.9103L618.997 58.6851L617.222 56.9103L618.997 55.1356Z" fill="white" />
  <path d="M610.49 67.547L607.709 64.7666L604.929 67.547L607.709 70.3275L610.49 67.547ZM607.709 65.7723L609.484 67.547L607.709 69.3218L605.934 67.547L607.709 65.7723Z" fill="white" />
  <path d="M700.8 88.3L698.02 85.5195L695.24 88.3L698.02 91.0804L700.8 88.3ZM698.02 86.5252L699.795 88.3L698.02 90.0747L696.245 88.3L698.02 86.5252Z" fill="white" />
  <path d="M689.513 77.6632L686.733 74.8828L683.953 77.6632L686.733 80.4437L689.513 77.6632ZM686.733 75.8885L688.508 77.6632L686.733 79.438L684.958 77.6632L686.733 75.8885Z" fill="white" />
  <path d="M678.214 88.3L675.434 85.5195L672.653 88.3L675.434 91.0804L678.214 88.3ZM675.446 86.5252L677.22 88.3L675.446 90.0747L673.671 88.3L675.446 86.5252Z" fill="white" />
  <path d="M666.927 77.6632L664.146 74.8828L661.366 77.6632L664.146 80.4437L666.927 77.6632ZM664.158 75.8885L665.933 77.6632L664.158 79.438L662.383 77.6632L664.158 75.8885Z" fill="white" />
  <path d="M655.639 88.3L652.859 85.5195L650.078 88.3L652.859 91.0804L655.639 88.3ZM652.87 86.5252L654.645 88.3L652.87 90.0747L651.096 88.3L652.87 86.5252Z" fill="white" />
  <path d="M644.352 77.6632L641.571 74.8828L638.791 77.6632L641.571 80.4437L644.352 77.6632ZM641.571 75.8885L643.346 77.6632L641.571 79.438L639.797 77.6632L641.571 75.8885Z" fill="white" />
  <path d="M633.064 88.3L630.284 85.5195L627.503 88.3L630.284 91.0804L633.064 88.3ZM630.284 86.5252L632.059 88.3L630.284 90.0747L628.509 88.3L630.284 86.5252Z" fill="white" />
  <path d="M621.777 77.6632L618.997 74.8828L616.216 77.6632L618.997 80.4437L621.777 77.6632ZM618.997 75.8885L620.771 77.6632L618.997 79.438L617.222 77.6632L618.997 75.8885Z" fill="white" />
  <path d="M610.49 88.3L607.709 85.5195L604.929 88.3L607.709 91.0804L610.49 88.3ZM607.709 86.5252L609.484 88.3L607.709 90.0747L605.934 88.3L607.709 86.5252Z" fill="white" />
  <path d="M406.038 130.564V123.29H391.664V118.701H404.74V111.946H391.664V107.79H405.692V100.386H383.437V130.564H406.038ZM425.658 99.9528C421.069 99.9528 417.172 101.468 413.925 104.499C410.677 107.53 409.075 111.21 409.075 115.497C409.075 119.783 410.677 123.463 413.925 126.494C417.172 129.482 421.069 130.997 425.658 130.997C428.299 130.997 430.767 130.477 433.062 129.395L435.703 132.296L441.115 127.62L438.647 124.849C441.072 122.121 442.284 119.004 442.284 115.497C442.284 111.21 440.682 107.53 437.435 104.499C434.188 101.468 430.291 99.9528 425.658 99.9528ZM417.475 115.497C417.475 113.288 418.254 111.34 419.856 109.738C421.458 108.136 423.407 107.313 425.658 107.313C427.91 107.313 429.858 108.136 431.46 109.781C433.062 111.383 433.885 113.288 433.885 115.497C433.885 116.882 433.668 118.051 433.192 118.96L429.858 115.237L424.446 119.913L427.65 123.463C427.087 123.593 426.438 123.636 425.658 123.636C423.407 123.636 421.458 122.857 419.856 121.298C418.254 119.696 417.475 117.791 417.475 115.497ZM445.711 117.575C445.711 121.948 447.01 125.282 449.565 127.576C452.119 129.871 455.367 130.997 459.263 130.997C463.16 130.997 466.407 129.871 468.962 127.576C471.517 125.282 472.815 121.948 472.815 117.575V100.386H464.589V116.709C464.589 121.688 462.684 123.55 459.263 123.55C455.843 123.55 453.938 121.688 453.938 116.709V100.386H445.711V117.575ZM485.789 130.564V100.386H477.562V130.564H485.789ZM499.104 130.564V121.818H505.035C507.677 121.818 510.101 120.822 512.309 118.787C514.518 116.752 515.643 114.198 515.643 111.123C515.643 107.66 514.085 104.715 511.963 103.027C509.841 101.295 507.33 100.386 505.035 100.386H490.877V130.564H499.104ZM499.104 107.833H504.646C505.035 107.833 505.382 107.876 506.204 108.223C507.027 108.569 507.547 109.608 507.547 111.123C507.547 112.552 507.027 113.591 506.204 113.938C505.468 114.284 505.079 114.371 504.689 114.371H499.104V107.833ZM551.206 115.583C551.206 111.253 549.561 107.573 546.314 104.542C543.066 101.468 539.17 99.9528 534.537 99.9528C529.904 99.9528 526.007 101.468 522.76 104.542C519.513 107.616 517.911 111.297 517.911 115.583C517.911 119.87 519.513 123.55 522.76 126.624C526.007 129.655 529.904 131.17 534.537 131.17C539.17 131.17 543.066 129.655 546.314 126.624C549.561 123.55 551.206 119.87 551.206 115.583ZM526.31 115.583C526.31 113.332 527.133 111.383 528.735 109.781C530.337 108.136 532.285 107.313 534.537 107.313C536.788 107.313 538.737 108.136 540.339 109.781C541.984 111.427 542.807 113.375 542.807 115.583C542.807 117.791 541.984 119.74 540.339 121.385C538.737 122.987 536.788 123.81 534.537 123.81C532.242 123.81 530.294 123.03 528.692 121.428C527.09 119.826 526.31 117.878 526.31 115.583Z" fill="#ED1164" />
  <path d="M401.802 60.6124C402.198 60.6124 402.469 60.7926 402.613 61.1529C402.739 61.5312 402.658 61.8555 402.37 62.1258L399.316 64.639C398.992 64.9092 398.649 64.9182 398.289 64.666C398.217 64.6119 398.163 64.5669 398.127 64.5309C397.839 64.1886 397.83 63.8373 398.1 63.4769C398.154 63.4229 398.199 63.3688 398.235 63.3148L401.289 60.8016C401.451 60.6935 401.622 60.6305 401.802 60.6124ZM382.264 64.0444C384.75 64.0264 386.813 64.702 388.452 66.0712C388.849 66.4315 389.191 66.8098 389.479 67.2062C390.975 69.1879 391.173 71.6741 390.074 74.6647C389.786 75.4214 389.434 76.178 389.02 76.9347L384.237 85.4201C384.111 85.6543 383.994 85.9065 383.885 86.1768C383.795 86.447 383.723 86.7172 383.669 86.9875C383.615 87.2577 383.579 87.5279 383.561 87.7982C383.543 88.0684 383.543 88.3387 383.561 88.6089C383.597 88.8611 383.651 89.1133 383.723 89.3655C384.102 90.6627 384.876 91.4283 386.047 91.6626C387.669 91.9688 389.137 91.6085 390.452 90.5816C390.578 90.4735 390.704 90.3654 390.831 90.2573C392.11 89.1043 393.641 86.9965 395.425 83.9338C395.515 83.7717 395.596 83.6185 395.668 83.4744L402.37 71.53L404.369 67.9899C404.549 67.7016 404.802 67.5575 405.126 67.5575C405.54 67.5575 405.811 67.7557 405.937 68.152C405.991 68.4042 405.955 68.6294 405.829 68.8276L403.829 72.3677L397.154 84.2851C397.082 84.4292 397.01 84.5644 396.938 84.6905C396.578 85.3931 396.307 86.0777 396.127 86.7443C395.965 87.3928 395.884 87.9783 395.884 88.5008C395.884 89.0232 395.965 89.5187 396.127 89.9871C396.596 91.3923 397.577 92.4102 399.073 93.0408C400.82 93.7434 402.631 93.7344 404.504 93.0137C406.126 92.3652 407.432 91.2752 408.423 89.7439C408.639 89.3655 408.954 89.2484 409.369 89.3926C409.459 89.4106 409.531 89.4376 409.585 89.4736C409.945 89.7078 410.062 90.0321 409.936 90.4465C409.9 90.5186 409.873 90.5816 409.855 90.6357C408.414 92.9237 406.432 94.3649 403.91 94.9594C401.982 95.4098 400.163 95.2927 398.451 94.6081C396.614 93.8515 395.352 92.6264 394.668 90.9329C394.614 90.7888 394.56 90.6447 394.506 90.5005C394.326 89.906 394.145 89.5998 393.965 89.5817C393.821 89.5998 393.569 89.8159 393.209 90.2303C392.776 90.7167 392.353 91.1491 391.938 91.5274C390.065 93.1489 388.002 93.7524 385.75 93.338C384.237 93.0498 383.129 92.176 382.426 90.7167C382.282 90.4105 382.165 90.1042 382.075 89.7979C381.624 87.9964 381.859 86.2668 382.777 84.6094L387.534 76.124C389.407 72.7911 389.605 70.1518 388.128 68.2061C387.191 66.945 385.732 66.1613 383.75 65.855C383.246 65.7649 382.75 65.7199 382.264 65.7199C379.85 65.7559 377.868 66.4315 376.319 67.7467C374.625 69.242 373.887 71.2597 374.103 73.8C374.229 75.3673 374.896 76.5834 376.103 77.4481C376.949 78.0427 377.868 78.3129 378.859 78.2588C379.273 78.2408 379.553 78.43 379.697 78.8263C379.733 78.9164 379.751 78.9975 379.751 79.0696C379.769 79.4839 379.58 79.7632 379.183 79.9073C379.093 79.9253 379.012 79.9433 378.94 79.9613C377.103 80.0514 375.526 79.4028 374.211 78.0156C373.148 76.8806 372.545 75.5205 372.4 73.9351C372.166 70.9805 373.004 68.5844 374.914 66.7468C375.022 66.6567 375.121 66.5666 375.211 66.4766C377.085 64.8732 379.436 64.0624 382.264 64.0444ZM409.764 75.0971C410.16 75.1151 410.52 75.2052 410.844 75.3673C411.511 75.7096 411.862 76.3222 411.898 77.2049C411.898 77.295 411.898 77.3671 411.898 77.4211C411.862 78.2679 411.547 79.2948 410.953 80.5018C410.826 80.772 410.682 81.0603 410.52 81.3666C410.502 81.4206 410.484 81.4656 410.466 81.5017C410.448 81.5377 410.394 81.6278 410.304 81.7719C410.142 82.0962 409.962 82.4385 409.764 82.7988C409.547 83.2132 409.34 83.6185 409.142 84.0149C408.638 85.0598 408.394 85.8975 408.412 86.5281C408.448 86.7443 408.502 86.8794 408.574 86.9334C408.755 87.0415 409.043 87.0775 409.439 87.0415C410.016 86.9695 410.655 86.5551 411.358 85.7984C412.223 84.8796 413.114 83.5735 414.033 81.88C414.231 81.4837 414.547 81.3395 414.979 81.4476C415.051 81.4656 415.123 81.4927 415.195 81.5287C415.574 81.7269 415.709 82.0422 415.601 82.4745C415.583 82.5466 415.556 82.6096 415.52 82.6637C414.511 84.5373 413.538 85.9696 412.601 86.9604C411.574 88.0234 410.574 88.6089 409.601 88.717C408.737 88.8071 408.052 88.6629 407.548 88.2846C407.061 87.8883 406.791 87.3388 406.737 86.6362C406.683 85.6993 406.98 84.5824 407.629 83.2852C407.755 83.015 407.899 82.7267 408.061 82.4205C408.079 82.3664 408.097 82.3214 408.115 82.2854C408.133 82.2493 408.178 82.1593 408.25 82.0151C408.43 81.6908 408.62 81.3485 408.818 80.9882C409.034 80.5739 409.241 80.1595 409.439 79.7451C409.944 78.7543 410.205 77.9616 410.223 77.3671C410.223 77.0788 410.169 76.9077 410.061 76.8536C409.845 76.7635 409.52 76.7816 409.088 76.9077C408.493 77.1058 407.872 77.4391 407.223 77.9075C406.052 78.8083 405.043 79.9703 404.197 81.3936L400.305 88.3387C400.089 88.717 399.774 88.8521 399.359 88.744C399.287 88.726 399.215 88.699 399.143 88.6629C398.765 88.4467 398.63 88.1315 398.738 87.7171C398.774 87.627 398.801 87.555 398.819 87.5009L402.413 81.1504C402.413 81.1324 402.413 81.1233 402.413 81.1233C402.503 80.9432 402.611 80.754 402.737 80.5559L404.71 77.0428L405.521 75.5565C405.683 75.2682 405.926 75.1151 406.25 75.0971C406.557 75.1151 406.791 75.2412 406.953 75.4754C407.097 75.7276 407.322 75.7907 407.629 75.6646C407.683 75.6466 407.719 75.6376 407.737 75.6376C408.043 75.4934 408.331 75.3763 408.601 75.2863C409.034 75.1601 409.421 75.0971 409.764 75.0971ZM421.554 75.043C421.644 75.043 421.725 75.043 421.797 75.043H421.824C422.545 75.1151 423.113 75.4304 423.527 75.9889C423.887 76.5113 424.049 77.1239 424.013 77.8265C423.959 79.2137 423.275 80.4207 421.96 81.4476C421.87 81.5197 421.797 81.5737 421.743 81.6098C420.789 82.2764 419.536 82.7177 417.987 82.9339C417.429 83.006 416.897 83.051 416.393 83.069C415.834 83.069 415.474 83.2402 415.312 83.5825C415.258 83.7266 415.204 83.8798 415.15 84.0419C414.969 85.1048 415.096 85.9155 415.528 86.474C415.834 86.8524 416.411 87.0595 417.257 87.0956C417.726 87.0956 418.194 87.0325 418.663 86.9064C420.68 86.2758 422.428 84.6004 423.905 81.88C424.103 81.4837 424.41 81.3395 424.824 81.4476C424.914 81.4656 424.986 81.4927 425.04 81.5287C425.437 81.7269 425.581 82.0422 425.473 82.4745C425.437 82.5466 425.41 82.6096 425.392 82.6637C423.716 85.7804 421.662 87.7171 419.23 88.4738C419.194 88.4918 419.158 88.5098 419.122 88.5278C417.393 89.0323 415.96 88.8971 414.825 88.1225C414.591 87.9423 414.384 87.7441 414.204 87.5279C413.447 86.5551 413.213 85.285 413.501 83.7176C413.753 82.4205 414.33 81.0783 415.231 79.6911C416.113 78.3579 417.113 77.259 418.23 76.3942C419.419 75.4934 420.527 75.043 421.554 75.043ZM421.554 76.7185C420.87 76.7545 420.104 77.0968 419.257 77.7454C418.284 78.5021 417.411 79.4569 416.636 80.6099C416.366 81.0423 416.483 81.2675 416.987 81.2855C417.185 81.3035 417.447 81.2945 417.771 81.2585C419.05 81.0783 420.041 80.736 420.744 80.2316C421.716 79.547 422.248 78.7453 422.338 77.8265C422.338 77.7904 422.338 77.7634 422.338 77.7454C422.356 77.4211 422.293 77.1689 422.149 76.9887C422.023 76.8446 421.87 76.7545 421.689 76.7185C421.653 76.7185 421.608 76.7185 421.554 76.7185ZM431.911 68.4493C432.325 68.4493 432.595 68.6475 432.721 69.0438C432.793 69.278 432.766 69.5032 432.64 69.7194L430.235 73.9891C429.911 74.5836 429.902 74.9079 430.208 74.962C430.334 74.98 430.523 74.98 430.776 74.962H431.965C432.379 74.962 432.649 75.1601 432.775 75.5565C432.793 75.6466 432.811 75.7276 432.829 75.7997C432.829 76.2321 432.622 76.5023 432.208 76.6104C432.118 76.6464 432.037 76.6645 431.965 76.6645H429.965C429.19 76.6645 428.686 76.8446 428.452 77.2049C428.434 77.241 428.371 77.3491 428.262 77.5292L426.019 81.5017C425.605 82.2764 425.164 83.1141 424.695 84.0149C424.191 85.0598 423.957 85.8975 423.993 86.5281C424.029 86.7443 424.083 86.8794 424.155 86.9334C424.335 87.0415 424.623 87.0775 425.02 87.0415C425.578 86.9695 426.218 86.5551 426.938 85.7984C427.803 84.8796 428.695 83.5735 429.614 81.88C429.812 81.4837 430.118 81.3395 430.532 81.4476C430.622 81.4656 430.695 81.4927 430.749 81.5287C431.127 81.7269 431.271 82.0422 431.181 82.4745C431.145 82.5466 431.118 82.6096 431.1 82.6637C430.091 84.5373 429.109 85.9696 428.154 86.9604C427.145 88.0234 426.155 88.6089 425.182 88.717C424.317 88.8071 423.632 88.6629 423.128 88.2846C422.642 87.8883 422.371 87.3388 422.317 86.6362C422.263 85.6993 422.551 84.5824 423.182 83.2852C423.668 82.3124 424.128 81.4476 424.56 80.691L426.344 77.5022C426.614 77.0158 426.533 76.7455 426.101 76.6915C426.01 76.6735 425.911 76.6645 425.803 76.6645H424.614C424.182 76.6645 423.903 76.4663 423.777 76.0699C423.758 75.9799 423.749 75.8898 423.749 75.7997C423.749 75.3853 423.948 75.1241 424.344 75.016C424.434 74.98 424.524 74.962 424.614 74.962H426.587C427.218 74.962 427.695 74.7728 428.019 74.3945C428.145 74.2503 428.253 74.0882 428.343 73.908L431.154 68.8817C431.334 68.6114 431.586 68.4673 431.911 68.4493ZM437.098 75.043C437.188 75.043 437.269 75.043 437.341 75.043H437.368C438.089 75.1151 438.656 75.4304 439.071 75.9889C439.431 76.5113 439.593 77.1239 439.557 77.8265C439.503 79.2137 438.819 80.4207 437.503 81.4476C437.413 81.5197 437.341 81.5737 437.287 81.6098C436.332 82.2764 435.08 82.7177 433.531 82.9339C432.972 83.006 432.441 83.051 431.937 83.069C431.378 83.069 431.018 83.2402 430.856 83.5825C430.802 83.7266 430.748 83.8798 430.693 84.0419C430.513 85.1048 430.639 85.9155 431.072 86.474C431.378 86.8524 431.955 87.0595 432.801 87.0956C433.27 87.0956 433.738 87.0325 434.207 86.9064C436.224 86.2758 437.972 84.6004 439.449 81.88C439.647 81.4837 439.954 81.3395 440.368 81.4476C440.458 81.4656 440.53 81.4927 440.584 81.5287C440.98 81.7269 441.125 82.0422 441.017 82.4745C440.98 82.5466 440.953 82.6096 440.935 82.6637C439.26 85.7804 437.206 87.7171 434.774 88.4738C434.738 88.4918 434.702 88.5098 434.666 88.5278C432.936 89.0323 431.504 88.8971 430.369 88.1225C430.135 87.9423 429.928 87.7441 429.748 87.5279C428.991 86.5551 428.757 85.285 429.045 83.7176C429.297 82.4205 429.874 81.0783 430.775 79.6911C431.657 78.3579 432.657 77.259 433.774 76.3942C434.963 75.4934 436.071 75.043 437.098 75.043ZM437.098 76.7185C436.413 76.7545 435.648 77.0968 434.801 77.7454C433.828 78.5021 432.954 79.4569 432.18 80.6099C431.91 81.0423 432.027 81.2675 432.531 81.2855C432.729 81.3035 432.99 81.2945 433.315 81.2585C434.594 81.0783 435.585 80.736 436.287 80.2316C437.26 79.547 437.792 78.7453 437.882 77.8265C437.882 77.7904 437.882 77.7634 437.882 77.7454C437.9 77.4211 437.837 77.1689 437.693 76.9887C437.566 76.8446 437.413 76.7545 437.233 76.7185C437.197 76.7185 437.152 76.7185 437.098 76.7185ZM456.489 75.0701C456.903 75.0701 457.29 75.1331 457.651 75.2592C458.119 75.4394 458.497 75.7276 458.786 76.124C459.038 76.4663 459.227 76.5474 459.353 76.3672C459.353 76.3312 459.362 76.3041 459.38 76.2861C459.542 76.0159 459.785 75.8718 460.11 75.8537C460.524 75.8537 460.794 76.0609 460.92 76.4753C460.993 76.6915 460.965 76.9077 460.839 77.1239L458.38 81.5017C457.966 82.2583 457.524 83.0961 457.056 84.0149C456.552 85.0598 456.317 85.8975 456.353 86.5281C456.371 86.7443 456.426 86.8794 456.516 86.9334C456.696 87.0415 456.975 87.0775 457.353 87.0415C457.93 86.9695 458.578 86.5551 459.299 85.7984C460.164 84.8976 461.056 83.5915 461.974 81.88C462.173 81.4837 462.479 81.3395 462.893 81.4476C462.983 81.4656 463.055 81.4927 463.109 81.5287C463.506 81.7269 463.65 82.0422 463.542 82.4745C463.506 82.5466 463.479 82.6096 463.461 82.6637C462.452 84.5373 461.47 85.9696 460.515 86.9604C459.488 88.0234 458.497 88.6089 457.542 88.717C456.678 88.8071 455.993 88.6629 455.489 88.2846C455.381 88.2125 455.254 88.1044 455.11 87.9603C454.822 87.7081 454.597 87.609 454.435 87.6631C454.309 87.7171 454.183 87.7892 454.056 87.8792C453.75 88.1135 453.444 88.3026 453.138 88.4467C452.309 88.8251 451.507 88.8881 450.733 88.6359H450.706C449.571 88.2215 448.859 87.3928 448.571 86.1497C448.499 85.8615 448.463 85.5822 448.463 85.312C448.427 83.9608 448.85 82.4925 449.733 80.9072C450.706 79.1957 451.75 77.8265 452.867 76.7996C453.606 76.097 454.336 75.6105 455.056 75.3403C455.489 75.1782 455.912 75.0881 456.326 75.0701C456.38 75.0701 456.435 75.0701 456.489 75.0701ZM456.489 76.7455C456.453 76.7455 456.417 76.7455 456.38 76.7455C456.146 76.7635 455.903 76.8176 455.651 76.9077C455.128 77.1239 454.579 77.4932 454.002 78.0156C453.012 78.9525 452.084 80.1865 451.219 81.7179C450.48 83.051 450.12 84.2311 450.138 85.258C450.156 86.1047 450.462 86.6632 451.057 86.9334C451.129 86.9695 451.201 87.0055 451.273 87.0415C451.651 87.1496 452.039 87.1136 452.435 86.9334C452.885 86.6992 453.345 86.3209 453.813 85.7984C454.66 84.8436 455.462 83.5465 456.218 81.907C456.921 80.3397 457.344 79.1777 457.488 78.421C457.579 77.9165 457.579 77.5292 457.488 77.259C457.398 77.0608 457.263 76.9257 457.083 76.8536C456.867 76.7816 456.669 76.7455 456.489 76.7455ZM479.487 75.0971C479.883 75.1151 480.243 75.2052 480.567 75.3673C481.234 75.7096 481.585 76.3222 481.621 77.2049C481.621 77.295 481.621 77.3671 481.621 77.4211C481.585 78.2679 481.27 79.2948 480.676 80.5018C480.549 80.772 480.405 81.0603 480.243 81.3666C480.225 81.4206 480.207 81.4656 480.189 81.5017C480.171 81.5377 480.117 81.6278 480.027 81.7719C479.865 82.0962 479.685 82.4385 479.487 82.7988C479.27 83.2132 479.063 83.6185 478.865 84.0149C478.361 85.0598 478.117 85.8975 478.135 86.5281C478.171 86.7443 478.225 86.8794 478.297 86.9334C478.478 87.0415 478.766 87.0775 479.162 87.0415C479.739 86.9695 480.378 86.5551 481.081 85.7984C481.946 84.8796 482.837 83.5735 483.756 81.88C483.954 81.4837 484.27 81.3395 484.702 81.4476C484.774 81.4656 484.846 81.4927 484.918 81.5287C485.297 81.7269 485.432 82.0422 485.324 82.4745C485.306 82.5466 485.279 82.6096 485.243 82.6637C484.234 84.5373 483.261 85.9696 482.324 86.9604C481.297 88.0234 480.297 88.6089 479.324 88.717C478.46 88.8071 477.775 88.6629 477.271 88.2846C476.784 87.8883 476.514 87.3388 476.46 86.6362C476.406 85.6993 476.703 84.5824 477.352 83.2852C477.478 83.015 477.622 82.7267 477.784 82.4205C477.802 82.3664 477.82 82.3214 477.838 82.2854C477.856 82.2493 477.901 82.1593 477.973 82.0151C478.153 81.6908 478.343 81.3485 478.541 80.9882C478.757 80.5739 478.964 80.1595 479.162 79.7451C479.667 78.7543 479.928 77.9616 479.946 77.3671C479.946 77.0788 479.892 76.9077 479.784 76.8536C479.568 76.7635 479.243 76.7816 478.811 76.9077C478.216 77.1058 477.595 77.4391 476.946 77.9075C475.775 78.8083 474.766 79.9703 473.92 81.3936L470.028 88.3387C469.812 88.717 469.497 88.8521 469.082 88.744C469.01 88.726 468.938 88.699 468.866 88.6629C468.488 88.4467 468.353 88.1315 468.461 87.7171C468.497 87.627 468.524 87.555 468.542 87.5009L472.136 81.1504C472.136 81.1324 472.136 81.1233 472.136 81.1233C472.226 80.9432 472.334 80.754 472.46 80.5559L474.433 77.0428L475.244 75.5565C475.406 75.2682 475.649 75.1151 475.973 75.0971C476.28 75.1151 476.514 75.2412 476.676 75.4754C476.82 75.7276 477.045 75.7907 477.352 75.6646C477.406 75.6466 477.442 75.6376 477.46 75.6376C477.766 75.4934 478.054 75.3763 478.324 75.2863C478.757 75.1601 479.144 75.0971 479.487 75.0971ZM494.925 75.0701C495.358 75.0701 495.628 75.2772 495.736 75.6916C495.808 75.9258 495.781 76.142 495.655 76.3402L495.52 76.5834L492.764 81.5017C492.565 81.844 492.367 82.2133 492.169 82.6096C492.151 82.6277 492.142 82.6457 492.142 82.6637C492.124 82.6997 492.097 82.7448 492.061 82.7988C491.863 83.1952 491.656 83.6005 491.439 84.0149C490.935 85.0598 490.701 85.8975 490.737 86.5281C490.755 86.7443 490.809 86.8794 490.899 86.9334C491.079 87.0415 491.358 87.0775 491.737 87.0415C492.313 86.9695 492.962 86.5551 493.682 85.7984C494.529 84.8796 495.421 83.5735 496.358 81.88C496.556 81.4837 496.862 81.3395 497.276 81.4476C497.349 81.4656 497.421 81.4927 497.493 81.5287C497.889 81.7269 498.033 82.0422 497.925 82.4745C497.889 82.5466 497.862 82.6096 497.844 82.6637C496.835 84.5373 495.853 85.9696 494.898 86.9604C493.872 88.0234 492.881 88.6089 491.926 88.717C491.061 88.8071 490.376 88.6629 489.872 88.2846C489.728 88.1765 489.566 88.0144 489.386 87.7982C489.169 87.5279 488.971 87.4198 488.791 87.4739C488.683 87.5279 488.557 87.609 488.413 87.7171C487.674 88.3116 486.944 88.6449 486.224 88.717C484.963 88.8611 483.972 88.4828 483.251 87.582C483.071 87.3658 482.936 87.1406 482.846 86.9064C482.395 85.7534 482.477 84.5463 483.089 83.2852C483.557 82.3124 484.008 81.4476 484.44 80.691L487.251 75.6916V75.6646L487.332 75.5024C487.512 75.2322 487.764 75.0881 488.088 75.0701C488.503 75.0701 488.773 75.2772 488.899 75.6916C488.971 75.9258 488.944 76.142 488.818 76.3402L488.71 76.5023L485.927 81.5017C485.494 82.2583 485.053 83.0961 484.602 84.0149C484.224 84.7896 484.152 85.5192 484.386 86.2038C484.386 86.2218 484.395 86.2398 484.413 86.2578C484.611 86.7623 484.981 87.0325 485.521 87.0685C485.701 87.0685 485.882 87.0595 486.062 87.0415C486.62 86.9695 487.26 86.5551 487.98 85.7984C488.809 84.9157 489.674 83.6546 490.575 82.0151C490.827 81.5467 491.07 81.1053 491.304 80.691L494.061 75.7727V75.7457L494.196 75.5024C494.376 75.2322 494.619 75.0881 494.925 75.0701ZM503.839 75.043C503.929 75.043 504.01 75.043 504.082 75.043H504.109C504.83 75.1151 505.397 75.4304 505.812 75.9889C506.172 76.5113 506.334 77.1239 506.298 77.8265C506.244 79.2137 505.559 80.4207 504.244 81.4476C504.154 81.5197 504.082 81.5737 504.028 81.6098C503.073 82.2764 501.821 82.7177 500.272 82.9339C499.713 83.006 499.182 83.051 498.677 83.069C498.119 83.069 497.759 83.2402 497.597 83.5825C497.542 83.7266 497.488 83.8798 497.434 84.0419C497.254 85.1048 497.38 85.9155 497.813 86.474C498.119 86.8524 498.695 87.0595 499.542 87.0956C500.011 87.0956 500.479 87.0325 500.947 86.9064C502.965 86.2758 504.713 84.6004 506.19 81.88C506.388 81.4837 506.694 81.3395 507.109 81.4476C507.199 81.4656 507.271 81.4927 507.325 81.5287C507.721 81.7269 507.866 82.0422 507.757 82.4745C507.721 82.5466 507.694 82.6096 507.676 82.6637C506.001 85.7804 503.947 87.7171 501.515 88.4738C501.479 88.4918 501.443 88.5098 501.407 88.5278C499.677 89.0323 498.245 88.8971 497.11 88.1225C496.876 87.9423 496.669 87.7441 496.489 87.5279C495.732 86.5551 495.498 85.285 495.786 83.7176C496.038 82.4205 496.615 81.0783 497.515 79.6911C498.398 78.3579 499.398 77.259 500.515 76.3942C501.704 75.4934 502.812 75.043 503.839 75.043ZM503.839 76.7185C503.154 76.7545 502.389 77.0968 501.542 77.7454C500.569 78.5021 499.695 79.4569 498.921 80.6099C498.65 81.0423 498.768 81.2675 499.272 81.2855C499.47 81.3035 499.731 81.2945 500.056 81.2585C501.335 81.0783 502.326 80.736 503.028 80.2316C504.001 79.547 504.533 78.7453 504.623 77.8265C504.623 77.7904 504.623 77.7634 504.623 77.7454C504.641 77.4211 504.578 77.1689 504.434 76.9887C504.307 76.8446 504.154 76.7545 503.974 76.7185C503.938 76.7185 503.893 76.7185 503.839 76.7185ZM514.547 75.0701C514.835 75.0881 515.069 75.2142 515.249 75.4484V75.4754H515.276C515.511 75.8537 515.474 76.2051 515.168 76.5293C515.078 76.6014 514.997 76.6554 514.925 76.6915C513.934 77.34 513.349 78.1688 513.168 79.1777C513.06 79.8262 513.132 80.8982 513.385 82.3935C513.565 83.5284 513.646 84.3482 513.628 84.8526C513.592 85.5732 513.691 85.9336 513.925 85.9336C514.069 85.9336 514.285 85.8255 514.574 85.6093C514.934 85.339 515.24 85.0598 515.492 84.7715C515.925 84.2671 516.51 83.3213 517.249 81.9341C517.411 81.6458 517.654 81.4927 517.979 81.4747C518.393 81.4566 518.672 81.6458 518.816 82.0422C518.87 82.2764 518.843 82.5016 518.735 82.7177C517.907 84.2491 517.249 85.294 516.763 85.8525C515.429 87.4198 513.664 88.3747 511.466 88.717C511.358 88.735 511.259 88.744 511.169 88.744C510.448 88.8341 509.8 88.8341 509.223 88.744C509.151 88.726 509.088 88.708 509.034 88.69C508.385 88.5999 507.836 88.3567 507.385 87.9603C506.647 87.3298 506.341 86.492 506.467 85.4471C506.503 85.249 506.548 85.0688 506.602 84.9067C506.71 84.5103 506.971 84.3031 507.385 84.2851C507.475 84.2851 507.566 84.3031 507.656 84.3392C508.052 84.4473 508.25 84.7085 508.25 85.1228C508.25 85.2309 508.232 85.321 508.196 85.3931C508.052 85.9696 508.142 86.402 508.466 86.6902C508.845 86.9785 509.304 87.0866 509.845 87.0145C510.889 86.7262 511.529 86.2758 511.763 85.6633C511.781 85.5913 511.799 85.5282 511.817 85.4741C511.979 84.9517 511.943 84.0149 511.709 82.6637C511.439 80.9702 511.367 79.7091 511.493 78.8804C511.583 78.3579 511.592 78.0877 511.52 78.0697C511.43 78.0697 511.259 78.1598 511.007 78.3399C510.718 78.5921 510.448 78.8534 510.196 79.1236C509.223 80.1325 508.286 81.4747 507.385 83.1501C507.349 83.2042 507.304 83.2672 507.25 83.3393C507.214 83.3933 507.16 83.4384 507.088 83.4744C507.034 83.5104 506.971 83.5375 506.899 83.5555C506.827 83.5735 506.755 83.5915 506.683 83.6095C506.611 83.6095 506.539 83.6005 506.467 83.5825C506.395 83.5645 506.322 83.5375 506.25 83.5014C505.872 83.2852 505.728 82.97 505.818 82.5556C505.854 82.4655 505.881 82.3935 505.899 82.3394C506.89 80.5198 507.908 79.0605 508.953 77.9616C510.628 76.2501 512.439 75.2953 514.385 75.0971C514.439 75.0791 514.493 75.0701 514.547 75.0701ZM525.279 68.4493C525.694 68.4493 525.964 68.6475 526.09 69.0438C526.162 69.278 526.135 69.5032 526.009 69.7194L523.604 73.9891C523.28 74.5836 523.271 74.9079 523.577 74.962C523.703 74.98 523.892 74.98 524.144 74.962H525.333C525.748 74.962 526.018 75.1601 526.144 75.5565C526.162 75.6466 526.18 75.7276 526.198 75.7997C526.198 76.2321 525.991 76.5023 525.577 76.6104C525.486 76.6464 525.405 76.6645 525.333 76.6645H523.334C522.559 76.6645 522.054 76.8446 521.82 77.2049C521.802 77.241 521.739 77.3491 521.631 77.5292L519.388 81.5017C518.974 82.2764 518.532 83.1141 518.064 84.0149C517.56 85.0598 517.325 85.8975 517.361 86.5281C517.397 86.7443 517.451 86.8794 517.523 86.9334C517.704 87.0415 517.992 87.0775 518.388 87.0415C518.947 86.9695 519.586 86.5551 520.307 85.7984C521.172 84.8796 522.063 83.5735 522.982 81.88C523.18 81.4837 523.487 81.3395 523.901 81.4476C523.991 81.4656 524.063 81.4927 524.117 81.5287C524.496 81.7269 524.64 82.0422 524.55 82.4745C524.514 82.5466 524.487 82.6096 524.469 82.6637C523.46 84.5373 522.478 85.9696 521.523 86.9604C520.514 88.0234 519.523 88.6089 518.55 88.717C517.686 88.8071 517.001 88.6629 516.497 88.2846C516.01 87.8883 515.74 87.3388 515.686 86.6362C515.632 85.6993 515.92 84.5824 516.551 83.2852C517.037 82.3124 517.496 81.4476 517.929 80.691L519.712 77.5022C519.983 77.0158 519.902 76.7455 519.469 76.6915C519.379 76.6735 519.28 76.6645 519.172 76.6645H517.983C517.551 76.6645 517.271 76.4663 517.145 76.0699C517.127 75.9799 517.118 75.8898 517.118 75.7997C517.118 75.3853 517.316 75.1241 517.713 75.016C517.803 74.98 517.893 74.962 517.983 74.962H519.956C520.586 74.962 521.064 74.7728 521.388 74.3945C521.514 74.2503 521.622 74.0882 521.712 73.908L524.523 68.8817C524.703 68.6114 524.955 68.4673 525.279 68.4493ZM526.792 72.8001C526.828 72.8001 526.855 72.8001 526.873 72.8001C527.287 72.8361 527.629 72.9802 527.899 73.2325C528.53 73.827 528.656 74.6107 528.278 75.5835C528.242 75.6736 528.206 75.7637 528.17 75.8537C527.954 76.3222 527.981 76.6104 528.251 76.7185C528.539 76.8086 528.746 76.8806 528.872 76.9347C529.827 77.277 530.485 77.7004 530.845 78.2048C531.35 78.9615 531.331 79.9253 530.791 81.0963C530.665 81.3846 530.431 81.853 530.088 82.5016C529.404 83.8888 528.953 84.8796 528.737 85.4741C528.593 86.0687 528.566 86.5191 528.656 86.8253C528.728 86.9514 528.791 87.0235 528.845 87.0415C529.134 87.1136 529.557 86.9604 530.115 86.5821C530.314 86.42 530.494 86.2578 530.656 86.0957C531.701 84.9967 532.692 83.5915 533.628 81.88C533.827 81.4837 534.142 81.3395 534.574 81.4476C534.646 81.4656 534.709 81.4927 534.763 81.5287C535.16 81.7269 535.304 82.0422 535.196 82.4745C535.178 82.5466 535.151 82.6096 535.115 82.6637C534.106 84.5553 533.025 86.0867 531.872 87.2577C530.719 88.4648 529.584 88.9422 528.467 88.69C527.836 88.5458 527.386 88.1585 527.116 87.5279C527.098 87.4559 527.08 87.4018 527.062 87.3658C526.864 86.7353 526.873 85.9516 527.089 85.0147C527.107 84.9787 527.116 84.9517 527.116 84.9337C527.332 84.3211 527.954 82.997 528.98 80.9612C529.089 80.727 529.188 80.5288 529.278 80.3667C529.548 79.7902 529.602 79.3848 529.44 79.1506C529.278 78.9525 528.908 78.7453 528.332 78.5291C527.143 78.1147 526.512 77.8895 526.44 77.8535C526.368 77.8355 526.314 77.8085 526.278 77.7724C525.359 77.304 524.837 76.6464 524.711 75.7997C524.621 75.043 524.774 74.3584 525.17 73.7459L525.197 73.6919C525.593 73.2235 526.026 72.9352 526.494 72.8271C526.602 72.8091 526.701 72.8001 526.792 72.8001ZM526.71 74.962C526.801 74.7458 526.81 74.6197 526.737 74.5836C526.683 74.6017 526.629 74.6467 526.575 74.7188C526.431 74.9169 526.35 75.0701 526.332 75.1782C526.314 75.3583 526.341 75.4394 526.413 75.4214C526.467 75.3853 526.512 75.3403 526.548 75.2863L526.575 75.2592C526.629 75.1511 526.674 75.052 526.71 74.962ZM525.386 78.3399C525.801 78.3219 526.071 78.5201 526.197 78.9344C526.269 79.1686 526.251 79.3848 526.143 79.583C525.639 80.4838 525.017 81.6008 524.278 82.9339C524.08 83.3123 523.765 83.4564 523.333 83.3663C523.26 83.3303 523.197 83.3033 523.143 83.2852C522.747 83.069 522.612 82.7448 522.738 82.3124C522.756 82.2403 522.783 82.1773 522.819 82.1232C523.576 80.736 524.188 79.619 524.657 78.7723C524.819 78.5021 525.062 78.3579 525.386 78.3399ZM540.912 75.0701C541.327 75.0701 541.723 75.1331 542.101 75.2592C542.768 75.5295 543.272 75.9618 543.615 76.5564C543.903 77.0788 544.056 77.7094 544.074 78.448C544.056 79.6911 543.66 81.0873 542.885 82.6367C542.471 83.4474 541.966 84.2581 541.372 85.0688C540.957 85.6633 540.993 86.0326 541.48 86.1768C542.074 86.2849 542.651 86.0507 543.209 85.4741C543.299 85.3841 543.434 85.2219 543.615 84.9877C544.263 84.159 544.921 83.1231 545.587 81.88C545.749 81.5918 545.993 81.4386 546.317 81.4206C546.731 81.4026 547.002 81.5918 547.128 81.9881C547.2 82.2403 547.182 82.4655 547.074 82.6637C546.353 84.0149 545.641 85.1319 544.939 86.0146C544.705 86.3209 544.542 86.5281 544.452 86.6362C543.479 87.645 542.417 88.0504 541.264 87.8522C541.209 87.8522 541.164 87.8432 541.128 87.8252C540.192 87.609 539.507 87.0595 539.075 86.1768C539.003 86.0687 538.957 85.9516 538.939 85.8255C538.921 85.7714 538.903 85.7354 538.885 85.7174C538.777 85.285 538.732 84.8706 538.75 84.4743C538.858 83.6816 539.219 83.1231 539.831 82.7988C539.975 82.7267 540.174 82.6547 540.426 82.5826C540.858 82.4385 541.173 82.2043 541.372 81.88C542.02 80.5468 542.353 79.3938 542.371 78.421C542.371 77.9886 542.299 77.6373 542.155 77.3671C541.993 77.1329 541.777 76.9617 541.507 76.8536C541.056 76.7095 540.579 76.7275 540.074 76.9077C539.534 77.1239 538.976 77.4932 538.399 78.0156C537.372 78.9705 536.435 80.2045 535.589 81.7179C534.85 83.051 534.49 84.2311 534.508 85.258C534.526 86.1047 534.832 86.6632 535.426 86.9334C535.498 86.9695 535.562 86.9965 535.616 87.0145C536.138 87.1406 536.715 87.0235 537.345 86.6632C537.723 86.429 538.066 86.474 538.372 86.7983C538.426 86.8524 538.471 86.9064 538.507 86.9604C538.723 87.3388 538.678 87.6811 538.372 87.9873C538.3 88.0414 538.237 88.0864 538.183 88.1225C537.12 88.717 536.102 88.8881 535.129 88.6359C535.111 88.6359 535.093 88.6359 535.075 88.6359C533.94 88.2215 533.228 87.3928 532.94 86.1497C532.868 85.8615 532.832 85.5822 532.832 85.312C532.796 83.9608 533.219 82.4925 534.102 80.9072C535.075 79.2137 536.129 77.8355 537.264 76.7725C538.003 76.088 538.741 75.6105 539.48 75.3403C539.912 75.1782 540.336 75.0881 540.75 75.0701C540.804 75.0701 540.858 75.0701 540.912 75.0701Z" fill="#B2B2B2" />
  
</svg>