<svg width="13" height="23" viewBox="0 0 13 23" fill="none" xmlns="http://www.w3.org/2000/svg">
<path d="M7.81705 22.2188H4.12557C3.86189 22.2188 3.65315 22.0101 3.65315 21.7464V12.188H1.30201C1.03833 12.188 0.82959 11.9793 0.82959 11.7156V8.32073C0.82959 8.05706 1.03833 7.84832 1.30201 7.84832H3.63116C3.63116 7.38688 3.64216 6.52992 3.64216 5.07969C3.64216 2.55277 5.33409 0.926758 7.95988 0.926758H11.6404C11.9041 0.926758 12.1128 1.13551 12.1128 1.39919V5.05771C12.1128 5.32139 11.9041 5.53015 11.6404 5.53015H10.8054C9.69576 5.53015 8.55318 5.50818 8.32246 5.73889L8.31146 8.02411H11.4536C11.5855 8.02411 11.7173 8.07903 11.8162 8.1889C11.9041 8.28778 11.948 8.4306 11.9261 8.56244L11.4317 12.0452C11.3987 12.2759 11.2009 12.4517 10.9592 12.4517H8.30047V21.7573C8.28948 21.999 8.06974 22.2188 7.81705 22.2188ZM4.59799 21.263H7.34464V11.9573C7.34464 11.6936 7.55337 11.4849 7.81705 11.4849H10.5307L10.8823 8.95796H7.80609C7.54241 8.95796 7.33367 8.74922 7.33367 8.48554V5.79383C7.33367 5.50818 7.43254 5.24449 7.6303 5.05771C8.14667 4.55233 9.13547 4.56333 10.7944 4.57432H11.146V1.87161H7.93792C6.3119 1.87161 4.57602 2.71757 4.57602 5.07969C4.57602 7.60661 4.56503 8.32073 4.56503 8.32073C4.56503 8.58441 4.3453 8.79317 4.09261 8.79317H1.77442V11.2322H4.12557C4.38925 11.2322 4.59799 11.4409 4.59799 11.7046V21.263Z" fill="white"/>
</svg>
