<svg width="312" height="299" viewBox="0 0 312 299" fill="none" xmlns="http://www.w3.org/2000/svg">
                        <path d="M14.7368 234.424C12.4268 234.424 10.4908 235.172 8.8848 236.69C7.2788 238.208 6.4868 240.078 6.4868 242.344C6.4868 244.61 7.2788 246.48 8.8848 247.998C10.4908 249.494 12.4268 250.242 14.7368 250.242C17.1788 250.242 19.4008 249.186 20.9628 247.36L18.6528 245.402C17.6188 246.568 16.3208 247.162 14.7368 247.162C13.3508 247.162 12.2068 246.7 11.2608 245.798C10.3368 244.874 9.8748 243.73 9.8748 242.344C9.8748 240.958 10.3368 239.814 11.2828 238.89C12.2288 237.966 13.3728 237.504 14.7368 237.504C16.2988 237.504 17.5968 238.076 18.6308 239.242L20.9408 237.284C19.3788 235.502 17.1788 234.424 14.7368 234.424ZM25.7569 250V244.588C25.7569 242.762 26.8569 241.706 28.7269 241.706C29.1229 241.706 29.4969 241.75 29.8269 241.816V238.736C29.4749 238.692 29.1889 238.67 28.9689 238.67C27.4509 238.67 26.2629 239.308 25.7569 240.43V238.912H22.4789V250H25.7569ZM30.4383 244.522C30.4383 246.26 30.9883 247.646 32.1103 248.702C33.2323 249.736 34.6843 250.264 36.5103 250.264C38.3803 250.264 39.9863 249.582 41.2843 248.24L39.3703 246.414C38.6003 247.14 37.6983 247.492 36.6643 247.492C34.9263 247.492 33.7823 246.634 33.7163 245.314H42.0983C42.1203 244.984 42.1423 244.632 42.1423 244.258C42.1423 242.652 41.6143 241.332 40.5583 240.254C39.5023 239.176 38.1383 238.626 36.4443 238.626C34.7063 238.626 33.2543 239.154 32.1323 240.232C31.0103 241.288 30.4383 242.696 30.4383 244.434V244.522ZM33.7603 243.18C33.8483 242.146 35.0143 241.332 36.4443 241.332C37.7643 241.332 38.8423 242.146 38.8423 243.18H33.7603ZM43.2859 244.456C43.2859 246.084 43.8139 247.448 44.8479 248.57C45.9039 249.67 47.2239 250.22 48.7859 250.22C50.5239 250.22 51.7339 249.692 52.4599 248.614C52.6139 249.076 52.9439 249.472 53.4499 249.802C53.9119 250.066 54.5279 250.198 55.2539 250.198C55.8919 250.198 56.3759 250.132 56.7279 250.022V247.294C56.5299 247.316 56.3319 247.338 56.1779 247.338C55.5839 247.338 55.3639 246.986 55.3639 246.106V238.912H52.0859V240.364C51.7559 239.396 50.4579 238.714 48.7859 238.714C47.2239 238.714 45.9039 239.264 44.8479 240.386C43.8139 241.486 43.2859 242.85 43.2859 244.456ZM49.3799 247.228C48.5879 247.228 47.9279 246.964 47.3779 246.436C46.8279 245.886 46.5639 245.226 46.5639 244.456C46.5639 243.686 46.8279 243.026 47.3779 242.498C47.9279 241.948 48.5879 241.684 49.3799 241.684C50.1939 241.684 50.8759 241.948 51.4259 242.498C51.9979 243.026 52.2839 243.686 52.2839 244.456C52.2839 245.226 51.9979 245.886 51.4259 246.436C50.8759 246.964 50.1939 247.228 49.3799 247.228ZM61.4639 250V243.774C61.4639 242.476 62.2339 241.574 63.2899 241.574C64.3459 241.574 64.9399 242.366 64.9399 243.664V250H68.2179V243.774C68.2179 242.476 68.9659 241.574 70.0219 241.574C71.0559 241.574 71.6279 242.366 71.6279 243.664V246.964C71.6279 249.076 72.5959 250.132 74.5539 250.132C75.1919 250.132 75.6539 250.088 75.9619 249.978V247.206L75.8299 247.228H75.6319C75.0819 247.228 74.9059 246.92 74.9059 246.062V243.268C74.9059 240.386 73.4979 238.67 71.0119 238.67C69.1859 238.67 67.9759 239.264 67.3599 240.43C66.8539 239.264 65.8419 238.67 64.3459 238.67C63.0039 238.67 61.8819 239.33 61.4639 240.298V238.912H58.1859V250H61.4639ZM83.026 238.582C81.31 238.582 79.858 239.154 78.648 240.298C77.46 241.42 76.866 242.806 76.866 244.456C76.866 246.106 77.46 247.492 78.648 248.636C79.858 249.758 81.31 250.33 83.026 250.33C84.72 250.33 86.172 249.758 87.382 248.636C88.592 247.492 89.186 246.106 89.186 244.456C89.186 242.806 88.592 241.42 87.382 240.298C86.172 239.154 84.72 238.582 83.026 238.582ZM80.144 244.456C80.144 243.642 80.43 242.96 80.98 242.41C81.53 241.838 82.212 241.552 83.026 241.552C83.84 241.552 84.522 241.838 85.072 242.41C85.622 242.96 85.908 243.642 85.908 244.456C85.908 245.27 85.622 245.952 85.072 246.524C84.522 247.074 83.84 247.36 83.026 247.36C82.212 247.36 81.53 247.074 80.98 246.524C80.43 245.974 80.144 245.27 80.144 244.456ZM89.7479 248.328C90.8259 249.648 92.4319 250.308 94.5879 250.308C97.8439 250.308 99.4719 248.834 99.4719 246.568C99.4719 245.094 98.5699 244.038 96.7439 243.422C95.5119 242.982 94.5879 242.828 94.1699 242.652C93.8179 242.498 93.7079 242.344 93.7079 242.058C93.7079 241.64 94.1039 241.354 94.8079 241.354C95.7539 241.354 96.5459 241.618 97.1399 242.168L98.7019 240.012C97.7119 239.066 96.4579 238.582 94.8959 238.582C93.6859 238.582 92.6739 238.89 91.8379 239.528C91.0019 240.144 90.5839 241.024 90.5839 242.146C90.5839 243.62 91.4419 244.632 93.1359 245.226C93.4659 245.336 93.9719 245.49 94.6319 245.644C95.2919 245.798 95.7319 245.952 95.9739 246.084C96.2159 246.216 96.3479 246.392 96.3479 246.612C96.3479 247.206 95.7979 247.514 94.6759 247.514C93.4219 247.514 92.2559 247.03 91.6399 246.304L89.7479 248.328ZM109.555 247.074C109.555 249.164 110.523 250.198 112.459 250.198C113.185 250.198 113.691 250.132 113.977 250.022V247.228C113.911 247.25 113.779 247.272 113.581 247.272C113.031 247.272 112.833 246.92 112.833 246.106V238.912H109.555V247.074ZM109.313 236.118C109.313 237.152 110.149 237.966 111.183 237.966C112.217 237.966 113.053 237.152 113.053 236.118C113.053 235.062 112.217 234.248 111.183 234.248C110.149 234.248 109.313 235.062 109.313 236.118ZM114.829 244.456C114.829 246.084 115.357 247.448 116.391 248.57C117.447 249.67 118.767 250.22 120.329 250.22C122.067 250.22 123.277 249.692 124.003 248.614C124.157 249.076 124.487 249.472 124.993 249.802C125.455 250.066 126.071 250.198 126.797 250.198C127.435 250.198 127.919 250.132 128.271 250.022V247.294C128.073 247.316 127.875 247.338 127.721 247.338C127.127 247.338 126.907 246.986 126.907 246.106V234.666H123.629V240.364C123.299 239.396 122.001 238.714 120.329 238.714C118.767 238.714 117.447 239.264 116.391 240.386C115.357 241.486 114.829 242.85 114.829 244.456ZM120.923 247.228C120.131 247.228 119.471 246.964 118.921 246.436C118.371 245.886 118.107 245.226 118.107 244.456C118.107 243.686 118.371 243.026 118.921 242.498C119.471 241.948 120.131 241.684 120.923 241.684C121.737 241.684 122.419 241.948 122.969 242.498C123.541 243.026 123.827 243.686 123.827 244.456C123.827 245.226 123.541 245.886 122.969 246.436C122.419 246.964 121.737 247.228 120.923 247.228ZM129.095 244.522C129.095 246.26 129.645 247.646 130.767 248.702C131.889 249.736 133.341 250.264 135.167 250.264C137.037 250.264 138.643 249.582 139.941 248.24L138.027 246.414C137.257 247.14 136.355 247.492 135.321 247.492C133.583 247.492 132.439 246.634 132.373 245.314H140.755C140.777 244.984 140.799 244.632 140.799 244.258C140.799 242.652 140.271 241.332 139.215 240.254C138.159 239.176 136.795 238.626 135.101 238.626C133.363 238.626 131.911 239.154 130.789 240.232C129.667 241.288 129.095 242.696 129.095 244.434V244.522ZM132.417 243.18C132.505 242.146 133.671 241.332 135.101 241.332C136.421 241.332 137.499 242.146 137.499 243.18H132.417ZM141.942 244.456C141.942 246.084 142.47 247.448 143.504 248.57C144.56 249.67 145.88 250.22 147.442 250.22C149.18 250.22 150.39 249.692 151.116 248.614C151.27 249.076 151.6 249.472 152.106 249.802C152.568 250.066 153.184 250.198 153.91 250.198C154.548 250.198 155.032 250.132 155.384 250.022V247.294C155.186 247.316 154.988 247.338 154.834 247.338C154.24 247.338 154.02 246.986 154.02 246.106V238.912H150.742V240.364C150.412 239.396 149.114 238.714 147.442 238.714C145.88 238.714 144.56 239.264 143.504 240.386C142.47 241.486 141.942 242.85 141.942 244.456ZM148.036 247.228C147.244 247.228 146.584 246.964 146.034 246.436C145.484 245.886 145.22 245.226 145.22 244.456C145.22 243.686 145.484 243.026 146.034 242.498C146.584 241.948 147.244 241.684 148.036 241.684C148.85 241.684 149.532 241.948 150.082 242.498C150.654 243.026 150.94 243.686 150.94 244.456C150.94 245.226 150.654 245.886 150.082 246.436C149.532 246.964 148.85 247.228 148.036 247.228ZM155.984 248.328C157.062 249.648 158.668 250.308 160.824 250.308C164.08 250.308 165.708 248.834 165.708 246.568C165.708 245.094 164.806 244.038 162.98 243.422C161.748 242.982 160.824 242.828 160.406 242.652C160.054 242.498 159.944 242.344 159.944 242.058C159.944 241.64 160.34 241.354 161.044 241.354C161.99 241.354 162.782 241.618 163.376 242.168L164.938 240.012C163.948 239.066 162.694 238.582 161.132 238.582C159.922 238.582 158.91 238.89 158.074 239.528C157.238 240.144 156.82 241.024 156.82 242.146C156.82 243.62 157.678 244.632 159.372 245.226C159.702 245.336 160.208 245.49 160.868 245.644C161.528 245.798 161.968 245.952 162.21 246.084C162.452 246.216 162.584 246.392 162.584 246.612C162.584 247.206 162.034 247.514 160.912 247.514C159.658 247.514 158.492 247.03 157.876 246.304L155.984 248.328ZM175.791 247.074C175.791 249.164 176.759 250.198 178.695 250.198C179.421 250.198 179.927 250.132 180.213 250.022V247.228C180.147 247.25 180.015 247.272 179.817 247.272C179.267 247.272 179.069 246.92 179.069 246.106V238.912H175.791V247.074ZM175.549 236.118C175.549 237.152 176.385 237.966 177.419 237.966C178.453 237.966 179.289 237.152 179.289 236.118C179.289 235.062 178.453 234.248 177.419 234.248C176.385 234.248 175.549 235.062 175.549 236.118ZM184.978 250V243.774C184.978 242.476 185.88 241.574 187.112 241.574C188.41 241.574 189.092 242.366 189.092 243.664V246.964C189.092 249.076 190.06 250.132 192.018 250.132C192.7 250.132 193.184 250.088 193.448 249.978V247.206L193.316 247.228H193.096C192.546 247.228 192.37 246.92 192.37 246.062V243.268C192.37 240.386 190.83 238.67 188.168 238.67C186.672 238.67 185.44 239.33 184.978 240.298V238.912H181.7V250H184.978ZM198.255 250V243.774C198.255 242.476 199.157 241.574 200.389 241.574C201.687 241.574 202.369 242.366 202.369 243.664V246.964C202.369 249.076 203.337 250.132 205.295 250.132C205.977 250.132 206.461 250.088 206.725 249.978V247.206L206.593 247.228H206.373C205.823 247.228 205.647 246.92 205.647 246.062V243.268C205.647 240.386 204.107 238.67 201.445 238.67C199.949 238.67 198.717 239.33 198.255 240.298V238.912H194.977V250H198.255ZM213.78 238.582C212.064 238.582 210.612 239.154 209.402 240.298C208.214 241.42 207.62 242.806 207.62 244.456C207.62 246.106 208.214 247.492 209.402 248.636C210.612 249.758 212.064 250.33 213.78 250.33C215.474 250.33 216.926 249.758 218.136 248.636C219.346 247.492 219.94 246.106 219.94 244.456C219.94 242.806 219.346 241.42 218.136 240.298C216.926 239.154 215.474 238.582 213.78 238.582ZM210.898 244.456C210.898 243.642 211.184 242.96 211.734 242.41C212.284 241.838 212.966 241.552 213.78 241.552C214.594 241.552 215.276 241.838 215.826 242.41C216.376 242.96 216.662 243.642 216.662 244.456C216.662 245.27 216.376 245.952 215.826 246.524C215.276 247.074 214.594 247.36 213.78 247.36C212.966 247.36 212.284 247.074 211.734 246.524C211.184 245.974 210.898 245.27 210.898 244.456ZM227.466 250L232.218 238.912H228.896L226.014 245.952L223.11 238.912H219.788L224.54 250H227.466ZM232.134 244.456C232.134 246.084 232.662 247.448 233.696 248.57C234.752 249.67 236.072 250.22 237.634 250.22C239.372 250.22 240.582 249.692 241.308 248.614C241.462 249.076 241.792 249.472 242.298 249.802C242.76 250.066 243.376 250.198 244.102 250.198C244.74 250.198 245.224 250.132 245.576 250.022V247.294C245.378 247.316 245.18 247.338 245.026 247.338C244.432 247.338 244.212 246.986 244.212 246.106V238.912H240.934V240.364C240.604 239.396 239.306 238.714 237.634 238.714C236.072 238.714 234.752 239.264 233.696 240.386C232.662 241.486 232.134 242.85 232.134 244.456ZM238.228 247.228C237.436 247.228 236.776 246.964 236.226 246.436C235.676 245.886 235.412 245.226 235.412 244.456C235.412 243.686 235.676 243.026 236.226 242.498C236.776 241.948 237.436 241.684 238.228 241.684C239.042 241.684 239.724 241.948 240.274 242.498C240.846 243.026 241.132 243.686 241.132 244.456C241.132 245.226 240.846 245.886 240.274 246.436C239.724 246.964 239.042 247.228 238.228 247.228ZM246.292 244.456C246.292 246.084 246.82 247.448 247.854 248.57C248.91 249.67 250.23 250.22 251.792 250.22C253.53 250.22 254.74 249.692 255.466 248.614C255.62 249.076 255.95 249.472 256.456 249.802C256.918 250.066 257.534 250.198 258.26 250.198C258.898 250.198 259.382 250.132 259.734 250.022V247.294C259.536 247.316 259.338 247.338 259.184 247.338C258.59 247.338 258.37 246.986 258.37 246.106V234.666H255.092V240.364C254.762 239.396 253.464 238.714 251.792 238.714C250.23 238.714 248.91 239.264 247.854 240.386C246.82 241.486 246.292 242.85 246.292 244.456ZM252.386 247.228C251.594 247.228 250.934 246.964 250.384 246.436C249.834 245.886 249.57 245.226 249.57 244.456C249.57 243.686 249.834 243.026 250.384 242.498C250.934 241.948 251.594 241.684 252.386 241.684C253.2 241.684 253.882 241.948 254.432 242.498C255.004 243.026 255.29 243.686 255.29 244.456C255.29 245.226 255.004 245.886 254.432 246.436C253.882 246.964 253.2 247.228 252.386 247.228ZM266.589 238.582C264.873 238.582 263.421 239.154 262.211 240.298C261.023 241.42 260.429 242.806 260.429 244.456C260.429 246.106 261.023 247.492 262.211 248.636C263.421 249.758 264.873 250.33 266.589 250.33C268.283 250.33 269.735 249.758 270.945 248.636C272.155 247.492 272.748 246.106 272.748 244.456C272.748 242.806 272.155 241.42 270.945 240.298C269.735 239.154 268.283 238.582 266.589 238.582ZM263.707 244.456C263.707 243.642 263.993 242.96 264.543 242.41C265.093 241.838 265.775 241.552 266.589 241.552C267.403 241.552 268.085 241.838 268.635 242.41C269.185 242.96 269.471 243.642 269.471 244.456C269.471 245.27 269.185 245.952 268.635 246.524C268.085 247.074 267.403 247.36 266.589 247.36C265.775 247.36 265.093 247.074 264.543 246.524C263.993 245.974 263.707 245.27 263.707 244.456ZM277.747 250V244.588C277.747 242.762 278.847 241.706 280.717 241.706C281.113 241.706 281.487 241.75 281.817 241.816V238.736C281.465 238.692 281.179 238.67 280.959 238.67C279.441 238.67 278.253 239.308 277.747 240.43V238.912H274.469V250H277.747ZM282.429 244.456C282.429 246.084 282.957 247.448 283.991 248.57C285.046 249.67 286.367 250.22 287.929 250.22C289.667 250.22 290.877 249.692 291.603 248.614C291.757 249.076 292.087 249.472 292.593 249.802C293.055 250.066 293.671 250.198 294.397 250.198C295.035 250.198 295.519 250.132 295.871 250.022V247.294C295.673 247.316 295.475 247.338 295.321 247.338C294.727 247.338 294.507 246.986 294.507 246.106V238.912H291.229V240.364C290.899 239.396 289.601 238.714 287.929 238.714C286.367 238.714 285.046 239.264 283.991 240.386C282.957 241.486 282.429 242.85 282.429 244.456ZM288.523 247.228C287.731 247.228 287.071 246.964 286.521 246.436C285.971 245.886 285.707 245.226 285.707 244.456C285.707 243.686 285.971 243.026 286.521 242.498C287.071 241.948 287.731 241.684 288.523 241.684C289.337 241.684 290.019 241.948 290.569 242.498C291.141 243.026 291.427 243.686 291.427 244.456C291.427 245.226 291.141 245.886 290.569 246.436C290.019 246.964 289.337 247.228 288.523 247.228ZM296.471 248.328C297.549 249.648 299.155 250.308 301.311 250.308C304.567 250.308 306.195 248.834 306.195 246.568C306.195 245.094 305.293 244.038 303.467 243.422C302.235 242.982 301.311 242.828 300.893 242.652C300.541 242.498 300.431 242.344 300.431 242.058C300.431 241.64 300.827 241.354 301.531 241.354C302.477 241.354 303.269 241.618 303.863 242.168L305.425 240.012C304.435 239.066 303.181 238.582 301.619 238.582C300.409 238.582 299.397 238.89 298.561 239.528C297.725 240.144 297.307 241.024 297.307 242.146C297.307 243.62 298.165 244.632 299.859 245.226C300.189 245.336 300.695 245.49 301.355 245.644C302.015 245.798 302.455 245.952 302.697 246.084C302.939 246.216 303.071 246.392 303.071 246.612C303.071 247.206 302.521 247.514 301.399 247.514C300.145 247.514 298.979 247.03 298.363 246.304L296.471 248.328ZM28.715 260.582C27.153 260.582 25.811 261.154 24.733 262.276C23.655 263.398 23.105 264.784 23.105 266.456C23.105 268.128 23.655 269.536 24.733 270.658C25.811 271.78 27.153 272.33 28.715 272.33C30.717 272.33 32.015 271.472 32.653 270.35V276.246H34.281V260.912H32.653V262.562C32.015 261.44 30.717 260.582 28.715 260.582ZM28.715 270.812C27.571 270.812 26.625 270.394 25.855 269.58C25.107 268.744 24.733 267.71 24.733 266.456C24.733 265.202 25.107 264.168 25.855 263.354C26.625 262.518 27.571 262.1 28.715 262.1C29.903 262.1 30.893 262.518 31.663 263.354C32.455 264.168 32.851 265.202 32.851 266.456C32.851 267.71 32.455 268.744 31.663 269.58C30.893 270.394 29.903 270.812 28.715 270.812ZM36.6484 267.996C36.6484 270.526 38.1884 272.176 40.6304 272.176C42.2804 272.176 43.4684 271.648 44.1724 270.57C44.2384 271.032 44.4144 271.384 44.6784 271.67C44.9864 272 45.4484 272.176 46.0424 272.176C46.5044 272.176 46.8344 272.11 47.0764 272V270.768C46.8784 270.79 46.6804 270.812 46.5044 270.812C45.8884 270.812 45.6684 270.394 45.6684 269.426V260.912H44.0404V267.534C44.0404 269.382 42.7864 270.658 41.0264 270.658C39.3324 270.658 38.2764 269.492 38.2764 267.644V260.912H36.6484V267.996ZM48.2202 266.588C48.2202 268.304 48.7262 269.69 49.7602 270.724C50.7942 271.758 52.1582 272.286 53.8082 272.286C55.6342 272.286 57.1302 271.626 58.2962 270.328L57.2182 269.272C56.2282 270.328 55.3262 270.812 53.8082 270.812C51.4982 270.812 49.9362 269.25 49.8482 266.808H58.8462C58.8682 266.588 58.8682 266.346 58.8682 266.104C58.8682 264.542 58.3842 263.244 57.4382 262.188C56.4922 261.11 55.2822 260.582 53.7642 260.582C52.1582 260.582 50.8162 261.132 49.7822 262.21C48.7482 263.288 48.2202 264.718 48.2202 266.5V266.588ZM49.9582 265.378C50.0242 264.476 50.4202 263.706 51.1462 263.068C51.8722 262.43 52.7522 262.1 53.7642 262.1C54.6882 262.1 55.4802 262.43 56.1402 263.068C56.8002 263.706 57.1302 264.476 57.1302 265.378H49.9582ZM75.3658 260.56C73.6498 260.56 72.1978 261.132 71.0098 262.254C69.8438 263.376 69.2498 264.762 69.2498 266.434C69.2498 268.106 69.8438 269.492 71.0098 270.614C72.1978 271.736 73.6498 272.286 75.3658 272.286C77.1918 272.286 78.7318 271.604 79.9858 270.218L77.9178 268.172C77.1918 268.942 76.3558 269.316 75.3658 269.316C73.7818 269.316 72.5278 268.106 72.5278 266.434C72.5278 264.762 73.7598 263.53 75.3658 263.53C76.3558 263.53 77.1918 263.904 77.9178 264.674L79.9858 262.628C78.7318 261.242 77.1918 260.56 75.3658 260.56ZM86.8395 260.582C85.1235 260.582 83.6715 261.154 82.4615 262.298C81.2735 263.42 80.6795 264.806 80.6795 266.456C80.6795 268.106 81.2735 269.492 82.4615 270.636C83.6715 271.758 85.1235 272.33 86.8395 272.33C88.5335 272.33 89.9855 271.758 91.1955 270.636C92.4055 269.492 92.9995 268.106 92.9995 266.456C92.9995 264.806 92.4055 263.42 91.1955 262.298C89.9855 261.154 88.5335 260.582 86.8395 260.582ZM83.9575 266.456C83.9575 265.642 84.2435 264.96 84.7935 264.41C85.3435 263.838 86.0255 263.552 86.8395 263.552C87.6535 263.552 88.3355 263.838 88.8855 264.41C89.4355 264.96 89.7215 265.642 89.7215 266.456C89.7215 267.27 89.4355 267.952 88.8855 268.524C88.3355 269.074 87.6535 269.36 86.8395 269.36C86.0255 269.36 85.3435 269.074 84.7935 268.524C84.2435 267.974 83.9575 267.27 83.9575 266.456ZM97.9981 272V265.774C97.9981 264.476 98.9001 263.574 100.132 263.574C101.43 263.574 102.112 264.366 102.112 265.664V268.964C102.112 271.076 103.08 272.132 105.038 272.132C105.72 272.132 106.204 272.088 106.468 271.978V269.206L106.336 269.228H106.116C105.566 269.228 105.39 268.92 105.39 268.062V265.268C105.39 262.386 103.85 260.67 101.188 260.67C99.6921 260.67 98.4601 261.33 97.9981 262.298V260.912H94.7201V272H97.9981ZM107.342 266.522C107.342 268.26 107.892 269.646 109.014 270.702C110.136 271.736 111.588 272.264 113.414 272.264C115.284 272.264 116.89 271.582 118.188 270.24L116.274 268.414C115.504 269.14 114.602 269.492 113.568 269.492C111.83 269.492 110.686 268.634 110.62 267.314H119.002C119.024 266.984 119.046 266.632 119.046 266.258C119.046 264.652 118.518 263.332 117.462 262.254C116.406 261.176 115.042 260.626 113.348 260.626C111.61 260.626 110.158 261.154 109.036 262.232C107.914 263.288 107.342 264.696 107.342 266.434V266.522ZM110.664 265.18C110.752 264.146 111.918 263.332 113.348 263.332C114.668 263.332 115.746 264.146 115.746 265.18H110.664ZM126.305 260.56C124.589 260.56 123.137 261.132 121.949 262.254C120.783 263.376 120.189 264.762 120.189 266.434C120.189 268.106 120.783 269.492 121.949 270.614C123.137 271.736 124.589 272.286 126.305 272.286C128.131 272.286 129.671 271.604 130.925 270.218L128.857 268.172C128.131 268.942 127.295 269.316 126.305 269.316C124.721 269.316 123.467 268.106 123.467 266.434C123.467 264.762 124.699 263.53 126.305 263.53C127.295 263.53 128.131 263.904 128.857 264.674L130.925 262.628C129.671 261.242 128.131 260.56 126.305 260.56ZM133.042 268.326C133.042 270.966 134.318 272.286 136.87 272.286C137.508 272.286 138.036 272.242 138.476 272.132V269.228C138.102 269.294 137.816 269.316 137.64 269.316C136.65 269.316 136.232 268.898 136.232 267.842V263.882H138.696V260.912H136.232V256.666H133.042V260.912H131.59V263.882H133.042V268.326ZM139.568 266.456C139.568 268.084 140.096 269.448 141.13 270.57C142.186 271.67 143.506 272.22 145.068 272.22C146.806 272.22 148.016 271.692 148.742 270.614C148.896 271.076 149.226 271.472 149.732 271.802C150.194 272.066 150.81 272.198 151.536 272.198C152.174 272.198 152.658 272.132 153.01 272.022V269.294C152.812 269.316 152.614 269.338 152.46 269.338C151.866 269.338 151.646 268.986 151.646 268.106V260.912H148.368V262.364C148.038 261.396 146.74 260.714 145.068 260.714C143.506 260.714 142.186 261.264 141.13 262.386C140.096 263.486 139.568 264.85 139.568 266.456ZM145.662 269.228C144.87 269.228 144.21 268.964 143.66 268.436C143.11 267.886 142.846 267.226 142.846 266.456C142.846 265.686 143.11 265.026 143.66 264.498C144.21 263.948 144.87 263.684 145.662 263.684C146.476 263.684 147.158 263.948 147.708 264.498C148.28 265.026 148.566 265.686 148.566 266.456C148.566 267.226 148.28 267.886 147.708 268.436C147.158 268.964 146.476 269.228 145.662 269.228ZM157.746 272V266.588C157.746 264.762 158.846 263.706 160.716 263.706C161.112 263.706 161.486 263.75 161.816 263.816V260.736C161.464 260.692 161.178 260.67 160.958 260.67C159.44 260.67 158.252 261.308 157.746 262.43V260.912H154.468V272H157.746ZM162.428 266.456C162.428 268.084 162.956 269.448 163.99 270.57C165.046 271.67 166.366 272.22 167.928 272.22C169.666 272.22 170.876 271.692 171.602 270.614C171.756 271.076 172.086 271.472 172.592 271.802C173.054 272.066 173.67 272.198 174.396 272.198C175.034 272.198 175.518 272.132 175.87 272.022V269.294C175.672 269.316 175.474 269.338 175.32 269.338C174.726 269.338 174.506 268.986 174.506 268.106V260.912H171.228V262.364C170.898 261.396 169.6 260.714 167.928 260.714C166.366 260.714 165.046 261.264 163.99 262.386C162.956 263.486 162.428 264.85 162.428 266.456ZM168.522 269.228C167.73 269.228 167.07 268.964 166.52 268.436C165.97 267.886 165.706 267.226 165.706 266.456C165.706 265.686 165.97 265.026 166.52 264.498C167.07 263.948 167.73 263.684 168.522 263.684C169.336 263.684 170.018 263.948 170.568 264.498C171.14 265.026 171.426 265.686 171.426 266.456C171.426 267.226 171.14 267.886 170.568 268.436C170.018 268.964 169.336 269.228 168.522 269.228ZM170.062 259.856L172.262 256.666H168.72L167.62 259.856H170.062ZM180.606 272V265.774C180.606 264.476 181.508 263.574 182.74 263.574C184.038 263.574 184.72 264.366 184.72 265.664V268.964C184.72 271.076 185.688 272.132 187.646 272.132C188.328 272.132 188.812 272.088 189.076 271.978V269.206L188.944 269.228H188.724C188.174 269.228 187.998 268.92 187.998 268.062V265.268C187.998 262.386 186.458 260.67 183.796 260.67C182.3 260.67 181.068 261.33 180.606 262.298V260.912H177.328V272H180.606ZM200.1 268.898C200.1 271.186 201.09 272.33 203.07 272.33C203.642 272.33 204.06 272.264 204.302 272.154V270.746C204.016 270.79 203.686 270.812 203.268 270.812C202.19 270.812 201.728 270.306 201.728 268.898V262.43H204.302V260.912H201.728V256.666H200.1V260.912H198.802V262.43H200.1V268.898ZM206.031 267.996C206.031 270.526 207.571 272.176 210.013 272.176C211.663 272.176 212.851 271.648 213.555 270.57C213.621 271.032 213.797 271.384 214.061 271.67C214.369 272 214.831 272.176 215.425 272.176C215.887 272.176 216.217 272.11 216.459 272V270.768C216.261 270.79 216.063 270.812 215.887 270.812C215.271 270.812 215.051 270.394 215.051 269.426V260.912H213.423V267.534C213.423 269.382 212.169 270.658 210.409 270.658C208.715 270.658 207.659 269.492 207.659 267.644V260.912H206.031V267.996ZM228.889 272V265.378C228.889 263.53 230.033 262.254 231.551 262.254C233.113 262.254 234.015 263.398 234.015 265.268V272H235.643V265.378C235.643 263.53 236.765 262.254 238.283 262.254C239.779 262.254 240.703 263.42 240.703 265.268V269.602C240.703 271.824 241.957 272.066 242.815 272.066C243.101 272.066 243.343 272.022 243.519 271.956V270.614C243.343 270.636 243.211 270.658 243.101 270.658C242.485 270.658 242.331 270.372 242.331 269.492V264.916C242.331 262.386 240.945 260.736 238.723 260.736C237.073 260.736 235.929 261.462 235.269 262.936C234.675 261.462 233.597 260.736 232.013 260.736C230.517 260.736 229.417 261.55 228.889 262.782V260.912H227.261V272H228.889ZM250.262 260.582C248.7 260.582 247.358 261.154 246.28 262.276C245.202 263.398 244.652 264.784 244.652 266.456C244.652 268.128 245.202 269.536 246.28 270.658C247.358 271.78 248.7 272.33 250.262 272.33C252.11 272.33 253.452 271.67 254.288 270.372C254.354 271.098 254.618 271.626 255.036 271.956C255.322 272.154 255.718 272.264 256.202 272.264C256.62 272.264 256.972 272.198 257.236 272.088V270.856C257.038 270.878 256.84 270.9 256.664 270.9C256.048 270.9 255.828 270.482 255.828 269.514V260.912H254.2V262.562C253.562 261.44 252.264 260.582 250.262 260.582ZM250.262 270.812C249.118 270.812 248.172 270.394 247.402 269.58C246.654 268.744 246.28 267.71 246.28 266.456C246.28 265.202 246.654 264.168 247.402 263.354C248.172 262.518 249.118 262.1 250.262 262.1C251.45 262.1 252.44 262.518 253.21 263.354C254.002 264.168 254.398 265.202 254.398 266.456C254.398 267.71 254.002 268.744 253.21 269.58C252.44 270.394 251.45 270.812 250.262 270.812ZM260.6 272V265.554C260.6 263.706 261.854 262.43 263.592 262.43C264.032 262.43 264.406 262.474 264.692 262.54V260.78C264.494 260.758 264.252 260.736 264.01 260.736C262.404 260.736 261.194 261.55 260.6 262.782V260.912H258.972V272H260.6ZM271.345 260.582C269.695 260.582 268.309 261.154 267.165 262.276C266.021 263.398 265.449 264.784 265.449 266.456C265.449 268.128 266.021 269.536 267.165 270.658C268.309 271.78 269.695 272.33 271.345 272.33C273.061 272.33 274.469 271.78 275.547 270.658L274.557 269.514C273.721 270.372 272.643 270.812 271.345 270.812C270.113 270.812 269.101 270.394 268.287 269.58C267.473 268.744 267.077 267.71 267.077 266.456C267.077 265.202 267.473 264.168 268.287 263.354C269.101 262.518 270.113 262.1 271.345 262.1C272.643 262.1 273.721 262.54 274.557 263.398L275.547 262.254C274.469 261.132 273.061 260.582 271.345 260.582ZM282.209 260.582C280.647 260.582 279.305 261.154 278.227 262.276C277.149 263.398 276.599 264.784 276.599 266.456C276.599 268.128 277.149 269.536 278.227 270.658C279.305 271.78 280.647 272.33 282.209 272.33C284.057 272.33 285.399 271.67 286.235 270.372C286.301 271.098 286.565 271.626 286.983 271.956C287.269 272.154 287.665 272.264 288.149 272.264C288.567 272.264 288.919 272.198 289.183 272.088V270.856C288.985 270.878 288.787 270.9 288.611 270.9C287.995 270.9 287.775 270.482 287.775 269.514V260.912H286.147V262.562C285.509 261.44 284.211 260.582 282.209 260.582ZM282.209 270.812C281.065 270.812 280.119 270.394 279.349 269.58C278.601 268.744 278.227 267.71 278.227 266.456C278.227 265.202 278.601 264.168 279.349 263.354C280.119 262.518 281.065 262.1 282.209 262.1C283.397 262.1 284.387 262.518 285.157 263.354C285.949 264.168 286.345 265.202 286.345 266.456C286.345 267.71 285.949 268.744 285.157 269.58C284.387 270.394 283.397 270.812 282.209 270.812ZM38.9482 282.582C37.2982 282.582 35.9122 283.154 34.7682 284.276C33.6242 285.398 33.0522 286.784 33.0522 288.456C33.0522 290.128 33.6242 291.536 34.7682 292.658C35.9122 293.78 37.2982 294.33 38.9482 294.33C40.6642 294.33 42.0722 293.78 43.1502 292.658L42.1602 291.514C41.3242 292.372 40.2462 292.812 38.9482 292.812C37.7162 292.812 36.7042 292.394 35.8902 291.58C35.0762 290.744 34.6802 289.71 34.6802 288.456C34.6802 287.202 35.0762 286.168 35.8902 285.354C36.7042 284.518 37.7162 284.1 38.9482 284.1C40.2462 284.1 41.3242 284.54 42.1602 285.398L43.1502 284.254C42.0722 283.132 40.6642 282.582 38.9482 282.582ZM45.9186 292.658C47.0626 293.78 48.4486 294.33 50.0986 294.33C51.7486 294.33 53.1346 293.78 54.2786 292.658C55.4226 291.536 55.9946 290.128 55.9946 288.456C55.9946 286.784 55.4226 285.398 54.2786 284.276C53.1346 283.154 51.7486 282.582 50.0986 282.582C48.4486 282.582 47.0626 283.154 45.9186 284.276C44.7746 285.398 44.2026 286.784 44.2026 288.456C44.2026 290.128 44.7746 291.536 45.9186 292.658ZM47.0406 285.354C47.8546 284.518 48.8666 284.1 50.0986 284.1C51.3306 284.1 52.3426 284.518 53.1566 285.354C53.9706 286.168 54.3666 287.202 54.3666 288.456C54.3666 289.71 53.9706 290.744 53.1566 291.58C52.3426 292.394 51.3306 292.812 50.0986 292.812C48.8666 292.812 47.8546 292.394 47.0406 291.58C46.2266 290.744 45.8306 289.71 45.8306 288.456C45.8306 287.202 46.2266 286.168 47.0406 285.354ZM59.6564 294V287.378C59.6564 285.53 60.9104 284.254 62.7364 284.254C64.4964 284.254 65.5744 285.42 65.5744 287.268V291.602C65.5744 293.824 66.8284 294.066 67.6864 294.066C67.9724 294.066 68.2144 294.022 68.3904 293.956V292.614C68.2144 292.636 68.0824 292.658 67.9724 292.658C67.3344 292.658 67.2024 292.394 67.2024 291.492V286.916C67.2024 284.386 65.6404 282.736 63.1544 282.736C61.5044 282.736 60.2504 283.55 59.6564 284.782V282.912H58.0284V294H59.6564ZM79.5508 290.898C79.5508 293.186 80.5408 294.33 82.5208 294.33C83.0928 294.33 83.5108 294.264 83.7528 294.154V292.746C83.4668 292.79 83.1368 292.812 82.7188 292.812C81.6408 292.812 81.1788 292.306 81.1788 290.898V284.43H83.7528V282.912H81.1788V278.666H79.5508V282.912H78.2528V284.43H79.5508V290.898ZM85.4824 289.996C85.4824 292.526 87.0224 294.176 89.4644 294.176C91.1144 294.176 92.3024 293.648 93.0064 292.57C93.0724 293.032 93.2484 293.384 93.5124 293.67C93.8204 294 94.2824 294.176 94.8764 294.176C95.3384 294.176 95.6684 294.11 95.9104 294V292.768C95.7124 292.79 95.5144 292.812 95.3384 292.812C94.7224 292.812 94.5024 292.394 94.5024 291.426V282.912H92.8744V289.534C92.8744 291.382 91.6204 292.658 89.8604 292.658C88.1664 292.658 87.1104 291.492 87.1104 289.644V282.912H85.4824V289.996ZM109.836 298.246V292.548C110.166 293.516 111.464 294.198 113.136 294.198C114.698 294.198 116.018 293.648 117.052 292.548C118.108 291.426 118.636 290.062 118.636 288.456C118.636 286.85 118.108 285.486 117.052 284.386C116.018 283.264 114.698 282.714 113.136 282.714C111.464 282.714 110.166 283.396 109.836 284.364V282.912H106.558V298.246H109.836ZM112.542 291.228C111.728 291.228 111.046 290.964 110.474 290.436C109.924 289.886 109.638 289.226 109.638 288.456C109.638 287.686 109.924 287.026 110.474 286.498C111.046 285.948 111.728 285.684 112.542 285.684C113.334 285.684 113.994 285.948 114.544 286.498C115.094 287.026 115.358 287.686 115.358 288.456C115.358 289.226 115.094 289.886 114.544 290.436C113.994 290.964 113.334 291.228 112.542 291.228ZM126.489 281.856L128.689 278.666H125.147L124.025 281.856H126.489ZM120.219 289.644C120.219 292.526 121.781 294.242 124.575 294.242C126.181 294.242 127.281 293.692 127.831 292.614C127.985 293.076 128.315 293.472 128.821 293.802C129.283 294.066 129.899 294.198 130.625 294.198C131.263 294.198 131.747 294.132 132.099 294.022V291.294C131.901 291.316 131.703 291.338 131.549 291.338C130.955 291.338 130.735 290.986 130.735 290.106V282.912H127.457V289.138C127.457 290.436 126.621 291.338 125.411 291.338C124.179 291.338 123.497 290.546 123.497 289.248V282.912H120.219V289.644ZM136.82 294V292.548C137.15 293.516 138.448 294.198 140.12 294.198C141.682 294.198 143.002 293.648 144.036 292.548C145.092 291.426 145.62 290.062 145.62 288.456C145.62 286.85 145.092 285.486 144.036 284.386C143.002 283.264 141.682 282.714 140.12 282.714C138.448 282.714 137.15 283.396 136.82 284.364V278.666H133.542V294H136.82ZM139.526 291.228C138.712 291.228 138.03 290.964 137.458 290.436C136.908 289.886 136.622 289.226 136.622 288.456C136.622 287.686 136.908 287.026 137.458 286.498C138.03 285.948 138.712 285.684 139.526 285.684C140.318 285.684 140.978 285.948 141.528 286.498C142.078 287.026 142.342 287.686 142.342 288.456C142.342 289.226 142.078 289.886 141.528 290.436C140.978 290.964 140.318 291.228 139.526 291.228ZM147.248 290.392C147.248 292.988 148.502 294.286 151.032 294.286C151.692 294.286 152.22 294.242 152.594 294.132V291.228C152.374 291.294 152.11 291.316 151.802 291.316C150.9 291.316 150.526 290.876 150.526 289.886V278.666H147.248V290.392ZM153.845 291.074C153.845 293.164 154.813 294.198 156.749 294.198C157.475 294.198 157.981 294.132 158.267 294.022V291.228C158.201 291.25 158.069 291.272 157.871 291.272C157.321 291.272 157.123 290.92 157.123 290.106V282.912H153.845V291.074ZM153.603 280.118C153.603 281.152 154.439 281.966 155.473 281.966C156.507 281.966 157.343 281.152 157.343 280.118C157.343 279.062 156.507 278.248 155.473 278.248C154.439 278.248 153.603 279.062 153.603 280.118ZM165.235 282.56C163.519 282.56 162.067 283.132 160.879 284.254C159.713 285.376 159.119 286.762 159.119 288.434C159.119 290.106 159.713 291.492 160.879 292.614C162.067 293.736 163.519 294.286 165.235 294.286C167.061 294.286 168.601 293.604 169.855 292.218L167.787 290.172C167.061 290.942 166.225 291.316 165.235 291.316C163.651 291.316 162.397 290.106 162.397 288.434C162.397 286.762 163.629 285.53 165.235 285.53C166.225 285.53 167.061 285.904 167.787 286.674L169.855 284.628C168.601 283.242 167.061 282.56 165.235 282.56ZM176.709 282.582C174.993 282.582 173.541 283.154 172.331 284.298C171.143 285.42 170.549 286.806 170.549 288.456C170.549 290.106 171.143 291.492 172.331 292.636C173.541 293.758 174.993 294.33 176.709 294.33C178.403 294.33 179.855 293.758 181.065 292.636C182.275 291.492 182.869 290.106 182.869 288.456C182.869 286.806 182.275 285.42 181.065 284.298C179.855 283.154 178.403 282.582 176.709 282.582ZM173.827 288.456C173.827 287.642 174.113 286.96 174.663 286.41C175.213 285.838 175.895 285.552 176.709 285.552C177.523 285.552 178.205 285.838 178.755 286.41C179.305 286.96 179.591 287.642 179.591 288.456C179.591 289.27 179.305 289.952 178.755 290.524C178.205 291.074 177.523 291.36 176.709 291.36C175.895 291.36 175.213 291.074 174.663 290.524C174.113 289.974 173.827 289.27 173.827 288.456ZM198.73 282.582C197.014 282.582 195.562 283.154 194.352 284.298C193.164 285.42 192.57 286.806 192.57 288.456C192.57 290.106 193.164 291.492 194.352 292.636C195.562 293.758 197.014 294.33 198.73 294.33C200.424 294.33 201.876 293.758 203.086 292.636C204.296 291.492 204.89 290.106 204.89 288.456C204.89 286.806 204.296 285.42 203.086 284.298C201.876 283.154 200.424 282.582 198.73 282.582ZM195.848 288.456C195.848 287.642 196.134 286.96 196.684 286.41C197.234 285.838 197.916 285.552 198.73 285.552C199.544 285.552 200.226 285.838 200.776 286.41C201.326 286.96 201.612 287.642 201.612 288.456C201.612 289.27 201.326 289.952 200.776 290.524C200.226 291.074 199.544 291.36 198.73 291.36C197.916 291.36 197.234 291.074 196.684 290.524C196.134 289.974 195.848 289.27 195.848 288.456ZM209.889 294V292.548C210.219 293.516 211.517 294.198 213.189 294.198C214.751 294.198 216.071 293.648 217.105 292.548C218.161 291.426 218.689 290.062 218.689 288.456C218.689 286.85 218.161 285.486 217.105 284.386C216.071 283.264 214.751 282.714 213.189 282.714C211.517 282.714 210.219 283.396 209.889 284.364V278.666H206.611V294H209.889ZM212.595 291.228C211.781 291.228 211.099 290.964 210.527 290.436C209.977 289.886 209.691 289.226 209.691 288.456C209.691 287.686 209.977 287.026 210.527 286.498C211.099 285.948 211.781 285.684 212.595 285.684C213.387 285.684 214.047 285.948 214.597 286.498C215.147 287.026 215.411 287.686 215.411 288.456C215.411 289.226 215.147 289.886 214.597 290.436C214.047 290.964 213.387 291.228 212.595 291.228ZM223.308 281.438C224.034 280.712 224.034 279.524 223.308 278.82C222.582 278.094 221.394 278.094 220.668 278.82C219.942 279.524 219.942 280.712 220.668 281.438C221.394 282.164 222.582 282.164 223.308 281.438ZM220.36 294.418C220.36 295.474 219.942 295.87 219.04 295.87C218.886 295.87 218.666 295.848 218.336 295.826V298.686C218.754 298.752 219.216 298.774 219.766 298.774C222.34 298.774 223.638 297.454 223.638 294.814V282.912H220.36V294.418ZM225.291 288.522C225.291 290.26 225.841 291.646 226.963 292.702C228.085 293.736 229.537 294.264 231.363 294.264C233.233 294.264 234.839 293.582 236.137 292.24L234.223 290.414C233.453 291.14 232.551 291.492 231.517 291.492C229.779 291.492 228.635 290.634 228.569 289.314H236.951C236.973 288.984 236.995 288.632 236.995 288.258C236.995 286.652 236.467 285.332 235.411 284.254C234.355 283.176 232.991 282.626 231.297 282.626C229.559 282.626 228.107 283.154 226.985 284.232C225.863 285.288 225.291 286.696 225.291 288.434V288.522ZM228.613 287.18C228.701 286.146 229.867 285.332 231.297 285.332C232.617 285.332 233.695 286.146 233.695 287.18H228.613ZM239.26 290.326C239.26 292.966 240.536 294.286 243.088 294.286C243.726 294.286 244.254 294.242 244.694 294.132V291.228C244.32 291.294 244.034 291.316 243.858 291.316C242.868 291.316 242.45 290.898 242.45 289.842V285.882H244.914V282.912H242.45V278.666H239.26V282.912H237.808V285.882H239.26V290.326ZM246.335 291.074C246.335 293.164 247.303 294.198 249.239 294.198C249.965 294.198 250.471 294.132 250.757 294.022V291.228C250.691 291.25 250.559 291.272 250.361 291.272C249.811 291.272 249.613 290.92 249.613 290.106V282.912H246.335V291.074ZM246.093 280.118C246.093 281.152 246.929 281.966 247.963 281.966C248.997 281.966 249.833 281.152 249.833 280.118C249.833 279.062 248.997 278.248 247.963 278.248C246.929 278.248 246.093 279.062 246.093 280.118ZM258.135 294L262.887 282.912H259.565L256.683 289.952L253.779 282.912H250.457L255.209 294H258.135ZM268.898 282.582C267.182 282.582 265.73 283.154 264.52 284.298C263.332 285.42 262.738 286.806 262.738 288.456C262.738 290.106 263.332 291.492 264.52 292.636C265.73 293.758 267.182 294.33 268.898 294.33C270.592 294.33 272.044 293.758 273.254 292.636C274.464 291.492 275.058 290.106 275.058 288.456C275.058 286.806 274.464 285.42 273.254 284.298C272.044 283.154 270.592 282.582 268.898 282.582ZM266.016 288.456C266.016 287.642 266.302 286.96 266.852 286.41C267.402 285.838 268.084 285.552 268.898 285.552C269.712 285.552 270.394 285.838 270.944 286.41C271.494 286.96 271.78 287.642 271.78 288.456C271.78 289.27 271.494 289.952 270.944 290.524C270.394 291.074 269.712 291.36 268.898 291.36C268.084 291.36 267.402 291.074 266.852 290.524C266.302 289.974 266.016 289.27 266.016 288.456ZM276.091 293.67C276.817 294.374 277.917 294.374 278.621 293.67C279.347 292.966 279.347 291.866 278.621 291.162C277.917 290.458 276.817 290.458 276.091 291.162C275.387 291.866 275.387 292.966 276.091 293.67Z" fill="white" />
                        <path d="M187.54 212.09H125.44C124.09 212.09 123 211 123 209.65C123 208.3 124.09 207.21 125.44 207.21H187.54C188.89 207.21 189.98 208.3 189.98 209.65C189.99 211 188.89 212.09 187.54 212.09Z" fill="#FBC000" />
                        <path d="M115.2 75.3899C114.58 88.3399 120.12 100.82 130.14 109.05C131.95 110.46 133.02 112.62 133.07 114.91V126.32C133.07 126.33 133.07 126.34 133.07 126.35C133.08 127.77 134.29 128.89 135.71 128.89H137.01H140.76H156.15V36.3699C134.39 36.3499 116.25 53.4399 115.2 75.3899Z" fill="#FDE38C" />
                        <path d="M158.12 36.4101C157.46 36.3801 156.8 36.3701 156.14 36.3701V128.88H176.55C177.97 128.88 179.18 127.76 179.19 126.34C179.19 126.33 179.19 126.32 179.19 126.31V115.2C179.16 112.9 180.15 110.7 181.91 109.21C191.63 101.4 197.24 89.5601 197.13 77.0901C196.75 55.4301 179.75 37.7001 158.12 36.4101Z" fill="#FCCF3D" />
                        <path d="M176.55 131.69C176.55 131.69 176.37 130.33 176.37 130.41V115.2C176.32 112.09 177.68 109.1 180.08 107.06C189.24 99.69 194.41 88.8 194.3 77.12C193.96 57.07 177.99 40.41 157.94 39.22C157.35 39.19 156.72 39.16 156.11 39.18C135.72 39.18 118.99 55.14 118.01 75.52C117.43 87.52 122.63 99.24 131.92 106.86C134.35 108.76 135.81 111.69 135.88 114.84V130.76C135.88 130.67 135.7 131.69 135.7 131.69C132.71 131.69 130.27 129.3 130.24 126.36V114.9C130.21 113.5 129.54 112.15 128.39 111.26C117.68 102.47 111.71 89.03 112.37 75.25C113.49 51.86 132.7 33.54 156.1 33.54C156.11 33.54 156.11 33.54 156.12 33.54C156.82 33.54 157.52 33.55 158.23 33.59C181.23 34.96 199.52 54.04 199.92 77.05C200.04 90.49 194.11 103 183.65 111.41C182.59 112.31 181.96 113.7 181.98 115.16V126.31C181.98 129.3 179.53 131.69 176.55 131.69Z" fill="black" />
                        <path d="M156.12 18.53C157.83 18.53 159.21 17.15 159.21 15.44V3.09C159.21 1.38 157.83 0 156.12 0C154.41 0 153.03 1.38 153.03 3.09V15.44C153.03 17.15 154.42 18.53 156.12 18.53Z" fill="black" />
                        <path d="M117.93 14.1501L124.11 24.8501C124.95 26.3301 126.84 26.8501 128.32 26.0101C129.8 25.1701 130.32 23.2801 129.48 21.8001C129.47 21.7901 129.47 21.7801 129.46 21.7601L123.28 11.0601C122.44 9.58007 120.55 9.06007 119.07 9.90007C117.59 10.7401 117.07 12.6301 117.91 14.1101C117.92 14.1301 117.92 14.1401 117.93 14.1501Z" fill="black" />
                        <path d="M93.03 41.2601C93.04 41.2701 93.05 41.2701 93.07 41.2801L103.77 47.4601C105.24 48.3201 107.13 47.8301 108 46.3601C108.86 44.8901 108.37 43.0001 106.9 42.1301C106.89 42.1201 106.88 42.1201 106.86 42.1101L96.16 35.9301C94.69 35.0701 92.8 35.5601 91.93 37.0301C91.06 38.5001 91.56 40.4001 93.03 41.2601Z" fill="black" />
                        <path d="M100.53 74.12C100.53 72.41 99.15 71.03 97.44 71.03H85.09C83.38 71.03 82 72.41 82 74.12C82 75.83 83.38 77.21 85.09 77.21H97.44C99.15 77.21 100.53 75.83 100.53 74.12Z" fill="black" />
                        <path d="M103.8 100.77C103.79 100.78 103.78 100.78 103.76 100.79L93.06 106.97C91.58 107.81 91.06 109.7 91.9 111.18C92.74 112.66 94.6299 113.18 96.1099 112.34C96.1199 112.33 96.13 112.33 96.15 112.32L106.85 106.14C108.33 105.3 108.85 103.41 108.01 101.93C107.16 100.44 105.28 99.9199 103.8 100.77Z" fill="black" />
                        <path d="M219.22 106.98C219.21 106.97 219.2 106.97 219.18 106.96L208.48 100.78C207.01 99.9199 205.12 100.41 204.25 101.88C203.39 103.35 203.88 105.24 205.35 106.11C205.36 106.12 205.37 106.12 205.39 106.13L216.09 112.31C217.56 113.17 219.45 112.68 220.32 111.21C221.18 109.74 220.69 107.85 219.22 106.98Z" fill="black" />
                        <path d="M227.16 71.03H214.81C213.1 71.03 211.72 72.41 211.72 74.12C211.72 75.83 213.1 77.21 214.81 77.21H227.16C228.87 77.21 230.25 75.83 230.25 74.12C230.24 72.42 228.86 71.03 227.16 71.03Z" fill="black" />
                        <path d="M206.95 47.8701C207.49 47.8701 208.02 47.7301 208.49 47.4601L219.19 41.2801C220.67 40.4401 221.19 38.5501 220.35 37.0701C219.51 35.5901 217.62 35.0701 216.14 35.9101C216.13 35.9201 216.12 35.9201 216.1 35.9301L205.4 42.1101C203.92 42.9601 203.42 44.8501 204.27 46.3301C204.82 47.2801 205.84 47.8701 206.95 47.8701Z" fill="black" />
                        <path d="M183.91 25.98C183.92 25.98 183.92 25.98 183.91 25.98C185.39 26.83 187.28 26.33 188.13 24.85L194.31 14.15C195.17 12.68 194.68 10.79 193.21 9.92004C191.74 9.06004 189.85 9.55004 188.98 11.02C188.97 11.03 188.97 11.04 188.96 11.06L182.78 21.76C181.93 23.23 182.44 25.12 183.91 25.98Z" fill="black" />
                        <path d="M162.3 123.54C164.01 123.54 165.39 122.16 165.39 120.45V86.47H171.57C178.39 86.47 183.92 80.94 183.92 74.12C183.92 67.3 178.39 61.77 171.57 61.77C164.75 61.77 159.22 67.3 159.22 74.12V80.3H153.04V74.12C153.04 67.3 147.51 61.77 140.69 61.77C133.87 61.77 128.34 67.3 128.34 74.12C128.34 80.94 133.87 86.47 140.69 86.47H146.87V120.44C146.87 122.15 148.25 123.53 149.96 123.53C151.67 123.53 153.05 122.15 153.05 120.44V86.47H159.23V120.44C159.21 122.15 160.59 123.54 162.3 123.54ZM165.39 74.12C165.39 70.71 168.16 67.94 171.57 67.94C174.98 67.94 177.75 70.71 177.75 74.12C177.75 77.53 174.98 80.3 171.57 80.3H165.39V74.12ZM146.86 80.3H140.68C137.27 80.3 134.5 77.53 134.5 74.12C134.5 70.71 137.27 67.94 140.68 67.94C144.09 67.94 146.86 70.71 146.86 74.12V80.3Z" fill="black" />
                        <path d="M156.12 128.02V177.81C156.12 177.81 146.17 179.25 144.21 167.46L138.05 160.52V128.42L156.12 128.02Z" fill="#D3D4D5" />
                        <path d="M156.12 128.02V177.81C156.12 177.81 166.07 179.25 168.03 167.46L174.19 160.52V128.42L156.12 128.02Z" fill="#C6C6C6" />
                        <path d="M134.42 131.6L134.5 131.63V135.29C134.51 137.58 135.37 139.78 136.91 141.47C133.7 144.96 133.7 150.33 136.91 153.82C133.48 157.58 133.74 163.42 137.51 166.85C139.22 168.41 141.45 169.27 143.77 169.26C145.43 169.3 146.82 167.99 146.86 166.33C146.88 165.68 146.68 165.04 146.31 164.51C146.21 164.32 146.1 164.14 145.96 163.98C145.71 163.75 145.42 163.56 145.1 163.42C145.01 163.37 144.92 163.34 144.83 163.3C144.52 163.19 144.19 163.12 143.86 163.11C143.83 163.11 143.8 163.09 143.77 163.09C142.99 163.1 142.18 163.07 141.67 162.47C139.47 159.87 141.27 156.92 143.77 156.92H155.95C157.62 156.92 159.12 155.67 159.21 154C159.3 152.22 157.89 150.75 156.13 150.75H143.86C142.39 150.75 141.05 149.75 140.76 148.31C140.36 146.32 141.87 144.58 143.78 144.58H156.05C157.52 144.58 158.86 143.58 159.15 142.14C159.55 140.15 158.04 138.41 156.13 138.41H143.78C142.07 138.41 140.69 137.03 140.69 135.32V132.23H156.05C157.52 132.23 158.86 131.23 159.15 129.79C159.55 127.8 158.04 126.06 156.13 126.06H137.59H135.49C132.3 126.02 131.43 130.51 134.42 131.6Z" fill="black" />
                        <path d="M165.39 126.02C163.47 126.02 161.97 127.77 162.37 129.75C162.66 131.19 164 132.19 165.47 132.19H171.57V135.28C171.57 136.99 170.19 138.37 168.48 138.37H165.47C164 138.37 162.66 139.37 162.37 140.81C161.97 142.8 163.48 144.54 165.39 144.54H168.3C169.97 144.54 171.47 145.79 171.56 147.46C171.65 149.24 170.24 150.71 168.48 150.71H165.47C164 150.71 162.66 151.71 162.37 153.15C161.97 155.14 163.48 156.88 165.39 156.88H168.3C169.97 156.88 171.47 158.13 171.56 159.8C171.65 161.58 170.24 163.05 168.48 163.05H153.12C151.65 163.05 150.31 164.05 150.02 165.49C149.62 167.48 151.13 169.22 153.04 169.22H164.87C163.04 174.4 157.06 176.94 151.98 174.42C150.89 173.88 149.97 173.08 149.13 172.2C147.99 171.01 146.09 170.92 144.85 172.03C143.58 173.16 143.46 175.12 144.6 176.39C150.25 182.75 159.99 183.34 166.35 177.69C168.98 175.36 170.73 172.2 171.32 168.73C176.16 167.22 178.85 162.07 177.34 157.23C176.94 155.94 176.26 154.76 175.35 153.77C178.56 150.28 178.56 144.91 175.35 141.42C176.89 139.73 177.75 137.53 177.76 135.24V131.58C177.79 131.57 177.81 131.56 177.84 131.55C180.84 130.46 179.96 125.97 176.77 125.97H174.67H165.39V126.02Z" fill="black" />
                    </svg>