<svg width="17" height="17" viewBox="0 0 17 17" fill="none" xmlns="http://www.w3.org/2000/svg">
<path d="M3.8519 16.979H1.9732C1.22611 16.979 0.61084 16.3638 0.61084 15.6167V7.12405C0.61084 6.37696 1.22611 5.76172 1.9732 5.76172H3.8519C4.59899 5.76172 5.21423 6.36597 5.21423 7.12405V15.6167C5.21423 16.3748 4.59899 16.979 3.8519 16.979ZM1.9732 6.78346C1.77544 6.78346 1.62162 6.93729 1.62162 7.13504V15.6277C1.62162 15.8254 1.77544 15.9792 1.9732 15.9792H3.8519C4.03867 15.9792 4.20348 15.8254 4.20348 15.6277V7.13504C4.20348 6.94827 4.04966 6.78346 3.8519 6.78346H1.9732Z" fill="white"/>
<path d="M2.90704 4.75012C1.64358 4.75012 0.61084 3.71737 0.61084 2.45391C0.61084 1.19045 1.64358 0.157715 2.90704 0.157715C4.17049 0.157715 5.20323 1.19045 5.20323 2.45391C5.21422 3.71737 4.18148 4.75012 2.90704 4.75012ZM2.90704 1.1575C2.19291 1.1575 1.62162 1.73979 1.62162 2.44293C1.62162 3.15706 2.20389 3.72836 2.90704 3.72836C3.61018 3.72836 4.19248 3.14607 4.19248 2.44293C4.20347 1.73979 3.62116 1.1575 2.90704 1.1575Z" fill="white"/>
<path d="M15.4976 16.9789H13.6188C12.8718 16.9789 12.2565 16.3636 12.2565 15.6165V10.7275C12.2565 10.299 12.2565 9.51898 11.85 9.23333C11.5863 9.05755 11.1469 9.05753 10.5316 9.25529V15.6055C10.5316 16.3526 9.92736 16.9679 9.16928 16.9679H7.29058C6.5435 16.9679 5.92822 16.3526 5.92822 15.6055V7.11291C5.92822 6.36582 6.5435 5.75056 7.29058 5.75056H9.16928C9.57579 5.75056 9.94932 5.93734 10.191 6.223C10.7294 5.79452 11.3996 5.50887 12.1137 5.42098C13.1025 5.28914 14.0473 5.5638 14.8603 6.19004C17.0796 7.92592 16.8599 10.6616 16.8489 10.7714V15.6165C16.8599 16.3746 16.2447 16.9789 15.4976 16.9789ZM11.3556 8.1017C11.7731 8.1017 12.1247 8.20059 12.4213 8.40934C13.2673 8.99163 13.2673 10.1672 13.2673 10.7275V15.6165C13.2673 15.8143 13.4211 15.9681 13.6188 15.9681H15.4976C15.6953 15.9681 15.8491 15.8143 15.8491 15.6165V10.7275C15.8601 10.5847 16.0249 8.37637 14.2451 6.99206C13.509 6.40977 12.7509 6.36582 12.2565 6.43174C11.5314 6.51964 10.8392 6.90416 10.4327 7.43151C10.3009 7.6073 10.0702 7.67322 9.87241 7.6073C9.66366 7.54138 9.53183 7.34362 9.53183 7.12389C9.53183 6.93712 9.37804 6.77233 9.18028 6.77233H7.30155C7.10379 6.77233 6.95 6.92613 6.95 7.12389V15.6165C6.95 15.8143 7.10379 15.9681 7.30155 15.9681H9.18028C9.36705 15.9681 9.53183 15.8143 9.53183 15.6165V8.90373C9.53183 8.69498 9.66369 8.5082 9.86144 8.4313C10.4327 8.21157 10.9271 8.1017 11.3556 8.1017Z" fill="white"/>
</svg>
