<svg width="17" height="17" viewBox="0 0 17 17" fill="none" xmlns="http://www.w3.org/2000/svg">
<path d="M12.8128 0.794922H3.91364C2.07888 0.794922 0.595703 2.2891 0.595703 4.11288V13.012C0.595703 14.8468 2.08987 16.33 3.91364 16.33H12.8128C14.6476 16.33 16.1307 14.8358 16.1307 13.012V4.11288C16.1307 2.27812 14.6366 0.794922 12.8128 0.794922ZM15.0101 13.012C15.0101 14.2315 14.0213 15.2203 12.8018 15.2203H3.90265C2.68313 15.2203 1.69436 14.2315 1.69436 13.012V4.11288C1.69436 2.89337 2.68313 1.90456 3.90265 1.90456H12.8018C14.0213 1.90456 15.0101 2.89337 15.0101 4.11288V13.012Z" fill="white"/>
<path d="M8.35216 4.31055C6.00103 4.31055 4.08936 6.22222 4.08936 8.57335C4.08936 10.9245 6.00103 12.8362 8.35216 12.8362C10.7033 12.8362 12.615 10.9245 12.615 8.57335C12.615 6.22222 10.7033 4.31055 8.35216 4.31055ZM8.35216 11.7045C6.61628 11.7045 5.20998 10.2983 5.20998 8.56237C5.20998 6.82649 6.61628 5.4202 8.35216 5.4202C10.088 5.4202 11.4943 6.82649 11.4943 8.56237C11.4943 10.2983 10.088 11.7045 8.35216 11.7045Z" fill="white"/>
<path d="M12.7801 4.87067C13.2958 4.87067 13.7139 4.45255 13.7139 3.9368C13.7139 3.42104 13.2958 3.00293 12.7801 3.00293C12.2643 3.00293 11.8462 3.42104 11.8462 3.9368C11.8462 4.45255 12.2643 4.87067 12.7801 4.87067Z" fill="white"/>
</svg>
