<svg width="29" height="27" viewBox="0 0 29 27" fill="none" xmlns="http://www.w3.org/2000/svg">
<path d="M27.5674 10.1206C27.8113 10.0985 27.8334 9.74382 27.5896 9.71057C21.2611 8.85717 3.39509 7.32769 0.868132 16.8038C-0.0961019 20.3947 5.91096 23.9302 10.8097 18.2889C14.6445 13.8778 20.8954 10.6305 27.5674 10.1206Z" fill="#F3649A"/>
<path d="M28.2641 12.2926C28.4304 12.1817 28.3085 11.9268 28.12 11.9933C23.8198 13.6558 12.8696 18.5878 14.4434 25.0714C15.053 27.5762 19.8742 27.7314 20.9825 22.6775C21.8248 18.7873 24.4737 14.8195 28.2641 12.2926Z" fill="#F3649A"/>
<path d="M27.5121 7.70407C27.6894 7.80381 27.8556 7.57107 27.7116 7.43807C24.2536 4.40129 14.8108 -3.0355 9.79012 1.35342C7.85057 3.04914 9.94528 7.39374 14.9327 6.04159C18.7675 4.99978 23.5221 5.5096 27.5121 7.70407Z" fill="#F3649A"/>
</svg>
