<svg width="47" height="28" viewBox="0 0 47 28" fill="none" xmlns="http://www.w3.org/2000/svg">
<path d="M31.5122 27.9025L24.0865 21.4521L16.8824 27.7141L9.39021 21.1972L2.06425 27.5589L0.556946 25.8299L9.39021 18.1604L16.8935 24.6773L24.0976 18.4153L31.5233 24.8657L38.4059 18.8919L46.3303 25.7745L44.823 27.5035L38.4059 21.9287L31.5122 27.9025ZM31.5122 19.0581L24.0865 12.6077L16.8824 18.8697L9.37913 12.3528L2.05317 18.7145L0.556946 16.9856L9.39021 9.31603L16.8935 15.8329L24.0976 9.57094L31.5233 16.0213L38.4059 10.0475L46.3303 16.9302L44.823 18.6591L38.4059 13.0843L31.5122 19.0581ZM31.5122 10.2138L24.0865 3.76337L16.8824 10.0254L9.39021 3.50846L2.06425 9.87019L0.556946 8.14122L9.39021 0.47168L16.8935 6.98857L24.0976 0.726592L31.5233 7.17698L38.4059 1.20317L46.3303 8.0858L44.823 9.81477L38.3948 4.23995L31.5122 10.2138Z" fill="#F14083"/>
</svg>
