<svg width="207" height="28" viewBox="0 0 207 28" fill="none" xmlns="http://www.w3.org/2000/svg">
    <path d="M207 24.4849L204.244 21.7289L201.488 24.4849L204.244 27.2409L207 24.4849ZM204.254 22.7249L206.014 24.4849L204.254 26.2449L202.494 24.4849L204.254 22.7249Z" fill="#ED1164" />
    <path d="M207 2.75601L204.244 0L201.488 2.75601L204.244 5.51201L207 2.75601ZM204.254 0.986364L206.014 2.74634L204.254 4.50631L202.494 2.74634L204.254 0.986364Z" fill="#ED1164" />
    <path d="M195.812 13.9445L193.056 11.1885L190.3 13.9445L193.056 16.7005L195.812 13.9445ZM193.056 12.1845L194.816 13.9445L193.056 15.7045L191.296 13.9445L193.056 12.1845Z" fill="#ED1164" />
    <path d="M184.614 24.4849L181.858 21.7289L179.102 24.4849L181.858 27.2409L184.614 24.4849ZM181.858 22.7249L183.618 24.4849L181.858 26.2449L180.098 24.4849L181.858 22.7249Z" fill="#ED1164" />
    <path d="M184.614 2.75601L181.858 0L179.102 2.75601L181.858 5.51201L184.614 2.75601ZM181.858 0.986364L183.618 2.74634L181.858 4.50631L180.098 2.74634L181.858 0.986364Z" fill="#ED1164" />
    <path d="M173.415 13.9445L170.659 11.1885L167.903 13.9445L170.659 16.7005L173.415 13.9445ZM170.669 12.1845L172.429 13.9445L170.669 15.7045L168.909 13.9445L170.669 12.1845Z" fill="#ED1164" />
    <path d="M162.227 24.4849L159.471 21.7289L156.715 24.4849L159.471 27.2409L162.227 24.4849ZM159.471 22.7249L161.231 24.4849L159.471 26.2449L157.711 24.4849L159.471 22.7249Z" fill="#ED1164" />
    <path d="M162.227 2.75601L159.471 0L156.715 2.75601L159.471 5.51201L162.227 2.75601ZM159.471 0.986364L161.231 2.74634L159.471 4.50631L157.711 2.74634L159.471 0.986364Z" fill="#ED1164" />
    <path d="M151.029 13.9445L148.273 11.1885L145.517 13.9445L148.273 16.7005L151.029 13.9445ZM148.283 12.1845L150.043 13.9445L148.283 15.7045L146.523 13.9445L148.283 12.1845Z" fill="#ED1164" />
    <path d="M139.841 24.4849L137.085 21.7289L134.329 24.4849L137.085 27.2409L139.841 24.4849ZM137.085 22.7249L138.845 24.4849L137.085 26.2449L135.325 24.4849L137.085 22.7249Z" fill="#ED1164" />
    <path d="M139.841 2.75601L137.085 0L134.329 2.75601L137.085 5.51201L139.841 2.75601ZM137.085 0.986364L138.845 2.74634L137.085 4.50631L135.325 2.74634L137.085 0.986364Z" fill="#ED1164" />
    <path d="M128.643 13.9445L125.887 11.1885L123.131 13.9445L125.887 16.7005L128.643 13.9445ZM125.896 12.1845L127.656 13.9445L125.896 15.7045L124.136 13.9445L125.896 12.1845Z" fill="#ED1164" />
    <path d="M117.454 24.4849L114.698 21.7289L111.942 24.4849L114.698 27.2409L117.454 24.4849ZM114.698 22.7249L116.458 24.4849L114.698 26.2449L112.938 24.4849L114.698 22.7249Z" fill="#ED1164" />
    <path d="M117.454 2.75601L114.698 0L111.942 2.75601L114.698 5.51201L117.454 2.75601ZM114.698 0.986364L116.458 2.74634L114.698 4.50631L112.938 2.74634L114.698 0.986364Z" fill="#ED1164" />
    <path d="M106.256 13.9445L103.5 11.1885L100.744 13.9445L103.5 16.7005L106.256 13.9445ZM103.5 12.1845L105.26 13.9445L103.5 15.7045L101.74 13.9445L103.5 12.1845Z" fill="#ED1164" />
    <path d="M95.0582 24.4849L92.3022 21.7289L89.5461 24.4849L92.3022 27.2409L95.0582 24.4849ZM92.3118 22.7249L94.0718 24.4849L92.3118 26.2449L90.5519 24.4849L92.3118 22.7249Z" fill="#ED1164" />
    <path d="M95.0582 2.75601L92.3022 0L89.5461 2.75601L92.3022 5.51201L95.0582 2.75601ZM92.3118 0.986364L94.0718 2.74634L92.3118 4.50631L90.5519 2.74634L92.3118 0.986364Z" fill="#ED1164" />
    <path d="M83.8697 13.9445L81.1138 11.1885L78.3577 13.9445L81.1138 16.7005L83.8697 13.9445ZM81.1138 12.1845L82.8737 13.9445L81.1138 15.7045L79.3538 13.9445L81.1138 12.1845Z" fill="#ED1164" />
    <path d="M72.6715 24.4849L69.9155 21.7289L67.1595 24.4849L69.9155 27.2409L72.6715 24.4849ZM69.9252 22.7249L71.6852 24.4849L69.9252 26.2449L68.1652 24.4849L69.9252 22.7249Z" fill="#ED1164" />
    <path d="M72.6715 2.75601L69.9155 0L67.1595 2.75601L69.9155 5.51201L72.6715 2.75601ZM69.9252 0.986364L71.6852 2.74634L69.9252 4.50631L68.1652 2.74634L69.9252 0.986364Z" fill="#ED1164" />
    <path d="M61.4829 13.9445L58.7269 11.1885L55.9709 13.9445L58.7269 16.7005L61.4829 13.9445ZM58.7269 12.1845L60.4868 13.9445L58.7269 15.7045L56.9669 13.9445L58.7269 12.1845Z" fill="#ED1164" />
    <path d="M50.285 24.4849L47.529 21.7289L44.7729 24.4849L47.529 27.2409L50.285 24.4849ZM47.529 22.7249L49.2889 24.4849L47.529 26.2449L45.769 24.4849L47.529 22.7249Z" fill="#ED1164" />
    <path d="M50.285 2.75601L47.529 0L44.7729 2.75601L47.529 5.51201L50.285 2.75601ZM47.529 0.986364L49.2889 2.74634L47.529 4.50631L45.769 2.74634L47.529 0.986364Z" fill="#ED1164" />
    <path d="M39.0868 13.9445L36.3307 11.1885L33.5748 13.9445L36.3307 16.7005L39.0868 13.9445ZM36.3404 12.1845L38.1004 13.9445L36.3404 15.7045L34.5804 13.9445L36.3404 12.1845Z" fill="#ED1164" />
    <path d="M27.8983 24.4849L25.1424 21.7289L22.3864 24.4849L25.1424 27.2409L27.8983 24.4849ZM25.1424 22.7249L26.9023 24.4849L25.1424 26.2449L23.3824 24.4849L25.1424 22.7249Z" fill="#ED1164" />
    <path d="M27.8983 2.75601L25.1424 0L22.3864 2.75601L25.1424 5.51201L27.8983 2.75601ZM25.1424 0.986364L26.9023 2.74634L25.1424 4.50631L23.3824 2.74634L25.1424 0.986364Z" fill="#ED1164" />
    <path d="M16.7004 13.9445L13.9444 11.1885L11.1884 13.9445L13.9444 16.7005L16.7004 13.9445ZM13.9541 12.1845L15.7141 13.9445L13.9541 15.7045L12.1941 13.9445L13.9541 12.1845Z" fill="#ED1164" />
    <path d="M5.51199 24.4849L2.75598 21.7289L0 24.4849L2.75598 27.2409L5.51199 24.4849ZM2.75598 22.7249L4.51596 24.4849L2.75598 26.2449L0.996029 24.4849L2.75598 22.7249Z" fill="#ED1164" />
    <path d="M5.51199 2.75601L2.75598 0L0 2.75601L2.75598 5.51201L5.51199 2.75601ZM2.75598 0.986364L4.51596 2.74634L2.75598 4.50631L0.996029 2.74634L2.75598 0.986364Z" fill="#ED1164" />
</svg>