<svg width="28" height="28" viewBox="0 0 28 28" fill="none" xmlns="http://www.w3.org/2000/svg">
<path d="M0.392446 10.1206C0.148617 10.0985 0.126463 9.74382 0.370292 9.71057C6.69877 8.85717 24.5648 7.32769 27.0917 16.8038C28.056 20.3947 22.0489 23.9302 17.1502 18.2889C13.3154 13.8778 7.07558 10.6305 0.392446 10.1206Z" fill="#F3649A"/>
<path d="M0.171067 12.5479C0.00481971 12.4371 0.126706 12.1822 0.315119 12.2487C4.61538 13.9112 15.5655 18.8432 13.9917 25.3268C13.3821 27.8316 8.56098 27.9868 7.45267 22.9329C6.59927 19.0427 3.9615 15.0749 0.171067 12.5479Z" fill="#F3649A"/>
<path d="M0.448102 7.70407C0.270771 7.80381 0.104498 7.57107 0.248579 7.43807C3.70652 4.40129 13.1494 -3.0355 18.17 1.35342C20.1096 3.04914 18.0149 7.39374 13.0274 6.04159C9.19268 4.99978 4.44912 5.5096 0.448102 7.70407Z" fill="#F3649A"/>
</svg>
