<svg width="25" height="25" viewBox="0 0 25 25" fill="none" xmlns="http://www.w3.org/2000/svg">
<path d="M11.3513 0.918945C11.3213 0.918945 11.3213 1.30895 11.3313 2.02895C11.3313 2.38895 11.3513 2.81894 11.4113 3.32894C11.4713 3.82894 11.5013 4.40895 11.6313 5.03895C11.7313 5.66895 11.8613 6.35894 12.0513 7.08894C12.2113 7.82894 12.4713 8.58895 12.7213 9.38895C13.2913 10.9789 14.0413 12.6889 15.0213 14.3789C16.0213 16.0589 17.1413 17.5489 18.2613 18.8189C18.8413 19.4389 19.3813 20.0289 19.9413 20.5289C20.4813 21.0589 21.0213 21.4989 21.5213 21.8989C22.0113 22.3189 22.4913 22.6289 22.9113 22.9189C23.3213 23.2189 23.6913 23.4489 24.0013 23.6189C24.6213 23.9789 24.9613 24.1689 24.9713 24.1489C25.0113 24.0789 23.6313 23.3089 21.6813 21.6889C21.2013 21.2789 20.6713 20.8289 20.1513 20.2989C19.6013 19.7989 19.0813 19.1989 18.5113 18.5889C17.4213 17.3189 16.3213 15.8489 15.3413 14.1889C14.3713 12.5189 13.6213 10.8389 13.0513 9.26894C12.7913 8.47894 12.5213 7.72895 12.3513 6.99895C12.1413 6.28895 12.0113 5.60894 11.8913 4.98895C11.4313 2.49894 11.4313 0.918945 11.3513 0.918945Z" fill="black"/>
<path d="M17.2014 17.8989C17.2114 17.9089 17.2814 17.8789 17.4314 17.7989C17.5714 17.7189 17.8014 17.6189 18.0514 17.4489C18.5714 17.1189 19.2914 16.5589 20.0114 15.7089C20.7414 14.8689 21.4614 13.7289 21.9214 12.3189C22.4014 10.9289 22.6114 9.25895 22.3214 7.56895C22.3114 7.50895 22.3014 7.45895 22.3014 7.39895L22.2714 7.16895L22.0514 7.26894C20.4914 7.93894 19.2414 9.05894 18.4114 10.2589C17.5714 11.4589 17.1614 12.7489 17.0114 13.8389C16.8614 14.9289 16.9414 15.8289 17.0514 16.4189C17.1614 17.0189 17.2914 17.3289 17.3114 17.3289C17.4014 17.3189 16.9214 15.9989 17.2714 13.8789C17.4514 12.8289 17.8714 11.5989 18.6914 10.4589C19.5014 9.31895 20.7014 8.25894 22.1914 7.61894L21.9314 7.47894C21.9414 7.52894 21.9514 7.58895 21.9514 7.63895C22.2314 9.25895 22.0414 10.8589 21.5914 12.2189C21.1614 13.5789 20.4814 14.7089 19.8014 15.5489C18.4414 17.2389 17.1514 17.8189 17.2014 17.8989Z" fill="black"/>
<path d="M13.1413 9.61887C13.1313 9.57887 12.7413 9.67886 12.0313 9.75886C11.3213 9.84886 10.2713 9.90887 9.0013 9.72887C7.7313 9.54887 6.24129 9.12887 4.77129 8.30887C4.04129 7.88887 3.31131 7.37886 2.64131 6.75886C2.30131 6.44886 1.99129 6.10887 1.68129 5.74887C1.39129 5.40887 1.1613 4.95887 1.4113 4.66887C1.6613 4.38887 2.1713 4.33887 2.6313 4.35887C3.1013 4.35887 3.57129 4.40887 4.02129 4.45887C4.93129 4.58887 5.79128 4.82887 6.58128 5.12887C8.16128 5.72887 9.44131 6.60887 10.3913 7.45887C11.3513 8.30887 11.9813 9.15887 12.3713 9.74887C12.7713 10.3489 12.9513 10.7089 12.9913 10.6889C13.0013 10.6789 12.9713 10.5889 12.8913 10.4189C12.8113 10.2489 12.7013 9.97887 12.5013 9.67887C12.1413 9.04887 11.5313 8.16887 10.5713 7.26887C9.6213 6.37887 8.33131 5.44887 6.70131 4.80887C5.89131 4.48887 5.0113 4.23887 4.0713 4.09887C3.6013 4.03887 3.1213 3.98887 2.6313 3.98887C2.3913 3.97887 2.13129 3.97887 1.87129 4.02887C1.61129 4.07887 1.33129 4.17887 1.12129 4.42887C0.911293 4.66887 0.891288 5.03887 0.991288 5.29887C1.08129 5.56887 1.24129 5.77887 1.40129 5.97887C1.72129 6.34887 2.05129 6.70887 2.40129 7.01887C3.10129 7.65887 3.85128 8.17887 4.61128 8.60887C6.14128 9.44887 7.68131 9.84887 8.98131 9.99887C10.2813 10.1489 11.3513 10.0389 12.0713 9.90887C12.4313 9.85887 12.7013 9.76887 12.8913 9.71887C13.0513 9.65887 13.1413 9.62887 13.1413 9.61887Z" fill="black"/>
</svg>
