<svg width="20" height="27" viewBox="0 0 20 27" fill="none" xmlns="http://www.w3.org/2000/svg">
<path d="M8.34129 0.00586996C9.59129 0.41587 10.5713 1.44587 11.1213 2.63587C11.6713 3.82587 11.8313 5.16587 11.8013 6.47587C11.7413 9.01587 10.5413 11.6859 9.18126 13.8259C6.90126 12.1659 6.12128 8.98587 5.83128 7.35587C5.38128 4.76587 6.11129 -0.19413 8.34129 0.00586996Z" fill="#ED1164"/>
<path d="M12.2213 18.0059C11.6513 16.6559 11.9913 15.0159 12.9113 13.8759C13.8313 12.7359 15.2813 12.0859 16.7413 11.9559C17.4213 11.8959 18.1713 11.9759 18.6413 12.4659C19.0813 12.9259 19.1613 13.6459 18.9613 14.2459C18.7613 14.8459 18.3313 15.3459 17.8513 15.7659C16.2213 17.1959 14.3813 18.2859 12.2213 18.0059Z" fill="#ED1164"/>
<path d="M10.1012 25.6758C10.0812 25.6758 10.0912 25.4858 10.1212 25.1458C10.1512 24.8058 10.2013 24.3158 10.2813 23.7058C10.4513 22.4958 10.7212 20.7958 11.4712 19.0558C12.2212 17.3158 13.3912 15.9758 14.4112 15.2758C14.9212 14.9158 15.3712 14.6958 15.6912 14.5758C16.0112 14.4558 16.2013 14.4158 16.2113 14.4258C16.2313 14.4758 15.4913 14.6958 14.5313 15.4358C13.5713 16.1558 12.4612 17.4658 11.7312 19.1658C11.0012 20.8658 10.7012 22.5358 10.4812 23.7258C10.2612 24.9258 10.1412 25.6758 10.1012 25.6758Z" fill="#263238"/>
<path d="M8.21136 3.84595C8.23136 3.84595 8.29133 4.15595 8.37133 4.71595C8.46133 5.27595 8.57135 6.08595 8.70135 7.08595C8.96135 9.09595 9.26137 11.876 9.53137 14.946C9.79137 18.026 9.96132 20.816 10.0513 22.836C10.0913 23.846 10.1213 24.6659 10.1313 25.2359C10.1413 25.8059 10.1413 26.116 10.1213 26.116C10.1013 26.116 10.0714 25.8059 10.0214 25.2459C9.98136 24.6359 9.92131 23.8259 9.85131 22.8559C9.71131 20.8359 9.51134 18.056 9.25134 14.976C8.99134 11.906 8.71135 9.12595 8.51135 7.10595C8.41135 6.13595 8.34136 5.33595 8.27136 4.72595C8.21136 4.16595 8.19136 3.84595 8.21136 3.84595Z" fill="#263238"/>
<path d="M8.43125 19.6958C7.74125 16.6858 5.50126 14.0658 2.63126 12.9258C1.90126 12.6358 0.961226 12.4758 0.411226 13.0458C-0.138774 13.6158 0.0612679 14.5558 0.391268 15.2658C1.79127 18.2358 5.12127 20.1758 8.39127 19.9058" fill="#ED1164"/>
<path d="M3.0412 15.2758C3.0512 15.2558 3.22125 15.3058 3.53125 15.4258C3.69125 15.4758 3.87123 15.5558 4.08123 15.6558C4.29123 15.7558 4.5412 15.8658 4.7912 16.0258C5.3112 16.3158 5.88119 16.7258 6.47119 17.2358C7.05119 17.7658 7.64119 18.3958 8.16119 19.1358C8.67119 19.8758 9.07121 20.6458 9.37121 21.3658C9.65121 22.0958 9.85122 22.7758 9.94122 23.3558C10.0112 23.6458 10.0212 23.9158 10.0512 24.1458C10.0812 24.3758 10.0812 24.5758 10.0812 24.7458C10.0812 25.0758 10.0712 25.2558 10.0512 25.2558C9.99121 25.2558 9.99121 24.5258 9.74121 23.3958C9.62121 22.8258 9.41121 22.1658 9.12121 21.4658C8.82121 20.7658 8.4212 20.0258 7.9212 19.2958C7.4112 18.5758 6.8412 17.9558 6.2912 17.4358C5.7212 16.9258 5.17121 16.5058 4.68121 16.1958C3.71121 15.5758 3.0212 15.3258 3.0412 15.2758Z" fill="#263238"/>
</svg>
