<svg width="25" height="24" viewBox="0 0 25 24" fill="none" xmlns="http://www.w3.org/2000/svg">
<path d="M13.9213 0.388916C13.8413 0.388916 13.8413 1.96892 13.3813 4.45892C13.2613 5.07892 13.1313 5.75892 12.9213 6.46892C12.7513 7.18892 12.4812 7.93891 12.2212 8.73891C11.6412 10.3089 10.8913 11.9889 9.93127 13.6589C8.94127 15.3189 7.84128 16.7889 6.76128 18.0589C6.19128 18.6689 5.67127 19.2689 5.12127 19.7689C4.60127 20.2989 4.0713 20.7489 3.5913 21.1589C1.6413 22.7789 0.261262 23.5489 0.301262 23.6189C0.311262 23.6389 0.661294 23.4489 1.27129 23.0889C1.58129 22.9089 1.95126 22.6889 2.36126 22.3889C2.77126 22.0989 3.26127 21.7789 3.75127 21.3689C4.25127 20.9689 4.79129 20.5289 5.33129 19.9989C5.89129 19.4989 6.43128 18.8989 7.01128 18.2889C8.12128 17.0189 9.25128 15.5289 10.2513 13.8489C11.2313 12.1589 11.9813 10.4489 12.5513 8.85892C12.8113 8.04892 13.0612 7.28891 13.2212 6.55891C13.4212 5.82891 13.5413 5.13891 13.6413 4.50891C13.7713 3.87891 13.8013 3.29891 13.8613 2.79891C13.9213 2.29891 13.9413 1.85892 13.9413 1.49892C13.9513 0.778917 13.9513 0.388916 13.9213 0.388916Z" fill="#ED1164"/>
<path d="M8.07125 17.3689C8.13125 17.2989 6.84126 16.7189 5.46126 15.0189C4.78126 14.1789 4.10122 13.0589 3.67122 11.6889C3.22122 10.3389 3.04124 8.72892 3.31124 7.10892C3.32124 7.04892 3.33126 6.99891 3.33126 6.94891L3.07125 7.08891C4.56125 7.72891 5.76125 8.78892 6.57125 9.92892C7.39125 11.0689 7.81123 12.2989 7.99123 13.3489C8.33123 15.4689 7.86125 16.7989 7.95125 16.7989C7.97125 16.8089 8.09126 16.4889 8.21126 15.8889C8.32126 15.2889 8.41124 14.3989 8.25124 13.3089C8.10124 12.2289 7.69122 10.9389 6.85121 9.72891C6.02121 8.52891 4.77126 7.41891 3.21126 6.73891L2.99123 6.63892L2.96126 6.86891C2.95126 6.91891 2.94124 6.97892 2.94124 7.03892C2.65124 8.72892 2.86127 10.3989 3.34127 11.7889C3.81127 13.1889 4.53124 14.3389 5.25124 15.1789C5.98124 16.0189 6.69126 16.5889 7.21126 16.9189C7.46126 17.0989 7.69126 17.1889 7.83126 17.2689C7.99126 17.3489 8.07125 17.3789 8.07125 17.3689Z" fill="#ED1164"/>
<path d="M12.1313 9.08887C12.1313 9.09887 12.2213 9.13887 12.4113 9.18887C12.6013 9.23887 12.8713 9.32887 13.2313 9.37887C13.9513 9.50887 15.0114 9.61888 16.3214 9.46888C17.6214 9.31888 19.1613 8.91887 20.6913 8.07887C21.4513 7.65887 22.2014 7.12887 22.9014 6.48887C23.2514 6.16887 23.5814 5.81887 23.9014 5.44887C24.0614 5.25887 24.2213 5.03887 24.3113 4.76887C24.4113 4.49887 24.3813 4.13888 24.1813 3.89888C23.9713 3.64888 23.6913 3.54888 23.4313 3.49888C23.1713 3.44888 22.9113 3.43888 22.6713 3.45888C22.1813 3.45888 21.7013 3.50888 21.2313 3.56888C20.2913 3.70888 19.4113 3.95888 18.6013 4.27888C16.9813 4.91888 15.6913 5.84887 14.7313 6.73887C13.7713 7.63887 13.1613 8.51888 12.8013 9.14888C12.6013 9.45888 12.5013 9.71888 12.4113 9.88888C12.3313 10.0589 12.2913 10.1589 12.3113 10.1589C12.3413 10.1789 12.5313 9.81888 12.9313 9.21888C13.3313 8.61888 13.9513 7.77888 14.9113 6.92888C15.8713 6.07888 17.1413 5.19888 18.7213 4.59888C19.5113 4.29888 20.3714 4.05888 21.2814 3.92888C21.7414 3.87888 22.2013 3.82887 22.6713 3.82887C23.1313 3.80887 23.6414 3.84888 23.8914 4.13888C24.1414 4.42888 23.9113 4.87888 23.6213 5.21888C23.3113 5.57888 23.0013 5.91887 22.6613 6.22887C21.9913 6.84887 21.2614 7.36888 20.5314 7.77888C19.0514 8.60888 17.5613 9.02887 16.3013 9.19887C15.0313 9.37887 13.9814 9.31887 13.2714 9.22887C12.5314 9.14887 12.1413 9.04887 12.1313 9.08887Z" fill="#ED1164"/>
</svg>
