<svg width="31" height="34" viewBox="0 0 31 34" fill="none" xmlns="http://www.w3.org/2000/svg">
<path d="M21.8106 0C21.8271 0.360701 21.8469 0.720744 21.8587 1.08145C21.9669 4.41085 24.2274 7.14017 27.4921 7.80355C28.2933 7.96643 29.1288 7.95851 29.9485 8.02973C30.0138 8.03566 30.079 8.04292 30.1648 8.05215C30.1648 10.3885 30.1648 12.7235 30.1648 15.0743C27.2396 15.2609 24.4766 14.7123 21.8667 13.2292C21.8667 13.4172 21.8667 13.5444 21.8667 13.6717C21.8706 16.7149 21.8779 19.7575 21.8792 22.8007C21.8818 28.2211 18.0974 32.7065 12.7581 33.6138C12.4357 33.6686 12.1112 33.7127 11.7875 33.7615C11.2157 33.7615 10.6447 33.7615 10.073 33.7615C9.37464 33.6283 8.66577 33.5373 7.97997 33.356C3.7353 32.2304 0.508111 28.444 0.0577285 24.0938C-0.514646 18.5633 3.22887 13.4376 8.63873 12.345C10.2213 12.0251 11.8026 12.0522 13.407 12.3661C13.407 14.8422 13.407 17.3203 13.407 19.8353C12.9698 19.6922 12.5385 19.5445 12.1033 19.4113C10.0993 18.7974 8.03141 19.8498 7.41947 21.8274C6.98227 23.2405 7.29352 24.5172 8.34529 25.5538C9.42476 26.6174 10.7416 26.9234 12.1745 26.4262C13.5646 25.9441 14.3882 24.9299 14.6269 23.468C14.6711 23.199 14.6783 22.9214 14.6783 22.6477C14.6836 15.0987 14.6849 7.54967 14.6876 0C17.0628 0 19.4367 0 21.8106 0ZM11.4426 14.0463C10.6862 14.1148 9.96086 14.1346 9.25265 14.2533C4.70465 15.013 1.41679 19.4944 2.04521 24.0483C2.77189 29.3098 7.86194 32.7816 13.0305 31.5399C17.1254 30.5561 19.9029 27.0407 19.9009 22.8317C19.8989 18.4907 19.8877 14.1504 19.8811 9.8095C19.8811 9.68685 19.8811 9.56419 19.8811 9.44154C19.9088 9.42572 19.9372 9.40923 19.9649 9.39341C22.321 11.4824 24.9527 12.947 28.1898 13.0941C28.1898 12.0324 28.1898 10.9833 28.1898 9.96116C23.5435 9.24306 20.7911 6.59616 19.8831 1.99804C18.832 1.99804 17.7611 1.99804 16.6638 1.99804C16.6638 2.1464 16.6638 2.27631 16.6638 2.40622C16.6625 9.16459 16.6632 15.923 16.654 22.6813C16.6533 23.1396 16.615 23.6052 16.5313 24.0556C16.0196 26.8238 13.4136 28.8053 10.5656 28.6108C7.70236 28.415 5.37791 26.0483 5.26515 23.2148C5.13327 19.8933 7.73599 17.2194 11.0601 17.2609C11.1861 17.2622 11.312 17.2609 11.4419 17.2609C11.4426 16.1966 11.4426 15.1765 11.4426 14.0463Z" fill="white"/>
</svg>
