<svg class="pl-5 m-4 text-center" width="298" height="285"  viewBox="0 0 248 286" fill="none" xmlns="http://www.w3.org/2000/svg">
  <path d="M11.563 220.424C9.25297 220.424 7.31697 221.172 5.71097 222.69C4.10497 224.208 3.31297 226.078 3.31297 228.344C3.31297 230.61 4.10497 232.48 5.71097 233.998C7.31697 235.494 9.25297 236.242 11.563 236.242C14.005 236.242 16.227 235.186 17.789 233.36L15.479 231.402C14.445 232.568 13.147 233.162 11.563 233.162C10.177 233.162 9.03297 232.7 8.08697 231.798C7.16297 230.874 6.70097 229.73 6.70097 228.344C6.70097 226.958 7.16297 225.814 8.10897 224.89C9.05497 223.966 10.199 223.504 11.563 223.504C13.125 223.504 14.423 224.076 15.457 225.242L17.767 223.284C16.205 221.502 14.005 220.424 11.563 220.424ZM22.5831 236V230.588C22.5831 228.762 23.6831 227.706 25.5531 227.706C25.9491 227.706 26.3231 227.75 26.6531 227.816V224.736C26.3011 224.692 26.0151 224.67 25.7951 224.67C24.2771 224.67 23.0891 225.308 22.5831 226.43V224.912H19.3051V236H22.5831ZM27.2644 230.522C27.2644 232.26 27.8144 233.646 28.9364 234.702C30.0584 235.736 31.5104 236.264 33.3364 236.264C35.2064 236.264 36.8124 235.582 38.1104 234.24L36.1964 232.414C35.4264 233.14 34.5244 233.492 33.4904 233.492C31.7524 233.492 30.6084 232.634 30.5424 231.314H38.9244C38.9464 230.984 38.9684 230.632 38.9684 230.258C38.9684 228.652 38.4404 227.332 37.3844 226.254C36.3284 225.176 34.9644 224.626 33.2704 224.626C31.5324 224.626 30.0804 225.154 28.9584 226.232C27.8364 227.288 27.2644 228.696 27.2644 230.434V230.522ZM30.5864 229.18C30.6744 228.146 31.8404 227.332 33.2704 227.332C34.5904 227.332 35.6684 228.146 35.6684 229.18H30.5864ZM40.1121 230.456C40.1121 232.084 40.6401 233.448 41.6741 234.57C42.7301 235.67 44.0501 236.22 45.6121 236.22C47.3501 236.22 48.5601 235.692 49.2861 234.614C49.4401 235.076 49.7701 235.472 50.2761 235.802C50.7381 236.066 51.3541 236.198 52.0801 236.198C52.7181 236.198 53.2021 236.132 53.5541 236.022V233.294C53.3561 233.316 53.1581 233.338 53.0041 233.338C52.4101 233.338 52.1901 232.986 52.1901 232.106V224.912H48.9121V226.364C48.5821 225.396 47.2841 224.714 45.6121 224.714C44.0501 224.714 42.7301 225.264 41.6741 226.386C40.6401 227.486 40.1121 228.85 40.1121 230.456ZM46.2061 233.228C45.4141 233.228 44.7541 232.964 44.2041 232.436C43.6541 231.886 43.3901 231.226 43.3901 230.456C43.3901 229.686 43.6541 229.026 44.2041 228.498C44.7541 227.948 45.4141 227.684 46.2061 227.684C47.0201 227.684 47.7021 227.948 48.2521 228.498C48.8241 229.026 49.1101 229.686 49.1101 230.456C49.1101 231.226 48.8241 231.886 48.2521 232.436C47.7021 232.964 47.0201 233.228 46.2061 233.228ZM55.3278 232.326C55.3278 234.966 56.6038 236.286 59.1558 236.286C59.7938 236.286 60.3218 236.242 60.7618 236.132V233.228C60.3878 233.294 60.1018 233.316 59.9258 233.316C58.9358 233.316 58.5178 232.898 58.5178 231.842V227.882H60.9818V224.912H58.5178V220.666H55.3278V224.912H53.8758V227.882H55.3278V232.326ZM62.4027 233.074C62.4027 235.164 63.3707 236.198 65.3067 236.198C66.0327 236.198 66.5387 236.132 66.8247 236.022V233.228C66.7587 233.25 66.6267 233.272 66.4287 233.272C65.8787 233.272 65.6807 232.92 65.6807 232.106V224.912H62.4027V233.074ZM62.1607 222.118C62.1607 223.152 62.9967 223.966 64.0307 223.966C65.0647 223.966 65.9007 223.152 65.9007 222.118C65.9007 221.062 65.0647 220.248 64.0307 220.248C62.9967 220.248 62.1607 221.062 62.1607 222.118ZM74.2025 236L78.9545 224.912H75.6325L72.7505 231.952L69.8465 224.912H66.5245L71.2765 236H74.2025ZM80.1059 233.074C80.1059 235.164 81.0739 236.198 83.0099 236.198C83.7359 236.198 84.2419 236.132 84.5279 236.022V233.228C84.4619 233.25 84.3299 233.272 84.1319 233.272C83.5819 233.272 83.3839 232.92 83.3839 232.106V224.912H80.1059V233.074ZM79.8639 222.118C79.8639 223.152 80.6999 223.966 81.7339 223.966C82.7679 223.966 83.6039 223.152 83.6039 222.118C83.6039 221.062 82.7679 220.248 81.7339 220.248C80.6999 220.248 79.8639 221.062 79.8639 222.118ZM85.3797 230.456C85.3797 232.084 85.9077 233.448 86.9417 234.57C87.9977 235.67 89.3177 236.22 90.8797 236.22C92.6177 236.22 93.8277 235.692 94.5537 234.614C94.7077 235.076 95.0377 235.472 95.5437 235.802C96.0057 236.066 96.6217 236.198 97.3477 236.198C97.9857 236.198 98.4697 236.132 98.8217 236.022V233.294C98.6237 233.316 98.4257 233.338 98.2717 233.338C97.6777 233.338 97.4577 232.986 97.4577 232.106V220.666H94.1797V226.364C93.8497 225.396 92.5517 224.714 90.8797 224.714C89.3177 224.714 87.9977 225.264 86.9417 226.386C85.9077 227.486 85.3797 228.85 85.3797 230.456ZM91.4737 233.228C90.6817 233.228 90.0217 232.964 89.4717 232.436C88.9217 231.886 88.6577 231.226 88.6577 230.456C88.6577 229.686 88.9217 229.026 89.4717 228.498C90.0217 227.948 90.6817 227.684 91.4737 227.684C92.2877 227.684 92.9697 227.948 93.5197 228.498C94.0917 229.026 94.3777 229.686 94.3777 230.456C94.3777 231.226 94.0917 231.886 93.5197 232.436C92.9697 232.964 92.2877 233.228 91.4737 233.228ZM99.5379 230.456C99.5379 232.084 100.066 233.448 101.1 234.57C102.156 235.67 103.476 236.22 105.038 236.22C106.776 236.22 107.986 235.692 108.712 234.614C108.866 235.076 109.196 235.472 109.702 235.802C110.164 236.066 110.78 236.198 111.506 236.198C112.144 236.198 112.628 236.132 112.98 236.022V233.294C112.782 233.316 112.584 233.338 112.43 233.338C111.836 233.338 111.616 232.986 111.616 232.106V224.912H108.338V226.364C108.008 225.396 106.71 224.714 105.038 224.714C103.476 224.714 102.156 225.264 101.1 226.386C100.066 227.486 99.5379 228.85 99.5379 230.456ZM105.632 233.228C104.84 233.228 104.18 232.964 103.63 232.436C103.08 231.886 102.816 231.226 102.816 230.456C102.816 229.686 103.08 229.026 103.63 228.498C104.18 227.948 104.84 227.684 105.632 227.684C106.446 227.684 107.128 227.948 107.678 228.498C108.25 229.026 108.536 229.686 108.536 230.456C108.536 231.226 108.25 231.886 107.678 232.436C107.128 232.964 106.446 233.228 105.632 233.228ZM113.696 230.456C113.696 232.084 114.224 233.448 115.258 234.57C116.314 235.67 117.634 236.22 119.196 236.22C120.934 236.22 122.144 235.692 122.87 234.614C123.024 235.076 123.354 235.472 123.86 235.802C124.322 236.066 124.938 236.198 125.664 236.198C126.302 236.198 126.786 236.132 127.138 236.022V233.294C126.94 233.316 126.742 233.338 126.588 233.338C125.994 233.338 125.774 232.986 125.774 232.106V220.666H122.496V226.364C122.166 225.396 120.868 224.714 119.196 224.714C117.634 224.714 116.314 225.264 115.258 226.386C114.224 227.486 113.696 228.85 113.696 230.456ZM119.79 233.228C118.998 233.228 118.338 232.964 117.788 232.436C117.238 231.886 116.974 231.226 116.974 230.456C116.974 229.686 117.238 229.026 117.788 228.498C118.338 227.948 118.998 227.684 119.79 227.684C120.604 227.684 121.286 227.948 121.836 228.498C122.408 229.026 122.694 229.686 122.694 230.456C122.694 231.226 122.408 231.886 121.836 232.436C121.286 232.964 120.604 233.228 119.79 233.228ZM136.641 230.456C136.641 232.084 137.169 233.448 138.203 234.57C139.259 235.67 140.579 236.22 142.141 236.22C143.879 236.22 145.089 235.692 145.815 234.614C145.969 235.076 146.299 235.472 146.805 235.802C147.267 236.066 147.883 236.198 148.609 236.198C149.247 236.198 149.731 236.132 150.083 236.022V233.294C149.885 233.316 149.687 233.338 149.533 233.338C148.939 233.338 148.719 232.986 148.719 232.106V224.912H145.441V226.364C145.111 225.396 143.813 224.714 142.141 224.714C140.579 224.714 139.259 225.264 138.203 226.386C137.169 227.486 136.641 228.85 136.641 230.456ZM142.735 233.228C141.943 233.228 141.283 232.964 140.733 232.436C140.183 231.886 139.919 231.226 139.919 230.456C139.919 229.686 140.183 229.026 140.733 228.498C141.283 227.948 141.943 227.684 142.735 227.684C143.549 227.684 144.231 227.948 144.781 228.498C145.353 229.026 145.639 229.686 145.639 230.456C145.639 231.226 145.353 231.886 144.781 232.436C144.231 232.964 143.549 233.228 142.735 233.228ZM151.325 232.392C151.325 234.988 152.579 236.286 155.109 236.286C155.769 236.286 156.297 236.242 156.671 236.132V233.228C156.451 233.294 156.187 233.316 155.879 233.316C154.977 233.316 154.603 232.876 154.603 231.886V220.666H151.325V232.392ZM57.982 258V242.666H52.35V245.746H54.594V258H57.982ZM60.4543 253.534C60.6083 254.876 61.2243 255.998 62.3023 256.9C63.3803 257.802 64.6563 258.242 66.1303 258.242C67.6043 258.242 68.8583 257.802 69.9363 256.9C71.0143 255.998 71.6523 254.876 71.8063 253.534C71.8503 253.072 71.8723 251.994 71.8723 250.322C71.8723 248.672 71.8503 247.594 71.8063 247.132C71.6523 245.79 71.0143 244.668 69.9363 243.766C68.8583 242.864 67.6043 242.424 66.1303 242.424C64.6563 242.424 63.3803 242.864 62.3023 243.766C61.2243 244.668 60.6083 245.79 60.4543 247.132C60.4103 247.594 60.3883 248.672 60.3883 250.322C60.3883 251.994 60.4103 253.072 60.4543 253.534ZM63.8423 253.16C63.7983 252.808 63.7763 251.862 63.7763 250.322C63.7763 248.848 63.7983 247.946 63.8203 247.594C63.9743 246.384 64.9203 245.504 66.1303 245.504C67.3403 245.504 68.2863 246.384 68.4403 247.594C68.4623 247.946 68.4843 248.848 68.4843 250.322C68.4843 251.862 68.4623 252.808 68.4183 253.16C68.3083 254.326 67.3403 255.162 66.1303 255.162C64.9203 255.162 63.9523 254.326 63.8423 253.16ZM73.6457 253.534C73.7997 254.876 74.4157 255.998 75.4937 256.9C76.5717 257.802 77.8477 258.242 79.3217 258.242C80.7957 258.242 82.0497 257.802 83.1277 256.9C84.2057 255.998 84.8437 254.876 84.9977 253.534C85.0417 253.072 85.0637 251.994 85.0637 250.322C85.0637 248.672 85.0417 247.594 84.9977 247.132C84.8437 245.79 84.2057 244.668 83.1277 243.766C82.0497 242.864 80.7957 242.424 79.3217 242.424C77.8477 242.424 76.5717 242.864 75.4937 243.766C74.4157 244.668 73.7997 245.79 73.6457 247.132C73.6017 247.594 73.5797 248.672 73.5797 250.322C73.5797 251.994 73.6017 253.072 73.6457 253.534ZM77.0337 253.16C76.9897 252.808 76.9677 251.862 76.9677 250.322C76.9677 248.848 76.9897 247.946 77.0117 247.594C77.1657 246.384 78.1117 245.504 79.3217 245.504C80.5317 245.504 81.4777 246.384 81.6317 247.594C81.6537 247.946 81.6757 248.848 81.6757 250.322C81.6757 251.862 81.6537 252.808 81.6097 253.16C81.4997 254.326 80.5317 255.162 79.3217 255.162C78.1117 255.162 77.1437 254.326 77.0337 253.16ZM92.4471 248.188C93.1291 247.528 93.4811 246.736 93.4811 245.79C93.4811 244.844 93.1291 244.052 92.4471 243.392C91.7651 242.732 90.9511 242.402 89.9831 242.402C89.0151 242.402 88.1791 242.732 87.4971 243.392C86.8151 244.052 86.4851 244.844 86.4851 245.79C86.4851 246.736 86.8151 247.528 87.4971 248.188C88.1791 248.848 89.0151 249.178 89.9831 249.178C90.9511 249.178 91.7651 248.848 92.4471 248.188ZM90.5551 258L101.005 242.666H98.0131L87.5631 258H90.5551ZM89.9831 246.956C89.3671 246.956 88.9051 246.472 88.9051 245.79C88.9051 245.152 89.3671 244.624 89.9831 244.624C90.5771 244.624 91.0611 245.152 91.0611 245.79C91.0611 246.428 90.5771 246.956 89.9831 246.956ZM96.1431 257.274C96.8251 257.934 97.6611 258.264 98.6291 258.264C99.5971 258.264 100.411 257.934 101.093 257.274C101.775 256.614 102.105 255.822 102.105 254.876C102.105 253.93 101.775 253.138 101.093 252.478C100.411 251.818 99.5971 251.488 98.6291 251.488C97.6611 251.488 96.8251 251.818 96.1431 252.478C95.4611 253.138 95.1091 253.93 95.1091 254.876C95.1091 255.822 95.4611 256.614 96.1431 257.274ZM97.5291 254.876C97.5291 254.238 98.0131 253.71 98.6291 253.71C99.2231 253.71 99.7071 254.238 99.7071 254.876C99.7071 255.514 99.2231 256.042 98.6291 256.042C97.9911 256.042 97.5291 255.558 97.5291 254.876ZM103.749 257.67C104.475 258.374 105.575 258.374 106.279 257.67C107.005 256.966 107.005 255.866 106.279 255.162C105.575 254.458 104.475 254.458 103.749 255.162C103.045 255.866 103.045 256.966 103.749 257.67Z" fill="white" />
  <path d="M110.54 198.09H48.44C47.09 198.09 46 197 46 195.65C46 194.3 47.09 193.21 48.44 193.21H110.54C111.89 193.21 112.98 194.3 112.98 195.65C112.98 197 111.89 198.09 110.54 198.09Z" fill="#FBC000" />
  <path d="M67.9202 147.6H90.7601C90.7601 147.6 79.0902 165.15 67.9202 147.6Z" fill="#DEDFDF" />
  <path d="M64.0702 126.69L61.9902 133.82V147.6L95.1602 146.43L97.3902 138.44L95.1602 126.13L64.0702 126.69Z" fill="#A6A8AC" />
  <path d="M15.3801 118.44L41.0101 144.07L17.1901 151.76L7.11011 141.5L15.3801 118.44Z" fill="#F798BC" />
  <path d="M120.78 14.6202L146.41 40.2502C146.41 40.2502 165.6 22.7302 152.75 8.87022C139.9 -4.98977 124.09 6.76022 120.78 14.6202Z" fill="#F798BC" />
  <path d="M36.3401 70.3401C36.3401 70.3401 34.7801 90.1501 48.3901 106.61C62.0001 123.07 62.0002 124.25 62.0002 124.25L95.1702 126.12C95.1702 126.12 100.07 112.06 112.17 105.43C124.27 98.8001 134.86 43.3801 82.2001 37.3301L82.7001 46.9001C82.7001 46.9001 105.27 49.2201 88.4802 68.2201L36.3401 70.3401Z" fill="#FBC000" />
  <path d="M88.4802 68.23H15.3802C15.3802 68.23 -4.21981 67.07 3.84019 52.21C11.9002 37.35 15.3802 44.15 15.3802 44.15L14.2002 30.04L22.2302 15.93C22.2302 15.93 39.3602 3.08002 57.0002 25.5C57.0002 25.5 83.2002 23.74 82.7002 46.92C82.7002 46.91 104.57 54.79 88.4802 68.23Z" fill="white" />
  <path d="M120.78 14.6199L94.66 39.1599L94.7401 39.2399C106.51 43.6499 115.85 52.9799 120.25 64.7499L120.28 64.7799L146.4 40.2399L120.78 14.6199Z" fill="#ED1164" />
  <path d="M41.01 144.07L62.0001 123.08C61.9601 122.99 61.9 122.9 61.86 122.81L50.28 108.48C46.1 104.38 41.94 100.26 39.17 94.7397L39.14 94.6997L15.39 118.45L41.01 144.07Z" fill="#ED1164" />
  <path d="M153.63 121H158.9V105.62H153.63C151.64 105.62 149.85 104.43 149.05 102.49C148.27 100.63 148.69 98.5197 150.1 97.0997L153.83 93.3697L142.95 82.4897L139.22 86.2197C137.81 87.6297 135.69 88.0397 133.99 87.3397L133.73 87.2197C131.89 86.4597 130.7 84.6797 130.7 82.6897V77.4197H122.88C122.93 78.2697 123.01 79.1197 123.01 79.9797C123.01 88.4797 120.45 94.4197 116.87 99.3397L117.08 99.1097C118.9 98.3397 120.91 97.9197 123.01 97.9197C131.49 97.9197 138.39 104.81 138.39 113.3C138.39 121.79 131.5 128.68 123.01 128.68C114.53 128.68 107.63 121.79 107.63 113.3C107.63 111.71 107.87 110.17 108.32 108.72C103.01 113.89 97.7301 119.08 95.2501 127.09L95.14 127.04C96.49 127.96 97.3701 129.49 97.3701 131.24C97.3701 133.19 96.27 134.86 94.67 135.73L103.06 144.12L106.79 140.39C108.2 138.97 110.31 138.56 112.02 139.27L112.28 139.38C114.12 140.15 115.31 141.92 115.31 143.92V149.19H130.69V143.92C130.69 141.93 131.88 140.14 133.82 139.34C135.68 138.57 137.79 138.97 139.21 140.39L142.94 144.12L153.82 133.24L150.09 129.51C148.68 128.1 148.27 125.98 149.08 124.02C149.86 122.19 151.64 121 153.63 121Z" fill="#FCCF3D" />
  <path d="M95.16 127.05C94.7 126.74 94.19 126.49 93.64 126.34L95.16 127.05Z" fill="#E6B25E" />
  <path d="M123.02 121C127.26 121 130.71 117.55 130.71 113.31C130.71 109.07 127.26 105.62 123.02 105.62C118.78 105.62 115.33 109.07 115.33 113.31C115.33 117.55 118.78 121 123.02 121ZM123.02 110.75C124.43 110.75 125.58 111.9 125.58 113.31C125.58 114.72 124.43 115.87 123.02 115.87C121.61 115.87 120.46 114.72 120.46 113.31C120.46 111.9 121.61 110.75 123.02 110.75Z" fill="black" />
  <path d="M158.9 21.2298C158.9 9.82981 149.62 0.549805 138.22 0.549805C132.69 0.549805 127.5 2.69981 123.59 6.60981L93.96 36.2398C90.13 34.9498 86.07 34.2098 81.87 33.9798C78.33 27.7998 71.6899 23.6198 64.0699 23.6198C62.1199 23.6198 60.24 23.9098 58.45 24.4198C54.03 16.0998 45.43 10.7998 35.88 10.7998C21.75 10.7998 10.25 22.2998 10.25 36.4298C10.25 38.3898 10.49 40.3298 10.93 42.2198C4.60999 44.1298 0 49.9998 0 56.9398C0 65.4198 6.90001 72.3198 15.38 72.3198H33.97C33.54 74.8498 33.3199 77.4298 33.3199 80.0098C33.3199 85.6498 34.36 90.2398 36.05 94.1598L13.19 117.03L0.469971 150.11C0.169971 150.9 0.00994873 151.73 0.00994873 152.58C0.00994873 156.38 3.09996 159.47 6.89996 159.47C7.74996 159.47 8.58 159.31 9.37 159.01L42.45 146.29L59.17 129.57C59.04 130.12 58.96 130.69 58.96 131.28C58.96 133.26 59.73 135.04 60.96 136.41C59.73 137.77 58.96 139.56 58.96 141.54C58.96 145.1 61.41 148.08 64.7 148.95C66.88 155.2 72.73 159.48 79.46 159.48C86.19 159.48 92.04 155.2 94.22 148.95C97.51 148.08 99.96 145.11 99.96 141.54C99.96 139.56 99.19 137.78 97.96 136.41C99.19 135.05 99.96 133.26 99.96 131.28C99.96 129.46 99.3 127.81 98.24 126.49C99.83 122.19 102.33 118.75 105.24 115.57C106.34 124.41 113.89 131.28 123.03 131.28C132.92 131.28 140.97 123.23 140.97 113.34C140.97 103.45 132.92 95.3998 123.03 95.3998C122.78 95.3998 122.54 95.4298 122.29 95.4398C124.31 91.2498 125.6 86.2898 125.6 80.0298C125.6 74.9798 124.73 70.1198 123.2 65.5498L152.86 35.8898C156.74 31.9498 158.9 26.7598 158.9 21.2298ZM5.13 56.9298C5.13 51.2798 9.73001 46.6798 15.38 46.6798C21.03 46.6798 25.63 51.2798 25.63 56.9298H30.7599C30.7599 48.6698 24.21 41.9298 16.04 41.5898C15.6 39.9098 15.38 38.1798 15.38 36.4298C15.38 25.1298 24.58 15.9298 35.88 15.9298C43.38 15.9298 50.14 19.9998 53.74 26.4398C48.28 29.6498 44.42 35.2898 43.7 41.8798C39.2299 42.9798 35.88 46.9998 35.88 51.8098H41.0099C41.0099 48.9798 43.31 46.6798 46.14 46.6798C48.97 46.6798 51.27 48.9798 51.27 51.8098H56.4C56.4 47.1098 53.2 43.1798 48.88 41.9698C49.93 34.5098 56.34 28.7398 64.09 28.7398C72.57 28.7398 79.47 35.6398 79.47 44.1198C79.47 45.4698 79.25 46.7898 78.91 48.0698C74.71 50.1698 71.79 54.4798 71.79 59.4898H76.92C76.92 55.2498 80.37 51.7998 84.61 51.7998C88.85 51.7998 92.3 55.2498 92.3 59.4898C92.3 63.7298 88.85 67.1798 84.61 67.1798H15.41C9.72997 67.1798 5.13 62.5798 5.13 56.9298ZM66.64 72.3098V79.9998C66.64 84.2398 70.09 87.6898 74.33 87.6898H94.83C96.24 87.6898 97.39 88.8398 97.39 90.2498C97.39 91.6598 96.24 92.8098 94.83 92.8098H69.2C64.96 92.8098 61.5099 96.2598 61.5099 100.5C61.5099 104.74 64.96 108.19 69.2 108.19H74.33C75.74 108.19 76.89 109.34 76.89 110.75V123.56H66.64C66.12 123.56 65.61 123.61 65.12 123.71C62.19 116.52 57.16 111.58 52.27 106.81C45.16 99.8798 38.45 93.3298 38.45 79.9898C38.45 77.3998 38.76 74.8298 39.24 72.2998H66.64V72.3098ZM94.83 131.25C94.83 132.66 93.68 133.81 92.27 133.81H66.64C65.2299 133.81 64.08 132.66 64.08 131.25C64.08 129.84 65.2299 128.69 66.64 128.69H92.27C93.68 128.69 94.83 129.84 94.83 131.25ZM7.51996 154.2C6.40996 154.63 5.13 153.75 5.13 152.56C5.13 152.34 5.17 152.13 5.25 151.93L7.81995 145.25L14.2 151.63L7.51996 154.2ZM39.58 141.87L19.43 149.62L9.81995 140.01L17.5699 119.86L38.55 98.8798C40.96 102.66 43.94 105.81 46.99 108.82L26.37 129.44L29.99 133.06L50.64 112.41C53.79 115.54 56.72 118.7 58.88 122.55L39.58 141.87ZM79.45 154.32C75.66 154.32 72.29 152.31 70.42 149.19H88.48C86.61 152.3 83.2299 154.32 79.45 154.32ZM92.2599 144.07H66.63C65.22 144.07 64.0699 142.92 64.0699 141.51C64.0699 140.1 65.22 138.95 66.63 138.95H92.2599C93.67 138.95 94.8199 140.1 94.8199 141.51C94.8199 142.92 93.6799 144.07 92.2599 144.07ZM93.78 123.72C93.29 123.62 92.7799 123.57 92.2599 123.57H82.0099V110.76C82.0099 106.52 78.5599 103.07 74.3199 103.07H69.19C67.78 103.07 66.63 101.92 66.63 100.51C66.63 99.0998 67.78 97.9498 69.19 97.9498H94.8199C99.0599 97.9498 102.51 94.4998 102.51 90.2598C102.51 86.0198 99.0599 82.5698 94.8199 82.5698H74.3199C72.9099 82.5698 71.7599 81.4198 71.7599 80.0098V72.3198H84.5699C91.6399 72.3198 97.38 66.5698 97.38 59.5098C97.38 52.4398 91.6299 46.6998 84.5699 46.6998C84.4999 46.6998 84.43 46.7198 84.36 46.7198C84.47 45.8598 84.5699 45.0098 84.5699 44.1398C84.5699 42.4598 84.34 40.8398 83.97 39.2798C104.4 41.5298 120.45 59.0698 120.45 79.9998C120.45 93.3298 113.74 99.8898 106.63 106.82C101.74 111.59 96.71 116.52 93.78 123.72ZM123.02 100.5C130.09 100.5 135.83 106.25 135.83 113.31C135.83 120.38 130.08 126.12 123.02 126.12C115.96 126.12 110.21 120.37 110.21 113.31C110.21 112.2 110.38 111.11 110.66 110.04C113.46 107.31 116.26 104.52 118.67 101.3C120.06 100.8 121.51 100.5 123.02 100.5ZM113.73 49.3398L129.2 33.8698L125.58 30.2498L110.11 45.7198C106.82 42.7698 103.12 40.2798 99.09 38.3598L120.45 16.9998L142.45 38.9998L121.07 60.3798C119.16 56.3398 116.68 52.6298 113.73 49.3398ZM146.08 35.3698L124.08 13.3698L127.21 10.2398C130.15 7.2998 134.06 5.6798 138.21 5.6798C146.79 5.6798 153.77 12.6598 153.77 21.2398C153.77 25.3898 152.15 29.2998 149.21 32.2398L146.08 35.3698Z" fill="black" />
</svg>