<svg width="21" height="18" viewBox="0 0 21 18" fill="none" xmlns="http://www.w3.org/2000/svg">
<path d="M7.07447 17.0108C4.07513 17.0108 1.5372 15.9122 0.526433 15.0003C0.339661 14.8355 0.284734 14.5608 0.3946 14.3411C0.504466 14.1104 0.757177 13.9895 0.998883 14.0444C1.02086 14.0444 3.19619 14.451 5.31661 13.2754C4.44867 12.9458 3.361 12.2536 2.67983 10.8364C2.59194 10.6386 2.61391 10.4189 2.74575 10.2541C2.80068 10.1882 2.86659 10.1332 2.9435 10.1003C1.99865 9.41909 1.11972 8.22156 1.0538 6.30989C1.04282 6.07917 1.18564 5.87041 1.39438 5.78252C1.52622 5.72759 1.66904 5.72759 1.80088 5.77154C1.21859 4.82669 0.888998 3.39843 1.73497 1.38788C1.81187 1.19012 1.99867 1.05828 2.20742 1.0473C2.43813 1.02532 2.62487 1.13519 2.72375 1.32196C2.81165 1.47578 4.86616 4.81571 9.67829 5.0684C9.60138 3.78297 10.0518 1.84933 12.1393 0.717713C14.4574 -0.545746 16.3691 0.552905 17.2371 1.49775C17.8633 1.34394 18.7093 1.03632 19.0499 0.673758C19.2037 0.508959 19.4454 0.45402 19.6541 0.530926C19.8629 0.607833 20.0057 0.805599 20.0167 1.03632C20.0167 1.08026 20.0277 1.60761 19.786 2.21187C19.9618 2.14596 20.1485 2.16794 20.3023 2.27781C20.4781 2.39866 20.566 2.6074 20.5331 2.81614C20.5221 2.88206 20.3023 4.26637 18.6434 5.07938C18.6763 6.51862 18.4456 11.3527 14.007 14.7146C11.7548 16.4066 9.29376 17.0108 7.07447 17.0108ZM3.06437 15.1651C5.54734 16.1099 9.75518 16.5274 13.3698 13.7918C18.0171 10.276 17.5557 4.80473 17.5447 4.74979C17.5227 4.4971 17.6656 4.26638 17.8963 4.17849C18.138 4.09059 18.3357 3.98073 18.5005 3.87086C18.127 3.94777 17.8963 3.95876 17.8523 3.95876C17.5886 3.95876 17.3579 3.77198 17.303 3.5083C17.2481 3.24462 17.4019 2.98094 17.6436 2.88206C18.0391 2.72825 18.3028 2.50852 18.5005 2.26681C17.8633 2.50852 17.27 2.62938 17.1602 2.65135C16.9514 2.68431 16.7317 2.60741 16.6108 2.43162C16.5449 2.35471 15.0507 0.410077 12.6996 1.68452C10.3155 2.98094 10.8649 5.38701 10.8868 5.49687C10.9308 5.66167 10.8868 5.83747 10.7879 5.96931C10.6671 6.12312 10.4693 6.18904 10.2716 6.18904C6.04174 6.18904 3.55875 4.05764 2.46009 2.79418C1.92174 5.20025 3.63567 6.13411 3.85541 6.24397C4.07514 6.35384 4.20698 6.59554 4.16303 6.83724C4.11908 7.07895 3.93231 7.26572 3.67962 7.29868C3.13029 7.3646 2.66885 7.33164 2.30629 7.23276C2.82266 9.34219 4.72334 9.71574 4.81123 9.72672C5.03097 9.77067 5.19576 9.92448 5.25069 10.1332C5.30562 10.342 5.23969 10.5727 5.0639 10.7045C4.77825 10.9352 4.47063 11.0671 4.17399 11.133C5.18476 12.3745 6.61303 12.4734 6.68993 12.4734C6.92065 12.4844 7.1184 12.6382 7.19531 12.8579C7.27221 13.0776 7.2063 13.3193 7.03052 13.4622C5.70114 14.5718 4.23994 15.0113 3.06437 15.1651Z" fill="white"/>
</svg>
