<svg width="21" height="15" viewBox="0 0 21 15" fill="none" xmlns="http://www.w3.org/2000/svg">
<path d="M16.8857 0.35498H3.80061C2.02078 0.35498 0.581543 1.79423 0.581543 3.57406V11.5613C0.581543 13.3412 2.02078 14.7804 3.80061 14.7804H16.8857C18.6655 14.7804 20.1047 13.3412 20.1047 11.5613V3.57406C20.1047 1.79423 18.6655 0.35498 16.8857 0.35498ZM18.8303 11.5613C18.8303 12.638 17.9623 13.5059 16.8857 13.5059H3.80061C2.72392 13.5059 1.85599 12.638 1.85599 11.5613V3.57406C1.85599 2.49738 2.72392 1.62943 3.80061 1.62943H16.8857C17.9623 1.62943 18.8303 2.49738 18.8303 3.57406V11.5613Z" fill="white"/>
<path d="M13.1393 6.55167L10.052 4.53014C9.67849 4.28843 9.20607 4.26646 8.81055 4.4752C8.41503 4.68395 8.17334 5.09045 8.17334 5.5409V9.58398C8.17334 10.0234 8.41503 10.4409 8.81055 10.6497C8.98633 10.7486 9.18408 10.7925 9.38184 10.7925C9.61256 10.7925 9.84328 10.7266 10.041 10.5947L13.1283 8.57322C13.4689 8.35348 13.6776 7.96895 13.6776 7.56245C13.6886 7.15595 13.4799 6.78239 13.1393 6.55167ZM12.524 7.63935L9.43679 9.66088C9.42581 9.67186 9.39283 9.69384 9.34888 9.66088C9.30493 9.6389 9.30496 9.59497 9.30496 9.58398L9.34888 5.45301C9.35987 5.44202 9.38185 5.44203 9.39284 5.44203C9.41481 5.44203 9.43679 5.45301 9.43679 5.45301L12.524 7.47455L12.8316 7.00212L12.524 7.63935Z" fill="white"/>
</svg>
