<svg width="95" height="86" viewBox="0 0 95 86" fill="none" xmlns="http://www.w3.org/2000/svg">
<path d="M83.4196 77.7837C90.36 69.5185 94.5333 58.8447 94.4998 47.1929C94.4273 21.492 73.5779 0.362368 47.9194 0.00471212C21.5188 -0.364121 0 20.9667 0 47.3271C0 58.9285 4.16763 69.552 11.0802 77.7837C11.309 78.0575 11.7274 78.0687 11.9785 77.8172L47.2499 42.4875L82.5213 77.8172C82.7724 78.0743 83.1908 78.0575 83.4196 77.7837Z" fill="#03479C"/>
<path d="M47.0067 85.6267C68.1666 85.6267 85.3201 68.4732 85.3201 47.3134C85.3201 26.1535 68.1666 9 47.0067 9C25.8468 9 8.69336 26.1535 8.69336 47.3134C8.69336 68.4732 25.8468 85.6267 47.0067 85.6267Z" fill="#B0CBED"/>
<path d="M85.3202 47.3134C85.3202 68.4755 68.169 85.6267 47.0069 85.6267C32.0557 85.6267 19.11 77.0661 12.7942 64.5843C10.1752 59.3911 23.5848 59.421 23.5848 53.1951C23.5848 32.0329 37.3836 -0.353814 52.3348 14.6123C67.271 29.5486 69.2915 32.7214 85.3202 47.3134Z" fill="#7DA4DD"/>
<path d="M35.1704 55.5139C34.3843 55.0604 22.3352 49.0474 21.4331 49.0474C18.6624 49.0474 20.4021 47.1942 9.38392 66.6717C8.28855 68.6026 9.66743 71 11.8711 71H25.879C27.3739 71 28.7657 70.1836 29.5002 68.8747L35.7761 57.7818C36.24 56.9783 35.9565 55.9675 35.1704 55.5139Z" fill="#2F6EC2"/>
<path d="M63.6163 66.6722C52.5792 47.1581 54.3694 49.0499 51.4588 49.0499C50.5444 49.0499 38.6186 55.0492 37.833 55.5028C37.0474 55.9563 36.7641 56.9799 37.2148 57.7703L43.5126 68.875C44.2466 70.1837 45.6376 71 47.1315 71H61.1307C63.333 71 64.711 68.6029 63.6163 66.6722Z" fill="#03349C"/>
<path d="M36.4418 60.0944C50.5016 60.0944 61.8992 48.6566 61.8992 34.5472C61.8992 20.4379 50.5016 9 36.4418 9C22.3821 9 10.9844 20.4379 10.9844 34.5472C10.9844 48.6566 22.3821 60.0944 36.4418 60.0944Z" fill="white"/>
<path d="M61.8982 34.5472C61.8982 48.5855 50.5389 60.0645 36.5156 60.0944V9C50.5389 9.02993 61.8982 20.509 61.8982 34.5472Z" fill="#E6E7E8"/>
<path d="M43.8215 36.441L46.7548 45.4956C47.1589 46.7378 46.231 48.0099 44.929 48.0099C44.0759 48.0099 44.3303 48.0248 36.1438 42.0533C36.1588 42.0533 29.1846 47.1269 28.4811 47.6507C26.9845 48.7432 24.9641 47.2616 25.5328 45.4956L28.4662 36.441L20.7885 30.8587C19.2919 29.7661 20.0702 27.3865 21.911 27.3865H31.3846C34.4077 18.0626 34.273 17 36.1438 17C37.9996 17 37.8649 18.0177 40.8881 27.3715C50.676 27.3715 51.6188 26.9226 52.1875 28.7035C52.7562 30.4845 51.7386 30.6641 43.8215 36.441Z" fill="#03479C"/>
<path d="M44.1937 36.6575L47.127 45.712C47.5311 46.9542 46.6032 48.2264 45.3012 48.2264C44.4481 48.2264 44.7025 48.2413 36.516 42.2698C36.531 42.2698 36.5011 17.2314 36.516 17.2314C38.3718 17.2314 38.2371 18.2491 41.2603 27.603C51.0482 27.603 51.991 27.154 52.5598 28.935C53.1285 30.701 52.1108 30.8806 44.1937 36.6575Z" fill="#073D80"/>
</svg>
