<svg width="96" height="88" viewBox="0 0 96 88" fill="none" xmlns="http://www.w3.org/2000/svg">
<path d="M84.7441 80.0188C91.7948 71.6223 96.0343 60.779 96.0003 48.9423C95.9266 22.8333 74.7462 1.36812 48.6803 1.00479C21.8605 0.630098 0 22.2996 0 49.0785C0 60.8642 4.23381 71.6564 11.2561 80.0188C11.4885 80.2969 11.9136 80.3083 12.1687 80.0528L48.0001 44.1622L83.8316 80.0528C84.0867 80.314 84.5118 80.2969 84.7441 80.0188Z" fill="#ED1164"/>
<path d="M48 87.9668C69.5391 87.9668 87 70.5059 87 48.9668C87 27.4277 69.5391 9.9668 48 9.9668C26.4609 9.9668 9 27.4277 9 48.9668C9 70.5059 26.4609 87.9668 48 87.9668Z" fill="#FFD9E7"/>
<mask id="mask0_1232_4564" style="mask-type:alpha" maskUnits="userSpaceOnUse" x="9" y="9" width="78" height="79">
<path d="M48 87.9668C69.5391 87.9668 87 70.5059 87 48.9668C87 27.4277 69.5391 9.9668 48 9.9668C26.4609 9.9668 9 27.4277 9 48.9668C9 70.5059 26.4609 87.9668 48 87.9668Z" fill="#FBC000"/>
</mask>
<g mask="url(#mask0_1232_4564)">
<g opacity="0.8">
<path d="M85.8859 112.481L24.6621 74.967L61 74.1003L63.6 55.0337V52.4337L66.6645 39.8672L110.091 82.5815L85.8859 112.481Z" fill="#FFB3CD" style="mix-blend-mode:multiply"/>
</g>
</g>
<path d="M61.4607 37.7314H55.7437L48.1959 43.0685L40.6481 37.7314H34.9311C30.0561 37.7314 26.0879 41.6975 26.0879 46.5746V55.4178H48.1959H70.3038V46.5746C70.3038 41.6975 66.3356 37.7314 61.4607 37.7314Z" fill="#FD498D"/>
<path d="M70.3033 46.5746C70.3033 41.6975 66.3351 37.7314 61.4601 37.7314H55.7431L48.1953 43.0685V55.4178H70.3033V46.5746Z" fill="#ED1164"/>
<path d="M48.195 27.7041H43.7734V34.6041L45.8254 38.8669L48.195 41.2365L51.1989 38.2327L52.6166 34.6041V27.7041H48.195Z" fill="#FFCCB3"/>
<path d="M52.6169 34.6041V27.7041H48.1953V41.2365L51.1992 38.2327L52.6169 34.6041Z" fill="#FF9680"/>
<path d="M48.1948 11.0547H44.7272L39.3516 15.4763V24.4669C39.3516 29.3508 43.3108 33.31 48.1948 33.31C53.0787 33.31 57.0379 29.3508 57.0379 24.4669V11.0547H48.1948Z" fill="#FFE1CC"/>
<path d="M57.0385 24.4669V11.0547H48.1953V33.31C53.0793 33.31 57.0385 29.3508 57.0385 24.4669Z" fill="#FFCCB3"/>
<path d="M48.1952 48.7852H18.9668L24.2736 75.4621H48.1952H72.1167L77.4235 48.7852H48.1952Z" fill="#F3F5F9"/>
<path d="M77.4237 48.7852H48.1953V75.4621H72.1169L77.4237 48.7852Z" fill="#E1E6F0"/>
<path d="M52.6178 34.6055L48.1962 39.0271L43.7747 34.6055L40.6484 37.7317L48.1962 45.2795L55.7441 37.7317L52.6178 34.6055Z" fill="#F3F5F9"/>
<path d="M52.6169 34.6055L48.1953 39.0271V45.2795L55.7431 37.7317L52.6169 34.6055Z" fill="#E1E6F0"/>
<path d="M60.9313 5.75015C59.7543 4.01181 54.7157 4.4216 52.6163 4.4216H48.1948H43.7732C41.3311 4.4216 39.3516 6.40114 39.3516 8.84319V15.4756H48.1948H57.0379C59.48 15.4756 61.4595 13.4957 61.4595 11.054V7.2084C61.4595 6.76653 61.3271 6.33479 61.0794 5.9689L60.9313 5.75015Z" fill="#9F073B"/>
<path d="M61.4601 11.054V7.2084C61.4601 6.76653 61.3277 6.33479 61.0799 5.9689L60.9318 5.75015C59.7548 4.01181 54.7162 4.4216 52.6169 4.4216H48.1953V15.4756H57.0385C59.4806 15.4756 61.4601 13.4957 61.4601 11.054Z" fill="#434041" fill-opacity="0.4"/>
<path d="M48.1952 57.6279H45.9844V62.0495H48.1952H50.406V57.6279H48.1952Z" fill="#E1E6F0"/>
<path d="M48.1953 57.6279H50.4061V62.0495H48.1953V57.6279Z" fill="#CFD7E6"/>
</svg>
