<svg width="96" height="87" viewBox="0 0 96 87" fill="none" xmlns="http://www.w3.org/2000/svg">
<path d="M84.7441 79.0188C91.7948 70.6223 96.0343 59.779 96.0003 47.9423C95.9266 21.8333 74.7462 0.368122 48.6803 0.00478694C21.8605 -0.369902 0 21.2996 0 48.0785C0 59.8642 4.23381 70.6564 11.2561 79.0188C11.4885 79.2969 11.9136 79.3083 12.1687 79.0528L48.0001 43.1622L83.8316 79.0528C84.0867 79.314 84.5118 79.2969 84.7441 79.0188Z" fill="#ED1164"/>
<path d="M47.772 86.1104C69.4333 86.1104 86.9932 68.5505 86.9932 46.8892C86.9932 25.2279 69.4333 7.66797 47.772 7.66797C26.1107 7.66797 8.55078 25.2279 8.55078 46.8892C8.55078 68.5505 26.1107 86.1104 47.772 86.1104Z" fill="#FFD9E7"/>
<mask id="mask0_1232_4541" style="mask-type:alpha" maskUnits="userSpaceOnUse" x="8" y="7" width="79" height="80">
<path d="M47.772 86.1104C69.4333 86.1104 86.9932 68.5505 86.9932 46.8892C86.9932 25.2279 69.4333 7.66797 47.772 7.66797C26.1107 7.66797 8.55078 25.2279 8.55078 46.8892C8.55078 68.5505 26.1107 86.1104 47.772 86.1104Z" fill="#FBC000"/>
</mask>
<g mask="url(#mask0_1232_4541)">
<g opacity="0.8">
<path d="M111.784 111.243L19.0098 73.0362L60.8457 72.1646L63.4605 52.9898V50.375L64.3321 13.7686L117.499 70.7705L111.784 111.243Z" fill="#FFC7DB" style="mix-blend-mode:multiply"/>
</g>
</g>
<path d="M25.5098 8.33221V73.2173H58.3542C62.949 73.2173 66.6738 69.4925 66.6738 64.8977V8.33221C66.6738 7.59664 66.0772 7 65.3416 7H26.842C26.1064 7 25.5098 7.59664 25.5098 8.33221Z" fill="white"/>
<path d="M66.6748 8.33221V64.8982C66.6748 69.492 62.9494 73.2173 58.3547 73.2173H54.5293C59.1246 73.2173 62.8499 69.492 62.8499 64.8982V8.33221C62.8499 7.59664 62.2528 7 61.5172 7H65.3426C66.0781 7 66.6748 7.59664 66.6748 8.33221Z" fill="#CBCBCD" fill-opacity="0.32"/>
<path d="M48.1728 61.5117C48.9083 61.5117 49.505 62.1079 49.505 62.8439V64.8981C49.505 69.4923 53.2298 73.2172 57.8241 73.2172H16.6575C12.0627 73.2172 8.33789 69.4923 8.33789 64.8976V62.8439C8.33789 62.1084 8.93402 61.5117 9.6701 61.5117H48.1728Z" fill="#EFEFEF"/>
<path d="M37.0097 29.4853C37.0097 30.8216 35.9261 31.9047 34.5898 31.9047C33.2536 31.9047 32.1699 30.8216 32.1699 29.4853C32.1699 28.1486 33.2536 27.0654 34.5898 27.0654C35.9261 27.0654 37.0097 28.1486 37.0097 29.4853Z" fill="#FFD9E7"/>
<path d="M45.9108 30.6992H41.0149C40.4627 30.6992 40.0156 30.2521 40.0156 29.6999C40.0156 29.1483 40.4627 28.7012 41.0149 28.7012H45.9108C46.463 28.7012 46.9101 29.1483 46.9101 29.6999C46.9101 30.2521 46.463 30.6992 45.9108 30.6992Z" fill="#ED1164"/>
<path d="M58.0825 33.0943H41.0149C40.4627 33.0943 40.0156 32.6472 40.0156 32.095C40.0156 31.5433 40.4627 31.0957 41.0149 31.0957H58.0825C58.6347 31.0957 59.0818 31.5433 59.0818 32.095C59.0818 32.6472 58.6347 33.0943 58.0825 33.0943Z" fill="#ED1164"/>
<path d="M41.02 27.8745C40.4708 27.8745 40.0192 27.4315 40.0156 26.8813C40.0121 26.3296 40.4516 25.8795 41.0033 25.876H41.0134H41.02C41.5686 25.876 42.0157 26.319 42.0193 26.8687C42.0223 27.4209 41.5777 27.871 41.026 27.8745C41.024 27.8745 41.022 27.8745 41.02 27.8745Z" fill="#ED1164"/>
<path d="M37.0097 40.041C37.0097 41.3772 35.9261 42.4609 34.5898 42.4609C33.2536 42.4609 32.1699 41.3772 32.1699 40.041C32.1699 38.7047 33.2536 37.6211 34.5898 37.6211C35.9261 37.6211 37.0097 38.7047 37.0097 40.041Z" fill="#FFD9E7"/>
<path d="M45.9108 41.2539H41.0149C40.4627 41.2539 40.0156 40.8068 40.0156 40.2551C40.0156 39.703 40.4627 39.2559 41.0149 39.2559H45.9108C46.463 39.2559 46.9101 39.703 46.9101 40.2551C46.9101 40.8068 46.463 41.2539 45.9108 41.2539Z" fill="#ED1164"/>
<path d="M58.0825 43.649H41.0149C40.4627 43.649 40.0156 43.2019 40.0156 42.6497C40.0156 42.098 40.4627 41.6504 41.0149 41.6504H58.0825C58.6347 41.6504 59.0818 42.098 59.0818 42.6497C59.0818 43.2019 58.6347 43.649 58.0825 43.649Z" fill="#ED1164"/>
<path d="M41.02 38.4302C40.4708 38.4302 40.0192 37.9871 40.0156 37.4375C40.0121 36.8853 40.4516 36.4352 41.0033 36.4316H41.0134H41.02C41.5686 36.4316 42.0157 36.8752 42.0193 37.4249C42.0223 37.9765 41.5777 38.4267 41.026 38.4302C41.024 38.4302 41.022 38.4302 41.02 38.4302Z" fill="#ED1164"/>
<path d="M36.3632 51.2549C36.3632 52.5911 35.2796 53.6748 33.9433 53.6748C32.6071 53.6748 31.5234 52.5911 31.5234 51.2549C31.5234 49.9186 32.6071 48.835 33.9433 48.835C35.2796 48.835 36.3632 49.9186 36.3632 51.2549Z" fill="#FFD9E7"/>
<path d="M45.9108 51.8111H41.0149C40.4627 51.8111 40.0156 51.3635 40.0156 50.8118C40.0156 50.2596 40.4627 49.8125 41.0149 49.8125H45.9108C46.463 49.8125 46.9101 50.2596 46.9101 50.8118C46.9101 51.3635 46.463 51.8111 45.9108 51.8111Z" fill="#ED1164"/>
<path d="M58.0825 54.2061H41.0149C40.4627 54.2061 40.0156 53.759 40.0156 53.2068C40.0156 52.6551 40.4627 52.208 41.0149 52.208H58.0825C58.6347 52.208 59.0818 52.6551 59.0818 53.2068C59.0818 53.759 58.6347 54.2061 58.0825 54.2061Z" fill="#ED1164"/>
<path d="M41.02 48.9859C40.4708 48.9859 40.0192 48.5428 40.0156 47.9932C40.0121 47.441 40.4516 46.9908 41.0033 46.9873H41.0134H41.02C41.5686 46.9873 42.0157 47.4309 42.0193 47.9805C42.0223 48.5322 41.5777 48.9823 41.026 48.9859C41.024 48.9859 41.022 48.9859 41.02 48.9859Z" fill="#ED1164"/>
<path d="M56.6894 19.039H33.9714C33.2841 19.039 32.7266 18.4581 32.7266 17.7413V14.6928C32.7266 13.9765 33.2841 13.3955 33.9714 13.3955H56.6894C57.3772 13.3955 57.9343 13.9765 57.9343 14.6928V17.7413C57.9343 18.4581 57.3772 19.039 56.6894 19.039Z" fill="#ED1164"/>
<circle cx="16.6402" cy="52.6402" r="13.6402" fill="#FFAECD"/>
<circle cx="16.6409" cy="52.6399" r="9.92018" fill="#FFD9E7"/>
<circle cx="16.6409" cy="52.6399" r="9.92018" fill="#FFD9E7"/>
<circle cx="16.6409" cy="52.6399" r="9.92018" fill="#ED1164"/>
<circle cx="16.6396" cy="52.6405" r="6.20011" fill="#FFD9E7"/>
<circle cx="16.6396" cy="52.6405" r="6.20011" fill="#FFD9E7"/>
<circle cx="16.6396" cy="52.6405" r="6.20011" fill="white"/>
<circle cx="16.64" cy="52.64" r="3.72007" fill="#FFD9E7"/>
<circle cx="16.64" cy="52.64" r="3.72007" fill="#FFD9E7"/>
<circle cx="16.64" cy="52.64" r="3.72007" fill="#ED1164"/>
<path d="M86.8256 30.8853H69.8664C69.2177 30.8853 68.6914 30.359 68.6914 29.7104V12.7511C68.6914 12.1024 69.2177 11.5762 69.8664 11.5762H86.8256C87.4743 11.5762 88.0005 12.1024 88.0005 12.7511V29.7104C88.0024 30.359 87.4743 30.8853 86.8256 30.8853Z" fill="#FF66A0"/>
<g style="mix-blend-mode:multiply" opacity="0.4">
<path d="M82.1432 20.5972L88.0015 27.1882V29.7538C88.0015 30.3787 87.4954 30.8831 86.8723 30.8831H79.8097L74.3516 25.9585L76.9189 19.9375L82.1432 20.5972Z" fill="#FF66A0"/>
</g>
<path d="M74.1875 17.2342V25.225C74.1875 25.7896 74.7996 26.1423 75.2894 25.8572L82.1454 21.8627C82.6297 21.5795 82.6297 20.8796 82.1454 20.5964L75.2894 16.6019C74.7996 16.3169 74.1875 16.6695 74.1875 17.2342Z" fill="white"/>
</svg>
