<svg width="96" height="88" viewBox="0 0 96 88" fill="none" xmlns="http://www.w3.org/2000/svg">
<path d="M84.7441 79.0188C91.7948 70.6223 96.0343 59.779 96.0003 47.9423C95.9266 21.8333 74.7462 0.368122 48.6803 0.00478694C21.8605 -0.369902 0 21.2996 0 48.0785C0 59.8642 4.23381 70.6564 11.2561 79.0188C11.4885 79.2969 11.9136 79.3083 12.1687 79.0528L48.0001 43.1622L83.8316 79.0528C84.0867 79.314 84.5118 79.2969 84.7441 79.0188Z" fill="#ED1164"/>
<path d="M48 86.9999C69.5391 86.9999 86.9999 69.5391 86.9999 48C86.9999 26.4609 69.5391 9 48 9C26.4609 9 9 26.4609 9 48C9 69.5391 26.4609 86.9999 48 86.9999Z" fill="#FFD9E7"/>
<path d="M87.0006 48.0011C87.0006 69.5425 69.542 87.0011 48.0006 87.0011C38.7686 87.0011 30.2678 83.7866 23.5952 78.4241C23.1229 78.0433 24.8291 77.3425 24.3873 76.9464C20.6702 73.671 33.9698 73.6862 31.7151 69.2378C29.0491 63.9515 24.1588 60.3257 24.1588 53.9882C24.1588 32.4468 38.2049 -0.520336 53.424 14.714C68.6279 29.9179 70.6846 33.1476 87.0006 48.0011Z" fill="#FFA5BA"/>
<path d="M28.5316 45.959H51.5355C55.0242 45.959 57.8425 48.7773 57.8425 52.266V74.3863C57.8425 77.875 55.0242 80.6933 51.5355 80.6933H28.5316C25.043 80.6933 22.2246 77.875 22.2246 74.3863V52.266C22.2246 48.7773 25.043 45.959 28.5316 45.959Z" fill="#ED1164"/>
<path d="M40.945 55.0816L36.4966 62.4246L41.2497 70.2094C41.2802 70.2703 41.2954 70.3312 41.2802 70.3922C41.265 70.4531 41.204 70.4074 41.1126 70.4226H37.7153C37.4716 70.4226 37.3192 70.4074 37.2126 70.2551C36.9079 69.6305 36.5728 69.0211 36.2681 68.3965C35.9634 67.7871 35.613 67.1625 35.2626 66.5226C34.9122 65.8828 34.5466 65.243 34.1962 64.5879H34.1657C33.861 65.2277 33.5107 65.8676 33.1755 66.5074C32.8403 67.1473 32.49 67.7871 32.17 68.4117C31.8349 69.0363 31.4845 69.6762 31.1493 70.2855C31.0884 70.4379 30.9665 70.4531 30.8142 70.4531H27.554C27.4931 70.4531 27.4474 70.4836 27.4474 70.4074C27.4321 70.3465 27.4474 70.2855 27.4779 70.2398L32.0939 62.6684L27.5997 55.0512C27.554 54.9902 27.5388 54.9293 27.5693 54.8988C27.5997 54.8531 27.6607 54.8379 27.7216 54.8379H31.0884C31.1646 54.8379 31.2407 54.8531 31.3017 54.8684C31.3626 54.8988 31.4083 54.9445 31.454 55.0055C31.7435 55.6453 32.0634 56.2852 32.3986 56.925C32.7489 57.5648 33.0993 58.1895 33.465 58.8141C33.8153 59.4387 34.1505 60.0633 34.4552 60.7031H34.4857C34.7903 60.048 35.1255 59.4082 35.4454 58.7836C35.7653 58.159 36.1157 57.5344 36.4509 56.9098C36.786 56.2852 37.1212 55.6453 37.4411 55.0359C37.4564 54.975 37.4868 54.9141 37.5325 54.8836C37.5935 54.8531 37.6544 54.8379 37.7306 54.8531H40.8689C40.945 54.8379 41.0212 54.8836 41.0364 54.9598C41.006 54.9902 40.9755 55.0512 40.945 55.0816Z" fill="white"/>
<path d="M47.8013 70.7277C46.7045 70.743 45.6076 70.5145 44.6174 70.0574C43.6881 69.6309 42.9111 68.9149 42.3779 68.0465C41.8295 67.1477 41.5553 66.0203 41.5553 64.6645C41.54 63.5676 41.8295 62.486 42.3779 61.5262C42.9416 60.5664 43.7642 59.759 44.7392 59.2258C45.7752 58.6469 47.0244 58.3574 48.4869 58.3574C48.5631 58.3574 48.6697 58.3574 48.7916 58.3727C48.9287 58.3879 49.081 58.3879 49.2486 58.4031V53.711C49.2486 53.6043 49.2943 53.5434 49.401 53.5434H52.4174C52.4935 53.5281 52.5545 53.5891 52.5697 53.65C52.5697 53.6653 52.5697 53.6805 52.5697 53.6805V67.8027C52.5697 68.077 52.5849 68.3664 52.6002 68.6863C52.6306 68.991 52.6459 69.2957 52.6611 69.5547C52.6611 69.6613 52.6154 69.7527 52.5088 69.7985C51.7318 70.1184 50.9244 70.3621 50.0865 70.5145C49.34 70.6668 48.5783 70.7277 47.8013 70.7277ZM49.2638 67.7723V61.2367C49.1267 61.2063 48.9896 61.1758 48.8678 61.1606C48.7002 61.1453 48.5478 61.1301 48.3803 61.1301C47.8014 61.1301 47.2224 61.252 46.7045 61.511C46.2017 61.7699 45.7752 62.1356 45.44 62.6078C45.1049 63.0801 44.9525 63.7199 44.9525 64.4969C44.9373 65.0149 45.0287 65.5328 45.2115 66.0203C45.3639 66.4164 45.5771 66.782 45.8818 67.0715C46.1713 67.3457 46.5064 67.5438 46.8873 67.6656C47.2834 67.8027 47.7099 67.8637 48.1213 67.8637C48.3498 67.8637 48.5478 67.8485 48.7459 67.8332C48.9287 67.8485 49.081 67.8332 49.2638 67.7723Z" fill="white"/>
<path d="M19.0246 10.8281H45.8218C49.8894 10.8281 53.1648 14.1187 53.1648 18.1711V43.9324C53.1648 48 49.8742 51.2754 45.8218 51.2754H19.0246C14.957 51.2754 11.6816 47.9847 11.6816 43.9324V18.1711C11.6816 14.1035 14.9723 10.8281 19.0246 10.8281Z" fill="white"/>
<path d="M27.4043 46.1562C30.1769 46.1562 32.4316 43.9016 32.4316 41.1289V36.1016H27.4043C24.6316 36.1016 22.377 38.3562 22.377 41.1289C22.377 43.9016 24.6164 46.1562 27.4043 46.1562Z" fill="#F483AE"/>
<path d="M22.3613 31.0586C22.3613 28.2859 24.616 26.0312 27.3887 26.0312H32.416V36.1012H27.3887C24.616 36.0859 22.3613 33.8312 22.3613 31.0586Z" fill="#F3AFC8"/>
<path d="M22.3613 20.9902C22.3613 18.2176 24.616 15.9629 27.3887 15.9629H32.416V26.0328H27.3887C24.616 26.0176 22.3613 23.7629 22.3613 20.9902Z" fill="#ED1164"/>
<path d="M32.4316 15.9629H37.459C40.2316 15.9629 42.4863 18.2176 42.4863 20.9902C42.4863 23.7629 40.2316 26.0176 37.459 26.0176H32.4316V15.9629Z" fill="#F2769F"/>
<path d="M42.5039 31.0586C42.5039 33.8312 40.2492 36.0859 37.4766 36.0859C34.7039 36.0859 32.4492 33.8312 32.4492 31.0586C32.4492 28.2859 34.7039 26.0312 37.4766 26.0312C40.2492 26.0312 42.5039 28.2707 42.5039 31.0586Z" fill="#ED1164"/>
</svg>
