<svg width="95" height="87" viewBox="0 0 95 87" fill="none" xmlns="http://www.w3.org/2000/svg">
<path d="M83.4196 77.7837C90.36 69.5185 94.5333 58.8447 94.4998 47.1929C94.4273 21.492 73.5779 0.362368 47.9194 0.00471212C21.5188 -0.364121 0 20.9667 0 47.3271C0 58.9285 4.16763 69.552 11.0802 77.7837C11.309 78.0575 11.7274 78.0687 11.9785 77.8172L47.2499 42.4875L82.5213 77.8172C82.7724 78.0743 83.1908 78.0575 83.4196 77.7837Z" fill="#03479C"/>
<path d="M47.25 86.5C68.3749 86.5 85.5 69.3749 85.5 48.25C85.5 27.1251 68.3749 10 47.25 10C26.1251 10 9 27.1251 9 48.25C9 69.3749 26.1251 86.5 47.25 86.5Z" fill="#B0CBED"/>
<mask id="mask0_1243_1924" style="mask-type:alpha" maskUnits="userSpaceOnUse" x="9" y="10" width="77" height="77">
<path d="M47.25 86.5C68.3749 86.5 85.5 69.3749 85.5 48.25C85.5 27.1251 68.3749 10 47.25 10C26.1251 10 9 27.1251 9 48.25C9 69.3749 26.1251 86.5 47.25 86.5Z" fill="#FBC000"/>
</mask>
<g mask="url(#mask0_1243_1924)">
<g opacity="0.8">
<path d="M48.8001 88.898L30.6465 74.9338L42.5161 61.6677L62.5516 54.1997V51.6497L67.6518 30.248L105.355 68.6498L48.8001 88.898Z" fill="#6891D3" style="mix-blend-mode:multiply"/>
</g>
</g>
<path d="M28.4871 28.5918C25.5047 28.5918 22.9668 31.0097 22.9668 33.992V59.1932C22.9668 62.1755 25.5047 64.5935 28.4871 64.5935H30.2871V73.8339C30.2871 74.5614 30.725 75.2191 31.3981 75.4966C31.6213 75.5899 31.8552 75.634 32.0872 75.634C32.5546 75.634 33.0154 75.4512 33.3599 75.1066L43.7531 64.5935H64.6087C67.591 64.5935 70.009 62.1755 70.009 59.1932V33.992C70.009 31.0097 67.591 28.5918 64.6087 28.5918H28.4871Z" fill="white"/>
<path d="M46.3729 53.8541H35.4524C34.4577 53.8541 33.6523 53.0487 33.6523 52.054C33.6523 51.0593 34.4577 50.2539 35.4524 50.2539H46.3729C47.3677 50.2539 48.173 51.0593 48.173 52.054C48.173 53.0487 47.3677 53.8541 46.3729 53.8541Z" fill="#B0CBED"/>
<path d="M58.272 47.9061C58.1956 47.9821 58.1192 48.0585 58.0428 48.0838L47.4269 53.6083C46.6891 53.9392 45.9255 53.7358 45.4159 53.2267C44.9068 52.7176 44.7034 51.9535 45.0343 51.2157L50.5588 40.5999C50.5841 40.5234 50.6605 40.447 50.7369 40.3711L56.8464 41.7962L57.3808 41.9237L58.272 47.9061Z" fill="#FFCEBF"/>
<path d="M83.8738 22.3611L80.0552 26.1797L73.7671 24.8306L73.589 24.8053L72.418 18.5425L76.2366 14.7239C76.9491 14.0113 78.0695 14.0113 78.782 14.7239L83.8733 19.8157C84.5863 20.5282 84.5863 21.6485 83.8738 22.3611Z" fill="#B0CBED"/>
<path d="M57.3145 41.9459L58.2057 47.9283C58.1293 48.0043 58.0529 48.0807 57.9764 48.106L47.3606 53.6305C46.6228 53.9614 45.8592 53.758 45.3496 53.2489L56.7801 41.8184L57.3145 41.9459Z" fill="#FFB99C"/>
<path d="M83.8743 22.3609L80.0557 26.1795L73.7676 24.8303L81.3284 17.2695L83.8743 19.8154C84.5868 20.528 84.5868 21.6483 83.8743 22.3609Z" fill="#CBCBCD" style="mix-blend-mode:multiply"/>
<path d="M80.0568 26.1782L58.4868 47.7478C58.4104 47.8242 58.3086 47.8753 58.2069 47.9264L50.6719 40.3909C50.7225 40.2892 50.7736 40.1875 50.85 40.1111L72.4196 18.541L80.0568 26.1782Z" fill="#03479C"/>
<path d="M80.1077 26.2913L58.5376 47.8609C58.4612 47.9373 58.3595 47.9884 58.2578 48.0395L54.4902 44.2715L76.2891 22.4727L80.1077 26.2913Z" fill="#03479C"/>
</svg>
