<svg width="95" height="86" viewBox="0 0 95 86" fill="none" xmlns="http://www.w3.org/2000/svg">
<path d="M83.4196 77.7837C90.36 69.5185 94.5333 58.8447 94.4998 47.1929C94.4273 21.492 73.5779 0.362368 47.9194 0.00471212C21.5188 -0.364121 0 20.9667 0 47.3271C0 58.9285 4.16763 69.552 11.0802 77.7837C11.309 78.0575 11.7274 78.0687 11.9785 77.8172L47.2499 42.4875L82.5213 77.8172C82.7724 78.0743 83.1908 78.0575 83.4196 77.7837Z" fill="#03479C"/>
<path d="M47.25 85.5C68.3749 85.5 85.5 68.3749 85.5 47.25C85.5 26.1251 68.3749 9 47.25 9C26.1251 9 9 26.1251 9 47.25C9 68.3749 26.1251 85.5 47.25 85.5Z" fill="#B0CBED"/>
<mask id="mask0_1243_1922" style="mask-type:alpha" maskUnits="userSpaceOnUse" x="9" y="9" width="77" height="77">
<path d="M47.25 85.5C68.3749 85.5 85.5 68.3749 85.5 47.25C85.5 26.1251 68.3749 9 47.25 9C26.1251 9 9 26.1251 9 47.25C9 68.3749 26.1251 85.5 47.25 85.5Z" fill="#FBC000"/>
</mask>
<g mask="url(#mask0_1243_1922)">
<g opacity="0.8">
<path d="M52.986 88.2456L20.1699 67.9974L73.9324 26.8027L103.257 63.1099L52.986 88.2456Z" fill="#7DA4DD" style="mix-blend-mode:multiply"/>
</g>
</g>
<path d="M19.0776 34.1641L18.5078 35.1905V64.8629C18.5078 66.8211 20.0951 68.4083 22.0532 68.4083H72.8835C74.8416 68.4083 76.4289 66.8211 76.4289 64.8629V35.1905L75.8591 34.1641H19.0776Z" fill="white"/>
<path d="M70.6235 34.2363V59.1299C70.6235 61.088 69.0362 62.6753 67.0781 62.6753H18.5078V64.9352C18.5078 66.8933 20.0951 68.4806 22.0532 68.4806H72.8835C74.8416 68.4806 76.4289 66.8933 76.4289 64.9352V35.2627L75.8591 34.2363H70.6235Z" fill="#F5F5F5"/>
<path d="M72.8835 25.4062H22.0532C20.0951 25.4062 18.5078 26.9935 18.5078 28.9517V35.1906H76.4289V28.9517C76.4289 26.9935 74.8416 25.4062 72.8835 25.4062Z" fill="#03479C"/>
<path d="M72.883 25.4062H70.623V35.1906H76.4284V28.9517C76.4284 26.9935 74.8411 25.4062 72.883 25.4062Z" fill="#FBC000" fill-opacity="0.4" style="mix-blend-mode:multiply"/>
<path d="M24.7039 31.8901C25.5823 31.8901 26.2944 31.178 26.2944 30.2996C26.2944 29.4211 25.5823 28.709 24.7039 28.709C23.8254 28.709 23.1133 29.4211 23.1133 30.2996C23.1133 31.178 23.8254 31.8901 24.7039 31.8901Z" fill="#B0CBED"/>
<path d="M29.5964 31.8901C30.4749 31.8901 31.187 31.178 31.187 30.2996C31.187 29.4211 30.4749 28.709 29.5964 28.709C28.718 28.709 28.0059 29.4211 28.0059 30.2996C28.0059 31.178 28.718 31.8901 29.5964 31.8901Z" fill="white"/>
<path d="M34.489 31.8901C35.3675 31.8901 36.0796 31.178 36.0796 30.2996C36.0796 29.4211 35.3675 28.709 34.489 28.709C33.6106 28.709 32.8984 29.4211 32.8984 30.2996C32.8984 31.178 33.6106 31.8901 34.489 31.8901Z" fill="#B0CBED"/>
<path d="M47.4673 73.9679C56.7173 73.9679 64.2159 66.4693 64.2159 57.2193C64.2159 47.9693 56.7173 40.4707 47.4673 40.4707C38.2174 40.4707 30.7188 47.9693 30.7188 57.2193C30.7188 66.4693 38.2174 73.9679 47.4673 73.9679Z" fill="#83ACE0"/>
<path d="M56.5697 61.5622C54.9478 64.9584 51.4813 67.3046 47.4668 67.3046C41.8987 67.3046 37.3848 62.7908 37.3848 57.2226C37.3848 51.6545 41.8987 47.1406 47.4668 47.1406C53.0349 47.1406 57.1974 60.2479 56.5697 61.5622Z" fill="#B0CBED"/>
<path d="M47.4679 75.6799C37.2901 75.6799 29.0098 67.3997 29.0098 57.2218C29.0098 47.044 37.29 38.7637 47.4679 38.7637C57.6457 38.7637 65.926 47.0439 65.926 57.2218C65.926 67.3997 57.6458 75.6799 47.4679 75.6799ZM47.4679 42.1827C39.1753 42.1827 32.4288 48.9293 32.4288 57.2218C32.4288 65.5144 39.1754 72.261 47.4679 72.261C55.7605 72.261 62.507 65.5144 62.507 57.2218C62.5071 48.9293 55.7605 42.1827 47.4679 42.1827Z" fill="#03479C"/>
<path d="M47.7109 47.3809V57.4629L56.8138 61.8024C57.4416 60.4881 57.7929 59.0166 57.7929 57.4629C57.7929 51.8947 53.2791 47.3809 47.7109 47.3809Z" fill="#03479C"/>
<path d="M48.0541 58.5778C47.4801 59.1518 46.5494 59.1518 45.9754 58.5778C45.4014 58.0038 45.4014 57.0731 45.9754 56.499C46.3601 56.1144 51.4019 52.006 54.6868 49.3368C55.0382 49.0514 55.5018 49.515 55.2162 49.8663C52.5472 53.1513 48.4388 58.1931 48.0541 58.5778Z" fill="white"/>
<path d="M30.6158 42.0084H24.1321C23.6601 42.0084 23.2773 41.6258 23.2773 41.1536C23.2773 40.6815 23.6599 40.2988 24.1321 40.2988H30.6158C31.0879 40.2988 31.4706 40.6814 31.4706 41.1536C31.4705 41.6258 31.0879 42.0084 30.6158 42.0084Z" fill="#03479C"/>
<path d="M27.8657 45.5963H24.1321C23.6601 45.5963 23.2773 45.2137 23.2773 44.7415C23.2773 44.2693 23.6599 43.8867 24.1321 43.8867H27.8657C28.3377 43.8867 28.7205 44.2693 28.7205 44.7415C28.7205 45.2137 28.3377 45.5963 27.8657 45.5963Z" fill="#03479C"/>
<path d="M70.0741 44.334C68.6526 44.334 67.4961 43.1773 67.4961 41.7558C67.4961 40.3342 68.6526 39.1777 70.0741 39.1777C71.4957 39.1777 72.6523 40.3342 72.6523 41.7558C72.6523 43.1773 71.4957 44.334 70.0741 44.334ZM70.0741 40.8873C69.5953 40.8873 69.2056 41.2769 69.2056 41.7559C69.2056 42.2349 69.5952 42.6246 70.0741 42.6246C70.5531 42.6246 70.9429 42.235 70.9429 41.7559C70.9427 41.2769 70.5531 40.8873 70.0741 40.8873Z" fill="#03479C"/>
<path d="M70.0741 51.0664C68.6526 51.0664 67.4961 49.9098 67.4961 48.4882C67.4961 47.0667 68.6526 45.9102 70.0741 45.9102C71.4957 45.9102 72.6523 47.0667 72.6523 48.4882C72.6523 49.9098 71.4957 51.0664 70.0741 51.0664ZM70.0741 47.6197C69.5953 47.6197 69.2056 48.0093 69.2056 48.4883C69.2056 48.9673 69.5952 49.357 70.0741 49.357C70.5531 49.357 70.9429 48.9674 70.9429 48.4883C70.9427 48.0093 70.5531 47.6197 70.0741 47.6197Z" fill="#03479C"/>
</svg>
