<svg width="54" height="58" viewBox="0 0 54 58" fill="none" xmlns="http://www.w3.org/2000/svg">
<path d="M8.79883 25.0818H11.0023V30.7879C11.0023 32.4048 11.6891 33.2061 13.0484 33.2061C14.4077 33.2061 15.0802 32.4048 15.0802 30.7879V25.0818H17.2837V31.0169C17.2837 32.3619 16.883 33.3921 16.0818 34.1218C15.2805 34.8515 14.2646 35.2092 13.0484 35.2092C11.8179 35.2092 10.802 34.8515 10.0007 34.1361C9.19946 33.4064 8.79883 32.3762 8.79883 31.0169V25.0818Z" fill="white"/>
<path d="M18.0859 35.0518L21.3769 29.9294L18.2576 25.0818H20.7187L22.7361 28.2582L24.7393 25.0818H27.186L24.0811 29.9466L27.3864 35.0518H24.9539L22.7218 31.5892L20.4897 35.0518H18.0859Z" fill="white"/>
<path d="M32.4629 25.0818H34.6664V30.7879C34.6664 32.4048 35.3532 33.2061 36.7125 33.2061C38.0718 33.2061 38.7442 32.4048 38.7442 30.7879V25.0818H40.9477V31.0169C40.9477 32.3619 40.5471 33.3921 39.7458 34.1218C38.9446 34.8515 37.9287 35.2092 36.7125 35.2092C35.4819 35.2092 34.4661 34.8515 33.6648 34.1361C32.8635 33.4064 32.4629 32.3762 32.4629 31.0169V25.0818Z" fill="white"/>
<path d="M42.8477 35.0518V25.0818H45.0511V35.0518H42.8477Z" fill="white"/>
<path d="M52.3335 33.6496C53.338 32.2302 53.8416 30.4588 53.8416 28.925C53.8416 26.6128 52.7513 24.4637 50.8769 23.0071C51.2919 22.0742 51.5008 21.1041 51.5008 20.1139C51.5008 17.0462 49.5978 14.1874 46.7704 12.851C47.1997 9.5 44.8817 6.42943 41.4449 5.64533C40.0999 2.71785 37.1066 0.723267 33.9502 0.723267C31.0112 0.723267 28.3756 2.33725 26.9276 4.68954C25.4796 2.33438 22.844 0.723267 19.9051 0.723267C16.7487 0.723267 13.7554 2.71785 12.4104 5.64533C8.95352 6.43229 6.6556 9.52003 7.08485 12.851C4.25752 14.1845 2.35452 17.0434 2.35452 20.1139C2.35452 21.1069 2.56342 22.0742 2.97836 23.0071C1.10683 24.4637 0.0136719 26.6128 0.0136719 28.925C0.0136719 30.4674 0.520187 32.2359 1.52177 33.6496C0.54308 34.9488 0.0136719 36.4884 0.0136719 38.068C0.0136719 40.1198 0.897928 42.0715 2.4604 43.5224C1.65627 48.0924 5.5281 52.7197 10.5475 52.7197C10.5847 52.7197 10.619 52.7197 10.6533 52.7169C12.316 55.4183 15.4037 57.1239 18.7376 57.1239C22.2116 57.1239 25.3165 55.1608 26.9276 52.3334C28.5416 55.1608 31.6437 57.1239 35.1177 57.1239C38.4516 57.1239 41.5393 55.4183 43.202 52.7169C43.2363 52.7169 43.2735 52.7197 43.3078 52.7197C47.7491 52.7197 51.4979 49.0368 51.4979 44.6785C51.4979 44.3065 51.4636 43.9258 51.392 43.5224C52.9545 42.0715 53.8388 40.117 53.8388 38.068C53.8388 36.4855 53.3093 34.9488 52.3335 33.6496ZM50.6394 35.235C51.1974 36.0935 51.4979 37.0693 51.4979 38.068C51.4979 39.6791 50.7253 41.213 49.3746 42.2747C49.0312 42.5465 48.8709 42.9758 48.9768 43.3879C49.0998 43.8715 49.1571 44.2836 49.1571 44.6785C49.1571 48.0982 45.8719 50.8625 42.9101 50.4791C42.8271 50.4676 42.7441 50.459 42.664 50.4505C42.1717 50.3989 41.6881 50.6365 41.4821 51.06C40.3346 53.4066 37.8363 54.9232 35.1177 54.9232C31.3117 54.9232 28.0952 51.7439 28.0952 47.9837V45.3739C28.0952 44.7643 27.5715 44.2721 26.9248 44.2721C26.278 44.2721 25.7544 44.7643 25.7544 45.3739V47.9837C25.7544 51.7468 22.5379 54.9232 18.7318 54.9232C16.019 54.9232 13.5207 53.4094 12.3732 51.0686C12.1643 50.6422 11.6807 50.3961 11.1856 50.4505C11.1026 50.459 11.0196 50.4705 10.9395 50.4791C7.60854 50.9083 3.85975 47.357 4.87278 43.3879C4.9758 42.9815 4.82986 42.5522 4.48646 42.2861C3.13003 41.2244 2.34879 39.6877 2.34879 38.068C2.34879 37.0693 2.64927 36.0906 3.20729 35.2321C3.89123 34.242 4.70394 33.538 4.24322 33.1631C3.16437 32.2875 2.34879 30.5533 2.34879 28.925C2.34879 27.0392 3.37041 25.3021 5.08168 24.2834C5.60823 23.9686 5.78565 23.3247 5.47659 22.8153C4.95291 21.9511 4.68964 21.0411 4.68964 20.1139C4.68964 17.1406 7.26514 14.2761 10.5417 14.2761C11.6635 14.2761 12.7338 14.6281 13.6438 15.2233C15.2692 16.285 17.1579 14.7512 14.8428 13.3117C13.5837 12.5276 12.1042 12.0698 10.5389 12.0698C10.1468 12.0698 9.75765 12.0984 9.37132 12.1556C9.37132 12.1556 9.37132 12.1556 9.36846 12.1528C9.31981 9.65453 11.4575 7.66281 14.0473 7.66281C15.2921 7.66281 14.239 6.37792 15.1319 5.53945C16.1649 4.09717 17.8791 2.92675 19.8994 2.92675C23.0157 2.92675 25.7515 5.65392 25.7515 8.76455V12.914C25.7515 13.5235 26.2752 14.0157 26.9219 14.0157C27.5687 14.0157 28.0923 13.5235 28.0923 12.914V8.76455C28.0923 5.65392 30.8252 2.92675 33.9445 2.92675C35.9648 2.92675 37.6789 4.09717 38.712 5.53945C39.8223 6.58396 39.3788 7.59127 39.7966 7.66281C42.3549 8.11495 44.5269 9.66884 44.4754 12.1528C44.4754 12.1528 44.4754 12.1528 44.4725 12.1556C44.0862 12.0984 43.697 12.0698 43.305 12.0698C41.7711 12.0698 40.3174 12.5105 39.0754 13.266C36.7203 14.6968 38.6891 16.1047 40.4462 15.0717C41.3018 14.568 42.2834 14.2733 43.305 14.2733C46.5787 14.2733 49.1571 17.1378 49.1571 20.1111C49.1571 21.0382 48.8909 21.9482 48.3701 22.8125C48.0611 23.3218 48.2385 23.9657 48.765 24.2805C50.4763 25.3021 51.4979 27.0363 51.4979 28.9221C51.4979 30.7193 50.6079 32.3819 49.2486 33.4693C49.4604 34.0445 50.027 34.5768 50.6394 35.235Z" fill="white"/>
</svg>
