<svg width="62" height="56" viewBox="0 0 62 56" fill="none" xmlns="http://www.w3.org/2000/svg">
<path d="M58.1402 5.18621H42.0719C42.0547 5.18621 42.0376 5.18907 42.0232 5.18907C41.4337 4.63677 40.8013 4.12453 40.126 3.65522C39.7196 3.37477 39.1644 3.47493 38.884 3.88129C38.6035 4.28764 38.7037 4.84281 39.1101 5.12325C43.0563 7.85328 45.4115 12.3432 45.4115 17.1337C45.4115 25.1807 38.864 31.7253 30.8198 31.7253C22.7728 31.7253 16.2282 25.1778 16.2282 17.1337C16.2282 9.08666 22.7757 2.54203 30.8198 2.54203C32.4166 2.54203 33.9877 2.79958 35.4843 3.30323C35.9508 3.46062 36.4573 3.2088 36.6147 2.74234C36.7721 2.27589 36.5203 1.76938 36.0538 1.61199C34.3711 1.04538 32.6084 0.756348 30.817 0.756348C21.7855 0.756348 14.4368 8.10511 14.4368 17.1365C14.4368 26.1679 21.7855 33.5167 30.817 33.5167C39.8484 33.5167 47.1971 26.1679 47.1971 17.1365C47.1971 13.4021 45.9208 9.83355 43.6601 6.97475H58.1402C58.9614 6.97475 59.6282 7.64152 59.6282 8.46281V36.5758H52.5628C52.0705 36.5758 51.6699 36.9765 51.6699 37.4687C51.6699 37.9609 52.0705 38.3615 52.5628 38.3615H59.6282V43.0518C59.6282 43.8731 58.9614 44.5398 58.1402 44.5398H3.71125C2.88995 44.5398 2.22318 43.8731 2.22318 43.0518V38.3615H48.0642C48.5564 38.3615 48.9571 37.9609 48.9571 37.4687C48.9571 36.9765 48.5564 36.5758 48.0642 36.5758H2.22318V8.46281C2.22318 7.64152 2.88995 6.97475 3.71125 6.97475H14.3624C14.8546 6.97475 15.2552 6.57412 15.2552 6.08191C15.2552 5.5897 14.8546 5.18907 14.3624 5.18907H3.71125C1.90554 5.18907 0.4375 6.6571 0.4375 8.46281V43.0546C0.4375 44.8604 1.90554 46.3284 3.71125 46.3284H23.2908V53.308H20.5951C20.1029 53.308 19.7022 53.7086 19.7022 54.2008C19.7022 54.693 20.1029 55.0937 20.5951 55.0937H41.0388C41.531 55.0937 41.9317 54.693 41.9317 54.2008C41.9317 53.7086 41.531 53.308 41.0388 53.308H38.3431V46.3284H58.1402C59.9459 46.3284 61.4139 44.8604 61.4139 43.0546V8.46281C61.4139 6.6571 59.9459 5.18621 58.1402 5.18621ZM36.5546 53.308H25.0765V46.3284H36.5546V53.308Z" fill="white"/>
<path d="M24.4539 9.99953C24.2622 8.98936 23.3779 8.25677 22.3506 8.25677H21.3948C20.9026 8.25677 20.502 8.65741 20.502 9.14962C20.502 9.64182 20.9026 10.0425 21.3948 10.0425H22.3506C22.5194 10.0425 22.6654 10.1626 22.6969 10.3315L25.341 24.3336C25.4212 24.7543 25.7903 25.0605 26.2196 25.0605H26.8234C26.5601 25.3552 26.397 25.7444 26.397 26.1708C26.397 27.0923 27.1439 27.8392 28.0653 27.8392C28.9868 27.8392 29.7337 27.0923 29.7337 26.1708C29.7337 25.7444 29.5706 25.3552 29.3073 25.0605H32.9817C32.7184 25.3552 32.5553 25.7444 32.5553 26.1708C32.5553 27.0923 33.3022 27.8392 34.2236 27.8392C35.1451 27.8392 35.892 27.0923 35.892 26.1708C35.892 25.7444 35.7289 25.3552 35.4656 25.0605H36.2697C36.7619 25.0605 37.1626 24.6598 37.1626 24.1676C37.1626 23.6754 36.7619 23.2748 36.2697 23.2748H26.9636L26.6002 21.346H36.5817C37.0109 21.346 37.3801 21.0398 37.4602 20.6192L39.0456 12.2545C39.0456 12.2488 39.0484 12.2431 39.0484 12.2374C39.1028 11.9254 39.0141 11.6078 38.8109 11.3645C38.6077 11.1213 38.3072 10.9839 37.9896 10.9839H24.6428L24.4539 9.99953ZM25.7846 17.0564H28.2227L28.4059 19.5575H26.2596L25.7846 17.0564ZM32.1632 17.0564L31.9801 19.5575H30.1944L30.0113 17.0564H32.1632ZM29.8825 15.2707L29.6994 12.7696H32.4752L32.292 15.2707H29.8825ZM33.7715 19.5575L33.9546 17.0564H36.3098L35.8348 19.5575H33.7715ZM36.6503 15.2707H34.0863L34.2694 12.7696H37.1254L36.6503 15.2707ZM27.9079 12.7696L28.0911 15.2707H25.4469L24.9747 12.7696H27.9079Z" fill="white"/>
<path d="M6.25612 30.2H11.5388C12.031 30.2 12.4316 29.7994 12.4316 29.3072C12.4316 28.815 12.031 28.4144 11.5388 28.4144H6.25612C5.76392 28.4144 5.36328 28.815 5.36328 29.3072C5.36328 29.7994 5.76392 30.2 6.25612 30.2Z" fill="white"/>
<path d="M6.25612 34.2292H16.1146C16.6068 34.2292 17.0074 33.8286 17.0074 33.3364C17.0074 32.8442 16.6068 32.4435 16.1146 32.4435H6.25612C5.76392 32.4435 5.36328 32.8442 5.36328 33.3364C5.36328 33.8286 5.76392 34.2292 6.25612 34.2292Z" fill="white"/>
<path d="M53.4269 10.3429C52.9347 10.3429 52.534 10.7435 52.534 11.2357V13.4707H50.2991C49.8069 13.4707 49.4062 13.8713 49.4062 14.3635C49.4062 14.8557 49.8069 15.2564 50.2991 15.2564H52.534V17.4913C52.534 17.9835 52.9347 18.3842 53.4269 18.3842C53.9191 18.3842 54.3197 17.9835 54.3197 17.4913V15.2564H56.5547C57.0469 15.2564 57.4475 14.8557 57.4475 14.3635C57.4475 13.8713 57.0469 13.4707 56.5547 13.4707H54.3197V11.2357C54.3197 10.7435 53.9191 10.3429 53.4269 10.3429Z" fill="white"/>
</svg>
