<svg width="116" height="118" viewBox="0 0 116 118" fill="none" xmlns="http://www.w3.org/2000/svg">
<path d="M54.8431 9.18481C54.2813 10.6334 55.2425 12.2105 56.3187 13.3274C57.395 14.4443 58.7014 15.507 59.0398 17.0164C59.3241 18.289 58.8503 19.6089 58.9654 20.9018C59.0805 22.2285 59.798 23.4198 60.2041 24.6856C60.9419 26.9803 60.6441 29.4916 59.9875 31.8065C59.4527 33.7086 58.654 35.5768 57.3341 37.0525C56.0209 38.5281 54.1256 39.5705 52.1491 39.5366C51.5873 39.5231 50.9848 39.408 50.6193 38.9816C50.3012 38.6161 50.2335 38.1016 50.1793 37.621C49.0489 27.6775 49.0421 17.5986 50.1726 7.65503" fill="black"/>
<path d="M53.7994 41.2763C58.1044 41.0867 62.0778 45.209 61.7326 49.5005C66.0917 50.5632 69.1648 55.3556 68.312 59.7554C68.0277 61.2107 67.3846 62.5916 67.2966 64.0672C67.2019 65.6782 67.7704 67.2418 68.0818 68.8325C68.6436 71.6958 68.339 74.7215 67.2222 77.4155C66.5453 79.0536 65.2795 80.7458 63.506 80.7932C62.3012 80.8271 61.1911 80.0486 60.5209 79.0468C59.8508 78.045 59.553 76.8469 59.3228 75.6691C58.5579 71.8041 58.3278 67.8307 57.2651 64.0401C56.2024 60.2428 54.1446 56.5063 50.7128 54.5772C48.8175 53.5077 46.5431 53.0068 45.0336 51.4364C43.4565 49.7916 43.091 47.1788 43.9168 45.0533C44.7426 42.9279 46.6243 41.3033 48.7633 40.5249" fill="black"/>
<path d="M24.0164 12.7249C23.9622 10.8838 25.6612 9.46908 27.3737 8.79218C29.0863 8.12206 30.9883 7.86484 32.5114 6.83596C33.8651 5.92893 34.7722 4.50746 35.9161 3.34997C38.7185 0.507023 43.1047 -0.670769 46.9562 0.378414C50.8078 1.4276 53.9824 4.66991 54.9571 8.54173C55.6137 11.1613 55.1669 14.2547 53.1024 15.9943C50.7062 18.0115 47.1593 17.5647 44.0862 16.9352C41.0199 16.3057 37.5407 15.6897 34.982 17.4902C33.4387 18.58 32.552 20.3467 31.6043 21.9848C30.6567 23.6229 29.4721 25.2948 27.6851 25.904C25.8981 26.52 23.4748 25.4573 23.4004 23.5687" fill="black"/>
<path d="M31.2665 13.1041C29.6758 13.2733 28.4844 14.6339 28.5183 16.2313L30.3527 57.779C30.4271 62.6864 37.6022 65.4414 42.8549 65.3196C48.1617 65.1977 48.3309 62.5917 48.3986 57.9279C48.5069 50.1301 48.5001 47.1992 48.5001 47.2465C48.5001 47.2465 55.2014 46.1161 56.5687 37.3707C57.2524 33.0183 57.0154 25.8906 56.6364 20.0625C56.2912 14.8166 52.8052 8.38616 47.5728 8.94798L31.2665 13.1041Z" fill="#FFBE9D"/>
<path d="M55.1328 25.5455C55.1531 26.1412 54.6725 26.6421 54.0565 26.6827C53.4406 26.7165 52.9194 26.263 52.8991 25.6741C52.8788 25.0852 53.3593 24.5708 53.9753 24.537C54.5913 24.5031 55.1125 24.9499 55.1328 25.5455Z" fill="#434041"/>
<path d="M55.1063 23.7653C54.9709 23.9142 54.118 23.2847 52.9064 23.2914C51.7015 23.2779 50.8148 23.9006 50.6862 23.7585C50.6185 23.6908 50.7606 23.4268 51.1464 23.1493C51.5255 22.8718 52.1753 22.5942 52.9267 22.5942C53.678 22.5942 54.3143 22.8718 54.6731 23.1561C55.0453 23.4404 55.174 23.7043 55.1063 23.7653Z" fill="#434041"/>
<path d="M43.5371 25.5453C43.5574 26.1409 43.0768 26.6418 42.4608 26.6825C41.8449 26.7163 41.3237 26.2628 41.3034 25.6739C41.283 25.085 41.7636 24.5706 42.3796 24.5367C42.9956 24.5029 43.51 24.9496 43.5371 25.5453Z" fill="#434041"/>
<path d="M43.2407 24.0155C43.0986 24.1644 42.2525 23.5349 41.0408 23.5417C39.836 23.5281 38.9492 24.1509 38.8206 24.0087C38.7597 23.941 38.8951 23.6771 39.2809 23.3995C39.66 23.122 40.3098 22.8445 41.0611 22.8445C41.8125 22.8445 42.4488 23.122 42.8075 23.4063C43.1798 23.6906 43.3084 23.9546 43.2407 24.0155Z" fill="#434041"/>
<path d="M47.6404 32.9573C47.6336 32.8896 48.385 32.7542 49.6034 32.5985C49.9147 32.5647 50.2058 32.5037 50.2532 32.2939C50.3277 32.0705 50.1923 31.7389 50.0434 31.3801C49.7523 30.6355 49.4477 29.8571 49.1296 29.038C47.857 25.701 46.9364 22.9528 47.0718 22.9054C47.2072 22.858 48.3511 25.5182 49.6237 28.8621C49.9283 29.6879 50.2261 30.4731 50.5036 31.2244C50.6187 31.5764 50.8218 31.969 50.6661 32.4361C50.5849 32.6662 50.3547 32.8354 50.1584 32.8896C49.9621 32.9505 49.7861 32.9573 49.6372 32.964C48.4053 33.0249 47.6472 33.0317 47.6404 32.9573Z" fill="#434041"/>
<path d="M48.507 47.2396C48.507 47.2396 42.6248 47.6322 36.7832 44.1394C36.7832 44.1394 39.6397 50.1434 48.3919 49.3041L48.507 47.2396Z" fill="#EB996E"/>
<path d="M47.1396 35.8678C46.7064 35.2925 45.9415 34.9811 45.1902 35.0623C44.6689 35.1165 44.141 35.3737 43.8228 35.8001C43.5047 36.2266 43.437 36.8358 43.7281 37.2419C44.053 37.7022 44.7366 37.8037 45.312 37.6413C45.8874 37.4788 46.3815 37.093 46.8553 36.7139C46.9839 36.6124 47.1193 36.4973 47.2005 36.3552C47.2818 36.213 47.2953 36.0235 47.2005 35.9084" fill="#EB996E"/>
<path d="M44.0867 33.8033C44.283 33.7898 44.2898 35.103 45.4134 36.0303C46.5371 36.9576 47.9315 36.8087 47.945 36.9915C47.9653 37.0727 47.6336 37.2487 47.0447 37.2622C46.4694 37.2826 45.6233 37.0998 44.9328 36.5312C44.2492 35.9626 43.9513 35.2045 43.904 34.663C43.8566 34.1215 43.9987 33.7966 44.0867 33.8033Z" fill="#434041"/>
<path d="M43.775 21.9036C43.66 22.2353 42.4483 22.0796 41.0336 22.2556C39.6122 22.3978 38.475 22.8174 38.2855 22.5264C38.2042 22.3842 38.4005 22.0796 38.8608 21.7547C39.3211 21.4366 40.0454 21.132 40.8983 21.0372C41.7511 20.9424 42.5296 21.0778 43.044 21.2809C43.5652 21.4907 43.8292 21.748 43.775 21.9036Z" fill="#434041"/>
<path d="M54.6534 20.2724C54.4436 20.55 53.611 20.2657 52.6092 20.2521C51.6074 20.2047 50.7613 20.4417 50.565 20.1574C50.477 20.0152 50.6123 19.7445 50.9846 19.4805C51.3502 19.2233 51.9594 19.0066 52.643 19.027C53.3267 19.0473 53.9291 19.2977 54.2743 19.5752C54.6331 19.8595 54.7482 20.1371 54.6534 20.2724Z" fill="#434041"/>
<path d="M25.1604 41.8785C27.5634 42.3658 30.183 41.6212 31.9835 39.9561C33.784 38.2842 34.7114 35.7255 34.4 33.2955C34.1292 31.1497 32.9718 28.9634 33.7163 26.9259C34.6978 24.2386 38.4681 23.4128 39.4699 20.7256C40.052 19.1687 39.5309 17.3411 40.1874 15.8181C40.8102 14.3831 42.3196 13.5573 43.7885 13.0225C45.2574 12.4878 46.8345 12.1223 48.0732 11.1611C49.3052 10.1999 50.0768 8.38583 49.2849 7.03882C42.7596 7.82401 36.3291 9.38086 30.1694 11.6823C28.7412 12.217 27.2453 12.8533 26.3991 14.1259C25.5056 15.4661 25.5463 17.2057 25.6207 18.8167C25.9862 26.6687 24.7949 34.0265 25.1604 41.8785Z" fill="black"/>
<path d="M48.4928 1.27869C48.4996 1.26515 48.6214 1.29222 48.8313 1.38022C49.0411 1.46822 49.3322 1.63067 49.6571 1.88112C50.3001 2.37525 51.0582 3.33644 51.2478 4.60223C51.4305 5.87478 50.9905 7.01196 50.5235 7.66855C50.2866 8.00699 50.0564 8.24391 49.8804 8.38605C49.7044 8.53497 49.5961 8.59589 49.5826 8.58235C49.5488 8.54851 49.9549 8.23714 50.3678 7.56701C50.7807 6.91043 51.1665 5.82063 50.9905 4.63607C50.8078 3.45151 50.1241 2.52417 49.5352 2.0165C48.9531 1.49529 48.4725 1.3193 48.4928 1.27869Z" fill="#535354"/>
<path d="M67.8716 61.3053C67.8445 61.2918 68.0272 60.9872 68.122 60.378C68.2235 59.7755 68.1762 58.8482 67.6956 57.8599C67.2285 56.8649 66.2403 55.9173 64.9339 55.2877C64.284 54.9696 63.553 54.7192 62.7881 54.5229C62.0164 54.3266 61.1974 54.1573 60.3784 53.8933C59.5661 53.6294 58.7674 53.2706 58.1717 52.6885C57.549 52.1199 57.2579 51.3144 57.1293 50.5901C56.9939 49.8523 56.9465 49.1551 56.7841 48.5324C56.6284 47.9096 56.3306 47.3816 55.9853 46.9552C55.2881 46.1023 54.4488 45.703 53.8667 45.5134C53.2778 45.3374 52.9258 45.3374 52.9258 45.3104C52.9258 45.3036 53.0138 45.2968 53.1762 45.3036C53.3387 45.3104 53.5824 45.3442 53.8937 45.4187C54.4962 45.5811 55.3761 45.9669 56.1207 46.8401C56.4862 47.2733 56.8111 47.8284 56.9804 48.4782C57.1564 49.1213 57.2105 49.832 57.3527 50.5427C57.488 51.2535 57.7588 51.9777 58.3342 52.5057C58.8892 53.0472 59.6473 53.3924 60.4461 53.6497C61.2448 53.9069 62.0571 54.0761 62.8355 54.2792C63.6207 54.4822 64.3585 54.7395 65.0286 55.0779C66.3689 55.7345 67.3842 56.7431 67.8513 57.7855C68.3318 58.8211 68.3521 59.7891 68.2168 60.3983C68.1559 60.7097 68.0611 60.9398 67.9934 61.0887C67.9189 61.2309 67.8783 61.3053 67.8716 61.3053Z" fill="#535354"/>
<path d="M29.8242 45.8115C25.3974 44.6269 21.5662 40.288 20.0161 35.9695C18.466 31.6509 18.4592 26.9397 18.8586 22.3707C19.1497 19.0607 19.725 15.5612 21.9249 13.0634C25.2417 9.3067 28.8292 7.38433 33.8382 7.54001" fill="black"/>
<path d="M23.0759 39.4148C23.0759 39.4216 23.0285 39.4013 22.9338 39.3674C22.839 39.3403 22.7036 39.2726 22.5344 39.1711C22.2027 38.9748 21.756 38.5619 21.4446 37.8782C21.1332 37.2081 20.9505 36.2672 21.1603 35.2248C21.3701 34.1824 21.9726 33.1062 22.751 32.0502C23.5159 30.9807 24.4906 29.8977 25.154 28.5168C25.4789 27.8332 25.7226 27.0683 25.7361 26.2628C25.7496 25.4573 25.4924 24.6518 25.2217 23.8327C24.9441 23.0137 24.6734 22.127 24.7072 21.1861C24.7478 20.2587 25.0118 19.3179 25.5059 18.4853C25.9933 17.6527 26.6837 16.9149 27.5502 16.4072C28.4098 15.8725 29.4387 15.6897 30.4337 15.5882C31.4288 15.4731 32.4238 15.419 33.3173 15.0873C34.2175 14.7692 34.9147 14.0787 35.348 13.2597C35.7879 12.4406 36.0384 11.5471 36.3091 10.6807C36.5731 9.80753 36.8845 8.95465 37.2974 8.18299C38.1029 6.62614 39.2401 5.32651 40.5736 4.5007C41.907 3.67489 43.3962 3.33644 44.7229 3.42444C46.0564 3.51244 47.2139 4.04041 47.9923 4.76469C48.7707 5.48219 49.231 6.30123 49.4544 7.0052C49.6845 7.71594 49.6913 8.30483 49.6575 8.69066C49.6236 9.07649 49.5559 9.27279 49.5559 9.27279C49.5424 9.27279 49.5898 9.06972 49.6101 8.68389C49.6304 8.30483 49.6033 7.72271 49.3664 7.03904C49.1362 6.35538 48.6692 5.55665 47.9043 4.87299C47.1462 4.18256 46.0158 3.68166 44.7229 3.6072C43.43 3.53274 41.9883 3.87119 40.6954 4.68346C39.4025 5.49573 38.2992 6.76829 37.514 8.29806C37.1146 9.06295 36.81 9.88876 36.5528 10.762C36.2888 11.6284 36.0384 12.5354 35.5781 13.3883C35.348 13.8147 35.0569 14.2141 34.6914 14.5593C34.3258 14.8978 33.8859 15.1618 33.4188 15.3377C32.4712 15.6897 31.4626 15.7439 30.4743 15.8589C29.4861 15.9605 28.5113 16.1432 27.6923 16.6441C26.8665 17.1247 26.2031 17.8287 25.7361 18.6274C25.2623 19.4262 25.005 20.3197 24.9644 21.2064C24.9306 22.0999 25.181 22.946 25.4586 23.7718C25.7293 24.5909 25.9933 25.4302 25.973 26.2831C25.9595 27.1292 25.7022 27.9279 25.357 28.6251C24.6666 30.0398 23.6783 31.1161 22.9134 32.1721C22.135 33.2145 21.5326 34.2569 21.316 35.2722C21.0994 36.2808 21.2618 37.2014 21.5529 37.8579C21.844 38.5281 22.2636 38.9342 22.5818 39.144C22.8796 39.3471 23.0827 39.3945 23.0759 39.4148Z" fill="#535354"/>
<path d="M55.694 55.4571L51.565 54.4215C52.5329 53.6498 52.8037 52.6616 52.384 51.5379C51.8899 50.2248 50.6241 49.3584 49.2297 49.1959L30.3918 47.0705C29.7149 46.996 29.0583 47.3683 28.8146 47.9978C27.9753 50.1165 27.9482 51.8696 28.7266 53.2437H28.6386L25.0105 53.968L18.8711 108.241L59.1665 106.359L55.694 55.4571Z" fill="white"/>
<path d="M49.765 54.6313C49.765 54.6516 49.501 54.699 49.0068 54.7734C48.5195 54.8547 47.8087 54.9427 46.922 55.0239C45.1553 55.1931 42.705 55.3082 40.0042 55.1728C37.2966 55.0374 34.8666 54.6854 33.1337 54.3402C32.2673 54.171 31.5633 54.0085 31.0895 53.8799C30.6089 53.7581 30.3449 53.6769 30.3517 53.6633C30.3585 53.643 30.6292 53.6904 31.1098 53.7852C31.5972 53.8799 32.2944 54.0153 33.1676 54.1642C34.9072 54.4621 37.3305 54.787 40.0177 54.9223C42.705 55.051 45.1486 54.9765 46.9085 54.8479C47.7884 54.787 48.4992 54.7261 48.9933 54.6787C49.4942 54.6313 49.765 54.611 49.765 54.6313Z" fill="#ED1164"/>
<path d="M31.5509 63.2548C31.49 63.2142 32.1263 62.165 32.9588 60.9128C33.7982 59.6538 34.5225 58.6723 34.5834 58.7129C34.6443 58.7535 34.008 59.8027 33.1755 61.0549C32.3361 62.3072 31.6118 63.2954 31.5509 63.2548Z" fill="#F798BC"/>
<path d="M44.5408 64.1756C44.4866 64.2229 43.6811 63.3159 42.7538 62.1584C41.8196 61.0009 41.1089 60.0194 41.1631 59.9788C41.2172 59.9314 42.0227 60.8385 42.9501 62.0027C43.8842 63.1535 44.5949 64.1282 44.5408 64.1756Z" fill="#F798BC"/>
<path d="M38.5086 71.0729C38.4409 71.0864 38.1634 69.8748 37.8994 68.3721C37.6354 66.8694 37.473 65.6374 37.5474 65.6239C37.6151 65.6104 37.8926 66.822 38.1566 68.3247C38.4206 69.8274 38.5763 71.0593 38.5086 71.0729Z" fill="#F798BC"/>
<path d="M48.4261 71.4994C48.4735 71.5468 47.4514 72.6366 46.1383 73.9362C44.8251 75.2291 43.7217 76.2377 43.6676 76.1835C43.6202 76.1361 44.6423 75.0463 45.9555 73.7467C47.2687 72.4538 48.372 71.452 48.4261 71.4994Z" fill="#F798BC"/>
<path d="M35.1246 80.7456C35.0908 80.7997 33.8656 80.0552 32.6607 78.7758C31.4491 77.5033 30.779 76.2307 30.8331 76.2037C30.9008 76.163 31.6589 77.3476 32.8503 78.5998C34.0281 79.8589 35.172 80.6847 35.1246 80.7456Z" fill="#F798BC"/>
<path d="M39.3952 87.8871C39.4155 87.9615 38.2648 88.327 36.9584 89.0175C35.652 89.7011 34.6976 90.4457 34.6502 90.3848C34.6028 90.3374 35.5031 89.4913 36.8366 88.7873C38.1768 88.0834 39.3817 87.8261 39.3952 87.8871Z" fill="#F798BC"/>
<path d="M46.3471 88.3542C46.3201 88.3745 46.0155 88.0564 45.562 87.5081C45.1084 86.9598 44.4992 86.1814 43.863 85.3014C43.2334 84.4147 42.6919 83.5889 42.3264 82.9797C41.9541 82.3705 41.7511 81.9779 41.7849 81.9576C41.8187 81.9373 42.076 82.2961 42.4821 82.8782C42.9492 83.5415 43.4839 84.3064 44.0796 85.1458C44.6888 85.9783 45.237 86.7365 45.7109 87.393C46.1238 87.9684 46.3742 88.3272 46.3471 88.3542Z" fill="#F798BC"/>
<path d="M47.0449 94.4392C47.0585 94.5069 45.7385 94.8589 44.0666 95.1296C42.4015 95.4071 41.0341 95.4951 41.0274 95.4275C41.0206 95.353 42.3676 95.1499 44.026 94.8724C45.6844 94.6084 47.0246 94.3715 47.0449 94.4392Z" fill="#F798BC"/>
<path d="M35.7935 53.8598C35.7597 53.8327 35.9966 53.5619 36.1997 53.0407C36.4095 52.5263 36.5381 51.7411 36.4163 50.895C36.2944 50.0489 35.9966 49.311 35.78 48.7831C35.5566 48.2551 35.4145 47.9302 35.4483 47.9099C35.4754 47.8963 35.6785 48.1874 35.9492 48.7018C36.2132 49.2163 36.5449 49.9609 36.6803 50.8544C36.8089 51.7479 36.6397 52.5804 36.3757 53.1084C36.1049 53.6499 35.8071 53.8801 35.7935 53.8598Z" fill="#F798BC"/>
<path d="M43.3211 49.7981C43.3753 49.7642 43.8356 50.4411 44.0657 51.4159C44.2959 52.3906 44.1876 53.2029 44.1199 53.1961C44.0454 53.1961 44.0387 52.4041 43.8153 51.47C43.5987 50.5427 43.2535 49.8319 43.3211 49.7981Z" fill="#F798BC"/>
<path d="M77.2673 88.4693L96.0173 55.5452L98.2781 49.8322C98.2781 49.8322 104.12 37.2691 104.526 35.9898C105 34.5142 105.825 34.3856 106.353 34.5954C107.186 34.9271 107.45 36.159 107.084 37.4384C106.956 37.8783 104.688 44.7826 104.688 44.7826C104.688 44.7826 105.189 44.3088 106.624 43.3409C108.066 42.3729 110.699 42.4067 113.143 43.2732C115.586 44.1396 116.189 44.5999 115.898 45.5678C115.782 45.9537 115.464 46.1973 115.112 46.3463C114.544 46.5899 113.894 46.5832 113.305 46.3869C109.379 45.0466 107.639 46.8201 107.639 46.8201L107.342 47.5647C107.342 47.5647 110.293 46.617 111.972 47.9573C112.242 48.1739 112.439 48.4175 112.581 48.6748C113.63 49.02 114.476 49.927 114.733 50.9965C115.004 52.1134 114.625 53.3589 113.786 54.1441C113.386 54.5163 112.777 54.7871 112.296 54.5231C112.046 54.381 111.884 54.1237 111.735 53.8733C111.653 53.7447 111.565 53.6161 111.464 53.501L110.34 55.4775C110.34 55.4775 107.585 59.7826 106.597 61.7929L93.6955 96.1791C91.9085 100.944 86.5543 103.32 81.8228 101.445C76.6852 99.4078 74.5327 93.282 77.2673 88.4693Z" fill="#FFBE9D"/>
<path d="M97.3105 55.43C97.9739 55.8632 98.8877 55.5654 99.4834 55.051C100.079 54.5365 100.485 53.8326 101.04 53.2707C102.712 51.5988 105.508 51.4431 107.092 49.6967C107.315 49.4531 107.511 49.0808 107.322 48.8168C107.146 48.5663 106.774 48.6002 106.476 48.6611C103.917 49.1688 101.365 49.6764 98.8065 50.1773" fill="#FFBE9D"/>
<path d="M98.7992 50.1842C98.7924 50.1571 99.0835 50.0691 99.6115 49.9337C100.139 49.7984 100.911 49.6224 101.859 49.4193C102.847 49.2095 103.977 48.9725 105.203 48.7086C105.521 48.6409 105.839 48.5799 106.171 48.5123C106.482 48.4716 106.875 48.2821 107.342 48.5529C107.572 48.7018 107.653 49.0199 107.592 49.2501C107.538 49.4802 107.423 49.6562 107.294 49.8119C107.03 50.0962 106.753 50.3534 106.428 50.5768C105.148 51.4567 103.747 51.8223 102.637 52.4112C102.075 52.6954 101.574 53.0204 101.182 53.4062C100.789 53.7852 100.478 54.2252 100.146 54.5975C99.5235 55.3759 98.6909 55.7618 98.1156 55.7415C97.5267 55.7279 97.2897 55.4504 97.3033 55.4504C97.3236 55.4098 97.5808 55.6129 98.102 55.5722C98.6232 55.5316 99.3272 55.1729 99.9025 54.4012C100.207 54.0289 100.498 53.5822 100.918 53.1557C101.338 52.7293 101.866 52.3638 102.448 52.0592C103.598 51.4364 104.993 51.0506 106.171 50.2248C106.462 50.0217 106.726 49.778 106.956 49.5411C107.172 49.2975 107.247 49.0064 107.091 48.9252C106.935 48.8101 106.583 48.8778 106.259 48.9455C105.927 49.0064 105.602 49.0673 105.291 49.1282C104.052 49.3584 102.921 49.5614 101.926 49.7442C100.965 49.9134 100.187 50.042 99.6521 50.1233C99.1106 50.1842 98.806 50.2113 98.7992 50.1842Z" fill="#EB996E"/>
<path d="M107.246 47.5713C107.301 47.5984 107.402 46.9621 108.126 46.3868C108.485 46.1092 109.006 45.9129 109.609 45.8994C110.211 45.8791 110.875 46.028 111.565 46.2311C112.255 46.4341 112.926 46.6372 113.575 46.6846C114.218 46.732 114.814 46.6507 115.261 46.4274C115.721 46.204 115.938 45.7979 115.978 45.5271C116.026 45.2563 115.978 45.1074 115.972 45.1074C115.944 45.1074 115.944 45.2563 115.87 45.5C115.796 45.7437 115.592 46.0686 115.173 46.2446C114.767 46.4274 114.205 46.4815 113.602 46.4274C112.993 46.3664 112.343 46.1634 111.653 45.9603C110.956 45.7572 110.259 45.6083 109.609 45.6422C108.959 45.6692 108.377 45.9062 108.011 46.2378C107.632 46.5627 107.436 46.9215 107.341 47.1719C107.233 47.4156 107.233 47.5645 107.246 47.5713Z" fill="#EB996E"/>
<path d="M107.22 36.9442C107.179 36.9374 107.017 37.4586 106.76 38.3115C106.469 39.2591 106.117 40.3895 105.738 41.635C105.331 42.8737 104.966 43.9974 104.661 44.945C104.384 45.7911 104.215 46.3123 104.248 46.3327C104.282 46.3462 104.519 45.8453 104.851 45.0195C105.183 44.1869 105.595 43.0294 106.008 41.7298C106.421 40.4302 106.746 39.2456 106.956 38.3724C107.166 37.4992 107.261 36.9509 107.22 36.9442Z" fill="#EB996E"/>
<path d="M108.311 49.6293C108.318 49.6496 108.48 49.6293 108.764 49.6022C109.035 49.5819 109.495 49.5616 109.841 49.8933C110.01 50.0557 110.071 50.3062 110.017 50.5837C109.969 50.8612 109.813 51.1388 109.665 51.4569C109.516 51.7683 109.36 52.1676 109.482 52.5941C109.604 53.007 109.949 53.3387 110.362 53.4808C110.788 53.6297 111.242 53.5485 111.594 53.359C111.952 53.1694 112.237 52.8987 112.413 52.5602C112.731 51.9172 112.866 51.3012 112.954 50.78C113.035 50.2588 113.029 49.8188 112.968 49.5278C112.907 49.2367 112.805 49.0945 112.792 49.1013C112.765 49.1148 112.826 49.2638 112.853 49.5413C112.88 49.8256 112.853 50.2385 112.751 50.7394C112.643 51.2335 112.48 51.8427 112.176 52.4248C111.878 52.9596 111.133 53.4334 110.45 53.1965C110.118 53.0814 109.841 52.8107 109.746 52.5061C109.651 52.1947 109.759 51.863 109.901 51.5584C110.037 51.2538 110.199 50.9425 110.247 50.6175C110.314 50.2926 110.206 49.9271 109.976 49.7444C109.522 49.3585 109.015 49.4398 108.737 49.4939C108.453 49.5548 108.304 49.6157 108.311 49.6293Z" fill="#EB996E"/>
<path d="M111.545 53.1084C111.532 53.1017 111.451 53.237 111.457 53.5146C111.471 53.7786 111.606 54.1982 112.033 54.4825C112.452 54.7601 113.116 54.8074 113.698 54.5028C114.28 54.1982 114.734 53.5958 114.957 52.8986C115.18 52.1946 115.16 51.4636 114.957 50.8612C114.761 50.252 114.395 49.7917 114.043 49.4735C113.684 49.1554 113.332 48.9862 113.089 48.8982C112.838 48.8102 112.696 48.7966 112.689 48.8102C112.669 48.8643 113.258 48.9929 113.901 49.6224C114.219 49.9338 114.537 50.3806 114.707 50.9356C114.876 51.4907 114.889 52.1608 114.686 52.8038C114.483 53.4401 114.077 53.9884 113.576 54.2592C113.082 54.5367 112.507 54.5164 112.141 54.2998C111.769 54.0832 111.613 53.7312 111.573 53.4943C111.525 53.2574 111.566 53.1152 111.545 53.1084Z" fill="#EB996E"/>
<path d="M105.299 56.2084C105.305 56.1814 105.075 56.0528 104.635 56.0054C104.202 55.958 103.545 56.0189 102.916 56.4183L103.126 56.5604C103.187 56.2626 103.241 55.9309 103.268 55.5925C103.437 53.6836 102.828 52.208 102.767 52.2486C102.679 52.2689 103.146 53.731 102.984 55.5654C102.957 55.8971 102.909 56.2152 102.855 56.5063L102.794 56.8312L103.065 56.6484C103.62 56.2761 104.216 56.1814 104.622 56.1814C105.041 56.1746 105.292 56.2423 105.299 56.2084Z" fill="#EB996E"/>
<path d="M109.203 44.4713C109.128 44.4849 109.237 45.067 109.758 45.5205C110.279 45.9808 110.868 46.0079 110.868 45.9334C110.888 45.8522 110.394 45.7033 109.947 45.3039C109.487 44.9113 109.277 44.4443 109.203 44.4713Z" fill="#EB996E"/>
<path d="M50.6719 115.789L70.2814 115.978L66.985 101.75L68.0883 104.437C70.1731 109.507 75.1077 112.817 80.5905 112.817C86.7908 112.817 91.0756 108.201 93.7019 102.582C99.8345 89.4439 105.744 68.291 105.744 68.291L93.7831 57.7856C85.1325 74.1529 76.9962 88.3676 76.9962 88.3676C76.9962 88.3676 74.6474 81.2264 72.8333 74.8636C71.0193 68.5008 71.0328 65.1502 68.244 61.9688C63.9593 57.0885 57.8537 55.87 52.1813 54.408L51.9715 80.8406L50.6719 115.789Z" fill="#ED1164"/>
<path d="M28.2404 96.5697L63.9465 103.528L65.6861 117.249H10.9323C4.58302 117.337 -0.466597 111.942 0.0343034 105.613C0.819498 95.6153 1.67915 83.2959 2.32897 78.0906C2.83664 74.0292 4.45441 69.8325 6.37678 66.2179C9.1385 61.0126 18.351 54.3317 26.4263 54L27.9561 88.0138" fill="#ED1164"/>
<path d="M21.4435 95.1095C21.4367 95.1095 21.43 94.9944 21.43 94.7846C21.43 94.5409 21.43 94.2363 21.4367 93.8505C21.4435 93.0043 21.4503 91.8401 21.457 90.4118C21.4638 87.508 21.4097 83.494 21.1795 79.0671C21.0712 76.8537 20.9223 74.7486 20.7734 72.833C20.6312 70.9174 20.462 69.198 20.0559 67.8104C19.67 66.416 19.0405 65.4074 18.4787 64.8253C17.9237 64.2432 17.5175 64.0266 17.5378 63.9995C17.5378 63.9995 17.9643 64.1823 18.5532 64.7576C19.1421 65.3262 19.8122 66.3551 20.2319 67.763C20.6651 69.1642 20.8546 70.9106 21.0103 72.8194C21.1795 74.735 21.3284 76.8401 21.4435 79.0604C21.6669 83.494 21.694 87.508 21.6466 90.4186C21.6195 91.8739 21.5789 93.0449 21.545 93.8572C21.5247 94.243 21.5044 94.5544 21.4909 94.7913C21.4638 94.9944 21.4503 95.1095 21.4435 95.1095Z" fill="#434041"/>
<path d="M63.262 104.024C63.2349 104.058 62.9032 103.51 61.9623 102.968C61.4953 102.697 60.8793 102.447 60.1415 102.237C59.4037 102.027 58.5373 101.865 57.5829 101.669C53.7652 100.89 48.499 99.8072 42.6574 98.7174C36.8158 97.6276 31.509 96.7476 27.6642 96.1316C25.7622 95.827 24.2121 95.5766 23.1087 95.4006C22.5875 95.3126 22.1746 95.2449 21.87 95.1908C21.5857 95.1434 21.4368 95.1095 21.4436 95.1028C21.4436 95.096 21.5925 95.1095 21.8768 95.1434C22.1814 95.184 22.6011 95.2381 23.1223 95.3058C24.1985 95.448 25.7621 95.6714 27.6913 95.9556C31.5428 96.5242 36.8564 97.3771 42.7048 98.4737C48.5463 99.5635 53.8126 100.674 57.6167 101.499C58.5644 101.709 59.4308 101.885 60.1754 102.109C60.9199 102.332 61.5427 102.603 62.0097 102.887C62.4835 103.171 62.7949 103.462 62.9912 103.679C63.0928 103.781 63.1537 103.875 63.2011 103.929C63.2417 103.99 63.262 104.024 63.262 104.024Z" fill="#434041"/>
<path d="M21.5533 95.1094C21.5668 95.1568 20.8967 95.3125 19.8746 95.7254C19.3669 95.9285 18.778 96.2196 18.1485 96.5783C17.5258 96.9506 16.8624 97.3973 16.2194 97.9321C15.5831 98.4736 15.028 99.049 14.5542 99.5972C14.0939 100.152 13.7081 100.687 13.417 101.154C12.8349 102.088 12.5641 102.718 12.5235 102.697C12.51 102.691 12.5641 102.528 12.6792 102.237C12.7875 101.946 12.9906 101.54 13.2613 101.053C13.5321 100.565 13.9112 100.017 14.3714 99.4416C14.8453 98.873 15.4071 98.2841 16.0569 97.729C16.7135 97.1807 17.3904 96.734 18.0334 96.3685C18.6832 96.0097 19.2857 95.739 19.8137 95.5494C20.3349 95.3599 20.7748 95.2381 21.0794 95.1771C21.3773 95.1162 21.5465 95.0891 21.5533 95.1094Z" fill="#434041"/>
<path d="M67.6629 103.659C67.6562 103.659 67.6291 103.544 67.5885 103.32C67.5479 103.07 67.4937 102.745 67.426 102.339C67.2906 101.486 67.1079 100.247 66.898 98.7174C66.4784 95.6511 65.9775 91.4138 65.551 86.7161C65.1314 82.0185 64.8674 77.7541 64.732 74.6607C64.6643 73.1174 64.6237 71.8651 64.6034 70.9987C64.5966 70.5858 64.5898 70.2541 64.5898 70.0037C64.5898 69.7735 64.5898 69.6584 64.6034 69.6584C64.6102 69.6584 64.6237 69.7803 64.644 70.0037C64.6575 70.2541 64.6846 70.5858 64.7049 70.9987C64.7591 71.8922 64.8268 73.1309 64.9148 74.6539C65.0975 77.7405 65.3818 81.9982 65.8083 86.6958C66.2347 91.3935 66.7085 95.6308 67.0808 98.6971C67.2636 100.207 67.4193 101.445 67.5276 102.332C67.5749 102.738 67.6156 103.07 67.6426 103.32C67.6629 103.537 67.6765 103.659 67.6629 103.659Z" fill="#434041"/>
<path d="M79.5008 98.3385C79.4872 98.352 79.3857 98.2302 79.2165 98.0136C79.0405 97.7969 78.8171 97.4585 78.5599 97.0321C78.0454 96.1792 77.4633 94.9066 77.1113 93.4175C76.7661 91.9283 76.7187 90.5271 76.8 89.5321C76.8406 89.0312 76.8947 88.6318 76.9556 88.3611C77.0098 88.0903 77.0504 87.9414 77.0707 87.9414C77.1181 87.9482 77.0166 88.5574 76.9827 89.5389C76.9489 90.5204 77.0233 91.8877 77.3618 93.3565C77.707 94.8186 78.2485 96.0777 78.7156 96.9441C79.1826 97.8105 79.5414 98.3114 79.5008 98.3385Z" fill="#434041"/>
<path d="M21.3018 76.7318C21.3018 76.7385 21.2409 76.7521 21.119 76.7724C20.9972 76.7859 20.8145 76.8198 20.5843 76.8265C20.1173 76.8536 19.4268 76.8265 18.601 76.6708C17.7752 76.5219 16.814 76.2106 15.7851 75.7909C14.763 75.3644 13.6732 74.8229 12.5361 74.2543C11.3989 73.6925 10.2888 73.2119 9.24637 72.8735C8.20395 72.5418 7.22923 72.3523 6.40342 72.3184C4.73827 72.2372 3.76354 72.684 3.75 72.6163C3.75 72.6095 3.80415 72.5824 3.91922 72.535C4.03429 72.4944 4.20352 72.4132 4.43366 72.3658C4.88718 72.2304 5.56407 72.1221 6.41019 72.1357C7.2563 72.1492 8.25134 72.3252 9.31406 72.6433C10.3768 72.9682 11.5004 73.4488 12.6511 74.0174C13.7951 74.586 14.8713 75.1343 15.8799 75.5675C16.8885 76.0007 17.8294 76.3189 18.6349 76.4881C20.2526 76.8468 21.3018 76.6708 21.3018 76.7318Z" fill="#ED1164"/>
<path d="M27.4147 75.527C27.4283 75.5947 26.1219 75.879 24.5041 76.1565C22.8863 76.4341 21.5596 76.5965 21.5528 76.5288C21.5393 76.4611 22.8457 76.1768 24.4635 75.8993C26.0812 75.6218 27.4012 75.4593 27.4147 75.527Z" fill="#ED1164"/>
<path d="M21.0782 86.1476C21.085 86.1611 20.8277 86.2762 20.3607 86.459C19.8936 86.6417 19.2032 86.8854 18.3503 87.163C16.6378 87.718 14.228 88.3746 11.5137 88.8552C10.1599 89.0921 8.86029 89.2681 7.66896 89.3832C6.4844 89.5118 5.40137 89.5659 4.49433 89.4712C3.5873 89.3832 2.87656 89.1259 2.42982 88.8823C2.20644 88.7604 2.04399 88.6521 1.94245 88.5641C1.84092 88.4829 1.78677 88.4355 1.79354 88.4287C1.80707 88.4084 2.03045 88.5844 2.4772 88.7943C2.92395 89.0041 3.62115 89.2275 4.50787 89.2884C5.3946 89.3628 6.46409 89.2884 7.64189 89.1462C8.81968 89.0176 10.1125 88.8349 11.4663 88.598C14.1671 88.1241 16.5701 87.5014 18.2894 86.987C19.149 86.7297 19.8462 86.5131 20.3201 86.3575C20.8074 86.2085 21.0714 86.1273 21.0782 86.1476Z" fill="#ED1164"/>
<path d="M27.2718 88.7467C27.2718 88.8212 26.0669 88.8956 24.5777 88.9227C23.0886 88.9498 21.8837 88.9092 21.877 88.8415C21.877 88.7738 23.0818 88.6925 24.571 88.6655C26.0669 88.6384 27.2718 88.679 27.2718 88.7467Z" fill="#ED1164"/>
<path d="M1.82195 111.28C1.81518 111.28 1.82872 111.186 1.8761 111.016C1.93025 110.82 1.99794 110.577 2.0724 110.272C2.11978 110.109 2.16716 109.927 2.22132 109.737C2.28224 109.541 2.37023 109.338 2.45146 109.114C2.62745 108.674 2.7899 108.153 3.06066 107.625C3.18927 107.355 3.32465 107.07 3.46679 106.779C3.60894 106.488 3.79171 106.197 3.96093 105.892C4.29261 105.27 4.73259 104.66 5.17934 104.004C6.12022 102.731 7.2777 101.425 8.64502 100.213C10.0326 99.022 11.4947 98.0608 12.8824 97.3027C13.5931 96.9507 14.2565 96.5987 14.9198 96.3618C15.2447 96.2332 15.5561 96.091 15.8675 95.9895C16.1788 95.8947 16.4767 95.8 16.761 95.7052C17.3228 95.5089 17.8643 95.4141 18.3246 95.3058C18.5547 95.2584 18.7713 95.2043 18.9676 95.1637C19.1639 95.1366 19.3467 95.1095 19.5159 95.0892C19.8205 95.0486 20.0777 95.0215 20.2808 94.9945C20.4568 94.9742 20.5448 94.9674 20.5515 94.9809C20.5515 94.9877 20.4636 95.0148 20.2876 95.0486C20.0845 95.0892 19.8408 95.1298 19.5362 95.1908C19.367 95.2178 19.191 95.2517 18.9947 95.2855C18.7984 95.3261 18.5886 95.3871 18.3584 95.4412C17.9049 95.5631 17.3769 95.6646 16.8219 95.8744C16.5376 95.9692 16.2465 96.064 15.9419 96.1723C15.6373 96.2738 15.3327 96.4227 15.0078 96.5513C14.358 96.8018 13.7014 97.1537 13.0042 97.5057C11.6369 98.2638 10.1951 99.225 8.82778 100.403C7.474 101.601 6.32328 102.887 5.3824 104.139C4.93565 104.782 4.49567 105.385 4.15722 105.994C3.98123 106.299 3.79847 106.576 3.64956 106.867C3.50741 107.158 3.36526 107.436 3.23665 107.7C2.95236 108.221 2.77636 108.729 2.5936 109.162C2.50561 109.378 2.41761 109.581 2.34992 109.771C2.289 109.961 2.23485 110.137 2.1807 110.299C2.07916 110.59 2.00471 110.834 1.93702 111.023C1.86933 111.199 1.83548 111.28 1.82195 111.28Z" fill="#ED1164"/>
<path d="M26.6296 96.0911C26.6838 96.1317 25.5466 96.8289 24.599 98.6429C24.1251 99.5364 23.719 100.687 23.4618 102C23.1978 103.314 23.0963 104.796 22.9947 106.346C22.8932 107.903 22.7781 109.392 22.4871 110.725C22.2028 112.059 21.756 113.216 21.2483 114.11C20.7339 115.003 20.1721 115.64 19.7389 116.019C19.5223 116.208 19.3463 116.344 19.2177 116.425C19.0958 116.513 19.0281 116.554 19.0214 116.547C18.9672 116.506 20.1179 115.822 21.0859 114.022C21.5665 113.135 21.9862 111.991 22.2502 110.678C22.5209 109.365 22.6292 107.883 22.7307 106.332C22.8323 104.776 22.9406 103.286 23.2249 101.953C23.5024 100.619 23.9356 99.4552 24.4365 98.5549C24.9374 97.6547 25.4925 97.0116 25.9189 96.6258C26.1355 96.4363 26.3047 96.2941 26.4333 96.2061C26.5552 96.1249 26.6229 96.0843 26.6296 96.0911Z" fill="#ED1164"/>
<path d="M35.0696 116.858C34.9952 116.858 35.0832 112.594 35.2524 107.341C35.4216 102.088 35.6247 97.8306 35.6924 97.8306C35.7601 97.8306 35.6788 102.095 35.5096 107.348C35.3404 112.6 35.1373 116.858 35.0696 116.858Z" fill="#ED1164"/>
<path d="M48.4931 116.127C48.4728 116.134 48.3984 115.91 48.2765 115.511C48.2088 115.308 48.1412 115.064 48.0735 114.766C48.0058 114.475 47.9178 114.144 47.8636 113.771C47.7215 113.027 47.6335 112.133 47.5996 111.131C47.5861 110.13 47.6403 109.026 47.8095 107.889C47.9922 106.745 48.2698 105.683 48.5811 104.728C48.9128 103.78 49.2716 102.955 49.6235 102.285C49.786 101.946 49.9688 101.655 50.1177 101.398C50.2666 101.134 50.4087 100.924 50.5306 100.748C50.7743 100.403 50.9096 100.213 50.9232 100.227C50.9638 100.254 50.4358 101.019 49.7792 102.366C49.4476 103.036 49.1159 103.862 48.7977 104.803C48.4999 105.743 48.2292 106.799 48.0532 107.923C47.8839 109.053 47.823 110.136 47.8298 111.125C47.8501 112.113 47.9178 113 48.0329 113.738C48.263 115.22 48.5405 116.113 48.4931 116.127Z" fill="#ED1164"/>
<path d="M25.6943 61.4612C25.674 61.5019 24.9091 61.1566 23.6298 60.7437C22.3505 60.3308 20.5364 59.8841 18.4854 59.7013C16.4345 59.5253 14.573 59.6404 13.2395 59.8299C11.906 60.0127 11.0938 60.2158 11.0802 60.1751C11.0735 60.1548 11.2765 60.0939 11.6421 59.9924C12.0076 59.8841 12.5423 59.769 13.2124 59.6539C14.5527 59.4238 16.4345 59.2681 18.5125 59.4509C20.5838 59.6336 22.4182 60.1142 23.6907 60.5813C24.327 60.8114 24.8347 61.0213 25.1799 61.1905C25.5183 61.3462 25.7011 61.4477 25.6943 61.4612Z" fill="#ED1164"/>
<path d="M64.7648 82.2554C64.7648 82.2892 64.0609 82.2689 62.9305 82.2283C61.8 82.1877 60.2364 82.1268 58.5103 82.0794C56.7843 82.0388 55.2207 82.0185 54.0902 82.0049C52.9598 81.9914 52.2559 81.9779 52.2559 81.944C52.2559 81.9237 52.4319 81.9034 52.75 81.8831C53.0681 81.8628 53.5217 81.8425 54.0902 81.8222C55.2207 81.7883 56.791 81.7748 58.5171 81.8222C60.25 81.8628 61.8136 81.9576 62.944 82.0455C63.5058 82.0929 63.9661 82.1335 64.2775 82.1742C64.5956 82.208 64.7648 82.2418 64.7648 82.2554Z" fill="#ED1164"/>
<path d="M74.5324 80.4074C74.5459 80.448 73.9097 80.6646 72.9485 81.1384C71.9873 81.6122 70.708 82.3839 69.4828 83.4737C68.2644 84.5635 67.3438 85.748 66.7684 86.6483C66.1863 87.5486 65.902 88.1578 65.8614 88.1375C65.8479 88.1307 65.902 87.975 66.0239 87.6907C66.1389 87.4132 66.342 87.0206 66.6128 86.5468C67.161 85.6059 68.0681 84.3875 69.3136 83.2774C70.559 82.1673 71.879 81.4092 72.874 80.9692C73.3681 80.7526 73.781 80.5969 74.0789 80.5157C74.3632 80.4344 74.5256 80.3938 74.5324 80.4074Z" fill="#ED1164"/>
<path d="M69.7132 64.5546C69.7132 64.6155 68.7047 64.3989 67.202 64.9066C66.4506 65.1435 65.5977 65.5496 64.6636 66.037C63.7295 66.5108 62.7006 67.0726 61.5296 67.4449C59.1876 68.2098 56.8997 68.1489 55.3293 67.8511C54.5441 67.7022 53.9213 67.5059 53.5017 67.3569C53.082 67.1945 52.8586 67.093 52.8654 67.0794C52.8789 67.032 53.7927 67.4246 55.3563 67.6751C56.9064 67.9255 59.1469 67.9526 61.4416 67.208C62.5856 66.8425 63.6077 66.301 64.5485 65.8339C65.4894 65.3601 66.3626 64.9675 67.1343 64.7441C67.9059 64.514 68.5625 64.4531 69.016 64.4734C69.2394 64.4734 69.4154 64.5072 69.5305 64.5208C69.6591 64.5275 69.72 64.5411 69.7132 64.5546Z" fill="#ED1164"/>
<path d="M67.25 97.7019C67.2568 97.7154 67.0537 97.8102 66.6746 97.9727C66.4851 98.0539 66.255 98.1486 65.9774 98.2366C65.6999 98.3246 65.3885 98.4465 65.0365 98.5345C64.3326 98.7375 63.4797 98.9203 62.5185 99.0557C61.5573 99.1775 60.4878 99.252 59.371 99.2249C58.2541 99.1843 57.1914 99.0489 56.237 98.8729C55.2893 98.6766 54.4432 98.4465 53.7528 98.196C53.4008 98.0877 53.1029 97.9523 52.8322 97.844C52.5614 97.7357 52.3381 97.6342 52.1553 97.5394C51.7898 97.3567 51.5867 97.2552 51.6002 97.2348C51.6206 97.1875 52.4328 97.5801 53.8205 98.02C54.5109 98.2434 55.3502 98.4533 56.2911 98.636C57.232 98.7985 58.2812 98.9271 59.3845 98.9677C60.4878 98.9948 61.5438 98.9339 62.4914 98.8255C63.4391 98.7037 64.292 98.5413 64.9959 98.3585C66.3971 97.9997 67.2297 97.6545 67.25 97.7019Z" fill="#ED1164"/>
<path d="M78.614 112.336C78.6072 112.343 78.5395 112.289 78.4244 112.181C78.3094 112.066 78.1198 111.917 77.9168 111.68C77.4903 111.233 76.9217 110.536 76.3532 109.581C75.1957 107.693 74.2142 104.687 74.1465 101.296C74.0856 97.905 74.7489 94.8928 75.2701 92.7538C75.5341 91.6843 75.7778 90.8247 75.947 90.2358C76.0282 89.965 76.0959 89.7417 76.1569 89.5589C76.2042 89.4032 76.2381 89.322 76.2448 89.3288C76.2516 89.3288 76.2381 89.4168 76.2042 89.5724C76.1636 89.762 76.1095 89.9853 76.0418 90.2629C75.8929 90.8991 75.6898 91.7588 75.4461 92.8012C74.9723 94.9402 74.3428 97.9388 74.4037 101.289C74.4646 104.64 75.4055 107.598 76.5088 109.487C77.0503 110.434 77.5851 111.152 77.9912 111.612C78.3838 112.079 78.6275 112.323 78.614 112.336Z" fill="#ED1164"/>
<path d="M96.6132 95.5426C96.5726 95.6035 95.7604 94.71 94.0004 94.0738C93.1272 93.7556 92.051 93.4849 90.8326 93.248C89.6209 93.0043 88.2672 92.7809 86.8931 92.3409C84.1314 91.461 81.9653 89.8838 80.625 88.5706C79.9482 87.914 79.4608 87.3252 79.1427 86.9055C78.9802 86.6956 78.8719 86.5264 78.7907 86.4113C78.7162 86.2963 78.6756 86.2354 78.6824 86.2286C78.6959 86.2151 78.8787 86.4452 79.2171 86.8446C79.5556 87.2439 80.0632 87.8057 80.7469 88.442C82.1007 89.7078 84.2532 91.2308 86.9675 92.0972C88.3213 92.5305 89.6616 92.7606 90.8732 93.0178C92.0916 93.2683 93.1814 93.5526 94.0546 93.9045C94.9346 94.2498 95.5911 94.6627 96.004 94.9876C96.2207 95.1365 96.356 95.2922 96.4643 95.3869C96.5659 95.4885 96.62 95.5426 96.6132 95.5426Z" fill="#ED1164"/>
<path d="M102.265 79.0401C102.252 79.0537 102.062 78.8844 101.737 78.5798C101.575 78.4242 101.372 78.2346 101.128 78.0316C100.884 77.8285 100.62 77.578 100.295 77.3344C99.6727 76.8267 98.8942 76.2716 98.0007 75.7098C97.0937 75.1615 96.0716 74.6065 94.9479 74.1191C93.8243 73.6453 92.7142 73.2798 91.6921 73.009C90.6632 72.7518 89.7291 72.569 88.9304 72.4675C88.531 72.3998 88.1723 72.3795 87.8541 72.3457C87.536 72.3118 87.2652 72.2915 87.0351 72.2847C86.5883 72.2577 86.3379 72.2374 86.3379 72.217C86.3379 72.1967 86.5883 72.19 87.0419 72.1832C87.2652 72.1764 87.5428 72.1764 87.8677 72.2035C88.1858 72.2238 88.5513 72.2306 88.9575 72.2847C89.763 72.3592 90.7174 72.5284 91.753 72.7721C92.7887 73.0361 93.9123 73.3948 95.0563 73.8754C96.1934 74.3696 97.2291 74.9314 98.1361 75.5C99.0364 76.0821 99.8081 76.6575 100.424 77.1854C100.742 77.4359 100.999 77.6999 101.236 77.9165C101.473 78.1331 101.663 78.3294 101.818 78.4986C102.116 78.8371 102.279 79.0266 102.265 79.0401Z" fill="#ED1164"/>
<path d="M58.9916 56.3371C59.0051 56.3709 58.6531 56.5537 58.0507 56.7906C57.455 57.0275 56.6089 57.3118 55.6477 57.5351C54.6933 57.7585 53.8066 57.8804 53.1635 57.9345C52.5205 57.9887 52.1211 57.9751 52.1211 57.9413C52.1143 57.8601 53.6915 57.7315 55.5868 57.2847C57.4889 56.8447 58.9645 56.2626 58.9916 56.3371Z" fill="#ED1164"/>
<path d="M60.5 117.5L61.5 107L69 109.471C73.5 111.471 77 113 77 117L60.5 117.5Z" fill="#FFBE9D"/>
</svg>
