<svg width="58" height="53" viewBox="0 0 58 53" fill="none" xmlns="http://www.w3.org/2000/svg">
<path d="M52.9709 13.7578H49.2937C48.7871 13.7578 48.3751 14.1699 48.3751 14.6764C48.3751 15.1829 48.7871 15.595 49.2937 15.595H52.9709C54.4933 15.595 55.7295 16.8312 55.7295 18.3536V43.1814H2.39669V18.3536C2.39669 16.8312 3.63293 15.595 5.15534 15.595H8.83258C9.33909 15.595 9.75117 15.1829 9.75117 14.6764C9.75117 14.1699 9.33909 13.7578 8.83258 13.7578H5.15534C2.61704 13.7578 0.556641 15.8153 0.556641 18.3565V47.7801C0.556641 50.3184 2.61418 52.3788 5.15534 52.3788H17.1085H41.0149H52.968C55.5063 52.3788 57.5667 50.3213 57.5667 47.7801V18.3565C57.5667 15.8182 55.5092 13.7578 52.9709 13.7578ZM52.9709 50.5388H5.15534C3.63293 50.5388 2.39669 49.3026 2.39669 47.7801V45.0215H55.7295V47.7801C55.7295 49.3026 54.4933 50.5388 52.9709 50.5388Z" fill="white"/>
<path d="M41.9362 39.5042H52.9708C53.4773 39.5042 53.8893 39.9163 53.8893 40.4228C53.8893 40.9293 53.4773 41.3414 52.9708 41.3414H41.9362C41.4297 41.3414 41.0176 40.9293 41.0176 40.4228C41.0176 39.9163 41.4268 39.5042 41.9362 39.5042Z" fill="white"/>
<path d="M43.7741 32.1497H52.9686C53.4751 32.1497 53.8872 32.5618 53.8872 33.0683C53.8872 33.5748 53.4751 33.9869 52.9686 33.9869H43.7741C43.2676 33.9869 42.8555 33.5748 42.8555 33.0683C42.8555 32.5589 43.2676 32.1497 43.7741 32.1497Z" fill="white"/>
<path d="M11.5908 14.8853V17.4379H4.23633V41.3443H22.6254V31.5602C23.2979 31.8865 23.9904 32.1755 24.7115 32.3987L25.5901 35.827H32.5353L33.4139 32.3987C34.2838 32.1297 35.1223 31.7834 35.9207 31.3656L38.9626 33.1685L43.8733 28.2579L42.0704 25.2131C42.4911 24.4175 42.8373 23.5762 43.1063 22.7091L46.5346 21.8306V14.8825L43.1063 14.0039C42.8373 13.134 42.4911 12.2955 42.0704 11.5L43.8733 8.45515L38.9626 3.54453L35.9207 5.34738C35.1251 4.92672 34.2838 4.58046 33.4139 4.31432L32.5353 0.886047H25.5901L24.7115 4.31432C23.8416 4.58332 23.0031 4.92958 22.2047 5.34738L19.1628 3.54453L14.2522 8.45515L16.055 11.5C15.6343 12.2955 15.2881 13.1368 15.0191 14.0039L11.5908 14.8853ZM6.07352 39.5042V19.2751H11.5908V21.8277L15.0191 22.7062C15.2881 23.5762 15.6343 24.4147 16.055 25.2102L14.2522 28.255L19.1628 33.1656L20.7853 32.2041V39.5042H6.07352ZM16.5071 15.5235L16.6474 15.0055C16.9393 13.9267 17.3628 12.8965 17.9122 11.9435L18.1812 11.4771L16.5644 8.74704L19.4575 5.8539L22.1876 7.47074L22.654 7.20174C23.6069 6.6523 24.6371 6.22591 25.716 5.93689L26.2339 5.79666L27.0209 2.72037H31.1102L31.8972 5.79666L32.4151 5.93689C33.494 6.22878 34.5242 6.6523 35.4771 7.20174L35.9436 7.47074L38.6736 5.8539L41.5667 8.74418L39.9499 11.4742L40.2189 11.9407C40.7683 12.8936 41.1947 13.9238 41.4838 15.0026L41.624 15.5206L44.7003 16.3076V20.3969L41.624 21.1838L41.4838 21.7018C41.1919 22.7806 40.7683 23.8108 40.2189 24.7638L39.9499 25.2302L41.5667 27.9603L38.6736 30.8505L35.9436 29.2337L35.4771 29.5027C34.5242 30.0521 33.494 30.4785 32.4151 30.7676L31.8972 30.9078L31.1102 33.9841H27.0209L26.2339 30.9078L25.716 30.7676C24.6371 30.4757 23.6069 30.0521 22.654 29.5027L22.1876 29.2337L19.4575 30.8505L16.5644 27.9603L18.1812 25.2302L17.9122 24.7638C17.3628 23.8108 16.9364 22.7806 16.6474 21.7018L16.5071 21.1838L13.4309 20.3969V16.3104L16.5071 15.5235Z" fill="white"/>
<path d="M29.0619 29.3911C35.1458 29.3911 40.0965 24.4404 40.0965 18.3565C40.0965 12.2726 35.1458 7.3219 29.0619 7.3219C22.978 7.3219 18.0273 12.2726 18.0273 18.3565C18.0273 24.4404 22.978 29.3911 29.0619 29.3911ZM29.0619 9.16195C34.1328 9.16195 38.2565 13.2856 38.2565 18.3565C38.2565 23.4274 34.1328 27.551 29.0619 27.551C23.9911 27.551 19.8674 23.4274 19.8674 18.3565C19.8674 13.2856 23.9939 9.16195 29.0619 9.16195Z" fill="white"/>
<path d="M29.0624 25.711C33.1174 25.711 36.4198 22.4115 36.4198 18.3537C36.4198 14.2958 33.1203 10.9963 29.0624 10.9963C25.0046 10.9963 21.7051 14.2958 21.7051 18.3537C21.7051 22.4115 25.0074 25.711 29.0624 25.711ZM29.0624 12.8393C32.1044 12.8393 34.5797 15.3146 34.5797 18.3565C34.5797 21.3985 32.1044 23.8738 29.0624 23.8738C26.0205 23.8738 23.5451 21.3985 23.5451 18.3565C23.5451 15.3146 26.0205 12.8393 29.0624 12.8393Z" fill="white"/>
<path d="M27.2252 17.4351C27.7318 17.4351 28.1438 17.8471 28.1438 18.3537C28.1438 18.8602 27.7318 19.2722 27.2252 19.2722C26.7187 19.2722 26.3067 18.8602 26.3067 18.3537C26.3038 17.8471 26.7159 17.4351 27.2252 17.4351Z" fill="white"/>
<path d="M30.901 17.4351C31.4075 17.4351 31.8196 17.8471 31.8196 18.3537C31.8196 18.8602 31.4075 19.2722 30.901 19.2722C30.3945 19.2722 29.9824 18.8602 29.9824 18.3537C29.9824 17.8471 30.3945 17.4351 30.901 17.4351Z" fill="white"/>
<path d="M29.2113 48.7903C29.7692 48.7903 30.2215 48.338 30.2215 47.7801C30.2215 47.2222 29.7692 46.77 29.2113 46.77C28.6534 46.77 28.2012 47.2222 28.2012 47.7801C28.2012 48.338 28.6534 48.7903 29.2113 48.7903Z" fill="white"/>
</svg>
