<svg width="393" height="245" viewBox="0 0 393 245" fill="none" xmlns="http://www.w3.org/2000/svg">
<path d="M172.937 13.1641H392.617V178.235H172.937V13.1641Z" fill="white"/>
<path d="M172.938 178.228C172.938 178.228 172.952 177.963 172.952 177.455C172.96 176.948 172.96 176.19 172.967 175.197C172.974 173.212 172.989 170.27 173.004 166.423C173.026 158.745 173.048 147.463 173.085 133.062C173.121 104.305 173.18 63.0738 173.246 13.1569L172.93 13.4731C234.946 13.4952 310.788 13.5172 392.588 13.5393H392.603L392.22 13.1569C392.235 72.5026 392.25 128.708 392.257 178.228L392.603 177.882C327.542 177.955 272.668 178.014 234.048 178.051C214.713 178.088 199.444 178.125 189.015 178.147C183.793 178.161 179.777 178.176 177.064 178.191C175.71 178.198 174.681 178.206 173.982 178.213C173.636 178.22 173.371 178.22 173.195 178.22C173.033 178.228 172.938 178.228 172.938 178.228C172.938 178.228 173.018 178.235 173.188 178.235C173.364 178.235 173.614 178.242 173.953 178.242C174.637 178.25 175.659 178.257 176.997 178.264C179.697 178.272 183.683 178.286 188.875 178.308C199.29 178.331 214.529 178.36 233.835 178.404C272.507 178.448 327.469 178.507 392.618 178.573H392.963V178.228C392.978 128.708 392.985 72.51 393 13.1569V12.7744H392.618H392.603C310.803 12.7965 234.96 12.8259 172.945 12.8406H172.629V13.1569C172.695 63.1547 172.754 104.452 172.79 133.26C172.827 147.632 172.849 158.884 172.871 166.548C172.886 170.365 172.901 173.293 172.908 175.264C172.915 176.242 172.923 176.985 172.923 177.485C172.93 177.985 172.938 178.228 172.938 178.228Z" fill="#E0E0E0"/>
<path d="M174.041 33.3767C174.041 33.3914 174.232 33.4061 174.593 33.4134C174.975 33.4208 175.512 33.4355 176.225 33.4502C177.667 33.4649 179.778 33.487 182.492 33.5164C187.934 33.5605 195.804 33.5826 205.534 33.5826C224.988 33.5826 251.869 33.4355 281.546 33.1928C311.237 32.9574 338.104 32.7368 357.572 32.5823C367.295 32.5088 375.158 32.4426 380.607 32.3985C383.321 32.3617 385.425 32.3396 386.874 32.3176C387.58 32.3029 388.124 32.2881 388.499 32.2808C388.867 32.2661 389.051 32.2514 389.051 32.244C389.051 32.2367 388.86 32.2146 388.499 32.2072C388.124 32.1999 387.58 32.1852 386.874 32.1705C385.432 32.1558 383.321 32.1337 380.607 32.1043C375.165 32.0601 367.295 32.0381 357.565 32.0381C338.112 32.0381 311.23 32.1852 281.539 32.4279C251.862 32.6632 224.988 32.8839 205.527 33.0383C195.804 33.1119 187.942 33.1781 182.484 33.2222C179.77 33.259 177.667 33.281 176.218 33.3031C175.512 33.3178 174.968 33.3325 174.585 33.3399C174.225 33.3546 174.041 33.3619 174.041 33.3767Z" fill="#E0E0E0"/>
<path d="M378.269 21.5488C378.269 22.9757 379.424 24.1377 380.858 24.1377C382.285 24.1377 383.447 22.983 383.447 21.5488C383.447 20.1147 382.293 18.96 380.858 18.96C379.424 18.96 378.269 20.1147 378.269 21.5488Z" fill="#E0E0E0"/>
<path d="M367.92 21.5488C367.92 22.9757 369.075 24.1377 370.509 24.1377C371.936 24.1377 373.098 22.983 373.098 21.5488C373.098 20.1147 371.943 18.96 370.509 18.96C369.075 18.96 367.92 20.1147 367.92 21.5488Z" fill="#E0E0E0"/>
<path d="M360.161 24.1377C358.731 24.1377 357.572 22.9786 357.572 21.5488C357.572 20.119 358.731 18.96 360.161 18.96C361.591 18.96 362.75 20.119 362.75 21.5488C362.75 22.9786 361.591 24.1377 360.161 24.1377Z" fill="#E0E0E0"/>
<path d="M309.184 129.201H354.328V162.996H309.184V129.201Z" fill="#FAFAFA"/>
<path d="M259.604 129.201H304.748V162.996H259.604V129.201Z" fill="#FAFAFA"/>
<path d="M201.827 129.201H246.971V162.996H201.827V129.201Z" fill="#FAFAFA"/>
<path d="M218.912 110.636H346.643C354.983 110.636 361.742 103.877 361.742 95.5369C361.742 87.1965 354.983 80.4375 346.643 80.4375H218.92C210.579 80.4375 203.82 87.1965 203.82 95.5369C203.813 103.87 210.572 110.636 218.912 110.636Z" fill="white"/>
<path d="M218.912 110.637C218.912 110.637 218.603 110.608 218.008 110.571C217.706 110.549 217.338 110.542 216.905 110.461C216.471 110.38 215.956 110.343 215.397 110.174C215.117 110.101 214.816 110.02 214.5 109.939C214.191 109.836 213.874 109.711 213.536 109.586C213.367 109.52 213.198 109.461 213.021 109.394C212.852 109.314 212.683 109.225 212.506 109.144C212.161 108.968 211.778 108.813 211.425 108.578C209.954 107.732 208.388 106.489 207.049 104.739C206.718 104.298 206.372 103.849 206.093 103.334C205.769 102.849 205.512 102.312 205.255 101.753C204.975 101.209 204.813 100.598 204.578 100.002C204.497 99.6935 204.416 99.3773 204.335 99.061L204.21 98.5829L204.137 98.0902C204.085 97.7592 204.034 97.4209 203.982 97.0826C203.967 96.7442 203.945 96.3986 203.931 96.0455L203.909 95.516L203.938 94.9864C203.96 94.6334 203.967 94.273 204.004 93.9127C204.173 92.4711 204.556 91.0002 205.166 89.5586C206.417 86.705 208.704 84.0352 211.83 82.3436C213.389 81.5051 215.154 80.9388 217.008 80.7035C218.861 80.4902 220.81 80.6005 222.781 80.5784C254.487 80.5931 298.27 80.6152 346.628 80.6373C348.121 80.6667 349.607 80.8726 351.026 81.2992C352.438 81.7552 353.777 82.4024 355.013 83.2188C356.226 84.0572 357.307 85.0722 358.241 86.1975C359.168 87.3375 359.889 88.6172 360.455 89.9558C361.014 91.3017 361.316 92.7285 361.485 94.1627C361.603 95.6043 361.529 97.0458 361.272 98.4579C360.963 99.8553 360.521 101.223 359.852 102.474C359.168 103.717 358.366 104.893 357.374 105.901C355.417 107.924 352.909 109.38 350.217 110.027C349.555 110.233 348.864 110.277 348.187 110.395C347.496 110.424 346.819 110.49 346.128 110.476C344.745 110.476 343.363 110.476 341.995 110.476C336.508 110.476 331.139 110.483 325.902 110.483C304.949 110.498 286.076 110.512 270.227 110.527C254.384 110.557 241.558 110.571 232.688 110.586C228.26 110.601 224.826 110.615 222.479 110.623C221.317 110.63 220.427 110.637 219.824 110.645C219.221 110.623 218.912 110.637 218.912 110.637C218.912 110.637 219.221 110.652 219.817 110.659C220.42 110.667 221.31 110.667 222.472 110.682C224.811 110.689 228.253 110.704 232.681 110.718C241.55 110.733 254.37 110.755 270.219 110.777C286.069 110.792 304.941 110.799 325.895 110.821C331.132 110.821 336.501 110.829 341.987 110.829C343.355 110.829 344.738 110.829 346.121 110.829C346.812 110.843 347.518 110.777 348.224 110.748C348.916 110.623 349.629 110.579 350.306 110.373C353.064 109.718 355.63 108.218 357.638 106.151C358.653 105.121 359.477 103.915 360.176 102.643C360.86 101.356 361.316 99.9509 361.632 98.5241C361.897 97.0826 361.978 95.5969 361.853 94.1259C361.683 92.655 361.375 91.1914 360.801 89.816C360.22 88.448 359.484 87.1315 358.536 85.9621C357.579 84.8074 356.469 83.7704 355.226 82.9099C353.961 82.0715 352.586 81.4095 351.137 80.9462C349.673 80.5122 348.158 80.299 346.621 80.2695C298.263 80.2916 254.48 80.3137 222.774 80.3284C220.795 80.3578 218.861 80.2548 216.963 80.4681C215.081 80.7108 213.286 81.2845 211.705 82.145C208.535 83.8734 206.218 86.5873 204.96 89.4924C204.343 90.956 203.96 92.4491 203.791 93.9127C203.754 94.2804 203.747 94.6408 203.725 95.0012L203.695 95.5381L203.717 96.0676C203.739 96.4206 203.754 96.7737 203.776 97.1193C203.828 97.465 203.879 97.8033 203.931 98.1343L204.012 98.6344L204.137 99.1198C204.218 99.4434 204.306 99.7597 204.387 100.069C204.629 100.672 204.791 101.289 205.078 101.834C205.343 102.393 205.608 102.937 205.931 103.43C206.218 103.945 206.564 104.401 206.902 104.842C208.27 106.607 209.851 107.85 211.344 108.688C211.705 108.924 212.087 109.078 212.44 109.255C212.617 109.343 212.793 109.424 212.962 109.505C213.139 109.571 213.315 109.637 213.485 109.696C213.823 109.814 214.146 109.939 214.455 110.042C214.772 110.123 215.073 110.196 215.36 110.27C215.919 110.439 216.441 110.468 216.875 110.542C217.309 110.623 217.684 110.623 217.986 110.637C218.611 110.63 218.912 110.637 218.912 110.637Z" fill="#CBCBCD"/>
<path d="M219.957 99.4603C217.332 96.8352 217.332 92.5789 219.957 89.9537C222.582 87.3285 226.838 87.3285 229.463 89.9537C232.089 92.5789 232.089 96.8352 229.463 99.4603C226.838 102.086 222.582 102.086 219.957 99.4603Z" fill="white"/>
<path d="M339.828 101.794C335.923 101.794 332.738 98.617 332.738 94.7043C332.738 90.7989 335.916 87.6143 339.828 87.6143C343.734 87.6143 346.918 90.7915 346.918 94.7043C346.911 98.6097 343.734 101.794 339.828 101.794ZM339.828 88.3497C336.327 88.3497 333.474 91.196 333.474 94.7043C333.474 98.2051 336.32 101.059 339.828 101.059C343.329 101.059 346.183 98.2125 346.183 94.7043C346.175 91.2034 343.329 88.3497 339.828 88.3497Z" fill="#CBCBCD"/>
<path d="M345.447 98.3556L345.055 98.9775L350.745 102.57L351.138 101.949L345.447 98.3556Z" fill="#CBCBCD"/>
<path opacity="0.3" d="M319.897 65.641C321.192 66.1338 322.64 65.4866 323.141 64.1921L330.937 43.8194C331.334 42.7824 330.76 41.5982 329.65 41.1717L327.737 40.4362C326.958 40.1346 326.406 39.4359 326.333 38.649L326.244 37.6561C326.171 36.8691 325.627 36.1704 324.84 35.8689L315.742 32.39C315.036 32.1179 314.241 32.2209 313.66 32.6548L312.94 33.1917C312.358 33.6256 311.572 33.7213 310.858 33.4565L299.267 29.0215C298.156 28.595 296.943 29.0951 296.546 30.1321L288.566 50.9682C288.073 52.2627 288.72 53.7115 290.015 54.2117L319.897 65.641Z" fill="black"/>
<path d="M312.012 33.8973L319.396 36.7068L320.528 35.7286C321.264 35.0961 322.33 34.9196 323.279 35.2874L330.487 38.0454C331.767 38.5382 332.436 39.9061 331.98 41.1123L331.656 41.9508L323.191 64.074C322.669 65.442 321.065 66.0965 319.602 65.5376L290.322 54.3289C288.866 53.7699 288.109 52.2107 288.631 50.8501L296.633 29.9478C296.993 29.0137 298.038 28.5504 298.964 28.9034L312.012 33.8973Z" fill="#ED1164"/>
<path d="M301.856 39.2679L319.281 45.9385L316.476 53.2673L299.05 46.5967L301.856 39.2679Z" fill="white"/>
<path d="M303.298 43.533C303.261 43.6287 305.908 44.7392 309.218 46.0043C312.528 47.2693 315.234 48.218 315.271 48.1151C315.308 48.0195 312.66 46.9089 309.351 45.6439C306.048 44.3788 303.334 43.4301 303.298 43.533Z" fill="#263238"/>
<path d="M302.7 45.0916C302.663 45.1873 305.311 46.2978 308.62 47.5629C311.93 48.8279 314.637 49.7766 314.673 49.6737C314.71 49.5781 312.063 48.4675 308.753 47.2025C305.443 45.9374 302.737 44.996 302.7 45.0916Z" fill="#263238"/>
<path d="M93.683 67.4527L70.2586 74.7765C68.639 75.2826 66.9182 74.3835 66.412 72.764L56.2777 40.3425C55.7716 38.7229 56.6707 37.0021 58.2903 36.496L73.1464 31.8516L88.3538 40.1103L95.7015 63.6121C96.2017 65.2257 95.3026 66.9465 93.683 67.4527Z" fill="#EBEBEB"/>
<path d="M93.5107 67.5064L70.3602 74.7469C68.687 75.2709 66.9067 74.3361 66.3827 72.6629L63.6973 64.0767L92.9808 54.9189L95.6424 63.4337C96.1783 65.1485 95.2256 66.9706 93.5107 67.5064Z" fill="#E0E0E0"/>
<path d="M76.2128 63.791L77.6954 68.5247L76.6474 68.8522L76.0401 66.9111L73.9799 67.5542L74.5872 69.4953L73.5393 69.8228L72.0566 65.0891L73.1046 64.7616L73.6881 66.6253L75.7483 65.9822L75.1648 64.1185L76.2128 63.791Z" fill="white"/>
<path d="M80.8933 67.3272C80.7325 67.5475 80.4526 67.7201 80.143 67.8154C79.3213 68.0715 78.702 67.7856 78.4341 66.9163L77.9697 65.4218L77.4338 65.5885L77.1777 64.7787L77.7136 64.612L77.4397 63.7248L78.452 63.4092L78.7259 64.2964L79.5952 64.0225L79.8512 64.8323L78.9819 65.1062L79.4464 66.5888C79.5416 66.8984 79.756 67.0175 80.0299 66.9342C80.1787 66.8865 80.3157 66.7913 80.3931 66.6722L80.8933 67.3272Z" fill="white"/>
<path d="M86.758 63.405L87.407 65.489L86.3948 65.8046L85.7934 63.8813C85.6088 63.2919 85.2694 63.1013 84.8645 63.2264C84.412 63.3693 84.1857 63.7742 84.3941 64.4232L84.9657 66.2512L83.9535 66.5668L83.3521 64.6435C83.1675 64.054 82.846 63.8575 82.4232 63.9885C81.9766 64.1255 81.7563 64.5304 81.9588 65.1794L82.5304 67.0074L81.5181 67.323L80.3809 63.6849L81.3455 63.3812L81.4765 63.798C81.6372 63.405 81.9766 63.1251 82.4232 62.9822C82.9115 62.8334 83.3819 62.8989 83.757 63.2204C83.9177 62.7619 84.3048 62.3987 84.8288 62.232C85.6564 61.9819 86.4126 62.2975 86.758 63.405Z" fill="white"/>
<path d="M86.752 60.1828L87.7642 59.8672L89.3302 64.8867L88.318 65.2023L86.752 60.1828Z" fill="white"/>
<path d="M71.4911 47.7201L68.115 50.5842L72.5212 51.001L73.0511 52.692L66.7216 51.9835L66.1738 50.2269L70.973 46.041L71.4911 47.7201Z" fill="white"/>
<path d="M74.1172 41.4075L75.7427 40.9014L75.8678 54.8405L74.2422 55.3466L74.1172 41.4075Z" fill="white"/>
<path d="M83.3217 44.8679L83.8695 46.6244L79.0703 50.8103L78.5403 49.1193L81.9224 46.2671L77.5162 45.8325L76.9922 44.1533L83.3217 44.8679Z" fill="white"/>
<path opacity="0.3" d="M73.1406 31.8516L75.9928 40.9736C76.4632 42.4801 78.0649 43.3197 79.5713 42.8493L88.3481 40.1103L73.1406 31.8516Z" fill="white"/>
<path d="M76.3672 41.734C76.3672 41.734 76.9448 43.9848 79.6897 43.9252C79.7909 43.9252 79.8981 43.9133 79.9993 43.9014C81.2081 43.7466 89.169 42.7344 89.1155 42.5557C89.0559 42.3711 88.3473 40.1025 88.3473 40.1025L79.5766 42.8475C79.5766 42.8475 77.3616 43.4608 76.3672 41.734Z" fill="#E0E0E0"/>
<path d="M162.027 189.88L237.564 192.301C237.564 192.301 245.829 206.384 243.294 229.835H157.096C157.096 204.483 162.027 189.88 162.027 189.88Z" fill="black"/>
<path d="M166.995 190.463C167.147 190.463 167.273 189.246 167.273 187.75C167.273 186.254 167.147 185.037 166.995 185.037C166.842 185.037 166.716 186.254 166.716 187.75C166.728 189.246 166.842 190.463 166.995 190.463Z" fill="#FBC000"/>
<path d="M163.865 191.883C164.004 191.908 164.346 190.349 164.169 188.409C164.017 186.47 163.421 184.987 163.294 185.037C163.142 185.088 163.472 186.584 163.624 188.46C163.789 190.336 163.7 191.87 163.865 191.883Z" fill="#FBC000"/>
<path d="M192.082 186.229C192.056 186.33 192.918 186.216 193.679 187.116C194.034 187.547 194.338 188.206 194.199 188.904C194.085 189.601 193.425 190.197 192.602 190.349C191.778 190.501 190.941 190.197 190.586 189.588C190.206 188.992 190.244 188.257 190.421 187.737C190.802 186.622 191.638 186.406 191.587 186.318C191.587 186.292 191.372 186.292 191.055 186.457C190.738 186.622 190.32 186.99 190.066 187.598C189.825 188.194 189.711 189.056 190.168 189.854C190.624 190.678 191.727 191.084 192.728 190.881C193.73 190.704 194.604 189.918 194.731 188.98C194.871 188.067 194.44 187.294 193.996 186.837C193.527 186.368 193.007 186.178 192.652 186.14C192.272 186.115 192.082 186.204 192.082 186.229Z" fill="#FBC000"/>
<path d="M231.01 11.1964C230.757 6.79774 228.057 4.09772 224.267 1.85404C220.476 -0.389638 215.558 -0.617814 211.59 1.28361C208.928 2.55122 206.609 4.70617 203.68 5.08646C198.864 5.70759 194.313 1.24559 189.597 2.36109C186.809 3.02025 184.679 5.82168 184.78 8.68649C184.882 11.5513 187.214 14.1879 190.054 14.6316C186.897 15.088 185.123 19.0683 186.289 22.0345C187.455 25.0007 190.763 26.712 193.945 26.788C197.127 26.8514 200.182 25.5584 202.945 23.9613C205.696 22.3641 208.269 20.4373 211.147 19.0683C214.024 17.6992 217.32 16.888 220.4 17.7119C224.571 18.8147 227.512 22.757 228.602 26.9275C229.692 31.0979 229.223 35.5092 228.576 39.7684C227.93 44.0276 227.106 48.3248 227.512 52.622C227.562 53.1291 227.676 53.6995 228.12 53.953C228.754 54.308 229.489 53.6995 229.971 53.1418C235.295 46.829 239.364 39.4642 241.861 31.605C243.319 27.0416 244.117 22.5922 242.368 18.1302C240.593 13.6302 234.712 9.38367 231.01 11.1964Z" fill="black"/>
<path d="M235.066 32.4542L228.031 75.8954C226.713 84.0081 221.439 91.842 208.712 89.18C197.836 86.0363 198.648 78.2151 200.067 68.5686C200.067 68.5686 200.029 68.9362 200.067 68.5686C200.067 68.5686 188.114 65.4629 189.178 53.2938C189.698 47.4121 191.752 35.3951 193.729 24.5443C195.859 12.8949 206.596 4.83288 218.384 6.01177L219.551 6.12585C232.113 8.15403 237.424 19.9429 235.066 32.4542Z" fill="#FFBE9D"/>
<path d="M200.055 68.5676C200.055 68.5676 207.661 69.7845 216.344 65.4873C216.344 65.4873 211.578 74.5254 199.561 72.2057L200.055 68.5676Z" fill="#EB996E"/>
<path d="M196.114 35.179C195.987 36.0917 196.659 36.9537 197.61 37.0931C198.56 37.2452 199.435 36.6241 199.549 35.7114C199.676 34.7987 199.004 33.9368 198.053 33.7973C197.103 33.6452 196.241 34.2664 196.114 35.179Z" fill="black"/>
<path d="M195.732 30.7804C195.923 31.034 197.342 30.1846 199.206 30.3748C201.069 30.5396 202.349 31.6424 202.565 31.4269C202.679 31.3382 202.501 30.9072 201.944 30.4128C201.399 29.9184 200.435 29.3987 199.282 29.2846C198.115 29.1706 197.101 29.5001 196.493 29.8804C195.872 30.2734 195.644 30.6663 195.732 30.7804Z" fill="black"/>
<path d="M213.112 37.8802C212.985 38.7929 213.657 39.6549 214.608 39.7943C215.558 39.9464 216.433 39.3253 216.547 38.4126C216.674 37.4999 216.002 36.6379 215.051 36.4985C214.101 36.3464 213.239 36.9675 213.112 37.8802Z" fill="black"/>
<path d="M213.696 32.9611C213.886 33.2146 215.306 32.3653 217.17 32.5555C219.033 32.7202 220.313 33.8231 220.541 33.6076C220.655 33.5188 220.478 33.0878 219.92 32.5935C219.375 32.0991 218.412 31.5794 217.258 31.4653C216.092 31.3512 215.078 31.6808 214.469 32.0611C213.836 32.4667 213.608 32.8597 213.696 32.9611Z" fill="black"/>
<path d="M205.887 46.1319C205.912 46.0304 204.771 45.7135 202.908 45.2826C202.439 45.1811 201.995 45.0417 201.945 44.7121C201.869 44.3572 202.122 43.8628 202.401 43.3304C202.971 42.2276 203.554 41.0614 204.176 39.8445C206.647 34.8754 208.498 30.7684 208.295 30.6669C208.093 30.5655 205.925 34.5205 203.44 39.4895C202.845 40.7191 202.274 41.8853 201.716 43.0008C201.476 43.5206 201.108 44.1037 201.285 44.8516C201.374 45.2192 201.704 45.5107 201.995 45.6248C202.287 45.7516 202.566 45.7769 202.794 45.8149C204.695 46.1065 205.862 46.2333 205.887 46.1319Z" fill="black"/>
<path d="M214.303 25.6091C214.443 26.1415 216.319 26.0781 218.486 26.5725C220.654 27.0162 222.365 27.8275 222.695 27.4091C222.847 27.2063 222.581 26.6993 221.921 26.1289C221.262 25.5711 220.185 24.988 218.879 24.7091C217.574 24.4302 216.357 24.519 215.52 24.7598C214.696 25.0007 214.252 25.3556 214.303 25.6091Z" fill="black"/>
<path d="M196.961 25.4443C197.253 25.9006 198.571 25.5964 200.13 25.7231C201.69 25.7992 202.957 26.2936 203.299 25.8879C203.452 25.6851 203.287 25.2414 202.754 24.7851C202.235 24.3288 201.322 23.9105 200.257 23.8344C199.192 23.7583 198.229 24.0499 197.646 24.4302C197.063 24.8105 196.835 25.2288 196.961 25.4443Z" fill="black"/>
<path d="M233.178 41.3415C233.393 41.2781 241.772 39.7062 240.67 47.9838C239.567 56.2613 231.492 53.4472 231.505 53.2063C231.517 52.9782 233.178 41.3415 233.178 41.3415Z" fill="#FFBE9D"/>
<path d="M234.446 50.4167C234.484 50.3913 234.573 50.5308 234.801 50.6829C235.029 50.8223 235.422 50.9491 235.878 50.8477C236.791 50.6448 237.716 49.3519 237.957 47.8688C238.084 47.1209 238.02 46.3857 237.83 45.7518C237.653 45.118 237.323 44.6363 236.892 44.4969C236.474 44.3321 236.119 44.5603 235.992 44.7758C235.853 44.9913 235.878 45.1688 235.84 45.1688C235.815 45.1814 235.675 45.0039 235.789 44.6744C235.84 44.5096 235.967 44.3321 236.182 44.2054C236.398 44.0659 236.702 44.0279 237.006 44.1039C237.64 44.2307 238.135 44.9025 238.337 45.587C238.578 46.2842 238.667 47.1209 238.527 47.9575C238.249 49.6181 237.196 51.0631 235.954 51.2533C235.346 51.3293 234.889 51.0885 234.661 50.8603C234.433 50.6195 234.42 50.4294 234.446 50.4167Z" fill="#EB996E"/>
<path d="M194.718 13.2255C196.037 10.9438 198.154 9.2325 200.41 7.86347C205.265 4.90993 211.007 3.35076 216.673 3.83246C222.327 4.31415 227.854 6.91276 231.543 11.2227C234.496 14.6706 236.207 19.0945 236.752 23.6073C237.298 28.12 236.727 32.7214 235.472 37.082C234.927 38.9961 234.192 40.9736 232.671 42.2666C231.72 43.0778 230.199 43.5215 229.286 42.6595C228.754 42.1525 228.614 41.3666 228.513 40.644C227.562 34.0778 226.675 27.0298 229.641 21.0847C228.259 18.8537 226.612 16.7368 224.444 15.2537C222.289 13.7579 219.576 12.9466 217.003 13.4663C213.187 14.2396 210.538 17.6114 207.331 19.8171C202.742 22.9735 196.594 23.7214 191.397 21.7565L194.718 13.2255Z" fill="black"/>
<path d="M204.239 51.1761C204.379 51.962 204.505 52.748 204.86 53.4578C205.215 54.1677 205.811 54.8015 206.572 54.9916C207.383 55.2071 208.283 54.8776 208.891 54.2945C209.5 53.7114 209.829 52.8874 209.969 52.0508C210.096 51.3029 209.931 50.3395 209.208 50.0987C208.904 49.9972 208.574 50.0479 208.27 50.1113C206.863 50.3648 205.456 50.6184 204.049 50.8719" fill="#EB996E"/>
<path d="M205.126 54.7005C205.177 54.5864 205.95 55.1061 207.256 54.8779C207.889 54.7638 208.625 54.4343 209.119 53.7751C209.626 53.1286 209.892 52.1652 209.702 51.2399C209.664 51.0117 209.575 50.7835 209.487 50.5934C209.36 50.4033 209.398 50.4159 209.22 50.4032C209.056 50.4159 208.777 50.4793 208.549 50.5173C208.308 50.5554 208.08 50.6061 207.851 50.6441C206.951 50.8089 206.127 50.9483 205.443 51.0497C204.074 51.2652 203.212 51.3413 203.187 51.2399C203.161 51.1385 203.998 50.8849 205.342 50.5554C206.013 50.3906 206.825 50.2004 207.725 49.9976C207.953 49.9469 208.181 49.8962 208.409 49.8455C208.65 49.7948 208.853 49.7314 209.182 49.706C209.347 49.6934 209.563 49.7187 209.753 49.8455C209.943 49.9722 210.044 50.1371 210.108 50.2765C210.235 50.5427 210.336 50.8089 210.387 51.1004C210.627 52.2666 210.26 53.4202 209.613 54.1934C208.954 54.9793 208.029 55.3216 207.306 55.3723C206.558 55.4357 205.963 55.2582 205.608 55.0807C205.253 54.9033 205.101 54.7385 205.126 54.7005Z" fill="black"/>
<path d="M174.26 33.3035L172.308 32.7711L141.707 62.5094L116.938 65.4883C116.938 65.4883 117.179 57.9966 126.509 48.4388C134.824 39.9078 154.282 29.7415 160.861 24.5189C162.509 23.2133 163.713 22.8203 163.713 22.8203L174.26 33.3035Z" fill="#FFBE9D"/>
<path d="M174.272 19.1565L177.403 18.2818L184.78 14.7832L193.172 17.9015C193.172 17.9015 192.982 20.779 190.776 19.9931L199.573 22.8959C199.573 22.8959 198.851 24.9748 198.458 25.1143C198.065 25.2537 203.617 25.7227 203.617 25.7227C203.617 25.7227 203.668 28.5495 198.369 28.4988C193.071 28.4481 191.068 27.5481 191.068 27.5481L186.847 28.6763L187.011 31.1861L192.754 31.0974L192.488 34.3172C191.638 34.7228 185.085 35.4453 185.085 35.4453C185.085 35.4453 176.211 35.5721 173.803 34.4186C171.407 33.265 168.327 31.5791 168.327 31.5791L163.725 22.8072L174.272 19.1565Z" fill="#FFBE9D"/>
<path d="M182.194 20.654C182.245 20.7301 182.701 20.4766 183.462 20.1343C184.223 19.7667 185.3 19.3357 186.441 18.5498L186.061 18.5625C186.175 18.6385 186.289 18.7146 186.403 18.7907C187.632 19.5766 188.925 19.9442 189.863 20.0583C190.801 20.1723 191.385 20.0836 191.385 20.0076C191.41 19.8047 189.065 19.716 186.745 18.2329C186.631 18.1568 186.53 18.0935 186.428 18.0301L186.238 17.9033L186.048 18.0301C185.021 18.7526 183.944 19.2724 183.234 19.754C182.511 20.1977 182.131 20.5907 182.194 20.654Z" fill="#EB996E"/>
<path d="M184.895 25.1142C184.882 25.165 185.453 25.3171 186.315 24.9621C187.189 24.6452 188.115 23.7325 189.319 23.1875L189.015 23.1621C189.522 23.5044 190.092 23.834 190.701 24.1255C192.45 24.9621 194.199 25.2537 195.441 25.2917C196.696 25.3297 197.457 25.1523 197.457 25.0762C197.47 24.8734 194.339 25.1396 190.979 23.5297C190.396 23.2509 189.851 22.9466 189.357 22.6297L189.205 22.5283L189.053 22.6044C187.696 23.2889 186.885 24.2269 186.137 24.6072C185.427 25.0128 184.895 25.0255 184.895 25.1142Z" fill="#EB996E"/>
<path d="M177.038 27.866C177.076 27.9674 177.684 27.7773 178.686 27.79C179.674 27.79 181.069 28.0688 182.336 28.8928C183.122 29.3998 183.731 30.0463 184.136 30.6801L184.212 30.7942L184.326 30.8196C186.101 31.1491 187.318 31.3139 187.343 31.1872C187.369 31.0604 186.202 30.6928 184.453 30.2491L184.643 30.3886C184.238 29.666 183.566 28.9055 182.704 28.3477C181.297 27.435 179.738 27.2195 178.673 27.3336C177.583 27.435 177 27.8026 177.038 27.866Z" fill="#EB996E"/>
<path d="M168.327 31.5786C168.327 31.5913 168.403 31.642 168.581 31.7561C168.796 31.8829 169.05 32.0223 169.367 32.1998C170.115 32.6054 171.141 33.1631 172.434 33.8603C173.106 34.1899 173.816 34.6843 174.754 34.8998C175.667 35.128 176.668 35.2674 177.746 35.3815C179.901 35.597 182.36 35.6857 185.073 35.6857H185.085H185.098C186.15 35.5843 187.253 35.4702 188.394 35.3435C189.56 35.1787 190.701 35.128 192.019 34.7223L192.146 34.6843L192.171 34.5195C192.349 33.4167 192.551 32.2124 192.754 30.9829L192.818 30.6279L192.463 30.6406C190.739 30.7167 188.888 30.78 186.999 30.8561L187.316 31.135C187.265 30.349 187.215 29.4997 187.151 28.6251L186.923 28.942C188.254 28.5871 189.687 28.2068 191.144 27.8265L190.929 27.8138C192.982 28.5364 195.099 28.6758 197.28 28.7772C198.357 28.8152 199.485 28.8279 200.626 28.6124C201.729 28.3969 202.959 27.9152 203.63 26.7871C203.808 26.4575 203.935 26.1279 203.96 25.6969L203.973 25.4053L203.656 25.38C202.337 25.2659 201.044 25.1518 199.764 24.9997C199.447 24.9617 199.13 24.9236 198.826 24.8729L198.623 24.8349C198.598 24.8349 198.623 24.8349 198.623 24.8349C198.636 24.8476 198.598 24.8096 198.699 24.8983C198.775 24.9744 198.801 25.1138 198.775 25.1772C198.801 25.2913 198.547 25.4434 198.598 25.3927C198.674 25.3546 198.775 25.2913 198.801 25.2532C198.978 25.0758 199.042 24.9363 199.13 24.7842C199.447 24.1758 199.675 23.5927 199.891 22.9715L200.005 22.6546L199.688 22.5532C196.646 21.5518 193.705 20.5884 190.891 19.663L190.688 20.2462C191.03 20.3476 191.398 20.449 191.791 20.3729C192.184 20.3095 192.539 20.094 192.78 19.8025C193.261 19.2194 193.413 18.5602 193.489 17.8884L193.515 17.6729L193.299 17.5968C190.32 16.494 187.519 15.4672 184.895 14.5038L184.781 14.4658L184.68 14.5165C182.005 15.8095 179.546 16.9884 177.327 18.0532L177.365 18.0405C176.288 18.3574 175.261 18.649 174.285 18.9278C173.334 19.2701 172.447 19.587 171.598 19.8785C169.95 20.4743 168.517 20.9814 167.326 21.4124C166.21 21.8307 165.31 22.1602 164.651 22.4011C164.043 22.6293 163.726 22.7687 163.739 22.7814C163.751 22.8067 164.068 22.7053 164.689 22.5152C165.361 22.2997 166.261 22.0081 167.402 21.6405C168.593 21.2476 170.039 20.7659 171.699 20.2081C172.536 19.9293 173.436 19.625 174.399 19.3081C175.375 19.0419 176.402 18.763 177.479 18.4715H177.492L177.505 18.4588C179.736 17.4194 182.208 16.2532 184.895 14.9982L184.68 15.0109C187.291 15.987 190.092 17.0518 193.058 18.1673L192.868 17.863C192.805 18.4081 192.64 19.0292 192.298 19.4222C191.956 19.8278 191.423 19.8785 190.878 19.6884L190.675 20.2715C193.489 21.2095 196.43 22.1856 199.46 23.187L199.257 22.7687C199.054 23.3518 198.813 23.9476 198.535 24.4673C198.471 24.5941 198.382 24.7335 198.319 24.7842C198.306 24.7969 198.306 24.7969 198.306 24.7969C198.319 24.7969 198.37 24.8856 198.382 24.9363V24.949C198.256 24.6194 198.332 24.8603 198.306 24.7969C198.281 24.8096 198.243 24.8349 198.218 24.8603C198.154 24.911 198.116 24.987 198.104 25.0504C198.078 25.1265 198.116 25.2786 198.192 25.3546C198.294 25.4434 198.268 25.418 198.294 25.4307C198.344 25.456 198.395 25.4687 198.408 25.4687C198.522 25.4941 198.598 25.5068 198.674 25.5194C199.004 25.5701 199.321 25.6082 199.65 25.6462C200.943 25.7983 202.249 25.9124 203.567 26.0265L203.263 25.7096C203.25 25.9251 203.161 26.2293 203.022 26.4702C202.528 27.3195 201.488 27.7885 200.461 27.9659C199.422 28.1687 198.344 28.1561 197.267 28.118C195.15 28.0293 192.982 27.8518 191.157 27.2307L191.03 27.1927L190.942 27.218C189.484 27.611 188.051 27.9913 186.72 28.3462L186.467 28.4096L186.48 28.6631C186.543 29.5378 186.606 30.3871 186.657 31.173L186.682 31.4772L186.987 31.4645C188.888 31.3758 190.726 31.2871 192.45 31.211L192.146 30.8814C191.956 32.111 191.766 33.3153 191.588 34.4308L191.74 34.228C190.688 34.5449 189.408 34.6716 188.292 34.8237C187.151 34.9505 186.049 35.0772 185.009 35.1913H185.022C182.322 35.2294 179.863 35.166 177.733 34.9885C176.668 34.8998 175.679 34.7857 174.792 34.5702C173.917 34.3927 173.195 33.9237 172.51 33.6068C171.192 32.9603 170.153 32.4406 169.392 32.0603C169.063 31.9082 168.796 31.7814 168.568 31.68C168.429 31.604 168.327 31.566 168.327 31.5786Z" fill="#EB996E"/>
<path d="M178.925 22.0351C178.786 22.1365 180.066 23.8477 182.183 25.3435C184.3 26.852 186.315 27.4985 186.379 27.3463C186.455 27.1689 184.604 26.2689 182.563 24.8111C180.522 23.366 179.077 21.9083 178.925 22.0351Z" fill="#EB996E"/>
<path d="M117.154 64.575L141.708 62.5088L170.647 73.5244L177.023 77.4033L167.96 108.333C167.96 108.333 122.592 81.5991 120.665 79.3174C114.745 72.2694 117.154 64.575 117.154 64.575Z" fill="#ED1164"/>
<path d="M248.226 87.3159L256.668 92.5511L237.172 169.293L243.295 212.087C238.262 216.473 222.962 221.632 198.839 220.263C174.717 218.894 158.669 208.462 158.669 208.462L160.976 162.942L166.452 111.578L172.663 76.4651L191.221 77.8088L198.446 73.5242L201.691 75.1468L205.849 86.6821L216.687 78.8609L229.364 72.751L233.99 81.3961L248.226 87.3159Z" fill="#ED1164"/>
<path d="M172.662 85.4162C172.624 85.4035 172.383 86.012 171.99 87.1275C171.598 88.243 171.078 89.8655 170.482 91.8937C169.29 95.9374 167.858 101.604 166.73 107.942C165.602 114.28 164.993 120.085 164.727 124.294C164.588 126.398 164.512 128.109 164.499 129.288C164.486 130.467 164.486 131.114 164.537 131.126C164.588 131.126 164.664 130.48 164.752 129.301C164.866 128.008 165.006 126.335 165.183 124.332C165.576 120.149 166.248 114.369 167.376 108.056C168.505 101.743 169.848 96.0895 170.926 92.0205C171.445 90.081 171.889 88.4712 172.231 87.2162C172.561 86.0627 172.713 85.4289 172.662 85.4162Z" fill="black"/>
<path d="M209.322 86.0241C209.335 86.0621 209.994 85.9226 211.071 85.3776C212.136 84.8325 213.619 83.8311 214.912 82.0944L214.456 81.9677C214.659 85.01 215.28 88.9523 216.712 93.0593L216.852 93.465L217.206 93.2241C217.485 93.034 217.79 92.8185 218.094 92.6157C222.454 89.6114 226.384 86.848 229.211 84.8325C230.529 83.8691 231.645 83.0578 232.532 82.4113C233.305 81.8282 233.723 81.486 233.698 81.448C233.673 81.4099 233.204 81.6761 232.38 82.1959C231.454 82.8043 230.301 83.5522 228.932 84.4395C226.042 86.3663 222.061 89.0537 217.701 92.0706C217.397 92.2861 217.092 92.4889 216.813 92.6917L217.308 92.8565C215.888 88.8128 215.216 84.9466 214.925 81.9423L214.861 81.2578L214.468 81.8156C213.29 83.5142 211.895 84.541 210.906 85.1367C209.918 85.7452 209.297 85.9734 209.322 86.0241Z" fill="black"/>
<path d="M191.968 79.2428C191.866 79.3442 193.578 81.2583 196.088 83.9203L196.316 84.1611L196.544 83.9076C197.33 82.9949 198.255 82.0315 199.307 81.1188C199.827 80.6625 200.359 80.2315 200.879 79.8259C201.145 79.6358 201.399 79.4456 201.652 79.2555C201.767 79.1794 201.83 79.1794 201.805 79.1794C201.792 79.1667 201.868 79.2301 201.906 79.3569C202.324 80.4343 202.73 81.4358 203.098 82.3738C203.795 84.0851 204.264 85.1372 204.352 85.0992C204.441 85.0738 204.124 83.971 203.541 82.209C203.212 81.2583 202.857 80.2315 202.489 79.1414C202.426 78.9893 202.362 78.7484 202.058 78.609C201.728 78.4822 201.462 78.6343 201.323 78.7231C201.031 78.9132 200.778 79.1034 200.499 79.3062C199.954 79.7118 199.409 80.1428 198.876 80.6118C197.799 81.5498 196.874 82.5513 196.088 83.5147L196.544 83.502C193.933 80.9034 192.057 79.1541 191.968 79.2428Z" fill="black"/>
<path d="M123.658 128.868C118.627 119.534 110.751 111.623 100.516 106.619C87.9133 100.465 73.6579 99.5806 60.3995 104.137C47.1312 108.701 36.4323 118.149 30.2781 130.751C17.5687 156.77 28.3917 188.28 54.4185 200.999C67.0209 207.153 81.2762 208.037 94.5346 203.481C107.803 198.917 118.502 189.469 124.656 176.866C132.361 161.083 131.41 143.273 123.658 128.868ZM34.3605 177.1C27.1288 163.659 26.2328 147.045 33.4313 132.308C39.1729 120.546 49.1569 111.725 61.5362 107.474C73.9155 103.222 87.2043 104.04 98.9668 109.782C110.729 115.524 119.55 125.508 123.801 137.887C128.053 150.266 127.235 163.555 121.493 175.318C115.751 187.08 105.767 195.9 93.3881 200.152C81.0088 204.404 67.72 203.585 55.9575 197.844C46.4149 193.192 39.0515 185.812 34.3605 177.1Z" fill="#FBC000"/>
<path d="M34.7171 188.537C39.6955 194.684 45.9896 199.716 53.3025 203.287C66.5223 209.741 81.449 210.668 95.3535 205.883C109.266 201.107 120.473 191.198 126.926 177.978C134.678 162.092 134.291 143.287 125.883 127.668C120.399 117.494 112.017 109.421 101.627 104.347C88.4072 97.8931 73.4805 96.9655 59.576 101.751C45.6636 106.527 34.4568 116.436 28.0034 129.655C21.5617 142.85 20.642 157.786 25.4258 171.708C27.5498 177.916 30.712 183.592 34.7171 188.537ZM113.576 124.537C116.958 128.714 119.612 133.481 121.406 138.716C125.436 150.459 124.663 163.059 119.21 174.212C113.758 185.365 104.3 193.727 92.5567 197.757C80.8215 201.797 68.2139 201.014 57.0609 195.561C48.2907 191.279 41.2098 184.47 36.5869 175.882C29.4913 162.69 29.158 146.811 35.7014 133.42C41.1537 122.267 50.6119 113.905 62.355 109.875C74.0902 105.835 86.6978 106.618 97.8508 112.07C104.05 115.092 109.371 119.346 113.576 124.537Z" fill="#03479C"/>
<path d="M197.955 220.798L198.546 219.716C199.817 217.398 199.558 214.802 197.947 213.921L125.385 173.936C125.027 173.737 124.504 173.997 124.224 174.517L120.037 182.117C119.758 182.637 119.814 183.211 120.172 183.411L192.744 223.388C194.345 224.277 196.684 223.116 197.955 220.798Z" fill="#03479C"/>
<path d="M221.513 109.486L203.591 135.877L152.323 171.447L159.552 183.111C159.552 183.111 210.588 161.856 217.004 154.653C223.421 147.45 241.186 124.954 241.186 124.954L221.513 109.486Z" fill="#FFBE9D"/>
<path d="M152.683 171.187L140.282 173.075L129.883 176.409L135.48 179.574C135.48 179.574 127.576 189.271 127.951 190.256C128.325 191.242 130.914 192.848 132.553 191.145C132.553 191.145 132.331 193.168 133.76 194.327C135.178 195.495 136.348 195.086 137.962 193.534C137.962 193.534 137.949 196.236 139.566 196.541C141.183 196.846 142.542 195.583 142.542 195.583C142.542 195.583 144.07 197.853 145.412 197.255C146.755 196.656 149.943 194.188 150.946 192.969C151.938 191.757 156.002 186.785 156.002 186.785L159.542 183.119L152.683 171.187Z" fill="#FFBE9D"/>
<path d="M137.196 185.658C137.311 185.76 136.381 187.068 135.095 188.583C133.81 190.097 132.68 191.24 132.555 191.146C132.439 191.044 133.37 189.735 134.656 188.221C135.941 186.707 137.08 185.556 137.196 185.658Z" fill="#EB996E"/>
<path d="M141.794 189.08C141.909 189.183 141.193 190.252 140.171 191.488C139.159 192.715 138.234 193.628 138.119 193.525C138.003 193.423 138.719 192.354 139.741 191.118C140.762 189.9 141.669 188.986 141.794 189.08Z" fill="#EB996E"/>
<path d="M145.728 191.862C145.842 191.982 145.064 192.775 144.177 193.754C143.308 194.735 142.716 195.656 142.561 195.585C142.432 195.527 142.825 194.441 143.748 193.385C144.686 192.348 145.63 191.762 145.728 191.862Z" fill="#EB996E"/>
<path d="M137.926 176.991C138.041 177.093 137.105 178.374 135.924 179.917C134.744 181.46 133.757 182.7 133.622 182.613C133.487 182.527 134.282 181.133 135.474 179.563C136.665 178.012 137.81 176.889 137.926 176.991Z" fill="#EB996E"/>
<path d="M201.497 168.177C202.305 167.523 216.263 161.715 221.282 155.969C226.31 150.234 256.047 106.247 257.556 102.35C259.065 98.4526 257.744 93.6993 257.744 93.6993C257.744 93.6993 248.612 89.2524 237.999 93.8519C227.386 98.4514 216.511 107.259 216.511 107.259L200.371 136.334L185.824 146.207L201.497 168.177Z" fill="#ED1164"/>
<path d="M217.804 107.223C217.893 107.313 219.495 105.706 222.422 103.499C223.872 102.389 225.684 101.182 227.76 99.9584C229.859 98.7638 232.235 97.5894 234.822 96.5543C237.416 95.5468 239.963 94.8049 242.312 94.2404C244.664 93.7214 246.81 93.3699 248.631 93.2005C252.265 92.8342 254.536 92.9195 254.55 92.7947C254.545 92.7492 253.983 92.6991 252.951 92.6538C251.921 92.5908 250.433 92.6057 248.598 92.7375C246.756 92.8595 244.58 93.1537 242.193 93.6511C239.813 94.1762 237.22 94.9224 234.599 95.936C231.984 96.9772 229.576 98.1934 227.473 99.4236C225.384 100.691 223.577 101.944 222.146 103.118C220.718 104.275 219.603 105.276 218.893 106.03C218.157 106.773 217.77 107.201 217.804 107.223Z" fill="black"/>
<path d="M213.292 111.904C213.225 111.86 212.359 113.149 211.121 115.326C209.875 117.493 208.256 120.55 206.547 123.957C204.874 127.269 203.37 130.266 202.153 132.671C201.018 134.895 200.298 136.261 200.391 136.316C200.459 136.359 201.324 135.071 202.562 132.894C203.808 130.727 205.427 127.67 207.146 124.255C208.819 120.942 210.323 117.946 211.54 115.541C212.665 113.325 213.368 111.957 213.292 111.904Z" fill="black"/>
<path d="M198.991 136.521C198.925 136.722 202.992 137.897 207.228 140.811C211.496 143.684 214.08 147.056 214.24 146.91C214.299 146.862 213.745 145.957 212.609 144.675C211.483 143.385 209.762 141.744 207.591 140.273C205.421 138.801 203.265 137.79 201.658 137.216C200.06 136.634 199.008 136.442 198.991 136.521Z" fill="black"/>
<path d="M80.1626 128.593C79.9825 128.592 79.4725 141.859 79.0326 158.234C78.5929 174.609 78.3798 187.88 78.568 187.891C78.7481 187.892 79.2581 174.625 79.6979 158.25C80.1377 141.875 80.3428 128.594 80.1626 128.593Z" fill="white"/>
<path d="M72.0728 118.606C71.8926 118.605 71.4177 129.821 71.0102 143.658C70.6106 157.504 70.4229 168.733 70.603 168.733C70.7832 168.734 71.266 157.528 71.6656 143.682C72.0751 129.827 72.2529 118.607 72.0728 118.606Z" fill="white"/>
<path d="M46.3208 115.108C46.3208 115.108 46.5614 114.962 46.9991 114.657C47.4564 114.335 48.0991 113.88 48.9369 113.283C49.3567 112.976 49.8337 112.638 50.3502 112.269C50.8826 111.919 51.5122 111.589 52.1651 111.207C52.8181 110.824 53.5363 110.422 54.2859 109.978C55.0294 109.507 55.9264 109.204 56.8008 108.773C60.3459 107.028 65.0053 105.57 70.5454 104.737C76.0819 103.939 82.5737 103.999 89.4259 105.692C90.2765 105.917 91.137 106.133 92.0153 106.352C92.8702 106.622 93.7275 106.955 94.5965 107.263C95.4537 107.596 96.3658 107.836 97.2038 108.266C98.0536 108.671 98.9212 109.078 99.7789 109.492C100.208 109.699 100.655 109.909 101.083 110.116C101.499 110.367 101.914 110.618 102.329 110.869C103.168 111.38 104.016 111.884 104.872 112.397C105.717 112.937 106.497 113.577 107.318 114.168C108.118 114.793 108.998 115.336 109.741 116.072C111.26 117.484 112.885 118.827 114.244 120.484C114.943 121.287 115.7 122.061 116.377 122.916C117.023 123.795 117.66 124.682 118.315 125.571C118.628 126.018 118.979 126.452 119.281 126.925L120.121 128.365C120.678 129.334 121.271 130.288 121.796 131.299C122.705 133.368 123.789 135.411 124.446 137.652C125.29 139.822 125.75 142.142 126.3 144.453C126.511 145.619 126.637 146.822 126.81 148.003C126.873 148.605 127.01 149.196 127.027 149.801L127.098 151.62C127.292 154.056 127.062 156.51 126.918 158.992C126.535 161.439 126.227 163.939 125.512 166.379L125.048 168.223L124.407 170.03L123.767 171.837C123.559 172.447 123.325 173.044 123.039 173.618C122.494 174.777 121.938 175.945 121.391 177.122C120.725 178.232 120.066 179.353 119.39 180.472C116.542 184.85 112.995 188.849 108.866 192.291C104.641 195.614 100.001 198.263 95.1265 200.14C93.8917 200.569 92.6588 200.98 91.434 201.401C90.1767 201.702 88.9114 201.993 87.664 202.285L86.7309 202.503L85.7794 202.637L83.8784 202.888L81.9774 203.139L80.0773 203.21C77.5505 203.413 75.0507 203.187 72.5594 203.051C70.1121 202.668 67.6536 202.392 65.3114 201.695L63.5467 201.249C62.9579 201.106 62.3981 200.858 61.8327 200.663C60.7057 200.238 59.5533 199.883 58.4657 199.426C56.3195 198.408 54.1461 197.477 52.1903 196.19C50.1346 195.082 48.3617 193.598 46.5265 192.278C45.6551 191.565 44.8465 190.768 44.0046 190.031L42.7704 188.91C42.3683 188.534 42.0271 188.093 41.6465 187.683C40.9031 186.866 40.1776 186.051 39.4521 185.236C38.7561 184.396 38.1568 183.495 37.5161 182.644C36.1777 180.971 35.1943 179.092 34.1364 177.323C33.561 176.451 33.2304 175.479 32.7774 174.558C32.37 173.632 31.8973 172.726 31.5532 171.797C31.2288 170.853 30.9123 169.918 30.586 168.992C30.4269 168.534 30.2677 168.075 30.1085 167.617C29.9869 167.144 29.8831 166.674 29.7695 166.211C29.552 165.278 29.3247 164.353 29.1054 163.438C28.8682 162.521 28.8131 161.587 28.6651 160.679C28.5448 159.765 28.3967 158.857 28.3102 157.965C28.2691 157.068 28.2361 156.181 28.203 155.295C27.9705 148.24 29.2605 141.878 31.1988 136.638C33.1548 131.399 35.5582 127.136 37.9924 124.039C38.5975 123.256 39.0876 122.451 39.6936 121.83C40.2757 121.179 40.8263 120.57 41.3357 120.01C41.8451 119.451 42.2991 118.904 42.7517 118.456C43.2203 118.027 43.6495 117.631 44.0374 117.284C44.7954 116.588 45.3742 116.054 45.7837 115.674C46.1299 115.295 46.3208 115.108 46.3208 115.108C46.3208 115.108 46.0961 115.274 45.6983 115.629C45.2808 115.999 44.6861 116.514 43.9121 117.189C43.5242 117.536 43.087 117.923 42.6006 118.35C42.1302 118.796 41.678 119.325 41.1588 119.893C40.6395 120.46 40.0809 121.059 39.4909 121.7C38.867 122.32 38.377 123.124 37.7541 123.906C35.2744 127.007 32.8255 131.275 30.822 136.535C28.8444 141.807 27.5032 148.227 27.7123 155.333C27.7453 156.22 27.7765 157.125 27.8077 158.029C27.8924 158.939 28.0404 159.847 28.1509 160.769C28.297 161.695 28.3423 162.637 28.5795 163.554C28.7969 164.487 29.0144 165.42 29.2398 166.363C29.3516 166.843 29.4652 167.306 29.577 167.786C29.7362 168.245 29.8934 168.721 30.0526 169.179C30.3691 170.114 30.6935 171.058 31.0161 172.02C31.3682 172.959 31.831 173.872 32.2544 174.818C32.7074 175.74 33.0538 176.732 33.6194 177.611C34.6834 179.408 35.6649 181.305 37.0273 183.007C37.6759 183.868 38.2734 184.787 38.9774 185.636C39.7109 186.461 40.4543 187.279 41.1957 188.113C41.5763 188.523 41.9274 188.956 42.3277 189.35L43.5778 190.491C44.4178 191.246 45.2442 192.045 46.1236 192.768C47.9828 194.117 49.7716 195.62 51.8531 196.74C53.8347 198.039 56.024 198.99 58.1961 200.02C59.3095 200.488 60.4698 200.854 61.6147 201.28C62.1979 201.477 62.7577 201.725 63.3466 201.868L65.137 202.326C67.5051 203.034 69.9894 203.322 72.4723 203.709C74.9814 203.847 77.5168 204.077 80.0794 203.877L82.0071 203.8L83.926 203.551L85.8547 203.294L86.8239 203.161L87.7749 202.946C89.05 202.647 90.3251 202.349 91.6002 202.05C92.8429 201.631 94.0955 201.203 95.3481 200.776C100.288 198.879 105.003 196.202 109.279 192.821C113.457 189.339 117.063 185.292 119.945 180.854C120.623 179.718 121.301 178.581 121.969 177.453C122.526 176.268 123.083 175.082 123.649 173.907C123.944 173.325 124.188 172.72 124.388 172.101L125.04 170.268L125.682 168.443L126.158 166.573C126.886 164.108 127.187 161.58 127.574 159.097C127.711 156.588 127.946 154.098 127.745 151.634L127.669 149.788C127.643 149.172 127.517 148.573 127.454 147.972C127.274 146.763 127.158 145.552 126.931 144.366C126.367 142.017 125.891 139.678 125.041 137.48C124.368 135.219 123.278 133.149 122.345 131.05C121.812 130.03 121.201 129.073 120.646 128.087L119.79 126.627C119.498 126.146 119.137 125.72 118.816 125.263C118.153 124.364 117.508 123.467 116.854 122.578C116.169 121.713 115.412 120.94 114.687 120.125C113.313 118.448 111.661 117.094 110.117 115.67C109.374 114.934 108.476 114.389 107.668 113.755C106.839 113.154 106.041 112.511 105.189 111.962C104.324 111.439 103.458 110.933 102.61 110.429C102.177 110.177 101.761 109.926 101.346 109.675C100.899 109.466 100.462 109.249 100.024 109.049C99.1481 108.633 98.2806 108.226 97.413 107.82C96.5651 107.397 95.6352 107.155 94.7779 106.822C93.8991 106.522 93.0418 106.189 92.1691 105.917C91.2908 105.699 90.4125 105.48 89.552 105.264C82.6267 103.581 76.0855 103.561 70.5177 104.401C64.9461 105.275 60.2633 106.785 56.7243 108.558C55.84 108.997 54.9412 109.317 54.2057 109.799C53.4462 110.251 52.744 110.672 52.091 111.055C51.4361 111.454 50.8244 111.787 50.2821 112.144C49.7638 112.532 49.2947 112.879 48.8749 113.186C48.0531 113.803 47.4264 114.278 46.977 114.609C46.5295 114.923 46.3208 115.108 46.3208 115.108Z" fill="black"/>
<path d="M37.3413 146.034C37.3948 146.039 37.5527 145.308 37.8714 143.99C38.1901 142.671 38.7212 140.789 39.5708 138.535C41.2422 134.033 44.4409 128.033 49.6478 122.821C54.8548 117.608 60.8598 114.409 65.3615 112.736C67.6133 111.891 69.4987 111.359 70.8212 111.038C72.1259 110.716 72.8634 110.559 72.8592 110.513C72.853 110.486 72.671 110.503 72.3149 110.546C71.9668 110.6 71.4385 110.653 70.7663 110.789C69.4254 111.027 67.5099 111.502 65.2004 112.296C60.611 113.86 54.4713 117.054 49.1739 122.356C43.8783 127.64 40.6825 133.785 39.1184 138.379C38.3186 140.675 37.8551 142.6 37.6058 143.944C37.4634 144.614 37.4171 145.14 37.3618 145.495C37.3342 145.844 37.3136 146.04 37.3413 146.034Z" fill="black"/>
<path d="M35.454 150.957C35.2799 150.983 35.212 151.544 35.3248 152.187C35.4277 152.837 35.6624 153.349 35.8463 153.314C36.0204 153.287 36.0883 152.727 35.9755 152.084C35.8646 151.423 35.6379 150.922 35.454 150.957Z" fill="black"/>
<path d="M84.107 195.658C84.1131 195.686 84.3346 195.637 84.7615 195.52C85.1884 195.402 85.817 195.252 86.6113 194.984C88.196 194.483 90.4675 193.622 93.14 192.29C98.4634 189.658 105.398 184.727 110.776 177.288C116.154 169.85 118.674 161.723 119.508 155.845C119.936 152.888 120.046 150.466 120.022 148.806C120.037 147.978 119.969 147.331 119.953 146.888C119.926 146.452 119.897 146.215 119.87 146.221C119.816 146.215 119.818 147.144 119.761 148.805C119.703 150.467 119.524 152.863 119.036 155.786C118.084 161.598 115.532 169.586 110.229 176.915C104.926 184.244 98.1358 189.173 92.9119 191.887C90.2891 193.261 88.0734 194.191 86.5089 194.757C84.9721 195.317 84.0948 195.603 84.107 195.658Z" fill="white"/>
<path d="M113.876 133.684C113.73 133.786 114.353 134.978 115.283 136.329C116.204 137.687 117.079 138.707 117.225 138.606C117.371 138.504 116.756 137.322 115.818 135.961C114.889 134.593 114.022 133.583 113.876 133.684Z" fill="white"/>
<path d="M55.436 163L57.724 155.512L60.038 163H63.236L67.396 149.896H63.808L61.494 157.202L59.232 149.896H56.216L53.98 157.202L51.666 149.896H48.078L52.212 163H55.436ZM74.9106 163L77.1986 155.512L79.5126 163H82.7106L86.8706 149.896H83.2826L80.9686 157.202L78.7066 149.896H75.6906L73.4546 157.202L71.1406 149.896H67.5526L71.6866 163H74.9106ZM94.3852 163L96.6732 155.512L98.9872 163H102.185L106.345 149.896H102.757L100.443 157.202L98.1812 149.896H95.1652L92.9292 157.202L90.6152 149.896H87.0272L91.1612 163H94.3852Z" fill="#ED1164"/>
</svg>
