

<svg width="57" height="51" viewBox="0 0 57 51" fill="none" xmlns="http://www.w3.org/2000/svg">
<path d="M13.1719 28.2547C13.1719 33.44 17.39 37.6581 22.5753 37.6581C27.7607 37.6581 31.9787 33.44 31.9787 28.2547C31.9787 23.0694 27.7607 18.8513 22.5753 18.8513C17.39 18.8513 13.1719 23.0694 13.1719 28.2547ZM14.9547 28.2547C14.9547 24.0509 18.3744 20.6312 22.5782 20.6312C26.782 20.6312 30.2017 24.0509 30.2017 28.2547C30.2017 32.4585 26.782 35.8782 22.5782 35.8782C18.3715 35.8753 14.9547 32.4585 14.9547 28.2547Z" fill="white"/>
<path d="M22.5746 23.5444C23.0668 23.5444 23.4646 23.945 23.4646 24.4344C23.4646 24.9266 23.064 25.3243 22.5746 25.3243C20.9607 25.3243 19.6471 26.6378 19.6471 28.2518C19.6471 28.744 19.2465 29.1418 18.7572 29.1418C18.265 29.1418 17.8672 28.7412 17.8672 28.2518C17.8643 25.6563 19.9762 23.5444 22.5746 23.5444Z" fill="white"/>
<path d="M50.6527 8.15434C50.7958 8.15434 50.9331 8.18868 51.0619 8.2545C51.4969 8.48057 51.6686 9.01857 51.4425 9.4564L48.5036 15.1311C48.3491 15.4287 48.0429 15.6118 47.7023 15.6118C47.3589 15.6061 47.0556 15.4115 46.9096 15.1053L45.1297 11.4023L44.9551 11.0389L44.7691 11.3966L42.8375 15.1282C42.683 15.4258 42.3796 15.609 42.0448 15.609H42.0276C41.69 15.6033 41.3866 15.4087 41.2407 15.1025L38.5164 9.42778C38.4134 9.21316 38.399 8.97278 38.4792 8.74671C38.5593 8.52064 38.7195 8.34035 38.9342 8.23733C39.0572 8.1801 39.186 8.14862 39.3205 8.14862C39.661 8.14862 39.9758 8.34607 40.1246 8.65513L41.9046 12.3581L42.0791 12.7187L42.2652 12.361L44.1968 8.62938C44.3513 8.33177 44.6575 8.14862 44.9952 8.14862C45.3414 8.15434 45.6448 8.34894 45.7907 8.65513L47.5678 12.3581L47.7424 12.7216L47.9284 12.3639L49.86 8.63224C50.0145 8.33749 50.3179 8.15434 50.6527 8.15434Z" fill="white"/>
<path d="M42.6615 2.2965C42.4268 2.2965 42.1979 2.20206 42.0319 2.03609C41.8659 1.87011 41.7715 1.64118 41.7715 1.40652C41.7715 1.17186 41.8659 0.94293 42.0319 0.776953C42.1979 0.610977 42.4268 0.516541 42.6615 0.516541C42.8961 0.516541 43.1251 0.610977 43.291 0.776953C43.457 0.94293 43.5514 1.17186 43.5514 1.40652C43.5514 1.64118 43.457 1.87011 43.291 2.03609C43.1251 2.20206 42.8933 2.2965 42.6615 2.2965Z" fill="white"/>
<path d="M4.8951 23.2525H9.2248H9.51097L9.41367 23.5215C8.86709 25.041 8.58951 26.6321 8.58951 28.2547C8.58951 32.4985 10.4925 36.4676 13.8063 39.1433L13.9809 39.2835L13.8235 39.4409L5.4474 47.817C5.12403 48.1404 4.69192 48.3207 4.23119 48.3207C3.77047 48.3207 3.34122 48.1433 3.01499 47.817C2.34536 47.1474 2.34536 46.0571 3.01499 45.3875L6.41751 41.9849C6.58635 41.8161 6.67792 41.5929 6.67792 41.3554C6.67792 41.1179 6.58635 40.8947 6.41751 40.7258C6.24867 40.557 6.02546 40.4654 5.78794 40.4654C5.55042 40.4654 5.32721 40.557 5.15837 40.7258L1.75585 44.1283C1.09481 44.7894 0.731377 45.6679 0.731377 46.6037C0.731377 47.5394 1.09481 48.418 1.75585 49.079C2.4169 49.7401 3.29543 50.1035 4.23119 50.1035C5.16696 50.1035 6.04549 49.7401 6.70654 49.079L15.3688 40.4168L15.4775 40.308L15.612 40.3853C17.724 41.6015 20.1335 42.2454 22.5773 42.2454C30.2895 42.2454 36.5652 35.9697 36.5652 28.2575C36.5652 26.635 36.2876 25.041 35.741 23.5243L35.6437 23.2553H35.9299H52.0468C54.3447 23.2553 56.2134 21.3867 56.2134 19.0888V4.68026C56.2134 2.38234 54.3447 0.513672 52.0468 0.513672H47.574C47.0818 0.513672 46.684 0.914305 46.684 1.40365C46.684 1.89586 47.0847 2.29363 47.574 2.29363H52.0468C53.3603 2.29363 54.4306 3.36389 54.4306 4.6774V19.0859C54.4306 20.3994 53.3603 21.4697 52.0468 21.4697H34.9226H34.8052L34.748 21.3695C33.32 18.857 31.0965 16.8023 28.4838 15.5775L28.2549 15.4687L28.4123 15.2713C28.4523 15.2198 28.4838 15.174 28.5067 15.1311L30.4383 11.3995L30.6243 11.0417L30.7989 11.4023L32.5789 15.1053C32.7248 15.4115 33.0281 15.6061 33.3715 15.6118C33.7121 15.6118 34.0183 15.4287 34.1728 15.1311L37.1117 9.45638C37.3378 9.02141 37.1661 8.48055 36.7311 8.25448C36.6024 8.18866 36.465 8.15432 36.3219 8.15432C35.9871 8.15432 35.6838 8.33747 35.5292 8.63508L33.5976 12.3667L33.4116 12.7244L33.237 12.361L31.46 8.65798C31.314 8.35178 31.0107 8.15718 30.6616 8.15432C30.3239 8.15432 30.0177 8.33747 29.8631 8.63508L27.9315 12.3667L27.7455 12.7244L27.5709 12.3638L25.791 8.66084C25.645 8.35464 25.3274 8.15432 24.9869 8.15432C24.8524 8.15432 24.7236 8.18294 24.6005 8.24303C24.3859 8.34605 24.2228 8.52634 24.1455 8.75241C24.0654 8.97562 24.0797 9.21886 24.1827 9.43349L26.6266 14.5187L26.8183 14.9193L26.3919 14.7991C25.1557 14.4471 23.8708 14.2697 22.5745 14.2697C21.9077 14.2697 21.2295 14.3183 20.5627 14.4156L20.1764 14.47L20.3567 14.1238L22.7719 9.45638C22.998 9.01855 22.8263 8.48055 22.3913 8.25448C22.2626 8.18866 22.1252 8.15432 21.9821 8.15432C21.6473 8.15432 21.344 8.33747 21.1894 8.63508L19.2578 12.3667L19.0718 12.7244L18.8972 12.361L17.1173 8.65798C16.9713 8.35178 16.668 8.15718 16.3189 8.15432C15.9812 8.15432 15.675 8.33747 15.5205 8.63508L13.5888 12.3667L13.4028 12.7244L13.2283 12.361L11.4512 8.65798C11.3024 8.35178 10.9876 8.15146 10.6471 8.15146C10.5126 8.15146 10.3838 8.18008 10.2607 8.24017C10.0461 8.34319 9.88585 8.52348 9.80572 8.74669C9.7256 8.9699 9.7399 9.21314 9.84292 9.42776L12.5672 15.1024C12.7132 15.4086 13.0165 15.6032 13.3542 15.609H13.3714C13.7062 15.609 14.0095 15.4258 14.1612 15.1282L16.0928 11.3966L16.2788 11.0389L16.4534 11.3995L18.0702 14.7676L18.1675 14.9708L17.9557 15.0452C14.7564 16.1641 12.0722 18.4105 10.3924 21.3695L10.3294 21.4811L10.2006 21.4697C10.1749 21.4668 10.1491 21.4668 10.1234 21.4668H4.8951C3.5816 21.4668 2.51133 20.3965 2.51133 19.083V4.68026C2.51133 3.36675 3.5816 2.29649 4.8951 2.29649H38.0761C38.5683 2.29649 38.9661 1.89586 38.9661 1.40651C38.9661 0.914304 38.5655 0.516532 38.0761 0.516532H4.8951C2.59718 0.516532 0.728516 2.3852 0.728516 4.68312V19.0916C0.728516 21.3838 2.59718 23.2525 4.8951 23.2525ZM10.3695 28.2547C10.3695 21.524 15.8438 16.0497 22.5745 16.0497C29.3051 16.0497 34.7795 21.524 34.7795 28.2547C34.7795 34.9853 29.3051 40.4597 22.5745 40.4597C15.8438 40.4597 10.3695 34.9853 10.3695 28.2547Z" fill="white"/>
<path d="M9.00783 38.1332C9.1738 38.2991 9.26824 38.5281 9.26824 38.7627C9.26824 38.9974 9.1738 39.2263 9.00783 39.3923C8.84185 39.5583 8.61005 39.6527 8.37826 39.6527C8.1436 39.6527 7.91467 39.5583 7.74869 39.3923C7.58272 39.2263 7.48828 38.9974 7.48828 38.7627C7.48828 38.5281 7.58272 38.2991 7.74869 38.1332C7.91467 37.9672 8.1436 37.8727 8.37826 37.8727C8.61292 37.8727 8.84185 37.9672 9.00783 38.1332Z" fill="white"/>
</svg>
