<svg width="95" height="86" viewBox="0 0 95 86" fill="none" xmlns="http://www.w3.org/2000/svg">
<path d="M83.4196 77.7837C90.36 69.5185 94.5333 58.8447 94.4998 47.1929C94.4273 21.492 73.5779 0.362368 47.9194 0.00471212C21.5188 -0.364121 0 20.9667 0 47.3271C0 58.9285 4.16763 69.552 11.0802 77.7837C11.309 78.0575 11.7274 78.0687 11.9785 77.8172L47.2499 42.4875L82.5213 77.8172C82.7724 78.0743 83.1908 78.0575 83.4196 77.7837Z" fill="#03479C"/>
<path d="M47.25 85.5C68.3749 85.5 85.5 68.3749 85.5 47.25C85.5 26.1251 68.3749 9 47.25 9C26.1251 9 9 26.1251 9 47.25C9 68.3749 26.1251 85.5 47.25 85.5Z" fill="#B0CBED"/>
<path d="M85.4991 47.2501C85.4991 68.3728 68.3718 85.5001 47.2491 85.5001C33.7145 85.5001 21.7749 78.3921 14.9766 67.7998C11.1671 61.8532 20.2263 56.1699 27.0865 52.9489C44.7714 44.664 70.7256 23.3555 70.7256 23.3555C70.7256 23.3555 75.4798 28.28 84.5235 38.6864C85.1584 41.4274 85.4991 44.3078 85.4991 47.2501Z" fill="#9BBDE8"/>
<path d="M55.054 27.2578V31.1757H18.4765V63.8353C18.4765 66.0033 16.7266 67.7532 14.5586 67.7532H66.8233C68.9913 67.7532 70.7412 66.0033 70.7412 63.8353V23.3398H58.9874C56.8194 23.3398 55.054 25.1052 55.054 27.2578Z" fill="white"/>
<path d="M55.0559 31.1914V25.9727H10.6426V63.8665C10.6426 66.0345 12.3925 67.7844 14.5605 67.7844C16.7285 67.7844 18.4784 66.0345 18.4784 63.8665V31.1914H55.0559Z" fill="#80B0EC"/>
<path d="M35.8997 43.2706L33.0349 45.6709C32.0593 44.5869 30.8823 44.0294 29.4886 44.0294C28.3117 44.0294 27.3206 44.432 26.4998 45.2218C25.6791 46.0116 25.2765 47.0181 25.2765 48.2106C25.2765 49.403 25.6791 50.4095 26.4998 51.1993C27.3206 51.9736 28.3117 52.3762 29.4886 52.3762C30.8823 52.3762 32.0593 51.8188 33.0349 50.7347L35.8997 53.135C34.3047 55.0243 31.9973 56.1548 29.4886 56.1548C27.1348 56.1548 25.1371 55.396 23.4956 53.8939C21.8696 52.3917 21.0488 50.5025 21.0488 48.2106C21.0488 45.9187 21.8696 44.0449 23.4956 42.5273C25.1371 40.9942 27.1348 40.2354 29.4886 40.2354C31.9973 40.2508 34.3047 41.3813 35.8997 43.2706Z" fill="#03479C"/>
<path d="M37.4648 55.9383V40.4834H40.9182L45.9356 47.514L50.953 40.4834H54.4063V55.9383H50.5039V47.7463L45.9356 54.0645L41.3673 47.7463V55.9383H37.4648Z" fill="#03479C"/>
<path d="M58.4616 50.5797C59.2823 51.7102 60.707 52.4845 62.3175 52.4845C63.6958 52.4845 64.3771 52.1128 64.3771 51.3695C64.3771 50.9514 64.1139 50.6572 63.5099 50.4094C63.2157 50.301 62.906 50.1926 62.5963 50.0997C61.9923 49.9293 60.8928 49.5887 60.1495 49.3254C57.7802 48.4427 56.5723 46.9561 56.5723 44.8655C56.5723 43.3943 57.0988 42.2639 58.1983 41.4431C59.2978 40.6224 60.5986 40.2197 62.1317 40.2197C64.6869 40.2197 66.5916 41.0405 67.8615 42.682L65.0895 45.0823C64.4081 44.2615 63.4635 43.8589 62.302 43.8589C61.218 43.8589 60.6141 44.2615 60.6141 44.819C60.6141 45.2681 60.7689 45.5004 61.2335 45.7017C61.4813 45.8101 61.7446 45.903 62.0078 45.965C62.5343 46.0734 63.7577 46.4295 64.7333 46.7857C67.3969 47.7458 68.4809 49.1396 68.4809 51.2456C68.4809 54.2344 66.4213 56.1546 62.3175 56.1546C60.5831 56.1546 59.1739 55.8449 58.0434 55.1945C56.9285 54.5441 56.0922 53.7698 55.4883 52.8716L58.4616 50.5797Z" fill="#03479C"/>
</svg>
