<svg width="95" height="86" viewBox="0 0 95 86" fill="none" xmlns="http://www.w3.org/2000/svg">
<path d="M83.4196 77.7837C90.36 69.5185 94.5333 58.8447 94.4998 47.1929C94.4273 21.492 73.5779 0.362368 47.9194 0.00471212C21.5188 -0.364121 0 20.9667 0 47.3271C0 58.9285 4.16763 69.552 11.0802 77.7837C11.309 78.0575 11.7274 78.0687 11.9785 77.8172L47.2499 42.4875L82.5213 77.8172C82.7724 78.0743 83.1908 78.0575 83.4196 77.7837Z" fill="#03479C"/>
<path d="M47.2498 85.4995C68.3745 85.4995 85.4995 68.3745 85.4995 47.2498C85.4995 26.125 68.3745 9 47.2498 9C26.125 9 9 26.125 9 47.2498C9 68.3745 26.125 85.4995 47.2498 85.4995Z" fill="#B0CBED"/>
<path d="M85.499 47.2496C85.499 65.5383 72.6614 80.8227 55.5032 84.6012C37.9269 74.9691 33.4515 71.9184 22.627 64.4543C27.1488 58.9104 20.2267 56.1539 27.1023 52.9329C44.787 44.648 63.0137 19.4373 63.0137 19.4373C63.0137 19.4373 84.7712 39.8165 84.8796 40.3895C85.2822 42.6194 85.499 44.9113 85.499 47.2496Z" fill="#A2C1E9"/>
<path d="M72.1346 43.9514V38.1597C72.1346 37.6332 71.7784 37.1687 71.2674 37.0138L65.2744 35.3104C64.6859 32.9101 63.7413 30.6646 62.5025 28.6205L65.5377 23.1696C65.8009 22.705 65.708 22.132 65.3363 21.7604L61.2326 17.6566C60.861 17.285 60.2725 17.2075 59.8234 17.4553L54.3724 20.4905C52.3283 19.2517 50.0674 18.307 47.6826 17.7186L45.9792 11.7256C45.8398 11.2146 45.3752 10.8584 44.8332 10.8584H39.0416C38.5151 10.8584 38.0505 11.2146 37.8956 11.7256L36.1922 17.7186C33.7919 18.307 31.5465 19.2517 29.5024 20.4905L24.0514 17.4553C23.5868 17.1921 23.0138 17.285 22.6422 17.6566L18.5385 21.7449C18.1668 22.1165 18.0894 22.705 18.3372 23.1541L21.3724 28.605C20.1335 30.6492 19.1889 32.9101 18.6004 35.2949L12.6074 36.9983C12.0964 37.1377 11.7402 37.6023 11.7402 38.1443V43.9359C11.7402 44.4624 12.0964 44.927 12.6074 45.0819L18.6004 46.7853C19.1889 49.1856 20.1335 51.431 21.3724 53.4751L18.3372 58.9261C18.0739 59.3907 18.1668 59.9636 18.5385 60.3353L22.6267 64.4545C22.9984 64.8262 23.5868 64.9036 24.0359 64.6558L29.4869 61.6206C31.531 62.8595 33.7919 63.8041 36.1767 64.3926L37.8801 70.3855C38.0195 70.8966 38.4841 71.2527 39.0261 71.2527H44.8178C45.3443 71.2527 45.8088 70.8966 45.9637 70.3855L47.6671 64.3926C50.0674 63.8041 52.3128 62.8595 54.357 61.6206L59.8079 64.6558C60.2725 64.9191 60.8455 64.8262 61.2171 64.4545L65.3209 60.3508C65.6925 59.9791 65.7699 59.3907 65.5222 58.9416L62.487 53.4906C63.7258 51.4465 64.6705 49.1856 65.2589 46.8008L71.2519 45.0974C71.7784 44.9425 72.1346 44.4779 72.1346 43.9514Z" fill="white"/>
<path d="M52.2148 51.3506C57.8995 45.6659 57.8995 36.4493 52.2148 30.7647C46.5302 25.08 37.3135 25.08 31.6289 30.7647C25.9443 36.4493 25.9443 45.6659 31.6289 51.3506C37.3135 57.0352 46.5302 57.0352 52.2148 51.3506Z" fill="#03479C"/>
<path d="M41.9391 53.0415C48.5587 53.0415 53.925 47.6752 53.925 41.0555C53.925 34.4359 48.5587 29.0696 41.9391 29.0696C35.3194 29.0696 29.9531 34.4359 29.9531 41.0555C29.9531 47.6752 35.3194 53.0415 41.9391 53.0415Z" fill="#B0CBED"/>
<path d="M41.9395 59.9481C31.5176 59.9481 23.0469 51.4774 23.0469 41.0555C23.0469 40.6219 23.3876 40.2812 23.8212 40.2812C24.2548 40.2812 24.5954 40.6219 24.5954 41.0555C24.5954 50.6257 32.3693 58.3996 41.9395 58.3996C42.3731 58.3996 42.7138 58.7402 42.7138 59.1738C42.7138 59.6074 42.3576 59.9481 41.9395 59.9481Z" fill="#8AB5EB"/>
<path d="M60.0567 41.8297C59.6231 41.8297 59.2824 41.489 59.2824 41.0554C59.2824 31.4853 51.5085 23.7114 41.9383 23.7114C41.5047 23.7114 41.1641 23.3707 41.1641 22.9371C41.1641 22.5035 41.5047 22.1628 41.9383 22.1628C52.3602 22.1628 60.8309 30.6335 60.8309 41.0554C60.8309 41.489 60.4748 41.8297 60.0567 41.8297Z" fill="#8AB5EB"/>
<path d="M34.149 34.4587H10.5642C9.71248 34.4587 9.01562 33.7619 9.01562 32.9101V17.8425C9.01562 16.9908 9.71248 16.2939 10.5642 16.2939H34.149C35.0007 16.2939 35.6975 16.9908 35.6975 17.8425V32.9101C35.6975 33.7619 35.0007 34.4587 34.149 34.4587Z" fill="white"/>
<path d="M35.6975 21.3578V17.8425C35.6975 16.9908 35.0007 16.2939 34.149 16.2939H10.5642C9.71248 16.2939 9.01562 16.9908 9.01562 17.8425V21.3578H35.6975Z" fill="#8AB5EB"/>
<path d="M14.5751 30.2313C14.5442 30.2313 14.5287 30.2313 14.4977 30.2313C14.188 30.2003 13.9247 29.999 13.8318 29.7048L12.7633 26.4528C12.6239 26.0501 12.8562 25.6165 13.2588 25.4772C13.6615 25.3378 14.0951 25.5701 14.2344 25.9727L14.7455 27.5213L15.0242 26.9948C15.1636 26.747 15.4268 26.5921 15.7056 26.5921C15.9843 26.5921 16.2476 26.747 16.387 26.9948L16.6657 27.5213L17.1767 25.9727C17.3161 25.5701 17.7497 25.3378 18.1523 25.4772C18.555 25.6165 18.7872 26.0501 18.6479 26.4528L17.5794 29.7048C17.4864 29.999 17.2232 30.2003 16.9135 30.2313C16.6038 30.2623 16.3095 30.1074 16.1702 29.8287L15.7056 28.9769L15.241 29.8287C15.1326 30.0764 14.8694 30.2313 14.5751 30.2313Z" fill="#03479C"/>
<path d="M21.2021 30.2313C21.1711 30.2313 21.1556 30.2313 21.1247 30.2313C20.8149 30.2003 20.5517 29.999 20.4588 29.7048L19.3902 26.4528C19.2509 26.0501 19.4832 25.6165 19.8858 25.4772C20.2884 25.3378 20.722 25.5701 20.8614 25.9727L21.3724 27.5213L21.6512 26.9948C21.7905 26.747 22.0538 26.5921 22.3325 26.5921C22.6113 26.5921 22.8745 26.747 23.0139 26.9948L23.2927 27.5213L23.8037 25.9727C23.9431 25.5701 24.3767 25.3378 24.7793 25.4772C25.1819 25.6165 25.4142 26.0501 25.2748 26.4528L24.2063 29.7048C24.1134 29.999 23.8501 30.2003 23.5404 30.2313C23.2307 30.2623 22.9365 30.1074 22.7971 29.8287L22.3325 28.9769L21.868 29.8287C21.7596 30.0764 21.4963 30.2313 21.2021 30.2313Z" fill="#03479C"/>
<path d="M30.123 30.2313C29.8443 30.2313 29.581 30.0764 29.4416 29.8287L28.9771 28.9769L28.5125 29.8287C28.3576 30.1074 28.0634 30.2623 27.7692 30.2313C27.4595 30.2003 27.1962 29.999 27.1033 29.7048L26.0348 26.4528C25.8954 26.0501 26.1277 25.6165 26.5303 25.4772C26.933 25.3378 27.3666 25.5701 27.5059 25.9727L28.017 27.5213L28.2957 26.9948C28.4351 26.747 28.6983 26.5921 28.9771 26.5921C29.2558 26.5921 29.5191 26.747 29.6584 26.9948L29.9372 27.5213L30.4482 25.9727C30.5876 25.5701 31.0212 25.3378 31.4238 25.4772C31.8264 25.6165 32.0587 26.0501 31.9194 26.4528L30.8508 29.7048C30.7579 29.999 30.4947 30.2003 30.185 30.2313C30.1695 30.2313 30.1385 30.2313 30.123 30.2313Z" fill="#03479C"/>
</svg>
