<svg width="97" height="87" viewBox="0 0 97 87" fill="none" xmlns="http://www.w3.org/2000/svg">
<path d="M84.8836 79.1488C91.9458 70.7385 96.1923 59.8774 96.1582 48.0211C96.0844 21.8692 74.8692 0.368727 48.7604 0.00479481C21.8965 -0.370511 0 21.3347 0 48.1576C0 59.9627 4.24077 70.7726 11.2747 79.1488C11.5074 79.4274 11.9332 79.4388 12.1887 79.1829L48.0791 43.2332L83.9695 79.1829C84.225 79.4445 84.6508 79.4274 84.8836 79.1488Z" fill="#ED1164"/>
<path d="M47.921 86.8421C69.4165 86.8421 86.8421 69.4165 86.8421 47.921C86.8421 26.4255 69.4165 9 47.921 9C26.4255 9 9 26.4255 9 47.921C9 69.4165 26.4255 86.8421 47.921 86.8421Z" fill="#FFD9E7"/>
<path d="M86.8426 47.9206C86.8426 66.5302 73.7797 82.0829 56.3204 85.9277C38.4356 76.1265 33.8817 73.0223 22.8672 65.4272C27.4684 59.786 20.4248 56.9812 27.4211 53.7036C45.4162 45.2733 63.9627 19.6201 63.9627 19.6201C63.9627 19.6201 86.102 40.357 86.2123 40.94C86.622 43.2091 86.8426 45.5412 86.8426 47.9206Z" fill="#FFC7DB"/>
<path d="M73.2433 44.5644V38.6711C73.2433 38.1353 72.8809 37.6626 72.3609 37.505L66.2627 35.7717C65.664 33.3293 64.7027 31.0445 63.4421 28.9645L66.5306 23.4178C66.7985 22.9451 66.7039 22.3621 66.3258 21.9839L62.15 17.8082C61.7718 17.43 61.1731 17.3512 60.7161 17.6033L55.1695 20.6918C53.0895 19.4312 50.7889 18.47 48.3622 17.8712L46.6289 11.773C46.4871 11.253 46.0144 10.8906 45.4628 10.8906H39.5695C39.0338 10.8906 38.5611 11.253 38.4035 11.773L36.6702 17.8712C34.2277 18.47 31.9429 19.4312 29.8629 20.6918L24.3163 17.6033C23.8435 17.3354 23.2605 17.43 22.8823 17.8082L18.7066 21.9681C18.3284 22.3463 18.2496 22.9451 18.5018 23.4021L21.5902 28.9487C20.3296 31.0287 19.3684 33.3293 18.7696 35.756L12.6715 37.4893C12.1515 37.6311 11.7891 38.1038 11.7891 38.6553V44.5486C11.7891 45.0844 12.1515 45.5571 12.6715 45.7147L18.7696 47.448C19.3684 49.8904 20.3296 52.1753 21.5902 54.2553L18.5018 59.8019C18.2339 60.2746 18.3284 60.8577 18.7066 61.2358L22.8666 65.4273C23.2448 65.8055 23.8435 65.8843 24.3005 65.6322L29.8472 62.5437C31.9271 63.8043 34.2277 64.7655 36.6544 65.3643L38.3877 71.4625C38.5295 71.9824 39.0023 72.3449 39.5538 72.3449H45.4471C45.9828 72.3449 46.4556 71.9824 46.6131 71.4625L48.3465 65.3643C50.7889 64.7655 53.0737 63.8043 55.1537 62.5437L60.7003 65.6322C61.1731 65.9001 61.7561 65.8055 62.1343 65.4273L66.31 61.2516C66.6882 60.8734 66.767 60.2746 66.5149 59.8177L63.4264 54.271C64.687 52.191 65.6482 49.8904 66.247 47.4638L72.3451 45.7305C72.8809 45.5729 73.2433 45.1002 73.2433 44.5644Z" fill="white"/>
<path d="M52.9716 52.0927C58.756 46.3083 58.756 36.93 52.9716 31.1455C47.1872 25.3611 37.8088 25.3611 32.0244 31.1455C26.24 36.9299 26.24 46.3083 32.0244 52.0927C37.8088 57.8772 47.1872 57.8771 52.9716 52.0927Z" fill="#ED1164"/>
<path d="M42.5186 53.8135C49.2544 53.8135 54.7149 48.353 54.7149 41.6172C54.7149 34.8814 49.2544 29.4209 42.5186 29.4209C35.7827 29.4209 30.3223 34.8814 30.3223 41.6172C30.3223 48.353 35.7827 53.8135 42.5186 53.8135Z" fill="#FFD9E7"/>
<path d="M42.5171 60.8421C31.9123 60.8421 23.293 52.2228 23.293 41.618C23.293 41.1767 23.6396 40.8301 24.0808 40.8301C24.5221 40.8301 24.8687 41.1767 24.8687 41.618C24.8687 51.3561 32.779 59.2664 42.5171 59.2664C42.9583 59.2664 43.305 59.613 43.305 60.0542C43.305 60.4954 42.9426 60.8421 42.5171 60.8421Z" fill="#ED1164"/>
<path d="M60.9507 42.4066C60.5095 42.4066 60.1628 42.0599 60.1628 41.6187C60.1628 31.8805 52.2526 23.9703 42.5144 23.9703C42.0732 23.9703 41.7266 23.6236 41.7266 23.1824C41.7266 22.7412 42.0732 22.3945 42.5144 22.3945C53.1192 22.3945 61.7386 31.0139 61.7386 41.6187C61.7386 42.0599 61.3762 42.4066 60.9507 42.4066Z" fill="#ED1164"/>
<path d="M34.59 34.9054H10.5914C9.72471 34.9054 9.01562 34.1963 9.01562 33.3297V17.9976C9.01562 17.131 9.72471 16.4219 10.5914 16.4219H34.59C35.4567 16.4219 36.1658 17.131 36.1658 17.9976V33.3297C36.1658 34.1963 35.4567 34.9054 34.59 34.9054Z" fill="white"/>
<path d="M36.1502 21.1527V17.5758C36.1502 16.7091 35.4411 16 34.5744 16H10.5758C9.70909 16 9 16.7091 9 17.5758V21.1527H36.1502Z" fill="#F798BC"/>
<path d="M14.6721 30.6045C14.6406 30.6045 14.6248 30.6045 14.5933 30.6045C14.2782 30.573 14.0103 30.3681 13.9157 30.0687L12.8285 26.7597C12.6866 26.35 12.923 25.9088 13.3327 25.7669C13.7424 25.6251 14.1836 25.8615 14.3254 26.2712L14.8454 27.8469L15.1291 27.3112C15.2709 27.0591 15.5388 26.9015 15.8224 26.9015C16.106 26.9015 16.3739 27.0591 16.5157 27.3112L16.7994 27.8469L17.3193 26.2712C17.4612 25.8615 17.9024 25.6251 18.3121 25.7669C18.7218 25.9088 18.9581 26.35 18.8163 26.7597L17.729 30.0687C17.6345 30.3681 17.3666 30.573 17.0515 30.6045C16.7363 30.636 16.4369 30.4784 16.2951 30.1948L15.8224 29.3281L15.3497 30.1948C15.2394 30.4469 14.9715 30.6045 14.6721 30.6045Z" fill="#ED1164"/>
<path d="M21.4162 30.6045C21.3847 30.6045 21.369 30.6045 21.3374 30.6045C21.0223 30.573 20.7544 30.3681 20.6599 30.0687L19.5726 26.7597C19.4308 26.35 19.6671 25.9088 20.0768 25.7669C20.4865 25.6251 20.9277 25.8615 21.0696 26.2712L21.5896 27.8469L21.8732 27.3112C22.015 27.0591 22.2829 26.9015 22.5665 26.9015C22.8502 26.9015 23.118 27.0591 23.2599 27.3112L23.5435 27.8469L24.0635 26.2712C24.2053 25.8615 24.6465 25.6251 25.0562 25.7669C25.4659 25.9088 25.7023 26.35 25.5605 26.7597L24.4732 30.0687C24.3786 30.3681 24.1108 30.573 23.7956 30.6045C23.4805 30.636 23.1811 30.4784 23.0393 30.1948L22.5665 29.3281L22.0938 30.1948C21.9835 30.4469 21.7156 30.6045 21.4162 30.6045Z" fill="#ED1164"/>
<path d="M30.4923 30.6045C30.2087 30.6045 29.9408 30.4469 29.799 30.1948L29.3263 29.3281L28.8536 30.1948C28.696 30.4784 28.3966 30.636 28.0972 30.6045C27.7821 30.573 27.5142 30.3681 27.4196 30.0687L26.3324 26.7597C26.1905 26.35 26.4269 25.9088 26.8366 25.7669C27.2463 25.6251 27.6875 25.8615 27.8293 26.2712L28.3493 27.8469L28.633 27.3112C28.7748 27.0591 29.0427 26.9015 29.3263 26.9015C29.6099 26.9015 29.8778 27.0591 30.0196 27.3112L30.3033 27.8469L30.8233 26.2712C30.9651 25.8615 31.4063 25.6251 31.816 25.7669C32.2257 25.9088 32.462 26.35 32.3202 26.7597L31.233 30.0687C31.1384 30.3681 30.8705 30.573 30.5554 30.6045C30.5396 30.6045 30.5081 30.6045 30.4923 30.6045Z" fill="#ED1164"/>
</svg>
