<svg width="95" height="86" viewBox="0 0 95 86" fill="none" xmlns="http://www.w3.org/2000/svg">
<path d="M83.4196 77.7837C90.36 69.5185 94.5333 58.8447 94.4998 47.1929C94.4273 21.492 73.5779 0.362368 47.9194 0.00471212C21.5188 -0.364121 0 20.9667 0 47.3271C0 58.9285 4.16763 69.552 11.0802 77.7837C11.309 78.0575 11.7274 78.0687 11.9785 77.8172L47.2499 42.4875L82.5213 77.8172C82.7724 78.0743 83.1908 78.0575 83.4196 77.7837Z" fill="#03479C"/>
<path d="M46.7032 86.0001C68.06 86.0001 85.3731 68.687 85.3731 47.3301C85.3731 25.9733 68.06 8.66016 46.7032 8.66016C25.3463 8.66016 8.0332 25.9733 8.0332 47.3301C8.0332 68.687 25.3463 86.0001 46.7032 86.0001Z" fill="#B0CBED"/>
<mask id="mask0_1232_3460" style="mask-type:alpha" maskUnits="userSpaceOnUse" x="8" y="8" width="78" height="78">
<path d="M46.7032 86.0001C68.06 86.0001 85.3731 68.687 85.3731 47.3301C85.3731 25.9733 68.06 8.66016 46.7032 8.66016C25.3463 8.66016 8.0332 25.9733 8.0332 47.3301C8.0332 68.687 25.3463 86.0001 46.7032 86.0001Z" fill="#FBC000"/>
</mask>
<g mask="url(#mask0_1232_3460)">
<g opacity="0.8">
<path d="M109.816 110.779L18.3457 73.1094L59.5937 72.2501L62.1717 53.3448V50.7668L63.031 14.6748L115.45 70.8756L109.816 110.779Z" fill="#9BBDE8" style="mix-blend-mode:multiply"/>
</g>
</g>
<path d="M24.7539 9.31348V73.2867H57.1367C61.6669 73.2867 65.3394 69.6142 65.3394 65.084V9.31348C65.3394 8.58825 64.7511 8 64.0259 8H26.0674C25.3422 8 24.7539 8.58825 24.7539 9.31348Z" fill="white"/>
<path d="M65.338 9.31348V65.0845C65.338 69.6137 61.6651 73.2867 57.1349 73.2867H53.3633C57.894 73.2867 61.5669 69.6137 61.5669 65.0845V9.31348C61.5669 8.58825 60.9782 8 60.253 8H64.0246C64.7498 8 65.338 8.58825 65.338 9.31348Z" fill="#CBCBCD" fill-opacity="0.32"/>
<path d="M47.0992 61.7451C47.8244 61.7451 48.4127 62.3329 48.4127 63.0586V65.0839C48.4127 69.6136 52.0852 73.286 56.6149 73.286H16.0269C11.4967 73.286 7.82422 69.6136 7.82422 65.0834V63.0586C7.82422 62.3334 8.41197 61.7451 9.1377 61.7451H47.0992Z" fill="#EFEFEF"/>
<path d="M36.094 30.1691C36.094 31.4866 35.0256 32.5545 33.7082 32.5545C32.3907 32.5545 31.3223 31.4866 31.3223 30.1691C31.3223 28.8511 32.3907 27.7832 33.7082 27.7832C35.0256 27.7832 36.094 28.8511 36.094 30.1691Z" fill="#B0CBED"/>
<path d="M44.8689 31.3665H40.0419C39.4975 31.3665 39.0566 30.9256 39.0566 30.3812C39.0566 29.8373 39.4975 29.3965 40.0419 29.3965H44.8689C45.4134 29.3965 45.8542 29.8373 45.8542 30.3812C45.8542 30.9256 45.4134 31.3665 44.8689 31.3665Z" fill="#03479C"/>
<path d="M56.8696 33.7273H40.0419C39.4975 33.7273 39.0566 33.2865 39.0566 32.7421C39.0566 32.1982 39.4975 31.7568 40.0419 31.7568H56.8696C57.414 31.7568 57.8548 32.1982 57.8548 32.7421C57.8548 33.2865 57.414 33.7273 56.8696 33.7273Z" fill="#03479C"/>
<path d="M40.0469 28.5818C39.5054 28.5818 39.0601 28.145 39.0567 27.6025C39.0532 27.0586 39.4865 26.6148 40.0304 26.6113H40.0404H40.0469C40.5878 26.6113 41.0286 27.0482 41.0321 27.5901C41.0351 28.1345 40.5968 28.5783 40.0529 28.5818C40.0509 28.5818 40.0489 28.5818 40.0469 28.5818Z" fill="#03479C"/>
<path d="M36.094 40.5773C36.094 41.8948 35.0256 42.9632 33.7082 42.9632C32.3907 42.9632 31.3223 41.8948 31.3223 40.5773C31.3223 39.2598 32.3907 38.1914 33.7082 38.1914C35.0256 38.1914 36.094 39.2598 36.094 40.5773Z" fill="#B0CBED"/>
<path d="M44.8689 41.7737H40.0419C39.4975 41.7737 39.0566 41.3329 39.0566 40.7889C39.0566 40.2445 39.4975 39.8037 40.0419 39.8037H44.8689C45.4134 39.8037 45.8542 40.2445 45.8542 40.7889C45.8542 41.3329 45.4134 41.7737 44.8689 41.7737Z" fill="#03479C"/>
<path d="M56.8696 44.1355H40.0419C39.4975 44.1355 39.0566 43.6947 39.0566 43.1503C39.0566 42.6064 39.4975 42.165 40.0419 42.165H56.8696C57.414 42.165 57.8548 42.6064 57.8548 43.1503C57.8548 43.6947 57.414 44.1355 56.8696 44.1355Z" fill="#03479C"/>
<path d="M40.0469 38.989C39.5054 38.989 39.0601 38.5522 39.0567 38.0103C39.0532 37.4658 39.4865 37.022 40.0304 37.0186H40.0404H40.0469C40.5878 37.0186 41.0286 37.4559 41.0321 37.9978C41.0351 38.5417 40.5968 38.9855 40.0529 38.989C40.0509 38.989 40.0489 38.989 40.0469 38.989Z" fill="#03479C"/>
<path d="M35.4534 51.6339C35.4534 52.9514 34.385 54.0198 33.0675 54.0198C31.7501 54.0198 30.6816 52.9514 30.6816 51.6339C30.6816 50.3165 31.7501 49.248 33.0675 49.248C34.385 49.248 35.4534 50.3165 35.4534 51.6339Z" fill="#B0CBED"/>
<path d="M44.8689 52.1814H40.0419C39.4975 52.1814 39.0566 51.7401 39.0566 51.1962C39.0566 50.6518 39.4975 50.2109 40.0419 50.2109H44.8689C45.4134 50.2109 45.8542 50.6518 45.8542 51.1962C45.8542 51.7401 45.4134 52.1814 44.8689 52.1814Z" fill="#03479C"/>
<path d="M56.8696 54.5413H40.0419C39.4975 54.5413 39.0566 54.1004 39.0566 53.556C39.0566 53.0121 39.4975 52.5713 40.0419 52.5713H56.8696C57.414 52.5713 57.8548 53.0121 57.8548 53.556C57.8548 54.1004 57.414 54.5413 56.8696 54.5413Z" fill="#03479C"/>
<path d="M40.0469 49.3972C39.5054 49.3972 39.0601 48.9604 39.0567 48.4185C39.0532 47.874 39.4865 47.4302 40.0304 47.4268H40.0404H40.0469C40.5878 47.4268 41.0286 47.8641 41.0321 48.406C41.0351 48.9499 40.5968 49.3937 40.0529 49.3972C40.0509 49.3972 40.0489 49.3972 40.0469 49.3972Z" fill="#03479C"/>
<path d="M55.4952 19.8708H33.0965C32.4188 19.8708 31.8691 19.298 31.8691 18.5913V15.5857C31.8691 14.8795 32.4188 14.3066 33.0965 14.3066H55.4952C56.1734 14.3066 56.7226 14.8795 56.7226 15.5857V18.5913C56.7226 19.298 56.1734 19.8708 55.4952 19.8708Z" fill="#417CC7"/>
<path d="M77.3481 44.9987H60.6272C59.9876 44.9987 59.4688 44.4798 59.4688 43.8402V27.1194C59.4688 26.4798 59.9876 25.9609 60.6272 25.9609H77.3481C77.9876 25.9609 78.5065 26.4798 78.5065 27.1194V43.8402C78.5083 44.4798 77.9876 44.9987 77.3481 44.9987Z" fill="#03479C"/>
<path d="M28.4457 65.7819H11.7248C11.0853 65.7819 10.5664 65.263 10.5664 64.6234V47.9026C10.5664 47.263 11.0853 46.7441 11.7248 46.7441H28.4457C29.0853 46.7441 29.6042 47.263 29.6042 47.9026V64.6234C29.606 65.263 29.0853 65.7819 28.4457 65.7819Z" fill="white"/>
<path d="M17.7231 54.3534C19.0286 54.3534 20.0868 53.2952 20.0868 51.9897C20.0868 50.6843 19.0286 49.626 17.7231 49.626C16.4177 49.626 15.3594 50.6843 15.3594 51.9897C15.3594 53.2952 16.4177 54.3534 17.7231 54.3534Z" fill="#B0CBED"/>
<mask id="mask1_1232_3460" style="mask-type:alpha" maskUnits="userSpaceOnUse" x="10" y="46" width="20" height="20">
<path d="M28.4457 65.7819H11.7248C11.0853 65.7819 10.5664 65.263 10.5664 64.6234V47.9026C10.5664 47.263 11.0853 46.7441 11.7248 46.7441H28.4457C29.0853 46.7441 29.6042 47.263 29.6042 47.9026V64.6234C29.606 65.263 29.0853 65.7819 28.4457 65.7819Z" fill="white"/>
</mask>
<g mask="url(#mask1_1232_3460)">
<path d="M13.8066 65.654L26.2342 52.4751C27.3602 51.2807 29.2556 51.2645 30.4014 52.4373L44.4216 66.7854L13.8066 65.654Z" fill="#03479C"/>
<path d="M8.44336 66.3175L16.6822 57.5796C17.8082 56.3852 19.7035 56.3689 20.8493 57.5418L30.2088 67.121L8.44336 66.3175Z" fill="#03479C"/>
</g>
<g style="mix-blend-mode:multiply" opacity="0.4">
<path d="M72.7329 34.8555L78.5089 41.3539V43.8834C78.5089 44.4996 78.0099 44.9968 77.3955 44.9968H70.4322L65.0508 40.1414L67.5821 34.2051L72.7329 34.8555Z" fill="#03479C"/>
</g>
<path d="M64.8887 31.5403V39.4188C64.8887 39.9755 65.4922 40.3232 65.9751 40.0421L72.7347 36.1038C73.2122 35.8245 73.2122 35.1345 72.7347 34.8553L65.9751 30.9169C65.4922 30.6359 64.8887 30.9836 64.8887 31.5403Z" fill="white"/>
</svg>
