<svg width="96" height="87" viewBox="0 0 96 87" fill="none" xmlns="http://www.w3.org/2000/svg">
<path d="M84.7441 79.0188C91.7948 70.6223 96.0343 59.779 96.0003 47.9423C95.9266 21.8333 74.7462 0.368122 48.6803 0.00478694C21.8605 -0.369902 0 21.2996 0 48.0785C0 59.8642 4.23381 70.6564 11.2561 79.0188C11.4885 79.2969 11.9136 79.3083 12.1687 79.0528L48.0001 43.1622L83.8316 79.0528C84.0867 79.314 84.5118 79.2969 84.7441 79.0188Z" fill="#ED1164"/>
<path d="M9.3457 42.7453C11.91 23.6938 28.2399 9 47.9994 9C69.5366 9 86.9992 26.4626 86.9992 47.9998C86.9992 69.537 69.5366 86.9996 47.9994 86.9996C34.4226 86.9996 22.4505 80.0618 15.4655 69.5213L9.3457 42.7453Z" fill="#FFD9E7"/>
<path d="M86.9995 47.9996C86.9995 47.3388 86.9837 46.6781 86.9523 46.0174L55.5825 14.6633L51.1618 47.9996L40.637 52.0742L31.2922 42.7294L14.1914 63.9677L15.4657 69.5211C22.4507 80.0458 34.4071 86.9994 47.9996 86.9994C69.5369 86.9994 86.9995 69.5368 86.9995 47.9996Z" fill="#FFC7DB"/>
<path d="M40.6372 65.9657L13.9084 66.9725C13.9084 66.9568 13.8927 66.941 13.8769 66.9253C12.1936 63.889 10.8878 60.5853 10.0698 57.1085C9.36184 54.1823 9 51.1303 9 47.9996C9 47.0085 9.03146 46.0174 9.11012 45.042L38.9381 46.9928L39.8506 57.1085L40.0551 59.3582L40.6372 65.9657Z" fill="#FCC78D"/>
<path d="M40.6377 65.9656L37.4599 66.0757L31.2929 66.2959L13.8775 66.9252C12.1941 63.8889 10.8884 60.5852 10.0703 57.1084H39.8511L40.0557 59.3581L40.6377 65.9656Z" fill="#F4AF71"/>
<path d="M36.8945 51.6182V63.3229C36.8945 67.1772 40.0409 70.3236 43.8953 70.3236H56.1821C58.652 70.3236 60.6814 68.2942 60.6814 65.8243V49.1168C60.6814 46.6469 58.652 44.6174 56.1821 44.6174H43.8953C40.0409 44.6174 36.8945 47.7638 36.8945 51.6182Z" fill="#F4AF71"/>
<path d="M56.1821 70.3233H43.8953C41.0163 70.3233 38.5307 68.5614 37.4609 66.0757C37.099 65.2261 36.8945 64.298 36.8945 63.3226V57.1084H60.6814V65.824C60.6814 68.0265 59.0768 69.8828 56.9687 70.2447C56.717 70.3076 56.4495 70.3233 56.1821 70.3233Z" fill="#EA9F60"/>
<path d="M63.227 30.3174L55.5812 32.158L47.9512 30.3174L51.1762 23.7099L55.597 18.77L60.0177 23.7099L63.227 30.3174Z" fill="#FFD3A4"/>
<path d="M47.9512 30.3174H63.227V76.3966H47.9512V30.3174Z" fill="#FF5C98"/>
<path d="M60.0015 23.7099H51.1758L55.5965 14.6482L60.0015 23.7099Z" fill="#231F20"/>
<path d="M63.2259 30.3174L58.9782 31.34L55.5801 32.158V18.77L60.0008 23.7099L63.2259 30.3174Z" fill="#EFB078"/>
<path d="M55.5801 30.3174H63.2101V76.3966H55.5801V30.3174Z" fill="#ED1164"/>
<path d="M52.4824 67.0203C52.4824 68.7981 53.9455 70.2612 55.7232 70.2612H62.2678C64.0455 70.2612 65.5086 68.7981 65.5086 67.0203C65.5086 65.2426 64.0455 63.7795 62.2678 63.7795H55.7232C53.9455 63.7795 52.4824 65.2426 52.4824 67.0203Z" fill="#E08A4F"/>
<path d="M52.9531 60.4446C52.9531 62.2852 54.4477 63.7798 56.2883 63.7798H63.588C65.4287 63.7798 66.9232 62.2852 66.9232 60.4446C66.9232 58.6039 65.4287 57.1094 63.588 57.1094H56.2883C54.4477 57.1094 52.9531 58.6197 52.9531 60.4446Z" fill="#EA9F60"/>
<path d="M55.125 53.7739C55.125 55.6146 56.6195 57.1091 58.4602 57.1091H63.9664C65.8071 57.1091 67.3016 55.6146 67.3016 53.7739C67.3016 51.9333 65.8071 50.4387 63.9664 50.4387H58.4602C56.6195 50.4387 55.125 51.949 55.125 53.7739Z" fill="#F4AF71"/>
<path d="M49.5566 47.4812C49.5566 49.3218 51.0512 50.8164 52.8918 50.8164H63.9672C65.8079 50.8164 67.3024 49.3218 67.3024 47.4812C67.3024 45.6405 65.8079 44.146 63.9672 44.146H52.8918C51.0669 44.146 49.5566 45.6405 49.5566 47.4812Z" fill="#EA9F60"/>
<path d="M60.0008 23.7098H55.5801V14.6638L60.0008 23.7098Z" fill="#404041"/>
<path d="M36.3418 59.3739H41.9267C46.2215 59.3739 49.6983 55.1734 49.6983 50.8943H52.4829C52.4829 54.4969 54.7798 57.6905 58.2094 58.839C58.8072 59.0435 59.4208 58.603 59.4208 57.9737V49.0064C59.4208 45.1521 56.2901 42.0371 52.4514 42.0371H44.8214C40.4793 42.0371 36.6879 45.5768 36.6879 49.9189L36.3418 59.3739Z" fill="#FCC78D"/>
<path d="M55.3916 57.235C55.3444 57.1878 55.2972 57.1563 55.25 57.1091H59.4033V57.9587C59.4033 58.4778 58.9785 58.8711 58.4908 58.8711C58.3964 58.8711 58.302 58.8554 58.1919 58.8239C57.1378 58.4778 56.1939 57.9272 55.3916 57.235Z" fill="#FFBB83"/>
<path d="M41.9266 59.3742H36.3417L35.209 57.1245H47.071C45.6865 58.4775 43.8931 59.3742 41.9266 59.3742Z" fill="#F4AF71"/>
<path d="M31.2924 42.7451V69.5368H15.4659C12.9959 65.8083 11.1396 61.6079 10.0698 57.1242C9.36184 54.1981 9 51.146 9 48.0154C9 46.2376 9.12586 44.4756 9.34611 42.7608L31.2924 42.7451Z" fill="white"/>
<path d="M31.2929 57.1084V69.521H15.4664C12.9965 65.7925 11.1401 61.592 10.0703 57.1084H31.2929Z" fill="#E6E7E8"/>
</svg>
