<svg width="96" height="87" viewBox="0 0 96 87" fill="none" xmlns="http://www.w3.org/2000/svg">
<path d="M84.7441 79.0188C91.7948 70.6223 96.0343 59.779 96.0003 47.9423C95.9266 21.8333 74.7462 0.368122 48.6803 0.00478694C21.8605 -0.369902 0 21.2996 0 48.0785C0 59.8642 4.23381 70.6564 11.2561 79.0188C11.4885 79.2969 11.9136 79.3083 12.1687 79.0528L48.0001 43.1622L83.8316 79.0528C84.0867 79.314 84.5118 79.2969 84.7441 79.0188Z" fill="#ED1164"/>
<path d="M48 87C69.5391 87 87 69.5391 87 48C87 26.4609 69.5391 9 48 9C26.4609 9 9 26.4609 9 48C9 69.5391 26.4609 87 48 87Z" fill="#FFD9E7"/>
<path d="M86.9986 47.9998C86.9986 66.6472 73.9091 82.2314 56.4144 86.084C39.3933 74.984 21.5512 61.5946 11.7617 52.9735C16.3722 47.3209 20.4459 57.0788 27.4407 53.7946C45.4722 45.3472 58.1354 21.1104 58.1354 21.1104C58.1354 21.1104 86.2565 40.4209 86.367 41.0051C86.7775 43.2788 86.9986 45.6156 86.9986 47.9998Z" fill="#FFC7DB"/>
<path d="M27.1442 29.2578H67.7389C70.0915 29.2578 72.0179 31.1683 72.0179 33.5368V59.1789C72.0179 61.5315 70.1073 63.4578 67.7389 63.4578H27.1442C24.7915 63.4578 22.8652 61.5473 22.8652 59.1789V33.521C22.881 31.1683 24.7915 29.2578 27.1442 29.2578Z" fill="#ED1164"/>
<path d="M59.1934 35.6682H72.0144V46.3577H59.1934V35.6682Z" fill="#F55290"/>
<path d="M14.32 19.6418H54.9147C57.2673 19.6418 59.1936 21.5524 59.1936 23.9208V49.5629C59.1936 51.9155 57.2831 53.8418 54.9147 53.8418H14.32C11.9673 53.8418 10.041 51.9313 10.041 49.5629V23.9208C10.0568 21.5524 11.9673 19.6418 14.32 19.6418Z" fill="white"/>
<path d="M14.3203 23.9211H22.8624V32.4632H14.3203V23.9211Z" fill="#FFD9E7"/>
<path d="M18.6016 27.1106H22.8805V29.2422H18.6016V27.1106Z" fill="#ED3B76"/>
<path d="M45.3125 22.8469H49.5757V24.9785H45.3125V22.8469Z" fill="#E6E7E8"/>
<path d="M51.707 22.8469H55.986V24.9785H51.707V22.8469Z" fill="#E6E7E8"/>
<path d="M17.5254 37.7993H23.9359V39.9309H17.5254V37.7993Z" fill="#E6E7E8"/>
<path d="M27.1426 37.7993H33.5531V39.9309H27.1426V37.7993Z" fill="#E6E7E8"/>
<path d="M36.7559 37.7993H43.1664V39.9309H36.7559V37.7993Z" fill="#E6E7E8"/>
<path d="M46.3711 37.7993H52.7816V39.9309H46.3711V37.7993Z" fill="#E6E7E8"/>
<path d="M45.3132 47.4157C46.4905 47.4157 47.4448 46.4614 47.4448 45.2842C47.4448 44.1069 46.4905 43.1526 45.3132 43.1526C44.136 43.1526 43.1816 44.1069 43.1816 45.2842C43.1816 46.4614 44.136 47.4157 45.3132 47.4157Z" fill="#ED1164"/>
<path d="M49.5769 47.4157C50.7541 47.4157 51.7085 46.4614 51.7085 45.2842C51.7085 44.1069 50.7541 43.1526 49.5769 43.1526C48.3997 43.1526 47.4453 44.1069 47.4453 45.2842C47.4453 46.4614 48.3997 47.4157 49.5769 47.4157Z" fill="#FB669E"/>
<path d="M29.2891 57.0312H31.4206V59.1628H29.2891V57.0312Z" fill="#FFB3CF"/>
<path d="M33.5527 57.0312H39.9633V59.1628H33.5527V57.0312Z" fill="#FFB3CF"/>
<path d="M28.2148 47.4155H30.3464V49.5471H28.2148V47.4155Z" fill="#E6E7E8"/>
<path d="M32.4941 47.4155H34.6257V49.5471H32.4941V47.4155Z" fill="#E6E7E8"/>
<path d="M36.7578 47.4155H38.8894V49.5471H36.7578V47.4155Z" fill="#E6E7E8"/>
<path d="M42.1095 57.0312H49.578V59.1628H42.0938V57.0312H42.1095Z" fill="#FFB3CF"/>
</svg>
