<svg width="95" height="86" viewBox="0 0 95 86" fill="none" xmlns="http://www.w3.org/2000/svg">
<path d="M83.4196 77.7837C90.36 69.5185 94.5333 58.8447 94.4998 47.1929C94.4273 21.492 73.5779 0.362368 47.9194 0.00471212C21.5188 -0.364121 0 20.9667 0 47.3271C0 58.9285 4.16763 69.552 11.0802 77.7837C11.309 78.0575 11.7274 78.0687 11.9785 77.8172L47.2499 42.4875L82.5213 77.8172C82.7724 78.0743 83.1908 78.0575 83.4196 77.7837Z" fill="#03479C"/>
<path d="M47.25 85.8486C68.3749 85.8486 85.5 68.7235 85.5 47.5986C85.5 26.4737 68.3749 9.34863 47.25 9.34863C26.1251 9.34863 9 26.4737 9 47.5986C9 68.7235 26.1251 85.8486 47.25 85.8486Z" fill="#B0CBED"/>
<mask id="mask0_1232_3535" style="mask-type:alpha" maskUnits="userSpaceOnUse" x="9" y="9" width="77" height="77">
<path d="M47.25 85.8486C68.3749 85.8486 85.5 68.7235 85.5 47.5986C85.5 26.4737 68.3749 9.34863 47.25 9.34863C26.1251 9.34863 9 26.4737 9 47.5986C9 68.7235 26.1251 85.8486 47.25 85.8486Z" fill="#FBC000"/>
</mask>
<g mask="url(#mask0_1232_3535)">
<g opacity="0.8">
<path d="M100.467 114.43L22.9648 69.045L26.4559 55.0807L48.1006 52.986L71.1416 21.5664L115.251 70.8886L100.467 114.43Z" fill="#A2C1E9" style="mix-blend-mode:multiply"/>
</g>
</g>
<path d="M68.2108 53.0289H49.5908V47.916H46.519V53.0289H27.8991H24.8301V56.1211V60.37H27.8991V56.1211H46.519V60.37H49.5908V56.1211H68.2108V60.37H71.2826V56.1211V53.0289H68.2108Z" fill="white"/>
<path d="M48.1266 70.4424C44.9278 70.4424 42.3359 67.8333 42.3359 64.6133C42.3359 61.3932 44.9278 58.7842 48.1266 58.7842C51.3255 58.7842 53.9173 61.3932 53.9173 64.6133C53.9173 67.8305 51.3227 70.4424 48.1266 70.4424Z" fill="#03479C"/>
<path d="M26.6266 70.4424C23.4278 70.4424 20.8359 67.8333 20.8359 64.6133C20.8359 61.3932 23.4278 58.7842 26.6266 58.7842C29.8255 58.7842 32.4173 61.3932 32.4173 64.6133C32.4173 67.8305 29.8255 70.4424 26.6266 70.4424Z" fill="#03479C"/>
<path d="M70.2399 70.4424C67.0411 70.4424 64.4492 67.8333 64.4492 64.6133C64.4492 61.3932 67.0411 58.7842 70.2399 58.7842C73.4388 58.7842 76.0306 61.3932 76.0306 64.6133C76.0306 67.8305 73.4388 70.4424 70.2399 70.4424Z" fill="#03479C"/>
<path d="M65.2885 50.2442H29.3146C28.2101 50.2442 27.3147 49.3488 27.3146 48.2443L27.3145 41.1179V11C27.3145 9.89543 28.2099 9 29.3145 9H70.2791C71.3837 9 72.2791 9.89543 72.2791 11V43.2072C72.2791 47.0924 69.148 50.2442 65.2885 50.2442Z" fill="white"/>
<path d="M27.1562 11C27.1562 9.89543 28.0517 9 29.1562 9H69.842C70.9465 9 71.842 9.89543 71.842 11V19.4732H27.1562V11Z" fill="#F4F2F2"/>
<path d="M34.1387 39.5313C34.1387 37.3221 35.9295 35.5312 38.1387 35.5312H60.8601C63.0692 35.5312 64.8601 37.3221 64.8601 39.5312V41.3062C64.8601 43.5154 63.0692 45.3062 60.8601 45.3062H38.1387C35.9295 45.3062 34.1387 43.5154 34.1387 41.3062V39.5313Z" fill="#03479C"/>
<path d="M35.5332 25.7578C35.5332 24.9865 36.1584 24.3613 36.9296 24.3613H62.0653C62.8366 24.3613 63.4618 24.9865 63.4618 25.7578C63.4618 26.529 62.8366 27.1542 62.0653 27.1542H36.9296C36.1584 27.1542 35.5332 26.529 35.5332 25.7578Z" fill="#03479C"/>
<path d="M29.9473 14.5859C29.9473 13.8147 30.5725 13.1895 31.3437 13.1895C32.1149 13.1895 32.7401 13.8147 32.7401 14.5859C32.7401 15.3571 32.1149 15.9823 31.3437 15.9823C30.5725 15.9823 29.9473 15.3571 29.9473 14.5859Z" fill="#03479C"/>
<path d="M35.5332 14.5859C35.5332 13.8147 36.1584 13.1895 36.9296 13.1895C37.7009 13.1895 38.3261 13.8147 38.3261 14.5859C38.3261 15.3571 37.7009 15.9823 36.9296 15.9823C36.1584 15.9823 35.5332 15.3571 35.5332 14.5859Z" fill="#B0CBED"/>
<path d="M41.1211 14.5859C41.1211 13.8147 41.7463 13.1895 42.5175 13.1895C43.2887 13.1895 43.914 13.8147 43.914 14.5859C43.914 15.3571 43.2887 15.9823 42.5175 15.9823C41.7463 15.9823 41.1211 15.3571 41.1211 14.5859Z" fill="#03479C"/>
<path d="M35.5332 31.3427C35.5332 30.5715 36.1584 29.9463 36.9296 29.9463H62.0653C62.8366 29.9463 63.4618 30.5715 63.4618 31.3427C63.4618 32.1139 62.8366 32.7391 62.0653 32.7391H36.9296C36.1584 32.7391 35.5332 32.1139 35.5332 31.3427Z" fill="#03479C"/>
</svg>
