<svg width="96" height="87" viewBox="0 0 96 87" fill="none" xmlns="http://www.w3.org/2000/svg">
<path d="M84.7441 79.0188C91.7948 70.6223 96.0343 59.779 96.0003 47.9423C95.9266 21.8333 74.7462 0.368122 48.6803 0.00478694C21.8605 -0.369902 0 21.2996 0 48.0785C0 59.8642 4.23381 70.6564 11.2561 79.0188C11.4885 79.2969 11.9136 79.3083 12.1687 79.0528L48.0001 43.1622L83.8316 79.0528C84.0867 79.314 84.5118 79.2969 84.7441 79.0188Z" fill="#ED1164"/>
<path d="M48.4018 87C69.9299 87 87.3818 69.5481 87.3818 48.02C87.3818 26.492 69.9299 9.04004 48.4018 9.04004C26.8738 9.04004 9.42188 26.492 9.42188 48.02C9.42188 69.5481 26.8738 87 48.4018 87Z" fill="#FFD9E7"/>
<mask id="mask0_1232_3515" style="mask-type:alpha" maskUnits="userSpaceOnUse" x="9" y="9" width="79" height="78">
<path d="M48.4018 87C69.9299 87 87.3818 69.5481 87.3818 48.02C87.3818 26.492 69.9299 9.04004 48.4018 9.04004C26.8738 9.04004 9.42188 26.492 9.42188 48.02C9.42188 69.5481 26.8738 87 48.4018 87Z" fill="#FBC000"/>
</mask>
<g mask="url(#mask0_1232_3515)">
<g opacity="0.8">
<path d="M50.6893 90.8669L11.5547 54.0833L37.8816 40.3477L53.5355 63.1169L65.6317 51.0208L83.4201 31.0977L99.074 67.3862L50.6893 90.8669Z" fill="#FFC7DB" style="mix-blend-mode:multiply"/>
</g>
</g>
<path d="M40.3102 31.5404L33.6719 35.373L49.6157 62.9886L56.2541 59.1559L40.3102 31.5404Z" fill="white"/>
<path d="M15.3352 54.3567L40.1751 40.0153C42.0555 38.9297 42.6998 36.5253 41.6141 34.6449C40.5285 32.7646 38.1241 32.1203 36.2437 33.2059L11.4038 47.5473C9.52345 48.6329 8.8792 51.0373 9.96482 52.9177C11.0505 54.798 13.4549 55.4423 15.3352 54.3567Z" fill="white"/>
<path d="M57.6902 66.1493L86.6504 29.8242C88.0039 28.1265 87.7249 25.6529 86.0272 24.2994C84.3294 22.9459 81.8559 23.2249 80.5023 24.9227L51.5421 61.2477C50.1886 62.9455 50.4677 65.419 52.1654 66.7725C53.8631 68.126 56.3367 67.847 57.6902 66.1493Z" fill="white"/>
<path d="M38.5823 42.147C42.5973 42.147 45.8521 38.8922 45.8521 34.8772C45.8521 30.8622 42.5973 27.6074 38.5823 27.6074C34.5673 27.6074 31.3125 30.8622 31.3125 34.8772C31.3125 38.8922 34.5673 42.147 38.5823 42.147Z" fill="#ED1164"/>
<path d="M56.9621 69.4489C60.4392 67.4414 61.6305 62.9953 59.623 59.5182C57.6155 56.0411 53.1694 54.8498 49.6923 56.8573C46.2152 58.8648 45.0239 63.3109 47.0314 66.788C49.0389 70.2651 53.485 71.4564 56.9621 69.4489Z" fill="#ED1164"/>
<path d="M22.8097 53.7946C26.2868 51.7871 27.4782 47.341 25.4707 43.8639C23.4632 40.3868 19.017 39.1955 15.54 41.203C12.0629 43.2105 10.8715 47.6566 12.879 51.1337C14.8865 54.6108 19.3327 55.8021 22.8097 53.7946Z" fill="#ED1164"/>
<path d="M75.9702 47.2192C78.7659 44.3376 78.6963 39.7351 75.8147 36.9394C72.9331 34.1436 68.3306 34.2132 65.5348 37.0948C62.7391 39.9765 62.8087 44.5789 65.6903 47.3747C68.5719 50.1705 73.1744 50.1009 75.9702 47.2192Z" fill="#ED1164"/>
</svg>
