<svg width="96" height="86" viewBox="0 0 96 86" fill="none" xmlns="http://www.w3.org/2000/svg">
<path d="M84.7441 79.0188C91.7948 70.6223 96.0343 59.779 96.0003 47.9423C95.9266 21.8333 74.7462 0.368122 48.6803 0.00478694C21.8605 -0.369902 0 21.2996 0 48.0785C0 59.8642 4.23381 70.6564 11.2561 79.0188C11.4885 79.2969 11.9136 79.3083 12.1687 79.0528L48.0001 43.1622L83.8316 79.0528C84.0867 79.314 84.5118 79.2969 84.7441 79.0188Z" fill="#ED1164"/>
<path d="M48.0371 86C69.5762 86 87.0371 68.5391 87.0371 47C87.0371 25.4609 69.5762 8 48.0371 8C26.498 8 9.03711 25.4609 9.03711 47C9.03711 68.5391 26.498 86 48.0371 86Z" fill="#FFD9E7"/>
<path d="M86.5742 46.9258C86.5742 68.4672 69.1156 85.9258 47.5742 85.9258C36.8035 85.9258 27.0535 81.5535 20 74.5C35.6762 73.6621 50.5 74.2707 50.5 63.5C50.5 41.9586 75 21 75 21C75 21 79 31 86.5742 46.9258Z" fill="#FFA5C3"/>
<path d="M24.7455 18.709H72.2384C74.3416 18.709 76.0327 20.4143 76.0327 22.5033V57.6469C76.0327 60.8017 73.4747 63.3455 70.3341 63.3455H26.6498C23.4949 63.3455 20.9512 60.7875 20.9512 57.6469V22.5033C20.9512 20.4001 22.6423 18.709 24.7455 18.709Z" fill="#ED1164"/>
<path d="M58.9369 73.8024C58.9369 73.8024 54.1905 71.8982 54.1905 68.1039V63.3574H42.7933V68.1039C42.7933 71.8982 38.0469 73.8024 38.0469 73.8024" fill="#F489AD"/>
<path d="M76.0469 24.4062H20.9512V54.8034H76.0469V24.4062Z" fill="white"/>
<path d="M48.4931 22.5058C49.019 22.5058 49.4453 22.0795 49.4453 21.5537C49.4453 21.0278 49.019 20.6016 48.4931 20.6016C47.9673 20.6016 47.541 21.0278 47.541 21.5537C47.541 22.0795 47.9673 22.5058 48.4931 22.5058Z" fill="white"/>
<path d="M24.7461 31.999C25.0019 31.999 25.2435 31.8995 25.414 31.7147L28.2704 28.8726C28.6257 28.5031 28.6257 27.9062 28.2562 27.5367C27.8867 27.1672 27.3041 27.1672 26.9204 27.5225L24.064 30.3789C23.794 30.6489 23.7087 31.061 23.865 31.4163C24.0213 31.7716 24.3624 31.999 24.7461 31.999Z" fill="#F0F1F1"/>
<path d="M33.9702 27.5388C33.6007 27.1693 33.0038 27.1693 32.6201 27.5388L24.0652 36.0938C23.8236 36.3354 23.7241 36.6907 23.8094 37.0175C23.8946 37.3444 24.1504 37.6144 24.4915 37.6996C24.8183 37.7849 25.1736 37.6854 25.4152 37.4438L33.9702 28.8889C34.3396 28.5052 34.3396 27.9083 33.9702 27.5388Z" fill="#F0F1F1"/>
<path d="M76.0479 74.7422H20.9521C20.4263 74.7422 20 74.3158 20 73.79C20 73.2642 20.4263 72.8379 20.9521 72.8379H76.0479C76.5737 72.8379 77 73.2642 77 73.79C77 74.3158 76.5737 74.7422 76.0479 74.7422Z" fill="#ED1164"/>
<path d="M57.7298 28.416H44.6131C43.732 28.416 43.0215 29.1266 43.0215 30.0076C43.0215 30.8887 43.732 31.5993 44.6131 31.5993H67.7911C68.6722 31.5993 69.3827 30.8887 69.3827 30.0076C69.3827 29.1266 68.6722 28.416 67.7911 28.416H57.7298Z" fill="#F489AD"/>
<path d="M61.3956 34.0139C63.601 34.0139 65.3889 32.226 65.3889 30.0206C65.3889 27.8152 63.601 26.0273 61.3956 26.0273C59.1902 26.0273 57.4023 27.8152 57.4023 30.0206C57.4023 32.226 59.1902 34.0139 61.3956 34.0139Z" fill="#ED1164"/>
<path d="M57.7298 47.2734H44.6131C43.732 47.2734 43.0215 47.984 43.0215 48.8651C43.0215 49.7461 43.732 50.4567 44.6131 50.4567H67.7911C68.6722 50.4567 69.3827 49.7461 69.3827 48.8651C69.3827 47.984 68.6722 47.2734 67.7911 47.2734H57.7298Z" fill="#F489AD"/>
<path d="M61.3956 52.8693C63.601 52.8693 65.3889 51.0815 65.3889 48.8761C65.3889 46.6707 63.601 44.8828 61.3956 44.8828C59.1902 44.8828 57.4023 46.6707 57.4023 48.8761C57.4023 51.0815 59.1902 52.8693 61.3956 52.8693Z" fill="#FAC4D6"/>
<path d="M57.0761 40.9801H67.7911C68.6722 40.9801 69.3827 40.2696 69.3827 39.3885C69.3827 38.5074 68.6722 37.7969 67.7911 37.7969H44.6131C43.732 37.7969 43.0215 38.5074 43.0215 39.3885C43.0215 40.2696 43.732 40.9801 44.6131 40.9801H57.0761Z" fill="#F489AD"/>
<path d="M53.4093 43.3654C55.6147 43.3654 57.4026 41.5776 57.4026 39.3722C57.4026 37.1668 55.6147 35.3789 53.4093 35.3789C51.2039 35.3789 49.416 37.1668 49.416 39.3722C49.416 41.5776 51.2039 43.3654 53.4093 43.3654Z" fill="#FFA5C3"/>
</svg>
