<svg width="95" height="85" viewBox="0 0 95 85" fill="none" xmlns="http://www.w3.org/2000/svg">
<path d="M83.4196 77.7837C90.36 69.5185 94.5333 58.8447 94.4998 47.1929C94.4273 21.492 73.5779 0.362368 47.9194 0.00471212C21.5188 -0.364121 0 20.9667 0 47.3271C0 58.9285 4.16763 69.552 11.0802 77.7837C11.309 78.0575 11.7274 78.0687 11.9785 77.8172L47.2499 42.4875L82.5213 77.8172C82.7724 78.0743 83.1908 78.0575 83.4196 77.7837Z" fill="#03479C"/>
<path d="M47.25 84.8477C68.3749 84.8477 85.5 67.7226 85.5 46.5977C85.5 25.4728 68.3749 8.34766 47.25 8.34766C26.1251 8.34766 9 25.4728 9 46.5977C9 67.7226 26.1251 84.8477 47.25 84.8477Z" fill="#B0CBED"/>
<mask id="mask0_1243_825" style="mask-type:alpha" maskUnits="userSpaceOnUse" x="9" y="8" width="77" height="77">
<path d="M47.25 84.8477C68.3749 84.8477 85.5 67.7226 85.5 46.5977C85.5 25.4728 68.3749 8.34766 47.25 8.34766C26.1251 8.34766 9 25.4728 9 46.5977C9 67.7226 26.1251 84.8477 47.25 84.8477Z" fill="#FBC000"/>
</mask>
<g mask="url(#mask0_1243_825)">
<g opacity="0.8">
<path d="M100.467 113.428L25.5 68.5L40 65.5L48.1006 51.9841L71.1416 20.5645L115.251 69.8866L100.467 113.428Z" fill="#A2C1E9" style="mix-blend-mode:multiply"/>
</g>
</g>
<path d="M72.0559 20.2813V60.6426C72.0559 61.471 53.8737 61.1803 24.3985 61.1803C20.8376 61.1803 17.9453 58.288 17.9453 54.7272V20.2813C17.9453 16.7204 20.8376 13.8281 24.3985 13.8281H65.6027C69.149 13.8281 72.0559 16.7204 72.0559 20.2813Z" fill="white"/>
<path d="M58.1006 60.3804L58.0134 67.3859C57.9989 68.287 57.2722 68.9992 56.371 68.9992H33.4217C32.5205 68.9992 31.7793 68.2579 31.7793 67.3568V60.3513C31.7793 59.4502 32.5205 58.709 33.4217 58.709H56.4582C57.3739 58.709 58.1151 59.4648 58.1006 60.3804Z" fill="#03479C"/>
<path d="M55.5021 65.7148H26.6228C25.7217 65.7148 24.9805 66.4561 24.9805 67.3572C24.9805 68.2583 25.7217 68.9996 26.6228 68.9996H55.5021C56.4033 68.9996 57.1445 68.2583 57.1445 67.3572C57.1445 66.4561 56.4033 65.7148 55.5021 65.7148Z" fill="#E7F1FF"/>
<path d="M57.1427 67.3572C57.1427 68.2583 56.4015 68.9996 55.5004 68.9996H44.9922V65.7148H55.5004C56.4015 65.7148 57.1427 66.4561 57.1427 67.3572Z" fill="#C0D9FF"/>
<path d="M66.3288 13H23.6712C19.994 13 17 15.994 17 19.6712V55.3234C17 59.0005 19.994 61.9945 23.6712 61.9945C69.7734 61.9945 67.666 62.0527 67.666 61.9073L71.3722 61.8928C72.2733 61.8928 73 61.1516 73 60.2505V19.6712C73 15.994 70.006 13 66.3288 13ZM20.2702 19.6712C20.2702 17.7963 21.7963 16.2702 23.6712 16.2702H66.3288C68.2037 16.2702 69.7298 17.7963 69.7298 19.6712V51.7189H20.2702V19.6712Z" fill="#E7F1FF"/>
<path d="M72.9995 19.6712V60.2505C72.9995 61.1516 72.2727 61.8928 71.3716 61.8928L67.6654 61.9073C67.6654 62.0527 69.4095 61.9945 45.0067 61.9945V51.7189H69.7293V19.6712C69.7293 17.7963 68.2032 16.2702 66.3283 16.2702H44.9922V13H66.3138C70.0054 13 72.9995 15.994 72.9995 19.6712Z" fill="#C0D9FF"/>
<path d="M35.2844 30.9063L32.5084 33.2318C31.5637 32.1853 30.43 31.6476 29.0783 31.6476C27.9447 31.6476 26.9709 32.04 26.1715 32.8103C25.3721 33.5806 24.9942 34.5544 24.9942 35.7171C24.9942 36.8799 25.3867 37.8391 26.1715 38.624C26.9709 39.3797 27.9301 39.7576 29.0783 39.7576C30.43 39.7576 31.5637 39.2199 32.5084 38.1734L35.2844 40.4989C33.7438 42.3302 31.5055 43.4202 29.0783 43.4202C26.7965 43.4202 24.8634 42.6935 23.2792 41.2256C21.7095 39.7722 20.9102 37.9409 20.9102 35.7317C20.9102 33.5225 21.7095 31.6912 23.2792 30.2378C24.8634 28.7553 26.7965 28.0286 29.0783 28.0286C31.5055 27.985 33.7438 29.0896 35.2844 30.9063Z" fill="#03479C"/>
<path d="M36.7949 43.1733V28.2031H43.5969C45.0794 28.2031 46.3438 28.6973 47.4048 29.7001C48.4513 30.703 48.9745 31.9093 48.9745 33.3482C48.9745 35.2667 47.9717 36.9091 46.4165 37.6212L50.1518 43.1587H45.4718L42.4196 38.4933H42.376H40.879V43.1733H36.7949ZM40.879 35.2522H43.1609C44.2509 35.2522 44.9195 34.6127 44.9195 33.4935C44.9195 32.5488 44.2945 31.9093 43.4952 31.9093H40.879V35.2522Z" fill="#03479C"/>
<path d="M51.4004 43.1733V28.2031H54.7578L59.6122 35.0051L64.452 28.2031H67.8094V43.1733H64.0306V35.2522L59.6122 41.371L55.1938 35.2522V43.1733H51.4004Z" fill="#03479C"/>
</svg>
