<svg width="95" height="87" viewBox="0 0 95 87" fill="none" xmlns="http://www.w3.org/2000/svg">
<path d="M83.4196 77.7837C90.36 69.5185 94.5333 58.8447 94.4998 47.1929C94.4273 21.492 73.5779 0.362368 47.9194 0.00471212C21.5188 -0.364121 0 20.9667 0 47.3271C0 58.9285 4.16763 69.552 11.0802 77.7837C11.309 78.0575 11.7274 78.0687 11.9785 77.8172L47.2499 42.4875L82.5213 77.8172C82.7724 78.0743 83.1908 78.0575 83.4196 77.7837Z" fill="#03479C"/>
<path d="M47.4896 86.0222C68.7587 86.0222 86.0007 68.7802 86.0007 47.5111C86.0007 26.242 68.7587 9 47.4896 9C26.2205 9 8.97852 26.242 8.97852 47.5111C8.97852 68.7802 26.2205 86.0222 47.4896 86.0222Z" fill="#B0CBED"/>
<path d="M86.0007 47.5114C86.0007 68.7828 68.761 86.0225 47.4896 86.0225C26.2182 86.0225 8.97852 68.7828 8.97852 47.5114C37.7866 61.3514 50.6036 17.9512 50.6036 17.9512C50.6036 17.9512 71.1829 34.2131 86.0007 47.5114Z" fill="#7DA4DD"/>
<path d="M18.8926 43.0117H34.0112L48.6785 49.0742C51.2359 50.1423 52.4544 53.0908 51.3713 55.6331L51.3261 55.7535C50.228 58.3259 47.3246 59.5595 44.7371 58.5666C40.5701 56.9569 35.1244 54.8659 35.1244 54.8659L49.1749 60.2665C52.1385 61.4098 55.3728 61.6354 58.4717 60.9284L72.8683 57.6339C75.5009 57.0322 78.1184 58.717 78.675 61.3647C79.2015 63.8919 77.637 66.3892 75.1398 67.036L57.9603 71.3986C54.7259 72.226 51.3111 72.0154 48.1971 70.7818L26.0231 62.0867H18.8926V43.0117Z" fill="#FFD4BE"/>
<path d="M18.8926 43.0117H34.0112L48.6785 49.0742C51.2359 50.1423 52.4544 53.0908 51.3713 55.6331L51.3261 55.7535C50.228 58.3259 47.3246 59.5595 44.7371 58.5666C40.5701 56.9569 35.1244 54.8659 35.1244 54.8659L49.1749 60.2665C52.1385 61.4098 55.3728 61.6354 58.4717 60.9284L72.8683 57.6339C75.5009 57.0322 78.1184 58.717 78.675 61.3647C79.2015 63.8919 77.637 66.3892 75.1398 67.036L57.9603 71.3986C54.7259 72.226 51.3111 72.0154 48.1971 70.7818L26.0231 62.0867H18.8926V43.0117Z" fill="#FFD4BE"/>
<path d="M8 39.627H18.8914V64.9149H8V39.627Z" fill="#4077BB"/>
<path d="M37.7877 27.3359V44.5757L34.0118 43.0112H24.9707V27.3359H37.7877Z" fill="#D6E3F4"/>
<path d="M50.6021 17.9494V50.5033C50.1057 49.9016 49.4438 49.4052 48.6766 49.0893L37.7852 44.5762V17.9043L50.6021 17.9494Z" fill="#03479C"/>
<path d="M63.4185 34.752V59.8142L58.4542 60.9425C55.8517 61.5442 53.1589 61.469 50.6016 60.762V56.9861C50.8874 56.6251 51.1281 56.2189 51.3236 55.7826L51.3688 55.6623C52.1209 53.8721 51.7599 51.9014 50.6016 50.5174V34.752H63.4185Z" fill="white"/>
</svg>
