<svg width="96" height="87" viewBox="0 0 96 87" fill="none" xmlns="http://www.w3.org/2000/svg">
<path d="M84.7441 79.0188C91.7948 70.6223 96.0343 59.779 96.0003 47.9423C95.9266 21.8333 74.7462 0.368122 48.6803 0.00478694C21.8605 -0.369902 0 21.2996 0 48.0785C0 59.8642 4.23381 70.6564 11.2561 79.0188C11.4885 79.2969 11.9136 79.3083 12.1687 79.0528L48.0001 43.1622L83.8316 79.0528C84.0867 79.314 84.5118 79.2969 84.7441 79.0188Z" fill="#ED1164"/>
<path d="M48.25 86.5C69.3749 86.5 86.5 69.3749 86.5 48.25C86.5 27.1251 69.3749 10 48.25 10C27.1251 10 10 27.1251 10 48.25C10 69.3749 27.1251 86.5 48.25 86.5Z" fill="#FFD9E7"/>
<path d="M86.5008 48.25C86.5008 69.3771 69.3779 86.5 48.2508 86.5C33.0001 78.5 25.0001 74.5 19.0002 63.5C13.0003 52.5 46.8729 20 68 20C75.5 25.5 82.5 40 86.5008 48.25Z" fill="#FFB3CD"/>
<path d="M82.8431 47.9198H66.705H66.6908C66.6908 43.0131 64.7054 38.5602 61.4863 35.3553L72.9022 23.9395C79.0426 30.0657 82.8431 38.546 82.8431 47.9198Z" fill="white"/>
<path d="M61.4864 60.4863L72.9022 71.9022C66.7618 78.0426 58.2814 81.8431 48.9219 81.8431V65.6908C53.8286 65.6908 58.2673 63.7054 61.4864 60.4863Z" fill="white"/>
<path d="M48.9198 65.6908V81.8431C39.5602 81.8431 31.0657 78.0426 24.9395 71.9022L36.3553 60.4863C39.5602 63.7054 44.0131 65.6908 48.9198 65.6908Z" fill="#ED1164"/>
<path d="M48.9222 14V30.1523C44.0297 30.1523 39.591 32.1377 36.3719 35.3568H36.3577L24.9277 23.941C31.0682 17.8005 39.5627 14 48.9222 14Z" fill="white"/>
<path d="M66.705 47.9219H82.8431C82.8431 57.2956 79.0426 65.7759 72.9022 71.9022L61.4863 60.4864C64.7054 57.2672 66.6908 52.8144 66.6908 47.9219H66.705Z" fill="#ED1164"/>
<path d="M24.9268 23.9277L36.3426 35.3436C33.1235 38.5627 31.1381 43.0014 31.1381 47.9081H15C15 38.5485 18.7864 30.0682 24.9268 23.9277Z" fill="#ED1164"/>
<path d="M36.3426 60.4864L24.9268 71.9022C18.7864 65.7759 15 57.2956 15 47.9219H31.1523C31.1523 52.8144 33.1377 57.2814 36.3426 60.4864Z" fill="white"/>
<path d="M72.9022 23.9268L61.4864 35.3426C58.2673 32.1235 53.8286 30.1381 48.9219 30.1381V14C58.2814 14 66.7618 17.8005 72.9022 23.9268Z" fill="#ED1164"/>
<path d="M48.6574 72.8108C62.5503 72.8108 73.8128 61.5484 73.8128 47.6554C73.8128 33.7625 62.5503 22.5 48.6574 22.5C34.7644 22.5 23.502 33.7625 23.502 47.6554C23.502 61.5484 34.7644 72.8108 48.6574 72.8108Z" fill="#FFD9E7"/>
<path d="M29.123 56.242V40.5293H40.709V44.3866H33.4058V46.5563H40.2127V50.0732H33.4058V52.4556H40.8934V56.242H29.123Z" fill="#ED1164"/>
<path d="M43.0762 56.242V40.5293H50.2235C51.7834 40.5293 53.1022 41.054 54.2084 42.1034C55.3145 43.167 55.8534 44.4291 55.8534 45.9323C55.8534 47.9319 54.7898 49.6761 53.1731 50.4136L57.0871 56.2278H52.1805L48.9755 51.3353H48.933H47.3589V56.2278H43.0762V56.242ZM47.3447 47.9177H49.7271C50.8758 47.9177 51.5707 47.237 51.5707 46.0741C51.5707 45.0814 50.9183 44.4007 50.0817 44.4007H47.3305V47.9177H47.3447Z" fill="#ED1164"/>
<path d="M58.3926 56.242V40.5293H65.7668C66.958 40.5293 68.2627 40.9973 69.3688 41.9049C70.4749 42.7841 71.2832 44.3157 71.2832 46.1167C71.2832 47.7191 70.7018 49.0522 69.5531 50.1016C68.4045 51.1652 67.1423 51.6757 65.7668 51.6757H62.6753V56.2278H58.3926V56.242ZM62.6753 47.8042H65.5824C65.781 47.8042 65.9937 47.7617 66.3766 47.5773C66.802 47.393 67.0714 46.8541 67.0714 46.1167C67.0714 45.3225 66.802 44.7836 66.3766 44.6135C65.9511 44.4291 65.7668 44.4149 65.5682 44.4149H62.6753V47.8042Z" fill="#ED1164"/>
</svg>
