<svg width="96" height="87" viewBox="0 0 96 87" fill="none" xmlns="http://www.w3.org/2000/svg">
<path d="M84.7441 79.0188C91.7948 70.6223 96.0343 59.779 96.0003 47.9423C95.9266 21.8333 74.7462 0.368122 48.6803 0.00478694C21.8605 -0.369902 0 21.2996 0 48.0785C0 59.8642 4.23381 70.6564 11.2561 79.0188C11.4885 79.2969 11.9136 79.3083 12.1687 79.0528L48.0001 43.1622L83.8316 79.0528C84.0867 79.314 84.5118 79.2969 84.7441 79.0188Z" fill="#ED1164"/>
<path d="M48 87C69.5391 87 87 69.5391 87 48C87 26.4609 69.5391 9 48 9C26.4609 9 9 26.4609 9 48C9 69.5391 26.4609 87 48 87Z" fill="#FFD9E7"/>
<path d="M86.9992 47.9999C86.9992 69.5367 69.536 86.9999 47.9992 86.9999C34.1992 86.9999 22.0255 79.7525 15.0939 68.9525C11.2097 62.8894 20.4466 57.0946 27.4413 53.8104C45.4729 45.363 71.936 23.6367 71.936 23.6367C71.936 23.6367 76.7834 28.6578 86.0044 39.2683C86.6518 42.063 86.9992 44.9999 86.9992 47.9999Z" fill="#FFA5C3"/>
<path d="M55.9613 27.6158V31.6106H18.6666V64.9106C18.6666 67.1211 16.8824 68.9053 14.6719 68.9053H67.9614C70.1719 68.9053 71.9561 67.1211 71.9561 64.9106V23.6211H59.9719C57.7613 23.6211 55.9613 25.4211 55.9613 27.6158Z" fill="white"/>
<path d="M55.96 31.6257V26.3047H10.6758V64.9415C10.6758 67.1521 12.46 68.9363 14.6705 68.9363C16.881 68.9363 18.6653 67.1521 18.6653 64.9415V31.6257H55.96Z" fill="#F69DBA"/>
<path d="M44.6424 35.4721C45.0359 34.8593 45.9316 34.8593 46.3251 35.4721L50.8488 42.5149C50.9842 42.7258 51.1939 42.8781 51.4362 42.9417L59.5323 45.0676C60.2367 45.2526 60.5134 46.1044 60.0523 46.668L54.752 53.1467C54.5933 53.3406 54.5133 53.587 54.5276 53.8372L55.0076 62.194C55.0494 62.921 54.3248 63.4475 53.6462 63.1831L45.8468 60.1442C45.6133 60.0532 45.3542 60.0532 45.1207 60.1442L37.3213 63.1831C36.6427 63.4475 35.9181 62.921 35.9599 62.194L36.4399 53.8372C36.4542 53.587 36.3742 53.3406 36.2155 53.1467L30.9152 46.668C30.4541 46.1044 30.7308 45.2526 31.4352 45.0676L39.5313 42.9417C39.7736 42.8781 39.9833 42.7258 40.1187 42.5149L44.6424 35.4721Z" fill="#ED1164"/>
</svg>
