<svg width="40" height="59" viewBox="0 0 40 59" fill="none" xmlns="http://www.w3.org/2000/svg">
<path d="M39.6851 53.5881V5.66377C39.6822 3.0196 37.5388 0.873345 34.8918 0.870483H11.8897C9.24554 0.873345 7.09929 3.01673 7.09643 5.66377V27.3638L2.97563 32.3316C1.30441 34.249 0.385817 36.71 0.388679 39.254V57.4227C0.388679 57.9521 0.817928 58.3814 1.34734 58.3814C1.87674 58.3814 2.30599 57.9521 2.30599 57.4227V39.254C2.30599 37.165 3.06434 35.1475 4.4408 33.5736L7.09929 30.3685V39.7748L6.14063 40.7364C5.76575 41.1112 5.76575 41.7179 6.14063 42.0928C6.51551 42.4677 7.12218 42.4677 7.49706 42.0928L16.8833 32.7065C17.8248 31.7937 19.3243 31.7937 20.2658 32.7065C21.2302 33.6394 21.2531 35.179 20.3202 36.1434L12.173 44.2906C11.8697 44.5967 11.8067 45.0661 12.0185 45.4409L12.8083 46.8231C14.4624 49.6962 14.1819 53.2876 12.1015 55.8689C11.9641 56.0377 11.8926 56.2495 11.8926 56.4669V58.3843H34.8947C37.5388 58.3757 39.6822 56.2323 39.6851 53.5881ZM34.8947 56.4641H14.0159C14.8143 55.3137 15.3609 54.0059 15.6185 52.6294H37.7706V53.5881C37.7706 55.1763 36.4829 56.4641 34.8947 56.4641ZM9.01374 37.8547V8.53975H37.7678V50.7121H15.7701C15.7587 49.0123 15.3094 47.344 14.4681 45.8673L14.0417 45.1233L21.6709 37.4941C21.9771 37.1793 22.2346 36.8187 22.4321 36.4267V38.2553C22.4321 38.7847 22.8613 39.214 23.3908 39.214C23.9202 39.214 24.3494 38.7847 24.3494 38.2553V37.2966C24.3494 36.7672 23.9202 36.338 23.3908 36.338H22.4779C23.3106 34.6668 22.9787 32.6493 21.6537 31.3301C19.9568 29.6417 17.2124 29.6503 15.524 31.3472L9.01374 37.8547ZM37.7706 5.66377V6.62243H9.01374V5.66377C9.01374 4.07555 10.3015 2.7878 11.8897 2.7878H34.8918C36.4829 2.7878 37.7706 4.07555 37.7706 5.66377Z" fill="white"/>
<path d="M30.1016 37.2938C30.0987 38.1609 30.445 38.9965 31.0602 39.6089L32.2993 40.848C32.6742 41.2229 33.2809 41.2229 33.6558 40.848L34.8949 39.6089C35.5101 38.9965 35.8564 38.1638 35.8535 37.2938C35.8535 35.7056 34.5658 34.4178 32.9776 34.4178C31.3893 34.4178 30.1016 35.7056 30.1016 37.2938ZM32.0189 37.2938C32.0189 36.7644 32.4481 36.3352 32.9776 36.3352C33.507 36.3352 33.9362 36.7644 33.9362 37.2938C33.9362 37.6544 33.7931 37.9978 33.5384 38.2525L32.9776 38.8134L32.4167 38.2525C32.162 37.9978 32.0189 37.6515 32.0189 37.2938Z" fill="white"/>
<path d="M30.1016 45.9188C30.1016 47.507 31.3893 48.7948 32.9775 48.7948C34.5658 48.7948 35.8535 47.507 35.8535 45.9188C35.8535 44.3306 34.5658 43.0428 32.9775 43.0428C31.3893 43.0428 30.1016 44.3306 30.1016 45.9188ZM32.0189 45.9188C32.0189 45.3894 32.4481 44.9602 32.9775 44.9602C33.5069 44.9602 33.9362 45.3894 33.9362 45.9188C33.9362 46.4482 33.5069 46.8775 32.9775 46.8775C32.4481 46.8775 32.0189 46.4482 32.0189 45.9188Z" fill="white"/>
<path d="M28.1829 37.2938V38.2525C28.1829 38.7819 27.7537 39.2111 27.2243 39.2111C26.6949 39.2111 26.2656 38.7819 26.2656 38.2525V37.2938C26.2656 36.7644 26.6949 36.3351 27.2243 36.3351C27.7537 36.3351 28.1829 36.7644 28.1829 37.2938Z" fill="white"/>
<path d="M28.1829 44.9602V45.9188C28.1829 46.4483 27.7537 46.8775 27.2243 46.8775C26.6949 46.8775 26.2656 46.4483 26.2656 45.9188V44.9602C26.2656 44.4308 26.6949 44.0015 27.2243 44.0015C27.7537 44.0044 28.1829 44.4308 28.1829 44.9602Z" fill="white"/>
<path d="M24.349 44.9602V45.9188C24.349 46.4483 23.9197 46.8775 23.3903 46.8775C22.8609 46.8775 22.4316 46.4483 22.4316 45.9188V44.9602C22.4316 44.4308 22.8609 44.0015 23.3903 44.0015C23.9197 44.0044 24.349 44.4308 24.349 44.9602Z" fill="white"/>
<path d="M20.5169 44.9602V45.9188C20.5169 46.4483 20.0877 46.8775 19.5583 46.8775C19.0289 46.8775 18.5996 46.4483 18.5996 45.9188V44.9602C18.5996 44.4308 19.0289 44.0015 19.5583 44.0015C20.0877 44.0044 20.5169 44.4308 20.5169 44.9602Z" fill="white"/>
<path d="M12.849 11.4158C12.849 11.9452 12.4197 12.3744 11.8903 12.3744C11.3609 12.3744 10.9316 11.9452 10.9316 11.4158C10.9316 10.8863 11.3609 10.4571 11.8903 10.4571C12.4197 10.4571 12.849 10.8863 12.849 11.4158Z" fill="white"/>
<path d="M35.8529 11.4158C35.8529 11.9452 35.4236 12.3744 34.8942 12.3744C34.3648 12.3744 33.9355 11.9452 33.9355 11.4158C33.9355 10.8863 34.3648 10.4571 34.8942 10.4571C35.4236 10.4571 35.8529 10.8863 35.8529 11.4158Z" fill="white"/>
<path d="M32.0189 11.4158C32.0189 11.9452 31.5896 12.3744 31.0602 12.3744C30.5308 12.3744 30.1016 11.9452 30.1016 11.4158C30.1016 10.8863 30.5308 10.4571 31.0602 10.4571C31.5896 10.4571 32.0189 10.8863 32.0189 11.4158Z" fill="white"/>
<path d="M28.1829 11.4158C28.1829 11.9452 27.7537 12.3744 27.2243 12.3744C26.6949 12.3744 26.2656 11.9452 26.2656 11.4158C26.2656 10.8863 26.6949 10.4571 27.2243 10.4571C27.7537 10.4571 28.1829 10.8863 28.1829 11.4158Z" fill="white"/>
<path d="M11.1406 25.6325L14.7234 16.9617H16.429L20.0118 25.6325H17.9714L17.3876 24.1759H13.7676L13.1839 25.6325H11.1406ZM14.3142 22.6449H16.8411L15.5848 19.4971L14.3142 22.6449Z" fill="white"/>
<path d="M21.0449 25.6325V16.9617H24.7021C25.4376 16.9617 26.0958 17.2364 26.7053 17.7715C27.3148 18.3067 27.6268 19.0163 27.6268 19.8977C27.6268 20.7448 27.3291 21.4402 26.7311 22.0011C26.133 22.562 25.4633 22.8338 24.7021 22.8338H22.9594V25.6325H21.0449ZM22.9622 21.0911H24.5934C24.8538 21.0911 25.1171 21.0052 25.3517 20.8163C25.5892 20.6303 25.7123 20.3184 25.7123 19.8949C25.7123 19.4714 25.5864 19.1737 25.3517 18.9877C25.1142 18.8017 24.8538 18.7016 24.5934 18.7016H22.9622V21.0911Z" fill="white"/>
<path d="M28.834 25.6325V16.9617H32.4912C33.2266 16.9617 33.8848 17.2364 34.4944 17.7715C35.1039 18.3067 35.4158 19.0163 35.4158 19.8977C35.4158 20.7448 35.1182 21.4402 34.5201 22.0011C33.922 22.562 33.2524 22.8338 32.4912 22.8338H30.7484V25.6325H28.834ZM30.7513 21.0911H32.3825C32.6429 21.0911 32.9061 21.0052 33.1408 20.8163C33.3783 20.6303 33.5014 20.3184 33.5014 19.8949C33.5014 19.4714 33.3755 19.1737 33.1408 18.9877C32.9033 18.8017 32.6429 18.7016 32.3825 18.7016H30.7513V21.0911Z" fill="white"/>
</svg>
