<svg width="69" height="61" viewBox="0 0 69 61" fill="none" xmlns="http://www.w3.org/2000/svg">
<path fill-rule="evenodd" clip-rule="evenodd" d="M3.40892 58.407H15.897C16.5214 58.407 17.0333 57.9205 17.0333 57.327V55.1641H2.27261V57.327C2.27261 57.9205 2.78171 58.407 3.40892 58.407ZM36.3335 43.2639V36.7751H19.3031V43.2639H36.3335ZM26.5681 50.8355H36.3335V45.4268H28.1179L26.5681 50.8355ZM25.9156 54.7366C26.1321 55.0066 26.4612 55.1613 26.8184 55.1613H36.3335V52.9984H25.9493L25.7215 53.7971C25.6287 54.1234 25.699 54.4637 25.9156 54.7366ZM39.7396 58.4042L64.7186 58.4014C65.343 58.4014 65.8549 57.9148 65.8549 57.3214V55.1585L38.6061 55.1613V57.3242C38.6061 57.9177 39.1152 58.4042 39.7396 58.4042ZM64.7158 23.7948L39.7368 23.7977C39.1124 23.7977 38.6005 24.2842 38.6005 24.8777V27.0406L65.8493 27.0378V24.8749C65.8521 24.2786 65.343 23.7948 64.7158 23.7948ZM38.6061 52.9955L65.8549 52.9927L65.8521 29.1979L38.6033 29.2007L38.6061 52.9955ZM62.446 5.40869V21.6319L39.7396 21.6347C37.8608 21.6347 36.3335 23.0917 36.3335 24.8805V34.615H19.3031V32.4521C19.3031 30.6633 17.773 29.2063 15.897 29.2063H5.6787L5.6759 5.4115C5.6759 3.62267 7.20315 2.16573 9.08199 2.16573L59.0399 2.16291C60.9159 2.16291 62.446 3.61986 62.446 5.40869ZM17.0305 36.7751H2.26979V52.9984H17.0305V36.7751ZM2.26979 32.4493V34.6122H17.0305V32.4493C17.0305 31.853 16.5214 31.3664 15.8942 31.3664H3.40611C2.7817 31.3692 2.26979 31.853 2.26979 32.4493ZM3.40611 29.2063L3.40329 5.4115C3.40329 2.43012 5.94872 0.00281538 9.07917 0.00281538L59.0371 0C62.1675 0 64.7158 2.42449 64.7158 5.40869V21.6319C66.5946 21.6319 68.1219 23.0861 68.1219 24.8749L68.1247 57.3214C68.1247 59.1102 66.5974 60.5671 64.7186 60.5671L39.7396 60.57C37.8608 60.57 36.3335 59.1158 36.3335 57.327H26.8184C25.7468 57.327 24.7624 56.8629 24.1127 56.0529C23.463 55.2428 23.252 54.2134 23.5333 53.229L25.7637 45.4296H19.3031V57.327C19.3031 59.1158 17.7758 60.5728 15.897 60.5728H3.40892C1.53009 60.5728 0.00281538 59.1186 0.00281538 57.3298L0 32.4549C0 30.6605 1.52727 29.2063 3.40611 29.2063Z" fill="white"/>
<path fill-rule="evenodd" clip-rule="evenodd" d="M61.2743 43.8574L58.3379 41.0617C57.9104 40.6538 57.2382 40.6538 56.8106 41.0617C56.3522 41.4976 56.3522 42.2289 56.8106 42.6649L59.747 45.4606C60.1745 45.8685 60.8468 45.8685 61.2743 45.4606C61.7327 45.0247 61.7327 44.2934 61.2743 43.8574Z" fill="white"/>
<path fill-rule="evenodd" clip-rule="evenodd" d="M56.7341 47.1031L44.7129 35.6557C44.2854 35.2479 43.6132 35.2479 43.1856 35.6557C42.7272 36.0917 42.7272 36.823 43.1856 37.2589L55.2068 48.7063C55.6343 49.1142 56.3065 49.1142 56.7341 48.7063C57.1897 48.2704 57.1897 47.5391 56.7341 47.1031Z" fill="white"/>
<path fill-rule="evenodd" clip-rule="evenodd" d="M54.4601 37.3687L49.2539 32.41C48.8264 32.0022 48.1542 32.0022 47.7267 32.41C47.2682 32.846 47.2682 33.5773 47.7267 34.0132L52.9328 38.9719C53.3604 39.3797 54.0326 39.3797 54.4601 38.9719C54.9185 38.5359 54.9185 37.8047 54.4601 37.3687Z" fill="white"/>
<path fill-rule="evenodd" clip-rule="evenodd" d="M13.5874 43.863L9.51758 39.9844C9.09006 39.5765 8.41785 39.5765 7.99033 39.9844C7.53187 40.4203 7.53187 41.1516 7.99033 41.5876L12.0602 45.4662C12.4877 45.874 13.1599 45.874 13.5874 45.4662C14.0459 45.0302 14.0459 44.2989 13.5874 43.863Z" fill="white"/>
<path fill-rule="evenodd" clip-rule="evenodd" d="M11.3199 48.1914L7.25001 44.3156C6.82249 43.9078 6.15027 43.9078 5.72275 44.3156C5.26429 44.7516 5.26429 45.4829 5.72275 45.9188L9.79261 49.7946C10.2201 50.2025 10.8924 50.2025 11.3199 49.7946C11.7783 49.3587 11.7783 48.6302 11.3199 48.1914Z" fill="white"/>
<path fill-rule="evenodd" clip-rule="evenodd" d="M37.4308 17.9023L32.2246 12.9437C31.7971 12.5358 31.1249 12.5358 30.6974 12.9437C30.2389 13.3796 30.2389 14.1109 30.6974 14.5469L35.9035 19.5055C36.3311 19.9134 37.0033 19.9134 37.4308 19.5055C37.8864 19.0696 37.8864 18.3383 37.4308 17.9023Z" fill="white"/>
<path fill-rule="evenodd" clip-rule="evenodd" d="M27.2101 15.7395L22.0039 10.7808C21.5764 10.373 20.9042 10.373 20.4767 10.7808C20.0182 11.2167 20.0182 11.948 20.4767 12.384L25.6828 17.3427C26.1103 17.7505 26.7826 17.7505 27.2101 17.3427C27.6685 16.9067 27.6685 16.1754 27.2101 15.7395Z" fill="white"/>
<path fill-rule="evenodd" clip-rule="evenodd" d="M34.0243 22.231L31.0879 19.4352C30.6604 19.0274 29.9882 19.0274 29.5606 19.4352C29.1022 19.8712 29.1022 20.6025 29.5606 21.0384L32.497 23.8342C32.9245 24.242 33.5968 24.242 34.0243 23.8342C34.4827 23.3982 34.4827 22.6669 34.0243 22.231Z" fill="white"/>
<path fill-rule="evenodd" clip-rule="evenodd" d="M28.3519 9.2648L25.4043 6.45779C24.9768 6.04996 24.3046 6.04996 23.877 6.45779C23.4186 6.89375 23.4186 7.62503 23.877 8.06099L26.8247 10.868C27.2522 11.2758 27.9244 11.2758 28.3519 10.868C28.8104 10.432 28.8104 9.70076 28.3519 9.2648Z" fill="white"/>
<path fill-rule="evenodd" clip-rule="evenodd" d="M59.0932 4.32581H58.9863C58.39 4.32581 57.9034 4.80957 57.9063 5.40866C57.9063 6.00494 58.39 6.49153 58.9891 6.48872H59.096C59.6923 6.48872 60.1789 6.00494 60.1761 5.40585C60.1732 4.80957 59.6895 4.32581 59.0932 4.32581Z" fill="white"/>
<path fill-rule="evenodd" clip-rule="evenodd" d="M54.5502 4.32581H54.4433C53.8471 4.32581 53.3605 4.80957 53.3633 5.40866C53.3633 6.00494 53.8471 6.49153 54.4461 6.48872H54.553C55.1493 6.48872 55.6359 6.00494 55.6331 5.40585C55.6331 4.80957 55.1465 4.32581 54.5502 4.32581Z" fill="white"/>
<path fill-rule="evenodd" clip-rule="evenodd" d="M50.0092 4.32581H49.9023C49.3061 4.32581 48.8195 4.80957 48.8223 5.40866C48.8223 6.00494 49.3061 6.49153 49.9051 6.48872H50.012C50.6083 6.48872 51.0949 6.00494 51.0921 5.40585C51.0921 4.80957 50.6083 4.32581 50.0092 4.32581Z" fill="white"/>
</svg>
