<svg width="95" height="86" viewBox="0 0 95 86" fill="none" xmlns="http://www.w3.org/2000/svg">
<path d="M83.4196 77.7837C90.36 69.5185 94.5333 58.8447 94.4998 47.1929C94.4273 21.492 73.5779 0.362368 47.9194 0.00471212C21.5188 -0.364121 0 20.9667 0 47.3271C0 58.9285 4.16763 69.552 11.0802 77.7837C11.309 78.0575 11.7274 78.0687 11.9785 77.8172L47.2499 42.4875L82.5213 77.8172C82.7724 78.0743 83.1908 78.0575 83.4196 77.7837Z" fill="#ED1164"/>
<path d="M47.25 85.5C68.3749 85.5 85.5 68.3749 85.5 47.25C85.5 26.1251 68.3749 9 47.25 9C26.1251 9 9 26.1251 9 47.25C9 68.3749 26.1251 85.5 47.25 85.5Z" fill="#FFD9E7"/>
<mask id="mask0_1277_18251" style="mask-type:alpha" maskUnits="userSpaceOnUse" x="9" y="9" width="77" height="77">
<path d="M47.2928 85.5856C68.4413 85.5856 85.5856 68.4413 85.5856 47.2928C85.5856 26.1443 68.4413 9 47.2928 9C26.1443 9 9 26.1443 9 47.2928C9 68.4413 26.1443 85.5856 47.2928 85.5856Z" fill="#FBC000"/>
</mask>
<g mask="url(#mask0_1277_18251)">
<g opacity="0.8">
<path d="M67 81.5L24 61L38.5273 60.2666L43.0273 54.0632L56.0273 46.2851L54.3464 39.2666L48 23L96 45.5L73.1569 80.5471L67 81.5Z" fill="#FFCDE0" fill-opacity="0.5" style="mix-blend-mode:multiply"/>
</g>
</g>
<path d="M46.8852 23.1583L24.4598 33.7509C24.1786 33.8837 24 34.1622 24 34.4677V60.5322C24 60.8377 24.1787 61.1162 24.4598 61.2491L46.8852 71.8417C47.3321 72.0528 47.8531 72.0528 48.3 71.8417L70.7254 61.2491C71.0066 61.1162 71.1852 60.8377 71.1852 60.5322V34.4677C71.1852 34.1622 71.0065 33.8837 70.7254 33.7509L48.3 23.1583C47.8531 22.9472 47.3321 22.9472 46.8852 23.1583Z" fill="white"/>
<path d="M24.1353 34C24.0498 34.1279 24 34.2784 24 34.4374V60.6002C24 60.9069 24.1787 61.1864 24.4598 61.3198L46.8852 71.9522C47.1086 72.0582 47.3506 72.1111 47.5926 72.1111V45.1218L24.1353 34Z" fill="#ED1164"/>
<path d="M71.0501 34C71.1356 34.1279 71.1854 34.2784 71.1854 34.4374V60.6002C71.1854 60.9068 71.0067 61.1864 70.7255 61.3197L48.3002 71.9521C48.0767 72.0581 47.8348 72.1111 47.5928 72.1111V45.1218L71.0501 34Z" fill="#FAFAFA"/>
<path d="M31.2958 59.2964C31.1692 59.2964 31.04 59.2675 30.9185 59.2072L27.2149 57.3676C26.7815 57.1525 26.6005 56.6173 26.8095 56.1723C27.0178 55.7273 27.5396 55.5419 27.9713 55.7552L31.6749 57.595C32.1083 57.8101 32.2893 58.3453 32.0802 58.7903C31.9307 59.1101 31.6196 59.2964 31.2958 59.2964Z" fill="white"/>
<path d="M34.0853 57.4816C33.9685 57.4816 33.8492 57.452 33.7371 57.3903L27.1769 53.7776C26.7776 53.5575 26.6098 53.0098 26.8027 52.5544C26.9949 52.0998 27.4773 51.9092 27.875 52.1275L34.4351 55.7402C34.8344 55.9603 35.0022 56.508 34.8093 56.9635C34.6713 57.2908 34.3842 57.4816 34.0853 57.4816Z" fill="#FBC000"/>
<path d="M63.0185 37.3804L40.039 26.6294L33.9814 29.4729L57.0125 40.2405L63.0185 37.3804Z" fill="#F7508F"/>
<path d="M56.666 40.1358V49.2816C56.666 49.5924 56.9897 49.7964 57.2686 49.6613L62.5431 47.1048C62.8335 46.9641 63.0179 46.669 63.0179 46.3454V37L56.666 40.1358Z" fill="#ED1164"/>
</svg>
