<svg width="48" height="66" viewBox="0 0 48 66" fill="none" xmlns="http://www.w3.org/2000/svg">
<path d="M29.0573 32.5122C27.8817 29.0243 24.101 27.1498 20.6131 28.3256C17.344 29.4275 15.4562 32.8419 16.2613 36.1964C18.6606 44.5378 27.4364 52.0234 35.4739 58.384C36.0511 58.8411 36.8894 58.7439 37.3467 58.1667C37.8038 57.5895 37.7065 56.7512 37.1294 56.2939C29.4144 50.1893 21.0038 43.0421 18.8232 35.4606C18.2129 33.3367 19.4398 31.1204 21.5637 30.5101C23.6875 29.8998 25.9038 31.1268 26.5141 33.2506C27.9696 38.3156 35.2073 44.575 42.0932 50.0239C42.6703 50.481 43.5087 50.3838 43.9659 49.8066C44.423 49.2294 44.3258 48.3911 43.7486 47.9338C40.1125 45.0629 30.4836 37.4439 29.0573 32.5122Z" fill="#ED1164"/>
<path d="M39.1611 29.0757C36.2633 20.1911 26.8747 15.1723 17.8773 17.698C8.67856 20.3374 3.36124 29.9342 6.00078 39.1329C6.00266 39.1394 6.00453 39.146 6.00641 39.1525C8.19509 46.7555 3.5032 48.8641 2.00768 49.3279C1.3054 49.5487 0.915147 50.2971 1.13595 50.9994C1.35676 51.7017 2.10514 52.0919 2.80742 51.8711C6.8835 50.5969 10.8422 46.3103 8.56822 38.414C6.32643 30.6329 10.817 22.5078 18.598 20.266C18.6022 20.2649 18.6063 20.2637 18.6103 20.2625C26.3038 18.1 34.3198 22.4602 36.6845 30.094C36.716 30.198 36.7609 30.2975 36.8179 30.3899C36.9565 30.6192 37.2417 31.1017 45.8096 38.0541C46.3808 38.5186 47.2206 38.4321 47.6851 37.8608C48.1495 37.2896 48.063 36.4499 47.4917 35.9854C44.3781 33.4583 39.8275 29.7022 39.1611 29.0757Z" fill="#ED1164"/>
<path d="M34.1867 31.038C32.3457 24.6807 25.7106 21.0086 19.346 22.8246C13.0966 24.754 9.46942 31.257 11.1113 37.5879C13.8038 49.8507 11.7911 52.6818 6.26744 54.4092C5.56516 54.63 5.17491 55.3784 5.39572 56.0807C5.61652 56.783 6.36491 57.1732 7.06719 56.9524C14.7847 54.5532 16.4616 49.5094 13.7317 37.0148C12.4055 32.0603 15.2094 26.9387 20.0977 25.3864C25.0509 23.9803 30.2097 26.839 31.6434 31.7844C32.1766 33.6025 33.5921 36.0977 44.5087 44.7377C45.0859 45.1948 45.9242 45.0976 46.3815 44.5204C46.8386 43.9432 46.7413 43.1048 46.1642 42.6476C36.2553 34.8102 34.5598 32.3284 34.1867 31.038Z" fill="#ED1164"/>
<path d="M37.8551 49.5918C33.3446 46.1688 25.7949 40.4427 23.9369 33.9861C23.7215 33.2822 22.9761 32.8862 22.2722 33.1017C21.5855 33.3119 21.1888 34.0283 21.375 34.7218C23.4757 42.0315 31.4678 48.0936 36.2423 51.7165C37.2126 52.4151 38.1468 53.1625 39.0414 53.9557C39.5708 54.4672 40.4147 54.4526 40.9261 53.9231C41.4251 53.4065 41.4251 52.5876 40.9261 52.0711C39.95 51.1875 38.9247 50.3598 37.8551 49.5918Z" fill="#ED1164"/>
<path d="M30.641 58.8636C29.2938 56.3643 26.8124 54.6788 23.9925 54.3477C19.4606 54.3477 18.7595 62.0518 18.6608 63.5954C18.6152 64.33 19.1738 64.9626 19.9084 65.0083H19.9938C20.6988 65.0097 21.283 64.4617 21.3267 63.7581C21.4947 61.0123 22.545 57.0136 23.9925 57.0136C25.9679 57.0136 27.37 58.917 28.4951 60.4445C28.8667 60.9743 29.2737 61.4784 29.7133 61.9534C30.2428 62.4648 31.0866 62.4501 31.5981 61.9206C32.097 61.404 32.097 60.5852 31.5981 60.0686C31.2533 59.6881 30.9335 59.2856 30.641 58.8636Z" fill="#ED1164"/>
<path d="M18.5992 47.278C18.3486 46.5858 17.5844 46.2278 16.8922 46.4784C16.2412 46.7141 15.8789 47.4091 16.0587 48.0777C17.1998 51.642 14.9577 58.637 11.5855 59.7327C10.883 59.9526 10.4918 60.7004 10.7116 61.4029C10.9315 62.1054 11.6793 62.4967 12.3818 62.2769C12.391 62.274 12.4002 62.271 12.4093 62.2679C17.5381 60.6151 20.012 51.706 18.5992 47.278Z" fill="#ED1164"/>
<path d="M47.0624 29.0867C45.3963 28.5535 44.0874 26.4209 42.5705 23.9869C39.3609 18.7992 34.9595 11.6948 22.6594 11.6948C10.151 11.7096 0.0146204 21.846 0 34.3544C0 35.0905 0.596811 35.6873 1.33295 35.6873C2.06909 35.6873 2.6659 35.0905 2.6659 34.3544C2.67765 23.317 11.6222 14.3725 22.6596 14.3607C33.4747 14.3607 37.2629 20.4762 40.3073 25.3919C42.0988 28.2843 43.6449 30.7821 46.2414 31.6245C46.9391 31.8595 47.6951 31.4845 47.9302 30.787C48.1652 30.0894 47.7902 29.3334 47.0927 29.0983C47.0835 29.0952 47.0744 29.0923 47.0652 29.0893L47.0624 29.0867Z" fill="#ED1164"/>
<path d="M2.6659 45.0175C3.40205 45.0175 3.99886 44.4207 3.99873 43.6846C3.99873 43.4773 3.95037 43.2728 3.85753 43.0875C3.28871 42.0212 2.88671 40.8741 2.6659 39.686C2.6659 38.9498 2.06909 38.353 1.33295 38.353C0.596811 38.353 0 38.9498 0 39.686C0.213932 41.2935 0.713273 42.8499 1.47416 44.2819C1.70034 44.7328 2.16156 45.0175 2.6659 45.0175Z" fill="#ED1164"/>
<path d="M1.97258 16.832C2.60113 17.2151 3.42137 17.0163 3.8045 16.3877C3.80525 16.3865 3.806 16.3854 3.80662 16.3841C4.96363 14.4753 10.6631 9.02906 21.3264 9.02906C31.5738 9.02906 38.8649 14.2194 40.1791 16.3841C40.5611 17.0135 41.3811 17.214 42.0105 16.832C42.6399 16.45 42.8404 15.63 42.4584 15.0005C40.6296 11.9881 32.5549 6.36328 21.3264 6.36328C9.38623 6.36328 2.98563 12.5987 1.52472 15.0032C1.14422 15.632 1.34465 16.4501 1.97258 16.832Z" fill="#ED1164"/>
<path d="M9.86383 6.24583C10.4743 5.97929 10.9915 5.71262 11.4819 5.44608C13.4867 4.43578 14.9288 3.69726 21.3268 3.69726C25.6468 3.45921 29.9677 4.15099 33.9974 5.72599C34.5066 5.91531 35.0185 6.1045 35.5543 6.28844C35.694 6.33692 35.8408 6.36217 35.9888 6.36304C36.7249 6.36441 37.3227 5.76873 37.3241 5.03259C37.3251 4.46202 36.963 3.95418 36.4233 3.76924C35.9061 3.59067 35.4156 3.40935 34.9251 3.23603C30.5991 1.54894 25.9645 0.797556 21.3269 1.03148C14.2786 1.03148 12.5137 1.93782 10.2744 3.08683C9.82397 3.31876 9.34412 3.56405 8.7843 3.8146C8.10026 4.08651 7.76612 4.86152 8.03791 5.54555C8.30982 6.22958 9.08483 6.56373 9.76886 6.29194C9.80385 6.27807 9.83821 6.2627 9.87183 6.24583H9.86383Z" fill="#ED1164"/>
<path d="M45.3807 24.0962C45.6313 24.7884 46.3955 25.1464 47.0877 24.8958C47.7387 24.6602 48.101 23.9651 47.9212 23.2965C47.1649 21.3382 46.2268 19.4549 45.1194 17.6716C44.7337 17.0444 43.9126 16.8486 43.2854 17.2344C42.6582 17.6201 42.4624 18.4413 42.8482 19.0684C43.8405 20.6657 44.6881 22.3483 45.3807 24.0962Z" fill="#ED1164"/>
<path d="M36.2927 58.6717C35.9926 58.6715 35.7015 58.57 35.4663 58.3838C27.4289 52.0204 18.661 44.5376 16.2618 36.1962C15.4027 32.6171 17.6077 29.0194 21.1868 28.1603C24.5414 27.3552 27.9558 29.2429 29.0577 32.512C30.4759 37.4411 40.1048 45.0627 43.7197 47.9311C44.3109 48.3699 44.4345 49.2047 43.9957 49.7958C43.557 50.3868 42.7221 50.5105 42.1311 50.0718C42.1092 50.0556 42.0877 50.0386 42.0668 50.0211C35.181 44.5722 27.9379 38.3154 26.4852 33.2478C25.8748 31.1247 23.659 29.8983 21.5361 30.5087C19.413 31.119 18.1867 33.3348 18.797 35.4577C20.9777 43.0393 29.3882 50.1864 37.1005 56.2911C37.6777 56.7481 37.7751 57.5864 37.3181 58.1635C37.0649 58.4833 36.6793 58.6695 36.2714 58.669L36.2927 58.6717Z" fill="white"/>
<path d="M2.39979 51.9246C1.66365 51.9232 1.06796 51.3254 1.06934 50.5893C1.07034 50.008 1.44809 49.4944 2.00267 49.32C3.49282 48.8536 8.1847 46.7449 6.0014 39.1447C3.35599 29.9477 8.66705 20.3475 17.864 17.7021C17.8685 17.7008 17.8731 17.6995 17.8776 17.6982C26.876 15.1708 36.2663 20.1899 39.1642 29.076C39.828 29.6998 44.3786 33.4586 47.4922 35.9858C48.0493 36.4669 48.1109 37.3086 47.6298 37.8658C47.1692 38.3991 46.3731 38.4817 45.8128 38.0545C37.2421 31.0993 36.9569 30.6169 36.8182 30.3876C36.7631 30.2953 36.7193 30.1969 36.6877 30.0943C34.3229 22.4591 26.3052 18.0985 18.6108 20.2628C10.828 22.4989 6.33167 30.6209 8.56783 38.4035C8.56808 38.4044 8.56833 38.4054 8.56858 38.4063C10.8399 46.2998 6.88374 50.589 2.80504 51.8634C2.67395 51.9047 2.53725 51.9255 2.39979 51.9246Z" fill="white"/>
<path d="M6.66444 57.0134C5.9283 57.012 5.33261 56.4142 5.33399 55.6781C5.33499 55.0968 5.71274 54.5832 6.26732 54.4089C11.7909 52.6814 13.8009 49.8449 11.1084 37.5876C9.46792 31.2567 13.0946 24.7548 19.3432 22.8243C25.7079 21.0128 32.3404 24.6829 34.1864 31.0377C34.557 32.3252 36.2498 34.8071 46.1427 42.6393C46.7338 43.0781 46.8574 43.9129 46.4187 44.504C45.98 45.0952 45.1451 45.2188 44.554 44.78C44.5322 44.7638 44.5107 44.7468 44.4898 44.7293C33.5599 36.0867 32.1443 33.5888 31.6245 31.776C30.196 26.8254 25.031 23.9639 20.0762 25.3781C15.1824 26.9316 12.3782 32.0617 13.7128 37.0198C16.456 49.5172 14.7791 54.5476 7.04832 56.9574C6.92386 56.995 6.79452 57.0139 6.66444 57.0134Z" fill="white"/>
<path d="M39.9872 54.3477C39.6334 54.3484 39.2939 54.2084 39.0435 53.9585C38.1486 53.1646 37.2144 52.4164 36.2444 51.7166C31.4699 48.0937 23.4778 42.0317 21.3771 34.722C21.1616 34.0181 21.5575 33.2728 22.2614 33.0573C22.9653 32.8418 23.7106 33.2377 23.9261 33.9416C23.9306 33.9563 23.9349 33.9712 23.9389 33.9861C25.8049 40.4427 33.3439 46.1688 37.8545 49.5918C38.9246 50.361 39.9508 51.1895 40.9281 52.0736C41.4478 52.5949 41.4466 53.4389 40.9251 53.9586C40.6761 54.2072 40.3389 54.347 39.9872 54.3477Z" fill="white"/>
<path d="M19.9938 65.0112H19.9084C19.1738 64.9655 18.6152 64.3329 18.6608 63.5983C18.7568 62.0548 19.4606 54.3506 23.9925 54.3506C26.8182 54.6791 29.3059 56.3657 30.657 58.8692C30.9478 59.2918 31.2666 59.6943 31.6113 60.0741C32.1228 60.6036 32.108 61.4475 31.5786 61.9589C31.062 62.4579 30.2431 62.4579 29.7265 61.9589C29.2861 61.4857 28.8791 60.9824 28.5083 60.4528C27.3727 58.9173 25.9705 57.0139 23.9924 57.0139C22.5474 57.0139 21.4945 61.0126 21.3266 63.7611C21.283 64.4646 20.6988 65.0126 19.9938 65.0112Z" fill="white"/>
<path d="M11.9966 62.3454C11.2604 62.3468 10.6625 61.7512 10.6611 61.0151C10.66 60.4352 11.034 59.9211 11.5861 59.7436C14.9556 58.648 17.1843 51.6528 16.0593 48.0887C15.7958 47.4013 16.1394 46.6306 16.8267 46.367C17.514 46.1035 18.2848 46.4471 18.5484 47.1344C18.5678 47.1849 18.584 47.2365 18.5971 47.289C20.0127 51.7169 17.5308 60.6181 12.4071 62.2922C12.2739 62.3312 12.1354 62.3492 11.9966 62.3454Z" fill="white"/>
<path d="M1.33295 35.6872C0.596811 35.6872 0 35.0904 0 34.3543C0.0147453 21.8459 10.151 11.7094 22.6594 11.6948C34.9595 11.6948 39.3608 18.7992 42.5731 23.9869C44.09 26.4315 45.3988 28.5455 47.0651 29.0867C47.7676 29.3066 48.1588 30.0544 47.939 30.7569C47.7192 31.4594 46.9713 31.8507 46.2688 31.6309C46.2596 31.628 46.2504 31.625 46.2413 31.6219C43.6448 30.7795 42.0986 28.2816 40.3072 25.3892C37.2628 20.4762 33.4748 14.3607 22.6594 14.3607C11.6221 14.3725 2.67753 23.317 2.66578 34.3544C2.66578 35.0904 2.06909 35.6872 1.33295 35.6872Z" fill="white"/>
<path d="M2.66578 45.0177C2.16044 45.0187 1.69796 44.7338 1.47153 44.2819C0.710899 42.85 0.212557 41.2935 0 39.686C0 38.9498 0.59681 38.353 1.33295 38.353C2.06909 38.353 2.6659 38.9498 2.6659 39.686C2.88733 40.874 3.2892 42.0211 3.85752 43.0875C4.18729 43.7457 3.92113 44.5466 3.26296 44.8763C3.07752 44.9693 2.87309 45.0177 2.66578 45.0177Z" fill="white"/>
<path d="M41.3203 17.0265C40.8537 17.0268 40.421 16.7831 40.1793 16.3841C38.8677 14.2194 31.574 9.02906 21.3267 9.02906C10.6634 9.02906 4.96384 14.4753 3.80421 16.3841C3.44508 17.0266 2.63296 17.2564 1.99041 16.8972C1.34787 16.5381 1.11806 15.7259 1.47733 15.0834C1.49307 15.0551 1.50994 15.0275 1.52768 15.0005C2.98585 12.5987 9.38656 6.36328 21.3268 6.36328C32.5552 6.36328 40.63 11.9881 42.4587 15.0032C42.8401 15.6328 42.6386 16.4525 42.009 16.8337C41.8012 16.9595 41.5631 17.0263 41.3203 17.0265Z" fill="white"/>
<path d="M35.9887 6.3631C35.8409 6.36335 35.6941 6.3391 35.5542 6.29112C35.021 6.10718 34.5039 5.91524 33.9947 5.72867C29.9659 4.15342 25.6461 3.46064 21.3268 3.69732C14.9288 3.69732 13.4866 4.43571 11.4952 5.45676C11.0048 5.71005 10.4849 5.97397 9.87713 6.2565C9.20285 6.55466 8.41447 6.24976 8.11632 5.57535C7.81816 4.90106 8.12307 4.11269 8.79748 3.81453C9.35992 3.56124 9.83715 3.31606 10.2904 3.08414C12.5137 1.93788 14.2811 1.03141 21.3269 1.03141C25.963 0.794988 30.5967 1.54363 34.9226 3.22809C35.413 3.40941 35.9036 3.59335 36.4207 3.7613C37.1216 3.98623 37.5075 4.73686 37.2826 5.43776C37.1026 5.99784 36.5769 6.37397 35.9887 6.3631Z" fill="white"/>
<path d="M46.6517 25.0238C46.072 25.0234 45.559 24.6484 45.3827 24.0961C44.6902 22.3447 43.8427 20.6585 42.8501 19.0577C42.4644 18.4305 42.6601 17.6094 43.2874 17.2237C43.9146 16.8379 44.7357 17.0336 45.1214 17.6609C46.2278 19.4445 47.1649 21.3276 47.9205 23.2858C48.1443 23.987 47.7572 24.737 47.0559 24.9607C46.9253 25.0025 46.7889 25.0238 46.6517 25.0238Z" fill="white"/>
</svg>
