<svg width="52" height="54" viewBox="0 0 52 54" fill="none" xmlns="http://www.w3.org/2000/svg">
<path d="M8.80273 23.7324H10.8842V29.1225C10.8842 30.6498 11.5329 31.4067 12.8169 31.4067C14.1009 31.4067 14.7362 30.6498 14.7362 29.1225V23.7324H16.8176V29.3388C16.8176 30.6093 16.4392 31.5824 15.6823 32.2717C14.9254 32.961 13.9658 33.2989 12.8169 33.2989C11.6546 33.2989 10.695 32.961 9.93806 32.2852C9.18118 31.5959 8.80273 30.6228 8.80273 29.3388V23.7324Z" fill="white"/>
<path d="M17.5752 33.1503L20.6838 28.3116L17.7374 23.7324H20.0621L21.9678 26.7329L23.8601 23.7324H26.1713L23.2383 28.3278L26.3605 33.1503H24.0628L21.9543 29.8794L19.8459 33.1503H17.5752Z" fill="white"/>
<path d="M31.1562 23.7324H33.2377V29.1225C33.2377 30.6498 33.8864 31.4067 35.1705 31.4067C36.4545 31.4067 37.0897 30.6498 37.0897 29.1225V23.7324H39.1711V29.3388C39.1711 30.6093 38.7927 31.5824 38.0358 32.2717C37.2789 32.961 36.3193 33.2989 35.1705 33.2989C34.0081 33.2989 33.0485 32.961 32.2916 32.2852C31.5347 31.5959 31.1562 30.6228 31.1562 29.3388V23.7324Z" fill="white"/>
<path d="M40.9658 33.1503V23.7324H43.0473V33.1503H40.9658Z" fill="white"/>
<path d="M49.9259 31.8258C50.8747 30.485 51.3505 28.8118 51.3505 27.3629C51.3505 25.1787 50.3206 23.1486 48.55 21.7727C48.942 20.8915 49.1393 19.9751 49.1393 19.0398C49.1393 16.142 47.3417 13.4415 44.671 12.1792C45.0764 9.01376 42.8869 6.11326 39.6404 5.37259C38.3699 2.60725 35.5424 0.723145 32.5608 0.723145C29.7846 0.723145 27.295 2.24773 25.9272 4.46973C24.5594 2.24503 22.0698 0.723145 19.2936 0.723145C16.312 0.723145 13.4845 2.60725 12.214 5.37259C8.9486 6.11596 6.77796 9.03268 7.18343 12.1792C4.5127 13.4388 2.7151 16.1393 2.7151 19.0398C2.7151 19.9778 2.91243 20.8915 3.30439 21.7727C1.53652 23.1486 0.503906 25.1787 0.503906 27.3629C0.503906 28.8199 0.982367 30.4904 1.92848 31.8258C1.00399 33.053 0.503906 34.5073 0.503906 35.9995C0.503906 37.9377 1.33919 39.7812 2.81512 41.1517C2.05553 45.4687 5.71291 49.8397 10.4543 49.8397C10.4894 49.8397 10.5218 49.8397 10.5543 49.837C12.1248 52.3888 15.0415 53.9999 18.1907 53.9999C21.4724 53.9999 24.4053 52.1455 25.9272 49.4748C27.4518 52.1455 30.382 53.9999 33.6637 53.9999C36.8129 53.9999 39.7296 52.3888 41.3001 49.837C41.3326 49.837 41.3677 49.8397 41.4001 49.8397C45.5955 49.8397 49.1366 46.3607 49.1366 42.2438C49.1366 41.8924 49.1042 41.5329 49.0366 41.1517C50.5125 39.7812 51.3478 37.935 51.3478 35.9995C51.3478 34.5046 50.8477 33.053 49.9259 31.8258ZM48.3256 33.3233C48.8528 34.1343 49.1366 35.0561 49.1366 35.9995C49.1366 37.5214 48.4067 38.9703 47.1308 39.9731C46.8065 40.2299 46.6551 40.6354 46.7551 41.0247C46.8713 41.4815 46.9254 41.8708 46.9254 42.2438C46.9254 45.4741 43.8222 48.0854 41.0244 47.7231C40.946 47.7123 40.8676 47.7042 40.7919 47.6961C40.327 47.6474 39.8701 47.8718 39.6755 48.2719C38.5915 50.4885 36.2317 51.9211 33.6637 51.9211C30.0685 51.9211 27.0301 48.9179 27.0301 45.366V42.9007C27.0301 42.3249 26.5354 41.86 25.9245 41.86C25.3136 41.86 24.8189 42.3249 24.8189 42.9007V45.366C24.8189 48.9206 21.7805 51.9211 18.1853 51.9211C15.6227 51.9211 13.2629 50.4912 12.1789 48.28C11.9816 47.8772 11.5247 47.6447 11.0571 47.6961C10.9787 47.7042 10.9003 47.715 10.8246 47.7231C7.67811 48.1286 4.13696 44.774 5.09389 41.0247C5.1912 40.6408 5.05334 40.2354 4.72896 39.984C3.44766 38.9811 2.70969 37.5295 2.70969 35.9995C2.70969 35.0561 2.99352 34.1316 3.52064 33.3206C4.1667 32.3853 4.9344 31.7204 4.49919 31.3663C3.48009 30.5391 2.70969 28.901 2.70969 27.3629C2.70969 25.5815 3.67472 23.9407 5.29122 22.9783C5.7886 22.681 5.9562 22.0728 5.66425 21.5916C5.16957 20.7752 4.92088 19.9156 4.92088 19.0398C4.92088 16.2312 7.35373 13.5253 10.4489 13.5253C11.5085 13.5253 12.5195 13.8578 13.3791 14.4201C14.9145 15.423 16.6986 13.9741 14.5117 12.6144C13.3223 11.8737 11.9248 11.4412 10.4462 11.4412C10.0758 11.4412 9.70819 11.4682 9.34327 11.5223C9.34327 11.5223 9.34327 11.5223 9.34056 11.5196C9.29461 9.15973 11.3139 7.27833 13.7602 7.27833C14.9361 7.27833 13.9414 6.0646 14.7847 5.27258C15.7606 3.91018 17.3798 2.80458 19.2882 2.80458C22.232 2.80458 24.8162 5.3807 24.8162 8.31905V12.2386C24.8162 12.8144 25.3109 13.2794 25.9218 13.2794C26.5327 13.2794 27.0274 12.8144 27.0274 12.2386V8.31905C27.0274 5.3807 29.6089 2.80458 32.5554 2.80458C34.4638 2.80458 36.083 3.91018 37.0588 5.27258C38.1077 6.25923 37.6887 7.21075 38.0833 7.27833C40.5 7.70543 42.5517 9.17325 42.503 11.5196C42.503 11.5196 42.503 11.5196 42.5003 11.5223C42.1354 11.4682 41.7678 11.4412 41.3974 11.4412C39.9485 11.4412 38.5753 11.8575 37.4021 12.5711C35.1774 13.9227 37.0372 15.2527 38.697 14.2768C39.5052 13.8011 40.4324 13.5226 41.3974 13.5226C44.4899 13.5226 46.9254 16.2285 46.9254 19.0371C46.9254 19.9129 46.674 20.7725 46.182 21.5889C45.8901 22.0701 46.0577 22.6783 46.5551 22.9756C48.1716 23.9407 49.1366 25.5788 49.1366 27.3602C49.1366 29.0578 48.2959 30.6283 47.0119 31.6555C47.2119 32.1988 47.7472 32.7016 48.3256 33.3233Z" fill="white"/>
</svg>
