<svg width="56" height="51" viewBox="0 0 56 51" fill="none" xmlns="http://www.w3.org/2000/svg">
<path d="M54.4837 0H0.908061C0.667229 0 0.43626 0.0956707 0.265965 0.265965C0.0956704 0.43626 0 0.667229 0 0.908061V49.9434C0 50.1842 0.0956704 50.4152 0.265965 50.5855C0.43626 50.7558 0.667229 50.8514 0.908061 50.8514H3.63225C3.87308 50.8514 4.10405 50.7558 4.27434 50.5855C4.44464 50.4152 4.54031 50.1842 4.54031 49.9434V4.54031H19.9774V8.17255H9.08061C8.83978 8.17255 8.60881 8.26822 8.43852 8.43852C8.26822 8.60881 8.17255 8.83978 8.17255 9.08061V39.9547C8.17255 40.1955 8.26822 40.4265 8.43852 40.5968C8.60881 40.7671 8.83978 40.8628 9.08061 40.8628H50.8514C51.0923 40.8628 51.3232 40.7671 51.4935 40.5968C51.6638 40.4265 51.7595 40.1955 51.7595 39.9547V9.08061C51.7595 8.83978 51.6638 8.60881 51.4935 8.43852C51.3232 8.26822 51.0923 8.17255 50.8514 8.17255H39.9547V4.54031H54.4837C54.7245 4.54031 54.9555 4.44464 55.1258 4.27434C55.2961 4.10405 55.3917 3.87308 55.3917 3.63225V0.908061C55.3917 0.667229 55.2961 0.43626 55.1258 0.265965C54.9555 0.0956707 54.7245 0 54.4837 0ZM49.9434 9.98868V39.0466H9.98868V9.98868H19.9774V11.8048C19.9774 12.0456 20.073 12.2766 20.2433 12.4469C20.4136 12.6172 20.6446 12.7129 20.8854 12.7129C21.1262 12.7129 21.3572 12.6172 21.5275 12.4469C21.6978 12.2766 21.7935 12.0456 21.7935 11.8048V9.98868H38.1386V11.8048C38.1386 12.0456 38.2342 12.2766 38.4045 12.4469C38.5748 12.6172 38.8058 12.7129 39.0466 12.7129C39.2875 12.7129 39.5184 12.6172 39.6887 12.4469C39.859 12.2766 39.9547 12.0456 39.9547 11.8048V9.98868H49.9434ZM21.7935 8.17255V4.54031H38.1386V8.17255H21.7935ZM53.5756 2.72418H3.63225C3.39141 2.72418 3.16044 2.81985 2.99015 2.99015C2.81985 3.16044 2.72418 3.39141 2.72418 3.63225V49.0353H1.81612V1.81612H53.5756V2.72418Z" fill="white"/>
<path d="M24.5175 31.7822H12.7127C12.4719 31.7822 12.2409 31.8779 12.0707 32.0482C11.9004 32.2185 11.8047 32.4495 11.8047 32.6903C11.8047 32.9311 11.9004 33.1621 12.0707 33.3324C12.2409 33.5027 12.4719 33.5983 12.7127 33.5983H24.5175C24.7584 33.5983 24.9894 33.5027 25.1596 33.3324C25.3299 33.1621 25.4256 32.9311 25.4256 32.6903C25.4256 32.4495 25.3299 32.2185 25.1596 32.0482C24.9894 31.8779 24.7584 31.7822 24.5175 31.7822Z" fill="white"/>
<path d="M26.3337 29.0581H12.7127C12.4719 29.0581 12.2409 29.1538 12.0707 29.3241C11.9004 29.4944 11.8047 29.7253 11.8047 29.9662C11.8047 30.207 11.9004 30.438 12.0707 30.6083C12.2409 30.7786 12.4719 30.8742 12.7127 30.8742H26.3337C26.5745 30.8742 26.8055 30.7786 26.9758 30.6083C27.1461 30.438 27.2417 30.207 27.2417 29.9662C27.2417 29.7253 27.1461 29.4944 26.9758 29.3241C26.8055 29.1538 26.5745 29.0581 26.3337 29.0581Z" fill="white"/>
<path d="M15.4369 34.5063H12.7127C12.4719 34.5063 12.2409 34.602 12.0707 34.7723C11.9004 34.9426 11.8047 35.1736 11.8047 35.4144C11.8047 35.6552 11.9004 35.8862 12.0707 36.0565C12.2409 36.2268 12.4719 36.3225 12.7127 36.3225H15.4369C15.6778 36.3225 15.9087 36.2268 16.079 36.0565C16.2493 35.8862 16.345 35.6552 16.345 35.4144C16.345 35.1736 16.2493 34.9426 16.079 34.7723C15.9087 34.602 15.6778 34.5063 15.4369 34.5063Z" fill="white"/>
<path d="M19.0691 34.5063H18.161C17.9202 34.5063 17.6892 34.602 17.5189 34.7723C17.3486 34.9426 17.2529 35.1736 17.2529 35.4144C17.2529 35.6552 17.3486 35.8862 17.5189 36.0565C17.6892 36.2268 17.9202 36.3225 18.161 36.3225H19.0691C19.3099 36.3225 19.5409 36.2268 19.7111 36.0565C19.8814 35.8862 19.9771 35.6552 19.9771 35.4144C19.9771 35.1736 19.8814 34.9426 19.7111 34.7723C19.5409 34.602 19.3099 34.5063 19.0691 34.5063Z" fill="white"/>
<path d="M11.8047 16.3451V27.2418C11.8047 27.4826 11.9004 27.7136 12.0707 27.8839C12.2409 28.0542 12.4719 28.1499 12.7127 28.1499H47.2191C47.4599 28.1499 47.6909 28.0542 47.8612 27.8839C48.0315 27.7136 48.1271 27.4826 48.1271 27.2418V16.3451C48.1271 16.1042 48.0315 15.8733 47.8612 15.703C47.6909 15.5327 47.4599 15.437 47.2191 15.437H12.7127C12.4719 15.437 12.2409 15.5327 12.0707 15.703C11.9004 15.8733 11.8047 16.1042 11.8047 16.3451ZM13.6208 17.2531H46.311V26.3337H13.6208V17.2531Z" fill="white"/>
</svg>
