<svg width="58" height="52" viewBox="0 0 58 52" fill="none" xmlns="http://www.w3.org/2000/svg">
<path d="M7.99846 25.5581H5.79991C4.5818 25.5581 3.59082 26.5491 3.59082 27.7672V29.9656C3.59082 31.1837 4.58191 32.1747 5.79991 32.1747H7.99834C9.21645 32.1747 10.2074 31.1837 10.2074 29.9656V27.7672H10.2075C10.2075 26.5491 9.21657 25.5581 7.99846 25.5581ZM7.99846 30.4754H5.79991C5.52362 30.4754 5.29014 30.2419 5.29014 29.9656V27.7672C5.29014 27.4909 5.52362 27.2574 5.79991 27.2574H7.99834C8.27464 27.2574 8.50811 27.4909 8.50811 27.7672V29.9656H8.50822C8.50833 30.2419 8.27475 30.4754 7.99846 30.4754Z" fill="white"/>
<path d="M9.05067 21.0781H4.74804C4.27872 21.0781 3.89844 21.4584 3.89844 21.9277C3.89844 22.3971 4.27883 22.7773 4.74804 22.7773H9.05067C9.51999 22.7773 9.90028 22.3971 9.90028 21.9277C9.90028 21.4584 9.51999 21.0781 9.05067 21.0781Z" fill="white"/>
<path d="M9.05067 16.5981H4.74804C4.27872 16.5981 3.89844 16.9784 3.89844 17.4477C3.89844 17.9171 4.27883 18.2974 4.74804 18.2974H9.05067C9.51999 18.2974 9.90028 17.9171 9.90028 17.4477C9.90028 16.9784 9.51999 16.5981 9.05067 16.5981Z" fill="white"/>
<path d="M9.05067 34.9556H4.74804C4.27872 34.9556 3.89844 35.3358 3.89844 35.8052C3.89844 36.2745 4.27872 36.6548 4.74804 36.6548H9.05067C9.51999 36.6548 9.90028 36.2745 9.90028 35.8052C9.90028 35.3358 9.51988 34.9556 9.05067 34.9556Z" fill="white"/>
<path d="M9.05067 39.4355H4.74804C4.27872 39.4355 3.89844 39.8158 3.89844 40.2852C3.89844 40.7545 4.27872 41.1348 4.74804 41.1348H9.05067C9.51999 41.1348 9.90028 40.7545 9.90028 40.2852C9.90028 39.8158 9.51988 39.4355 9.05067 39.4355Z" fill="white"/>
<path d="M39.3334 34.9556H26.2227C25.7533 34.9556 25.373 35.3358 25.373 35.8052C25.373 36.2745 25.7533 36.6548 26.2227 36.6548H39.3334C39.8027 36.6548 40.183 36.2745 40.183 35.8052C40.183 35.3358 39.8027 34.9556 39.3334 34.9556Z" fill="white"/>
<path d="M56.1306 7.50337L56.8323 6.8016C58.3862 5.24761 58.3862 2.7193 56.8323 1.16532C55.2784 -0.388439 52.7501 -0.388439 51.1961 1.16532C50.6267 1.73467 46.5863 5.77505 46.0816 6.27983H5.22462C2.34366 6.27971 0 8.62349 0 11.5043V46.2286C0 49.1095 2.34366 51.4532 5.22462 51.4532H29.0972C29.5665 51.4532 29.9468 51.0729 29.9468 50.6036C29.9468 50.1343 29.5665 49.754 29.0972 49.754H5.22462C3.28083 49.754 1.69932 48.1725 1.69932 46.2287V11.5043C1.69932 9.56055 3.28083 7.97904 5.22462 7.97904H44.3823L41.7068 10.6546H14.1442C12.829 10.6546 11.759 11.6812 11.759 12.9428V44.7898C11.759 46.0516 12.829 47.078 14.1442 47.078H51.3386C52.6538 47.078 53.7238 46.0514 53.7238 44.7898V31.2272C53.7238 30.7579 53.3435 30.3776 52.8742 30.3776C52.4049 30.3776 52.0246 30.7579 52.0246 31.2272V44.7899C52.0246 45.1146 51.7169 45.3788 51.3387 45.3788H14.1442C13.766 45.3788 13.4583 45.1146 13.4583 44.7899V12.943C13.4583 12.6183 13.766 12.3542 14.1442 12.3542H40.0076L28.4914 23.8702C27.9879 24.3737 25.9805 26.1062 25.9799 28.6252C25.9798 29.261 26.1232 29.8607 26.4149 30.3812L25.6219 31.1742C25.2901 31.5061 25.2901 32.0439 25.6219 32.3758C25.954 32.7076 26.4917 32.7075 26.8236 32.3758L27.6162 31.5832C28.1365 31.8748 28.7362 32.0179 29.3716 32.0179C31.8499 32.0179 33.5248 30.1092 34.1276 29.5063L51.2799 12.354H51.3385C51.7167 12.354 52.0244 12.6182 52.0244 12.9429V27.2621C52.0244 27.7314 52.4047 28.1117 52.874 28.1117C53.3433 28.1117 53.7236 27.7314 53.7236 27.2621V12.943C53.7236 12.1334 53.2818 11.4222 52.6184 11.0154L54.9172 8.71661L54.9224 8.7114C55.7843 9.37318 56.3002 10.3976 56.3002 11.5046V46.2288C56.3002 48.1726 54.7186 49.7541 52.7749 49.7541H33.0622C32.5929 49.7541 32.2126 50.1344 32.2126 50.6037C32.2126 51.073 32.5929 51.4533 33.0622 51.4533H52.7752C55.6562 51.4533 57.9998 49.1097 57.9998 46.2287V11.5043C57.9997 9.93811 57.3033 8.48472 56.1306 7.50337ZM28.1337 29.8641C27.1009 28.8315 27.9785 26.7951 29.0925 25.6729L32.3249 28.9053C30.9145 30.3037 28.9966 30.7272 28.1337 29.8641ZM33.5269 27.7039L30.2939 24.4709C31.8826 22.8822 49.1709 5.5938 49.8819 4.88285L53.1149 8.11588C52.2598 8.97104 34.5474 26.6833 33.5269 27.7039ZM54.3167 6.91409L51.0836 3.68106L52.3979 2.367C53.289 1.47548 54.7395 1.47548 55.6308 2.367C56.5222 3.25818 56.5222 4.70862 55.6308 5.59992L54.3167 6.91409Z" fill="white"/>
</svg>
