<svg width="95" height="86" viewBox="0 0 95 86" fill="none" xmlns="http://www.w3.org/2000/svg">
<path d="M83.4196 77.7837C90.36 69.5185 94.5333 58.8447 94.4998 47.1929C94.4273 21.492 73.5779 0.362368 47.9194 0.00471212C21.5188 -0.364121 0 20.9667 0 47.3271C0 58.9285 4.16763 69.552 11.0802 77.7837C11.309 78.0575 11.7274 78.0687 11.9785 77.8172L47.2499 42.4875L82.5213 77.8172C82.7724 78.0743 83.1908 78.0575 83.4196 77.7837Z" fill="#681484"/>
<path d="M47.25 85.5C68.3749 85.5 85.5 68.3749 85.5 47.25C85.5 26.1251 68.3749 9 47.25 9C26.1251 9 9 26.1251 9 47.25C9 68.3749 26.1251 85.5 47.25 85.5Z" fill="#F6DAFF"/>
<mask id="mask0_1277_18235" style="mask-type:alpha" maskUnits="userSpaceOnUse" x="8" y="8" width="78" height="78">
<path d="M47.2655 85.319C68.414 85.319 85.5583 68.1747 85.5583 47.0262C85.5583 25.8777 68.414 8.7334 47.2655 8.7334C26.1169 8.7334 8.97266 25.8777 8.97266 47.0262C8.97266 68.1747 26.1169 85.319 47.2655 85.319Z" fill="#FBC000"/>
</mask>
<g mask="url(#mask0_1277_18235)">
<g opacity="0.8">
<path d="M54.3196 87.3344L22.5 60L52.875 64.875L64.7998 56.1031V53.7966L70.5005 22.5L91.9406 46.0185L73.1301 80.2805L54.3196 87.3344Z" fill="#681484" fill-opacity="0.25" style="mix-blend-mode:multiply"/>
</g>
</g>
<path d="M69.9138 21.6316H25.0862C23.6584 21.6316 22.5 22.7816 22.5 24.199V58.5379C22.5 59.9553 23.6584 61.1053 25.0862 61.1053H69.9138C71.3416 61.1053 72.5 59.9553 72.5 58.5379V24.199C72.5 22.7816 71.3416 21.6316 69.9138 21.6316Z" fill="#681484"/>
<path d="M30.0431 54.9842C30.0431 55.458 29.6571 55.8421 29.181 55.8421H22.5V24.2054C22.5 22.7839 23.6579 21.6316 25.0862 21.6316H69.9138C71.3421 21.6316 72.5 22.7839 72.5 24.2054C72.5 25.1531 71.7281 25.9213 70.7759 25.9213H32.6293C31.201 25.9213 30.0431 27.0736 30.0431 28.4951V54.9842Z" fill="#912CB3"/>
<path d="M22.5 55.8423V58.6932C22.5 60.146 23.6584 61.3247 25.0862 61.3247H41.2522L39.7446 66.7699C39.4353 67.8894 40.2619 69.0002 41.4041 69.0002H53.5959C54.7381 69.0002 55.5647 67.8894 55.2554 66.7699L53.7478 61.3247H69.9138C71.3416 61.3247 72.5 60.146 72.5 58.6932V55.8423H22.5Z" fill="white"/>
<path d="M43.7481 67.7542C43.9593 68.3517 43.5766 68.9997 43.0005 68.9997H41.2245C40.1523 68.9997 39.3766 67.8572 39.6669 66.7057L41.0819 61.105H44.059C44.5954 61.105 44.9833 61.6762 44.8378 62.2519L43.7126 66.7057C43.6164 67.0873 43.6378 67.4419 43.7481 67.7542Z" fill="#681484"/>
<path d="M30.3947 56.6844V60.2633C30.3947 60.7284 29.9908 61.1054 29.4925 61.1054H25.2068C23.7118 61.1054 22.5 59.9744 22.5 58.5791V55.8423H29.4925C29.9908 55.8423 30.3947 56.2193 30.3947 56.6844Z" fill="#681484"/>
<path d="M53.2328 63.7366H41.7688C41.2077 63.7366 40.802 63.1812 40.9541 62.6215L41.3662 61.105H53.6354L54.0476 62.6215C54.1996 63.1812 53.7939 63.7366 53.2328 63.7366Z" fill="#681484"/>
<path d="M60.6576 48.5171V48.8426C60.6576 49.8019 59.8524 50.5789 58.8582 50.5789H51.9981C51.004 50.5789 50.1987 49.8019 50.1987 48.8426V48.5171C50.1987 47.5578 51.004 46.7808 51.9981 46.7808H52.7865L52.0611 43.6847C51.8755 42.8936 51.1468 42.3315 50.3056 42.3315H44.6938C43.8526 42.3315 43.1238 42.8936 42.9383 43.6847L42.2129 46.7808H43.0013C43.9954 46.7808 44.8006 47.5578 44.8006 48.5171V48.8426C44.8006 49.8019 43.9954 50.5789 43.0013 50.5789H36.1412C35.147 50.5789 34.3418 49.8019 34.3418 48.8426V48.5171C34.3418 47.5578 35.147 46.7808 36.1412 46.7808H36.3121L43.2048 20.3131C43.4061 19.5415 44.1259 19 44.9502 19H50.0773C50.9016 19 51.6214 19.5415 51.8216 20.3131L58.7154 46.7808H58.8582C59.8524 46.7808 60.6576 47.5578 60.6576 48.5171ZM48.6254 36.6885C49.6623 36.6885 50.4315 35.7596 50.201 34.784L49.0753 30.0027C48.694 28.3836 46.3054 28.3836 45.9241 30.0027L44.7984 34.784C44.5678 35.7596 45.3371 36.6885 46.374 36.6885H48.6254Z" fill="white"/>
</svg>
