<svg width="96" height="87" viewBox="0 0 96 87" fill="none" xmlns="http://www.w3.org/2000/svg">
<path d="M84.7441 79.0188C91.7948 70.6223 96.0343 59.779 96.0003 47.9423C95.9266 21.8333 74.7462 0.368122 48.6803 0.00478694C21.8605 -0.369902 0 21.2996 0 48.0785C0 59.8642 4.23381 70.6564 11.2561 79.0188C11.4885 79.2969 11.9136 79.3083 12.1687 79.0528L48.0001 43.1622L83.8316 79.0528C84.0867 79.314 84.5118 79.2969 84.7441 79.0188Z" fill="#ED1164"/>
<path d="M47.9999 86.8575C69.4602 86.8575 86.8573 69.4605 86.8573 48.0002C86.8573 26.5399 69.4602 9.14282 47.9999 9.14282C26.5396 9.14282 9.14258 26.5399 9.14258 48.0002C9.14258 69.4605 26.5396 86.8575 47.9999 86.8575Z" fill="#FFD9E7"/>
<mask id="mask0_1277_18267" style="mask-type:alpha" maskUnits="userSpaceOnUse" x="9" y="8" width="78" height="79">
<path d="M48.0161 86.6737C69.5004 86.6737 86.9169 69.2572 86.9169 47.7729C86.9169 26.2886 69.5004 8.87207 48.0161 8.87207C26.5317 8.87207 9.11523 26.2886 9.11523 47.7729C9.11523 69.2572 26.5317 86.6737 48.0161 86.6737Z" fill="#FBC000"/>
</mask>
<g mask="url(#mask0_1277_18267)">
<g opacity="0.8">
<path d="M59.5 88L31 71L63.0304 68.5883L65.8286 56.9939V54.6508V23L93.4004 46.7492L74.2912 81.5552L59.5 88Z" fill="#FFCDE0" fill-opacity="0.5" style="mix-blend-mode:multiply"/>
</g>
</g>
<path d="M35.4101 23L37 41.6989L35.4101 60.576H35.2455C32.3487 60.576 30 63.0051 30 66V26.5491C30 24.5885 31.5369 23 33.4316 23L35.4101 23Z" fill="#FB1C70"/>
<path d="M65 63.0001V70H34.2912C33.0263 70 32 68.9198 32 67.5881V65.4119C32 64.0803 33.0262 63 34.2912 63H65V63.0001Z" fill="white"/>
<path d="M65 67V70H34.2912C33.0263 70 32 69.0741 32 67.9327V67H65Z" fill="#FFDAE8"/>
<path d="M65.294 23H35.5644V60.2841H35.395C32.4154 60.2841 30 62.6939 30 65.6664V67.6177C30 70.5902 32.4154 73 35.395 73H65.294C65.6839 73 65.9999 72.6847 65.9999 72.2958V70.485C65.9999 70.096 65.6838 69.7808 65.294 69.7808H35.3951C34.1977 69.7808 33.227 68.8124 33.227 67.6178V65.6665C33.227 64.4719 34.1977 63.5035 35.3951 63.5035H65.2941C65.684 63.5035 66 63.1882 66 62.7993V60.2841V23.7042C66 23.3153 65.6839 23 65.294 23V23Z" fill="#F9689E"/>
<path d="M35.395 60C32.4154 60 30 62.4636 30 65.5026V67.4974C30 70.5364 32.4154 73 35.395 73H65.2941C65.684 73 66 72.6776 66 72.2801V70.4288C66 70.0311 65.6839 69.7088 65.2941 69.7088H35.395C34.1976 69.7088 33.2269 68.7188 33.2269 67.4975V65.5027C33.2269 64.2814 34.1975 63.2914 35.395 63.2914H65.2941C65.684 63.2914 66 62.969 66 62.5714V60.0001H35.395V60Z" fill="#FB1C70"/>
<path d="M59.3219 37H42.6781C42.3036 37 42 36.6985 42 36.3266V29.6734C42 29.3015 42.3036 29 42.6781 29H59.3219C59.6964 29 60 29.3015 60 29.6734V36.3265C60 36.6985 59.6964 37 59.3219 37Z" fill="white"/>
<path d="M56.2558 48H44.7442C44.3331 48 44 47.7761 44 47.5C44 47.2239 44.3332 47 44.7442 47H56.2558C56.6669 47 57 47.2239 57 47.5C57 47.7761 56.6668 48 56.2558 48Z" fill="white"/>
<path d="M56.2558 52H44.7442C44.3331 52 44 51.5523 44 51C44 50.4477 44.3332 50 44.7442 50H56.2558C56.6669 50 57 50.4477 57 51C57 51.5523 56.6668 52 56.2558 52Z" fill="white"/>
</svg>
