<svg width="60" height="53" viewBox="0 0 60 53" fill="none" xmlns="http://www.w3.org/2000/svg">
<path d="M58.5617 5.85205H37.2552C36.7604 5.85205 36.3594 6.25304 36.3594 6.74789V19.035C36.3594 19.5299 36.7604 19.9309 37.2552 19.9309H58.5617C59.0565 19.9309 59.4575 19.5299 59.4575 19.035V6.74789C59.4575 6.25304 59.0565 5.85205 58.5617 5.85205ZM57.6658 18.1392H38.151V7.64372H57.6658V18.1392Z" fill="white"/>
<path d="M17.2456 4.29102H5.2054C4.71056 4.29102 4.30957 4.692 4.30957 5.18685V10.9669C4.30957 11.4616 4.71067 11.8628 5.2054 11.8628H17.2456C17.7404 11.8628 18.1414 11.4618 18.1414 10.9669V5.18685C18.1414 4.692 17.7404 4.29102 17.2456 4.29102ZM16.3497 10.0711H6.10124V6.08268H16.3497V10.0711Z" fill="white"/>
<path d="M51.1807 10.4248H44.6361C44.1412 10.4248 43.7402 10.8258 43.7402 11.3206V14.4625C43.7402 14.9574 44.1412 15.3584 44.6361 15.3584H51.1807C51.6755 15.3584 52.0765 14.9574 52.0765 14.4625V11.3206C52.0765 10.8258 51.6754 10.4248 51.1807 10.4248ZM50.2848 13.5666H45.5319V12.2164H50.2848V13.5666Z" fill="white"/>
<path d="M34.6347 36.8789H28.6146C28.1197 36.8789 27.7188 37.2799 27.7188 37.7747V40.6647C27.7188 41.1595 28.1197 41.5605 28.6146 41.5605H34.6347C35.1296 41.5605 35.5306 41.1595 35.5306 40.6647V37.7747C35.5306 37.2799 35.1296 36.8789 34.6347 36.8789ZM33.7389 39.7688H29.5104V38.6706H33.7389V39.7688Z" fill="white"/>
<path d="M22.9336 14.6895H5.2054C4.71056 14.6895 4.30957 15.0904 4.30957 15.5853C4.30957 16.0801 4.71056 16.4811 5.2054 16.4811H22.9336C23.4285 16.4811 23.8295 16.0801 23.8295 15.5853C23.8295 15.0904 23.4285 14.6895 22.9336 14.6895Z" fill="white"/>
<path d="M22.9336 18.1392H5.2054C4.71056 18.1392 4.30957 18.5401 4.30957 19.035C4.30957 19.5298 4.71056 19.9308 5.2054 19.9308H22.9336C23.4285 19.9308 23.8295 19.5298 23.8295 19.035C23.8295 18.5401 23.4285 18.1392 22.9336 18.1392Z" fill="white"/>
<path d="M54.9377 37.1963H38.9632C38.4684 37.1963 38.0674 37.5973 38.0674 38.0921C38.0674 38.587 38.4684 38.988 38.9632 38.988H54.9378C55.4326 38.988 55.8336 38.587 55.8336 38.0921C55.8335 37.5973 55.4325 37.1963 54.9377 37.1963Z" fill="white"/>
<path d="M54.9377 39.7017H38.9632C38.4684 39.7017 38.0674 40.1026 38.0674 40.5975C38.0674 41.0923 38.4684 41.4933 38.9632 41.4933H54.9378C55.4326 41.4933 55.8336 41.0923 55.8336 40.5975C55.8335 40.1025 55.4325 39.7017 54.9377 39.7017Z" fill="white"/>
<path d="M59.8492 25.3552C59.8492 25.3268 59.8477 25.2983 59.8449 25.2699C59.8448 25.2683 59.8448 25.2665 59.8446 25.2649C59.8424 25.2433 59.8386 25.2216 59.8347 25.2001C59.8333 25.1917 59.8324 25.1831 59.8306 25.1749C59.8289 25.1662 59.8261 25.1578 59.8241 25.1492C59.8191 25.1282 59.8141 25.1071 59.8077 25.0867C59.8071 25.0847 59.8062 25.0828 59.8056 25.0808C59.7968 25.054 59.787 25.0275 59.776 25.0018C59.7757 25.0014 59.7756 25.0008 59.7754 25.0003C59.7737 24.9964 59.7714 24.9927 59.7697 24.9889C59.7595 24.9664 59.7488 24.9442 59.7369 24.9228C59.7314 24.9129 59.7252 24.9035 59.7194 24.894C59.7103 24.8791 59.7013 24.864 59.6914 24.8496C59.6826 24.8366 59.6729 24.8246 59.6634 24.8122C59.6555 24.802 59.6478 24.7915 59.6395 24.7815C59.6283 24.7681 59.6163 24.7555 59.6044 24.7429C59.5966 24.7346 59.5892 24.7262 59.581 24.7183C59.5688 24.7063 59.5558 24.6948 59.5428 24.6835C59.5338 24.6756 59.525 24.6677 59.5157 24.6602C59.5033 24.6503 59.4908 24.6412 59.4781 24.632C59.4671 24.6239 59.4561 24.6159 59.4446 24.6083C59.4332 24.6007 59.4213 24.594 59.4096 24.5871C59.3961 24.579 59.3827 24.5711 59.3688 24.5638C59.3582 24.5583 59.3473 24.5534 59.3365 24.5483C59.3211 24.5409 59.3057 24.5336 59.2896 24.5272C59.2789 24.5227 59.2677 24.5191 59.2569 24.5153C59.2409 24.5095 59.2248 24.5037 59.2084 24.4988C59.1954 24.495 59.1822 24.4921 59.1692 24.4888C59.1546 24.4852 59.1401 24.4812 59.1253 24.4784C59.1073 24.4748 59.0891 24.4726 59.0708 24.47C59.0606 24.4687 59.0506 24.4668 59.0403 24.4658C59.0142 24.4631 58.9879 24.4621 58.9614 24.4619C58.9586 24.4619 58.956 24.4615 58.9532 24.4615H58.9509C58.9473 24.4615 58.9438 24.4615 58.9401 24.4615H34.3421V2.09028C34.3421 0.937809 33.4043 0 32.2518 0H29.1711C28.6762 0 28.2752 0.400986 28.2752 0.895833C28.2752 1.39068 28.6762 1.79167 29.1711 1.79167H32.2518C32.4166 1.79167 32.5505 1.92552 32.5505 2.09028V24.461H24.783C24.7805 24.461 24.7781 24.461 24.7756 24.461H24.7713C24.7662 24.461 24.7611 24.4617 24.756 24.4617C24.7323 24.4622 24.7087 24.463 24.6852 24.4654C24.6729 24.4665 24.661 24.4687 24.6489 24.4704C24.6327 24.4726 24.6162 24.4747 24.6001 24.4778C24.584 24.481 24.5683 24.4852 24.5523 24.4891C24.5405 24.4922 24.5287 24.4947 24.517 24.4982C24.4996 24.5034 24.4828 24.5094 24.466 24.5155C24.4559 24.5192 24.4456 24.5225 24.4356 24.5266C24.4193 24.5331 24.4033 24.5407 24.3874 24.5481C24.3771 24.5532 24.3666 24.5578 24.3563 24.5632C24.3422 24.5706 24.3286 24.5787 24.315 24.5869C24.3035 24.5936 24.2917 24.6005 24.2804 24.6078C24.269 24.6154 24.258 24.6235 24.2469 24.6315C24.2341 24.6407 24.2214 24.6499 24.2092 24.6598C24.2001 24.6673 24.1913 24.675 24.1827 24.6828C24.1695 24.6942 24.1566 24.7058 24.144 24.7179C24.1361 24.7257 24.1287 24.7339 24.1211 24.7419C24.109 24.7548 24.0969 24.7676 24.0855 24.7812C24.0773 24.7909 24.0698 24.8012 24.0621 24.8112C24.0525 24.8238 24.0427 24.8361 24.0336 24.8493C24.0238 24.8635 24.015 24.8784 24.0061 24.893C24.0001 24.9028 23.9937 24.9124 23.9881 24.9224C23.9763 24.9436 23.9656 24.9657 23.9556 24.988C23.9537 24.992 23.9514 24.9959 23.9496 24.9998C23.9494 25.0003 23.9493 25.0009 23.949 25.0014C23.938 25.027 23.9282 25.0534 23.9194 25.0801C23.9188 25.0821 23.9179 25.0842 23.9172 25.0861C23.9108 25.1065 23.9058 25.1275 23.9008 25.1486C23.8988 25.1573 23.896 25.1658 23.8942 25.1743C23.8926 25.1826 23.8918 25.1911 23.8902 25.1995C23.8863 25.221 23.8825 25.2427 23.8802 25.2643C23.8801 25.2659 23.8801 25.2677 23.88 25.2693C23.8772 25.2979 23.8757 25.3263 23.8757 25.3547C23.8757 25.3551 23.8756 25.3557 23.8756 25.3562V30.6658C23.8756 31.1606 24.2766 31.5616 24.7714 31.5616C25.2663 31.5616 25.6672 31.1606 25.6672 30.6658V26.7216L41.5059 33.5966C41.6196 33.6459 41.7412 33.6707 41.8626 33.6707C41.9839 33.6707 42.1055 33.6459 42.2192 33.5966L58.0579 26.7216V44.1729H25.667V35.2123C25.667 34.7175 25.266 34.3165 24.7712 34.3165C24.2763 34.3165 23.8753 34.7175 23.8753 35.2123V45.0687C23.8753 45.5636 24.2763 45.9645 24.7712 45.9645H32.5503V50.6418C32.5503 50.8066 32.4165 50.9404 32.2517 50.9404H2.24067C2.07591 50.9404 1.94206 50.8066 1.94206 50.6418V2.09028C1.94206 1.92552 2.07591 1.79167 2.24067 1.79167H24.7711C25.2659 1.79167 25.6669 1.39068 25.6669 0.895833C25.6669 0.400986 25.2659 0 24.7711 0H2.24067C1.0882 0 0.150391 0.937809 0.150391 2.09028V50.6425C0.150391 51.795 1.0882 52.7328 2.24067 52.7328H32.2518C33.4043 52.7328 34.3421 51.795 34.3421 50.6425V45.9652H58.9535C59.4483 45.9652 59.8493 45.5643 59.8493 45.0694V25.3569C59.8493 25.3564 59.8492 25.3558 59.8492 25.3552ZM41.8623 31.799L29.085 26.2527H54.6399L41.8623 31.799Z" fill="white"/>
</svg>
