<svg width="96" height="87" viewBox="0 0 96 87" fill="none" xmlns="http://www.w3.org/2000/svg">
<path d="M84.7441 79.0188C91.7948 70.6223 96.0343 59.779 96.0003 47.9423C95.9266 21.8333 74.7462 0.368122 48.6803 0.00478694C21.8605 -0.369902 0 21.2996 0 48.0785C0 59.8642 4.23381 70.6564 11.2561 79.0188C11.4885 79.2969 11.9136 79.3083 12.1687 79.0528L48.0001 43.1622L83.8316 79.0528C84.0867 79.314 84.5118 79.2969 84.7441 79.0188Z" fill="#681484"/>
<path d="M47.9999 86.8575C69.4602 86.8575 86.8573 69.4605 86.8573 48.0002C86.8573 26.5399 69.4602 9.14282 47.9999 9.14282C26.5396 9.14282 9.14258 26.5399 9.14258 48.0002C9.14258 69.4605 26.5396 86.8575 47.9999 86.8575Z" fill="#F6DAFF"/>
<mask id="mask0_1277_18284" style="mask-type:alpha" maskUnits="userSpaceOnUse" x="9" y="8" width="78" height="79">
<path d="M48.0161 86.6737C69.5004 86.6737 86.9169 69.2572 86.9169 47.7729C86.9169 26.2886 69.5004 8.87207 48.0161 8.87207C26.5317 8.87207 9.11523 26.2886 9.11523 47.7729C9.11523 69.2572 26.5317 86.6737 48.0161 86.6737Z" fill="#FBC000"/>
</mask>
<g mask="url(#mask0_1277_18284)">
<g opacity="0.8">
<path d="M55.1825 88.7212L29.5898 73.0243L63.0309 68.5883L65.8291 56.9939V54.6508L65.4196 22.5215L93.4009 46.7492L74.2917 81.5552L55.1825 88.7212Z" fill="#681484" fill-opacity="0.25" style="mix-blend-mode:multiply"/>
</g>
</g>
<path d="M35.5186 20.1243V74.8809H63.2361C67.1136 74.8809 70.257 71.7376 70.257 67.86V20.1243C70.257 19.5035 69.7535 19 69.1327 19H36.6428C36.0221 19 35.5186 19.5035 35.5186 20.1243Z" fill="white"/>
<path d="M70.2574 20.1243V67.8604C70.2574 71.7371 67.1136 74.8809 63.236 74.8809H60.0078C63.8858 74.8809 67.0296 71.7371 67.0296 67.8604V20.1243C67.0296 19.5035 66.5257 19 65.9049 19H69.1331C69.7539 19 70.2574 19.5035 70.2574 20.1243Z" fill="#681484"/>
<path d="M54.6451 65.0029C55.2658 65.0029 55.7693 65.506 55.7693 66.1272V67.8607C55.7693 71.7378 58.9127 74.8812 62.7898 74.8812H28.0493C24.1717 74.8812 21.0283 71.7378 21.0283 67.8602V66.1272C21.0283 65.5064 21.5314 65.0029 22.1526 65.0029H54.6451Z" fill="#681484"/>
<path d="M45.2249 37.976C45.2249 39.1037 44.3104 40.0177 43.1828 40.0177C42.0551 40.0177 41.1406 39.1037 41.1406 37.976C41.1406 36.8479 42.0551 35.9338 43.1828 35.9338C44.3104 35.9338 45.2249 36.8479 45.2249 37.976Z" fill="#681484"/>
<path d="M52.7367 38.9999H48.605C48.139 38.9999 47.7617 38.6226 47.7617 38.1566C47.7617 37.691 48.139 37.3137 48.605 37.3137H52.7367C53.2026 37.3137 53.58 37.691 53.58 38.1566C53.58 38.6226 53.2026 38.9999 52.7367 38.9999Z" fill="#681484"/>
<path d="M63.0084 41.0211H48.605C48.139 41.0211 47.7617 40.6438 47.7617 40.1778C47.7617 39.7122 48.139 39.3345 48.605 39.3345H63.0084C63.4744 39.3345 63.8517 39.7122 63.8517 40.1778C63.8517 40.6438 63.4744 41.0211 63.0084 41.0211Z" fill="#681484"/>
<path d="M48.6093 36.6168C48.1459 36.6168 47.7647 36.2429 47.7617 35.7786C47.7588 35.313 48.1297 34.9332 48.5952 34.9302H48.6038H48.6093C49.0723 34.9302 49.4496 35.3041 49.4526 35.7679C49.4552 36.2339 49.08 36.6138 48.6144 36.6168C48.6127 36.6168 48.611 36.6168 48.6093 36.6168Z" fill="#681484"/>
<path d="M45.2249 46.8837C45.2249 48.0114 44.3104 48.9259 43.1828 48.9259C42.0551 48.9259 41.1406 48.0114 41.1406 46.8837C41.1406 45.756 42.0551 44.8416 43.1828 44.8416C44.3104 44.8416 45.2249 45.756 45.2249 46.8837Z" fill="#681484"/>
<path d="M52.7367 47.9078H48.605C48.139 47.9078 47.7617 47.5305 47.7617 47.065C47.7617 46.599 48.139 46.2217 48.605 46.2217H52.7367C53.2026 46.2217 53.58 46.599 53.58 47.065C53.58 47.5305 53.2026 47.9078 52.7367 47.9078Z" fill="#681484"/>
<path d="M63.0084 49.929H48.605C48.139 49.929 47.7617 49.5517 47.7617 49.0857C47.7617 48.6202 48.139 48.2424 48.605 48.2424H63.0084C63.4744 48.2424 63.8517 48.6202 63.8517 49.0857C63.8517 49.5517 63.4744 49.929 63.0084 49.929Z" fill="#681484"/>
<path d="M48.6093 45.5245C48.1459 45.5245 47.7647 45.1506 47.7617 44.6867C47.7588 44.2207 48.1297 43.8409 48.5952 43.8379H48.6038H48.6093C49.0723 43.8379 49.4496 44.2122 49.4526 44.6761C49.4552 45.1416 49.08 45.5215 48.6144 45.5245C48.6127 45.5245 48.611 45.5245 48.6093 45.5245Z" fill="#681484"/>
<path d="M44.679 56.3476C44.679 57.4752 43.7645 58.3897 42.6369 58.3897C41.5092 58.3897 40.5947 57.4752 40.5947 56.3476C40.5947 55.2199 41.5092 54.3054 42.6369 54.3054C43.7645 54.3054 44.679 55.2199 44.679 56.3476Z" fill="#681484"/>
<path d="M52.7367 56.8162H48.605C48.139 56.8162 47.7617 56.4385 47.7617 55.9729C47.7617 55.5069 48.139 55.1296 48.605 55.1296H52.7367C53.2026 55.1296 53.58 55.5069 53.58 55.9729C53.58 56.4385 53.2026 56.8162 52.7367 56.8162Z" fill="#681484"/>
<path d="M63.0084 58.8373H48.605C48.139 58.8373 47.7617 58.46 47.7617 57.994C47.7617 57.5284 48.139 57.1511 48.605 57.1511H63.0084C63.4744 57.1511 63.8517 57.5284 63.8517 57.994C63.8517 58.46 63.4744 58.8373 63.0084 58.8373Z" fill="#681484"/>
<path d="M48.6093 54.4324C48.1459 54.4324 47.7647 54.0585 47.7617 53.5947C47.7588 53.1287 48.1297 52.7488 48.5952 52.7458H48.6038H48.6093C49.0723 52.7458 49.4496 53.1202 49.4526 53.584C49.4552 54.0496 49.08 54.4295 48.6144 54.4324C48.6127 54.4324 48.611 54.4324 48.6093 54.4324Z" fill="#681484"/>
<path d="M61.8327 29.16H42.6609C42.0809 29.16 41.6104 28.6698 41.6104 28.0649V25.4922C41.6104 24.8878 42.0809 24.3975 42.6609 24.3975H61.8327C62.4131 24.3975 62.8832 24.8878 62.8832 25.4922V28.0649C62.8832 28.6698 62.4131 29.16 61.8327 29.16Z" fill="#681484"/>
<path d="M35.5234 50.3933L39.1439 52.1933C39.5481 52.3941 39.9893 51.9976 39.8329 51.5743L38.4306 47.782L35.5234 50.3933Z" fill="#F6DAFF"/>
<path d="M34.744 50.1712L20.2127 33.9938C19.9066 33.6532 19.9339 33.1283 20.2754 32.8214L22.5878 30.7443C22.9293 30.4377 23.4541 30.4663 23.7602 30.8074L38.2915 46.9843C38.5981 47.3258 38.5704 47.8498 38.2284 48.1567L35.9164 50.2339C35.5745 50.5404 35.0505 50.5127 34.744 50.1712Z" fill="#681484"/>
<path d="M34.744 50.1713L20.2127 33.9939C19.9066 33.6533 19.9339 33.1285 20.2754 32.8215L21.4316 31.783L37.0722 49.1954L35.9164 50.234C35.5745 50.5405 35.0505 50.5128 34.744 50.1713Z" fill="#FBC000" style="mix-blend-mode:multiply"/>
<path d="M21.7865 35.746L20.2125 33.9942C19.9064 33.6531 19.9341 33.1283 20.2756 32.8217L22.5876 30.7446C22.9295 30.4377 23.4539 30.4662 23.7601 30.8073L25.3341 32.5595L21.7865 35.746Z" fill="#681484"/>
</svg>
