<svg width="38" height="61" viewBox="0 0 38 61" fill="none" xmlns="http://www.w3.org/2000/svg">
<path d="M28.8517 57.27C28.8517 57.27 28.8495 57.27 28.8517 57.27L9.08133 57.2495C7.71825 57.2472 6.6123 56.1367 6.6123 54.7759C6.6123 54.116 6.87172 53.4947 7.33822 53.0282C7.80472 52.564 8.42368 52.3069 9.08361 52.3069H9.08588H21.8747C22.3299 52.3069 22.6985 52.6755 22.6985 53.1307C22.6985 53.5858 22.3299 53.9544 21.8747 53.9544H9.08588C9.08588 53.9544 9.08588 53.9544 9.08361 53.9544C8.86287 53.9544 8.65579 54.0386 8.50105 54.1956C8.34631 54.3504 8.25984 54.5575 8.25984 54.7782C8.25984 55.2333 8.62849 55.602 9.08361 55.602L28.8517 55.6224C29.3046 55.6224 29.6755 55.2538 29.6755 54.7987C29.6755 54.5779 29.5913 54.3709 29.4343 54.2161C29.2795 54.0614 29.0725 53.9749 28.8517 53.9749H24.7579C24.3028 53.9749 23.9342 53.6063 23.9342 53.1511C23.9342 52.696 24.3028 52.3274 24.7579 52.3274H28.8517C29.5117 52.3274 30.1329 52.5845 30.5994 53.0533C31.0659 53.5198 31.323 54.141 31.3208 54.8009C31.3208 56.1618 30.2125 57.27 28.8517 57.27Z" fill="white"/>
<path d="M14.5346 53.959L11.9677 53.9568C11.3078 53.9568 10.6866 53.6996 10.2224 53.2308C9.75586 52.7643 9.49872 52.1431 9.50099 51.4832C9.50327 50.8233 9.76041 50.202 10.2269 49.7355C10.6934 49.2713 11.3124 49.0142 11.9723 49.0142H11.9746C12.4297 49.0142 12.7983 49.3851 12.7983 49.8379C12.7983 50.293 12.4297 50.6594 11.9746 50.6594H11.9723C11.7538 50.6594 11.5468 50.7436 11.392 50.9006C11.2373 51.0554 11.1508 51.2625 11.1508 51.4832C11.1508 51.7039 11.235 51.911 11.392 52.0657C11.5468 52.2205 11.7538 52.307 11.9746 52.307L14.5414 52.3092C14.9966 52.3092 15.3652 52.6779 15.3652 53.133C15.3652 53.5881 14.9897 53.959 14.5346 53.959Z" fill="white"/>
<path d="M25.9715 53.9726C25.5142 53.9726 25.1455 53.6039 25.1455 53.1488C25.1455 52.6937 25.5142 52.325 25.9693 52.325C25.9693 52.325 25.9693 52.325 25.9715 52.325C26.4267 52.325 26.7953 51.9564 26.7953 51.5013C26.7953 51.0461 26.4267 50.6775 25.9715 50.6775C25.5164 50.6775 25.1478 50.3066 25.1478 49.8537C25.1478 49.3986 25.5164 49.0322 25.9715 49.0322C27.3346 49.0345 28.4406 50.145 28.4406 51.5058C28.4429 52.8643 27.3346 53.9726 25.9715 53.9726Z" fill="white"/>
<path d="M26.5514 60.5604C26.5514 60.5604 26.5491 60.5604 26.5514 60.5604L11.3731 60.5445C10.3332 60.5422 9.48894 59.6957 9.49122 58.658L9.49349 57.4838C9.49349 56.4461 10.34 55.6019 11.3777 55.6019C11.3777 55.6019 11.3777 55.6019 11.38 55.6019L26.5559 55.6178C27.5959 55.6201 28.4401 56.4666 28.4379 57.5043L28.4356 58.6785C28.4356 59.7162 27.5891 60.5604 26.5514 60.5604ZM11.3777 57.2494C11.248 57.2494 11.141 57.3564 11.141 57.4861L11.1387 58.6603C11.1387 58.79 11.2457 58.897 11.3754 58.897L26.5514 58.9129C26.6811 58.9129 26.788 58.8059 26.788 58.6762L26.7903 57.502C26.7903 57.3723 26.6834 57.2654 26.5537 57.2654L11.3777 57.2494Z" fill="white"/>
<path d="M19.8223 16.8986H18.1748V35.4311H19.8223V16.8986Z" fill="#FBC000"/>
<path d="M25.6304 50.6753H14.464C14.4117 50.6753 14.3593 50.6708 14.3093 50.6617H12.3113C12.0519 50.6617 11.8084 50.5388 11.6537 50.3317L4.90651 41.3408C3.82332 39.8958 3.76643 37.9138 4.7677 36.4096L17.2903 17.5858C17.6749 17.0101 18.3166 16.6642 19.0084 16.6642H19.0107C19.7047 16.6642 20.3464 17.0101 20.7287 17.5881L33.2104 36.4392C34.2071 37.9456 34.148 39.9277 33.0579 41.3704L26.288 50.3476C26.131 50.5547 25.8875 50.6753 25.6304 50.6753ZM14.6188 49.0278H25.2185L31.7426 40.3782C32.4117 39.4907 32.4481 38.2733 31.8359 37.3471L19.3543 18.5006C19.2473 18.3391 19.0903 18.314 19.0084 18.314C18.9242 18.314 18.7695 18.3391 18.6625 18.4983L6.13988 37.3221C5.52547 38.246 5.5596 39.4634 6.22635 40.3509L12.7255 49.0119H14.4663C14.5164 49.0141 14.5687 49.0187 14.6188 49.0278Z" fill="white"/>
<path d="M2.32753 31.0892C2.28884 31.0892 2.25016 31.0847 2.21147 31.0779C1.87696 31.0141 1.65622 30.691 1.71994 30.3565C1.72449 30.336 1.81324 29.865 2.0408 29.1004C2.13865 28.7727 2.48227 28.5861 2.80768 28.6839C3.13536 28.7818 3.32196 29.1254 3.22411 29.4508C3.01703 30.1494 2.93284 30.5818 2.93284 30.5863C2.87822 30.8822 2.6188 31.0892 2.32753 31.0892Z" fill="white"/>
<path d="M3.44272 27.6349C3.36307 27.6349 3.28115 27.619 3.20151 27.5871C2.88747 27.4551 2.73956 27.091 2.87382 26.777C3.19696 26.0147 3.56105 25.266 3.95701 24.5583C4.12312 24.2602 4.50087 24.1555 4.7967 24.3216C5.09481 24.4877 5.20176 24.8655 5.03336 25.1613C4.65789 25.8303 4.31427 26.5358 4.00934 27.2594C3.91377 27.4938 3.68393 27.6349 3.44272 27.6349ZM34.7368 27.5871C34.4842 27.5871 34.2475 27.4301 34.1565 27.1798C33.888 26.4425 33.5785 25.7211 33.2371 25.0407C33.0847 24.7358 33.2053 24.3649 33.5102 24.2101C33.8151 24.0577 34.1861 24.1783 34.3408 24.4832C34.7049 25.2068 35.0349 25.9714 35.3193 26.7565C35.4354 27.0774 35.2693 27.4324 34.9484 27.5484C34.8778 27.5757 34.8073 27.5871 34.7368 27.5871ZM5.79341 23.4569C5.66598 23.4569 5.53855 23.4182 5.42932 23.3386C5.15397 23.1383 5.09481 22.7515 5.29506 22.4761C5.79114 21.798 6.32818 21.1563 6.89025 20.5714C7.12692 20.3257 7.51832 20.3166 7.76408 20.5555C8.00985 20.7922 8.01667 21.1836 7.78229 21.4293C7.2589 21.9732 6.75827 22.5717 6.29632 23.2043C6.17116 23.3681 5.98229 23.4569 5.79341 23.4569ZM32.5727 23.3113C32.3747 23.3113 32.1813 23.218 32.0629 23.0427C31.6215 22.3965 31.139 21.7889 30.627 21.2359C30.3949 20.9856 30.4086 20.5942 30.6589 20.3621C30.9092 20.13 31.3006 20.1436 31.5327 20.3939C32.0857 20.9901 32.6091 21.6478 33.0847 22.3441C33.2781 22.6263 33.2053 23.0109 32.9231 23.202C32.8139 23.2771 32.6933 23.3113 32.5727 23.3113ZM9.11806 20.0116C8.93374 20.0116 8.75169 19.9297 8.62881 19.7704C8.41946 19.4996 8.46952 19.1128 8.74031 18.9034C9.40024 18.3937 10.1034 17.9317 10.827 17.5358C11.1274 17.3719 11.5006 17.4812 11.6667 17.7793C11.8306 18.0774 11.7213 18.4551 11.4232 18.619C10.7565 18.9853 10.108 19.4086 9.49809 19.8797C9.38203 19.9684 9.25005 20.0116 9.11806 20.0116ZM29.3095 19.8137C29.1775 19.8137 29.0432 19.7704 28.9317 19.684C28.3287 19.2152 27.6801 18.7965 27.0065 18.4392C26.7062 18.2776 26.5924 17.9044 26.7517 17.6041C26.911 17.3037 27.2864 17.1899 27.5868 17.3492C28.3218 17.7406 29.0296 18.198 29.6872 18.71C29.958 18.9194 30.0058 19.3062 29.7964 19.577C29.6758 19.7317 29.4938 19.8137 29.3095 19.8137ZM13.3074 17.7087C13.0549 17.7087 12.8182 17.5517 12.7272 17.3014C12.6111 16.9805 12.7772 16.6255 13.0981 16.5095C13.865 16.2319 14.6705 16.0066 15.492 15.8405C15.8265 15.7722 16.1519 15.9884 16.2202 16.3229C16.2885 16.6574 16.0723 16.9828 15.7378 17.0511C14.9732 17.2081 14.2245 17.4152 13.5168 17.6723C13.4485 17.6974 13.3757 17.7087 13.3074 17.7087ZM25.0973 17.5631C25.0313 17.5631 24.9653 17.5517 24.8993 17.5312C24.1894 17.2923 23.4384 17.1011 22.6647 16.9646C22.3279 16.9054 22.1049 16.5846 22.1641 16.2478C22.2232 15.9133 22.5441 15.688 22.8809 15.7472C23.7138 15.8951 24.5261 16.0999 25.293 16.3593C25.6162 16.4685 25.7891 16.819 25.6821 17.1421C25.5957 17.4015 25.3545 17.5631 25.0973 17.5631ZM17.9906 16.7439C17.6698 16.7439 17.399 16.4958 17.3762 16.1704C17.3512 15.8291 17.6083 15.5355 17.9497 15.5105C18.7689 15.4536 19.6564 15.4468 20.4187 15.4809C20.76 15.4969 21.024 15.7859 21.0081 16.1249C20.9921 16.4663 20.7145 16.7393 20.3641 16.7143C19.5904 16.6779 18.7734 16.6893 18.0361 16.7416C18.0202 16.7439 18.0066 16.7439 17.9906 16.7439Z" fill="white"/>
<path d="M35.6586 31.1234C35.3514 31.1234 35.0852 30.8958 35.0465 30.5818C35.0465 30.5772 34.9896 30.1403 34.8258 29.4326C34.7484 29.1004 34.9555 28.7681 35.2877 28.6908C35.6177 28.6157 35.9522 28.8205 36.0296 29.1527C36.2093 29.9287 36.2708 30.4088 36.2731 30.4293C36.314 30.7684 36.0751 31.0756 35.736 31.1188C35.711 31.1234 35.686 31.1234 35.6586 31.1234Z" fill="white"/>
<path d="M35.8003 16.9168L2.21927 16.8804C1.76415 16.8804 1.39551 16.5118 1.39551 16.0566C1.39551 15.6015 1.76415 15.2329 2.21927 15.2329L35.8003 15.2693C36.2554 15.2693 36.6241 15.6379 36.6241 16.0931C36.6241 16.5482 36.2554 16.9168 35.8003 16.9168Z" fill="white"/>
<path d="M18.9855 44.0806C18.9833 44.0806 18.981 44.0806 18.981 44.0806C17.7157 44.0783 16.5279 43.5845 15.6336 42.6902C14.7393 41.7936 14.2477 40.6058 14.25 39.3405C14.2523 36.7304 16.3777 34.6096 18.9878 34.6096C18.9901 34.6096 18.9901 34.6096 18.9924 34.6096C21.6047 34.6118 23.7256 36.7395 23.7233 39.3519C23.7211 40.6171 23.2272 41.805 22.3329 42.6993C21.4364 43.5891 20.2485 44.0806 18.9855 44.0806ZM18.9855 36.2548C17.2834 36.2548 15.8975 37.6384 15.8953 39.3405C15.8953 40.1666 16.2139 40.9425 16.7987 41.5251C17.3812 42.1099 18.1572 42.4308 18.981 42.4331C18.9833 42.4331 18.9833 42.4331 18.9855 42.4331C19.8093 42.4331 20.5853 42.1122 21.1678 41.5319C21.7527 40.9494 22.0735 40.1734 22.0758 39.3496C22.0781 37.6475 20.6945 36.2594 18.9901 36.2571C18.9878 36.2548 18.9855 36.2548 18.9855 36.2548Z" fill="#FBC000"/>
<path d="M4.18254 18.3231L1.29935 18.3208C0.844233 18.3208 0.475586 17.9522 0.475586 17.4971L0.477862 14.6139C0.477862 14.3954 0.564334 14.1861 0.719075 14.0313C0.873816 13.8766 1.08317 13.7901 1.30163 13.7901L4.18481 13.7924C4.63993 13.7924 5.00858 14.161 5.00858 14.6161L5.0063 17.4993C5.0063 17.7178 4.91983 17.9271 4.76509 18.0819C4.61035 18.2366 4.40099 18.3231 4.18254 18.3231ZM2.12312 16.6756L3.35877 16.6778L3.36105 15.4422L2.1254 15.4399L2.12312 16.6756Z" fill="white"/>
<path d="M3.65196 31.913L1.79735 31.9107C1.45601 31.9107 1.18066 31.6331 1.18066 31.2917L1.18294 29.4394C1.18294 29.2756 1.24893 29.1185 1.36499 29.0025C1.48104 28.8864 1.63806 28.8227 1.8019 28.8227L3.65424 28.825C3.99558 28.825 4.27093 29.1026 4.27093 29.444L4.26865 31.2963C4.26865 31.4601 4.20266 31.6172 4.0866 31.7332C3.97282 31.8493 3.81581 31.913 3.65196 31.913ZM2.41631 30.6773H3.033V30.0606H2.41631V30.6773Z" fill="white"/>
<path d="M36.5983 31.9494L34.7436 31.9471C34.4023 31.9471 34.127 31.6695 34.127 31.3281L34.1292 29.4758C34.1292 29.1344 34.4069 28.8591 34.7459 28.8591L36.5983 28.8614C36.9396 28.8614 37.2149 29.139 37.2149 29.4803L37.2127 31.3327C37.2172 31.674 36.9396 31.9494 36.5983 31.9494ZM35.3649 30.7137H35.9816V30.097H35.3649V30.7137Z" fill="white"/>
<path d="M20.4482 18.3414L17.565 18.3391C17.3465 18.3391 17.1372 18.2527 16.9824 18.0979C16.8277 17.9432 16.7412 17.7338 16.7412 17.5154L16.7458 14.6322C16.7458 14.1771 17.1144 13.8084 17.5695 13.8084L20.4527 13.8107C20.6712 13.8107 20.8805 13.8972 21.0353 14.0519C21.19 14.2066 21.2765 14.416 21.2765 14.6345L21.2742 17.5176C21.2719 17.9728 20.9033 18.3414 20.4482 18.3414ZM18.391 16.6916L19.6267 16.6939L19.6289 15.4582L18.3933 15.4559L18.391 16.6916Z" fill="white"/>
<path d="M37.1288 18.3595L34.2456 18.3572C33.7905 18.3572 33.4219 17.9886 33.4219 17.5335L33.4241 14.6503C33.4241 14.4318 33.5106 14.2225 33.6654 14.0677C33.8201 13.913 34.0295 13.8265 34.2479 13.8265L37.1311 13.8288C37.5862 13.8288 37.9549 14.1974 37.9549 14.6526L37.9526 17.5357C37.9526 17.7542 37.8661 17.9635 37.7114 18.1183C37.5566 18.273 37.3473 18.3595 37.1288 18.3595ZM35.0717 16.7097L36.3073 16.712L36.3096 15.4763L35.0717 15.474V16.7097Z" fill="white"/>
<path d="M19.0123 13.1916C18.894 13.1916 18.7734 13.1666 18.6596 13.112L16.4978 12.0857C15.187 11.4645 14.3951 10.1765 14.427 8.72692C14.4588 7.27737 15.3099 6.02579 16.6457 5.46371C17.7471 4.99949 17.9678 3.98002 17.8199 3.24728C17.672 2.51454 17.0758 1.65891 15.8811 1.65664L6.66947 1.64753C6.21435 1.64753 5.8457 1.27889 5.8457 0.823767C5.8457 0.368647 6.21435 0 6.66947 0L15.8811 0.0091024C17.9314 0.011378 19.142 1.47231 19.4333 2.92187C19.7246 4.36915 19.1739 6.18735 17.2851 6.98154C16.5433 7.2933 16.0905 7.96005 16.0722 8.76333C16.054 9.56662 16.4773 10.2516 17.2032 10.5975L19.365 11.6238C19.7769 11.8195 19.9499 12.311 19.7564 12.7206C19.6154 13.0187 19.3218 13.1916 19.0123 13.1916Z" fill="white"/>
</svg>
