<svg width="390" height="69" viewBox="0 0 390 69" fill="none" xmlns="http://www.w3.org/2000/svg">
<path d="M116.806 68.4935C115.034 67.9161 113.179 67.5311 111.512 66.7184C109.719 65.8416 108.114 64.5798 106.259 63.3822C106.217 64.4087 106.155 65.585 106.092 66.8895C102.632 66.8895 99.2973 66.8895 95.7957 66.8895C95.7957 44.6907 95.7957 22.5133 95.7957 0.20752C99.1514 0.20752 102.549 0.20752 106.176 0.20752C106.176 7.88515 106.176 15.52 106.176 23.604C112.116 17.6158 119.265 18.4499 126.206 18.5568C128.978 18.5996 131.792 18.8135 134.502 19.3695C143.235 21.1232 147.195 25.2721 148.092 34.7034C148.654 40.8626 148.55 47.1715 147.925 53.3521C147.112 61.5216 142.422 66.0983 134.564 67.7022C133.314 67.9588 132.063 68.2583 130.833 68.5363C126.164 68.4935 121.496 68.4935 116.806 68.4935ZM106.259 43.3648C106.259 45.6103 106.197 47.8773 106.28 50.1228C106.447 55.0416 108.614 58.0571 113.262 59.0836C119.14 60.3881 125.101 60.324 131 59.0622C134.96 58.2068 137.274 55.5763 137.503 51.4701C137.795 46.7224 138.024 41.9319 137.753 37.2056C137.42 31.2388 134.898 28.1164 129.541 27.6673C124.226 27.2396 118.807 27.4107 113.492 27.9454C108.948 28.4159 106.53 31.6665 106.301 36.3929C106.176 38.724 106.259 41.0337 106.259 43.3648Z" fill="black"/>
<path d="M285.554 68.4926C284.762 68.2573 283.97 68.0221 283.178 67.8082C277.05 66.2256 274.215 63.0819 273.444 56.7516C273.152 54.2708 273.068 51.7258 273.214 49.2236C273.569 42.9147 276.737 39.0652 282.99 37.5254C290.848 35.6007 298.852 35.9001 306.772 36.9266C308.961 37.2046 311.003 38.6589 313.296 39.6427C313.15 36.7127 313.963 33.3337 312.212 30.1472C311.212 28.3508 309.357 27.6878 307.585 27.645C302.479 27.5595 297.351 27.4953 292.286 27.923C288.618 28.2438 287.409 29.5912 285.971 33.0129C282.74 31.9222 279.509 30.8316 276.195 29.6981C276.383 26.5329 277.696 24.1377 280.113 22.4054C283.865 19.7321 288.201 19.0478 292.64 18.727C298.873 18.2779 305.084 18.2565 311.212 19.5824C319.257 21.3147 323.697 26.6185 323.801 34.8735C323.926 45.8019 323.822 56.7516 323.822 67.7013C323.822 67.9579 323.76 68.2145 323.718 68.4926C320.216 68.4926 316.694 68.4926 313.192 68.4926C313.192 67.2736 313.192 66.0332 313.192 64.472C311.274 66.6961 311.274 66.6961 306.168 68.4926C299.331 68.4926 292.453 68.4926 285.554 68.4926ZM298.185 60.1092C301.29 59.7884 305.105 59.5532 308.857 58.933C311.712 58.4625 313.088 56.8371 313.296 54.6557C313.734 50.0577 312.921 48.0474 309.92 46.6573C309.107 46.2724 308.231 45.866 307.356 45.8019C302.207 45.4811 297.038 45.0533 291.869 45.0747C285.387 45.0961 283.678 47.085 283.719 53.7147C283.74 57.2648 284.887 58.826 288.388 59.3393C291.39 59.767 294.433 59.8312 298.185 60.1092Z" fill="black"/>
<path d="M169.811 68.4929C168.519 68.1721 167.206 67.8727 165.913 67.5092C159.181 65.563 154.908 61.1147 154.324 53.9717C153.782 47.5345 153.616 40.969 154.053 34.5317C154.637 26.1697 159.181 21.2937 167.268 19.5828C175.48 17.8505 183.797 17.9361 192.03 19.3262C199.534 20.588 203.661 25.0149 204.432 32.7567C204.932 37.6541 204.515 42.6371 204.515 47.727C191.175 47.727 177.711 47.727 164.267 47.727C162.641 54.0145 165.371 58.805 171.52 59.3824C176.96 59.8957 182.505 59.5963 188.007 59.4038C191.113 59.2969 193.572 57.7143 194.886 54.4208C197.95 55.3618 200.972 56.26 204.098 57.2224C203.765 60.0668 202.473 62.2696 200.513 64.1088C197.908 66.504 194.698 67.4878 191.342 68.0652C190.779 68.1721 190.237 68.3432 189.675 68.4929C183.067 68.4929 176.439 68.4929 169.811 68.4929ZM194.406 39.0228C194.406 37.8893 194.406 36.9697 194.406 36.0501C194.385 30.7891 192.822 28.3725 187.715 27.8379C182.275 27.2818 176.689 27.1749 171.249 27.7309C165.371 28.3297 162.828 32.9278 164.225 39.0014C174.188 39.0228 184.151 39.0228 194.406 39.0228Z" fill="black"/>
<path d="M249.307 68.4929C249.307 55.1907 249.307 41.8671 249.307 28.351C247.514 28.351 245.805 28.351 243.971 28.351C243.971 25.3998 243.971 22.6409 243.971 19.6683C245.722 19.6683 247.431 19.6683 249.14 19.6683C249.328 16.8667 249.349 14.3003 249.703 11.7554C250.683 5.06153 255.414 0.48489 262.063 0.142712C267.42 -0.135308 272.818 0.0785537 278.342 0.0785537C278.342 2.68766 278.342 5.23262 278.342 8.09836C276.299 8.09836 274.256 8.07697 272.214 8.09836C270.213 8.14113 268.191 8.11974 266.19 8.33361C262.459 8.71856 260.062 11.3491 259.812 15.1344C259.728 16.5031 259.791 17.8932 259.791 19.5613C264.439 19.5613 269.004 19.5613 273.673 19.5613C273.673 22.534 273.673 25.2073 273.673 28.1372C269.171 28.1372 264.606 28.1372 259.791 28.1372C259.791 41.7388 259.791 55.0837 259.791 68.4501C256.331 68.4929 252.829 68.4929 249.307 68.4929Z" fill="black"/>
<path d="M225.546 68.4939C225.254 68.3656 225.004 68.1731 224.691 68.0875C217.876 66.398 213.936 61.4578 213.874 54.2507C213.79 45.6963 213.853 37.1418 213.853 28.3307C211.998 28.3307 210.247 28.3307 208.371 28.3307C208.371 25.3794 208.371 22.6848 208.371 19.7549C210.143 19.7549 211.852 19.7549 213.749 19.7549C213.749 13.1251 213.749 6.73069 213.749 0.186523C217.334 0.186523 220.71 0.186523 224.316 0.186523C224.316 6.62375 224.316 13.0182 224.316 19.6479C228.402 19.6479 232.278 19.7335 236.155 19.6051C237.885 19.541 238.448 20.0756 238.323 21.8293C238.177 23.861 238.281 25.9141 238.281 28.181C233.654 28.181 229.131 28.181 224.462 28.181C224.4 28.9295 224.337 29.5069 224.337 30.063C224.337 37.6337 224.316 45.183 224.337 52.7537C224.337 57.587 226.484 59.7897 231.236 59.8539C234.738 59.8967 238.219 59.8539 241.908 59.8539C241.908 62.8693 241.908 65.6923 241.908 68.4939C236.447 68.4939 231.007 68.4939 225.546 68.4939Z" fill="black"/>
<path d="M390 26.3192C387.853 27.6452 385.727 28.9711 383.684 30.2115C379.641 26.6614 375.014 26.7042 370.282 27.8377C366.28 28.8 364.113 31.7513 363.279 35.7505C363.091 36.6487 363.05 37.5897 363.05 38.5093C363.05 48.4967 363.091 58.5054 363.112 68.4927C359.61 68.4927 356.088 68.4927 352.586 68.4927C352.544 67.4448 352.482 66.3755 352.482 65.3276C352.482 50.5497 352.482 35.7933 352.482 21.0155C352.482 20.2456 352.482 19.4543 352.482 18.5774C355.859 18.5774 359.006 18.5774 362.383 18.5774C362.383 20.6519 362.383 22.6408 362.383 24.6511C366.134 19.9462 370.866 18.2567 376.514 18.5774C381.913 18.8982 386.978 19.7537 390 25.1216C390 25.5279 390 25.9129 390 26.3192Z" fill="black"/>
<path d="M333.097 68.4919C333.056 67.444 332.993 66.3747 332.993 65.3268C332.993 50.549 332.993 35.7925 332.993 21.0147C332.993 20.2448 332.993 19.4749 332.993 18.4697C336.328 18.4697 339.434 18.4056 342.518 18.5553C342.873 18.5767 343.456 19.646 343.477 20.2234C343.54 25.9121 343.519 31.6222 343.519 37.3109C343.519 46.9133 343.519 56.5157 343.519 66.1181C343.519 66.9094 343.582 67.7006 343.623 68.4919C340.122 68.4919 336.62 68.4919 333.097 68.4919Z" fill="black"/>
<path d="M306.209 68.4913C311.316 66.6949 311.316 66.6949 313.233 64.4707C313.233 66.0319 313.233 67.2509 313.233 68.4913C310.899 68.4913 308.544 68.4913 306.209 68.4913Z" fill="black"/>
<path d="M27.9926 21.3359C37.3096 32.4353 46.4598 43.3209 55.8602 54.5272C50.8578 54.5272 46.3139 54.5272 41.5199 54.5272C41.5199 59.1039 41.5199 63.5094 41.5199 68.0647C32.4322 68.0647 23.5946 68.0647 14.5278 68.0647C14.5278 63.6591 14.5278 59.2536 14.5278 54.6769C9.73378 54.6769 5.16915 54.6769 0 54.6769C9.50457 43.3637 18.6548 32.4567 27.9926 21.3359Z" fill="black"/>
<path d="M35.4333 13.8729C40.4983 13.8729 45.0629 13.8729 49.7943 13.8729C49.7943 9.2107 49.7943 4.80515 49.7943 0.228516C58.8195 0.228516 67.6571 0.228516 76.7865 0.228516C76.7865 3.92832 76.7865 7.62813 76.7865 11.3065C76.7865 13.8515 76.7866 13.8515 79.3295 13.8515C83.0813 13.8515 86.8539 13.8515 91.1685 13.8515C81.7056 25.122 72.5553 36.0289 63.28 47.0428C54.0464 36.0289 44.8962 25.1648 35.4333 13.8729Z" fill="black"/>
<path d="M333.098 0.0566406C336.245 0.0566406 339.226 0.0566406 342.185 0.0566406C342.561 0.0566406 342.936 0.120799 343.415 0.163572C343.415 3.6709 343.415 7.0713 343.415 10.6428C339.976 10.6428 336.599 10.6428 333.098 10.6428C333.098 7.15684 333.098 3.75644 333.098 0.0566406Z" fill="black"/>
</svg>
