<svg width="56" height="31" viewBox="0 0 56 31" fill="none" xmlns="http://www.w3.org/2000/svg">
<path d="M-0.000233272 3.29187L3.03214 6.32422L6.06445 3.29187L3.03214 0.259547L-0.000233272 3.29187ZM3.03214 5.22832L1.0957 3.29187L3.03214 1.35544L4.96859 3.29187L3.03214 5.22832Z" fill="white" fill-opacity="0.5"/>
<path d="M-0.000233272 27.2001L3.03214 30.2324L6.06445 27.2001L3.03214 24.1677L-0.000233272 27.2001ZM3.03214 29.1472L1.0957 27.2107L3.03214 25.2743L4.96859 27.2107L3.03214 29.1472Z" fill="white" fill-opacity="0.5"/>
<path d="M12.3211 14.8895L15.3534 17.9219L18.3857 14.8895L15.3534 11.8572L12.3211 14.8895ZM15.3428 16.826L13.4063 14.8895L15.3428 12.9531L17.2792 14.8895L15.3428 16.826Z" fill="white" fill-opacity="0.5"/>
<path d="M24.6316 3.29187L27.6639 6.32422L30.6963 3.29187L27.6639 0.259547L24.6316 3.29187ZM27.6639 5.22832L25.7275 3.29187L27.6639 1.35544L29.6004 3.29187L27.6639 5.22832Z" fill="white" fill-opacity="0.5"/>
<path d="M24.6316 27.2001L27.6639 30.2324L30.6963 27.2001L27.6639 24.1677L24.6316 27.2001ZM27.6639 29.1472L25.7275 27.2107L27.6639 25.2743L29.6004 27.2107L27.6639 29.1472Z" fill="white" fill-opacity="0.5"/>
<path d="M36.952 14.8895L39.9843 17.9219L43.0166 14.8895L39.9843 11.8572L36.952 14.8895ZM39.9736 16.826L38.0372 14.8895L39.9736 12.9531L41.9101 14.8895L39.9736 16.826Z" fill="white" fill-opacity="0.5"/>
<path d="M49.2616 3.29187L52.2939 6.32422L55.3262 3.29187L52.2939 0.259547L49.2616 3.29187ZM52.2939 5.22832L50.3574 3.29187L52.2939 1.35544L54.2303 3.29187L52.2939 5.22832Z" fill="white" fill-opacity="0.5"/>
<path d="M49.2616 27.2001L52.2939 30.2324L55.3262 27.2001L52.2939 24.1677L49.2616 27.2001ZM52.2939 29.1472L50.3574 27.2107L52.2939 25.2743L54.2303 27.2107L52.2939 29.1472Z" fill="white" fill-opacity="0.5"/>
</svg>
