<svg width="96" height="87" viewBox="0 0 96 87" fill="none" xmlns="http://www.w3.org/2000/svg">
<path d="M84.7441 79.0188C91.7948 70.6223 96.0343 59.779 96.0003 47.9423C95.9266 21.8333 74.7462 0.368122 48.6803 0.00478694C21.8605 -0.369902 0 21.2996 0 48.0785C0 59.8642 4.23381 70.6564 11.2561 79.0188C11.4885 79.2969 11.9136 79.3083 12.1687 79.0528L48.0001 43.1622L83.8316 79.0528C84.0867 79.314 84.5118 79.2969 84.7441 79.0188Z" fill="#ED1164"/>
<path d="M48.0019 86.8575C69.4622 86.8575 86.8592 69.4605 86.8592 48.0002C86.8592 26.5399 69.4622 9.14282 48.0019 9.14282C26.5416 9.14282 9.14453 26.5399 9.14453 48.0002C9.14453 69.4605 26.5416 86.8575 48.0019 86.8575Z" fill="#FFD9E7"/>
<mask id="mask0_2639_4527" style="mask-type:alpha" maskUnits="userSpaceOnUse" x="9" y="9" width="78" height="78">
<path d="M47.9008 86.8017C69.3852 86.8017 86.8017 69.3852 86.8017 47.9008C86.8017 26.4165 69.3852 9 47.9008 9C26.4165 9 9 26.4165 9 47.9008C9 69.3852 26.4165 86.8017 47.9008 86.8017Z" fill="#FBC000"/>
</mask>
<g mask="url(#mask0_2639_4527)">
<g opacity="0.8">
<path d="M56 87.5L29 72.5L43.5 49L47.5 47.3771L51 41L55 19.5L91 52L74.6761 82.1831L56 87.5Z" fill="#FFCDE0" fill-opacity="0.5" style="mix-blend-mode:multiply"/>
</g>
</g>
<g clip-path="url(#clip0_2639_4527)">
<path d="M38.8732 43.7947H43.8857V42.1904C41.8328 40.7972 40.6207 38.6934 40.6207 36.2303V33.4515C40.6207 33.1597 40.8022 32.8991 41.0757 32.7983C45.2443 31.2589 48.3453 28.1507 49.5822 26.7408C49.8458 26.44 50.3174 26.4182 50.6054 26.7151C52.3704 28.5352 53.9768 28.9454 54.9116 29.2295C55.2051 29.3188 55.4055 29.5892 55.4055 29.8956V30.6595C56.586 30.4471 57.8733 31.0778 58.5496 31.8156C58.5496 30.1335 58.5496 28.4438 58.5496 27.5367C58.5496 21.7177 53.8324 17 48.0129 17C42.1934 17 37.4766 21.7177 37.4766 27.5367V42.3981C37.4766 43.1693 38.1021 43.7947 38.8732 43.7947Z" fill="#434041"/>
<path d="M40.8569 42.3981C40.8569 42.343 40.8569 40.4631 40.8569 38.0581C40.7018 37.4766 40.6207 36.8652 40.6207 36.2299V33.4511C40.6207 33.2477 40.7104 33.061 40.8569 32.9312C40.8569 30.043 40.8569 27.5991 40.8569 27.5363C40.8569 22.2927 44.6872 17.9442 49.7031 17.1354C49.1528 17.047 48.5884 17 48.0129 17C42.1934 17 37.4766 21.7172 37.4766 27.5367V42.3981C37.4766 43.1697 38.1021 43.7952 38.8732 43.7952H42.254C41.4824 43.7947 40.8569 43.1697 40.8569 42.3981Z" fill="#535354"/>
<path d="M55.4025 36.2035C55.3375 38.6815 54.0656 41.0873 52.1562 42.4084V43.7952H57.155C57.9262 43.7952 58.5517 43.1697 58.5517 42.3981C58.5517 40.9489 58.5517 38.0321 58.5517 35.2738C57.8745 36.0129 56.5851 36.418 55.4025 36.2035Z" fill="#434041"/>
<path d="M63.9136 50.5664L53.3175 46.4631L48.0325 51.0411L42.7316 46.4606L32.1406 50.5664C32.1406 50.5664 27.875 52.3203 27.875 57.1832V71.0563C27.875 72.1299 28.7457 73.0002 29.819 73.0002H66.2353C67.309 73.0002 68.1793 72.1299 68.1793 71.0563V57.1827C68.1793 52.3203 63.9136 50.5664 63.9136 50.5664Z" fill="#F798BC"/>
<path d="M31.2554 71.0561V55.6402C31.2554 52.4658 33.0729 50.6171 34.3354 49.7156L32.1406 50.5662C32.1406 50.5662 27.875 52.3201 27.875 57.1826V71.0561C27.875 72.1297 28.7453 73 29.819 73H33.1993C32.1257 73 31.2554 72.1297 31.2554 71.0561Z" fill="#F4669C"/>
<path d="M53.3168 46.4625L53.0433 46.357C52.6434 46.2019 52.3798 45.8174 52.3798 45.3884V42.1858C51.169 43.0223 49.7023 43.5141 48.1219 43.5141C46.3903 43.5141 44.8778 43.0168 43.6606 42.1905V45.3513C43.6606 45.8024 43.3833 46.2075 42.9625 46.3707L42.7305 46.4604L48.0317 51.0409L53.3168 46.4625Z" fill="#FFD7BD"/>
<path d="M47.0461 43.4464C45.7596 43.2858 44.6185 42.8406 43.6606 42.1903V45.3511C43.6606 45.8022 43.3833 46.2073 42.9625 46.3705L42.7305 46.4602L47.0461 50.1892V43.4464Z" fill="#FFBE9D"/>
<path d="M55.5481 30.5929V36.2924C55.5481 36.3607 55.5447 36.4282 55.543 36.4957C57.6031 36.8691 59.3138 35.4062 59.3138 33.5447C59.3134 31.6849 57.6057 30.2229 55.5481 30.5929Z" fill="#FFE1CC"/>
<path d="M58.5572 31.5691C57.8663 30.7987 56.7687 30.3732 55.5481 30.5928V36.2923C55.5481 36.3606 55.5447 36.4281 55.543 36.4956C56.7657 36.7174 57.8655 36.2918 58.5572 35.5202V31.5691Z" fill="#FFE1CC"/>
<path d="M51.2308 54.6923C51.2308 54.6923 52.2562 53.4565 52.2972 53.4014L56.4902 47.6917L53.0432 46.3569L48 50.9231L48.5385 52C50.1112 52.1551 50.4874 53.3828 51.2308 54.6923Z" fill="#F4669C"/>
<path d="M43.7925 54.6923C44.5451 53.125 45.9099 52.0194 47.5049 51.8292L47.9982 50.9231L42.8863 46.0769L39.3828 47.6744L43.6449 54.5082C43.6883 54.5783 43.7387 54.6391 43.7925 54.6923Z" fill="#F4669C"/>
<path d="M61.7644 73.0001V58.854C61.7644 58.3875 61.3863 58.0089 60.9193 58.0089C60.4523 58.0089 60.0742 58.3875 60.0742 58.854V73.0001H61.7644Z" fill="#F4669C"/>
<path d="M35.9792 73.0001V58.854C35.9792 58.3875 35.6011 58.0089 35.1342 58.0089C34.6676 58.0089 34.2891 58.3875 34.2891 58.854V73.0001H35.9792Z" fill="#F4669C"/>
<path d="M55.1397 29.2294C54.2049 28.9453 52.3729 28.1972 50.6083 26.3771C50.3204 26.0801 49.8487 26.1019 49.5851 26.4027C48.3486 27.8126 45.0221 31.2592 40.8535 32.7982C40.58 32.899 40.3984 33.1596 40.3984 33.4514V36.2302C40.3984 40.1532 43.472 43.7391 48.1243 43.7391C52.2652 43.7391 55.6336 40.3707 55.6336 36.2302V29.8955C55.6336 29.5891 55.4332 29.3187 55.1397 29.2294Z" fill="#FFE1CC"/>
<path d="M43.7788 36.2301V31.3621C42.8679 31.9179 41.887 32.4165 40.8535 32.798C40.58 32.8989 40.3984 33.1595 40.3984 33.4513V36.2301C40.3984 40.1531 43.472 43.739 48.1248 43.739C48.6845 43.739 49.2296 43.6757 49.7551 43.5587C46.0979 42.7883 43.7788 39.637 43.7788 36.2301Z" fill="#FFD7BD"/>
</g>
<defs>
<clipPath id="clip0_2639_4527">
<rect width="56" height="56" fill="white" transform="translate(20 17)"/>
</clipPath>
</defs>
</svg>
