<svg width="52" height="38" viewBox="0 0 52 38" fill="none" xmlns="http://www.w3.org/2000/svg">
<path d="M29.0511 15.8157L28.3047 16.5713C28.7712 17.0351 29.191 17.551 29.559 18.0982L30.435 17.5041C30.0307 16.8944 29.5642 16.3316 29.0511 15.8157Z" fill="#01A5EC"/>
<path d="M26.2596 19.7712L25.2852 20.1829C25.5391 20.7926 25.7309 21.4284 25.8605 22.0746L26.8971 21.8661C26.752 21.147 26.5395 20.4435 26.2596 19.7712Z" fill="#01A5EC"/>
<path d="M29.7754 22.929C29.5215 23.5387 29.2105 24.1223 28.8477 24.6747L29.7288 25.2636C30.1331 24.6538 30.4752 24.0129 30.7551 23.3354L29.7754 22.929Z" fill="#01A5EC"/>
<path d="M25.0952 23.1479L24.0586 23.3564C24.1985 24.0755 24.411 24.7738 24.6909 25.4461L25.6654 25.0344C25.4166 24.4299 25.2248 23.7941 25.0952 23.1479Z" fill="#01A5EC"/>
<path d="M12.7229 25.175L11.9766 25.9307C12.443 26.3945 12.8629 26.9104 13.2309 27.4575L14.1068 26.8635C13.7025 26.2538 13.2361 25.6857 12.7229 25.175Z" fill="#01A5EC"/>
<path d="M9.93146 29.125L8.95703 29.5367C9.21101 30.1464 9.40278 30.7822 9.53236 31.4283L10.569 31.2199C10.4239 30.5007 10.2114 29.8025 9.93146 29.125Z" fill="#01A5EC"/>
<path d="M13.4512 32.2883C13.1972 32.898 12.8863 33.4817 12.5234 34.0341L13.4046 34.6229C13.8089 34.0132 14.1509 33.3723 14.4308 32.6948L13.4512 32.2883Z" fill="#01A5EC"/>
<path d="M8.771 32.502L7.73438 32.7104C7.87432 33.4295 8.08683 34.1278 8.36672 34.8001L9.34115 34.3936C9.09236 33.7839 8.90058 33.1533 8.771 32.502Z" fill="#01A5EC"/>
<path d="M47.6682 9.60425L46.9219 10.3599C47.3884 10.8289 47.8082 11.3344 48.1762 11.8867L49.0521 11.2927C48.6479 10.683 48.1814 10.1202 47.6682 9.60425Z" fill="#01A5EC"/>
<path d="M44.8768 13.5596L43.9023 13.9713C44.1563 14.581 44.3481 15.2167 44.4777 15.8629L45.5143 15.6545C45.3692 14.9353 45.1567 14.2318 44.8768 13.5596Z" fill="#01A5EC"/>
<path d="M48.3965 16.7173C48.1426 17.327 47.8316 17.9106 47.4688 18.463L48.3499 19.0519C48.7542 18.4422 49.0963 17.8012 49.3762 17.1238L48.3965 16.7173Z" fill="#01A5EC"/>
<path d="M43.7124 16.9365L42.6758 17.145C42.8157 17.8641 43.0282 18.5624 43.3081 19.2346L44.2826 18.823C44.0338 18.2185 43.842 17.5827 43.7124 16.9365Z" fill="#01A5EC"/>
<path d="M37.8536 1.17772C34.8214 0.40647 31.2502 0 27.5184 0C23.8072 0 20.2464 0.401259 17.2298 1.1673C17.007 1.22462 16.8566 1.43307 16.8722 1.66236L17.375 8.92671C17.3853 9.06742 17.4527 9.19248 17.5667 9.27586C17.5927 9.29671 17.6238 9.31234 17.6549 9.32797L19.0698 29.6984C19.0336 29.7609 19.0025 29.8182 18.9714 29.8808C18.8988 29.9642 18.8522 30.0684 18.8522 30.1882V35.6287C18.8522 35.8424 18.9973 36.0352 19.2046 36.0873C21.6925 36.7491 24.5692 37.0982 27.5132 37.0982C30.4572 37.0982 33.3339 36.7491 35.8218 36.0873C36.0291 36.0299 36.1742 35.8424 36.1742 35.6287V30.2247C36.195 30.1778 36.2105 30.1205 36.2105 30.0684L37.4648 9.29671C37.47 9.2915 37.4804 9.2915 37.4907 9.28628C37.6048 9.20291 37.6721 9.07784 37.6825 8.93714L38.2008 1.67799C38.2267 1.44349 38.0764 1.23504 37.8536 1.17772ZM26.9586 32.5333C24.0197 32.4395 20.3138 31.6474 19.8525 30.3915C19.9043 30.3498 19.951 30.2977 19.9873 30.2351C20.1998 29.8182 21.0965 29.2242 22.9831 28.7969C24.1701 28.5259 25.5488 28.3695 26.9949 28.3331C27.0467 28.3331 27.0985 28.3331 27.1452 28.3279C27.2851 28.3279 27.4303 28.3226 27.5754 28.3226C32.0381 28.3331 34.951 29.4639 35.2102 30.3133C34.8836 31.6161 31.0792 32.4447 28.0781 32.5385C27.8916 32.5437 27.7101 32.5489 27.5184 32.5489C27.3266 32.5437 27.1452 32.5385 26.9586 32.5333ZM23.3511 9.68233C26.4869 9.8074 29.3791 9.83346 31.9603 9.75529V27.7494C30.8874 27.5462 29.6901 27.4263 28.4462 27.3846C28.2077 27.3742 27.9641 27.369 27.7257 27.369C27.6998 27.369 27.6739 27.369 27.6531 27.369C27.6428 27.369 27.6324 27.369 27.6168 27.369C27.5858 27.369 27.5495 27.369 27.5184 27.369C26.0775 27.369 24.6365 27.4889 23.3511 27.7182V9.68233ZM32.4216 8.78601C29.6072 8.89024 26.404 8.86418 22.9002 8.70784C22.6307 8.69742 22.356 8.68179 22.0813 8.67137C22.3508 8.6401 22.6307 8.61404 22.9209 8.58799C26.0464 8.30659 29.2288 8.32222 32.3905 8.65052C32.6963 8.68179 32.997 8.71827 33.3028 8.75475C33.0229 8.76517 32.7274 8.77559 32.4216 8.78601ZM27.5184 0.953642C31.017 0.953642 34.3653 1.31842 37.2368 2.0063L36.7858 8.31701C34.1061 7.73336 31.0481 7.42069 27.8916 7.39463C27.8086 7.39463 27.7257 7.38942 27.6479 7.38942C27.6065 7.38942 27.5598 7.38942 27.5184 7.38942C27.254 7.38942 26.9897 7.39463 26.7254 7.39984C26.6269 7.39984 26.5284 7.39985 26.4299 7.40506C26.0878 7.41027 25.7406 7.4259 25.4036 7.44153C25.3466 7.44675 25.2896 7.44675 25.2326 7.44675C24.196 7.49365 23.1801 7.57702 22.1901 7.68646C22.045 7.70209 21.8998 7.71773 21.7599 7.73336C21.5889 7.7542 21.4178 7.77505 21.2468 7.8011C21.0446 7.82716 20.8425 7.85322 20.6455 7.88448C20.5211 7.90012 20.3967 7.92096 20.2723 7.94181C20.0028 7.98349 19.7385 8.0304 19.4793 8.0773C19.4171 8.08772 19.3549 8.09814 19.2927 8.10856C19.2253 8.11899 19.158 8.12941 19.0906 8.14504L18.9558 8.1711L18.7485 8.21279C18.5671 8.24926 18.4168 8.28053 18.282 8.30659L17.8466 2.00108C20.7077 1.31321 24.0405 0.953642 27.5184 0.953642ZM22.4026 9.64064V27.9162C21.423 28.1507 20.5781 28.4633 19.9562 28.8542L18.6086 9.42177C19.894 9.51036 21.169 9.58332 22.4026 9.64064ZM27.5184 36.1394C24.792 36.1394 22.1331 35.8319 19.8007 35.2535V31.9027C21.3142 32.9502 24.4292 33.4921 27.5184 33.4921C30.6075 33.4921 33.7174 32.9502 35.2361 31.9027V35.2535C32.9037 35.8371 30.2447 36.1394 27.5184 36.1394ZM35.3397 28.9428C34.6659 28.4894 33.7485 28.1715 32.9088 27.9579V9.71881C34.6245 9.64585 35.8114 9.54163 36.5163 9.46346L35.3397 28.9428Z" fill="#01A5EC"/>
<path d="M3.66243 17.2956C3.78683 17.2956 3.89049 17.207 3.91122 17.082C3.93196 16.9569 3.85421 16.8423 3.735 16.8058C3.22187 16.6494 2.66209 16.0814 2.20079 15.2476C2.13341 15.1278 1.9831 15.0809 1.86388 15.1486C1.74467 15.2164 1.69802 15.3675 1.7654 15.4874C2.2889 16.4358 2.95234 17.0872 3.58987 17.28C3.61579 17.2904 3.6417 17.2956 3.66243 17.2956Z" fill="#01A5EC"/>
<path d="M6.23461 11.7356C6.3901 12.0847 6.46785 12.4599 6.47303 12.8403C6.47303 12.981 6.58188 13.0905 6.72182 13.0905C6.86177 13.0905 6.97061 12.9758 6.97061 12.8403C6.97061 12.3922 6.87213 11.944 6.69591 11.5323C6.46267 10.9904 6.09985 10.5162 5.62818 10.1618C5.51934 10.0784 5.36384 10.0993 5.28091 10.2139C5.19798 10.3233 5.21871 10.4797 5.33274 10.5631C5.72666 10.8653 6.03765 11.2718 6.23461 11.7356Z" fill="#01A5EC"/>
<path d="M3.97926 10.0889C4.20732 10.0889 4.43019 10.1306 4.64788 10.2035C4.77746 10.2504 4.91741 10.1775 4.96406 10.0472C5.00552 9.91693 4.93814 9.77622 4.80856 9.72932C4.54422 9.63552 4.26433 9.58862 3.97926 9.58862C3.83931 9.58862 3.73047 9.70327 3.73047 9.83876C3.73047 9.97425 3.8445 10.0889 3.97926 10.0889Z" fill="#01A5EC"/>
<path d="M8.71937 18.8072C8.20624 18.6509 7.64646 18.0829 7.18516 17.2491C7.11778 17.1292 6.96747 17.0823 6.84826 17.1501C6.72905 17.2178 6.6824 17.369 6.74978 17.4888C7.27328 18.4372 7.93672 19.0886 8.57424 19.2815C8.65717 19.3075 8.75565 19.2867 8.81785 19.2241C8.88523 19.1616 8.91115 19.0678 8.89041 18.9844C8.86968 18.901 8.8023 18.8333 8.71937 18.8072Z" fill="#01A5EC"/>
<path d="M10.6047 12.1628C10.4959 12.0794 10.3404 12.1002 10.2575 12.2149C10.1745 12.3243 10.1953 12.4807 10.3093 12.564C10.7084 12.8663 11.0194 13.2675 11.2164 13.7313C11.3718 14.0805 11.4496 14.4557 11.4548 14.8413C11.4548 14.982 11.5636 15.0914 11.7036 15.0914C11.8435 15.0914 11.9524 14.982 11.9524 14.8413C11.9524 14.3932 11.8539 13.945 11.6725 13.5333C11.4392 12.9913 11.0712 12.5223 10.6047 12.1628Z" fill="#01A5EC"/>
<path d="M9.79294 11.7303C9.5286 11.6365 9.24871 11.5896 8.96364 11.5896C8.82369 11.5896 8.71484 11.7042 8.71484 11.8397C8.71484 11.9752 8.82887 12.0899 8.96364 12.0899C9.19169 12.0899 9.41457 12.1316 9.63226 12.2045C9.76184 12.2514 9.90697 12.1785 9.94843 12.0482C9.9899 11.9179 9.92252 11.772 9.79294 11.7303Z" fill="#01A5EC"/>
<path d="M8.95647 10.589C8.44852 10.5942 7.95612 10.6984 7.49482 10.9069C6.8573 9.52591 5.49413 8.62959 3.98065 8.5879C1.86075 8.58269 0 10.5734 0 12.8402C0 14.7996 1.33725 17.4677 3.09434 18.166L2.99067 18.807C2.98031 18.8799 3.00104 18.9529 3.04769 19.0102C3.09434 19.0675 3.1669 19.0988 3.23946 19.0988H3.63857L3.48307 19.573C3.31203 20.0837 3.38459 20.6517 3.68521 21.0999L3.87181 21.3813C4.08432 21.7044 4.14133 22.1056 4.01693 22.4704L3.75259 23.2782C3.71113 23.4084 3.77851 23.5491 3.90809 23.596C4.03767 23.6377 4.17761 23.57 4.22426 23.4397L4.4886 22.632C4.65964 22.1213 4.58708 21.5533 4.28646 21.1051L4.09468 20.8185C3.88217 20.4954 3.82516 20.0941 3.94955 19.7294L4.16206 19.0936H4.72702C4.79959 19.0936 4.87215 19.0623 4.9188 19.005C4.96545 18.9477 4.98618 18.8747 4.97582 18.8018L4.87215 18.1608C5.17796 18.0409 5.45785 17.869 5.71182 17.6605C6.23532 18.7132 7.05944 19.7606 8.07533 20.1671L7.97167 20.8029C7.96131 20.8758 7.98204 20.9488 8.02869 21.0061C8.07533 21.0634 8.14271 21.0947 8.22046 21.0947H8.61956L8.46407 21.5689C8.29303 22.0848 8.37077 22.6476 8.6714 23.0958L8.85799 23.372C8.87872 23.4032 8.89427 23.4345 8.915 23.4658C8.95647 23.5439 9.04458 23.596 9.1327 23.596C9.17416 23.596 9.21563 23.5856 9.25191 23.5648C9.37112 23.497 9.41777 23.3459 9.35039 23.226C9.32447 23.1844 9.30374 23.1375 9.27264 23.0958L9.08605 22.8196C8.87354 22.4965 8.81652 22.0952 8.94092 21.7304L9.14824 21.0947H9.71321C9.78577 21.0947 9.85833 21.0634 9.90498 21.0061C9.95163 20.9488 9.97236 20.8758 9.962 20.8029L9.84797 20.1723C10.5632 19.8909 11.2371 19.2812 11.8124 18.3745C12.5017 17.3166 12.8905 16.092 12.9423 14.8309C12.9423 12.5692 11.0764 10.589 8.95647 10.589ZM0.497582 12.8402C0.497582 10.8391 2.12509 9.08817 3.98065 9.08817C5.3179 9.08817 6.56186 9.96886 7.14755 11.3394C7.35488 11.8136 7.46372 12.3243 7.46372 12.8454C7.46372 13.0278 7.45336 13.2154 7.42744 13.3978C7.39634 13.6167 7.35488 13.8303 7.30305 14.044C7.02316 15.1904 6.44264 16.2431 5.61853 17.0873C5.30754 17.4 4.92917 17.6345 4.50933 17.77C4.25018 17.8533 3.97547 17.8742 3.70595 17.8325C3.61783 17.8169 3.52454 17.8012 3.43642 17.77C1.8141 17.2697 0.497582 14.6693 0.497582 12.8402ZM3.52972 18.5985L3.57637 18.3119C3.59192 18.3171 3.60747 18.3171 3.62302 18.3171C3.63857 18.3223 3.6593 18.3223 3.67485 18.3223C3.77333 18.338 3.87699 18.3432 3.98065 18.3484H3.99102C4.09468 18.3484 4.19316 18.338 4.29682 18.3276C4.31237 18.3223 4.33311 18.3223 4.35384 18.3171C4.37457 18.3171 4.38494 18.3171 4.3953 18.3119L4.44195 18.5985H3.52972ZM9.41258 20.5996H8.50554L8.55218 20.313C8.5781 20.3182 8.6092 20.3182 8.63511 20.3234C8.66103 20.3286 8.68176 20.3286 8.70768 20.3339C8.79061 20.3443 8.87354 20.3495 8.96165 20.3495H8.96683C9.1016 20.3495 9.23117 20.3391 9.36594 20.313L9.41258 20.5996ZM11.3977 18.1087C10.8379 18.9894 10.159 19.5678 9.47997 19.771C9.40222 19.7971 9.32447 19.8127 9.24154 19.8284L9.20526 19.8336C9.0394 19.8596 8.86835 19.8596 8.70249 19.8336C8.68176 19.8284 8.66103 19.8232 8.6403 19.8232C8.57292 19.8127 8.50554 19.7971 8.43815 19.7763C7.42744 19.4844 6.59296 18.3953 6.08501 17.3218C6.10056 17.3062 6.11611 17.2905 6.12647 17.2749C6.15757 17.2436 6.18867 17.2072 6.21977 17.1759C6.25605 17.1342 6.29233 17.0925 6.32862 17.0508C6.35971 17.0143 6.39081 16.9779 6.41673 16.9414C6.45301 16.8997 6.48411 16.8528 6.52039 16.8111C6.55149 16.7746 6.57741 16.7329 6.60851 16.6965C6.6396 16.6496 6.67589 16.6027 6.70698 16.5558C6.73808 16.5141 6.764 16.4724 6.78992 16.4307C6.82101 16.3838 6.85211 16.3369 6.88321 16.2848C6.90913 16.2431 6.93504 16.1962 6.96096 16.1545C6.99206 16.1024 7.01797 16.0555 7.04389 16.0034C7.0698 15.9565 7.09054 15.9148 7.11645 15.8679C7.14237 15.8158 7.16828 15.7637 7.1942 15.7116C7.21493 15.6647 7.24085 15.6178 7.26158 15.5709C7.2875 15.5187 7.31341 15.4666 7.33414 15.4145C7.35488 15.3676 7.37561 15.3207 7.39634 15.2738C7.41708 15.2217 7.44299 15.1644 7.46372 15.1123C7.48446 15.0654 7.50001 15.0185 7.52074 14.9664C7.54147 14.9142 7.5622 14.8569 7.57775 14.7996C7.5933 14.7527 7.61403 14.7058 7.62958 14.6589C7.64513 14.6016 7.66587 14.5443 7.68142 14.4921C7.69696 14.4452 7.71251 14.3983 7.72288 14.3514C7.73843 14.2941 7.75398 14.2368 7.76953 14.1795C7.77989 14.1326 7.79544 14.0857 7.80581 14.0388C7.82136 13.9815 7.83173 13.9241 7.84209 13.8668C7.85246 13.8199 7.86283 13.7782 7.86801 13.7313C7.87838 13.674 7.88874 13.6115 7.89392 13.5541C7.89911 13.5124 7.90947 13.4708 7.91466 13.4291C7.92502 13.3613 7.93021 13.2988 7.93539 13.231C7.94057 13.1998 7.94057 13.1633 7.94576 13.132C7.95094 13.033 7.95612 12.9392 7.95612 12.8454C7.95612 12.7099 7.95094 12.5744 7.93539 12.4389C7.93021 12.392 7.92502 12.3504 7.91466 12.3035C7.90429 12.2149 7.88874 12.1211 7.87319 12.0325C7.86282 11.9804 7.85246 11.9283 7.83691 11.8761C7.81618 11.7928 7.79544 11.7094 7.76953 11.6312C7.75398 11.5791 7.73843 11.527 7.7177 11.4749C7.70215 11.4384 7.69696 11.4019 7.68142 11.3602C8.07533 11.1831 8.50554 11.0893 8.94092 11.0893H8.9461C10.8017 11.0893 12.4292 12.8402 12.4344 14.8361C12.3981 16.0034 12.0353 17.1342 11.3977 18.1087Z" fill="#01A5EC"/>
<path d="M41.8812 29.073C42.0056 29.073 42.1092 28.9844 42.13 28.8593C42.1455 28.7342 42.073 28.6196 41.9538 28.5831C41.4406 28.4268 40.8808 27.8588 40.4195 27.025C40.3522 26.9051 40.2018 26.8582 40.0826 26.926C39.9634 26.9937 39.9168 27.1448 39.9842 27.2647C40.5077 28.2131 41.1711 28.8645 41.8086 29.0573C41.8345 29.0678 41.8605 29.073 41.8812 29.073Z" fill="#01A5EC"/>
<path d="M44.4495 23.5075C44.6049 23.8567 44.6827 24.2319 44.6879 24.6123C44.6879 24.753 44.7967 24.8624 44.9367 24.8624C45.0766 24.8624 45.1855 24.753 45.1855 24.6123C45.1855 24.1641 45.087 23.716 44.9108 23.3043C44.6775 22.7623 44.3147 22.2881 43.843 21.9338C43.7342 21.8504 43.5787 21.8712 43.4958 21.9859C43.4128 22.0953 43.4336 22.2517 43.5476 22.335C43.9415 22.6425 44.2577 23.049 44.4495 23.5075Z" fill="#01A5EC"/>
<path d="M42.2019 21.866C42.43 21.866 42.6528 21.9077 42.8705 21.9806C43.0001 22.0223 43.1401 21.9546 43.1867 21.8243C43.2282 21.694 43.1608 21.5533 43.0312 21.5064C42.7617 21.4126 42.4818 21.3657 42.2019 21.3657C42.062 21.3657 41.9531 21.4752 41.9531 21.6159C41.9531 21.7513 42.062 21.866 42.2019 21.866Z" fill="#01A5EC"/>
<path d="M46.9342 30.5841C46.4211 30.4278 45.8613 29.8597 45.4 29.026C45.3326 28.9061 45.1823 28.8592 45.0631 28.9269C44.9439 28.9947 44.8972 29.1458 44.9646 29.2657C45.4881 30.2141 46.1516 30.8655 46.7891 31.0583C46.872 31.0844 46.9705 31.0635 47.0327 31.001C47.1001 30.9385 47.126 30.8447 47.1053 30.7613C47.0845 30.6779 47.0223 30.6102 46.9342 30.5841Z" fill="#01A5EC"/>
<path d="M48.8196 23.9399C48.7107 23.8565 48.5552 23.8773 48.4723 23.992C48.3894 24.1014 48.4101 24.2578 48.5242 24.3411C48.9233 24.6434 49.2342 25.0499 49.4312 25.5084C49.5867 25.8576 49.6644 26.2328 49.6696 26.6184C49.6696 26.7591 49.7785 26.8685 49.9184 26.8685C50.0584 26.8685 50.1672 26.7539 50.1672 26.6184C50.1672 26.1702 50.0687 25.7221 49.8873 25.3104C49.6593 24.7684 49.2913 24.2994 48.8196 23.9399Z" fill="#01A5EC"/>
<path d="M48.0078 23.5074C47.7434 23.4136 47.4635 23.3667 47.1785 23.3667C47.0385 23.3667 46.9297 23.4761 46.9297 23.6168C46.9297 23.7575 47.0437 23.867 47.1785 23.867C47.4065 23.867 47.6294 23.9087 47.8471 23.9816C47.9767 24.0285 48.1166 23.9556 48.1633 23.8253C48.2047 23.695 48.1374 23.5491 48.0078 23.5074Z" fill="#01A5EC"/>
<path d="M47.1752 22.3663C46.6673 22.3715 46.1749 22.4758 45.7136 22.6842C45.076 21.3032 43.7129 20.4069 42.1994 20.3652C40.0795 20.3652 38.2188 22.3559 38.2188 24.6227C38.2188 26.5821 39.556 29.2503 41.3131 29.9486L41.2094 30.5895C41.1991 30.6625 41.2198 30.7354 41.2664 30.7928C41.3131 30.8501 41.3856 30.8813 41.4582 30.8813H41.8573L41.7018 31.3556C41.5308 31.8663 41.6033 32.4343 41.904 32.8824L42.0906 33.1586C42.3031 33.4817 42.3601 33.883 42.2357 34.2478L41.9713 35.0555C41.9299 35.1858 41.9973 35.3265 42.1268 35.3734C42.2564 35.4151 42.3964 35.3473 42.443 35.217L42.7074 34.4093C42.8784 33.8986 42.8058 33.3306 42.5052 32.8824L42.3186 32.601C42.1061 32.2779 42.0491 31.8767 42.1735 31.5119L42.386 30.8761H42.951C43.0235 30.8761 43.0961 30.8449 43.1427 30.7875C43.1894 30.7302 43.2101 30.6573 43.1997 30.5843L43.0961 29.9433C43.4019 29.8235 43.6818 29.6515 43.9358 29.4431C44.4593 30.4957 45.2834 31.5432 46.2993 31.9496L46.1956 32.5906C46.1852 32.6636 46.206 32.7365 46.2526 32.7938C46.2993 32.8512 46.3666 32.8824 46.4444 32.8824H46.8435L46.6725 33.3514C46.5014 33.8673 46.5792 34.4301 46.8798 34.8783L47.0664 35.1545C47.0871 35.1858 47.1027 35.217 47.1234 35.2483C47.1649 35.3265 47.253 35.3786 47.3411 35.3786C47.3825 35.3786 47.424 35.3682 47.4603 35.3473C47.5795 35.2796 47.6262 35.1284 47.5588 35.0086C47.5329 34.9669 47.5121 34.92 47.481 34.8783L47.2944 34.5969C47.0819 34.2738 47.0249 33.8726 47.1493 33.5078L47.3566 32.872H47.9216C47.9942 32.872 48.0667 32.8407 48.1134 32.7834C48.16 32.7261 48.1807 32.6531 48.1704 32.5802L48.0667 31.9444C48.782 31.663 49.4558 31.0533 50.0311 30.1466C50.7205 29.0887 51.1092 27.8641 51.1611 26.603C51.1559 24.3466 49.2899 22.3663 47.1752 22.3663ZM38.7112 24.6175C38.7112 22.6165 40.3387 20.8655 42.1942 20.8655C43.5315 20.8655 44.7754 21.7462 45.3611 23.1167C45.5684 23.5909 45.6773 24.1016 45.6773 24.6227C45.6773 24.8051 45.6669 24.9927 45.641 25.1751C45.6099 25.394 45.5684 25.6077 45.5166 25.8213C45.2367 26.9678 44.6562 28.0204 43.8321 28.8646C43.5211 29.1773 43.1427 29.4118 42.7229 29.5473C42.4637 29.6307 42.189 29.6515 41.9195 29.6098C41.8314 29.5942 41.7381 29.5733 41.65 29.5473C40.0277 29.047 38.7112 26.4467 38.7112 24.6175ZM41.7433 30.3759L41.7899 30.0893C41.8055 30.0945 41.821 30.0945 41.8366 30.0945C41.8521 30.0997 41.8729 30.0997 41.8884 30.0997C41.9869 30.1153 42.0906 30.1205 42.1942 30.1257H42.2046C42.3082 30.1257 42.4067 30.1153 42.5104 30.1049C42.5259 30.0997 42.5467 30.0997 42.5674 30.0997C42.5881 30.0945 42.5985 30.0945 42.6089 30.0945L42.6555 30.3811H41.7433V30.3759ZM47.6313 32.377H46.7243L46.7709 32.0903C46.7968 32.0956 46.8279 32.0955 46.8539 32.1008C46.8798 32.106 46.9005 32.106 46.9264 32.1112C47.0094 32.1216 47.0923 32.1268 47.1804 32.1268H47.1856C47.3203 32.1268 47.4499 32.1164 47.5847 32.0903L47.6313 32.377ZM49.6113 29.886C49.0515 30.7667 48.3725 31.3451 47.6935 31.5484C47.6158 31.5692 47.538 31.5901 47.4551 31.6005L47.4188 31.6057C47.253 31.6318 47.0819 31.6318 46.9161 31.6057C46.8953 31.6005 46.8746 31.5953 46.8539 31.5953C46.7865 31.5849 46.7191 31.5692 46.6517 31.5484C45.641 31.2566 44.8065 30.1674 44.2986 29.0939C44.3141 29.0783 44.3297 29.0627 44.34 29.047C44.3711 29.0158 44.4022 28.9793 44.4333 28.948C44.4696 28.9063 44.5059 28.8646 44.5422 28.8229C44.5733 28.7865 44.6044 28.75 44.6303 28.7135C44.6666 28.6718 44.6977 28.6249 44.734 28.5832C44.7651 28.5468 44.791 28.5051 44.8221 28.4634C44.8532 28.4165 44.8895 28.3696 44.9206 28.3227C44.9517 28.281 44.9776 28.2393 45.0035 28.1976C45.0346 28.1507 45.0657 28.1038 45.0968 28.0517C45.1227 28.01 45.1486 27.9631 45.1745 27.9214C45.2056 27.8693 45.2315 27.8224 45.2575 27.7703C45.2834 27.7234 45.3041 27.6817 45.33 27.6348C45.3559 27.5827 45.3819 27.5306 45.4078 27.4785C45.4285 27.4316 45.4544 27.3847 45.4751 27.3378C45.5011 27.2857 45.527 27.2335 45.5477 27.1814C45.5684 27.1345 45.5892 27.0876 45.6099 27.0407C45.6306 26.9886 45.6566 26.9313 45.6773 26.8792C45.698 26.8323 45.7136 26.7854 45.7343 26.7385C45.755 26.6812 45.7758 26.629 45.7913 26.5717C45.8069 26.5248 45.8276 26.4779 45.8432 26.431C45.8587 26.3737 45.8794 26.3216 45.895 26.2643C45.9105 26.2174 45.9261 26.1705 45.9364 26.1236C45.952 26.0662 45.9675 26.0089 45.9831 25.9516C45.9935 25.9047 46.009 25.8578 46.0194 25.8109C46.0349 25.7536 46.0453 25.6962 46.0557 25.6389C46.066 25.5972 46.0764 25.5503 46.0816 25.5034C46.0919 25.4409 46.1023 25.3836 46.1075 25.321C46.1127 25.2794 46.123 25.2377 46.1282 25.196C46.1386 25.1282 46.1438 25.0657 46.149 24.998C46.1541 24.9615 46.1541 24.9302 46.1593 24.8989C46.1645 24.7999 46.1697 24.7061 46.1697 24.6123C46.1697 24.4768 46.1645 24.3413 46.149 24.2059C46.1438 24.1642 46.1386 24.1173 46.1282 24.0704C46.1179 23.9818 46.1023 23.888 46.0868 23.7994C46.0764 23.7473 46.066 23.6952 46.0505 23.6431C46.0297 23.5597 46.009 23.4763 45.9831 23.3981C45.9675 23.346 45.952 23.2939 45.9313 23.2418C45.9157 23.2053 45.9105 23.1688 45.895 23.1324C46.2889 22.9552 46.7191 22.8614 47.1545 22.8614H47.1597C49.0152 22.8614 50.6427 24.6123 50.6479 26.6082C50.6116 27.7807 50.2488 28.9115 49.6113 29.886Z" fill="#01A5EC"/>
</svg>
