<svg width="49" height="37" viewBox="0 0 49 37" fill="none" xmlns="http://www.w3.org/2000/svg">
<path d="M45.1998 0H22.921C20.9335 0 19.3164 1.61698 19.3164 3.60455V25.8833C19.3164 27.8708 20.9334 29.4879 22.921 29.4879H45.1998C47.1873 29.4879 48.8044 27.8709 48.8044 25.8833V3.60455C48.8044 1.61707 47.1874 0 45.1998 0ZM46.8601 25.8833C46.8601 26.7988 46.1153 27.5435 45.1999 27.5435H22.921C22.0054 27.5435 21.2608 26.7987 21.2608 25.8833V3.60455C21.2608 2.68911 22.0056 1.94439 22.921 1.94439H45.1998C46.1154 1.94439 46.86 2.68921 46.86 3.60455V25.8833H46.8601Z" fill="#01A5EC"/>
<path d="M34.0577 5.10449C28.7424 5.10449 24.418 9.42879 24.418 14.7442C24.418 20.0596 28.7423 24.3839 34.0577 24.3839C39.3731 24.3839 43.6974 20.0597 43.6974 14.7442C43.6974 9.4287 39.3731 5.10449 34.0577 5.10449ZM34.0577 22.4396C30.1439 22.4396 26.9055 19.502 26.4258 15.7164H26.7384C27.2753 15.7164 27.7105 15.281 27.7105 14.7442C27.7105 14.2074 27.2753 13.7721 26.7384 13.7721H26.4258C26.9055 9.9864 30.1439 7.04879 34.0577 7.04879C37.9714 7.04879 41.2098 9.9864 41.6895 13.7721H41.377C40.84 13.7721 40.4048 14.2074 40.4048 14.7442C40.4048 15.281 40.84 15.7164 41.377 15.7164H41.6895C41.2099 19.5021 37.9715 22.4396 34.0577 22.4396Z" fill="#01A5EC"/>
<path d="M31.605 12.4717C31.068 12.4717 30.6328 12.907 30.6328 13.4438V16.0441C30.6328 16.5809 31.068 17.0163 31.605 17.0163C32.1419 17.0163 32.5771 16.5809 32.5771 16.0441V13.4438C32.5771 12.907 32.1419 12.4717 31.605 12.4717Z" fill="#01A5EC"/>
<path d="M36.5151 12.4717C35.9782 12.4717 35.543 12.907 35.543 13.4438V16.0441C35.543 16.5809 35.9782 17.0163 36.5151 17.0163C37.052 17.0163 37.4873 16.5809 37.4873 16.0441V13.4438C37.4873 12.907 37.052 12.4717 36.5151 12.4717Z" fill="#01A5EC"/>
<path d="M47.6369 35.0554H46.5776C46.0407 35.0554 45.6055 35.4907 45.6055 36.0276C45.6055 36.5644 46.0407 36.9997 46.5776 36.9997H47.6369C48.1738 36.9997 48.609 36.5644 48.609 36.0276C48.6091 35.4908 48.1738 35.0554 47.6369 35.0554Z" fill="#01A5EC"/>
<path d="M41.956 35.0557H16.6435C12.7631 35.0557 9.60616 31.8987 9.60616 28.0183V24.7388C13.6754 24.3974 16.8828 20.9787 16.8828 16.8227V10.2861C16.8828 8.96291 15.8062 7.8862 14.4829 7.8862H12.5115V2.4077C12.5115 1.87086 12.0763 1.43555 11.5394 1.43555C11.0025 1.43555 10.5672 1.87086 10.5672 2.4077V7.88629H6.31559V2.4077C6.31559 1.87086 5.88036 1.43555 5.34344 1.43555C4.80651 1.43555 4.37129 1.87086 4.37129 2.4077V7.88629H2.39992C1.07662 7.8862 0 8.96282 0 10.2861V16.8227C0 21.1089 3.41172 24.6113 7.66195 24.7619V28.0183C7.66195 32.9708 11.6911 37 16.6436 37H41.9561C42.493 37 42.9282 36.5646 42.9282 36.0278C42.9282 35.4911 42.4929 35.0557 41.956 35.0557ZM7.94629 22.8247C4.63684 22.8247 1.9443 20.1323 1.9443 16.8227V10.2861C1.9443 10.035 2.14866 9.83059 2.39982 9.83059H14.4831C14.7342 9.83059 14.9386 10.035 14.9386 10.2861V16.8227C14.9386 20.1323 12.2461 22.8247 8.93664 22.8247H7.94629Z" fill="#01A5EC"/>
</svg>
