<svg width="38" height="38" viewBox="0 0 38 38" fill="none" xmlns="http://www.w3.org/2000/svg">
<path d="M37.0896 28.7958L37.081 17.5789C37.0766 16.1361 35.8962 14.9673 34.439 14.9673C33.1548 14.9673 32.0565 15.8792 31.8359 17.1293L30.3701 25.3494C29.7777 25.2723 29.1767 25.4179 28.6881 25.7604L23.6895 29.2411C23.5252 29.3567 23.4258 29.545 23.4258 29.742V36.4807C23.4258 36.8189 23.7025 37.0929 24.0484 37.0929H30.2577C30.5993 37.0929 30.876 36.8189 30.876 36.4807V35.7015L34.9622 33.1242C36.3459 32.1138 37.1372 30.4955 37.0896 28.7958ZM34.2877 32.0967L29.9247 34.8453C29.7475 34.9566 29.6394 35.1535 29.6394 35.3633V35.8642H24.6711V30.0588L29.4059 26.7622C29.9204 26.4026 30.6339 26.5267 30.9928 27.0362C31.3473 27.5371 31.2392 28.2221 30.7463 28.5903L27.4039 31.0735L28.1476 32.0582L31.49 29.575C32.5408 28.7958 32.757 27.3145 31.9657 26.2741C31.8965 26.1842 31.823 26.0986 31.7451 26.0216C31.6803 25.9573 31.6154 25.8974 31.5419 25.8417L33.0596 17.3391C33.1937 16.5856 33.9201 16.0804 34.6811 16.2131C35.3514 16.3287 35.8356 16.9067 35.8356 17.5789L35.8443 28.7915C35.9005 30.0802 35.3168 31.3132 34.2877 32.0967Z" fill="#01A5EC"/>
<path d="M13.402 29.2376L8.40634 25.7572C7.91759 25.4147 7.31638 25.2692 6.72382 25.3462L5.25756 17.127C5.00237 15.7057 3.63127 14.7554 2.19528 15.0079C0.932308 15.2263 0.0153546 16.3136 0.0110293 17.5808L0.00237884 28.7966C-0.0495242 30.5004 0.750647 32.1229 2.13473 33.1331L6.20912 35.7017V36.4808C6.20912 36.819 6.48593 37.0929 6.83195 37.0929H13.043C13.3847 37.0929 13.6659 36.819 13.6659 36.4808V29.7384C13.6659 29.5415 13.5664 29.3531 13.402 29.2376ZM12.4245 35.8643H7.45479V35.3635C7.45479 35.1537 7.34666 34.9568 7.16932 34.8455L2.81812 32.1057C1.78006 31.3223 1.19615 30.0894 1.24805 28.7966L1.2567 17.5808C1.2567 16.8145 1.88386 16.1938 2.65808 16.198C3.33715 16.198 3.91673 16.6818 4.03784 17.341L5.55168 25.8385C5.48247 25.8942 5.41327 25.9541 5.35272 26.0183C4.42279 26.9387 4.42279 28.4328 5.35272 29.3531C5.43057 29.4302 5.51708 29.5073 5.60791 29.5715L8.95133 32.0544L9.69527 31.0698L6.35185 28.5869C5.84579 28.2144 5.74631 27.5038 6.12261 27.0072C6.49026 26.5192 7.18662 26.4122 7.69268 26.7589L12.4288 30.0552V35.8643H12.4245Z" fill="#01A5EC"/>
<path d="M18.5868 0H18.5469L18.5868 1.10841C19.3672 1.10841 20.1433 1.17406 20.906 1.30151L21.1499 0.212413C20.3029 0.0733789 19.4471 0 18.5868 0Z" fill="#01A5EC"/>
<path d="M16.0285 0.325439C15.2167 0.499271 14.4257 0.75779 13.6641 1.09654L14.1286 2.2777C14.8191 1.97016 15.5347 1.73838 16.2671 1.58238L16.0285 0.325439Z" fill="#01A5EC"/>
<path d="M26.7999 21.1497C26.2675 21.7171 25.6801 22.2305 25.0547 22.6808L25.7308 23.7527C26.4238 23.2573 27.0703 22.6944 27.6577 22.0639L26.7999 21.1497Z" fill="#01A5EC"/>
<path d="M23.5512 0.976074L23.1016 2.14579C23.7822 2.44595 24.434 2.81673 25.0487 3.25372L25.7046 2.19876C25.0239 1.71763 24.3061 1.30713 23.5512 0.976074Z" fill="#01A5EC"/>
<path d="M30.1831 13.0672C30.1831 13.8438 30.1016 14.616 29.9336 15.3752L31.2869 15.6182C31.4693 14.7809 31.5605 13.9262 31.5605 13.0672V13.0151L30.1831 13.0672Z" fill="#01A5EC"/>
<path d="M27.5878 3.90454L26.6797 4.76658C27.2506 5.29902 27.7632 5.88216 28.2127 6.50756L29.2827 5.82723C28.7837 5.13844 28.2172 4.49191 27.5878 3.90454Z" fill="#01A5EC"/>
<path d="M22.9662 23.7524C22.2745 24.0607 21.5578 24.293 20.8242 24.4449L21.059 25.7047C21.8721 25.5305 22.6644 25.2758 23.4272 24.9363L22.9662 23.7524Z" fill="#01A5EC"/>
<path d="M30.4663 7.80908L29.2852 8.33167C29.5927 9.1085 29.8245 9.91357 29.9849 10.7375L31.2374 10.4691C31.068 9.55576 30.8095 8.66594 30.4663 7.80908Z" fill="#01A5EC"/>
<path d="M29.4166 17.5703C29.1132 18.251 28.7439 18.9028 28.3086 19.5133L29.3595 20.1733C29.8431 19.4968 30.2521 18.7749 30.5862 18.0241L29.4166 17.5703Z" fill="#01A5EC"/>
<path d="M18.5306 24.6478C17.7426 24.6478 16.9591 24.5662 16.1888 24.4031L15.9453 25.7564C16.7997 25.9388 17.663 26.03 18.5351 26.03H18.5483L18.5306 24.6478Z" fill="#01A5EC"/>
<path d="M8.74483 19.5227L7.80859 20.1988C8.24131 20.8918 8.73696 21.5341 9.28768 22.1257L10.0862 21.2679C9.58272 20.7355 9.13427 20.1523 8.74483 19.5227Z" fill="#01A5EC"/>
<path d="M11.3602 2.27783C10.6672 2.71129 10.0249 3.2078 9.4375 3.75948L10.2995 4.55547C10.832 4.05502 11.4151 3.6058 12.0405 3.21568L11.3602 2.27783Z" fill="#01A5EC"/>
<path d="M5.80079 10.4121C5.6227 11.2635 5.53125 12.1238 5.53125 12.9885V13.0151L6.91266 12.9885C6.91266 12.2036 6.99449 11.4232 7.15814 10.656L5.80079 10.4121Z" fill="#01A5EC"/>
<path d="M7.73491 5.85669C7.25378 6.53323 6.84328 7.25514 6.50781 8.01006L7.67753 8.45971C7.97769 7.77905 8.34846 7.12726 8.78545 6.5126L7.73491 5.85669Z" fill="#01A5EC"/>
<path d="M7.11528 15.2927L5.85547 15.5275C6.0297 16.3406 6.28434 17.1329 6.62387 17.8957L7.80773 17.4305C7.50395 16.743 7.27164 16.0263 7.11528 15.2927Z" fill="#01A5EC"/>
<path d="M12.0426 22.7766L11.3867 23.8295C12.0633 24.3141 12.7852 24.7238 13.536 25.0543L13.9897 23.8868C13.3049 23.5828 12.6532 23.2128 12.0426 22.7766Z" fill="#01A5EC"/>
<path d="M27.6556 10.5641C27.6556 8.6826 26.4758 6.66888 24.5294 6.32757C24.34 4.23705 22.5874 2.62863 20.4689 2.60303C19.7326 2.60303 19.0092 2.79928 18.3805 3.17472C17.7475 2.79928 17.0284 2.60303 16.2921 2.60303C14.1046 2.63289 12.3004 4.30104 12.1152 6.45983C10.3067 7.02299 9.08813 8.69114 9.10966 10.5683C9.10966 11.4429 9.37232 12.2962 9.86751 13.0172C9.37232 13.7383 9.10966 14.5958 9.10966 15.4661C9.10966 17.3476 10.2895 19.3613 12.2358 19.7026C12.4253 21.7932 14.1778 23.4016 16.2964 23.4272C17.0327 23.4272 17.7561 23.2309 18.3848 22.8555C19.0178 23.2309 19.7369 23.4272 20.4732 23.4272C22.6563 23.3973 24.4649 21.7292 24.65 19.5704C26.4585 19.0072 27.6771 17.3391 27.6556 15.4619C27.6556 14.5873 27.3929 13.734 26.8977 13.013C27.3929 12.2877 27.6556 11.4344 27.6556 10.5641ZM17.7647 8.11091C17.7647 8.78926 17.2092 9.33536 16.5289 9.33536C15.8485 9.33536 15.2931 8.785 15.2931 8.11091H14.0573C14.0573 9.46335 15.1639 10.5598 16.5289 10.5598C16.9638 10.5555 17.3901 10.4403 17.7647 10.2185V21.7804C17.3212 22.0491 16.8131 22.1942 16.2921 22.1985C14.8409 22.1686 13.6396 21.0764 13.4802 19.6472C14.7936 19.2888 15.5644 17.9406 15.1983 16.6394C14.9012 15.5771 13.9281 14.8475 12.8171 14.8475V16.072C13.5018 16.072 14.0529 16.6223 14.0529 17.2964C14.0529 17.9705 13.4975 18.5209 12.8171 18.5209C11.3402 18.5209 10.3455 16.938 10.3455 15.4576C10.3455 14.7067 10.6168 13.9772 11.1119 13.4097C11.3143 13.1794 11.3143 12.838 11.1119 12.6077C10.6168 12.0402 10.3455 11.3107 10.3455 10.5598C10.3196 9.09218 11.3617 7.81653 12.8214 7.54348C13.1228 7.46669 13.3338 7.19364 13.3295 6.88646C13.2951 5.23111 14.6213 3.86161 16.2921 3.82321C16.8131 3.82748 17.3212 3.97253 17.7647 4.24131V8.11091ZM25.6533 13.414C26.1485 13.9857 26.4198 14.711 26.4198 15.4619C26.4456 16.9295 25.4036 18.2051 23.9438 18.4782C23.6424 18.555 23.4314 18.828 23.4357 19.1352C23.4702 20.7906 22.1439 22.1601 20.4732 22.1985C19.9522 22.1942 19.4441 22.0491 19.0005 21.7804V14.8518C19.0005 14.1734 19.556 13.6273 20.2364 13.6273C20.9167 13.6273 21.4722 14.1777 21.4722 14.8518H22.708C22.708 13.4993 21.6014 12.4029 20.2364 12.4029C19.8015 12.4071 19.3752 12.5223 19.0005 12.7442V4.24131C19.4441 3.97253 19.9522 3.82748 20.4732 3.82321C21.9243 3.85307 23.1257 4.94526 23.285 6.3745C21.9717 6.73714 21.2009 8.08105 21.5669 9.38229C21.864 10.4446 22.8415 11.1742 23.9524 11.1742V9.94972C23.2678 9.94972 22.7166 9.39936 22.7166 8.72527C22.7166 8.05118 23.2721 7.50082 23.9524 7.50082C25.4294 7.50082 26.4241 9.08364 26.4241 10.5641C26.4241 11.315 26.1528 12.0445 25.6576 12.6119C25.4509 12.8423 25.4509 13.1836 25.6533 13.414Z" fill="#01A5EC"/>
</svg>
