<svg width="96" height="87" viewBox="0 0 96 87" fill="none" xmlns="http://www.w3.org/2000/svg">
<path d="M84.7441 79.0188C91.7948 70.6223 96.0343 59.779 96.0003 47.9423C95.9266 21.8333 74.7462 0.368122 48.6803 0.00478694C21.8605 -0.369902 0 21.2996 0 48.0785C0 59.8642 4.23381 70.6564 11.2561 79.0188C11.4885 79.2969 11.9136 79.3083 12.1687 79.0528L48.0001 43.1622L83.8316 79.0528C84.0867 79.314 84.5118 79.2969 84.7441 79.0188Z" fill="#ED1164"/>
<path d="M48.0019 86.8575C69.4622 86.8575 86.8592 69.4605 86.8592 48.0002C86.8592 26.5399 69.4622 9.14282 48.0019 9.14282C26.5416 9.14282 9.14453 26.5399 9.14453 48.0002C9.14453 69.4605 26.5416 86.8575 48.0019 86.8575Z" fill="#FFD9E7"/>
<mask id="mask0_1805_10316" style="mask-type:alpha" maskUnits="userSpaceOnUse" x="9" y="8" width="78" height="79">
<path d="M48.018 86.6737C69.5024 86.6737 86.9189 69.2572 86.9189 47.7729C86.9189 26.2886 69.5024 8.87207 48.018 8.87207C26.5337 8.87207 9.11719 26.2886 9.11719 47.7729C9.11719 69.2572 26.5337 86.6737 48.018 86.6737Z" fill="#FBC000"/>
</mask>
<g mask="url(#mask0_1805_10316)">
<g opacity="0.8">
<path d="M55.1825 88.7213L29.5898 73.0244L63.0309 68.5884L65.8291 56.994V54.6509L65.4196 22.5216L93.4009 46.7493L74.2917 81.5553L55.1825 88.7213Z" fill="#FFCDE0" fill-opacity="0.5" style="mix-blend-mode:multiply"/>
</g>
</g>
<path d="M29.5898 23.5476V73.5109H59.6693C63.2074 73.5109 66.0756 70.6427 66.0756 67.1046V23.5476C66.0756 22.9812 65.6162 22.5217 65.0498 22.5217H30.6157C30.0493 22.5217 29.5898 22.9812 29.5898 23.5476Z" fill="white"/>
<path d="M66.075 23.5473V67.1047C66.075 70.642 63.2064 73.5107 59.6683 73.5107H56.7227C60.2612 73.5107 63.1298 70.642 63.1298 67.1047V23.5473C63.1298 22.9809 62.6699 22.5215 62.1035 22.5215H65.0492C65.6156 22.5215 66.075 22.9809 66.075 23.5473Z" fill="#FFA7C8" style="mix-blend-mode:multiply"/>
<path d="M57.6099 31.9297H35.7487C35.0873 31.9297 34.5508 31.4756 34.5508 30.9155V28.5331C34.5508 27.9733 35.0873 27.5193 35.7487 27.5193H57.6099C58.2717 27.5193 58.8078 27.9733 58.8078 28.5331V30.9155C58.8078 31.4756 58.2717 31.9297 57.6099 31.9297Z" fill="#01A5EC"/>
<path d="M35.6523 36.3399C35.6523 35.731 36.146 35.2373 36.7549 35.2373H49.986C50.595 35.2373 51.0886 35.731 51.0886 36.3399C51.0886 36.9488 50.595 37.4425 49.986 37.4425H36.7549C36.146 37.4425 35.6523 36.9488 35.6523 36.3399Z" fill="#F798BC"/>
<path d="M35.6523 47.366C35.6523 46.7571 36.146 46.2634 36.7549 46.2634H49.986C50.595 46.2634 51.0886 46.7571 51.0886 47.366C51.0886 47.975 50.595 48.4686 49.986 48.4686H36.7549C36.146 48.4686 35.6523 47.975 35.6523 47.366Z" fill="#F798BC"/>
<path d="M35.6523 58.3919C35.6523 57.783 36.146 57.2893 36.7549 57.2893H49.986C50.595 57.2893 51.0886 57.783 51.0886 58.3919C51.0886 59.0008 50.595 59.4945 49.986 59.4945H36.7549C36.146 59.4945 35.6523 59.0008 35.6523 58.3919Z" fill="#F798BC"/>
<path d="M35.6523 39.6475C35.6523 39.0386 36.146 38.5449 36.7549 38.5449H56.6016C57.2105 38.5449 57.7042 39.0386 57.7042 39.6475C57.7042 40.2565 57.2105 40.7501 56.6016 40.7501H36.7549C36.146 40.7501 35.6523 40.2565 35.6523 39.6475Z" fill="#ED1164"/>
<path d="M35.6523 50.6734C35.6523 50.0644 36.146 49.5708 36.7549 49.5708H56.6016C57.2105 49.5708 57.7042 50.0644 57.7042 50.6734C57.7042 51.2823 57.2105 51.776 56.6016 51.776H36.7549C36.146 51.776 35.6523 51.2823 35.6523 50.6734Z" fill="#ED1164"/>
<path d="M35.6523 61.6993C35.6523 61.0903 36.146 60.5967 36.7549 60.5967H56.6016C57.2105 60.5967 57.7042 61.0903 57.7042 61.6993C57.7042 62.3082 57.2105 62.8019 56.6016 62.8019H36.7549C36.146 62.8019 35.6523 62.3082 35.6523 61.6993Z" fill="#ED1164"/>
</svg>
