<svg width="96" height="87" viewBox="0 0 96 87" fill="none" xmlns="http://www.w3.org/2000/svg">
<path d="M84.7441 79.0188C91.7948 70.6223 96.0343 59.779 96.0003 47.9423C95.9266 21.8333 74.7462 0.368122 48.6803 0.00478694C21.8605 -0.369902 0 21.2996 0 48.0785C0 59.8642 4.23381 70.6564 11.2561 79.0188C11.4885 79.2969 11.9136 79.3083 12.1687 79.0528L48.0001 43.1622L83.8316 79.0528C84.0867 79.314 84.5118 79.2969 84.7441 79.0188Z" fill="#01A5EC"/>
<path d="M48.0019 86.8575C69.4622 86.8575 86.8592 69.4605 86.8592 48.0002C86.8592 26.5399 69.4622 9.14282 48.0019 9.14282C26.5416 9.14282 9.14453 26.5399 9.14453 48.0002C9.14453 69.4605 26.5416 86.8575 48.0019 86.8575Z" fill="#EAF9FF"/>
<mask id="mask0_2639_4528" style="mask-type:alpha" maskUnits="userSpaceOnUse" x="9" y="9" width="78" height="78">
<path d="M47.9008 86.8017C69.3852 86.8017 86.8017 69.3852 86.8017 47.9008C86.8017 26.4165 69.3852 9 47.9008 9C26.4165 9 9 26.4165 9 47.9008C9 69.3852 26.4165 86.8017 47.9008 86.8017Z" fill="#FBC000"/>
</mask>
<g mask="url(#mask0_2639_4528)">
<g opacity="0.8">
<path d="M64 86.5001L38 70.0001L43.5 53.5001L45.5 47.5001L47 29.0001L53.5 31.5001L57.5 22.5001L93.2851 46.8772L74.176 81.6833L64 86.5001Z" fill="#01A5EC" fill-opacity="0.5" style="mix-blend-mode:multiply"/>
</g>
</g>
<g clip-path="url(#clip0_2639_4528)">
<path d="M52.6584 20.2926H51.2969C52.3284 21.448 52.957 22.9705 52.957 24.6376V25.9511C54.844 26.4099 56.2496 28.1131 56.2496 30.1393V36.0695C56.2496 38.7429 54.9535 41.1187 52.957 42.603V46.2837H59.8354V27.4695C59.8354 23.5222 56.6057 20.2926 52.6584 20.2926Z" fill="#434041"/>
<path d="M48.1138 44.2068C43.6268 44.2068 39.9764 40.5565 39.9764 36.0695V33.8802C39.9764 31.696 41.7535 29.9189 43.9377 29.9189H45.3335C45.7178 29.9189 46.0869 29.7563 46.3462 29.4727L49.0631 26.5011C49.454 26.0736 50.0102 25.8285 50.5894 25.8285H51.9405C52.329 25.8285 52.7053 25.881 53.0636 25.9778V24.6376C53.0635 20.9869 50.0766 18 46.426 18C40.9065 18 36.3906 22.5159 36.3906 28.0353V47.2954L36.8148 48.0302L37.2331 47.344V46.7253C37.2331 46.4818 37.4312 46.2837 37.6747 46.2837H53.0635V42.5219C51.691 43.5772 49.975 44.2068 48.1138 44.2068Z" fill="#535354"/>
<path d="M39.899 28.0353C39.899 23.1791 43.3951 19.1003 47.9946 18.1901C47.4911 18.0669 46.9661 18 46.426 18C40.9065 18 36.3906 22.5159 36.3906 28.0353V47.2954L36.8148 48.0302L37.2331 47.3441V46.7254C37.2331 46.4819 37.4312 46.2838 37.6747 46.2838H39.899V28.0353Z" fill="#434041"/>
<path d="M33.0292 54.037L32.9273 54.5077V62.6107C32.9273 62.9818 32.8384 63.3415 32.6722 63.6645L32.6641 63.8842C32.6767 63.8639 32.6897 63.8438 32.7018 63.823L37.2321 56.3913V47.1422L33.0292 54.037Z" fill="#FFBF9D"/>
<path d="M60.0395 46.1786H59.1L58.995 46.4227V56.5126L59.0051 56.5339C59.4563 57.4856 59.6472 58.55 59.5573 59.6121C59.4788 60.5385 59.1747 61.4491 58.6774 62.2452L58.6637 62.2672L58.0742 70.0221L58.1651 70.212H62.3971C62.6991 70.212 62.9438 69.9672 62.9438 69.6653V49.0829C62.9438 47.4789 61.6435 46.1786 60.0395 46.1786Z" fill="#FFE1CC"/>
<path d="M53.9525 65.0667H42.2663C40.2153 64.9483 38.4234 63.7721 37.4414 62.075L38.0217 69.707C38.0434 69.992 38.281 70.2123 38.5668 70.2123H58.1617L58.7804 62.0748C57.7985 63.7712 56.0067 64.9473 53.9525 65.0667Z" fill="#F03C80"/>
<path d="M41.5874 69.7069L41.2227 64.9112C39.6164 64.523 38.2526 63.4769 37.4414 62.075L38.0217 69.7069C38.0434 69.9919 38.281 70.2122 38.5668 70.2122H42.1325C41.8467 70.2122 41.6091 69.9919 41.5874 69.7069Z" fill="#ED1164"/>
<path d="M59.0988 56.4891V46.1786H37.674C37.3721 46.1786 37.1273 46.4233 37.1273 46.7253V56.4889C36.683 57.4262 36.4701 58.4946 36.5653 59.621C36.8185 62.6129 39.2709 64.9955 42.2685 65.1685H53.9576C56.9552 64.9955 59.4074 62.6129 59.6607 59.621C59.7561 58.4947 59.5432 57.4263 59.0988 56.4891Z" fill="#ED1164"/>
<path d="M39.5595 59.6211C39.4641 58.4948 39.6771 57.4263 40.1214 56.4891V46.7254C40.1214 46.4235 40.3661 46.1787 40.6681 46.1787H37.674C37.3721 46.1787 37.1273 46.4235 37.1273 46.7254V56.4891C36.683 57.4263 36.4701 58.4948 36.5653 59.6211C36.8185 62.613 39.2709 64.9957 42.2685 65.1686H45.2625C42.265 64.9957 39.8127 62.613 39.5595 59.6211Z" fill="#F03C80"/>
<path d="M50.568 45.0099V43.8245C49.7931 44.0702 48.9689 44.2037 48.1137 44.2037C47.2586 44.2037 46.4342 44.0702 45.6594 43.8245V45.0099C45.6594 45.6554 45.1362 46.1786 44.4908 46.1786H41.1016L42.9582 51.6504C43.1995 52.3617 43.8672 52.8401 44.6182 52.8401H51.6093C52.3604 52.8401 53.0281 52.3617 53.2693 51.6504L55.1259 46.1786H51.7367C51.0912 46.1786 50.568 45.6554 50.568 45.0099Z" fill="#FFE1CC"/>
<path d="M45.3839 47.9499H47.1445C47.7899 47.9499 48.3132 47.4267 48.3132 46.7813V44.1998C48.2468 44.2015 48.1805 44.2037 48.1137 44.2037C47.2586 44.2037 46.4342 44.0702 45.6594 43.8245V45.0099C45.6594 45.6554 45.1362 46.1786 44.4908 46.1786H41.1016L42.9581 51.6504C43.1995 52.3617 43.8672 52.8401 44.6182 52.8401H46.3102L44.8864 48.644C44.7708 48.3033 45.0241 47.9499 45.3839 47.9499Z" fill="#FFBF9D"/>
<path d="M56.7754 31.8037H56.2451V36.0694C56.2451 36.7756 56.1544 37.4609 55.9844 38.1146H56.7754C58.5181 38.1146 59.9309 36.7019 59.9309 34.9592C59.931 33.2165 58.5182 31.8037 56.7754 31.8037Z" fill="#FFBF9D"/>
<path d="M51.941 25.7264H50.5899C49.9807 25.7264 49.3994 25.9826 48.9884 26.4322L46.2715 29.4037C46.0308 29.6669 45.6906 29.8168 45.334 29.8168H43.9383C41.6942 29.8168 39.875 31.636 39.875 33.8801V36.0693C39.875 40.6197 43.5639 44.3087 48.1143 44.3087C52.6647 44.3087 56.3536 40.6197 56.3536 36.0693V30.1391C56.3537 27.702 54.378 25.7264 51.941 25.7264Z" fill="#FFE1CC"/>
<path d="M42.928 35.6479V33.3467C42.928 31.8797 43.6678 30.5858 44.7945 29.8169H43.9383C41.6942 29.8169 39.875 31.6361 39.875 33.8802V36.0694C39.875 40.6198 43.5638 44.3087 48.1143 44.3087C48.7019 44.3087 49.2748 44.2461 49.8276 44.1291C45.889 43.3155 42.928 39.8276 42.928 35.6479Z" fill="#FFBF9D"/>
<path d="M33.2963 26.1187C31.6784 26.523 31.1341 27.0674 30.7298 28.6852C30.6671 28.9358 30.3132 28.9358 30.2506 28.6852C29.8462 27.0674 29.3019 26.523 27.684 26.1187C27.4335 26.0561 27.4335 25.7021 27.684 25.6395C29.3019 25.2351 29.8462 24.6908 30.2506 23.0729C30.3132 22.8224 30.6671 22.8224 30.7298 23.0729C31.1341 24.6908 31.6784 25.2351 33.2963 25.6395C33.5469 25.7021 33.5469 26.0561 33.2963 26.1187Z" fill="#01A5EC"/>
<path d="M65.5118 30.0518H64.8211V29.3611C64.8211 28.9388 64.4787 28.5963 64.0563 28.5963C63.6339 28.5963 63.2915 28.9388 63.2915 29.3611V30.0518H62.6008C62.1784 30.0518 61.8359 30.3943 61.8359 30.8167C61.8359 31.239 62.1784 31.5815 62.6008 31.5815H63.2915V32.2722C63.2915 32.6946 63.6339 33.037 64.0563 33.037C64.4787 33.037 64.8211 32.6946 64.8211 32.2722V31.5815H65.5118C65.9342 31.5815 66.2766 31.239 66.2766 30.8167C66.2766 30.3943 65.9342 30.0518 65.5118 30.0518Z" fill="#01A5EC"/>
<path d="M23.7149 31.8006H23.0242V31.1099C23.0242 30.6875 22.6818 30.3451 22.2594 30.3451C21.837 30.3451 21.4946 30.6875 21.4946 31.1099V31.8006H20.8039C20.3815 31.8006 20.0391 32.143 20.0391 32.5654C20.0391 32.9878 20.3815 33.3303 20.8039 33.3303H21.4946V34.0209C21.4946 34.4433 21.837 34.7858 22.2594 34.7858C22.6818 34.7858 23.0242 34.4433 23.0242 34.0209V33.3303H23.7149C24.1373 33.3303 24.4797 32.9878 24.4797 32.5654C24.4797 32.143 24.1373 31.8006 23.7149 31.8006Z" fill="#01A5EC"/>
<path d="M24.5235 50.5748H23.8328V49.8841C23.8328 49.4617 23.4904 49.1193 23.068 49.1193C22.6456 49.1193 22.3032 49.4617 22.3032 49.8841V50.5748H21.6125C21.1901 50.5748 20.8477 50.9172 20.8477 51.3396C20.8477 51.762 21.1901 52.1044 21.6125 52.1044H22.3032V52.7951C22.3032 53.2175 22.6456 53.5599 23.068 53.5599C23.4904 53.5599 23.8328 53.2175 23.8328 52.7951V52.1044H24.5235C24.9459 52.1044 25.2883 51.762 25.2883 51.3396C25.2883 50.9172 24.9459 50.5748 24.5235 50.5748Z" fill="#01A5EC"/>
<path d="M68.0143 40.7669C66.6364 41.1113 66.1728 41.5749 65.8283 42.9529C65.775 43.1662 65.4735 43.1662 65.4202 42.9529C65.0758 41.575 64.6122 41.1114 63.2342 40.7669C63.0209 40.7136 63.0209 40.4121 63.2342 40.3588C64.6121 40.0144 65.0757 39.5508 65.4202 38.1728C65.4735 37.9595 65.775 37.9595 65.8283 38.1728C66.1727 39.5507 66.6363 40.0143 68.0143 40.3588C68.2276 40.4121 68.2276 40.7136 68.0143 40.7669Z" fill="#01A5EC"/>
<path d="M32.6562 50.069L30.4004 51.3714C30.2513 51.4575 30.0815 51.503 29.9094 51.503C29.5551 51.503 29.2259 51.3139 29.0502 51.0096L28.2109 49.5559V62.6107C28.2109 63.9404 29.2888 65.0182 30.6185 65.0182C31.3135 65.0182 31.9396 64.7238 32.3791 64.2528C32.7805 63.8227 33.0261 63.2454 33.0261 62.6107V49.6892C32.9403 49.8463 32.8143 49.9777 32.6562 50.069Z" fill="#FFE1CC"/>
<path d="M30.4267 62.6107V51.3562L30.4004 51.3714C30.2513 51.4575 30.0815 51.503 29.9094 51.503C29.5551 51.503 29.2259 51.3139 29.0502 51.0096L28.2109 49.5559V62.6107C28.2109 63.9404 29.2888 65.0182 30.6185 65.0182C31.0182 65.0182 31.3949 64.9204 31.7266 64.7481C30.9544 64.3471 30.4267 63.5408 30.4267 62.6107Z" fill="#FFD7BD"/>
<path d="M37.848 49.6123L35.9188 46.2709L35.6585 46.2999L31.4095 48.753L31.293 48.9416L33.2222 52.2831C33.3895 52.5729 33.7601 52.6723 34.0499 52.5049L37.6263 50.4401C37.9161 50.2727 38.0154 49.9022 37.848 49.6123Z" fill="#01A5EC"/>
<path d="M37.208 48.5036L34.9369 49.8148C34.6471 49.9822 34.2765 49.8829 34.1092 49.593L33.0705 47.7941L31.4095 48.753L31.293 48.9416L33.2222 52.2831C33.3895 52.5729 33.7601 52.6722 34.0499 52.5049L37.6263 50.4401C37.9162 50.2727 38.0155 49.9021 37.8481 49.6123L37.208 48.5036Z" fill="#00AEEE"/>
<path d="M35.9176 46.2723L31.2917 48.9431L23.7314 38.9067C23.5125 38.616 23.5973 38.1992 23.9124 38.0173L30.1452 34.4188C30.4603 34.2368 30.8637 34.3717 31.0059 34.7066L35.9176 46.2723Z" fill="#F4669C"/>
<path d="M29.2623 44.1884C29.5151 44.0425 29.8033 44.0107 30.0676 44.0753L26.6456 39.5324C26.4267 39.2418 26.5115 38.825 26.8266 38.6431L31.526 35.9299L31.0059 34.7051C30.8637 34.3701 30.4603 34.2352 30.1452 34.4172L23.9124 38.0158C23.5973 38.1977 23.5125 38.6145 23.7314 38.9051L28.1814 44.8125L29.2623 44.1884Z" fill="#F03C80"/>
<path d="M29.4477 42.0364C30.3487 42.0364 31.0791 41.3061 31.0791 40.4051C31.0791 39.5042 30.3487 38.7738 29.4477 38.7738C28.5468 38.7738 27.8164 39.5042 27.8164 40.4051C27.8164 41.3061 28.5468 42.0364 29.4477 42.0364Z" fill="#01A5EC"/>
<path d="M32.7103 50.16L30.4545 51.4623C29.9337 51.763 29.2615 51.583 28.9608 51.0621L26.6066 46.9845C26.3059 46.4637 26.486 45.7915 27.0069 45.4909L29.2627 44.1885C29.7835 43.8878 30.4557 44.0679 30.7564 44.5888L33.1106 48.6664C33.4112 49.1871 33.2311 49.8592 32.7103 50.16Z" fill="#FFE1CC"/>
<path d="M32.7852 48.103L31.0433 49.1087C30.5225 49.4094 29.8502 49.2293 29.5496 48.7084L27.5207 45.1942L27.0068 45.4909C26.486 45.7916 26.3059 46.4637 26.6065 46.9845L28.9608 51.0622C29.2615 51.583 29.9336 51.763 30.4544 51.4624L32.7103 50.1601C33.2311 49.8593 33.4112 49.1872 33.1105 48.6664L32.7852 48.103Z" fill="#FFD7BD"/>
</g>
<defs>
<clipPath id="clip0_2639_4528">
<rect width="52.2121" height="52.2121" fill="white" transform="translate(18 18)"/>
</clipPath>
</defs>
</svg>
