<svg width="95" height="86" viewBox="0 0 95 86" fill="none" xmlns="http://www.w3.org/2000/svg">
<path d="M83.4196 77.7837C90.36 69.5185 94.5333 58.8447 94.4998 47.1929C94.4273 21.492 73.5779 0.362368 47.9194 0.00471211C21.5188 -0.364121 0 20.9667 0 47.3271C0 58.9285 4.16763 69.552 11.0802 77.7837C11.309 78.0575 11.7274 78.0687 11.9785 77.8172L47.2499 42.4875L82.5213 77.8172C82.7724 78.0743 83.1908 78.0575 83.4196 77.7837Z" fill="#ED1164"/>
<path d="M47.25 85.5C68.3749 85.5 85.5 68.3749 85.5 47.25C85.5 26.1251 68.3749 9 47.25 9C26.1251 9 9 26.1251 9 47.25C9 68.3749 26.1251 85.5 47.25 85.5Z" fill="#FFD9E7"/>
<mask id="mask0_2639_4523" style="mask-type:alpha" maskUnits="userSpaceOnUse" x="9" y="9" width="77" height="77">
<path d="M47.2928 85.5856C68.4413 85.5856 85.5856 68.4413 85.5856 47.2928C85.5856 26.1443 68.4413 9 47.2928 9C26.1443 9 9 26.1443 9 47.2928C9 68.4413 26.1443 85.5856 47.2928 85.5856Z" fill="#FBC000"/>
</mask>
<g mask="url(#mask0_2639_4523)">
<g opacity="0.8">
<path d="M60.5 96L26.5 76L52.9018 65.1416L64.8266 56.3697L48 43.5L57 16.5L99.5 43.5L73.1569 80.5471L60.5 96Z" fill="#FFCDE0" fill-opacity="0.5" style="mix-blend-mode:multiply"/>
</g>
</g>
<path d="M58.0391 44H53.1904L46.7891 48.5264L40.3877 44H35.5391C31.4046 44 28.0391 47.3636 28.0391 51.5V59H46.7891H65.5391V51.5C65.5391 47.3636 62.1736 44 58.0391 44Z" fill="#FD498D"/>
<path d="M65.5391 51.5C65.5391 47.3636 62.1736 44 58.0391 44H53.1904L46.7891 48.5264V59H65.5391V51.5Z" fill="#ED1164"/>
<path d="M46.7891 35.4966H43.0391V41.3486L44.7793 44.9638L46.7891 46.9736L49.3367 44.426L50.5391 41.3486V35.4966H46.7891Z" fill="#FFCCB3"/>
<path d="M50.5391 41.3486V35.4966H46.7891V46.9736L49.3367 44.426L50.5391 41.3486Z" fill="#FF9680"/>
<path d="M46.7891 21.375H43.8482L39.2891 25.125V32.75C39.2891 36.8921 42.6469 40.25 46.7891 40.25C50.9312 40.25 54.2891 36.8921 54.2891 32.75V21.375H46.7891Z" fill="#FFE1CC"/>
<path d="M54.2891 32.75V21.375H46.7891V40.25C50.9312 40.25 54.2891 36.8921 54.2891 32.75Z" fill="#FFCCB3"/>
<path d="M46.7889 53.375H22L26.5007 76H46.7889H67.077L71.5777 53.375H46.7889Z" fill="#F3F5F9"/>
<path d="M71.5779 53.375H46.7891V76H67.0772L71.5779 53.375Z" fill="#E1E6F0"/>
<path d="M50.5381 41.3491L46.7881 45.0991L43.0381 41.3491L40.3867 44.0005L46.7881 50.4019L53.1895 44.0005L50.5381 41.3491Z" fill="#F3F5F9"/>
<path d="M50.5391 41.3491L46.7891 45.0991V50.4019L53.1904 44.0005L50.5391 41.3491Z" fill="#E1E6F0"/>
<path d="M57.591 16.8768C56.5928 15.4025 52.3195 15.75 50.5391 15.75V15.75H46.7891H43.0391C40.9679 15.75 39.2891 17.4289 39.2891 19.5V25.125H46.7891H54.2891C56.3602 25.125 58.0391 23.4459 58.0391 21.375V18.1135C58.0391 17.7388 57.9268 17.3726 57.7167 17.0623L57.591 16.8768Z" fill="black"/>
<path d="M58.0391 21.375V18.1135C58.0391 17.7388 57.9268 17.3726 57.7167 17.0623L57.591 16.8768C56.5928 15.4025 52.3195 15.75 50.5391 15.75V15.75H46.7891V25.125H54.2891C56.3602 25.125 58.0391 23.4459 58.0391 21.375Z" fill="#434041" fill-opacity="0.4"/>
<path d="M46.7891 60.875H44.9141V64.625H46.7891H48.6641V60.875H46.7891Z" fill="#E1E6F0"/>
<path d="M46.7891 60.875H48.6641V64.625H46.7891V60.875Z" fill="#CFD7E6"/>
</svg>
