<svg width="96" height="87" viewBox="0 0 96 87" fill="none" xmlns="http://www.w3.org/2000/svg">
<path d="M84.7441 79.0188C91.7948 70.6223 96.0343 59.779 96.0003 47.9423C95.9266 21.8333 74.7462 0.368122 48.6803 0.00478694C21.8605 -0.369902 0 21.2996 0 48.0785C0 59.8642 4.23381 70.6564 11.2561 79.0188C11.4885 79.2969 11.9136 79.3083 12.1687 79.0528L48.0001 43.1622L83.8316 79.0528C84.0867 79.314 84.5118 79.2969 84.7441 79.0188Z" fill="#01A5EC"/>
<path d="M48.0019 86.8575C69.4622 86.8575 86.8592 69.4605 86.8592 48.0002C86.8592 26.5399 69.4622 9.14282 48.0019 9.14282C26.5416 9.14282 9.14453 26.5399 9.14453 48.0002C9.14453 69.4605 26.5416 86.8575 48.0019 86.8575Z" fill="#EAF9FF"/>
<mask id="mask0_2639_4525" style="mask-type:alpha" maskUnits="userSpaceOnUse" x="9" y="9" width="78" height="78">
<path d="M47.9008 86.8017C69.3852 86.8017 86.8017 69.3852 86.8017 47.9008C86.8017 26.4165 69.3852 9 47.9008 9C26.4165 9 9 26.4165 9 47.9008C9 69.3852 26.4165 86.8017 47.9008 86.8017Z" fill="#FBC000"/>
</mask>
<g mask="url(#mask0_2639_4525)">
<g opacity="0.8">
<path d="M60.5 86L24 63.5L52 62L65.7138 57.1219V54.7787L71 27L93.2856 46.8771L74.1764 81.6831L60.5 86Z" fill="#01A5EC" fill-opacity="0.5" style="mix-blend-mode:multiply"/>
</g>
</g>
<path d="M69.7739 26.5403H26.4968C25.1183 26.5403 24 27.6505 24 29.0189V62.1701C24 63.5385 25.1183 64.6487 26.4968 64.6487H69.7739C71.1523 64.6487 72.2707 63.5385 72.2707 62.1701V29.0189C72.2707 27.6505 71.1523 26.5403 69.7739 26.5403Z" fill="#FAFAFA"/>
<path d="M31.2822 58.7393C31.2822 59.1967 30.9096 59.5676 30.45 59.5676H24V29.0251C24 27.6528 25.1178 26.5403 26.4968 26.5403H69.7739C71.1528 26.5403 72.2707 27.6528 72.2707 29.0251C72.2707 29.94 71.5255 30.6816 70.6062 30.6816H33.779C32.4 30.6816 31.2822 31.7941 31.2822 33.1664V58.7393Z" fill="#ECECEC"/>
<path d="M24 59.5129V62.2652C24 63.6678 25.1183 64.8058 26.4968 64.8058H42.1036L40.6482 70.0626C40.3496 71.1434 41.1475 72.2157 42.2503 72.2157H54.0204C55.1231 72.2157 55.9211 71.1434 55.6225 70.0626L54.1671 64.8058H69.7739C71.1523 64.8058 72.2707 63.6678 72.2707 62.2652V59.5129H24Z" fill="#ED1164"/>
<path d="M44.515 71.0689C44.7189 71.6457 44.3494 72.2713 43.7933 72.2713H42.0786C41.0436 72.2713 40.2946 71.1684 40.5749 70.0567L41.9409 64.6497H44.8151C45.333 64.6497 45.7074 65.2011 45.567 65.7569L44.4807 70.0567C44.3878 70.425 44.4084 70.7674 44.515 71.0689V71.0689Z" fill="#F0347B"/>
<path d="M31.6217 60.3804V63.8355C31.6217 64.2845 31.2317 64.6485 30.7506 64.6485H26.6131C25.1699 64.6485 24 63.5566 24 62.2096V59.5674H30.7506C31.2317 59.5674 31.6217 59.9314 31.6217 60.3804Z" fill="#F0347B"/>
<path d="M53.6703 67.1902H42.6028C42.0611 67.1902 41.6694 66.6541 41.8163 66.1138L42.2141 64.6497H54.0589L54.4569 66.1138C54.6037 66.6541 54.2119 67.1902 53.6703 67.1902Z" fill="#F0347B"/>
<path d="M60.6673 52.4962V52.8105C60.6673 53.7366 59.89 54.4867 58.9302 54.4867H52.3074C51.3476 54.4867 50.5702 53.7366 50.5702 52.8105V52.4962C50.5702 51.5701 51.3476 50.8199 52.3074 50.8199H53.0684L52.3682 47.831C52.189 47.0672 51.4855 46.5246 50.6734 46.5246H45.2557C44.4436 46.5246 43.74 47.0672 43.5609 47.831L42.8606 50.8199H43.6217C44.5815 50.8199 45.3588 51.5701 45.3588 52.4962V52.8105C45.3588 53.7366 44.5815 54.4867 43.6217 54.4867H36.9989C36.0391 54.4867 35.2617 53.7366 35.2617 52.8105V52.4962C35.2617 51.5701 36.0391 50.8199 36.9989 50.8199H37.1639L43.8182 25.2677C44.0125 24.5228 44.7074 24 45.5032 24H50.453C51.2488 24 51.9436 24.5228 52.1369 25.2677L58.7923 50.8199H58.9302C59.89 50.8199 60.6673 51.5701 60.6673 52.4962ZM49.0513 41.0768C50.0523 41.0768 50.795 40.18 50.5724 39.2381L49.4856 34.6222C49.1175 33.0591 46.8115 33.0591 46.4434 34.6222L45.3566 39.2381C45.1341 40.18 45.8767 41.0768 46.8777 41.0768H49.0513Z" fill="#01A5EC"/>
</svg>
