<svg width="95" height="86" viewBox="0 0 95 86" fill="none" xmlns="http://www.w3.org/2000/svg">
<path d="M83.4196 77.7837C90.36 69.5185 94.5333 58.8447 94.4998 47.1929C94.4273 21.492 73.5779 0.362368 47.9194 0.00471211C21.5188 -0.364121 0 20.9667 0 47.3271C0 58.9285 4.16763 69.552 11.0802 77.7837C11.309 78.0575 11.7274 78.0687 11.9785 77.8172L47.2499 42.4875L82.5213 77.8172C82.7724 78.0743 83.1908 78.0575 83.4196 77.7837Z" fill="#01A5EC"/>
<path d="M47.25 85.5C68.3749 85.5 85.5 68.3749 85.5 47.25C85.5 26.1251 68.3749 9 47.25 9C26.1251 9 9 26.1251 9 47.25C9 68.3749 26.1251 85.5 47.25 85.5Z" fill="#EAF9FF"/>
<mask id="mask0_2639_4522" style="mask-type:alpha" maskUnits="userSpaceOnUse" x="8" y="8" width="78" height="78">
<path d="M46.9008 85.8017C68.3852 85.8017 85.8017 68.3852 85.8017 46.9008C85.8017 25.4165 68.3852 8 46.9008 8C25.4165 8 8 25.4165 8 46.9008C8 68.3852 25.4165 85.8017 46.9008 85.8017Z" fill="#FBC000"/>
</mask>
<g mask="url(#mask0_2639_4522)">
<g opacity="0.8">
<path d="M54.0687 87.8491L45.8867 82.6279V60.6279L61.8867 58.1279L47.8867 12.6279L90.8867 45.6279L81.8867 76.6279L54.0687 87.8491Z" fill="#01A5EC" fill-opacity="0.5" style="mix-blend-mode:multiply"/>
</g>
</g>
<path d="M46.5974 41.9711L39.0168 49.2452L41.7732 59.7046L41.7425 61.19C41.6917 63.6559 43.6411 65.6874 46.107 65.7383C48.5727 65.7892 50.6044 63.8398 50.6553 61.3739L50.686 59.8885L53.8714 49.5517L46.5974 41.9711ZM38.559 58.9883C38.8445 58.5864 38.9117 58.0712 38.7398 57.6091C37.7745 55.0146 36.9451 50.6191 36.5225 45.8502C36.4788 45.366 36.2019 44.9337 35.7787 44.6928C34.9088 44.1958 34.1916 44.7815 33.9848 44.8401C33.7064 44.9722 27.1499 48.1937 26.9494 57.913C26.7979 65.2561 31.0711 65.4285 31.2525 65.4322C32.0736 65.4491 32.7517 64.7985 32.7686 63.9774C32.8194 61.52 34.8595 59.5623 37.3169 59.613C37.8086 59.623 38.2735 59.3888 38.559 58.9883ZM57.2946 45.1366C56.8619 45.3599 56.5673 45.7805 56.5037 46.2624C55.8625 51.1747 54.8809 55.4183 53.8079 57.9068C53.6127 58.3613 53.6557 58.8832 53.9227 59.2994C54.1913 59.7142 54.6476 59.9703 55.1423 59.9805C57.5996 60.0312 59.5574 62.0715 59.5067 64.5289C59.4898 65.35 60.1405 66.0281 60.9615 66.045C61.1428 66.0486 65.4197 66.0527 65.5712 58.7096C65.7717 48.9903 59.3537 45.5011 59.0823 45.3591C58.8875 45.2953 58.1813 44.6759 57.2946 45.1366ZM48.0955 12.5776C47.5687 12.1804 46.8557 12.1656 46.3128 12.5409C46.0108 12.7723 41.4536 16.1261 37.8155 22.4708L46.8675 25.6297L56.1758 22.8496C52.8026 16.3602 48.3875 12.8214 48.0955 12.5776ZM40.8394 32.9358C40.772 36.2039 43.3906 38.9328 46.6586 39.0003C49.9563 39.0683 52.6556 36.4491 52.7231 33.181C52.7911 29.8834 50.2014 27.1846 46.9038 27.1166C43.6358 27.0492 40.9075 29.6382 40.8394 32.9358Z" fill="white"/>
<path d="M37.8145 22.4711C35.4109 26.6124 33.4264 32.0401 33.2885 38.7247C33.2431 40.9232 33.3388 43.4814 33.5522 46.1011C34.0131 51.1336 34.8973 55.8182 35.9686 58.6341C36.165 59.2029 36.6918 59.6002 37.3157 59.613L41.7721 59.705L41.9866 49.3067C42.0374 46.8409 44.069 44.8915 46.5349 44.9423C49.0303 44.9938 50.9508 46.9952 50.8993 49.4906L50.6848 59.8888L55.1412 59.9807C55.7353 59.993 56.3071 59.6481 56.5267 59.088C57.7127 56.3484 58.7869 51.823 59.4586 46.6356C59.7799 44.0269 59.9812 41.4748 60.0266 39.2764C60.1645 32.5919 58.4056 27.0869 56.1746 22.85L37.8145 22.4711ZM52.7219 33.1813C52.6545 36.4494 49.9552 39.0685 46.6575 39.0005C43.3894 38.9331 40.7708 36.2042 40.8383 32.9361C40.9063 29.6385 43.6346 27.0495 46.9027 27.1169C50.2003 27.1849 52.79 29.8837 52.7219 33.1813ZM46.0594 68.697C45.2383 68.6802 44.5603 69.3308 44.5433 70.1518L44.3045 81.0135C44.2876 81.8346 44.9383 82.5127 45.7593 82.5295C46.5804 82.5464 47.2585 81.8958 47.2754 81.0747L47.5142 70.2131C47.5311 69.392 46.8804 68.7139 46.0594 68.697ZM50.485 70.2744L50.4237 73.2453C50.4068 74.0664 51.0575 74.7445 51.8785 74.7614C52.6996 74.7783 53.3778 74.1276 53.3946 73.3066L53.4559 70.3357C53.4729 69.5147 52.8222 68.8365 52.0011 68.8196C51.1801 68.8028 50.502 69.4534 50.485 70.2744ZM41.511 73.0615L41.5723 70.0906C41.5893 69.2695 40.9386 68.5914 40.1175 68.5745C39.2964 68.5576 38.6183 69.2083 38.6014 70.0293L38.5402 73.0002C38.5231 73.8212 39.1739 74.4994 39.9949 74.5163C40.816 74.5331 41.4941 73.8825 41.511 73.0615Z" fill="#ED1164"/>
</svg>
