<svg width="44" height="58" viewBox="0 0 44 58" fill="none" xmlns="http://www.w3.org/2000/svg">
<path d="M39.2687 44.1693L38.0223 43.7294V16.287C38.0222 7.3063 30.7159 0 21.7353 0C12.7547 0 5.44838 7.3063 5.44838 16.2869V27.3351C5.44838 34.0573 7.68421 39.0283 9.77028 42.2039L4.20194 44.1693C1.68857 45.0564 0 47.443 0 50.1084V57.1504C0 57.6196 0.380398 58 0.849609 58C1.31882 58 1.69922 57.6196 1.69922 57.1504V50.1084C1.69922 48.1622 2.93229 46.4195 4.76744 45.7717L13.8955 42.55C15.0714 44.6174 16.9975 46.1272 19.298 46.7696C19.7805 48.4496 20.8729 50.1238 21.0284 50.357C21.186 50.5933 21.4512 50.7354 21.7353 50.7354C22.0194 50.7354 22.2847 50.5934 22.4422 50.357C22.5977 50.1237 23.6906 48.4486 24.173 46.7682C25.4311 46.4171 26.5838 45.8029 27.5733 44.9596C28.1957 46.4109 28.98 47.7089 29.7525 48.9863C30.0091 49.4107 30.2631 49.8311 30.5083 50.2527C29.7381 50.2978 28.9777 50.5086 28.2795 50.881L22.1901 54.1286C21.9052 54.2805 21.5652 54.2805 21.2805 54.1286L15.191 50.881C13.5049 49.9817 11.52 50.0318 9.88141 51.015C8.2428 51.9981 7.2645 53.7259 7.2645 55.6368V57.1503C7.2645 57.6195 7.6449 57.9999 8.11411 57.9999C8.58332 57.9999 8.96372 57.6195 8.96372 57.1503V55.6368C8.96372 54.3283 9.63355 53.1452 10.7556 52.472C11.8775 51.7989 13.2367 51.7644 14.3914 52.3802L20.4808 55.6279C21.2663 56.0468 22.2043 56.0468 22.9896 55.6279L29.0791 52.3802C29.8237 51.9831 30.6364 51.8525 31.4433 51.996C32.1784 53.5301 32.6905 55.1705 32.6905 57.1503C32.6905 57.6195 33.0709 57.9999 33.5401 57.9999C34.0093 57.9999 34.3897 57.6195 34.3897 57.1503C34.3897 53.3706 32.7714 50.6948 31.2064 48.107C29.5745 45.4087 28.0331 42.86 28.0331 38.9888V38.0806C28.0331 37.6114 27.6528 37.231 27.1835 37.231C26.7143 37.231 26.3339 37.6114 26.3339 38.0806V38.9888C26.3339 40.5759 26.5665 41.9661 26.9428 43.2277C26.2063 43.9746 25.3325 44.5468 24.3661 44.9174C24.1607 43.6503 23.0594 42.6796 21.7352 42.6796C20.4121 42.6796 19.3116 43.6486 19.1049 44.914C17.5654 44.3169 16.2491 43.1977 15.4102 41.7679C16.4776 40.9336 17.1363 39.6389 17.1363 38.235V35.3407C18.5625 35.8989 20.1135 36.206 21.7352 36.206C28.1144 36.206 33.4089 31.4572 34.2676 25.3092H34.7726C35.329 25.3092 35.8586 25.1697 36.3228 24.9255V57.1504C36.3228 57.6196 36.7032 58 37.1725 58C37.6417 58 38.0221 57.6196 38.0221 57.1504V45.5314L38.703 45.7717C40.5383 46.4195 41.7712 48.1622 41.7712 50.1084V57.1504C41.7712 57.6196 42.1516 58 42.6208 58C43.09 58 43.4704 57.6196 43.4704 57.1504V50.1084C43.4707 47.4431 41.782 45.0564 39.2687 44.1693ZM21.7353 44.3788C22.2683 44.3788 22.7018 44.8125 22.7018 45.3454C22.7018 46.1571 22.2114 47.3021 21.7353 48.2072C21.259 47.3021 20.7688 46.1571 20.7688 45.3454C20.7688 44.8125 21.2023 44.3788 21.7353 44.3788ZM36.2961 15.4137C35.9832 15.4288 35.6688 15.4373 35.3564 15.4373C31.1437 15.4373 27.1485 14.0948 23.8025 11.5549C20.7556 9.24216 18.4396 6.01682 17.2237 2.41414C18.6451 1.95082 20.1612 1.69922 21.7353 1.69922C29.4858 1.69922 35.8429 7.77517 36.2961 15.4137ZM15.4372 38.235C15.4372 39.4127 14.6911 40.4671 13.5806 40.8591L11.4242 41.6202C9.41039 38.672 7.14759 33.8988 7.14759 27.3351V24.9661C7.58327 25.1889 8.06982 25.3092 8.56826 25.3092H9.2024C9.75239 29.2504 12.1245 32.6159 15.4374 34.5247V38.235H15.4372ZM36.3154 22.3388C36.244 23.0516 35.5663 23.6101 34.7727 23.61H34.3895V23.5602C34.3895 23.0911 34.0093 22.7107 33.5402 22.7106C33.5402 22.7106 33.54 22.7106 33.5399 22.7106C33.0709 22.7106 32.6906 23.0906 32.6903 23.5597C32.6858 29.596 27.7715 34.5069 21.7353 34.5069C15.6944 34.5069 10.7798 29.5923 10.7798 23.5516C10.7798 23.0824 10.3994 22.702 9.93023 22.702C9.46102 22.702 9.08063 23.0824 9.08063 23.5516V23.6101H8.56814C8.16747 23.6101 7.78344 23.4396 7.51429 23.1421C7.24162 22.8408 7.11406 22.4494 7.15507 22.04C7.22655 21.3272 7.9042 20.7689 8.69796 20.7689H9.02217C10.9928 20.7689 12.5961 19.1656 12.5961 17.195V16.2869C12.5961 15.1151 13.1342 14.0388 14.0725 13.3339C14.4477 13.052 14.5232 12.5194 14.2414 12.1443C13.9595 11.7692 13.4269 11.6936 13.0518 11.9754C11.6824 13.0043 10.897 14.5759 10.897 16.2869V17.195C10.897 18.2287 10.056 19.0697 9.02229 19.0697H8.69808C8.69796 19.0697 8.69808 19.0697 8.69808 19.0697C8.14164 19.0697 7.61205 19.2091 7.14771 19.4533V16.287C7.14771 11.7917 9.19209 7.76532 12.3993 5.08723C14.4179 9.56196 17.4034 13.3906 21.079 16.205C24.9229 19.148 29.3485 20.7689 33.5404 20.7689H34.9025C35.3032 20.7689 35.6872 20.9394 35.9564 21.2367C36.2288 21.538 36.3564 21.9294 36.3154 22.3388ZM34.9024 19.0697H33.5403C29.7196 19.0697 25.6609 17.5731 22.1119 14.8558C18.568 12.1424 15.7037 8.41612 13.7996 4.05264C14.3856 3.67122 15.0005 3.33081 15.6403 3.03537C16.9713 6.92658 19.4811 10.4081 22.7752 12.9085C26.4191 15.6745 30.7697 17.1366 35.3564 17.1366C35.6777 17.1366 36.0009 17.1282 36.3231 17.1135V19.4127C35.8874 19.19 35.4008 19.0697 34.9024 19.0697Z" fill="white"/>
</svg>
