<svg width="297" height="211" viewBox="0 0 297 211" fill="none" xmlns="http://www.w3.org/2000/svg">
<path d="M262.428 196H9V61.3863C9 46.2593 24.4757 34 43.5716 34H297V168.614C297.012 183.741 281.524 196 262.428 196Z" fill="#F798BC"/>
<path d="M279 194.53V210H53.6594C38.3819 210 26 200.209 26 188.128V23H263.908V32.5895" stroke="#ED1164" stroke-miterlimit="10"/>
<path d="M157.188 103.972V62.6214H142.001V70.927H148.052V103.972H157.188Z" fill="white"/>
<path d="M70.9046 139.964C69.1196 139.964 67.6236 140.542 66.3826 141.715C65.1416 142.888 64.5296 144.333 64.5296 146.084C64.5296 147.835 65.1416 149.28 66.3826 150.453C67.6236 151.609 69.1196 152.187 70.9046 152.187C72.9616 152.187 74.8316 151.252 75.9366 149.773V144.979H70.3776V147.291H73.4886V148.889C72.8086 149.501 71.9416 149.807 70.9046 149.807C69.8336 149.807 68.9496 149.45 68.2186 148.753C67.5046 148.039 67.1476 147.155 67.1476 146.084C67.1476 145.013 67.5046 144.129 68.2356 143.415C68.9666 142.701 69.8506 142.344 70.9046 142.344C72.0606 142.344 72.9956 142.701 73.7266 143.432L75.4946 141.885C74.2536 140.61 72.7236 139.964 70.9046 139.964ZM77.1606 147.767C77.1606 149.11 77.5856 150.181 78.4526 150.997C79.3196 151.796 80.4416 152.204 81.8526 152.204C83.2976 152.204 84.5386 151.677 85.5416 150.64L84.0626 149.229C83.4676 149.79 82.7706 150.062 81.9716 150.062C80.6286 150.062 79.7446 149.399 79.6936 148.379H86.1706C86.1876 148.124 86.2046 147.852 86.2046 147.563C86.2046 146.322 85.7966 145.302 84.9806 144.469C84.1646 143.636 83.1106 143.211 81.8016 143.211C80.4586 143.211 79.3366 143.619 78.4696 144.452C77.6026 145.268 77.1606 146.356 77.1606 147.699V147.767ZM79.7276 146.73C79.7956 145.931 80.6966 145.302 81.8016 145.302C82.8216 145.302 83.6546 145.931 83.6546 146.73H79.7276ZM89.9953 152V147.189C89.9953 146.186 90.6923 145.489 91.6443 145.489C92.6473 145.489 93.1743 146.101 93.1743 147.104V149.654C93.1743 151.286 93.9223 152.102 95.4353 152.102C95.9623 152.102 96.3363 152.068 96.5403 151.983V149.841L96.4383 149.858H96.2683C95.8433 149.858 95.7073 149.62 95.7073 148.957V146.798C95.7073 144.571 94.5173 143.245 92.4603 143.245C91.3043 143.245 90.3523 143.755 89.9953 144.503V143.432H87.4623V152H89.9953ZM97.2153 147.767C97.2153 149.11 97.6403 150.181 98.5073 150.997C99.3743 151.796 100.496 152.204 101.907 152.204C103.352 152.204 104.593 151.677 105.596 150.64L104.117 149.229C103.522 149.79 102.825 150.062 102.026 150.062C100.683 150.062 99.7993 149.399 99.7483 148.379H106.225C106.242 148.124 106.259 147.852 106.259 147.563C106.259 146.322 105.851 145.302 105.035 144.469C104.219 143.636 103.165 143.211 101.856 143.211C100.513 143.211 99.3913 143.619 98.5243 144.452C97.6573 145.268 97.2153 146.356 97.2153 147.699V147.767ZM99.7823 146.73C99.8503 145.931 100.751 145.302 101.856 145.302C102.876 145.302 103.709 145.931 103.709 146.73H99.7823ZM110.05 152V147.818C110.05 146.407 110.9 145.591 112.345 145.591C112.651 145.591 112.94 145.625 113.195 145.676V143.296C112.923 143.262 112.702 143.245 112.532 143.245C111.359 143.245 110.441 143.738 110.05 144.605V143.432H107.517V152H110.05ZM113.667 147.716C113.667 148.974 114.075 150.028 114.874 150.895C115.69 151.745 116.71 152.17 117.917 152.17C119.26 152.17 120.195 151.762 120.756 150.929C120.875 151.286 121.13 151.592 121.521 151.847C121.878 152.051 122.354 152.153 122.915 152.153C123.408 152.153 123.782 152.102 124.054 152.017V149.909C123.901 149.926 123.748 149.943 123.629 149.943C123.17 149.943 123 149.671 123 148.991V143.432H120.467V144.554C120.212 143.806 119.209 143.279 117.917 143.279C116.71 143.279 115.69 143.704 114.874 144.571C114.075 145.421 113.667 146.475 113.667 147.716ZM118.376 149.858C117.764 149.858 117.254 149.654 116.829 149.246C116.404 148.821 116.2 148.311 116.2 147.716C116.2 147.121 116.404 146.611 116.829 146.203C117.254 145.778 117.764 145.574 118.376 145.574C119.005 145.574 119.532 145.778 119.957 146.203C120.399 146.611 120.62 147.121 120.62 147.716C120.62 148.311 120.399 148.821 119.957 149.246C119.532 149.654 119.005 149.858 118.376 149.858ZM131.564 147.767C131.564 149.11 131.989 150.181 132.856 150.997C133.723 151.796 134.845 152.204 136.256 152.204C137.701 152.204 138.942 151.677 139.945 150.64L138.466 149.229C137.871 149.79 137.174 150.062 136.375 150.062C135.032 150.062 134.148 149.399 134.097 148.379H140.574C140.591 148.124 140.608 147.852 140.608 147.563C140.608 146.322 140.2 145.302 139.384 144.469C138.568 143.636 137.514 143.211 136.205 143.211C134.862 143.211 133.74 143.619 132.873 144.452C132.006 145.268 131.564 146.356 131.564 147.699V147.767ZM134.131 146.73C134.199 145.931 135.1 145.302 136.205 145.302C137.225 145.302 138.058 145.931 138.058 146.73H134.131ZM143.123 152L145.044 149.331L146.965 152H149.702L146.455 147.495L149.396 143.432H146.642L145.044 145.693L143.446 143.432H140.692L143.633 147.495L140.386 152H143.123ZM153.131 155.281V150.878C153.386 151.626 154.389 152.153 155.681 152.153C156.888 152.153 157.908 151.728 158.707 150.878C159.523 150.011 159.931 148.957 159.931 147.716C159.931 146.475 159.523 145.421 158.707 144.571C157.908 143.704 156.888 143.279 155.681 143.279C154.389 143.279 153.386 143.806 153.131 144.554V143.432H150.598V155.281H153.131ZM155.222 149.858C154.593 149.858 154.066 149.654 153.624 149.246C153.199 148.821 152.978 148.311 152.978 147.716C152.978 147.121 153.199 146.611 153.624 146.203C154.066 145.778 154.593 145.574 155.222 145.574C155.834 145.574 156.344 145.778 156.769 146.203C157.194 146.611 157.398 147.121 157.398 147.716C157.398 148.311 157.194 148.821 156.769 149.246C156.344 149.654 155.834 149.858 155.222 149.858ZM160.866 147.767C160.866 149.11 161.291 150.181 162.158 150.997C163.025 151.796 164.147 152.204 165.558 152.204C167.003 152.204 168.244 151.677 169.247 150.64L167.768 149.229C167.173 149.79 166.476 150.062 165.677 150.062C164.334 150.062 163.45 149.399 163.399 148.379H169.876C169.893 148.124 169.91 147.852 169.91 147.563C169.91 146.322 169.502 145.302 168.686 144.469C167.87 143.636 166.816 143.211 165.507 143.211C164.164 143.211 163.042 143.619 162.175 144.452C161.308 145.268 160.866 146.356 160.866 147.699V147.767ZM163.433 146.73C163.501 145.931 164.402 145.302 165.507 145.302C166.527 145.302 167.36 145.931 167.36 146.73H163.433ZM175.519 143.16C174.193 143.16 173.071 143.602 172.153 144.469C171.252 145.336 170.793 146.407 170.793 147.699C170.793 148.991 171.252 150.062 172.153 150.929C173.071 151.796 174.193 152.221 175.519 152.221C176.93 152.221 178.12 151.694 179.089 150.623L177.491 149.042C176.93 149.637 176.284 149.926 175.519 149.926C174.295 149.926 173.326 148.991 173.326 147.699C173.326 146.407 174.278 145.455 175.519 145.455C176.284 145.455 176.93 145.744 177.491 146.339L179.089 144.758C178.12 143.687 176.93 143.16 175.519 143.16ZM180.725 149.161C180.725 151.201 181.711 152.221 183.683 152.221C184.176 152.221 184.584 152.187 184.924 152.102V149.858C184.635 149.909 184.414 149.926 184.278 149.926C183.513 149.926 183.19 149.603 183.19 148.787V145.727H185.094V143.432H183.19V140.151H180.725V143.432H179.603V145.727H180.725V149.161ZM185.768 147.716C185.768 148.974 186.176 150.028 186.975 150.895C187.791 151.745 188.811 152.17 190.018 152.17C191.361 152.17 192.296 151.762 192.857 150.929C192.976 151.286 193.231 151.592 193.622 151.847C193.979 152.051 194.455 152.153 195.016 152.153C195.509 152.153 195.883 152.102 196.155 152.017V149.909C196.002 149.926 195.849 149.943 195.73 149.943C195.271 149.943 195.101 149.671 195.101 148.991V143.432H192.568V144.554C192.313 143.806 191.31 143.279 190.018 143.279C188.811 143.279 187.791 143.704 186.975 144.571C186.176 145.421 185.768 146.475 185.768 147.716ZM190.477 149.858C189.865 149.858 189.355 149.654 188.93 149.246C188.505 148.821 188.301 148.311 188.301 147.716C188.301 147.121 188.505 146.611 188.93 146.203C189.355 145.778 189.865 145.574 190.477 145.574C191.106 145.574 191.633 145.778 192.058 146.203C192.5 146.611 192.721 147.121 192.721 147.716C192.721 148.311 192.5 148.821 192.058 149.246C191.633 149.654 191.106 149.858 190.477 149.858ZM197.526 149.161C197.526 151.201 198.512 152.221 200.484 152.221C200.977 152.221 201.385 152.187 201.725 152.102V149.858C201.436 149.909 201.215 149.926 201.079 149.926C200.314 149.926 199.991 149.603 199.991 148.787V145.727H201.895V143.432H199.991V140.151H197.526V143.432H196.404V145.727H197.526V149.161ZM202.993 149.739C202.993 151.354 203.741 152.153 205.237 152.153C205.798 152.153 206.189 152.102 206.41 152.017V149.858C206.359 149.875 206.257 149.892 206.104 149.892C205.679 149.892 205.526 149.62 205.526 148.991V143.432H202.993V149.739ZM202.806 141.273C202.806 142.072 203.452 142.701 204.251 142.701C205.05 142.701 205.696 142.072 205.696 141.273C205.696 140.457 205.05 139.828 204.251 139.828C203.452 139.828 202.806 140.457 202.806 141.273ZM212.111 152L215.783 143.432H213.216L210.989 148.872L208.745 143.432H206.178L209.85 152H212.111ZM215.717 147.716C215.717 148.974 216.125 150.028 216.924 150.895C217.74 151.745 218.76 152.17 219.967 152.17C221.31 152.17 222.245 151.762 222.806 150.929C222.925 151.286 223.18 151.592 223.571 151.847C223.928 152.051 224.404 152.153 224.965 152.153C225.458 152.153 225.832 152.102 226.104 152.017V149.909C225.951 149.926 225.798 149.943 225.679 149.943C225.22 149.943 225.05 149.671 225.05 148.991V143.432H222.517V144.554C222.262 143.806 221.259 143.279 219.967 143.279C218.76 143.279 217.74 143.704 216.924 144.571C216.125 145.421 215.717 146.475 215.717 147.716ZM220.426 149.858C219.814 149.858 219.304 149.654 218.879 149.246C218.454 148.821 218.25 148.311 218.25 147.716C218.25 147.121 218.454 146.611 218.879 146.203C219.304 145.778 219.814 145.574 220.426 145.574C221.055 145.574 221.582 145.778 222.007 146.203C222.449 146.611 222.67 147.121 222.67 147.716C222.67 148.311 222.449 148.821 222.007 149.246C221.582 149.654 221.055 149.858 220.426 149.858ZM233.614 147.767C233.614 149.11 234.039 150.181 234.906 150.997C235.773 151.796 236.895 152.204 238.306 152.204C239.751 152.204 240.992 151.677 241.995 150.64L240.516 149.229C239.921 149.79 239.224 150.062 238.425 150.062C237.082 150.062 236.198 149.399 236.147 148.379H242.624C242.641 148.124 242.658 147.852 242.658 147.563C242.658 146.322 242.25 145.302 241.434 144.469C240.618 143.636 239.564 143.211 238.255 143.211C236.912 143.211 235.79 143.619 234.923 144.452C234.056 145.268 233.614 146.356 233.614 147.699V147.767ZM236.181 146.73C236.249 145.931 237.15 145.302 238.255 145.302C239.275 145.302 240.108 145.931 240.108 146.73H236.181ZM126.874 165.739C126.874 167.354 127.622 168.153 129.118 168.153C129.679 168.153 130.07 168.102 130.291 168.017V165.858C130.24 165.875 130.138 165.892 129.985 165.892C129.56 165.892 129.407 165.62 129.407 164.991V159.432H126.874V165.739ZM126.687 157.273C126.687 158.072 127.333 158.701 128.132 158.701C128.931 158.701 129.577 158.072 129.577 157.273C129.577 156.457 128.931 155.828 128.132 155.828C127.333 155.828 126.687 156.457 126.687 157.273ZM133.973 168V163.189C133.973 162.186 134.67 161.489 135.622 161.489C136.625 161.489 137.152 162.101 137.152 163.104V165.654C137.152 167.286 137.9 168.102 139.413 168.102C139.94 168.102 140.314 168.068 140.518 167.983V165.841L140.416 165.858H140.246C139.821 165.858 139.685 165.62 139.685 164.957V162.798C139.685 160.571 138.495 159.245 136.438 159.245C135.282 159.245 134.33 159.755 133.973 160.503V159.432H131.44V168H133.973ZM141.977 165.161C141.977 167.201 142.963 168.221 144.935 168.221C145.428 168.221 145.836 168.187 146.176 168.102V165.858C145.887 165.909 145.666 165.926 145.53 165.926C144.765 165.926 144.442 165.603 144.442 164.787V161.727H146.346V159.432H144.442V156.151H141.977V159.432H140.855V161.727H141.977V165.161ZM147.07 163.767C147.07 165.11 147.495 166.181 148.362 166.997C149.229 167.796 150.351 168.204 151.762 168.204C153.207 168.204 154.448 167.677 155.451 166.64L153.972 165.229C153.377 165.79 152.68 166.062 151.881 166.062C150.538 166.062 149.654 165.399 149.603 164.379H156.08C156.097 164.124 156.114 163.852 156.114 163.563C156.114 162.322 155.706 161.302 154.89 160.469C154.074 159.636 153.02 159.211 151.711 159.211C150.368 159.211 149.246 159.619 148.379 160.452C147.512 161.268 147.07 162.356 147.07 163.699V163.767ZM149.637 162.73C149.705 161.931 150.606 161.302 151.711 161.302C152.731 161.302 153.564 161.931 153.564 162.73H149.637ZM159.904 168V163.818C159.904 162.407 160.754 161.591 162.199 161.591C162.505 161.591 162.794 161.625 163.049 161.676V159.296C162.777 159.262 162.556 159.245 162.386 159.245C161.213 159.245 160.295 159.738 159.904 160.605V159.432H157.371V168H159.904ZM163.522 163.767C163.522 165.11 163.947 166.181 164.814 166.997C165.681 167.796 166.803 168.204 168.214 168.204C169.659 168.204 170.9 167.677 171.903 166.64L170.424 165.229C169.829 165.79 169.132 166.062 168.333 166.062C166.99 166.062 166.106 165.399 166.055 164.379H172.532C172.549 164.124 172.566 163.852 172.566 163.563C172.566 162.322 172.158 161.302 171.342 160.469C170.526 159.636 169.472 159.211 168.163 159.211C166.82 159.211 165.698 159.619 164.831 160.452C163.964 161.268 163.522 162.356 163.522 163.699V163.767ZM166.089 162.73C166.157 161.931 167.058 161.302 168.163 161.302C169.183 161.302 170.016 161.931 170.016 162.73H166.089ZM168.86 158.616L170.56 156.151H167.823L166.973 158.616H168.86ZM173.111 166.708C173.944 167.728 175.185 168.238 176.851 168.238C179.367 168.238 180.625 167.099 180.625 165.348C180.625 164.209 179.928 163.393 178.517 162.917C177.565 162.577 176.851 162.458 176.528 162.322C176.256 162.203 176.171 162.084 176.171 161.863C176.171 161.54 176.477 161.319 177.021 161.319C177.752 161.319 178.364 161.523 178.823 161.948L180.03 160.282C179.265 159.551 178.296 159.177 177.089 159.177C176.154 159.177 175.372 159.415 174.726 159.908C174.08 160.384 173.757 161.064 173.757 161.931C173.757 163.07 174.42 163.852 175.729 164.311C175.984 164.396 176.375 164.515 176.885 164.634C177.395 164.753 177.735 164.872 177.922 164.974C178.109 165.076 178.211 165.212 178.211 165.382C178.211 165.841 177.786 166.079 176.919 166.079C175.95 166.079 175.049 165.705 174.573 165.144L173.111 166.708Z" fill="white"/>
<path d="M131.367 129.31H175.832" stroke="#ED1164" stroke-width="2" stroke-miterlimit="10" stroke-linecap="round" stroke-linejoin="round"/>
<circle cx="37.5" cy="37.5" r="37.5" fill="#ED1164"/>
<path d="M22.8994 33.6931H32.7377C33.1529 33.6931 33.4926 33.3534 33.4926 32.9382C33.4926 32.523 33.1529 32.1833 32.7377 32.1833H22.8994C22.4842 32.1833 22.1445 32.523 22.1445 32.9382C22.1445 33.3534 22.4716 33.6931 22.8994 33.6931Z" fill="white"/>
<path d="M42.5761 36.7126H22.8994C22.4842 36.7126 22.1445 37.0523 22.1445 37.4675C22.1445 37.8827 22.4842 38.2224 22.8994 38.2224H42.5761C42.9913 38.2224 43.3309 37.8827 43.3309 37.4675C43.3309 37.0523 42.9913 36.7126 42.5761 36.7126Z" fill="white"/>
<path d="M42.5761 41.2546H22.8994C22.4842 41.2546 22.1445 41.5943 22.1445 42.0095C22.1445 42.4247 22.4842 42.7644 22.8994 42.7644H42.5761C42.9913 42.7644 43.3309 42.4247 43.3309 42.0095C43.3309 41.5943 42.9913 41.2546 42.5761 41.2546Z" fill="white"/>
<path d="M56.2502 16.3316L30.4088 16.2812C27.9304 16.2812 25.9174 18.2942 25.9174 20.7727V24.6476L19.8156 24.6602C17.3372 24.6602 15.3242 26.6732 15.3242 29.1516V45.1547C15.3242 47.6331 17.3372 49.6461 19.8156 49.6461H24.4077V57.2072C24.4077 57.5218 24.5964 57.7986 24.8984 57.9118C24.9864 57.9495 25.0745 57.9621 25.1751 57.9621C25.389 57.9621 25.5903 57.874 25.7413 57.7105L33.0886 49.6335L45.6696 49.5832C48.1481 49.5832 50.161 47.5702 50.161 45.0917V45.0037L54.1366 49.3819C54.2876 49.5454 54.4889 49.6335 54.7028 49.6335C54.7908 49.6335 54.8915 49.6209 54.9795 49.5832C55.2689 49.4699 55.4576 49.1932 55.4576 48.8786V41.3049H56.2628C58.7413 41.3049 60.7542 39.2919 60.7542 36.8134V20.823C60.7291 18.3445 58.7287 16.3316 56.2502 16.3316ZM48.6261 45.0917C48.6261 46.7273 47.2925 48.0609 45.6444 48.0609L32.7237 48.1112C32.5099 48.1112 32.3086 48.1993 32.1702 48.3628L25.9174 55.2446V48.8786C25.9174 48.4635 25.5777 48.1238 25.1626 48.1238H19.8156C18.1801 48.1238 16.8465 46.7902 16.8465 45.1547V29.1516C16.8465 27.5161 18.1801 26.1825 19.8156 26.1825L26.6849 26.1699L45.6444 26.1196C47.28 26.1196 48.6136 27.4532 48.6136 29.0887V43.041V45.0917H48.6261ZM59.2193 36.826C59.2193 38.4616 57.8857 39.7951 56.2502 39.7951H54.6902C54.275 39.7951 53.9353 40.1348 53.9353 40.55V46.916L50.1484 42.7517V29.0887C50.1484 26.6103 48.1355 24.5973 45.657 24.5973L27.4271 24.6476V20.7727C27.4271 19.1371 28.7607 17.8036 30.3963 17.8036L56.2376 17.8539C57.8732 17.8539 59.2068 19.1875 59.2068 20.823V36.826H59.2193Z" fill="white"/>
</svg>
