<svg width="61" height="61" viewBox="0 0 61 61" fill="none" xmlns="http://www.w3.org/2000/svg">
<g clip-path="url(#clip0_1805_5139)">
<path d="M48.1832 15.0922C48.3521 15.3668 48.6453 15.5176 48.9455 15.5176C49.1051 15.5176 49.2666 15.4748 49.4127 15.385L54.2565 12.4055C54.6768 12.1472 54.808 11.5967 54.5493 11.1764C54.291 10.7562 53.7404 10.6249 53.3197 10.8837L48.4764 13.8631C48.0561 14.1214 47.9249 14.672 48.1832 15.0922Z" fill="white"/>
<path d="M60.1944 21.0292L53.0934 20.3395C52.6024 20.2911 52.1654 20.6513 52.1175 21.1423C52.07 21.6338 52.4293 22.0708 52.9208 22.1182L60.0213 22.8079C60.0511 22.8107 60.0799 22.8121 60.1088 22.8121C60.5635 22.8121 60.9525 22.4668 60.9972 22.0051C61.0447 21.5142 60.6854 21.0772 60.1944 21.0292Z" fill="white"/>
<path d="M44.5545 8.85176C44.6606 8.89318 44.7704 8.91319 44.8779 8.91319C45.2358 8.91319 45.5737 8.69679 45.711 8.34309L48.2972 1.69402C48.4763 1.23421 48.2483 0.716226 47.7885 0.537515C47.3287 0.358804 46.8107 0.586381 46.632 1.04619L44.0453 7.69526C43.8666 8.15507 44.0942 8.67305 44.5545 8.85176Z" fill="white"/>
<path d="M38.2446 3.92696C37.6442 2.95476 36.3653 2.65132 35.3927 3.25168L34.3237 3.91114C33.8522 4.20155 33.5227 4.65856 33.3952 5.19702C33.2677 5.73595 33.3575 6.29209 33.6479 6.76307L34.2627 7.75901L20.212 25.1535L17.2447 26.9844C16.8249 27.2436 16.6946 27.7942 16.9538 28.214C17.1227 28.4876 17.4155 28.6384 17.7152 28.6384C17.8748 28.6384 18.0372 28.5956 18.1834 28.5053L20.5201 27.0635L25.074 34.4442C24.4159 34.4014 23.7597 34.5377 23.1635 34.844C23.1528 34.8491 23.1426 34.8547 23.1319 34.8602C23.0518 34.9026 22.9723 34.9468 22.8945 34.9947L20.2227 36.6515C19.9295 36.8335 19.6591 37.0485 19.4134 37.2891C19.116 37.58 18.8559 37.9081 18.6455 38.2665L17.986 39.2605L17.5011 39.9903C17.4969 39.9889 17.4923 39.9875 17.4885 39.9861C17.4811 39.9828 17.4741 39.9791 17.4667 39.9758C17.429 39.9591 17.3917 39.9405 17.3559 39.9205C17.348 39.9163 17.3405 39.9121 17.3331 39.9079C17.2935 39.8842 17.2549 39.8586 17.2181 39.8311C17.2102 39.8255 17.2028 39.8195 17.1953 39.8134C17.1618 39.7874 17.1288 39.7594 17.0976 39.7296C17.0939 39.7259 17.0897 39.7227 17.086 39.7189C17.0525 39.6864 17.0208 39.651 16.9906 39.6147C16.9841 39.6068 16.978 39.5984 16.9715 39.5905C16.9417 39.5523 16.9133 39.5132 16.8877 39.4718L13.0264 33.2137C12.8439 32.9182 12.7876 32.5696 12.8677 32.2322C12.9477 31.8943 13.1543 31.6081 13.4494 31.4261L14.6054 30.7131C15.0252 30.4539 15.156 29.9033 14.8968 29.4836C14.6375 29.0633 14.087 28.933 13.6672 29.1922L12.5112 29.9052C11.8098 30.338 11.3188 31.018 11.1285 31.8203C11.0061 32.3383 11.0191 32.867 11.1597 33.3654L10.3001 33.8959C9.15009 34.6057 8.79174 36.1187 9.50146 37.2691L11.6823 40.8038C12.0258 41.3609 12.5661 41.7504 13.2032 41.9016C13.3922 41.9463 13.583 41.9687 13.7728 41.9687C14.2219 41.9687 14.6631 41.8444 15.055 41.6024L15.916 41.0714C16.0956 41.2347 16.2925 41.3757 16.5038 41.4921L14.0228 45.2292L13.4378 45.6285C13.3158 45.5666 13.1818 45.5275 13.0412 45.5154C12.7536 45.4912 12.4744 45.5796 12.2543 45.7649L10.7147 47.0605C10.3559 46.8315 9.88541 46.8278 9.51682 47.0791C9.4996 47.0912 9.48238 47.1033 9.46609 47.1164L0.798615 53.9581C0.290871 54.3588 0 54.9596 0 55.6061V58.3896C0 59.547 0.941956 60.489 2.09939 60.489H16.2781C16.9175 60.489 17.5141 60.2032 17.9148 59.7043L19.0904 58.2416C19.2961 58.0061 19.3836 57.7045 19.3524 57.4118L20.9343 56.0803C21.0888 55.9505 21.2001 55.7838 21.2624 55.5972L24.9088 56.3446C24.9628 56.3558 25.0172 56.3619 25.0721 56.3628C25.1787 56.3647 25.2848 56.3661 25.3909 56.3661C26.2551 56.3661 27.1138 56.2786 28.0162 55.7331L31.6895 53.5453C31.751 53.549 31.8124 53.5514 31.8734 53.5514C32.4035 53.5514 32.9256 53.4057 33.3896 53.1218L36.3407 51.3179C37.7131 50.4793 38.1478 48.6801 37.3092 47.3076C37.0229 46.8385 36.6181 46.4709 36.1396 46.2289C36.6027 45.3414 36.6041 44.2388 36.0452 43.3239C35.6393 42.6598 35.0013 42.1916 34.2469 42.0026C34.4028 41.2869 34.2953 40.5129 33.8843 39.8399C33.4962 39.2038 32.894 38.7505 32.1824 38.5462C32.3769 37.7987 32.2811 36.9764 31.8478 36.2667C31.7352 36.0824 31.6034 35.9148 31.4578 35.7622L49.1632 31.9083L49.778 32.9042C50.1694 33.5385 50.8493 33.888 51.5451 33.888C51.916 33.888 52.2916 33.7889 52.6299 33.5799L53.6989 32.9205C54.1699 32.6296 54.4999 32.1731 54.6274 31.6341C54.7549 31.0957 54.6651 30.5395 54.3742 30.0681L38.2446 3.92696ZM14.1172 40.0815C13.966 40.1746 13.7877 40.2034 13.6155 40.1625C13.4429 40.1215 13.2967 40.0159 13.2032 39.8651L11.0224 36.3304C10.8302 36.0191 10.9274 35.6091 11.2388 35.4164L11.9969 34.9487L14.8754 39.6133L14.1172 40.0815ZM16.5215 58.585C16.4619 58.6595 16.3735 58.7019 16.2781 58.7019H2.09939C1.92719 58.7019 1.78711 58.5618 1.78711 58.3896V55.6061C1.78711 55.5097 1.83039 55.4204 1.90578 55.3608L10.0353 48.9435L17.3624 57.5388L16.5215 58.585ZM18.3383 55.9291L11.9113 48.3892L12.863 47.5883L19.2421 55.1691L18.3383 55.9291ZM27.097 54.2006C26.5516 54.5305 26.0397 54.5887 25.1861 54.5775L20.6081 53.6389C20.4996 53.6165 20.3903 53.6147 20.2846 53.6319L14.665 46.9544L15.1741 46.6068C15.1746 46.6068 15.1751 46.6063 15.176 46.6058C15.1844 46.5998 15.1928 46.5928 15.2011 46.5868C15.2202 46.5723 15.2393 46.5579 15.257 46.5425C15.2658 46.5346 15.2742 46.5262 15.2826 46.5183C15.3007 46.5016 15.3175 46.4844 15.3338 46.4662C15.3403 46.4592 15.3473 46.4518 15.3533 46.4443C15.3733 46.4201 15.3924 46.3955 15.4096 46.3699C15.4115 46.3675 15.4134 46.3657 15.4147 46.3634L15.4189 46.3573C15.4203 46.355 15.4217 46.3527 15.4231 46.3503L20.1487 39.2331C20.159 39.2177 20.1687 39.2019 20.178 39.1861C20.4163 38.7742 20.7575 38.4233 21.1647 38.1706L23.8365 36.5138C23.8858 36.4831 23.9361 36.4556 23.9868 36.43C24.0096 36.4184 24.0329 36.4086 24.0557 36.3979C24.0827 36.3858 24.1092 36.3737 24.1367 36.363C24.1679 36.3504 24.199 36.3388 24.2312 36.3281C24.2474 36.322 24.2642 36.3169 24.281 36.3118C24.32 36.2997 24.3596 36.2881 24.3992 36.2783H24.3996C24.5434 36.2434 24.6896 36.2262 24.8352 36.2252C24.8385 36.2252 24.8418 36.2252 24.8445 36.2252C24.8874 36.2252 24.9297 36.2271 24.9721 36.2299C24.9856 36.2313 24.9991 36.2322 25.013 36.2336C25.0507 36.2369 25.0879 36.2411 25.1252 36.2467C25.147 36.2499 25.1694 36.2546 25.1917 36.2588C25.2485 36.2695 25.3048 36.2829 25.3602 36.2992C25.3816 36.3053 25.4035 36.3109 25.4244 36.3174C25.4528 36.3272 25.4803 36.3379 25.5082 36.349C25.5301 36.3574 25.5524 36.3658 25.5738 36.3751C25.6013 36.3867 25.6287 36.3998 25.6557 36.4133C25.6762 36.4235 25.6962 36.4337 25.7158 36.4444C25.7428 36.4589 25.7697 36.4742 25.7963 36.4905C25.8144 36.5017 25.8321 36.5133 25.8498 36.525C25.8763 36.5426 25.9028 36.5603 25.9284 36.5799C25.9443 36.5915 25.9592 36.6041 25.9741 36.6162C26.0006 36.6371 26.0266 36.6581 26.0518 36.6809C26.1737 36.7907 26.2807 36.9173 26.3682 37.0602L26.4339 37.1677L27.3865 38.7221L28.5821 40.673L28.886 41.1696C28.9149 41.2166 28.9386 41.2654 28.9568 41.3162C29.0126 41.4688 29.0214 41.6354 28.9819 41.8002C28.9251 42.0371 28.7757 42.24 28.5616 42.3708L28.0241 42.6993L28.0236 42.6998C27.9864 42.7221 27.9487 42.7412 27.9096 42.758C27.9012 42.7617 27.8929 42.7654 27.8845 42.7687C27.8459 42.7845 27.8068 42.7975 27.7672 42.8078C27.7626 42.8092 27.7574 42.8101 27.7528 42.811C27.7156 42.8199 27.6783 42.8264 27.6411 42.8306C27.6336 42.8315 27.6267 42.8324 27.6192 42.8334C27.5792 42.8366 27.5392 42.8375 27.4996 42.8361C27.4922 42.8357 27.4847 42.8352 27.4773 42.8348C27.4368 42.832 27.3968 42.8273 27.3572 42.8194C27.3567 42.8189 27.3563 42.8189 27.3558 42.8189C27.3135 42.8101 27.2725 42.798 27.232 42.7831C27.2283 42.7817 27.225 42.7808 27.2213 42.7794C27.1385 42.7477 27.0603 42.703 26.99 42.6458C26.9895 42.6458 26.9895 42.6453 26.9895 42.6453C26.9542 42.6165 26.9225 42.5858 26.8932 42.5532C26.8909 42.5504 26.8885 42.5476 26.8858 42.5443C26.8578 42.5118 26.8318 42.4778 26.8099 42.4415L25.9191 40.9853C25.5873 40.4426 25.061 40.0619 24.4369 39.9139C23.7974 39.7618 23.1347 39.8707 22.5716 40.2202C22.3449 40.3607 22.1932 40.5948 22.1569 40.8587C22.1467 40.935 22.1341 41.0099 22.1206 41.0839C22.1104 41.1379 22.0987 41.1914 22.0866 41.2445C22.0829 41.2622 22.0792 41.2803 22.075 41.298C22.0592 41.365 22.0419 41.4311 22.0229 41.4963C22.0224 41.4986 22.0215 41.5014 22.0205 41.5042C21.9205 41.8472 21.7799 42.1651 21.5994 42.4541C21.5989 42.4545 21.5989 42.455 21.5989 42.4555C21.2661 42.9888 20.7961 43.4398 20.1799 43.8144C19.7583 44.0708 19.6242 44.6205 19.8807 45.0421C20.1371 45.4638 20.6867 45.5978 21.1084 45.3414C21.5435 45.0765 21.9293 44.7796 22.2667 44.4525L25.9983 50.3374C26.6856 51.4036 27.8738 52.0221 29.1029 52.0221C29.168 52.0221 29.2332 52.0188 29.2984 52.0151C29.324 52.0616 29.35 52.1077 29.3779 52.1538C29.4831 52.3255 29.6041 52.4837 29.7386 52.6276L27.097 54.2006ZM27.8552 47.6311C27.8552 47.6316 27.8556 47.632 27.8556 47.6325C27.8705 47.6744 27.8868 47.7153 27.904 47.7567C27.9059 47.7614 27.9078 47.7665 27.9101 47.7716C27.9254 47.8089 27.9422 47.8456 27.9594 47.8824C27.9636 47.8903 27.9669 47.8992 27.9711 47.9075C27.9873 47.942 28.0055 47.9759 28.0232 48.0099C28.0288 48.0202 28.0334 48.0304 28.039 48.0402C28.0627 48.0839 28.0879 48.1272 28.1139 48.17C28.1586 48.2435 28.2075 48.3138 28.2577 48.3822C28.2759 48.4064 28.2945 48.4302 28.3131 48.4539C28.3462 48.4958 28.3801 48.5363 28.415 48.5763C28.4397 48.6042 28.4639 48.6331 28.4895 48.6601C28.5086 48.6806 28.5295 48.6992 28.5495 48.7192C28.6217 48.7913 28.6971 48.8593 28.7762 48.9235C28.7846 48.93 28.7925 48.937 28.8008 48.943C28.9544 49.065 29.1192 49.1706 29.2946 49.2595C29.1331 49.5634 29.0266 49.8929 28.9791 50.2322C28.3899 50.1954 27.8324 49.885 27.5038 49.3749L23.3958 42.8962C23.5861 42.5029 23.7327 42.0831 23.8323 41.6359C23.8961 41.6322 23.9603 41.6378 24.0236 41.6527C24.1809 41.6899 24.3126 41.7844 24.3945 41.9179L25.2853 43.3741C25.2867 43.376 25.2881 43.3779 25.2895 43.3802C25.3332 43.4514 25.3802 43.5203 25.4309 43.5868C25.4682 43.6357 25.5082 43.6813 25.5482 43.7269C25.5622 43.7427 25.5747 43.76 25.5892 43.7758C25.591 43.7837 25.5934 43.7916 25.5952 43.7995C25.6092 43.8614 25.625 43.9228 25.6427 43.9838C25.6483 44.0015 25.6534 44.0192 25.6585 44.0369C25.6804 44.1057 25.7037 44.1742 25.7307 44.2412C25.733 44.2481 25.7362 44.2547 25.739 44.2612C25.7637 44.3226 25.7912 44.3826 25.8205 44.4422C25.8288 44.4594 25.8372 44.4767 25.8461 44.4934C25.8796 44.5586 25.9145 44.6228 25.9526 44.6861C26.358 45.3497 26.9951 45.817 27.7481 46.0069C27.6318 46.5393 27.6644 47.1029 27.8552 47.6311ZM28.4253 36.9964L28.7255 36.813C28.9903 36.6511 29.3021 36.6022 29.6041 36.6748C29.9057 36.7479 30.1607 36.9336 30.3222 37.1984C30.6559 37.7447 30.4832 38.461 29.9369 38.7947L29.6386 38.9771L28.7552 37.5358L28.4253 36.9964ZM35.0846 47.7298C35.3783 47.8005 35.6263 47.9815 35.7841 48.2394C36.1089 48.7713 35.9404 49.4685 35.4085 49.7938L32.4574 51.5976C32.2206 51.7424 31.945 51.7931 31.6737 51.7456C31.6584 51.7424 31.6425 51.7387 31.6267 51.7363C31.6188 51.7345 31.6104 51.7335 31.6025 51.7317C31.3084 51.6609 31.0603 51.4799 30.9026 51.2221C30.8318 51.1062 30.7862 50.9829 30.7606 50.8572C30.7602 50.8535 30.7602 50.8502 30.7592 50.847C30.6885 50.4798 30.8067 50.1047 31.0589 49.844C31.0659 49.8371 31.0724 49.8296 31.0794 49.8231C31.0924 49.8105 31.1059 49.7984 31.1194 49.7863C31.1329 49.7742 31.1469 49.7621 31.1618 49.751C31.1725 49.7421 31.1827 49.7337 31.1939 49.7254C31.2204 49.7058 31.247 49.6872 31.2753 49.6695C31.2763 49.669 31.2772 49.6686 31.2777 49.6681L31.8641 49.3098C31.9674 49.2618 32.0688 49.2092 32.1675 49.1492L34.4251 47.7688C34.6346 47.6907 34.8621 47.6762 35.0846 47.7298ZM33.0289 43.813C33.2691 43.6981 33.539 43.6692 33.8015 43.7325C34.1031 43.8051 34.3581 43.9913 34.5201 44.2561C34.8538 44.8024 34.6806 45.5182 34.1347 45.8519L33.6032 46.1767C33.499 46.2247 33.3966 46.2787 33.2975 46.3392L31.0515 47.7116C30.6322 47.8764 30.1603 47.7796 29.8396 47.4836C29.8391 47.4831 29.8391 47.4831 29.8391 47.4831C29.814 47.4598 29.7903 47.4361 29.7675 47.4105C29.7614 47.4035 29.7558 47.3961 29.7498 47.3891C29.733 47.3695 29.7163 47.35 29.7005 47.3291C29.6786 47.2997 29.6581 47.2695 29.6386 47.2383C29.619 47.2057 29.6013 47.1731 29.585 47.1396C29.5799 47.1289 29.5757 47.1182 29.5706 47.1071C29.5604 47.0843 29.5501 47.061 29.5413 47.0373C29.5366 47.0247 29.5329 47.0126 29.5287 47C29.5213 46.9772 29.5143 46.9549 29.5082 46.9321C29.505 46.9195 29.5017 46.9065 29.4989 46.8939C29.4938 46.8711 29.4892 46.8478 29.485 46.8241C29.4831 46.812 29.4813 46.7999 29.4794 46.7878C29.4761 46.7636 29.4738 46.7394 29.4724 46.7152C29.4715 46.7036 29.4706 46.6919 29.4701 46.6803C29.4692 46.6552 29.4692 46.63 29.4701 46.6054C29.4701 46.5942 29.4701 46.5835 29.471 46.5728C29.4719 46.5472 29.4752 46.5221 29.478 46.4969C29.4794 46.4862 29.4799 46.4755 29.4817 46.4648C29.485 46.4425 29.4896 46.4201 29.4943 46.3978C29.545 46.1586 29.6702 45.9347 29.8666 45.763C29.8745 45.756 29.8815 45.7476 29.8894 45.7407C29.9006 45.7309 29.9113 45.7211 29.9229 45.7118C29.9508 45.696 29.9792 45.6816 30.0067 45.6648L32.9061 43.8926C32.948 43.867 32.9889 43.8405 33.0289 43.813ZM31.6407 40.2481C31.9423 40.3207 32.1973 40.5069 32.3592 40.7717C32.6701 41.2808 32.5407 41.9375 32.0795 42.2949C32.0498 42.3112 32.0204 42.3279 31.9911 42.3456L29.7526 43.7139C29.76 43.7083 29.767 43.7018 29.7745 43.6957C29.8173 43.6618 29.8601 43.6273 29.9001 43.591C29.9252 43.5687 29.949 43.5449 29.9732 43.5217C30.0095 43.4863 30.0458 43.4505 30.0802 43.4128C30.104 43.3876 30.1263 43.3611 30.1486 43.335C30.1807 43.2969 30.2124 43.2587 30.2422 43.2192C30.2631 43.1917 30.2841 43.1638 30.3041 43.1349C30.3325 43.0944 30.3595 43.053 30.386 43.0107C30.4041 42.9813 30.4223 42.9525 30.439 42.9227C30.4646 42.878 30.4879 42.832 30.5107 42.7859C30.5251 42.7566 30.5405 42.7282 30.5535 42.6984C30.5768 42.6467 30.5973 42.5937 30.6177 42.5402C30.6271 42.5146 30.6382 42.4894 30.6471 42.4634C30.6745 42.3829 30.6992 42.3014 30.7192 42.2181C30.7383 42.1385 30.7532 42.0585 30.7648 41.9784C30.7685 41.9528 30.7704 41.9272 30.7737 41.9016C30.7802 41.8467 30.7853 41.7923 30.7885 41.7374C30.7899 41.7076 30.7904 41.6778 30.7909 41.648C30.7923 41.5968 30.7918 41.5461 30.7899 41.4953C30.789 41.4651 30.7871 41.4348 30.7853 41.4046C30.7816 41.3534 30.7755 41.3022 30.769 41.2515C30.7653 41.2231 30.762 41.1947 30.7574 41.1668C30.7476 41.1091 30.7355 41.0523 30.7215 40.9955C30.7169 40.975 30.7132 40.9541 30.708 40.9336C30.6876 40.8568 30.6643 40.781 30.6368 40.706C30.6312 40.6916 30.6247 40.6772 30.6187 40.6623C30.5991 40.612 30.58 40.5613 30.5572 40.512L30.7625 40.3863C31.0273 40.2244 31.3391 40.1755 31.6407 40.2481ZM52.8882 31.2227C52.878 31.2655 52.8477 31.3456 52.7602 31.3996L51.6912 32.0595C51.5576 32.1419 51.3813 32.1005 51.2984 31.9664L40.0438 13.7258C39.7851 13.306 39.2345 13.1757 38.8142 13.4345C38.3945 13.6937 38.2642 14.2443 38.5234 14.664L48.1686 30.2961L27.4037 34.8165L21.9042 25.9028L35.2577 9.3716L36.3365 11.1205C36.5957 11.5403 37.1463 11.6706 37.5661 11.4119C37.9863 11.1527 38.1166 10.6021 37.8574 10.1818L35.1688 5.82484C35.1148 5.73734 35.1237 5.65218 35.1339 5.60936C35.1442 5.56608 35.1744 5.48603 35.2619 5.43204L36.3309 4.77258C36.4649 4.68974 36.6409 4.73163 36.7237 4.86566L52.8533 31.0073C52.9073 31.0947 52.8984 31.1799 52.8882 31.2227Z" fill="white"/>
</g>
<defs>
<clipPath id="clip0_1805_5139">
<rect width="61" height="61" fill="white"/>
</clipPath>
</defs>
</svg>
