<svg width="96" height="87" viewBox="0 0 96 87" fill="none" xmlns="http://www.w3.org/2000/svg">
<path d="M84.7441 79.0188C91.7948 70.6223 96.0343 59.779 96.0003 47.9423C95.9266 21.8333 74.7462 0.368122 48.6803 0.00478694C21.8605 -0.369902 0 21.2996 0 48.0785C0 59.8642 4.23381 70.6564 11.2561 79.0188C11.4885 79.2969 11.9136 79.3083 12.1687 79.0528L48.0001 43.1622L83.8316 79.0528C84.0867 79.314 84.5118 79.2969 84.7441 79.0188Z" fill="#ED1164"/>
<path d="M48.0019 86.8575C69.4622 86.8575 86.8592 69.4605 86.8592 48.0002C86.8592 26.5399 69.4622 9.14282 48.0019 9.14282C26.5416 9.14282 9.14453 26.5399 9.14453 48.0002C9.14453 69.4605 26.5416 86.8575 48.0019 86.8575Z" fill="#FFD9E7"/>
<mask id="mask0_1805_4966" style="mask-type:alpha" maskUnits="userSpaceOnUse" x="9" y="9" width="78" height="78">
<path d="M47.9008 86.8017C69.3852 86.8017 86.8017 69.3852 86.8017 47.9008C86.8017 26.4165 69.3852 9 47.9008 9C26.4165 9 9 26.4165 9 47.9008C9 69.3852 26.4165 86.8017 47.9008 86.8017Z" fill="#FBC000"/>
</mask>
<g mask="url(#mask0_1805_4966)">
<g opacity="0.8">
<path d="M53.5 88L26.5 71.5L43 49L47 47.3771L56.5 42.5L65.5 22.5L90.5 52L74.1761 82.1831L53.5 88Z" fill="#FFCDE0" fill-opacity="0.5" style="mix-blend-mode:multiply"/>
</g>
</g>
<path d="M34.9648 23.0117V72.2871H59.9077C63.3971 72.2871 66.2258 69.4584 66.2258 65.969V23.0117C66.2258 22.4531 65.7727 22 65.2141 22H35.9766C35.4179 22 34.9648 22.4531 34.9648 23.0117V23.0117Z" fill="white"/>
<path d="M66.2275 23.0117V65.9693C66.2275 69.458 63.3984 72.2871 59.909 72.2871H57.0039C60.4937 72.2871 63.3228 69.458 63.3228 65.9693V23.0117C63.3228 22.4531 62.8693 22 62.3107 22H65.2158C65.7744 22 66.2275 22.4531 66.2275 23.0117V23.0117Z" fill="#CBCBCD" fill-opacity="0.32"/>
<path d="M52.1774 63.3975C52.736 63.3975 53.1891 63.8502 53.1891 64.4092V65.9691C53.1891 69.4581 56.0178 72.2869 59.5068 72.2869H28.2439C24.7545 72.2869 21.9258 69.4581 21.9258 65.9687V64.4092C21.9258 63.8506 22.3785 63.3975 22.9375 63.3975H52.1774Z" fill="#EFEFEF"/>
<path d="M43.6989 39.0755C43.6989 40.0903 42.8759 40.9129 41.8612 40.9129C40.8464 40.9129 40.0234 40.0903 40.0234 39.0755C40.0234 38.0604 40.8464 37.2378 41.8612 37.2378C42.8759 37.2378 43.6989 38.0604 43.6989 39.0755Z" fill="#01A5EC"/>
<path d="M50.4613 39.9981H46.7433C46.3239 39.9981 45.9844 39.6585 45.9844 39.2392C45.9844 38.8203 46.3239 38.4807 46.7433 38.4807H50.4613C50.8806 38.4807 51.2202 38.8203 51.2202 39.2392C51.2202 39.6585 50.8806 39.9981 50.4613 39.9981V39.9981Z" fill="#ED1164"/>
<path d="M59.7048 41.8168H46.7433C46.3239 41.8168 45.9844 41.4773 45.9844 41.058C45.9844 40.639 46.3239 40.2991 46.7433 40.2991H59.7048C60.1242 40.2991 60.4637 40.639 60.4637 41.058C60.4637 41.4773 60.1242 41.8168 59.7048 41.8168Z" fill="#ED1164"/>
<path d="M46.7471 37.8525C46.3301 37.8525 45.9871 37.516 45.9844 37.0982C45.9817 36.6792 46.3155 36.3374 46.7344 36.3347H46.7421H46.7471C47.1638 36.3347 47.5033 36.6712 47.506 37.0886C47.5083 37.5079 47.1707 37.8498 46.7517 37.8525C46.7502 37.8525 46.7486 37.8525 46.7471 37.8525Z" fill="#ED1164"/>
<path d="M43.6989 47.0916C43.6989 48.1064 42.8759 48.9294 41.8612 48.9294C40.8464 48.9294 40.0234 48.1064 40.0234 47.0916C40.0234 46.0769 40.8464 45.2539 41.8612 45.2539C42.8759 45.2539 43.6989 46.0769 43.6989 47.0916V47.0916Z" fill="#01A5EC"/>
<path d="M50.4613 48.0152H46.7433C46.3239 48.0152 45.9844 47.6756 45.9844 47.2567C45.9844 46.8373 46.3239 46.4978 46.7433 46.4978H50.4613C50.8806 46.4978 51.2202 46.8373 51.2202 47.2567C51.2202 47.6756 50.8806 48.0152 50.4613 48.0152V48.0152Z" fill="#ED1164"/>
<path d="M59.7048 49.8339H46.7433C46.3239 49.8339 45.9844 49.4944 45.9844 49.075C45.9844 48.6561 46.3239 48.3162 46.7433 48.3162H59.7048C60.1242 48.3162 60.4637 48.6561 60.4637 49.075C60.4637 49.4944 60.1242 49.8339 59.7048 49.8339Z" fill="#ED1164"/>
<path d="M46.7471 45.8686C46.3301 45.8686 45.9871 45.5321 45.9844 45.1147C45.9817 44.6954 46.3155 44.3535 46.7344 44.3508H46.7421H46.7471C47.1638 44.3508 47.5033 44.6877 47.506 45.1051C47.5083 45.5241 47.1707 45.8659 46.7517 45.8686C46.7502 45.8686 46.7486 45.8686 46.7471 45.8686Z" fill="#ED1164"/>
<path d="M43.2106 55.6082C43.2106 56.623 42.3877 57.446 41.3729 57.446C40.3581 57.446 39.5352 56.623 39.5352 55.6082C39.5352 54.5935 40.3581 53.7705 41.3729 53.7705C42.3877 53.7705 43.2106 54.5935 43.2106 55.6082Z" fill="#01A5EC"/>
<path d="M50.4613 56.0317H46.7433C46.3239 56.0317 45.9844 55.6918 45.9844 55.2728C45.9844 54.8535 46.3239 54.5139 46.7433 54.5139H50.4613C50.8806 54.5139 51.2202 54.8535 51.2202 55.2728C51.2202 55.6918 50.8806 56.0317 50.4613 56.0317V56.0317Z" fill="#ED1164"/>
<path d="M59.7048 57.8497H46.7433C46.3239 57.8497 45.9844 57.5101 45.9844 57.0908C45.9844 56.6718 46.3239 56.3323 46.7433 56.3323H59.7048C60.1242 56.3323 60.4637 56.6718 60.4637 57.0908C60.4637 57.5101 60.1242 57.8497 59.7048 57.8497Z" fill="#ED1164"/>
<path d="M46.7471 53.8857C46.3301 53.8857 45.9871 53.5492 45.9844 53.1318C45.9817 52.7124 46.3155 52.3706 46.7344 52.3679H46.7421H46.7471C47.1638 52.3679 47.5033 52.7048 47.506 53.1222C47.5083 53.5412 47.1707 53.883 46.7517 53.8857C46.7502 53.8857 46.7486 53.8857 46.7471 53.8857Z" fill="#ED1164"/>
<path d="M58.6433 31.1411H41.3907C40.8687 31.1411 40.4453 30.6998 40.4453 30.1555V27.8404C40.4453 27.2964 40.8687 26.8552 41.3907 26.8552H58.6433C59.1656 26.8552 59.5887 27.2964 59.5887 27.8404V30.1555C59.5887 30.6998 59.1656 31.1411 58.6433 31.1411Z" fill="#F798BC"/>
<path d="M34.9688 50.2501L38.2268 51.8699C38.5905 52.0506 38.9876 51.6938 38.8468 51.3128L37.5849 47.9001L34.9688 50.2501Z" fill="#67BEE1"/>
<path d="M34.2681 50.0512L21.1914 35.4932C20.9159 35.1866 20.9405 34.7144 21.2478 34.4381L23.3288 32.5689C23.6361 32.2931 24.1084 32.3188 24.3838 32.6257L37.4605 47.1833C37.7363 47.4906 37.7114 47.9621 37.4037 48.2384L35.3231 50.1076C35.0154 50.3834 34.5439 50.3585 34.2681 50.0512V50.0512Z" fill="#01A5EC"/>
<path d="M34.2681 50.0511L21.1914 35.4931C20.9159 35.1865 20.9405 34.7142 21.2478 34.438L22.2883 33.5034L36.3632 49.1729L35.3231 50.1075C35.0154 50.3833 34.5439 50.3584 34.2681 50.0511Z" fill="#01A5EC" fill-opacity="0.6" style="mix-blend-mode:multiply"/>
<path d="M22.6077 37.07L21.1912 35.4935C20.9158 35.1866 20.9407 34.7143 21.248 34.4384L23.3286 32.5693C23.6363 32.293 24.1082 32.3187 24.3837 32.6257L25.8001 34.2025L22.6077 37.07Z" fill="#A7A9AC"/>
</svg>
