<svg width="60" height="60" viewBox="0 0 60 60" fill="none" xmlns="http://www.w3.org/2000/svg">
<path d="M56.25 14.0625C54.6994 14.0625 53.4375 15.3244 53.4375 16.875V17.2725C48.7819 20.0719 43.4709 21.5625 38.0306 21.5625H37.5C34.9153 21.5625 32.8125 23.6653 32.8125 26.25V30C32.8125 31.6153 33.6338 33.0422 34.8816 33.8859C34.185 34.5675 33.75 35.5134 33.75 36.5625V37.0894C33.75 37.4391 33.7931 37.7878 33.8775 38.1262L34.6491 41.2125L30.9375 52.3481V51.0863C30.9375 44.7469 28.0706 38.9766 23.4375 35.1328V30H24.375C26.9597 30 29.0625 27.8972 29.0625 25.3125V22.1419L29.2941 22.0266C30.3075 21.5194 30.9375 20.4994 30.9375 19.3659C30.9375 18.7772 30.765 18.2072 30.4378 17.7169L29.2462 15.93C29.1262 15.7491 29.0625 15.5381 29.0625 15.3216V12.1875C30.6131 12.1875 31.875 10.9256 31.875 9.375C31.875 4.72219 28.0894 0.9375 23.4375 0.9375H20.2087C11.6503 0.9375 4.6875 7.90125 4.6875 16.4597C4.6875 20.6053 6.30187 24.5025 9.23344 27.435L9.77813 27.9797L6.86344 29.9231C5.50125 30.8316 4.6875 32.3513 4.6875 33.9881C4.6875 34.7916 4.37437 35.5491 3.80625 36.1172L2.92687 36.9966C1.64344 38.2791 0.9375 39.9853 0.9375 41.7984C0.9375 42.9037 1.36781 43.9425 2.14969 44.7244C2.57719 45.1528 2.8125 45.7219 2.8125 46.3266C2.8125 49.2131 5.16094 51.5625 8.04844 51.5625H8.4375V59.0625H40.2141L41.6719 45.9375H43.9378L44.8753 39.375H45C46.5506 39.375 47.8125 38.1131 47.8125 36.5625C47.8125 36.4856 47.7956 36.4134 47.79 36.3375C49.7513 37.0153 51.6431 37.8984 53.4375 38.9775V39.375C53.4375 40.9256 54.6994 42.1875 56.25 42.1875C57.8006 42.1875 59.0625 40.9256 59.0625 39.375V16.875C59.0625 15.3244 57.8006 14.0625 56.25 14.0625V14.0625ZM34.86 30.9375H36.5625V29.0625H34.6875V27.1875H36.5625V25.3125H34.86C35.2481 24.2241 36.2794 23.4375 37.5 23.4375H38.0306C38.1666 23.4375 38.3016 23.4253 38.4375 23.4234V32.8125H38.0306H37.5C36.2794 32.8125 35.2481 32.0259 34.86 30.9375ZM38.0306 34.6875C38.1956 34.6875 38.3587 34.7025 38.5228 34.7044C38.9981 34.7503 39.375 35.1375 39.375 35.625C39.375 36.1425 38.9541 36.5625 38.4375 36.5625H37.5V38.4375H38.1516L38.2687 41.1431L36.4087 40.5234L35.6963 37.6716C35.6494 37.4803 35.625 37.2853 35.625 37.0894V36.5625C35.625 35.5284 36.4659 34.6875 37.5 34.6875H38.0306ZM25.3125 24.375C24.2784 24.375 23.4375 23.5341 23.4375 22.5H27.1875V24.375H25.3125ZM27.6872 16.9706L28.8788 18.7575C28.9988 18.9384 29.0625 19.1494 29.0625 19.3659C29.0625 19.785 28.8291 20.1619 28.4559 20.3494L27.9037 20.625H21.5625V22.5C21.5625 24.5681 23.2444 26.25 25.3125 26.25H27.015C26.6269 27.3384 25.5956 28.125 24.375 28.125H21.4041C20.6916 28.125 20.0522 27.7294 19.7344 27.0919L19.5731 26.7684L17.895 27.6056L18.0563 27.9291C18.6928 29.2059 19.9762 30 21.4041 30H21.5625V33.7312C19.8581 32.6166 17.9616 31.7569 15.9291 31.1728V23.9072L13.0613 21.7509C12.5147 21.3403 12.1875 20.685 12.1875 19.9997C12.1875 18.7941 13.1691 17.8125 14.3747 17.8125H15.9291V14.0625C15.9291 13.0284 16.77 12.1875 17.8041 12.1875H19.6875H20.625H27.1875V15.3216C27.1875 15.9103 27.36 16.4803 27.6872 16.9706V16.9706ZM6.5625 16.4597C6.5625 8.93437 12.6844 2.8125 20.2087 2.8125H23.4375C27.0562 2.8125 30 5.75719 30 9.375C30 9.8925 29.5791 10.3125 29.0625 10.3125H20.625H19.6875C19.1709 10.3125 18.75 9.8925 18.75 9.375C18.75 8.8575 19.1709 8.4375 19.6875 8.4375H20.625V6.5625H19.6875C18.1369 6.5625 16.875 7.82437 16.875 9.375C16.875 9.73219 16.9491 10.0716 17.0709 10.3866C15.3534 10.7288 14.0541 12.2456 14.0541 14.0625V15.9506C11.9634 16.1137 10.3125 17.8678 10.3125 19.9997C10.3125 21.2709 10.9191 22.4869 11.9353 23.2509L14.0541 24.8428V28.4784L11.805 27.3534L10.5591 26.1084C7.98187 23.5313 6.5625 20.1037 6.5625 16.4597V16.4597ZM8.04844 49.6875C6.195 49.6875 4.6875 48.18 4.6875 46.3266C4.6875 45.2213 4.25719 44.1816 3.47531 43.3997C3.04781 42.9722 2.81156 42.4031 2.81156 41.7994C2.81156 40.4869 3.3225 39.2512 4.25156 38.3231L5.13187 37.4437C6.05438 36.5203 6.5625 35.2931 6.5625 33.9881C6.5625 32.9794 7.06406 32.0428 7.90313 31.4831L11.3166 29.2069L14.0541 30.5756V31.3228C10.5759 33.2981 8.4375 36.9413 8.4375 40.9763V49.6875H8.04844ZM29.0625 57.1875H17.8125V44.2144C17.8125 42.0375 16.425 40.1119 14.3587 39.4237L13.7653 41.2013C15.0647 41.6353 15.9375 42.8456 15.9375 44.2144V57.1875H10.3125V40.9763C10.3125 37.5694 12.1434 34.4962 15.1144 32.8725C23.3447 35.0925 29.0625 42.5306 29.0625 51.0863V57.1875ZM38.5359 57.1875H31.3013L36.2184 42.435L38.3569 43.1475L38.4769 45.9375H39.7856L38.5359 57.1875ZM45 37.5H44.0625V35.625H45C45.5166 35.625 45.9375 36.045 45.9375 36.5625C45.9375 37.08 45.5166 37.5 45 37.5ZM43.0266 39.0609L42.3122 44.0625H40.2731L40.0078 37.9575C40.7569 37.4512 41.25 36.5944 41.25 35.625C41.25 35.3606 41.2012 35.1094 41.1328 34.8666C41.5237 34.9069 41.9156 34.9406 42.3038 34.9969C42.2325 35.1947 42.1875 35.4037 42.1875 35.625V37.5C42.1875 38.1506 42.5213 38.7244 43.0266 39.0609V39.0609ZM40.3125 32.8959V23.3541C44.9222 23.0231 49.3922 21.6806 53.4375 19.4353V36.8147C49.3922 34.5694 44.9222 33.2269 40.3125 32.8959ZM57.1875 39.375C57.1875 39.8925 56.7666 40.3125 56.25 40.3125C55.7334 40.3125 55.3125 39.8925 55.3125 39.375V16.875C55.3125 16.3575 55.7334 15.9375 56.25 15.9375C56.7666 15.9375 57.1875 16.3575 57.1875 16.875V39.375Z" fill="white"/>
</svg>
