<svg width="95" height="87" viewBox="0 0 95 87" fill="none" xmlns="http://www.w3.org/2000/svg">
<path d="M83.4196 77.7837C90.36 69.5185 94.5333 58.8447 94.4998 47.1929C94.4273 21.492 73.5779 0.362368 47.9194 0.00471212C21.5188 -0.364121 0 20.9667 0 47.3271C0 58.9285 4.16763 69.552 11.0802 77.7837C11.309 78.0575 11.7274 78.0687 11.9785 77.8172L47.2499 42.4875L82.5213 77.8172C82.7724 78.0743 83.1908 78.0575 83.4196 77.7837Z" fill="#ED1164"/>
<path d="M47.25 85.5C68.3749 85.5 85.5 68.3749 85.5 47.25C85.5 26.1251 68.3749 9 47.25 9C26.1251 9 9 26.1251 9 47.25C9 68.3749 26.1251 85.5 47.25 85.5Z" fill="#FFD9E7"/>
<mask id="mask0_1805_4901" style="mask-type:alpha" maskUnits="userSpaceOnUse" x="9" y="9" width="77" height="77">
<path d="M47.2928 85.5856C68.4413 85.5856 85.5856 68.4413 85.5856 47.2928C85.5856 26.1443 68.4413 9 47.2928 9C26.1443 9 9 26.1443 9 47.2928C9 68.4413 26.1443 85.5856 47.2928 85.5856Z" fill="#FBC000"/>
</mask>
<g mask="url(#mask0_1805_4901)">
<g opacity="0.8">
<path d="M70 90L25.5 64L50.5 61L49 53.5L48.0002 43.5L51.5 19L99.5002 43.5L73.1572 80.5471L70 90Z" fill="#FFCDE0" fill-opacity="0.5" style="mix-blend-mode:multiply"/>
</g>
</g>
<path d="M37.1382 63.8018L13.283 64.7004C13.283 64.6864 13.269 64.6723 13.255 64.6583C11.7526 61.9484 10.5872 58.9999 9.85711 55.8969C9.22528 53.2853 8.90234 50.5614 8.90234 47.7673C8.90234 46.8828 8.93042 45.9982 9.00063 45.1277L35.6218 46.8687L36.4361 55.8969L36.6187 57.9047L37.1382 63.8018Z" fill="#FFD7BD"/>
<path d="M37.1365 63.8002L34.3003 63.8985L28.7964 64.095L13.2533 64.6567C11.751 61.9468 10.5856 58.9983 9.85547 55.8953H36.4345L36.617 57.9031L37.1365 63.8002Z" fill="#FFBF9D"/>
<path d="M33.7969 50.9944V61.4407C33.7969 64.8807 36.605 67.6888 40.045 67.6888H51.0108C53.2152 67.6888 55.0264 65.8776 55.0264 63.6732V48.762C55.0264 46.5576 53.2152 44.7463 51.0108 44.7463H40.045C36.605 44.7463 33.7969 47.5545 33.7969 50.9944Z" fill="#FFBE9D"/>
<path d="M51.0108 67.6894H40.045C37.4755 67.6894 35.2571 66.1169 34.3023 63.8985C33.9794 63.1403 33.7969 62.3119 33.7969 61.4413V55.8953H55.0264V63.6738C55.0264 65.6395 53.5943 67.2963 51.7128 67.6192C51.4882 67.6754 51.2495 67.6894 51.0108 67.6894Z" fill="#FFBE9D"/>
<path d="M58.1023 31.9848L51.2785 33.6276L44.4688 31.9848L47.3471 26.0877L51.2925 21.679L55.238 26.0877L58.1023 31.9848Z" fill="#FAFAFA"/>
<path d="M44.4688 31.9846H58.1023V73.1098H44.4688V31.9846Z" fill="#F03C80"/>
<path d="M55.2245 26.0874H47.3477L51.2931 18L55.2245 26.0874Z" fill="#01A5EC"/>
<path d="M58.1011 31.9848L54.3101 32.8975L51.2773 33.6276V21.679L55.2228 26.0877L58.1011 31.9848Z" fill="#E5E5E5"/>
<path d="M51.2773 31.9846H58.0871V73.1098H51.2773V31.9846Z" fill="#ED1164"/>
<path d="M48.5117 64.741C48.5117 66.3276 49.8175 67.6334 51.4041 67.6334H57.245C58.8316 67.6334 60.1374 66.3276 60.1374 64.741C60.1374 63.1544 58.8316 61.8486 57.245 61.8486H51.4041C49.8175 61.8486 48.5117 63.1544 48.5117 64.741Z" fill="#FFD7BD"/>
<path d="M48.9336 58.8719C48.9336 60.5147 50.2675 61.8485 51.9102 61.8485H58.4251C60.0679 61.8485 61.4017 60.5147 61.4017 58.8719C61.4017 57.2291 60.0679 55.8953 58.4251 55.8953H51.9102C50.2675 55.8953 48.9336 57.2432 48.9336 58.8719Z" fill="#FFBE9D"/>
<path d="M50.8711 52.9197C50.8711 54.5625 52.205 55.8964 53.8477 55.8964H58.762C60.4047 55.8964 61.7386 54.5625 61.7386 52.9197C61.7386 51.277 60.4047 49.9431 58.762 49.9431H53.8477C52.205 49.9431 50.8711 51.291 50.8711 52.9197Z" fill="#FFCCB3"/>
<path d="M45.9023 47.3038C45.9023 48.9465 47.2362 50.2804 48.879 50.2804H58.7636C60.4064 50.2804 61.7402 48.9465 61.7402 47.3038C61.7402 45.661 60.4064 44.3271 58.7636 44.3271H48.879C47.2503 44.3271 45.9023 45.661 45.9023 47.3038Z" fill="#FFBE9D"/>
<path d="M55.2228 26.0873H51.2773V18.0139L55.2228 26.0873Z" fill="#2C8BCC"/>
<path d="M33.625 57.916H38.6094C42.4426 57.916 45.5455 54.1671 45.5455 50.348H48.0308C48.0308 53.5633 50.0807 56.4136 53.1416 57.4386C53.6751 57.6211 54.2227 57.228 54.2227 56.6663V48.6631C54.2227 45.2232 51.4286 42.4431 48.0027 42.4431H41.1929C37.3177 42.4431 33.9339 45.6023 33.9339 49.4775L33.625 57.916Z" fill="#FFD7BD"/>
<path d="M50.6264 56.0076C50.5842 55.9655 50.5421 55.9374 50.5 55.8953H54.2067V56.6535C54.2067 57.1168 53.8276 57.4678 53.3924 57.4678C53.3081 57.4678 53.2239 57.4538 53.1256 57.4257C52.1849 57.1168 51.3424 56.6254 50.6264 56.0076Z" fill="#FFD7BD"/>
<path d="M38.6087 57.9182H33.6242L32.6133 55.9104H43.2C41.9644 57.1179 40.3637 57.9182 38.6087 57.9182Z" fill="#FFBF9D"/>
<path d="M28.798 43.0754V66.9867H14.6731C12.4687 63.6591 10.8119 59.9102 9.85711 55.9086C9.22528 53.2971 8.90234 50.5732 8.90234 47.7791C8.90234 46.1925 9.01467 44.6199 9.21124 43.0895L28.798 43.0754Z" fill="white"/>
<path d="M28.7964 55.8953V66.9734H14.6714C12.467 63.6457 10.8102 59.8969 9.85547 55.8953H28.7964Z" fill="#E6E7E8"/>
</svg>
