<svg width="59" height="38" viewBox="0 0 59 38" fill="none" xmlns="http://www.w3.org/2000/svg">
<path d="M14.7508 19.4727C13.1228 19.4727 11.8008 20.7818 11.8008 22.3938C11.8008 24.0059 13.1228 25.315 14.7508 25.315C16.3787 25.315 17.7008 24.0059 17.7008 22.3938C17.7008 20.7818 16.3787 19.4727 14.7508 19.4727ZM14.7508 23.3693C14.2064 23.3693 13.7657 22.9329 13.7657 22.3938C13.7657 21.8548 14.2064 21.4184 14.7508 21.4184C15.2952 21.4184 15.7358 21.8548 15.7358 22.3938C15.7358 22.9329 15.2952 23.3693 14.7508 23.3693Z" fill="#01A5EC"/>
<path d="M28.5164 9.73926C26.8885 9.73926 25.5664 11.0484 25.5664 12.6604C25.5664 14.2725 26.8885 15.5816 28.5164 15.5816C30.1443 15.5816 31.4664 14.2725 31.4664 12.6604C31.4664 11.0433 30.1443 9.73926 28.5164 9.73926ZM28.5164 13.6308C27.972 13.6308 27.5313 13.1944 27.5313 12.6553C27.5313 12.1163 27.972 11.6799 28.5164 11.6799C29.0608 11.6799 29.5015 12.1163 29.5015 12.6553C29.5015 13.1944 29.0608 13.6308 28.5164 13.6308Z" fill="#01A5EC"/>
<path d="M43.2664 17.5273C41.6385 17.5273 40.3164 18.8365 40.3164 20.4485C40.3164 22.0606 41.6385 23.3697 43.2664 23.3697C44.8943 23.3697 46.2164 22.0606 46.2164 20.4485C46.2164 18.8365 44.8943 17.5273 43.2664 17.5273ZM43.2664 21.424C42.722 21.424 42.2813 20.9876 42.2813 20.4485C42.2813 19.9095 42.722 19.4731 43.2664 19.4731C43.8108 19.4731 44.2515 19.9095 44.2515 20.4485C44.2515 20.9876 43.8108 21.424 43.2664 21.424Z" fill="#01A5EC"/>
<path d="M42.2789 12.6604C42.2789 11.0484 40.9568 9.73926 39.3289 9.73926C37.701 9.73926 36.3789 11.0484 36.3789 12.6604C36.3789 14.2725 37.701 15.5816 39.3289 15.5816C40.962 15.5816 42.2789 14.2725 42.2789 12.6604ZM39.3289 13.6308C38.7845 13.6308 38.3438 13.1944 38.3438 12.6553C38.3438 12.1163 38.7845 11.6799 39.3289 11.6799C39.8733 11.6799 40.314 12.1163 40.314 12.6553C40.314 13.1944 39.8733 13.6308 39.3289 13.6308Z" fill="#01A5EC"/>
<path d="M25.5633 23.3691C23.9353 23.3691 22.6133 24.6783 22.6133 26.2903C22.6133 27.9024 23.9353 29.2115 25.5633 29.2115C27.1912 29.2115 28.5133 27.9024 28.5133 26.2903C28.5133 24.6783 27.1964 23.3691 25.5633 23.3691ZM25.5633 27.2658C25.0189 27.2658 24.5782 26.8294 24.5782 26.2903C24.5782 25.7513 25.0189 25.3149 25.5633 25.3149C26.1077 25.3149 26.5483 25.7513 26.5483 26.2903C26.5483 26.8294 26.1077 27.2658 25.5633 27.2658Z" fill="#01A5EC"/>
<path d="M58.9378 3.19842C58.6371 1.60691 57.3772 0.359373 55.77 0.0616068C55.5367 0.0205356 55.3034 0 55.0649 0H17.8141H15.6158H3.93506C1.76274 0 0 1.74553 0 3.89663V33.1085C0 35.2596 1.76274 37.0051 3.93506 37.0051H55.0649C57.2373 37.0051 59 35.2596 59 33.1085V3.89663C59 3.66047 58.9793 3.42431 58.9378 3.19842ZM51.6846 1.94575C51.3269 2.53615 51.1402 3.20869 51.1299 3.89663H33.4299C33.4195 3.20869 33.2173 2.53101 32.844 1.95088H51.6846V1.94575ZM26.1197 1.94575C25.7671 2.53615 25.5753 3.20869 25.5649 3.89149L7.86494 3.91716C7.82865 3.22409 7.63163 2.55155 7.28946 1.94575H26.1197ZM7.30501 35.0543C7.65237 34.4639 7.8442 33.7913 7.86494 33.1085H25.5649C25.5753 33.8016 25.7775 34.4741 26.1508 35.0543H7.30501ZM32.8803 35.0543C33.2329 34.4639 33.4247 33.7913 33.4351 33.1085H50.9847C51.0677 33.3087 51.1351 33.5192 51.1921 33.7246C51.3165 34.1866 51.4928 34.6333 51.7209 35.0543H32.8803ZM55.433 5.81157C55.3138 5.83211 55.1894 5.84751 55.0649 5.84751C54.0747 5.7551 53.1933 6.47385 53.1 7.45442C53.0896 7.56737 53.0896 7.68031 53.1 7.79326V29.2119C53.1 30.5467 54.3806 30.9163 55.1375 31.1371C55.4797 31.2192 55.8115 31.3424 56.1226 31.5119C57.0247 32.0509 57.3098 33.2163 56.7655 34.1045C56.6825 34.2431 56.5788 34.3714 56.4596 34.4844C55.7286 35.2339 54.5206 35.2493 53.7636 34.5255C53.6444 34.4125 53.5459 34.2842 53.4577 34.1456C53.2866 33.8375 53.1622 33.5141 53.0793 33.1701C52.8563 32.4206 52.483 31.1525 51.1299 31.1525H32.2737C31.7293 31.1525 31.2887 31.5889 31.2887 32.1279C31.2887 32.2409 31.3094 32.3487 31.3457 32.4514C31.7293 33.4371 31.2368 34.546 30.2414 34.9259C29.3704 35.2596 28.3853 34.9259 27.898 34.1404C27.5247 33.6578 27.4366 33.0161 27.6647 32.4514C27.8461 31.9431 27.5817 31.3887 27.0685 31.209C26.9596 31.173 26.8455 31.1525 26.7366 31.1525H7.86494C6.53251 31.1525 5.9 31.4297 5.9 33.011C5.91555 33.971 5.24675 34.813 4.30316 35.0183C3.22996 35.2185 2.19824 34.5152 1.99605 33.4525C1.93383 33.129 1.95975 32.8005 2.05826 32.4873C2.36415 31.6761 3.1522 31.1474 4.0232 31.1576C5.08084 31.132 5.92074 30.2643 5.89482 29.217V29.2119V7.78812C5.92074 6.75108 5.10677 5.88858 4.05949 5.84238C3.13664 5.84751 2.31749 5.26738 2.02197 4.40488C1.74719 3.3627 2.37452 2.28972 3.42698 2.00735C3.76397 1.92008 4.11652 1.92008 4.45352 2.00735C5.32452 2.29999 5.91037 3.11628 5.9 4.02498C5.94666 5.05689 6.82285 5.86804 7.86494 5.84238H18.5658H20.7641H26.7315C27.2758 5.84238 27.7165 5.40599 27.7165 4.86693C27.7165 4.75399 27.6958 4.64618 27.6595 4.5435C27.2758 3.55779 27.7684 2.44887 28.769 2.06896C29.64 1.73526 30.625 2.06896 31.1124 2.85445C31.4857 3.33703 31.5738 3.97877 31.3457 4.5435C31.1642 5.05176 31.4286 5.60622 31.9419 5.7859C32.0456 5.82184 32.1597 5.84238 32.2685 5.84238H51.1351C52.1253 5.93479 53.0067 5.21604 53.1 4.23547C53.1104 4.12252 53.1104 4.00957 53.1 3.89663C53.1 2.82364 53.9814 1.95088 55.0649 1.94575C55.1894 1.94575 55.3086 1.95601 55.433 1.98168C56.2263 2.1357 56.8536 2.75177 57.004 3.53726C57.201 4.59484 56.4959 5.61135 55.433 5.81157ZM57.0299 7.24393V29.7971C56.6047 29.5713 56.1537 29.3967 55.6871 29.2735C55.4745 29.217 55.2671 29.1451 55.0649 29.063V7.78812C55.7597 7.78299 56.4388 7.59303 57.0299 7.24393ZM1.96494 29.7663V7.21826C2.56634 7.5571 3.24033 7.75219 3.92988 7.78812L3.95061 29.2119C3.25589 29.2375 2.57153 29.4275 1.96494 29.7663Z" fill="#01A5EC"/>
</svg>
