<svg width="166" height="148" viewBox="0 0 166 148" fill="none" xmlns="http://www.w3.org/2000/svg">
<path d="M103.881 21.873C104.398 32.7755 117.7 47.714 127.593 50.1258C132.798 51.3932 138.778 50.8026 142.901 54.2973C149.964 60.2899 145.829 72.7059 150.604 80.7535C153.532 85.7002 159.353 88.1243 162.651 92.8126C168.126 100.614 164.447 112.402 156.978 118.211C149.509 124.019 139.541 125.126 130.177 124.892C109.566 124.363 88.4624 117.804 73.5731 103.198C66.5714 96.3319 39.1924 75.1546 48.7412 24.9371" fill="black"/>
<path d="M153.264 99.69L99.9204 76.4332C93.4233 73.6768 88.5121 73 88.5121 73L62.0564 73.1723C58.4633 73.1723 55.0793 73.9475 51.9046 75.2888L25.4302 82C15.9302 84 13.4302 90 10.4302 95.5C4.43018 109 0.930176 148 0.930176 148L149.929 126.946C156.685 126.946 162.16 120.72 162.16 113.053C162.185 106.839 158.543 101.376 153.264 99.69Z" fill="#ED1164"/>
<path d="M148.316 107.784C148.316 107.809 148.07 107.797 147.603 107.748C147.074 107.686 146.409 107.612 145.585 107.514C143.837 107.292 141.302 107.009 138.165 106.714C131.889 106.099 123.201 105.557 113.591 105.68C103.981 105.816 95.2933 106.579 89.0422 107.354C85.9167 107.735 83.3941 108.092 81.6468 108.35C80.8346 108.461 80.1702 108.56 79.641 108.633C79.1857 108.695 78.9396 108.707 78.9273 108.683C78.9273 108.658 79.1611 108.597 79.6164 108.498C80.1456 108.387 80.7977 108.264 81.6099 108.092C83.3449 107.748 85.8675 107.329 88.993 106.886C95.244 106 103.944 105.151 113.591 105.016C123.226 104.893 131.95 105.508 138.226 106.234C141.364 106.591 143.899 106.948 145.634 107.243C146.446 107.378 147.11 107.501 147.64 107.588C148.083 107.711 148.316 107.76 148.316 107.784Z" fill="black"/>
<path opacity="0.6" d="M144.182 89.2096C144.195 89.2219 144.121 89.308 143.961 89.468C143.776 89.6526 143.555 89.8987 143.272 90.194C142.656 90.8216 141.746 91.7444 140.503 92.8765C139.26 94.0086 137.71 95.3499 135.741 96.7158C133.772 98.0447 131.36 99.4352 128.432 100.198C125.515 101.023 122.07 100.936 118.637 100.001C115.191 99.0784 111.795 97.3433 108.325 95.4483C104.843 93.6025 101.249 91.4491 97.1641 90.2186C93.128 88.8773 88.5012 88.9266 84.4036 90.8708C80.2813 92.7289 76.7743 95.5591 72.9351 97.6017C71.9876 98.1309 70.9786 98.5369 70.0065 98.9799C68.9974 99.3368 68.013 99.7305 67.004 99.9766C64.9983 100.567 62.9556 100.863 60.9745 101.023C52.9638 101.601 45.8021 98.9922 40.9293 95.5099C38.4682 93.7502 36.5978 91.7567 34.8751 90.1325C33.1647 88.4836 31.6019 87.1792 30.1868 86.3055C27.332 84.5459 25.3386 84.6197 25.3878 84.509C25.3878 84.509 25.8554 84.4967 26.7291 84.669C27.6027 84.8289 28.8702 85.235 30.3222 86.0964C31.7742 86.9577 33.3862 88.2498 35.1212 89.8864C36.8686 91.4983 38.7513 93.4549 41.1877 95.153C46.0236 98.5369 53.0622 101.047 60.9252 100.444C62.8695 100.284 64.8752 99.9889 66.8317 99.3983C67.8285 99.1522 68.7883 98.7584 69.7727 98.4139C70.7202 97.9832 71.7046 97.5771 72.6275 97.0603C76.3929 95.0546 79.8999 92.1997 84.1329 90.2924C88.3412 88.2744 93.2264 88.2375 97.3363 89.6156C101.52 90.8954 105.126 93.0734 108.596 94.9315C112.053 96.8388 115.4 98.5615 118.76 99.4967C122.107 100.432 125.429 100.53 128.296 99.7674C131.176 99.0537 133.563 97.7125 135.519 96.4204C137.488 95.1038 139.051 93.7871 140.318 92.6919C141.574 91.5968 142.521 90.6985 143.161 90.0955C143.456 89.8125 143.702 89.591 143.899 89.4188C144.084 89.2711 144.17 89.1973 144.182 89.2096Z" fill="white"/>
<g opacity="0.2">
<path d="M31.4297 100.5L47.9297 127H35.4297L31.4297 100.5Z" fill="#F03C80" style="mix-blend-mode:multiply"/>
</g>
<path opacity="0.6" d="M148.7 110.412C148.719 110.418 148.653 110.622 148.524 111.022C148.389 111.408 148.163 111.98 147.802 112.681C147.093 114.075 145.815 116.039 143.632 117.808C141.471 119.573 138.308 121.059 134.639 121.177C132.817 121.245 130.891 120.99 129.025 120.324C127.165 119.639 125.393 118.584 123.678 117.418C121.953 116.25 120.331 115.05 118.651 114.1C116.979 113.12 115.232 112.471 113.501 112.128C110.02 111.469 106.732 111.989 104.206 112.949C101.64 113.874 99.8277 115.235 98.6657 116.226C98.3862 116.48 98.135 116.711 97.9026 116.915C97.711 117.122 97.5383 117.303 97.3844 117.458C97.1018 117.754 96.9416 117.895 96.9322 117.892C96.9165 117.877 97.0546 117.706 97.3121 117.391C97.4597 117.224 97.6167 117.027 97.802 116.808C98.0281 116.59 98.2731 116.347 98.5369 116.077C99.6675 115.022 101.492 113.59 104.09 112.599C106.647 111.574 110.008 110.992 113.605 111.646C115.392 111.975 117.215 112.648 118.911 113.646C120.627 114.618 122.267 115.824 123.976 116.977C125.682 118.14 127.407 119.179 129.21 119.846C131.007 120.501 132.88 120.76 134.645 120.706C138.201 120.616 141.295 119.216 143.421 117.525C145.588 115.837 146.885 113.944 147.642 112.597C148.377 111.221 148.643 110.394 148.7 110.412Z" fill="white"/>
<path opacity="0.6" d="M21.2033 88.0109C21.1953 88 21.0807 88.0834 20.857 88.2462C20.6427 88.4106 20.3311 88.6707 19.968 89.0435C19.2433 89.7796 18.2835 90.9956 17.6439 92.7549C17.0019 94.4994 16.7551 96.8327 17.4808 99.2178C17.835 100.404 18.416 101.592 19.2431 102.66C20.081 103.72 21.1328 104.649 22.2421 105.519C23.3555 106.395 24.4658 107.198 25.4317 108.089C26.414 108.969 27.2043 109.963 27.7981 111.008C28.9734 113.117 29.3626 115.337 29.3082 117.155C29.2845 118.992 28.821 120.431 28.4496 121.378C28.3504 121.609 28.2597 121.816 28.1814 122.007C28.0926 122.172 28.0162 122.319 27.9523 122.449C27.8273 122.69 27.7727 122.822 27.7767 122.827C27.7901 122.834 27.8675 122.711 28.0098 122.482C28.0832 122.354 28.173 122.213 28.2712 122.05C28.359 121.861 28.4591 121.655 28.5717 121.431C28.9902 120.492 29.4959 119.03 29.5538 117.16C29.6425 115.309 29.277 113.029 28.0799 110.845C27.4826 109.761 26.6605 108.723 25.6609 107.831C24.6736 106.922 23.5553 106.108 22.4554 105.239C21.3501 104.374 20.3181 103.472 19.504 102.445C18.6993 101.42 18.1273 100.267 17.7766 99.1194C17.0578 96.8127 17.2659 94.541 17.8683 92.8338C18.4602 91.1008 19.3713 89.8867 20.0559 89.1298C20.7632 88.3812 21.2271 88.0437 21.2033 88.0109Z" fill="white"/>
<path d="M31.4296 100C31.4296 100 35.6179 126.239 35.9299 127L34.9298 127.001L31.4296 100Z" fill="black"/>
<path opacity="0.2" d="M90.4692 72.918C88.9926 77.0648 91.2076 81.5193 93.3733 85.3585C94.8745 88.0288 96.4004 90.7236 98.5661 92.8893C100.732 95.055 103.648 96.6424 106.712 96.544C110.736 96.4086 114.329 93.4431 118.341 93.6769C121.072 93.8368 123.472 95.4488 125.736 96.9746C129.661 99.6326 133.697 102.217 138.152 103.853C142.606 105.478 147.565 106.093 152.106 104.727C156.647 103.361 160.658 99.7802 161.766 95.1658" fill="black"/>
<path d="M90.7988 71.7724C91.008 66.9487 91.2664 62.5927 91.2664 62.5927C91.2664 62.5927 102.033 61.2391 102.501 50.2383C102.969 39.2374 101.873 13.9256 101.873 13.9256L82.0498 4.40137L60.7125 21.5917L64.0596 72.0923C64.5395 79.3647 70.7536 84.9267 78.0383 84.5821C84.9661 84.2622 90.5034 78.7002 90.7988 71.7724Z" fill="#FFBE9D"/>
<path d="M100.015 33.9326C100.028 34.7078 99.4248 35.3477 98.6742 35.36C97.9235 35.3723 97.296 34.7571 97.2837 33.9818C97.2714 33.2066 97.8743 32.5667 98.6249 32.5544C99.3756 32.5298 100.003 33.1451 100.015 33.9326Z" fill="black"/>
<path d="M101.344 30.9917C101.171 31.1762 100.15 30.3149 98.6735 30.2534C97.1969 30.1795 96.1017 30.9424 95.9418 30.7456C95.8679 30.6594 96.0402 30.3149 96.5201 29.9703C96.9877 29.6258 97.7876 29.2935 98.7104 29.3428C99.6333 29.3797 100.396 29.7734 100.839 30.1672C101.282 30.561 101.43 30.9055 101.344 30.9917Z" fill="black"/>
<path d="M83.6756 33.9326C83.6879 34.7078 83.085 35.3477 82.3343 35.36C81.5837 35.3723 80.9562 34.7571 80.9438 33.9818C80.9315 33.2066 81.5345 32.5667 82.2851 32.5544C83.0357 32.5298 83.6633 33.1451 83.6756 33.9326Z" fill="black"/>
<path d="M85.0049 31.2739C84.8327 31.4585 83.799 30.5971 82.3224 30.5356C80.8458 30.4617 79.7506 31.2247 79.5906 31.0278C79.5168 30.9416 79.6891 30.5971 80.169 30.2526C80.6366 29.908 81.4364 29.5758 82.3593 29.625C83.2822 29.6619 84.0451 30.0557 84.4881 30.4494C84.9311 30.8432 85.0911 31.1877 85.0049 31.2739Z" fill="black"/>
<path d="M90.5413 43.9611C90.5413 43.875 91.4519 43.7396 92.9408 43.592C93.3223 43.5673 93.6791 43.4935 93.7407 43.2228C93.8391 42.9398 93.6791 42.4968 93.5069 42.0169C93.1623 41.0202 92.8178 39.9865 92.4363 38.9037C90.9597 34.4615 89.8891 30.8191 90.0614 30.7576C90.2337 30.6961 91.5626 34.2523 93.0393 38.6822C93.3961 39.7773 93.7407 40.8233 94.0606 41.82C94.196 42.2876 94.4298 42.8167 94.2329 43.4074C94.1221 43.7027 93.8514 43.9119 93.6053 43.9734C93.3592 44.0472 93.15 44.0349 92.9654 44.0473C91.4765 44.0842 90.5413 44.0596 90.5413 43.9611Z" fill="black"/>
<path d="M85.6932 45.4877C84.1797 44.491 89.8524 47.9364 92.8672 47.8872C92.8672 47.8872 91.0583 50.6559 88.0066 49.4008C84.8319 48.0718 85.6932 45.4877 85.6932 45.4877Z" fill="white"/>
<path d="M91.2695 62.5934C91.2695 62.5934 84.0587 62.8026 77.0078 57.9297C77.0078 57.9297 80.3548 65.9404 91.085 65.3005L91.2695 62.5934Z" fill="#EB996E"/>
<path d="M49.1471 32.4209C49.1102 41.9328 46.6122 67.097 63.9626 70.5916L63.335 35.9402C63.335 35.9402 80.1316 28.0156 82.9618 11.5266L83.0602 11.6251C84.1308 14.1107 86.0504 19.4635 84.8937 23.8195L100.62 27.6834L102.429 29.3446C102.429 29.3446 108.028 17.0763 97.2235 5.94006C86.4196 -5.19616 77.1784 2.87606 71.3949 2.17466C67.5434 1.70707 54.1799 1.80551 48.741 24.8039L49.1471 32.4209Z" fill="black"/>
<path d="M63.7646 36.321C62.3003 35.4104 60.2945 36.161 59.1378 37.4285C57.3043 39.4219 56.9844 42.6582 58.3872 44.9716C59.79 47.2849 62.8048 48.5032 65.4258 47.8018" fill="#FFBE9D"/>
<path d="M63.4216 44.6378C63.4216 44.7116 62.9294 44.7977 62.1665 44.5886C61.4405 44.3917 60.2961 43.8133 59.8654 42.5459C59.6562 41.9306 59.6932 41.2662 59.927 40.7493C60.1608 40.2325 60.5299 39.8757 60.8621 39.6542C61.5512 39.2112 62.0804 39.2358 62.0927 39.3096C62.1173 39.4081 61.662 39.5434 61.1452 40.011C60.616 40.454 60.1238 41.3646 60.4684 42.3367C60.7883 43.3088 61.6743 43.8749 62.3142 44.1579C62.9786 44.4532 63.4339 44.5393 63.4216 44.6378Z" fill="#EB996E"/>
<path d="M61.9927 46.8039C61.1928 46.9885 60.7868 48.096 61.2667 48.7481C61.7466 49.4126 62.9156 49.3634 63.3462 48.662C63.7769 47.9606 63.2724 46.9023 62.4726 46.7793" fill="#ED1164"/>
<path d="M80.1328 126.605V108.75C80.1328 108.75 52.4214 114.312 51.9292 126.605H80.1328Z" fill="#FFBE9D"/>
<path d="M91.0693 69.8657C91.5123 75.3661 94.0595 80.6819 98.0833 84.4596C102.107 88.2373 107.571 90.4646 113.083 90.5507C117.046 90.6246 121.217 89.6771 124.835 91.3013C127.985 92.7041 130.003 95.7558 132.476 98.1554C138.284 103.779 147.316 105.822 154.983 103.237C158.231 102.142 163.399 99.8166 164.002 96.4326C164.458 93.8608 161.32 91.3014 159.474 89.4679C157.616 87.6221 155.229 86.4408 152.866 85.3333C133.744 76.3505 113.231 69.8288 92.1399 68.709" fill="black"/>
</svg>
