<svg width="36" height="37" viewBox="0 0 36 37" fill="none" xmlns="http://www.w3.org/2000/svg">
<path d="M21.9688 35.8439H0.578249C0.259021 35.8439 0 35.5852 0 35.2657V32.8144C0 30.6595 1.93588 28.9062 4.31536 28.9062H8.46764C8.78686 28.9062 9.04588 29.1649 9.04588 29.4845C9.04588 29.8041 8.78686 30.0627 8.46764 30.0627H4.31536C2.57334 30.0627 1.15617 31.2967 1.15617 32.8144V34.6877H21.3906V32.4333C21.3906 31.1263 20.1653 30.0627 18.6594 30.0627H14.0503C13.7311 30.0627 13.4721 29.8041 13.4721 29.4845C13.4721 29.1649 13.7311 28.9062 14.0503 28.9062H18.6594C20.8031 28.9062 22.5467 30.4882 22.5467 32.4333V35.2657C22.5467 35.5852 22.288 35.8439 21.9688 35.8439Z" fill="#01A5EC"/>
<path d="M3.46891 21.3906C2.19366 21.3906 1.15625 20.3535 1.15625 19.0783C1.15625 17.8027 2.19366 16.7656 3.46891 16.7656C3.78814 16.7656 4.04683 17.0243 4.04683 17.3439C4.04683 17.6634 3.78814 17.9218 3.46891 17.9218C2.83112 17.9218 2.31275 18.4408 2.31275 19.0783C2.31275 19.7154 2.83112 20.2344 3.46891 20.2344C3.78814 20.2344 4.04683 20.4931 4.04683 20.8127C4.04683 21.1323 3.78814 21.3906 3.46891 21.3906Z" fill="#01A5EC"/>
<path d="M3.4699 19.8732C3.17283 19.8732 2.92043 19.6456 2.89429 19.3443L2.46094 14.2799C2.45862 10.5283 5.41768 7.51562 9.05489 7.51562H12.0133C12.3328 7.51562 12.5915 7.77432 12.5915 8.09387C12.5915 8.41343 12.3328 8.67179 12.0133 8.67179H9.05489C6.05514 8.67179 3.61512 11.1657 3.61512 14.2307L4.04649 19.2457C4.07362 19.5636 3.83808 19.8438 3.51985 19.8709C3.50298 19.8726 3.48611 19.8732 3.4699 19.8732Z" fill="#01A5EC"/>
<path d="M11.7068 32.3749H10.8398C9.32567 32.3749 8.09375 31.1429 8.09375 29.6288V27.5557C8.09375 27.2361 8.35244 26.9774 8.67167 26.9774C8.99123 26.9774 9.24992 27.2361 9.24992 27.5557V29.6288C9.24992 30.5055 9.96313 31.2187 10.8398 31.2187H11.7068C12.5838 31.2187 13.2967 30.5055 13.2967 29.6288V27.5411C13.2967 27.2216 13.5557 26.9629 13.8749 26.9629C14.1941 26.9629 14.4532 27.2216 14.4532 27.5411V29.6288C14.4532 31.1429 13.2212 32.3749 11.7068 32.3749Z" fill="#01A5EC"/>
<path d="M11.2736 28.3286C8.85439 28.3286 6.66512 27.4268 5.41831 25.917C3.88304 24.0575 2.89062 21.4779 2.89062 19.3449V15.7953C2.89062 14.2852 2.94488 13.5938 3.46424 13.3096C3.93134 13.0562 4.36668 13.3338 4.87083 13.6563C5.57677 14.1079 6.64328 14.7907 8.39821 14.7907C9.07636 14.7907 9.86004 14.6911 10.8644 14.4784C11.1756 14.4099 11.4833 14.6117 11.5498 14.9243C11.616 15.2366 11.4165 15.5432 11.1042 15.6097C10.0188 15.8397 9.15873 15.9468 8.39788 15.9468C6.30487 15.9468 5.01704 15.1225 4.24759 14.6302C4.19565 14.5975 4.14008 14.5614 4.08583 14.5273C4.05969 14.7996 4.04679 15.223 4.04679 15.7953V19.3449C4.04679 21.1964 4.95584 23.5421 6.3095 25.181C7.32441 26.4089 9.22621 27.1721 11.2736 27.1721C13.3206 27.1721 15.2227 26.4089 16.2373 25.181C16.6647 24.6632 17.0501 24.0767 17.3829 23.4369C17.5301 23.1538 17.8788 23.0436 18.1626 23.1905C18.4458 23.3377 18.5563 23.6874 18.4087 23.9702C18.0385 24.6821 17.6082 25.3371 17.1288 25.9173C15.882 27.4268 13.6927 28.3286 11.2736 28.3286Z" fill="#01A5EC"/>
<path d="M17.7775 35.6267C17.4579 35.6267 17.1992 35.3683 17.1992 35.0488V32.8807C17.1992 32.5611 17.4579 32.3027 17.7775 32.3027C18.0967 32.3027 18.3554 32.5611 18.3554 32.8807V35.0488C18.3554 35.3683 18.0967 35.6267 17.7775 35.6267Z" fill="#01A5EC"/>
<path d="M3.46887 35.4826C3.14965 35.4826 2.89062 35.2239 2.89062 34.9044V33.6036C2.89062 33.2841 3.14965 33.0254 3.46887 33.0254C3.7881 33.0254 4.04679 33.2841 4.04679 33.6036V34.9044C4.04679 35.2239 3.7881 35.4826 3.46887 35.4826Z" fill="#01A5EC"/>
<path d="M26.5942 21.3906C26.0708 21.3906 25.5462 21.333 25.0354 21.2185C24.7241 21.1491 24.5276 20.8401 24.5974 20.5285C24.6669 20.2172 24.9765 20.024 25.2878 20.0905C25.7155 20.1861 26.1555 20.2344 26.5942 20.2344C30.7385 20.2344 34.1097 15.9551 34.1097 10.6956C34.1097 5.4358 30.7385 1.1565 26.5942 1.1565C24.6401 1.1565 22.7876 2.10756 21.3774 3.8347C21.1759 4.08214 20.8114 4.11886 20.5642 3.91641C20.3168 3.71495 20.2797 3.35073 20.4822 3.10296C22.1157 1.10191 24.2861 0 26.5942 0C31.376 0 35.2659 4.79768 35.2659 10.6953C35.2659 16.5929 31.376 21.3906 26.5942 21.3906Z" fill="#01A5EC"/>
<path d="M19.0783 24.2812C14.2965 24.2812 10.4062 19.4835 10.4062 13.5859C10.4062 7.6883 14.2965 2.89062 19.0783 2.89062C23.8598 2.89062 27.7501 7.6883 27.7501 13.5859C27.7501 19.4835 23.8598 24.2812 19.0783 24.2812ZM19.0783 4.04679C14.934 4.04679 11.5627 8.32642 11.5627 13.5859C11.5627 18.8457 14.934 23.125 19.0783 23.125C23.2227 23.125 26.5939 18.8457 26.5939 13.5859C26.5939 8.32642 23.2227 4.04679 19.0783 4.04679Z" fill="#01A5EC"/>
<path d="M13.2618 10.9416C13.1976 10.9416 13.1324 10.931 13.0683 10.9085C12.7675 10.8017 12.6104 10.4709 12.7169 10.1702C13.2489 8.67329 14.1152 7.40134 15.2221 6.4913C15.4686 6.28851 15.8328 6.32292 16.0359 6.57102C16.2384 6.81747 16.203 7.18169 15.9562 7.38447C15.0114 8.1612 14.2681 9.25815 13.8066 10.5572C13.7226 10.7938 13.4996 10.9416 13.2618 10.9416Z" fill="#01A5EC"/>
<path d="M30.0627 37C29.7434 37 29.4844 36.7413 29.4844 36.4217V31.7967C29.4844 29.884 27.9283 28.3282 26.0156 28.3282H23.125C20.5748 28.3282 18.5 26.2534 18.5 23.7032C18.5 23.3837 18.759 23.125 19.0782 23.125C19.3975 23.125 19.6562 23.3837 19.6562 23.7032C19.6562 25.616 21.2123 27.1717 23.125 27.1717H26.0156C28.5658 27.1717 30.6406 29.2466 30.6406 31.7967V36.4217C30.6406 36.7413 30.3819 37 30.0627 37Z" fill="#01A5EC"/>
<path d="M26.5939 36.9999C26.2746 36.9999 26.0156 36.7412 26.0156 36.4217V20.8126C26.0156 20.4931 26.2746 20.2344 26.5939 20.2344C26.9131 20.2344 27.1721 20.4931 27.1721 20.8126V36.4217C27.1721 36.7412 26.9131 36.9999 26.5939 36.9999Z" fill="#01A5EC"/>
</svg>
