<svg width="39" height="37" viewBox="0 0 39 37" fill="none" xmlns="http://www.w3.org/2000/svg">
<path d="M38.9436 33.5513L32.9484 20.9115C32.81 20.6188 32.4616 20.4934 32.1746 20.6397C31.8877 20.7808 31.7698 21.1361 31.9082 21.4288L37.6523 33.5409L33.4249 35.6258L24.0682 15.8952L28.2956 13.8103L30.6425 18.7587C30.7808 19.0513 31.1293 19.1767 31.4162 19.0304C31.7032 18.8893 31.8262 18.5392 31.6827 18.2414L29.0847 12.7653C29.0181 12.6242 28.9003 12.5145 28.7568 12.4674C28.6133 12.4152 28.4545 12.4256 28.3161 12.4936L23.8017 14.7195V12.5302C23.8017 12.2062 23.5455 11.9397 23.2227 11.9397H16.2538V7.14814H23.2227C23.5404 7.14814 23.8017 6.88166 23.8017 6.55769V0.590453C23.8017 0.266488 23.5455 0 23.2227 0H18.3445C18.0268 0 17.7655 0.266488 17.7655 0.590453C17.7655 0.914419 18.0268 1.18091 18.3445 1.18091H22.6437V5.97246H1.15294V1.18091H15.6441C15.9618 1.18091 16.2231 0.914419 16.2231 0.590453C16.2231 0.266488 15.9618 0 15.6441 0H0.57903C0.256208 0 0 0.266488 0 0.590453V6.55769C0 6.88166 0.256208 7.14814 0.57903 7.14814H7.54789V11.9397H0.57903C0.256208 11.9397 0 12.201 0 12.5249V36.4043C0 36.7283 0.256208 36.9948 0.57903 36.9948H23.2227C23.5404 36.9948 23.8017 36.7335 23.8017 36.4043V24.4646C23.8017 24.1407 23.5404 23.8742 23.2227 23.8742H16.2538V19.0826H23.2227C23.5404 19.0826 23.8017 18.8161 23.8017 18.4922V18.0376L32.6358 36.6604C32.7383 36.8694 32.9432 36.9948 33.1585 36.9948C33.2404 36.9948 33.3275 36.9739 33.4095 36.9373L38.6772 34.3403C38.8155 34.2724 38.9231 34.1522 38.9693 34.0059C39.0205 33.8544 39.0102 33.6924 38.9436 33.5513ZM8.70083 7.14814H15.0958V11.9397H8.70083V7.14814ZM7.54789 23.8742H1.15294V19.0826H7.54789V23.8742ZM1.15294 31.0223H7.54789V35.8139H1.15294V31.0223ZM8.70083 31.0223H15.0958V35.8139H8.70083V31.0223ZM22.6437 35.8139H16.2538V31.0223H22.6488V35.8139H22.6437ZM22.6437 29.8466H1.15806V25.0551H22.6488V29.8466H22.6437ZM15.0958 23.8742H8.70083V19.0826H15.0958V23.8742ZM22.6437 17.9069H1.15806V13.1154H22.6488V17.9069H22.6437Z" fill="#01A5EC"/>
</svg>
