<svg width="37" height="37" viewBox="0 0 37 37" fill="none" xmlns="http://www.w3.org/2000/svg">
<path d="M35.8065 25.0645H29.6352L28.2453 21.821C28.0532 21.3723 27.7798 20.9683 27.4331 20.6209C26.8578 20.0456 26.0975 19.6625 25.2931 19.5414L22.2149 19.0813L22.57 17.3065H27.4516C29.1996 17.3065 30.8055 16.3528 31.6571 14.791L33.9063 10.1064C34.0388 9.83066 34.1086 9.52332 34.1086 9.21658C34.1086 8.08331 33.1866 7.16129 32.0539 7.16129C31.265 7.16129 30.5363 7.58977 30.152 8.28024L27.79 12.5323H24.5817L22.061 11.5327C22.0663 11.4676 22.0806 11.405 22.0806 11.3387H22.3086C23.1322 11.3387 23.8722 10.881 24.2398 10.1452C24.389 9.84678 24.4677 9.51318 24.4677 9.17958V8.72365L25.6613 8.12687V7.75806C25.6613 7.21261 25.5485 6.39384 25.3366 5.3459L25.5419 5.14061C26.3888 4.29439 26.8548 3.16827 26.8548 1.97115C26.8548 0.883823 25.971 0 24.8837 0C24.494 0 24.1156 0.114581 23.7904 0.33121C22.9436 0.895161 21.9589 1.19355 20.942 1.19355H19.169C18.1933 1.19355 17.276 1.57369 16.5861 2.26356C15.8963 2.95344 15.5161 3.87068 15.5161 4.8464C15.5161 6.10918 16.1189 7.31526 17.1292 8.07257L17.5887 8.4169C17.6585 8.99518 17.6138 9.583 17.4556 10.1452H12.2255C11.1095 10.1452 10.061 10.5796 9.27148 11.3685L5.44377 15.1963C5.01171 15.6283 4.77419 16.2018 4.77419 16.8117C4.77419 18.0721 5.79886 19.0968 7.05924 19.0968C7.66915 19.0968 8.24324 18.8593 8.67471 18.4272L12.1825 14.9194H14.2146L14.1316 15.4177L12.6886 24.0763L7.41671 20.7218C6.97271 20.4395 6.45948 20.2903 5.93373 20.2903C5.00753 20.2903 4.14818 20.7504 3.63436 21.5209L2.3316 23.4747C2.01471 23.9503 1.83986 24.497 1.80465 25.0645H1.19355C0.535306 25.0645 0 25.5998 0 26.2581V31.0323C0 31.6905 0.535306 32.2258 1.19355 32.2258H4.77419V35.8065C4.77419 36.4647 5.3095 37 5.96774 37H7.16129C7.81953 37 8.35484 36.4647 8.35484 35.8065V32.2258H28.6452V35.8065C28.6452 36.4647 29.1805 37 29.8387 37H31.0323C31.6905 37 32.2258 36.4647 32.2258 35.8065V32.2258H35.8065C36.4647 32.2258 37 31.6905 37 31.0323V26.2581C37 25.5998 36.4647 25.0645 35.8065 25.0645ZM26.5887 21.4648C26.8274 21.7041 27.016 21.9822 27.1485 22.2913L28.3372 25.0645H25.5831L25.2209 24.5215C24.9726 24.1497 24.5972 23.8853 24.1628 23.7773L24.0965 23.7606L24.9708 20.7009L25.1158 20.7224C25.6702 20.8053 26.1936 21.0697 26.5887 21.4648ZM14.717 19.1666L23.7809 20.5231L22.9382 23.4729L20.0635 22.7598C19.0777 22.4751 17.9742 22.9913 17.5625 23.896L17.051 24.9028L13.9806 23.5863L14.717 19.1666ZM18.6373 24.4134C18.7876 24.0834 19.1183 23.871 19.4805 23.871C19.5664 23.871 19.6518 23.8835 19.755 23.9121L23.8757 24.9356C23.9653 24.9583 24.0428 25.006 24.1121 25.0645H18.3072L18.6373 24.4134ZM28.8331 13.1117L31.1952 8.85971C31.3682 8.54819 31.6977 8.35484 32.0539 8.35484C32.529 8.35484 32.9151 8.74155 32.9151 9.21658C32.9151 9.34489 32.8858 9.47379 32.8303 9.58957L30.5948 14.2468C29.967 15.398 28.7627 16.1129 27.4516 16.1129H25.0645V13.7258H27.79C28.2226 13.7258 28.6225 13.4907 28.8331 13.1117ZM23.2742 7.98603V9.17958C23.2742 9.32877 23.239 9.47797 23.1721 9.61165C23.0074 9.94047 22.6768 10.1452 22.3086 10.1452H20.2903V11.3387H20.8871C20.8871 11.997 20.3518 12.5323 19.6936 12.5323C19.0353 12.5323 18.5 11.997 18.5 11.3387V10.8386L18.5388 10.7228C18.9195 9.58061 18.9195 8.32321 18.5388 7.18039C18.5131 7.1034 18.5 7.02344 18.5 6.94168C18.5 6.61644 18.7077 6.32879 19.0162 6.22555L23.2623 4.81C23.6221 4.68945 24.0279 4.90548 24.1067 5.27429C24.2917 6.14439 24.4105 6.87902 24.4516 7.39702L23.2742 7.98603ZM16.7097 4.8464C16.7097 4.18936 16.9657 3.57169 17.43 3.1074C17.8943 2.64311 18.5125 2.3871 19.169 2.3871H20.942C22.1952 2.3871 23.4091 2.01948 24.4522 1.32424C24.5805 1.2389 24.7297 1.19355 24.8837 1.19355C25.3128 1.19355 25.6613 1.54206 25.6613 1.97115C25.6613 2.78932 25.354 3.55439 24.8115 4.15892C24.4743 3.80265 24.0005 3.58065 23.486 3.58065C23.2814 3.58065 23.0791 3.61347 22.8845 3.67852L18.639 5.09406C17.9468 5.32442 17.4527 5.91642 17.3345 6.61823C16.937 6.11932 16.7097 5.4939 16.7097 4.8464ZM7.83087 17.5834C7.62439 17.7898 7.35047 17.9032 7.05924 17.9032C6.4571 17.9032 5.96774 17.4139 5.96774 16.8117C5.96774 16.5205 6.08113 16.2466 6.28761 16.0401L10.1153 12.2124C10.6095 11.7183 11.2492 11.433 11.9355 11.3668V13.7521C11.7111 13.7992 11.5046 13.909 11.3387 14.0749L7.83087 17.5834ZM13.129 13.7258V11.3387H17.3065C17.3065 12.6552 18.3771 13.7258 19.6936 13.7258C20.5195 13.7258 21.2481 13.3039 21.6766 12.6641L23.871 13.5342V16.1129H21.5913L21.0327 18.9046L14.9134 17.9898L15.4326 14.8752L15.6241 13.7258H13.129ZM12.8086 25.5682C12.9775 25.6756 13.1893 25.6923 13.3719 25.6094C13.5551 25.5276 13.6846 25.3599 13.7175 25.1624L13.7783 24.7984L16.5092 25.9692L16.0156 26.9408C15.4815 27.9917 14.4175 28.6452 13.2376 28.6452C12.5329 28.6452 11.8412 28.4029 11.291 27.9619L7.16368 24.6599L8.52552 22.8415L12.8086 25.5682ZM3.32523 24.1365L4.62798 22.1827C4.91921 21.7453 5.40797 21.4839 5.93373 21.4839C6.23271 21.4839 6.52394 21.5692 6.77637 21.7291L7.51577 22.1994L4.77419 25.86C4.5874 26.1095 4.28961 26.2581 3.97869 26.2581C3.43026 26.2581 2.98387 25.8117 2.98387 25.2632C2.98387 24.861 3.10203 24.4719 3.32523 24.1365ZM7.16129 35.8065H5.96774V32.2258H7.16129V35.8065ZM31.0323 35.8065H29.8387V32.2258H31.0323V35.8065ZM35.8065 31.0323H1.19355V26.2581H2.04037C2.40381 26.9635 3.13187 27.4516 3.9781 27.4516C4.66319 27.4516 5.31726 27.1246 5.72903 26.5761L6.44815 25.6165L10.5456 28.894C11.3065 29.5033 12.2625 29.8387 13.2376 29.8387C14.8692 29.8387 16.3415 28.9352 17.0797 27.4815L17.7009 26.2581H35.8065V31.0323Z" fill="#01A5EC"/>
</svg>
