<svg width="49" height="38" viewBox="0 0 49 38" fill="none" xmlns="http://www.w3.org/2000/svg">
<path d="M33.606 21.6538V21.3421C33.606 21.1568 33.4521 21.0052 33.2641 21.0052L32.8068 21.001C32.6187 21.001 32.4648 21.1526 32.4648 21.3379V21.6496C32.4648 21.8349 32.6187 21.9866 32.8068 21.9866L33.2641 21.9908C33.4478 21.9908 33.606 21.8392 33.606 21.6538Z" fill="#01A5EC"/>
<path d="M26.7946 12.5265L28.0725 12.7414C28.3289 12.7835 28.5725 12.615 28.6196 12.3623L28.6281 12.3075C28.6709 12.0548 28.4999 11.8147 28.2435 11.7684L26.9656 11.5536C26.7091 11.5114 26.4655 11.6799 26.4185 11.9326L26.41 11.9874C26.363 12.2443 26.5382 12.4844 26.7946 12.5265Z" fill="#01A5EC"/>
<path d="M29.6308 15.5466L30.0838 15.6224C30.2676 15.6561 30.4471 15.5298 30.477 15.3487L30.5326 15.0412C30.5625 14.8601 30.4385 14.6832 30.2548 14.6537L29.806 14.5779C29.6222 14.5484 29.4427 14.6705 29.4085 14.8517L29.3572 15.1591C29.323 15.3402 29.447 15.5129 29.6308 15.5466Z" fill="#01A5EC"/>
<path d="M28.1016 19.5055L27.6485 19.4297C27.4647 19.4002 27.2852 19.5223 27.2553 19.7035L27.1998 20.0109C27.1698 20.192 27.2938 20.369 27.4776 20.3984L27.9306 20.4742C28.1144 20.5037 28.2939 20.3816 28.3238 20.2005L28.3794 19.893C28.4135 19.7119 28.2853 19.5392 28.1016 19.5055Z" fill="#01A5EC"/>
<path d="M28.5 32.2553L28.047 32.1794C27.8632 32.15 27.6837 32.2721 27.6538 32.4532L27.5982 32.7607C27.5683 32.9418 27.6922 33.1187 27.876 33.1482L28.329 33.224C28.5128 33.2535 28.6923 33.1313 28.7222 32.9502L28.7778 32.6428C28.812 32.4616 28.688 32.2889 28.5 32.2553Z" fill="#01A5EC"/>
<path d="M32.9672 23.385H32.5099C32.3218 23.385 32.168 23.5366 32.168 23.722V24.0337C32.168 24.219 32.3218 24.3706 32.5099 24.3706H32.9672C33.1552 24.3706 33.3091 24.219 33.3091 24.0337V23.7178C33.3091 23.5366 33.1552 23.385 32.9672 23.385Z" fill="#01A5EC"/>
<path d="M28.338 25.4488L27.8807 25.453C27.6926 25.4572 27.5388 25.6089 27.5431 25.7942L27.5473 26.1059C27.5516 26.2912 27.7055 26.4428 27.8935 26.4386L28.3508 26.4344C28.5389 26.4344 28.6927 26.2786 28.6885 26.0932L28.6842 25.7816C28.6799 25.5962 28.526 25.4446 28.338 25.4488Z" fill="#01A5EC"/>
<path d="M30.4399 28.2162L29.9783 28.2204C29.7903 28.2246 29.6364 28.3762 29.6407 28.5615L29.645 28.8732C29.6493 29.0586 29.8031 29.2102 29.9912 29.206L30.4485 29.2018C30.6365 29.2018 30.7904 29.0459 30.7861 28.8606L30.7818 28.5489C30.7818 28.3636 30.628 28.2119 30.4399 28.2162Z" fill="#01A5EC"/>
<path d="M33.4749 17.1594L33.9279 17.2352C34.1117 17.2647 34.2912 17.1426 34.3211 16.9615L34.3767 16.654C34.4066 16.4729 34.2826 16.296 34.0989 16.2665L33.6458 16.1907C33.4621 16.1612 33.2826 16.2833 33.2526 16.4644L33.1971 16.7719C33.1629 16.953 33.2868 17.1299 33.4749 17.1594Z" fill="#01A5EC"/>
<path d="M28.3468 10.5974L28.7998 10.6732C28.9836 10.7069 29.1631 10.5806 29.193 10.3995L29.2486 10.092C29.2785 9.91086 29.1545 9.73396 28.9708 9.70447L28.522 9.62866C28.3382 9.59917 28.1587 9.72132 28.1245 9.90244L28.0732 10.2099C28.0348 10.391 28.163 10.5679 28.3468 10.5974Z" fill="#01A5EC"/>
<path d="M31.3404 13.5036L32.6183 13.7184C32.8747 13.7605 33.1183 13.592 33.1653 13.3393L33.1739 13.2846C33.2166 13.0318 33.0457 12.7918 32.7892 12.7454L31.5114 12.5306C31.2549 12.4885 31.0113 12.657 30.9643 12.9097L30.9558 12.9645C30.913 13.2172 31.084 13.4615 31.3404 13.5036Z" fill="#01A5EC"/>
<path d="M28.3449 17.9096C28.6013 17.9517 28.8449 17.7832 28.8919 17.5305L28.9005 17.4757C28.9432 17.223 28.7722 16.9829 28.5158 16.9366L27.2379 16.7218C26.9815 16.6797 26.7379 16.8481 26.6909 17.1009L26.6823 17.1556C26.6396 17.4083 26.8105 17.6484 27.067 17.6948L28.3449 17.9096Z" fill="#01A5EC"/>
<path d="M33.9661 18.7434L33.9747 18.6886C34.0174 18.4359 33.8465 18.1958 33.59 18.1495L32.3121 17.9347C32.0557 17.8926 31.8121 18.061 31.7651 18.3138L31.7565 18.3685C31.7138 18.6212 31.8848 18.8613 32.1412 18.9076L33.4191 19.1225C33.6755 19.1646 33.9234 18.9919 33.9661 18.7434Z" fill="#01A5EC"/>
<path d="M31.1576 21.1023C31.414 21.1233 31.6448 20.9338 31.6662 20.6769L31.6704 20.6179C31.6918 20.3652 31.4995 20.1377 31.2388 20.1167L29.9481 20.0114C29.6916 19.9903 29.4609 20.1798 29.4395 20.4368L29.4352 20.4957C29.4138 20.7527 29.6062 20.9759 29.8669 20.997L31.1576 21.1023Z" fill="#01A5EC"/>
<path d="M29.2124 23.7301L29.2166 23.6754C29.2252 23.4184 29.0243 23.2036 28.7636 23.191L27.4686 23.1405C27.2079 23.1278 26.99 23.33 26.9771 23.5869V23.6459C26.9643 23.9028 27.1695 24.1176 27.4302 24.1303L28.7251 24.1808C28.9816 24.185 29.2038 23.9871 29.2124 23.7301Z" fill="#01A5EC"/>
<path d="M33.8687 31.9729L32.578 32.0572C32.3173 32.074 32.1207 32.2972 32.1378 32.55L32.142 32.6089C32.1591 32.8659 32.3856 33.0596 32.6421 33.0428L33.9328 32.9585C34.1935 32.9417 34.3901 32.7184 34.373 32.4657L34.3687 32.4068C34.3516 32.154 34.1294 31.9561 33.8687 31.9729Z" fill="#01A5EC"/>
<path d="M31.9191 25.6299L31.9277 25.3688C31.9362 25.1708 31.7781 24.9981 31.5729 24.9897L30.9447 24.9644C30.7438 24.956 30.5686 25.1119 30.56 25.314L30.5472 25.5752C30.5387 25.7731 30.6968 25.9458 30.9019 25.9543L31.5302 25.9795C31.7396 25.988 31.9106 25.8279 31.9191 25.6299Z" fill="#01A5EC"/>
<path d="M32.4177 30.7685L33.0459 30.7937C33.2511 30.8022 33.422 30.6463 33.4306 30.4441L33.4391 30.183C33.4477 29.985 33.2896 29.8123 33.0844 29.8039L32.4561 29.7786C32.2553 29.7702 32.08 29.9261 32.0715 30.1282L32.0587 30.3894C32.0544 30.5916 32.2125 30.76 32.4177 30.7685Z" fill="#01A5EC"/>
<path d="M33.4943 28.0643C33.755 28.0769 33.973 27.8748 33.9858 27.6178L33.9901 27.5589C33.9986 27.3019 33.7978 27.0871 33.537 27.0745L32.2421 27.0239C31.9814 27.0155 31.7634 27.2135 31.7506 27.4704V27.5294C31.7377 27.7863 31.9429 28.0011 32.2036 28.0138L33.4943 28.0643Z" fill="#01A5EC"/>
<path d="M27.5401 30.1662L27.5444 30.2252C27.5615 30.4821 27.788 30.6758 28.0444 30.659L29.3351 30.5748C29.5958 30.5579 29.7924 30.3347 29.7753 30.082L29.7711 30.023C29.754 29.7661 29.5274 29.5723 29.271 29.5892L27.9803 29.6734C27.7196 29.6902 27.523 29.9093 27.5401 30.1662Z" fill="#01A5EC"/>
<path d="M24.1913 17.1513V7.91016L24.1016 7.93964V17.1597L24.1913 17.1513Z" fill="#01A5EC"/>
<path d="M24.8086 17.0839L24.8983 17.0712V7.93964L24.8086 7.91016V17.0839Z" fill="#01A5EC"/>
<path d="M24.1094 7.56914L24.4684 7.44699C24.5068 7.43436 24.5453 7.46384 24.5453 7.50175V17.1135L24.8103 17.084V7.91031L24.9 7.93979V7.49754C24.9 7.36696 24.8359 7.2406 24.7291 7.16479C24.7077 7.14794 24.6821 7.14794 24.6564 7.13531C24.5368 7.12688 24.4171 7.16058 24.3188 7.22797C24.2077 7.31642 24.135 7.43436 24.1094 7.56914Z" fill="#01A5EC"/>
<path d="M24.1019 7.93962L24.1917 7.91013V17.1512L24.5464 17.1133V7.50157C24.5464 7.46366 24.5079 7.43418 24.4695 7.44682L24.1105 7.56896C24.1062 7.59845 24.0977 7.62793 24.0977 7.65742V7.93962H24.1019Z" fill="#01A5EC"/>
<path d="M24.1016 36.2693L24.1913 36.2862V26.9777L24.1016 26.9692V36.2693Z" fill="#01A5EC"/>
<path d="M24.8086 27.0115V36.2863L24.8983 36.2694V27.0157L24.8086 27.0115Z" fill="#01A5EC"/>
<path d="M24.2717 36.9222C24.1819 36.8464 24.1306 36.7411 24.1136 36.6274L13.5657 34.6857V26.3501L13.2109 26.3291V25.6299V34.9763L24.4426 37.0444C24.464 37.0486 24.4854 37.0486 24.5067 37.0486C24.5538 37.0486 24.6008 37.0402 24.6435 37.0233C24.6221 37.0275 24.6008 37.0275 24.5794 37.0275C24.4683 37.0317 24.3614 36.9938 24.2717 36.9222Z" fill="#01A5EC"/>
<path d="M24.8993 36.8254V36.2694L24.8096 36.2863V27.0115L24.5446 26.9946V36.6611C24.5446 36.6822 24.5232 36.699 24.5018 36.6948L24.1172 36.6232C24.1343 36.737 24.1856 36.8423 24.2753 36.9181C24.3608 36.9897 24.4719 37.0276 24.583 37.0276C24.6044 37.0276 24.6258 37.0234 24.6471 37.0234C24.6899 37.0065 24.7283 36.9855 24.7668 36.956L24.8993 36.8254Z" fill="#01A5EC"/>
<path d="M24.1913 36.2863L24.1016 36.2695V36.5559C24.1016 36.5812 24.1144 36.6022 24.1187 36.6275L24.5033 36.6991C24.5247 36.7033 24.546 36.6865 24.546 36.6654V26.9947L24.1913 26.9736V36.2863Z" fill="#01A5EC"/>
<path d="M24.1913 26.2745V17.8547L24.1016 17.8674V26.2703L24.1913 26.2745Z" fill="#01A5EC"/>
<path d="M24.8086 17.7873V26.3124L24.8983 26.3166V27.0158V17.0713V17.7789L24.8086 17.7873Z" fill="#01A5EC"/>
<path d="M13.5657 19.0298L13.2109 19.0677V25.63L13.5657 25.651V19.0298Z" fill="#01A5EC"/>
<path d="M24.543 17.8168V26.2956L24.808 26.3124V17.7874L24.543 17.8168Z" fill="#01A5EC"/>
<path d="M24.1913 17.1511L24.1016 17.1595L24.1913 17.1511Z" fill="#01A5EC"/>
<path d="M24.8983 17.7789V17.0713L24.8086 17.0839V17.7873L24.8983 17.7789Z" fill="#01A5EC"/>
<path d="M13.5657 18.6758V18.3262L13.2109 18.3641V19.0675L13.5657 19.0296V18.6758Z" fill="#01A5EC"/>
<path d="M24.543 17.4628V17.8166L24.808 17.7871V17.0837L24.543 17.1132V17.4628Z" fill="#01A5EC"/>
<path d="M24.1913 17.1512L24.1016 17.1596V17.5134L24.546 17.4629V17.1133L24.1913 17.1512Z" fill="#01A5EC"/>
<path d="M24.1913 26.9777V26.9735L24.1016 26.9692L24.1913 26.9777Z" fill="#01A5EC"/>
<path d="M24.8983 26.3167L24.8086 26.3125V27.0117L24.8983 27.0159V26.3167Z" fill="#01A5EC"/>
<path d="M24.546 26.2954V26.645L24.1016 26.6197L24.546 26.645V26.9946L24.811 27.0115V26.3123L24.546 26.2954Z" fill="#01A5EC"/>
<path d="M24.1016 26.6196V26.9692L24.1913 26.9734V26.9776L24.546 26.9945V26.6449L24.1016 26.6196Z" fill="#01A5EC"/>
<path d="M13.9211 18.9875L13.5664 19.0297V25.6509L13.9211 25.672V18.9875Z" fill="#01A5EC"/>
<path d="M24.1016 17.8672L24.1913 17.8546V26.2743L24.1016 26.2701L24.546 26.2954V17.8167L24.1016 17.8672Z" fill="#01A5EC"/>
<path d="M24.546 17.4629L24.1016 17.5134V17.8672L24.546 17.8167V17.4629Z" fill="#01A5EC"/>
<path d="M24.546 17.4629L24.1016 17.5134L24.546 17.4629Z" fill="#01A5EC"/>
<path d="M24.7984 7.16443C24.7514 7.14758 24.7044 7.14337 24.6574 7.13916C24.683 7.1518 24.7086 7.1518 24.73 7.16864C24.8369 7.24446 24.901 7.36661 24.901 7.50139V7.94365L35.077 11.3806V34.3991L24.901 36.2735V36.8295L24.7642 36.96C24.73 36.9895 24.6873 37.0148 24.6445 37.0274C24.6531 37.0274 24.6616 37.0274 24.6702 37.0232L35.7865 34.9762V10.8794L24.7984 7.16443Z" fill="#01A5EC"/>
<path d="M24.3529 7.11387L13.2109 10.8752V19.0675V18.3641L13.5657 18.3262V18.68V19.0338L13.9204 18.9959V25.6761L13.5657 25.655L13.2109 25.634V26.3332L13.5657 26.3542V34.6898L24.1136 36.6315C24.1093 36.6062 24.0965 36.5852 24.0965 36.5599V36.2735V26.9692V26.6196V26.27V17.8671V17.5133V17.1637V7.93942V7.65301C24.0965 7.62352 24.1007 7.59404 24.1093 7.56455C24.1349 7.43398 24.2076 7.31184 24.3187 7.23181C24.417 7.16442 24.5367 7.13072 24.6563 7.13914C24.5623 7.09703 24.4555 7.08018 24.3529 7.11387Z" fill="#01A5EC"/>
<path d="M24.546 26.2953L24.1016 26.27V26.6196L24.546 26.6449V26.2953Z" fill="#01A5EC"/>
<path d="M3.51562 7.58154C3.03267 7.43833 2.50699 6.91605 2.07105 6.14525C2.00695 6.03153 1.86591 5.99362 1.75479 6.0568C1.63939 6.11998 1.60093 6.25898 1.66076 6.36849C2.15226 7.24458 2.77624 7.8469 3.37885 8.0238C3.40022 8.03222 3.42159 8.03222 3.44724 8.03222C3.56263 8.03222 3.66093 7.94798 3.67802 7.83426C3.69939 7.72475 3.62674 7.61524 3.51562 7.58154Z" fill="#01A5EC"/>
<path d="M5.2972 1.45304C5.19462 1.37722 5.04931 1.39828 4.96811 1.49937C4.89118 1.60046 4.91255 1.74788 5.01512 1.82369C5.39122 2.10589 5.68612 2.47655 5.86989 2.90196C6.01521 3.22207 6.09214 3.57167 6.09214 3.92547C6.09214 4.05183 6.19898 4.15713 6.3272 4.15713C6.45541 4.15713 6.56226 4.05183 6.56226 3.92547C6.56226 3.50849 6.47251 3.09992 6.30155 2.72084C6.08359 2.21962 5.73741 1.78157 5.2972 1.45304Z" fill="#01A5EC"/>
<path d="M4.52462 1.05318C4.27247 0.968939 4.01176 0.922607 3.74678 0.922607C3.61857 0.922607 3.51172 1.02791 3.51172 1.15427C3.51172 1.28063 3.61429 1.38593 3.74678 1.38593C3.96047 1.38593 4.17417 1.42383 4.37504 1.49123C4.49898 1.53335 4.63147 1.46595 4.67421 1.34802C4.71267 1.22587 4.64857 1.0953 4.52462 1.05318Z" fill="#01A5EC"/>
<path d="M8.20178 9.43042C7.71883 9.28721 7.19315 8.76492 6.75721 7.99413C6.6931 7.88041 6.55207 7.8425 6.44095 7.90568C6.32555 7.96886 6.28709 8.10786 6.3512 8.22158C6.84269 9.09346 7.46667 9.69999 8.06929 9.87689C8.15049 9.90216 8.23597 9.8811 8.30008 9.82634C8.36418 9.76738 8.38983 9.68314 8.36846 9.60311C8.34709 9.51887 8.28298 9.45569 8.20178 9.43042Z" fill="#01A5EC"/>
<path d="M9.98079 3.30216C9.87822 3.22634 9.72863 3.2474 9.6517 3.34849C9.57477 3.44958 9.59614 3.597 9.69872 3.67281C10.0748 3.9508 10.3697 4.32567 10.5535 4.75108C10.6988 5.07119 10.7757 5.42079 10.7757 5.77459C10.7757 5.90095 10.8826 6.00625 11.0108 6.00625C11.139 6.00625 11.2459 5.90095 11.2459 5.77459C11.2459 5.35761 11.1561 4.94904 10.9851 4.56997C10.7715 4.06453 10.4253 3.63069 9.98079 3.30216Z" fill="#01A5EC"/>
<path d="M9.21603 2.90181C8.96387 2.81757 8.70317 2.77124 8.43819 2.77124C8.30997 2.77124 8.20312 2.87654 8.20312 3.0029C8.20312 3.12926 8.30997 3.23456 8.43819 3.23456C8.65188 3.23456 8.86557 3.27247 9.06644 3.33986C9.19039 3.38198 9.32288 3.31459 9.36562 3.19665C9.40408 3.0745 9.3357 2.93972 9.21603 2.90181Z" fill="#01A5EC"/>
<path d="M8.43233 1.84906C7.95793 1.85327 7.48781 1.95015 7.06042 2.1439C6.45353 0.86767 5.17565 0.0379079 3.74818 0C1.75228 0 0 1.83643 0 3.92557C0 5.73251 1.26079 8.19232 2.91477 8.83675L2.81647 9.43064C2.80365 9.49803 2.82502 9.56542 2.86776 9.61597C2.9105 9.66651 2.97888 9.696 3.04726 9.696H3.42336L3.27378 10.134C3.11137 10.6058 3.18403 11.1281 3.4661 11.5408L3.64133 11.7978C3.8422 12.0926 3.89349 12.4633 3.77809 12.8044L3.52594 13.5458C3.48747 13.6679 3.55158 13.7985 3.67552 13.8406C3.79946 13.8827 3.93195 13.8153 3.97042 13.6932L4.2183 12.9519C4.38071 12.4801 4.30805 11.9578 4.02598 11.5451L3.85502 11.2881C3.65415 10.9933 3.60286 10.6226 3.71826 10.2815L3.91913 9.696H4.45336C4.52175 9.696 4.58585 9.66651 4.63287 9.61597C4.67988 9.56542 4.69697 9.49382 4.68415 9.43064L4.58585 8.84096C4.8722 8.72724 5.13718 8.57139 5.37652 8.38186C5.86801 9.35482 6.64585 10.3194 7.6032 10.69L7.5049 11.2797C7.49208 11.3471 7.51345 11.4145 7.55619 11.465C7.59893 11.5156 7.66731 11.5451 7.73569 11.5451H8.11179L7.9622 11.9831C7.7998 12.4548 7.87245 12.9771 8.15453 13.3899L8.32976 13.6468C8.34685 13.6763 8.36395 13.7016 8.38104 13.7311C8.42378 13.8069 8.50071 13.8532 8.58619 13.8532C8.62465 13.8532 8.66312 13.8448 8.69731 13.8237C8.8127 13.7606 8.85117 13.6216 8.79133 13.5121C8.76996 13.4699 8.74432 13.432 8.71868 13.3899L8.54345 13.133C8.34258 12.8381 8.29129 12.4633 8.40668 12.1263L8.60328 11.5408H9.13752C9.2059 11.5408 9.27001 11.5114 9.31702 11.4608C9.35976 11.4103 9.38113 11.3387 9.3683 11.2755L9.27001 10.69C9.941 10.4331 10.5778 9.86448 11.1206 9.03471C11.7659 8.05753 12.1335 6.92872 12.1805 5.76621C12.1805 3.67706 10.4282 1.84906 8.43233 1.84906ZM3.32079 9.23689L3.36353 8.97153C3.37635 8.97575 3.38917 8.97575 3.40627 8.97575C3.41909 8.97996 3.44046 8.97996 3.45755 8.98417C3.55158 8.99681 3.6456 9.00523 3.7439 9.00523H3.75245C3.84648 9.00523 3.94477 8.99681 4.0388 8.98417C4.05589 8.97996 4.07299 8.97996 4.09009 8.97575C4.10718 8.97153 4.11573 8.97153 4.13282 8.97153L4.17556 9.23689H3.32079ZM5.29104 7.83851C5.00042 8.12492 4.64141 8.33974 4.24822 8.47031C4.00461 8.54612 3.7439 8.56297 3.49174 8.52506C3.40627 8.51243 3.32079 8.49558 3.23959 8.47031C1.70527 8.0112 0.470125 5.61037 0.470125 3.92557C0.470125 2.08072 2.00444 0.463319 3.75245 0.463319C5.00897 0.463319 6.18 1.27623 6.73561 2.53983C6.9322 2.97788 7.03478 3.44962 7.03478 3.92557C7.03478 4.09405 7.02195 4.26674 7.00058 4.43522C6.97494 4.6374 6.9322 4.83536 6.88519 5.03333C6.61594 6.09053 6.06888 7.05929 5.29104 7.83851ZM8.00922 11.086L8.05196 10.8206C8.0776 10.8248 8.10324 10.829 8.13316 10.8332C8.15453 10.8374 8.1759 10.8374 8.19727 10.8417C8.2742 10.8501 8.3554 10.8543 8.43233 10.8543H8.44088C8.56482 10.8543 8.69303 10.8417 8.81698 10.8206L8.86399 11.086H8.00922ZM10.7274 8.78621C10.1974 9.59912 9.56063 10.134 8.92382 10.3194C8.85117 10.3404 8.77424 10.3573 8.70158 10.3699L8.67167 10.3741C8.51781 10.3952 8.3554 10.3952 8.20154 10.3741C8.18017 10.3699 8.16307 10.3657 8.14171 10.3615C8.0776 10.3531 8.01349 10.3362 7.94938 10.3194C7.00059 10.0498 6.21419 9.04735 5.73552 8.05753C5.74834 8.0449 5.76117 8.02805 5.77826 8.01541C5.80818 7.98593 5.83809 7.95223 5.86374 7.92275C5.89793 7.88484 5.93212 7.84693 5.96631 7.80903C5.99623 7.77533 6.02187 7.74163 6.05179 7.70794C6.08598 7.67003 6.1159 7.62791 6.15009 7.58579C6.17573 7.55209 6.20565 7.51419 6.23129 7.47628C6.26121 7.43416 6.29112 7.39204 6.32104 7.34992C6.34668 7.31201 6.37233 7.2741 6.39797 7.23619C6.42789 7.19408 6.4578 7.14774 6.48345 7.10141C6.50909 7.0635 6.53473 7.02138 6.5561 6.97926C6.58175 6.93293 6.61166 6.8866 6.63731 6.84027C6.65868 6.79815 6.68432 6.75603 6.70996 6.71391C6.73561 6.66758 6.76125 6.62124 6.78262 6.5707C6.80399 6.52858 6.82536 6.48646 6.84673 6.44013C6.8681 6.3938 6.89374 6.34325 6.91511 6.29271C6.93648 6.25059 6.95357 6.20426 6.97494 6.16214C6.99631 6.11159 7.01768 6.06105 7.03905 6.01051C7.05614 5.96839 7.07324 5.92205 7.09034 5.87993C7.11171 5.82939 7.1288 5.77885 7.1459 5.7283C7.16299 5.68618 7.17581 5.63985 7.19291 5.59773C7.21 5.54719 7.2271 5.49664 7.23992 5.44189C7.25274 5.39977 7.26556 5.35344 7.27839 5.31132C7.29121 5.26077 7.3083 5.20602 7.32112 5.15547C7.33395 5.11335 7.34249 5.07123 7.35532 5.02911C7.36814 4.97436 7.37669 4.92381 7.38951 4.86906C7.39805 4.82694 7.4066 4.78482 7.41515 4.74691C7.4237 4.69215 7.43224 4.6374 7.44079 4.58264C7.44507 4.54473 7.45361 4.50683 7.45789 4.46892C7.46644 4.40995 7.47071 4.34677 7.47498 4.2878C7.47926 4.25832 7.48353 4.22462 7.48353 4.19514C7.48781 4.10669 7.49208 4.01402 7.49208 3.92978C7.49208 3.80342 7.48353 3.68128 7.47071 3.55492C7.46644 3.5128 7.45789 3.47489 7.45361 3.43277C7.44079 3.34853 7.42797 3.26429 7.41515 3.18426C7.4066 3.13793 7.39378 3.08739 7.38096 3.04105C7.36386 2.96524 7.34249 2.88942 7.32112 2.81361C7.3083 2.76306 7.29121 2.71673 7.27411 2.66619C7.26556 2.62828 7.25702 2.59458 7.2442 2.56089C7.61602 2.39662 8.01776 2.31238 8.42805 2.31238H8.43233C10.1761 2.31238 11.7104 3.92557 11.7147 5.77042C11.6676 6.84027 11.3257 7.88484 10.7274 8.78621Z" fill="#01A5EC"/>
<path d="M47.2429 6.05689C47.1275 5.99371 46.9864 6.03583 46.9223 6.14534C46.4907 6.91614 45.965 7.43842 45.4778 7.58163C45.3666 7.61533 45.294 7.72484 45.3111 7.83435C45.3282 7.94807 45.4265 8.03231 45.5419 8.03231C45.5632 8.03231 45.5889 8.0281 45.6103 8.02389C46.2086 7.84699 46.8369 7.24467 47.3283 6.36858C47.3967 6.25907 47.354 6.12007 47.2429 6.05689Z" fill="#01A5EC"/>
<path d="M43.7065 1.45312C43.2663 1.78166 42.9201 2.2197 42.7021 2.71672C42.5312 3.0958 42.4414 3.50857 42.4414 3.92135C42.4414 4.04771 42.5483 4.15301 42.6765 4.15301C42.8047 4.15301 42.9115 4.04771 42.9115 3.92135C42.9158 3.56754 42.9885 3.22216 43.1338 2.89783C43.3175 2.47242 43.6124 2.09756 43.9885 1.81957C44.0911 1.74375 44.1125 1.59633 44.0356 1.49524C43.9586 1.39415 43.809 1.37731 43.7065 1.45312Z" fill="#01A5EC"/>
<path d="M45.4839 1.15427C45.4839 1.02791 45.3771 0.922607 45.2489 0.922607C44.9839 0.922607 44.7189 0.968939 44.471 1.05318C44.3471 1.0953 44.283 1.22587 44.3257 1.34802C44.3685 1.47017 44.501 1.53335 44.6249 1.49123C44.8258 1.42383 45.0395 1.38593 45.2532 1.38593C45.3814 1.38593 45.4839 1.28063 45.4839 1.15427Z" fill="#01A5EC"/>
<path d="M42.5556 7.90577C42.4445 7.84259 42.2992 7.88471 42.2394 7.99422C41.8077 8.76501 41.282 9.2873 40.7948 9.43051C40.7136 9.45157 40.6495 9.51896 40.6324 9.59899C40.611 9.67901 40.6367 9.76325 40.7008 9.82222C40.7649 9.87698 40.8504 9.89804 40.9316 9.87277C41.5299 9.69586 42.1582 9.09355 42.6496 8.21746C42.7095 8.10794 42.671 7.96474 42.5556 7.90577Z" fill="#01A5EC"/>
<path d="M39.0151 3.3022C38.5749 3.63073 38.2287 4.06878 38.0107 4.56579C37.8398 4.94487 37.75 5.35765 37.75 5.77042C37.75 5.89678 37.8526 6.00208 37.9851 6.00208C38.1133 6.00208 38.2201 5.89678 38.2201 5.77042C38.2201 5.41662 38.2971 5.07123 38.4424 4.74691C38.6261 4.3215 38.921 3.94663 39.2971 3.66864C39.3997 3.59283 39.4211 3.44541 39.3442 3.34432C39.2672 3.24744 39.1176 3.22638 39.0151 3.3022Z" fill="#01A5EC"/>
<path d="M40.7964 3.0029C40.7964 2.87654 40.6896 2.77124 40.5614 2.77124C40.2964 2.77124 40.0314 2.81757 39.7835 2.90181C39.6596 2.94393 39.5955 3.0745 39.6382 3.19665C39.681 3.3188 39.8135 3.38198 39.9374 3.33986C40.1383 3.27247 40.352 3.23456 40.5657 3.23456C40.6896 3.23456 40.7964 3.12926 40.7964 3.0029Z" fill="#01A5EC"/>
<path d="M49.0012 3.92557C49.0012 1.83643 47.2489 0 45.253 0C43.8255 0.0379079 42.5477 0.867669 41.945 2.13969C41.5134 1.94594 41.0475 1.84906 40.5731 1.84485H40.5689C38.573 1.84485 36.8207 3.67285 36.8164 5.762C36.8634 6.92872 37.231 8.05753 37.8763 9.0305C38.4191 9.86448 39.0559 10.4289 39.7269 10.6858L39.6286 11.2713C39.6158 11.3387 39.6372 11.4061 39.6799 11.4566C39.7226 11.5072 39.791 11.5366 39.8594 11.5366H40.3936L40.5902 12.1221C40.7056 12.4591 40.6543 12.8339 40.4535 13.1288L40.2782 13.3857C40.2526 13.4236 40.2269 13.4657 40.2056 13.5036C40.1457 13.6174 40.1842 13.7564 40.2996 13.8153C40.3338 13.8322 40.3723 13.8448 40.4107 13.8448C40.4962 13.8448 40.5774 13.7985 40.6159 13.7227C40.633 13.6932 40.6501 13.6637 40.6672 13.6384L40.8424 13.3815C41.1245 12.9687 41.1971 12.4464 41.0347 11.9747L40.8851 11.5366H41.2612C41.3296 11.5366 41.3937 11.5072 41.4407 11.4566C41.4877 11.4061 41.5048 11.3345 41.492 11.2713L41.3937 10.6816C42.3511 10.3067 43.1289 9.34219 43.6204 8.36922C43.8597 8.56297 44.1247 8.7146 44.4111 8.82833L44.3128 9.418C44.2999 9.4854 44.3213 9.55279 44.364 9.60333C44.4068 9.65388 44.4752 9.68336 44.5435 9.68336H45.0778L45.2787 10.2688C45.394 10.6058 45.3428 10.9764 45.1419 11.2755L44.9667 11.5324C44.6846 11.9452 44.6119 12.4675 44.7743 12.9392L45.0222 13.6847C45.0607 13.8069 45.1974 13.8701 45.3171 13.8322C45.4411 13.7943 45.5052 13.6595 45.4667 13.5415L45.2145 12.8002C45.0991 12.4633 45.1504 12.0926 45.3513 11.7936L45.5265 11.5366C45.8086 11.1239 45.8813 10.6016 45.7189 10.1298L45.5693 9.69178H45.9454C46.0138 9.69178 46.0779 9.6623 46.1249 9.61176C46.1719 9.56121 46.189 9.48961 46.1762 9.42643L46.0779 8.83254C47.7404 8.19232 49.0012 5.73251 49.0012 3.92557ZM40.1372 11.0817L40.1842 10.8164C40.3081 10.8374 40.4321 10.8501 40.5603 10.8501H40.5689C40.6501 10.8501 40.727 10.8459 40.8039 10.8374C40.8253 10.8332 40.8467 10.8332 40.868 10.829C40.8937 10.8248 40.9193 10.8206 40.9492 10.8164L40.992 11.0817H40.1372ZM41.0518 10.3194C40.9877 10.3362 40.9236 10.3531 40.8595 10.3615C40.8381 10.3657 40.821 10.3699 40.7996 10.3699C40.6415 10.391 40.4834 10.391 40.3295 10.3699L40.2996 10.3657C40.2227 10.3531 40.15 10.3362 40.0774 10.3152C39.4406 10.1298 38.8038 9.59491 38.2738 8.78199C37.6755 7.88063 37.3335 6.84027 37.2865 5.762C37.2908 3.91715 38.8251 2.30396 40.5689 2.30396H40.5731C40.9834 2.30396 41.3852 2.3882 41.757 2.55246C41.7442 2.58616 41.7356 2.61986 41.7228 2.65776C41.7057 2.7041 41.6886 2.75464 41.6758 2.80518C41.6544 2.881 41.633 2.95682 41.616 3.03263C41.6031 3.07896 41.5903 3.12951 41.5818 3.17584C41.5647 3.26008 41.5518 3.34432 41.5433 3.42435C41.539 3.46647 41.5305 3.50437 41.5262 3.54649C41.5134 3.67285 41.5048 3.795 41.5048 3.92136C41.5048 4.00981 41.5091 4.09826 41.5134 4.18672C41.5177 4.2162 41.5177 4.2499 41.5219 4.27938C41.5262 4.33835 41.5305 4.40153 41.539 4.46049C41.5433 4.4984 41.5518 4.53631 41.5561 4.57422C41.5647 4.62897 41.5732 4.68373 41.5818 4.73849C41.5903 4.78061 41.5989 4.81851 41.6074 4.86063C41.616 4.91539 41.6288 4.96593 41.6416 5.02069C41.6501 5.06281 41.663 5.10493 41.6758 5.14705C41.6886 5.19759 41.7014 5.25235 41.7185 5.30289C41.7313 5.34501 41.7442 5.39134 41.757 5.43346C41.7741 5.48401 41.7869 5.53876 41.804 5.58931C41.8168 5.63564 41.8339 5.67776 41.851 5.72409C41.8681 5.77463 41.8895 5.82518 41.9066 5.87572C41.9237 5.91784 41.9408 5.96417 41.9579 6.00629C41.9792 6.05684 42.0006 6.10738 42.022 6.15793C42.0433 6.20005 42.0604 6.24638 42.0818 6.2885C42.1032 6.33904 42.1288 6.38537 42.1502 6.43592C42.1716 6.47804 42.1929 6.52016 42.2143 6.56649C42.2399 6.61282 42.2656 6.66336 42.2869 6.7097C42.3126 6.75182 42.334 6.79394 42.3596 6.83606C42.3852 6.88239 42.4109 6.92872 42.4408 6.97505C42.4665 7.01717 42.4878 7.05508 42.5135 7.0972C42.5434 7.14353 42.569 7.18565 42.5989 7.23198C42.6246 7.26989 42.6502 7.3078 42.6759 7.34571C42.7058 7.38783 42.7357 7.42995 42.7656 7.47207C42.7913 7.50997 42.8212 7.54367 42.8468 7.58158C42.8767 7.6237 42.9109 7.66161 42.9451 7.70373C42.975 7.73742 43.0007 7.77112 43.0306 7.80481C43.0648 7.84272 43.099 7.88063 43.1332 7.91854C43.1631 7.94802 43.193 7.98172 43.2187 8.0112C43.2315 8.02384 43.2443 8.04068 43.2614 8.05332C42.787 9.04735 42.0006 10.0498 41.0518 10.3194ZM44.8256 9.23689L44.8684 8.97153C44.8812 8.97575 44.894 8.97575 44.9111 8.97575C44.9282 8.97996 44.9453 8.97996 44.9624 8.98417C45.0564 8.99681 45.1504 9.00523 45.2487 9.00523H45.2573C45.3513 9.00523 45.4496 8.99681 45.5436 8.98417C45.5607 8.97996 45.5821 8.97996 45.5949 8.97575C45.6077 8.97153 45.6206 8.97153 45.6377 8.97153L45.6804 9.23689H44.8256ZM45.7573 8.47031C45.6761 8.49558 45.5906 8.51243 45.5052 8.52506C45.253 8.56297 44.9923 8.54191 44.7487 8.47031C44.3555 8.34395 44.0008 8.12914 43.7059 7.83851C42.9323 7.0635 42.381 6.09053 42.1203 5.03333C42.069 4.83536 42.0305 4.6374 42.0049 4.43522C41.9835 4.26674 41.9707 4.09826 41.9707 3.92557C41.9707 3.44541 42.0733 2.97366 42.2699 2.53562C42.8212 1.27623 43.9922 0.459107 45.2487 0.459107C46.9967 0.459107 48.5311 2.07651 48.5311 3.92136C48.5311 5.61037 47.2916 8.0112 45.7573 8.47031Z" fill="#01A5EC"/>
</svg>
