<svg width="49" height="37" viewBox="0 0 49 37" fill="none" xmlns="http://www.w3.org/2000/svg">
<path d="M27.0199 24.7402H26.5583C26.2847 24.7402 26.0625 24.9611 26.0625 25.233C26.0625 25.5049 26.2847 25.7258 26.5583 25.7258H27.0199C27.2934 25.7258 27.5156 25.5049 27.5156 25.233C27.5156 24.9611 27.2934 24.7402 27.0199 24.7402Z" fill="#01A5EC"/>
<path d="M30.4613 24.6213H29.9997C29.7261 24.6213 29.5039 24.8422 29.5039 25.1141C29.5039 25.386 29.7261 25.6069 29.9997 25.6069H30.4613C30.7348 25.6069 30.957 25.386 30.957 25.1141C30.957 24.8422 30.7348 24.6213 30.4613 24.6213Z" fill="#01A5EC"/>
<path d="M33.3675 24.6213H32.9059C32.6324 24.6213 32.4102 24.8422 32.4102 25.1141C32.4102 25.386 32.6324 25.6069 32.9059 25.6069H33.3675C33.641 25.6069 33.8633 25.386 33.8633 25.1141C33.8675 24.8422 33.641 24.6213 33.3675 24.6213Z" fill="#01A5EC"/>
<path d="M31.7855 22.7861H31.3239C31.0504 22.7861 30.8281 23.007 30.8281 23.2789C30.8281 23.5508 31.0504 23.7717 31.3239 23.7717H31.7855C32.059 23.7717 32.2812 23.5508 32.2812 23.2789C32.2812 23.007 32.059 22.7861 31.7855 22.7861Z" fill="#01A5EC"/>
<path d="M28.8245 22.697H28.363C28.0894 22.697 27.8672 22.9179 27.8672 23.1898C27.8672 23.4617 28.0894 23.6826 28.363 23.6826H28.8245C29.0981 23.6826 29.3203 23.4617 29.3203 23.1898C29.3203 22.9179 29.0981 22.697 28.8245 22.697Z" fill="#01A5EC"/>
<path d="M26.9609 20.8448C26.9609 20.5729 26.7387 20.3521 26.4652 20.3521H26.0036C25.7301 20.3521 25.5078 20.5729 25.5078 20.8448C25.5078 21.1167 25.7301 21.3376 26.0036 21.3376H26.4652C26.7387 21.3376 26.9609 21.1167 26.9609 20.8448Z" fill="#01A5EC"/>
<path d="M27.1253 17.5061H26.6637C26.3902 17.5061 26.168 17.727 26.168 17.9989C26.168 18.2707 26.3902 18.4916 26.6637 18.4916H27.1253C27.3988 18.4916 27.6211 18.2707 27.6211 17.9989C27.6211 17.727 27.3988 17.5061 27.1253 17.5061Z" fill="#01A5EC"/>
<path d="M26.1136 14.541C26.3871 14.541 26.6094 14.3201 26.6094 14.0482C26.6094 13.7763 26.3871 13.5554 26.1136 13.5554H25.652C25.3785 13.5554 25.1562 13.7763 25.1562 14.0482C25.1562 14.3201 25.3785 14.541 25.652 14.541H26.1136Z" fill="#01A5EC"/>
<path d="M29.4723 14.8256H29.9339C30.2074 14.8256 30.4297 14.6047 30.4297 14.3329C30.4297 14.061 30.2074 13.8401 29.9339 13.8401H29.4723C29.1988 13.8401 28.9766 14.061 28.9766 14.3329C28.9766 14.6047 29.1988 14.8256 29.4723 14.8256Z" fill="#01A5EC"/>
<path d="M28.3398 12.077C28.3398 11.8051 28.1176 11.5842 27.8441 11.5842H27.3825C27.109 11.5842 26.8867 11.8051 26.8867 12.077C26.8867 12.3489 27.109 12.5698 27.3825 12.5698H27.8441C28.1176 12.5698 28.3398 12.3489 28.3398 12.077Z" fill="#01A5EC"/>
<path d="M25.7575 9.2522C25.484 9.2522 25.2617 9.47309 25.2617 9.74496C25.2617 10.0168 25.484 10.2377 25.7575 10.2377H26.2191C26.4926 10.2377 26.7148 10.0168 26.7148 9.74496C26.7148 9.47309 26.4926 9.2522 26.2191 9.2522H25.7575Z" fill="#01A5EC"/>
<path d="M27.0817 8.58954H27.5433C27.8168 8.58954 28.0391 8.36864 28.0391 8.09677C28.0391 7.8249 27.8168 7.604 27.5433 7.604H27.0817C26.8082 7.604 26.5859 7.8249 26.5859 8.09677C26.5859 8.36864 26.8082 8.58954 27.0817 8.58954Z" fill="#01A5EC"/>
<path d="M25.5817 6.78827H26.0433C26.3168 6.78827 26.5391 6.56737 26.5391 6.2955C26.5391 6.02363 26.3168 5.80273 26.0433 5.80273H25.5817C25.3082 5.80273 25.0859 6.02363 25.0859 6.2955C25.0859 6.56737 25.3082 6.78827 25.5817 6.78827Z" fill="#01A5EC"/>
<path d="M30.7966 18.6699H31.2581C31.5317 18.6699 31.7539 18.449 31.7539 18.1771C31.7539 17.9052 31.5317 17.6843 31.2581 17.6843H30.7966C30.523 17.6843 30.3008 17.9052 30.3008 18.1771C30.3008 18.449 30.523 18.6699 30.7966 18.6699Z" fill="#01A5EC"/>
<path d="M28.9294 16.4738H29.391C29.6645 16.4738 29.8868 16.2529 29.8868 15.981C29.8868 15.7092 29.6645 15.4883 29.391 15.4883H28.9294C28.6559 15.4883 28.4337 15.7092 28.4337 15.981C28.4294 16.2529 28.6559 16.4738 28.9294 16.4738Z" fill="#01A5EC"/>
<path d="M29.4851 19.4941H29.0192C28.7457 19.4941 28.5234 19.715 28.5234 19.9869C28.5234 20.2588 28.7457 20.4797 29.0192 20.4797H29.4808C29.7543 20.4797 29.9766 20.2588 29.9766 19.9869C29.9808 19.715 29.7586 19.4941 29.4851 19.4941Z" fill="#01A5EC"/>
<path d="M32.7812 21.274C32.7812 21.0021 32.559 20.7812 32.2855 20.7812H31.8239C31.5504 20.7812 31.3281 21.0021 31.3281 21.274C31.3281 21.5459 31.5504 21.7668 31.8239 21.7668H32.2855C32.5547 21.7668 32.7812 21.5459 32.7812 21.274Z" fill="#01A5EC"/>
<path d="M28.9886 20.9382H28.527C28.2535 20.9382 28.0312 21.1591 28.0312 21.431C28.0312 21.7029 28.2535 21.9238 28.527 21.9238H28.9886C29.2621 21.9238 29.4844 21.7029 29.4844 21.431C29.4844 21.1634 29.2621 20.9382 28.9886 20.9382Z" fill="#01A5EC"/>
<path d="M22.1989 24.7402H22.6605C22.934 24.7402 23.1562 24.9611 23.1562 25.233C23.1562 25.5049 22.934 25.7258 22.6605 25.7258H22.1989C21.9254 25.7258 21.7031 25.5049 21.7031 25.233C21.7031 24.9611 21.9254 24.7402 22.1989 24.7402Z" fill="#01A5EC"/>
<path d="M18.7575 24.6213H19.2191C19.4926 24.6213 19.7148 24.8422 19.7148 25.1141C19.7148 25.386 19.4926 25.6069 19.2191 25.6069H18.7575C18.484 25.6069 18.2617 25.386 18.2617 25.1141C18.2617 24.8422 18.484 24.6213 18.7575 24.6213Z" fill="#01A5EC"/>
<path d="M15.8513 24.6213H16.3129C16.5864 24.6213 16.8086 24.8422 16.8086 25.1141C16.8086 25.386 16.5864 25.6069 16.3129 25.6069H15.8513C15.5778 25.6069 15.3555 25.386 15.3555 25.1141C15.3513 24.8422 15.5735 24.6213 15.8513 24.6213Z" fill="#01A5EC"/>
<path d="M17.4333 22.7861H17.8948C18.1684 22.7861 18.3906 23.007 18.3906 23.2789C18.3906 23.5508 18.1684 23.7717 17.8948 23.7717H17.4333C17.1597 23.7717 16.9375 23.5508 16.9375 23.2789C16.9375 23.007 17.1597 22.7861 17.4333 22.7861Z" fill="#01A5EC"/>
<path d="M20.3942 22.697H20.8558C21.1293 22.697 21.3516 22.9179 21.3516 23.1898C21.3516 23.4617 21.1293 23.6826 20.8558 23.6826H20.3942C20.1207 23.6826 19.8984 23.4617 19.8984 23.1898C19.8984 22.9179 20.1207 22.697 20.3942 22.697Z" fill="#01A5EC"/>
<path d="M22.2578 20.8448C22.2578 20.5729 22.4801 20.3521 22.7536 20.3521H23.2152C23.4887 20.3521 23.7109 20.5729 23.7109 20.8448C23.7109 21.1167 23.4887 21.3376 23.2152 21.3376H22.7536C22.4801 21.3376 22.2578 21.1167 22.2578 20.8448Z" fill="#01A5EC"/>
<path d="M22.0895 17.5061H22.5511C22.8246 17.5061 23.0469 17.727 23.0469 17.9989C23.0469 18.2707 22.8246 18.4916 22.5511 18.4916H22.0895C21.816 18.4916 21.5938 18.2707 21.5938 17.9989C21.5938 17.727 21.816 17.5061 22.0895 17.5061Z" fill="#01A5EC"/>
<path d="M23.1051 14.541C22.8316 14.541 22.6094 14.3201 22.6094 14.0482C22.6094 13.7763 22.8316 13.5554 23.1051 13.5554H23.5667C23.8402 13.5554 24.0625 13.7763 24.0625 14.0482C24.0625 14.3201 23.8402 14.541 23.5667 14.541H23.1051Z" fill="#01A5EC"/>
<path d="M19.7464 14.8256H19.2848C19.0113 14.8256 18.7891 14.6047 18.7891 14.3329C18.7891 14.061 19.0113 13.8401 19.2848 13.8401H19.7464C20.0199 13.8401 20.2422 14.061 20.2422 14.3329C20.2422 14.6047 20.0199 14.8256 19.7464 14.8256Z" fill="#01A5EC"/>
<path d="M20.8789 12.077C20.8789 11.8051 21.1011 11.5842 21.3747 11.5842H21.8363C22.1098 11.5842 22.332 11.8051 22.332 12.077C22.332 12.3489 22.1098 12.5698 21.8363 12.5698H21.3747C21.1011 12.5698 20.8789 12.3489 20.8789 12.077Z" fill="#01A5EC"/>
<path d="M23.4577 9.2522C23.7312 9.2522 23.9535 9.47309 23.9535 9.74496C23.9535 10.0168 23.7312 10.2377 23.4577 10.2377H22.9919C22.7183 10.2377 22.4961 10.0168 22.4961 9.74496C22.4961 9.47309 22.7183 9.2522 22.9919 9.2522H23.4577Z" fill="#01A5EC"/>
<path d="M22.1331 8.58954H21.6716C21.398 8.58954 21.1758 8.36864 21.1758 8.09677C21.1758 7.8249 21.398 7.604 21.6716 7.604H22.1331C22.4067 7.604 22.6289 7.8249 22.6289 8.09677C22.6289 8.36864 22.4067 8.58954 22.1331 8.58954Z" fill="#01A5EC"/>
<path d="M23.6331 6.78827H23.1716C22.898 6.78827 22.6758 6.56737 22.6758 6.2955C22.6758 6.02363 22.898 5.80273 23.1716 5.80273H23.6331C23.9067 5.80273 24.1289 6.02363 24.1289 6.2955C24.1289 6.56737 23.9067 6.78827 23.6331 6.78827Z" fill="#01A5EC"/>
<path d="M18.4183 18.6699H17.9567C17.6832 18.6699 17.4609 18.449 17.4609 18.1771C17.4609 17.9052 17.6832 17.6843 17.9567 17.6843H18.4183C18.6918 17.6843 18.9141 17.9052 18.9141 18.1771C18.9141 18.449 18.6918 18.6699 18.4183 18.6699Z" fill="#01A5EC"/>
<path d="M20.2894 16.4738H19.8278C19.5543 16.4738 19.332 16.2529 19.332 15.981C19.332 15.7092 19.5543 15.4883 19.8278 15.4883H20.2894C20.5629 15.4883 20.7852 15.7092 20.7852 15.981C20.7894 16.2529 20.5629 16.4738 20.2894 16.4738Z" fill="#01A5EC"/>
<path d="M19.7341 19.4941H20.1956C20.4692 19.4941 20.6914 19.715 20.6914 19.9869C20.6914 20.2588 20.4692 20.4797 20.1956 20.4797H19.7341C19.4605 20.4797 19.2383 20.2588 19.2383 19.9869C19.2383 19.715 19.4605 19.4941 19.7341 19.4941Z" fill="#01A5EC"/>
<path d="M16.4375 21.274C16.4375 21.0021 16.6597 20.7812 16.9333 20.7812H17.3948C17.6684 20.7812 17.8906 21.0021 17.8906 21.274C17.8906 21.5459 17.6684 21.7668 17.3948 21.7668H16.9333C16.6597 21.7668 16.4375 21.5459 16.4375 21.274Z" fill="#01A5EC"/>
<path d="M20.2301 20.9382H20.6917C20.9653 20.9382 21.1875 21.1591 21.1875 21.431C21.1875 21.7029 20.9653 21.9238 20.6917 21.9238H20.2301C19.9566 21.9238 19.7344 21.7029 19.7344 21.431C19.7344 21.1634 19.9566 20.9382 20.2301 20.9382Z" fill="#01A5EC"/>
<path d="M45.5825 27.1489L45.3047 25.3647C45.2235 24.838 44.9329 24.3749 44.497 24.0648C44.4072 24.0011 44.3132 23.9501 44.2192 23.9034L44.2234 23.8482C44.2619 23.228 43.7832 22.6927 43.1592 22.6545L38.2998 22.3656C37.6759 22.3274 37.1373 22.8032 37.0989 23.4234L37.0134 24.8464L36.5305 24.9357L36.6245 23.3512C36.6629 22.7309 36.1843 22.1957 35.5603 22.1575L34.5132 22.0938L28.1836 5.95138C27.6194 4.51981 26.3586 3.598 24.8414 3.4918V3.48755H24.5508H24.2602V3.49604C22.7429 3.60224 21.4779 4.52406 20.918 5.95563L14.5884 22.098L13.5156 22.1617C12.8916 22.1999 12.413 22.7352 12.4514 23.3554L12.5497 24.9824L12.0668 24.8932L11.9685 23.4234C11.93 22.8032 11.3915 22.3274 10.7675 22.3656L5.90812 22.6545C5.28414 22.6927 4.80546 23.2237 4.84393 23.8482L4.8482 23.8949C4.72853 23.9459 4.61314 24.0096 4.50202 24.0903C4.06181 24.4004 3.77546 24.8634 3.68998 25.3987L3.41218 27.1659C3.27969 27.357 3.20703 27.5949 3.20703 27.8413V32.0765C3.20703 32.6712 3.63442 33.1895 4.22421 33.3L22.2643 36.7791C23.0036 36.9235 23.7516 36.9957 24.4995 36.9957C25.2474 36.9957 25.9953 36.9235 26.7347 36.7791L44.7748 33.3C45.3646 33.1853 45.7919 32.6712 45.7919 32.0765V27.8413C45.7962 27.5907 45.7193 27.3485 45.5825 27.1489ZM37.71 25.3095L43.0994 24.3112C43.1849 24.2942 43.2704 24.2857 43.3558 24.2857C43.6379 24.2857 43.9157 24.3707 44.1508 24.5406C44.1593 24.5448 44.1636 24.5491 44.1721 24.5576C44.4713 24.7742 44.6636 25.0928 44.7192 25.4539L44.9073 26.6518C44.7107 26.5924 44.5012 26.5796 44.2961 26.6179L36.8424 28.0579L36.2569 28.1726L35.4876 28.3213L35.2996 27.1191C35.2483 26.7835 35.3209 26.4564 35.4834 26.1931C35.5945 26.0104 35.7483 25.8532 35.9321 25.7385C36.0731 25.6493 36.2356 25.5856 36.4108 25.5516L37.71 25.3095ZM24.8371 4.08227C26.1065 4.18422 27.1621 4.96585 27.6365 6.16803L33.8678 22.0598L35.0645 25.1098L35.2397 25.5516C34.8337 25.9764 34.6286 26.5754 34.7269 27.1998L34.9192 28.4233L34.7782 28.4487L34.6072 27.34C34.526 26.8133 34.2397 26.3502 33.7994 26.0401C33.3592 25.73 32.8293 25.6153 32.2993 25.713L25.6021 26.9619C25.3201 27.0129 25.0594 27.1234 24.8371 27.2763V4.08227ZM24.8371 28.0834C25.038 27.8073 25.3414 27.6034 25.709 27.5354L32.4019 26.295C32.4874 26.278 32.5728 26.2695 32.6583 26.2695C32.9404 26.2695 33.2182 26.3587 33.4575 26.5244C33.7653 26.7411 33.9661 27.0639 34.026 27.4377L34.2012 28.5677L26.6236 30.029C26.0295 30.1437 25.4312 30.2074 24.8371 30.2287V28.0834ZM15.2209 22.0598L21.4522 6.16803C21.9223 4.96585 22.9823 4.18422 24.2516 4.08227V27.4929C23.9823 27.2296 23.6319 27.0384 23.2259 26.9619L16.533 25.7215C16.003 25.6238 15.4731 25.7385 15.0328 26.0486C14.5926 26.3587 14.3063 26.8175 14.2251 27.3485L14.0584 28.4233L13.9174 28.3978L14.1054 27.2083C14.1866 26.6773 14.0541 26.1676 13.7721 25.7683L14.0285 25.1141L15.2209 22.0598ZM24.1191 29.8463L24.0593 30.2202C23.4951 30.1989 22.9352 30.1352 22.3796 30.0247L14.6354 28.5295L14.8063 27.4335C14.8662 27.0597 15.067 26.7368 15.3748 26.5202C15.6825 26.3035 16.0586 26.2228 16.4304 26.2908L23.1233 27.5312C23.5592 27.6119 23.9097 27.8838 24.102 28.2491L24.1191 29.8463ZM4.26268 25.4794C4.32251 25.1013 4.52339 24.7742 4.83538 24.5533C4.85247 24.5406 4.8653 24.5321 4.88239 24.5236C5.17301 24.3367 5.5192 24.2645 5.86111 24.3282L11.1864 25.318L12.4386 25.5516C12.695 25.5983 12.9173 25.713 13.0968 25.8745C13.2763 26.0401 13.4131 26.2483 13.4857 26.4862C13.5455 26.6816 13.5626 26.894 13.5284 27.1149L13.3447 28.2831L12.819 28.1811L12.2335 28.0664L4.70289 26.6179C4.49347 26.5754 4.27977 26.5924 4.0789 26.6561L4.26268 25.4794ZM45.2107 28.4615V32.0765C45.2107 32.3951 44.9842 32.6712 44.6679 32.7307L26.6279 36.2098C25.2175 36.4817 23.79 36.4817 22.3796 36.2098L4.33961 32.7307C4.02334 32.6712 3.79683 32.3951 3.79683 32.0765V28.487V27.8413C3.79683 27.6756 3.85666 27.5184 3.96778 27.3995C3.98915 27.374 4.01479 27.3485 4.04044 27.3273C4.16011 27.2296 4.31397 27.1743 4.46783 27.1743C4.51056 27.1743 4.5533 27.1786 4.59604 27.1871L12.024 28.6187L12.6096 28.7291L13.2592 28.8566L13.8276 28.967L13.9687 28.9925L14.5456 29.1029L20.3453 30.2202L22.2728 30.5897C22.837 30.7002 23.4054 30.7681 23.9738 30.7936C24.0593 30.7979 24.1405 30.8021 24.226 30.8021C24.2431 30.8021 24.2559 30.8021 24.273 30.8021C24.3713 30.8021 24.4696 30.8064 24.5636 30.8064C24.6277 30.8064 24.6961 30.8021 24.7602 30.8021H24.8371C24.8457 30.8021 24.8542 30.8021 24.8585 30.8021C25.4868 30.7809 26.1107 30.7129 26.7347 30.594L28.6622 30.2244L34.2909 29.1369L34.8679 29.0265L35.009 29.001L35.5817 28.8905L36.4792 28.7164L37.0647 28.6017L44.4158 27.1828C44.6124 27.1446 44.8132 27.1956 44.9714 27.323C44.9927 27.34 45.0141 27.3613 45.0312 27.3825C45.1466 27.5057 45.215 27.6671 45.215 27.837V28.4615H45.2107Z" fill="#01A5EC"/>
<path d="M3.45018 8.10513C3.56557 8.10513 3.66387 8.02017 3.68097 7.90548C3.69806 7.79078 3.62968 7.68033 3.51428 7.64635C3.03134 7.50192 2.50565 6.97517 2.06971 6.19778C2.00561 6.08309 1.86457 6.04486 1.75345 6.10858C1.63805 6.1723 1.59959 6.31248 1.6637 6.42293C2.15519 7.30651 2.78345 7.91397 3.38179 8.09239C3.40744 8.10089 3.42881 8.10513 3.45018 8.10513Z" fill="#01A5EC"/>
<path d="M5.8699 2.92684C6.01521 3.24969 6.09214 3.60227 6.09214 3.9591C6.09214 4.08654 6.19471 4.19274 6.3272 4.19274C6.45542 4.19274 6.56227 4.08654 6.56227 3.9591C6.56227 3.53855 6.47252 3.1265 6.30156 2.74418C6.08359 2.23867 5.73741 1.80113 5.2972 1.46978C5.19463 1.39332 5.04931 1.41456 4.96811 1.51651C4.89118 1.61846 4.91255 1.76714 5.01512 1.84361C5.39122 2.12397 5.68612 2.4978 5.8699 2.92684Z" fill="#01A5EC"/>
<path d="M3.74654 1.3977C3.96023 1.3977 4.17393 1.43593 4.3748 1.5039C4.49874 1.54638 4.63123 1.47841 4.67397 1.35947C4.71671 1.23628 4.64833 1.10459 4.52866 1.06211C4.2765 0.977148 4.01579 0.93042 3.75081 0.93042C3.6226 0.93042 3.51575 1.03662 3.51575 1.16406C3.51148 1.2915 3.61832 1.3977 3.74654 1.3977Z" fill="#01A5EC"/>
<path d="M8.20125 9.51121C7.7183 9.36678 7.19261 8.84002 6.75668 8.06264C6.69257 7.94795 6.55153 7.90972 6.43614 7.96919C6.32502 8.03291 6.28228 8.17309 6.34639 8.28779C6.83788 9.17137 7.46187 9.77883 8.06449 9.95725C8.14569 9.98273 8.23117 9.96149 8.29527 9.90627C8.35511 9.8468 8.38503 9.76184 8.36366 9.68113C8.34656 9.60042 8.28245 9.53669 8.20125 9.51121Z" fill="#01A5EC"/>
<path d="M9.98079 3.33038C9.87822 3.25391 9.72863 3.27515 9.6517 3.37711C9.57477 3.47906 9.59614 3.62774 9.69872 3.7042C10.0748 3.98882 10.3697 4.36264 10.5535 4.79169C10.6988 5.11878 10.7757 5.46712 10.7757 5.82395C10.7757 5.95139 10.8783 6.05759 11.0108 6.05759C11.139 6.05759 11.2459 5.95139 11.2459 5.82395C11.2459 5.4034 11.1561 4.99134 10.9852 4.60902C10.7715 4.09927 10.4253 3.66172 9.98079 3.33038Z" fill="#01A5EC"/>
<path d="M9.21603 2.92685C8.96387 2.84189 8.70317 2.79517 8.43819 2.79517C8.30997 2.79517 8.20312 2.89712 8.20312 3.02881C8.20312 3.15625 8.30997 3.26244 8.43819 3.26244C8.65188 3.26244 8.86557 3.30068 9.06645 3.36864C9.19039 3.41112 9.32288 3.34316 9.36562 3.22421C9.40408 3.10102 9.3357 2.96509 9.21603 2.92685Z" fill="#01A5EC"/>
<path d="M8.43236 1.86487C7.95796 1.86912 7.48783 1.96682 7.06044 2.16223C6.45355 0.875086 5.17566 0.0382319 3.74819 0C1.75229 0 0 1.85212 0 3.95913C0 5.78152 1.26079 8.26234 2.91478 8.91228L2.81648 9.51125C2.80366 9.57922 2.82503 9.64719 2.86777 9.70241C2.91051 9.75339 2.97889 9.78312 3.04727 9.78312H3.42338L3.27379 10.2249C3.11138 10.7007 3.18404 11.2274 3.46611 11.6437L3.64134 11.9029C3.84222 12.2002 3.8935 12.5741 3.77811 12.9181L3.52595 13.6658C3.48321 13.789 3.55159 13.9207 3.67553 13.9589C3.79948 14.0014 3.93197 13.9334 3.97043 13.8102L4.21832 13.0626C4.38072 12.5868 4.30807 12.06 4.02599 11.6395L3.85504 11.3846C3.65416 11.0873 3.60288 10.7092 3.71827 10.3693L3.91487 9.77888H4.44911C4.51749 9.77888 4.5816 9.74914 4.62861 9.69816C4.67135 9.64719 4.69272 9.57497 4.67989 9.507L4.5816 8.91228C4.86795 8.79759 5.13293 8.64041 5.37226 8.44925C5.86376 9.43054 6.6416 10.4033 7.59895 10.7814L7.50065 11.3761C7.48783 11.4441 7.5092 11.5121 7.55194 11.563C7.59468 11.614 7.66306 11.6437 7.73144 11.6437H8.10754L7.95796 12.0855C7.79555 12.5613 7.86821 13.0881 8.15028 13.5044L8.32551 13.7635C8.34261 13.7932 8.3597 13.8187 8.3768 13.8484C8.41954 13.9249 8.49647 13.9716 8.58194 13.9716C8.62041 13.9716 8.65887 13.9631 8.69307 13.9419C8.80419 13.8824 8.84692 13.738 8.78709 13.6276C8.76145 13.5851 8.74008 13.5468 8.71443 13.5044L8.53921 13.2452C8.33833 12.9479 8.28705 12.5741 8.40244 12.23L8.59904 11.6395H9.13328C9.20166 11.6395 9.27004 11.6098 9.31278 11.5588C9.35552 11.5078 9.37689 11.4356 9.36406 11.3719L9.26577 10.7814C9.93676 10.5223 10.5736 9.9488 11.1164 9.11194C11.7617 8.12641 12.1293 6.98794 12.1763 5.8155C12.1805 3.7085 10.4283 1.86487 8.43236 1.86487ZM0.470126 3.95913C0.470126 2.09851 2.00445 0.467279 3.74819 0.467279C5.00471 0.467279 6.17575 1.28714 6.73136 2.56154C6.92795 3.00333 7.03053 3.4791 7.03053 3.95913C7.03053 4.12905 7.01771 4.30321 6.99634 4.47313C6.97069 4.67704 6.93223 4.87669 6.88094 5.07635C6.62024 6.14684 6.07318 7.12388 5.29533 7.90551C5.00471 8.19438 4.6457 8.41527 4.25251 8.54271C4.0089 8.61917 3.74819 8.63617 3.49603 8.59793C3.41055 8.58519 3.32508 8.56395 3.24387 8.53846C1.70528 8.07968 0.470126 5.65832 0.470126 3.95913ZM3.3208 9.31584L3.36354 9.04822C3.37636 9.05247 3.38918 9.05247 3.40628 9.05247C3.4191 9.05672 3.44047 9.05672 3.45757 9.06096C3.55159 9.07371 3.64562 9.0822 3.74392 9.0822H3.75246C3.84649 9.0822 3.94479 9.07371 4.03881 9.06096C4.05591 9.05672 4.073 9.05672 4.0901 9.05247C4.1072 9.04822 4.11574 9.04822 4.13284 9.04822L4.17558 9.31584H3.3208ZM8.85975 11.1807H8.00497L8.04771 10.9131C8.07335 10.9173 8.099 10.9216 8.12891 10.9258C8.15028 10.9301 8.17165 10.9301 8.19302 10.9343C8.26995 10.9428 8.35116 10.9471 8.42808 10.9513H8.43663C8.56058 10.9513 8.68879 10.9386 8.81273 10.9173L8.85975 11.1807ZM10.7274 8.86131C10.1975 9.68117 9.56066 10.2207 8.92385 10.4076C8.8512 10.4288 8.77427 10.4458 8.70161 10.4586L8.6717 10.4628C8.51784 10.484 8.35543 10.484 8.20157 10.4628C8.1802 10.4586 8.1631 10.4543 8.14174 10.4501C8.07763 10.4416 8.01352 10.4246 7.95369 10.4076C7.00061 10.1357 6.21422 9.12468 5.73982 8.12641C5.75264 8.11366 5.76546 8.09667 5.78256 8.08393C5.81247 8.05419 5.84239 8.02021 5.86803 7.99047C5.90222 7.95224 5.93642 7.91401 5.97061 7.87578C6.00052 7.84179 6.02617 7.80781 6.05608 7.77382C6.09027 7.73559 6.12019 7.69311 6.15438 7.65063C6.18003 7.61665 6.20994 7.57842 6.23559 7.54018C6.2655 7.4977 6.29542 7.45522 6.32534 7.41274C6.35098 7.37451 6.37662 7.33628 6.40227 7.2938C6.43218 7.25132 6.4621 7.20459 6.48775 7.15786C6.51339 7.11539 6.53903 7.07715 6.5604 7.03467C6.58604 6.98794 6.61596 6.94122 6.6416 6.89449C6.66297 6.85201 6.68862 6.80953 6.70999 6.76705C6.73563 6.72032 6.76127 6.67359 6.78264 6.62262C6.80401 6.58014 6.82538 6.53766 6.84675 6.49093C6.86812 6.43995 6.89376 6.39323 6.91513 6.34225C6.9365 6.29977 6.9536 6.25304 6.97497 6.21056C6.99634 6.15959 7.01771 6.10861 7.03907 6.05763C7.05617 6.01516 7.07327 5.96843 7.09036 5.92595C7.11173 5.87497 7.12883 5.824 7.14592 5.77302C7.16302 5.73054 7.18011 5.68381 7.19293 5.64133C7.21003 5.59036 7.22713 5.53513 7.23995 5.48416C7.25277 5.44168 7.26559 5.39495 7.27841 5.35247C7.29551 5.30149 7.30833 5.24627 7.32115 5.19529C7.33397 5.15281 7.34252 5.11033 7.35534 5.06785C7.36816 5.01263 7.37671 4.96165 7.38953 4.90643C7.39808 4.86395 7.40663 4.82147 7.41518 4.78324C7.42372 4.72801 7.43227 4.67279 7.44082 4.61757C7.44509 4.57933 7.45364 4.5411 7.45792 4.50287C7.46646 4.4434 7.47074 4.37968 7.47501 4.32021C7.47928 4.29047 7.48356 4.25649 7.48356 4.22675C7.48783 4.13754 7.49211 4.04409 7.49211 3.95913C7.49211 3.83169 7.48356 3.7085 7.47074 3.58106C7.46646 3.53858 7.45792 3.50034 7.45364 3.45786C7.44082 3.3729 7.428 3.28795 7.41518 3.20723C7.40663 3.16051 7.39381 3.10953 7.38099 3.0628C7.36389 2.98634 7.34252 2.90987 7.32115 2.83341C7.30406 2.78243 7.29123 2.73571 7.27414 2.68473C7.26559 2.65075 7.25704 2.61676 7.24422 2.58278C7.61605 2.41711 8.02207 2.33215 8.42808 2.33215H8.43236C10.1761 2.33215 11.7104 3.95913 11.7147 5.81975C11.6677 6.89874 11.3258 7.95224 10.7274 8.86131Z" fill="#01A5EC"/>
<path d="M45.5498 8.10513C45.4344 8.10513 45.3361 8.02017 45.319 7.90548C45.3019 7.79078 45.3703 7.68033 45.4857 7.64635C45.9686 7.50192 46.4943 6.97517 46.9303 6.19778C46.9944 6.08309 47.1354 6.04486 47.2465 6.10858C47.3619 6.1723 47.4004 6.31248 47.3363 6.42293C46.8448 7.30651 46.2165 7.91397 45.6182 8.09239C45.5925 8.10089 45.5712 8.10513 45.5498 8.10513Z" fill="#01A5EC"/>
<path d="M43.1299 2.92684C42.9846 3.24969 42.9076 3.60227 42.9076 3.9591C42.9076 4.08654 42.8051 4.19274 42.6726 4.19274C42.5443 4.19274 42.4375 4.08654 42.4375 3.9591C42.4375 3.53855 42.5273 3.1265 42.6982 2.74418C42.9162 2.23867 43.2624 1.80113 43.7026 1.46978C43.8051 1.39332 43.9505 1.41456 44.0317 1.51651C44.1086 1.61846 44.0872 1.76714 43.9846 1.84361C43.6128 2.12397 43.3179 2.4978 43.1299 2.92684Z" fill="#01A5EC"/>
<path d="M45.2527 1.3977C45.039 1.3977 44.8253 1.43593 44.6245 1.5039C44.5005 1.54638 44.368 1.47841 44.3253 1.35947C44.2826 1.23628 44.3509 1.10459 44.4706 1.06211C44.7228 0.977148 44.9835 0.93042 45.2485 0.93042C45.3767 0.93042 45.4835 1.03662 45.4835 1.16406C45.4835 1.2915 45.3809 1.3977 45.2527 1.3977Z" fill="#01A5EC"/>
<path d="M40.7947 9.51121C41.2776 9.36678 41.8033 8.84002 42.2392 8.06264C42.3033 7.94795 42.4444 7.90972 42.5555 7.96919C42.6666 8.03291 42.7094 8.17309 42.6453 8.28779C42.1538 9.17137 41.5298 9.77883 40.9272 9.95725C40.8459 9.98273 40.7605 9.96149 40.6964 9.90627C40.6365 9.8468 40.6066 9.76184 40.628 9.68113C40.6536 9.60042 40.7135 9.53669 40.7947 9.51121Z" fill="#01A5EC"/>
<path d="M39.0151 3.33038C39.1176 3.25391 39.263 3.27515 39.3442 3.37711C39.4211 3.47906 39.3997 3.62774 39.2971 3.7042C38.921 3.98882 38.6261 4.36264 38.4424 4.79169C38.2971 5.11878 38.2201 5.46712 38.2201 5.82395C38.2201 5.95139 38.1176 6.05759 37.9851 6.05759C37.8568 6.05759 37.75 5.95139 37.75 5.82395C37.75 5.4034 37.8398 4.99134 38.0107 4.60902C38.2287 4.09927 38.5749 3.66172 39.0151 3.33038Z" fill="#01A5EC"/>
<path d="M39.7857 2.92685C40.0379 2.84189 40.2986 2.79517 40.5636 2.79517C40.6918 2.79517 40.7986 2.89712 40.7986 3.02881C40.7986 3.15625 40.6918 3.26244 40.5636 3.26244C40.3499 3.26244 40.1362 3.30068 39.9353 3.36864C39.8113 3.41112 39.6789 3.34316 39.6361 3.22421C39.5977 3.10102 39.6618 2.96509 39.7857 2.92685Z" fill="#01A5EC"/>
<path d="M36.8164 5.81555C36.8634 6.988 37.231 8.1307 37.8763 9.11199C38.4191 9.95309 39.0559 10.5223 39.7269 10.7815L39.6286 11.3719C39.6158 11.4399 39.6372 11.5079 39.6799 11.5588C39.7226 11.6098 39.791 11.6395 39.8594 11.6395H40.3936L40.5902 12.23C40.7056 12.5699 40.6543 12.9437 40.4535 13.2453L40.2782 13.5044C40.2526 13.5426 40.227 13.5851 40.2056 13.6276C40.1458 13.7423 40.1842 13.8825 40.2996 13.942C40.3338 13.9589 40.3723 13.9717 40.4107 13.9717C40.4962 13.9717 40.5774 13.925 40.6159 13.8485C40.633 13.8188 40.6501 13.789 40.6672 13.7635L40.8424 13.5044C41.1245 13.0881 41.1971 12.5614 41.0347 12.0856L40.8851 11.6438H41.2612C41.3296 11.6438 41.3937 11.6141 41.4407 11.5631C41.4835 11.5121 41.5048 11.4399 41.492 11.3762L41.3937 10.7815C42.3511 10.4034 43.1289 9.43484 43.6204 8.4493C43.8598 8.64471 44.1247 8.79764 44.4111 8.91234L44.3128 9.50705C44.3 9.57502 44.3213 9.64299 44.3641 9.69397C44.4068 9.74494 44.4752 9.77468 44.5436 9.77468H45.0778L45.2744 10.3651C45.3898 10.705 45.3385 11.0788 45.1376 11.3804L44.9624 11.6395C44.6803 12.0558 44.6077 12.5826 44.7701 13.0584L45.018 13.8103C45.0607 13.9335 45.1932 13.9972 45.3129 13.959C45.4368 13.9165 45.5009 13.7848 45.4625 13.6658L45.2103 12.9182C45.0949 12.5784 45.1462 12.2045 45.3471 11.9029L45.5223 11.6438C45.8044 11.2275 45.877 10.7007 45.7146 10.225L45.565 9.78317H45.9411C46.0095 9.78317 46.0736 9.75344 46.1206 9.70246C46.1634 9.65149 46.1847 9.57927 46.1719 9.51555L46.0736 8.92083C47.7276 8.27089 48.9884 5.79006 48.9884 3.96767C48.9884 1.86067 47.2361 0.00854492 45.2402 0.00854492C43.8127 0.0467768 42.5349 0.883631 41.9322 2.16652C41.5006 1.97112 41.0347 1.87341 40.5603 1.86917H40.556C38.573 1.86492 36.8207 3.70855 36.8164 5.81555ZM45.7574 8.54276C45.6762 8.56825 45.5907 8.58524 45.5052 8.59798C45.253 8.63622 44.9923 8.61498 44.7487 8.54276C44.3555 8.41532 44.0008 8.19442 43.7059 7.90556C42.9323 7.12393 42.3853 6.14264 42.1203 5.0764C42.069 4.87674 42.0305 4.67709 42.0049 4.47318C41.9835 4.30326 41.9707 4.13334 41.9707 3.95918C41.9707 3.47915 42.0733 2.99913 42.2699 2.56159C42.8212 1.29144 43.9922 0.467328 45.253 0.467328C47.0011 0.467328 48.5311 2.09856 48.5311 3.95918C48.5311 5.65837 47.2917 8.07973 45.7574 8.54276ZM44.8256 9.3159L44.8684 9.04827C44.8812 9.05252 44.894 9.05252 44.9111 9.05252C44.9282 9.05677 44.9453 9.05677 44.9624 9.06102C45.0564 9.07376 45.1505 9.08225 45.2488 9.08225H45.2573C45.3513 9.08225 45.4496 9.07376 45.5437 9.06102C45.5608 9.05677 45.5821 9.05677 45.5949 9.05252C45.6078 9.04827 45.6206 9.04827 45.6377 9.04827L45.6804 9.3159H44.8256ZM40.1842 10.9131C40.3082 10.9344 40.4321 10.9471 40.5603 10.9471H40.5689C40.6458 10.9471 40.727 10.9429 40.8039 10.9344C40.8253 10.9301 40.8467 10.9301 40.868 10.9259C40.8937 10.9216 40.9193 10.9216 40.9492 10.9131L40.992 11.1808H40.1372L40.1842 10.9131ZM37.2865 5.81555C37.2908 3.95918 38.8251 2.32795 40.5689 2.32795H40.5731C40.9834 2.32795 41.3852 2.41291 41.757 2.57858C41.7442 2.61256 41.7356 2.64655 41.7228 2.68053C41.7057 2.72726 41.6886 2.77824 41.6758 2.82921C41.6544 2.90568 41.6331 2.98214 41.616 3.0586C41.6031 3.10533 41.5903 3.15631 41.5818 3.20303C41.5647 3.28799 41.5519 3.37295 41.5433 3.45367C41.539 3.49615 41.5305 3.53438 41.5262 3.57686C41.5134 3.7043 41.5048 3.82749 41.5048 3.95493C41.5048 4.04414 41.5091 4.13334 41.5134 4.22255C41.5177 4.25229 41.5177 4.28627 41.5219 4.31601C41.5262 4.37548 41.5305 4.4392 41.539 4.49867C41.5433 4.5369 41.5519 4.57514 41.5561 4.61337C41.5647 4.66859 41.5732 4.72382 41.5818 4.77904C41.5903 4.82152 41.5989 4.864 41.6074 4.90223C41.616 4.95746 41.6288 5.00843 41.6416 5.06365C41.6502 5.10613 41.663 5.14861 41.6758 5.19109C41.6886 5.24207 41.7014 5.29729 41.7185 5.34827C41.7314 5.39075 41.7442 5.43748 41.757 5.47996C41.7741 5.53093 41.7869 5.58616 41.804 5.63713C41.8168 5.68386 41.8339 5.72634 41.851 5.76882C41.8681 5.8198 41.8895 5.87077 41.9066 5.92175C41.9237 5.96423 41.9408 6.01096 41.9579 6.05344C41.9792 6.10441 42.0006 6.15539 42.022 6.20212C42.0434 6.2446 42.0605 6.29132 42.0818 6.3338C42.1032 6.38478 42.1288 6.43151 42.1502 6.48248C42.1716 6.52496 42.1929 6.56744 42.2143 6.61417C42.24 6.6609 42.2613 6.71188 42.287 6.7586C42.3126 6.80108 42.334 6.84356 42.3596 6.88604C42.3853 6.93277 42.4109 6.9795 42.4408 7.02623C42.4665 7.06871 42.4878 7.10694 42.5135 7.14942C42.5434 7.19615 42.569 7.23863 42.599 7.28535C42.6246 7.32359 42.6502 7.36182 42.6759 7.40005C42.7058 7.44253 42.7357 7.48501 42.7656 7.52749C42.7913 7.56572 42.8212 7.59971 42.8468 7.63794C42.881 7.68042 42.911 7.71865 42.9451 7.76113C42.9751 7.79511 43.0007 7.8291 43.0306 7.86308C43.0648 7.90131 43.099 7.93955 43.1332 7.97778C43.1631 8.00751 43.193 8.0415 43.2187 8.07123C43.2315 8.08398 43.2443 8.10097 43.2614 8.11371C42.787 9.11199 42.0006 10.1273 41.0475 10.3949C40.9834 10.4119 40.9193 10.4289 40.8552 10.4374C40.8338 10.4416 40.8168 10.4459 40.7954 10.4501C40.6373 10.4713 40.4791 10.4713 40.3253 10.4501L40.2953 10.4459C40.2184 10.4331 40.1458 10.4161 40.0731 10.3949C39.4363 10.208 38.7995 9.66848 38.2695 8.84862C37.6712 7.95229 37.3335 6.89879 37.2865 5.81555Z" fill="#01A5EC"/>
</svg>
