<svg width="95" height="86" viewBox="0 0 95 86" fill="none" xmlns="http://www.w3.org/2000/svg">
<path d="M83.4196 77.7837C90.36 69.5185 94.5333 58.8447 94.4998 47.1929C94.4273 21.492 73.5779 0.362368 47.9194 0.00471211C21.5188 -0.364121 0 20.9667 0 47.3271C0 58.9285 4.16763 69.552 11.0802 77.7837C11.309 78.0575 11.7274 78.0687 11.9785 77.8172L47.2499 42.4875L82.5213 77.8172C82.7724 78.0743 83.1908 78.0575 83.4196 77.7837Z" fill="#01A5EC"/>
<path d="M47.25 85.5C68.3749 85.5 85.5 68.3749 85.5 47.25C85.5 26.1251 68.3749 9 47.25 9C26.1251 9 9 26.1251 9 47.25C9 68.3749 26.1251 85.5 47.25 85.5Z" fill="#EAF9FF"/>
<mask id="mask0_2639_4524" style="mask-type:alpha" maskUnits="userSpaceOnUse" x="8" y="8" width="78" height="78">
<path d="M47.2655 85.319C68.414 85.319 85.5583 68.1747 85.5583 47.0262C85.5583 25.8777 68.414 8.7334 47.2655 8.7334C26.1169 8.7334 8.97266 25.8777 8.97266 47.0262C8.97266 68.1747 26.1169 85.319 47.2655 85.319Z" fill="#FBC000"/>
</mask>
<g mask="url(#mask0_2639_4524)">
<g opacity="0.8">
<path d="M54 89.5L24 69.5L52.8745 64.875L64.7993 56.1031V53.7966V21.5L91 52L79.5 75.5L54 89.5Z" fill="#01A5EC" fill-opacity="0.5" style="mix-blend-mode:multiply"/>
</g>
</g>
<path d="M33.9648 22.0117V71.2871H58.9077C62.3971 71.2871 65.2258 68.4584 65.2258 64.969V22.0117C65.2258 21.4531 64.7727 21 64.2141 21H34.9766C34.4179 21 33.9648 21.4531 33.9648 22.0117V22.0117Z" fill="white"/>
<path d="M65.2275 22.0117V64.9693C65.2275 68.458 62.3984 71.2871 58.909 71.2871H56.0039C59.4937 71.2871 62.3228 68.458 62.3228 64.9693V22.0117C62.3228 21.4531 61.8693 21 61.3107 21H64.2158C64.7744 21 65.2275 21.4531 65.2275 22.0117V22.0117Z" fill="#CBCBCD" fill-opacity="0.32"/>
<path d="M51.1774 62.3975C51.736 62.3975 52.1891 62.8502 52.1891 63.4092V64.9691C52.1891 68.4581 55.0178 71.2869 58.5068 71.2869H27.2439C23.7545 71.2869 20.9258 68.4581 20.9258 64.9687V63.4092C20.9258 62.8506 21.3785 62.3975 21.9375 62.3975H51.1774Z" fill="#EFEFEF"/>
<path d="M42.6989 38.0755C42.6989 39.0903 41.8759 39.9129 40.8612 39.9129C39.8464 39.9129 39.0234 39.0903 39.0234 38.0755C39.0234 37.0604 39.8464 36.2378 40.8612 36.2378C41.8759 36.2378 42.6989 37.0604 42.6989 38.0755Z" fill="#01A5EC"/>
<path d="M49.4613 38.9981H45.7433C45.3239 38.9981 44.9844 38.6585 44.9844 38.2392C44.9844 37.8203 45.3239 37.4807 45.7433 37.4807H49.4613C49.8806 37.4807 50.2202 37.8203 50.2202 38.2392C50.2202 38.6585 49.8806 38.9981 49.4613 38.9981V38.9981Z" fill="#ED1164"/>
<path d="M58.7048 40.8168H45.7433C45.3239 40.8168 44.9844 40.4773 44.9844 40.058C44.9844 39.639 45.3239 39.2991 45.7433 39.2991H58.7048C59.1242 39.2991 59.4637 39.639 59.4637 40.058C59.4637 40.4773 59.1242 40.8168 58.7048 40.8168Z" fill="#ED1164"/>
<path d="M45.7471 36.8525C45.3301 36.8525 44.9871 36.516 44.9844 36.0982C44.9817 35.6792 45.3155 35.3374 45.7344 35.3347H45.7421H45.7471C46.1638 35.3347 46.5033 35.6712 46.506 36.0886C46.5083 36.5079 46.1707 36.8498 45.7517 36.8525C45.7502 36.8525 45.7486 36.8525 45.7471 36.8525Z" fill="#ED1164"/>
<path d="M42.6989 46.0916C42.6989 47.1064 41.8759 47.9294 40.8612 47.9294C39.8464 47.9294 39.0234 47.1064 39.0234 46.0916C39.0234 45.0769 39.8464 44.2539 40.8612 44.2539C41.8759 44.2539 42.6989 45.0769 42.6989 46.0916V46.0916Z" fill="#01A5EC"/>
<path d="M49.4613 47.0152H45.7433C45.3239 47.0152 44.9844 46.6756 44.9844 46.2567C44.9844 45.8373 45.3239 45.4978 45.7433 45.4978H49.4613C49.8806 45.4978 50.2202 45.8373 50.2202 46.2567C50.2202 46.6756 49.8806 47.0152 49.4613 47.0152V47.0152Z" fill="#ED1164"/>
<path d="M58.7048 48.8339H45.7433C45.3239 48.8339 44.9844 48.4944 44.9844 48.075C44.9844 47.6561 45.3239 47.3162 45.7433 47.3162H58.7048C59.1242 47.3162 59.4637 47.6561 59.4637 48.075C59.4637 48.4944 59.1242 48.8339 58.7048 48.8339Z" fill="#ED1164"/>
<path d="M45.7471 44.8686C45.3301 44.8686 44.9871 44.5321 44.9844 44.1147C44.9817 43.6954 45.3155 43.3535 45.7344 43.3508H45.7421H45.7471C46.1638 43.3508 46.5033 43.6877 46.506 44.1051C46.5083 44.5241 46.1707 44.8659 45.7517 44.8686C45.7502 44.8686 45.7486 44.8686 45.7471 44.8686Z" fill="#ED1164"/>
<path d="M42.2106 54.6082C42.2106 55.623 41.3877 56.446 40.3729 56.446C39.3581 56.446 38.5352 55.623 38.5352 54.6082C38.5352 53.5935 39.3581 52.7705 40.3729 52.7705C41.3877 52.7705 42.2106 53.5935 42.2106 54.6082Z" fill="#01A5EC"/>
<path d="M49.4613 55.0317H45.7433C45.3239 55.0317 44.9844 54.6918 44.9844 54.2728C44.9844 53.8535 45.3239 53.5139 45.7433 53.5139H49.4613C49.8806 53.5139 50.2202 53.8535 50.2202 54.2728C50.2202 54.6918 49.8806 55.0317 49.4613 55.0317V55.0317Z" fill="#ED1164"/>
<path d="M58.7048 56.8497H45.7433C45.3239 56.8497 44.9844 56.5101 44.9844 56.0908C44.9844 55.6718 45.3239 55.3323 45.7433 55.3323H58.7048C59.1242 55.3323 59.4637 55.6718 59.4637 56.0908C59.4637 56.5101 59.1242 56.8497 58.7048 56.8497Z" fill="#ED1164"/>
<path d="M45.7471 52.8857C45.3301 52.8857 44.9871 52.5492 44.9844 52.1318C44.9817 51.7124 45.3155 51.3706 45.7344 51.3679H45.7421H45.7471C46.1638 51.3679 46.5033 51.7048 46.506 52.1222C46.5083 52.5412 46.1707 52.883 45.7517 52.8857C45.7502 52.8857 45.7486 52.8857 45.7471 52.8857Z" fill="#ED1164"/>
<path d="M57.6433 30.1411H40.3907C39.8687 30.1411 39.4453 29.6998 39.4453 29.1555V26.8404C39.4453 26.2964 39.8687 25.8552 40.3907 25.8552H57.6433C58.1656 25.8552 58.5887 26.2964 58.5887 26.8404V29.1555C58.5887 29.6998 58.1656 30.1411 57.6433 30.1411Z" fill="#F798BC"/>
<path d="M33.9688 49.2501L37.2268 50.8699C37.5905 51.0506 37.9876 50.6938 37.8468 50.3128L36.5849 46.9001L33.9688 49.2501Z" fill="#67BEE1"/>
<path d="M33.2681 49.0512L20.1914 34.4932C19.9159 34.1866 19.9405 33.7144 20.2478 33.4381L22.3288 31.5689C22.6361 31.2931 23.1084 31.3188 23.3838 31.6257L36.4605 46.1833C36.7363 46.4906 36.7114 46.9621 36.4037 47.2384L34.3231 49.1076C34.0154 49.3834 33.5439 49.3585 33.2681 49.0512V49.0512Z" fill="#01A5EC"/>
<path d="M33.2681 49.0511L20.1914 34.4931C19.9159 34.1865 19.9405 33.7142 20.2478 33.438L21.2883 32.5034L35.3632 48.1729L34.3231 49.1075C34.0154 49.3833 33.5439 49.3584 33.2681 49.0511Z" fill="#01A5EC" fill-opacity="0.6" style="mix-blend-mode:multiply"/>
<path d="M21.6077 36.07L20.1912 34.4935C19.9158 34.1866 19.9407 33.7143 20.248 33.4384L22.3286 31.5693C22.6363 31.293 23.1082 31.3187 23.3837 31.6257L24.8001 33.2025L21.6077 36.07Z" fill="#A7A9AC"/>
</svg>
