<svg width="29" height="38" viewBox="0 0 29 38" fill="none" xmlns="http://www.w3.org/2000/svg">
<path d="M28.1395 16.8067C28.1395 13.3595 26.9438 10.0216 24.7725 7.40078C22.8255 5.05133 20.198 3.40671 17.307 2.70187L18.9708 0.988391C19.1321 0.822309 19.1793 0.575211 19.0927 0.356469C19.0062 0.141777 18.7977 0 18.5735 0H9.56603C9.33789 0 9.13335 0.141777 9.04682 0.356469C8.96028 0.57116 9.00748 0.822309 9.16875 0.988391L10.8326 2.70187C7.9376 3.40266 5.31402 5.05133 3.36699 7.40078C1.19575 10.0216 0 13.3595 0 16.8067C0 23.1786 4.01207 28.5985 9.56603 30.5389V33.0382H5.83716C5.41236 33.0382 5.06228 33.3947 5.06228 33.8362V36.5178C5.06228 36.8378 5.31402 37.0971 5.62476 37.0971H22.5069C22.8176 37.0971 23.0694 36.8378 23.0694 36.5178V33.8362C23.0694 33.3987 22.7232 33.0382 22.2945 33.0382H18.5656V30.5389C24.1275 28.5985 28.1395 23.1786 28.1395 16.8067ZM17.2126 1.15852L14.0698 4.3951L10.927 1.15852H17.2126ZM18.6915 8.56741C18.782 8.62007 18.8764 8.64437 18.9708 8.64437C19.1635 8.64437 19.3563 8.53905 19.4585 8.35272L19.8951 7.57497C21.146 8.41753 22.2158 9.51934 23.034 10.8075L17.2952 14.2182C17.0906 14.3398 16.9883 14.5788 17.0198 14.8056C16.9883 14.9352 17.0041 15.077 17.067 15.2066C17.3188 15.7049 17.4446 16.2436 17.4446 16.8067C17.4446 18.7227 15.9303 20.2823 14.0658 20.2823C12.2053 20.2823 10.691 18.7227 10.691 16.8067C10.691 14.8907 12.2053 13.3311 14.0658 13.3311C14.6047 13.3311 15.1161 13.4567 15.592 13.7038C15.7061 13.7646 15.8319 13.7767 15.9499 13.7565C15.9971 13.7686 16.0443 13.7767 16.0915 13.7767C16.2843 13.7767 16.477 13.6714 16.5793 13.4851L18.3808 10.2728C18.5342 9.99733 18.4437 9.64086 18.1762 9.48288C17.9088 9.3249 17.5626 9.41807 17.4092 9.69352L15.8162 12.5331C15.4386 12.367 15.0413 12.2577 14.6322 12.205V5.81287C16.1702 5.89389 17.6216 6.31517 18.9196 6.9957L18.483 7.77345C18.3296 8.05296 18.4201 8.40538 18.6915 8.56741ZM21.3859 17.386H24.7489C24.6703 18.9698 24.2612 20.4646 23.5965 21.8013L18.2195 18.6012C18.3768 18.2204 18.483 17.8113 18.5342 17.3819H19.1321C19.4428 17.3819 19.6945 17.1227 19.6945 16.8026C19.6945 16.4826 19.4428 16.2234 19.1321 16.2234H18.5342C18.483 15.8021 18.3768 15.393 18.2156 15.0041L23.5925 11.808C24.2573 13.1448 24.6624 14.6395 24.745 16.2234H21.382C21.0712 16.2234 20.8195 16.4826 20.8195 16.8026C20.8234 17.1267 21.0751 17.386 21.3859 17.386ZM19.8951 26.0384L16.7917 20.501C17.1182 20.2458 17.4092 19.9461 17.657 19.6098L23.034 22.8059C22.2158 24.0941 21.146 25.1999 19.8951 26.0384ZM9.21989 26.6217L12.3233 21.0843C12.697 21.2464 13.0943 21.3557 13.5073 21.4084V27.8046C11.9693 27.7236 10.5179 27.3023 9.21989 26.6217ZM5.10555 22.8059L10.4825 19.6098C10.7303 19.9461 11.0214 20.2458 11.3479 20.501L8.2444 26.0384C6.99358 25.1999 5.9237 24.0941 5.10555 22.8059ZM8.2444 7.57902L11.3479 13.1164C11.0214 13.3716 10.7303 13.6714 10.4825 14.0076L5.10555 10.8115C5.9237 9.51934 6.99358 8.41753 8.2444 7.57902ZM13.5073 12.2091C13.0943 12.2617 12.697 12.3711 12.3233 12.5331L9.21989 6.9957C10.5179 6.31112 11.9693 5.89389 13.5073 5.81287V12.2091ZM4.54308 11.8121L9.92003 15.0122C9.7627 15.393 9.65649 15.8021 9.60536 16.2315H3.39059C3.47319 14.6436 3.87833 13.1488 4.54308 11.8121ZM9.60536 17.386C9.65649 17.8113 9.7627 18.2204 9.92003 18.6052L4.54308 21.8054C3.87833 20.4686 3.47319 18.9698 3.39452 17.39H9.60536V17.386ZM14.6322 21.4084C15.0452 21.3557 15.4425 21.2464 15.8162 21.0843L18.9196 26.6217C17.6216 27.3063 16.1702 27.7236 14.6322 27.8046V21.4084ZM1.12495 16.8067C1.12495 13.6349 2.2263 10.5604 4.22447 8.15423C6.1715 5.80477 8.85408 4.22092 11.7884 3.68216L12.7835 4.70701C11.1315 4.89335 9.58176 5.42805 8.20507 6.24226C8.18934 6.25036 8.1736 6.25846 8.1618 6.26656C8.14214 6.27871 8.1264 6.28682 8.11067 6.29897C6.36031 7.35622 4.89315 8.86311 3.86653 10.6698C3.85473 10.686 3.84293 10.7022 3.83506 10.7224C3.8272 10.7386 3.81933 10.7548 3.81146 10.767C2.82025 12.5493 2.2499 14.6112 2.2499 16.8067C2.2499 19.0022 2.81631 21.0681 3.81146 22.8464C3.81933 22.8626 3.8272 22.8788 3.83506 22.891C3.84293 22.9031 3.8508 22.9193 3.8626 22.9315C4.88921 24.7381 6.35637 26.2531 8.11067 27.3104C8.1264 27.3225 8.14214 27.3347 8.1618 27.3428C8.1736 27.3509 8.18147 27.3549 8.19327 27.359C9.92397 28.3879 11.9339 28.9753 14.0698 28.9753C16.2056 28.9753 18.2156 28.3879 19.9463 27.359C19.9581 27.3549 19.9659 27.3509 19.9777 27.3428C19.9935 27.3306 20.0131 27.3225 20.0289 27.3104C21.7832 26.2491 23.2503 24.7381 24.2769 22.9315C24.2848 22.9193 24.2966 22.9031 24.3045 22.891C24.3123 22.8748 24.3202 22.8586 24.3281 22.8464C25.3193 21.0641 25.8896 19.0022 25.8896 16.8067C25.8896 14.6112 25.3232 12.5493 24.3281 10.767C24.3202 10.7508 24.3123 10.7346 24.3045 10.7224C24.2927 10.7062 24.2848 10.686 24.273 10.6698C23.2464 8.86716 21.7832 7.36027 20.0289 6.29897C20.0131 6.28682 19.9974 6.27466 19.9777 6.26656C19.962 6.25846 19.9463 6.25036 19.9345 6.24226C18.5578 5.42805 17.008 4.89335 15.356 4.70701L16.3511 3.68216C19.2855 4.22092 21.968 5.80477 23.9151 8.15423C25.9132 10.5604 27.0106 13.6349 27.0106 16.8067C27.0106 24.1589 21.205 30.1378 14.0658 30.1378C6.92671 30.1378 1.12495 24.1589 1.12495 16.8067ZM21.9484 35.9345H6.19117V34.1967H21.9484V35.9345ZM17.4486 33.0382H10.691V30.8751C11.7727 31.1505 12.9055 31.2964 14.0658 31.2964C15.2301 31.2964 16.359 31.1505 17.4446 30.8751V33.0382H17.4486Z" fill="#01A5EC"/>
</svg>
