<svg width="296" height="199" viewBox="0 0 296 199" fill="none" xmlns="http://www.w3.org/2000/svg">
<path d="M261.548 181H9V49.7101C9 34.9566 24.4219 23 43.4515 23H296V154.29C296 169.043 280.578 181 261.548 181Z" fill="#E8E8E8"/>
<path d="M277 182.53V198H51.6607C36.3824 198 24 188.209 24 176.128V11H261.907V20.5895" stroke="#7F7F7F" stroke-miterlimit="10"/>
<path d="M164.224 93.9717V85.666H148.087L158.232 75.5806C161.732 72.199 163.512 68.5801 163.512 64.8426C163.512 61.283 162.207 58.2574 159.537 55.7063C156.927 53.1553 153.783 51.9095 150.045 51.9095C146.189 51.9095 142.926 53.274 140.256 56.003C137.587 58.6726 136.222 61.9356 136.222 65.7918H144.409C144.409 62.4102 146.901 59.7998 149.986 59.7998C152.893 59.7998 155.266 61.9949 155.266 64.8426C155.266 66.563 154.495 68.2835 152.893 69.9446L134.68 87.9797V93.9717H164.224Z" fill="#ED1164"/>
<path d="M66.1228 142V130.151H63.5048V142H66.1228ZM70.7438 142V137.189C70.7438 136.186 71.4408 135.489 72.3928 135.489C73.3958 135.489 73.9228 136.101 73.9228 137.104V139.654C73.9228 141.286 74.6708 142.102 76.1838 142.102C76.7108 142.102 77.0848 142.068 77.2888 141.983V139.841L77.1868 139.858H77.0168C76.5918 139.858 76.4558 139.62 76.4558 138.957V136.798C76.4558 134.571 75.2658 133.245 73.2088 133.245C72.0528 133.245 71.1008 133.755 70.7438 134.503V133.432H68.2108V142H70.7438ZM81.5058 142V135.727H83.2228V133.432H81.5058V133.041C81.5058 132.31 81.8628 132.021 82.6788 132.021C83.0358 132.021 83.2908 132.055 83.4438 132.106V129.998C83.1038 129.947 82.7638 129.913 82.4238 129.913C81.3528 129.913 80.5538 130.117 80.0608 130.542C79.3978 131.069 79.0578 131.953 79.0578 133.194V133.432H77.6468V135.727H79.0578V142H81.5058ZM88.5343 133.177C87.2083 133.177 86.0863 133.619 85.1513 134.503C84.2333 135.37 83.7743 136.441 83.7743 137.716C83.7743 138.991 84.2333 140.062 85.1513 140.946C86.0863 141.813 87.2083 142.255 88.5343 142.255C89.8433 142.255 90.9653 141.813 91.9003 140.946C92.8353 140.062 93.2943 138.991 93.2943 137.716C93.2943 136.441 92.8353 135.37 91.9003 134.503C90.9653 133.619 89.8433 133.177 88.5343 133.177ZM86.3073 137.716C86.3073 137.087 86.5283 136.56 86.9533 136.135C87.3783 135.693 87.9053 135.472 88.5343 135.472C89.1633 135.472 89.6903 135.693 90.1153 136.135C90.5403 136.56 90.7613 137.087 90.7613 137.716C90.7613 138.345 90.5403 138.872 90.1153 139.314C89.6903 139.739 89.1633 139.96 88.5343 139.96C87.9053 139.96 87.3783 139.739 86.9533 139.314C86.5283 138.889 86.3073 138.345 86.3073 137.716ZM97.1569 142V137.818C97.1569 136.407 98.0069 135.591 99.4519 135.591C99.7579 135.591 100.047 135.625 100.302 135.676V133.296C100.03 133.262 99.8089 133.245 99.6389 133.245C98.4659 133.245 97.5479 133.738 97.1569 134.605V133.432H94.6239V142H97.1569ZM104.113 142V137.189C104.113 136.186 104.708 135.489 105.524 135.489C106.34 135.489 106.799 136.101 106.799 137.104V142H109.332V137.189C109.332 136.186 109.91 135.489 110.726 135.489C111.525 135.489 111.967 136.101 111.967 137.104V139.654C111.967 141.286 112.715 142.102 114.228 142.102C114.721 142.102 115.078 142.068 115.316 141.983V139.841L115.214 139.858H115.061C114.636 139.858 114.5 139.62 114.5 138.957V136.798C114.5 134.571 113.412 133.245 111.491 133.245C110.08 133.245 109.145 133.704 108.669 134.605C108.278 133.704 107.496 133.245 106.34 133.245C105.303 133.245 104.436 133.755 104.113 134.503V133.432H101.58V142H104.113ZM116.015 137.716C116.015 138.974 116.423 140.028 117.222 140.895C118.038 141.745 119.058 142.17 120.265 142.17C121.608 142.17 122.543 141.762 123.104 140.929C123.223 141.286 123.478 141.592 123.869 141.847C124.226 142.051 124.702 142.153 125.263 142.153C125.756 142.153 126.13 142.102 126.402 142.017V139.909C126.249 139.926 126.096 139.943 125.977 139.943C125.518 139.943 125.348 139.671 125.348 138.991V133.432H122.815V134.554C122.56 133.806 121.557 133.279 120.265 133.279C119.058 133.279 118.038 133.704 117.222 134.571C116.423 135.421 116.015 136.475 116.015 137.716ZM120.724 139.858C120.112 139.858 119.602 139.654 119.177 139.246C118.752 138.821 118.548 138.311 118.548 137.716C118.548 137.121 118.752 136.611 119.177 136.203C119.602 135.778 120.112 135.574 120.724 135.574C121.353 135.574 121.88 135.778 122.305 136.203C122.747 136.611 122.968 137.121 122.968 137.716C122.968 138.311 122.747 138.821 122.305 139.246C121.88 139.654 121.353 139.858 120.724 139.858ZM133.745 137.716C133.745 138.974 134.153 140.028 134.952 140.895C135.768 141.745 136.788 142.17 137.995 142.17C139.338 142.17 140.273 141.762 140.834 140.929C140.953 141.286 141.208 141.592 141.599 141.847C141.956 142.051 142.432 142.153 142.993 142.153C143.486 142.153 143.86 142.102 144.132 142.017V139.909C143.979 139.926 143.826 139.943 143.707 139.943C143.248 139.943 143.078 139.671 143.078 138.991V133.432H140.545V134.554C140.29 133.806 139.287 133.279 137.995 133.279C136.788 133.279 135.768 133.704 134.952 134.571C134.153 135.421 133.745 136.475 133.745 137.716ZM138.454 139.858C137.842 139.858 137.332 139.654 136.907 139.246C136.482 138.821 136.278 138.311 136.278 137.716C136.278 137.121 136.482 136.611 136.907 136.203C137.332 135.778 137.842 135.574 138.454 135.574C139.083 135.574 139.61 135.778 140.035 136.203C140.477 136.611 140.698 137.121 140.698 137.716C140.698 138.311 140.477 138.821 140.035 139.246C139.61 139.654 139.083 139.858 138.454 139.858ZM152.293 139.161C152.293 141.201 153.279 142.221 155.251 142.221C155.744 142.221 156.152 142.187 156.492 142.102V139.858C156.203 139.909 155.982 139.926 155.846 139.926C155.081 139.926 154.758 139.603 154.758 138.787V135.727H156.662V133.432H154.758V130.151H152.293V133.432H151.171V135.727H152.293V139.161ZM157.675 138.634C157.675 140.861 158.882 142.187 161.041 142.187C162.282 142.187 163.132 141.762 163.557 140.929C163.676 141.286 163.931 141.592 164.322 141.847C164.679 142.051 165.155 142.153 165.716 142.153C166.209 142.153 166.583 142.102 166.855 142.017V139.909C166.702 139.926 166.549 139.943 166.43 139.943C165.971 139.943 165.801 139.671 165.801 138.991V133.432H163.268V138.243C163.268 139.246 162.622 139.943 161.687 139.943C160.735 139.943 160.208 139.331 160.208 138.328V133.432H157.675V138.634ZM167.307 140.708C168.14 141.728 169.381 142.238 171.047 142.238C173.563 142.238 174.821 141.099 174.821 139.348C174.821 138.209 174.124 137.393 172.713 136.917C171.761 136.577 171.047 136.458 170.724 136.322C170.452 136.203 170.367 136.084 170.367 135.863C170.367 135.54 170.673 135.319 171.217 135.319C171.948 135.319 172.56 135.523 173.019 135.948L174.226 134.282C173.461 133.551 172.492 133.177 171.285 133.177C170.35 133.177 169.568 133.415 168.922 133.908C168.276 134.384 167.953 135.064 167.953 135.931C167.953 137.07 168.616 137.852 169.925 138.311C170.18 138.396 170.571 138.515 171.081 138.634C171.591 138.753 171.931 138.872 172.118 138.974C172.305 139.076 172.407 139.212 172.407 139.382C172.407 139.841 171.982 140.079 171.115 140.079C170.146 140.079 169.245 139.705 168.769 139.144L167.307 140.708ZM186.798 133.16C185.472 133.16 184.35 133.602 183.432 134.469C182.531 135.336 182.072 136.407 182.072 137.699C182.072 138.991 182.531 140.062 183.432 140.929C184.35 141.796 185.472 142.221 186.798 142.221C188.209 142.221 189.399 141.694 190.368 140.623L188.77 139.042C188.209 139.637 187.563 139.926 186.798 139.926C185.574 139.926 184.605 138.991 184.605 137.699C184.605 136.407 185.557 135.455 186.798 135.455C187.563 135.455 188.209 135.744 188.77 136.339L190.368 134.758C189.399 133.687 188.209 133.16 186.798 133.16ZM191.46 139.212C191.46 141.218 192.429 142.221 194.384 142.221C194.894 142.221 195.302 142.187 195.591 142.102V139.858C195.421 139.909 195.217 139.926 194.979 139.926C194.282 139.926 193.993 139.586 193.993 138.821V130.151H191.46V139.212ZM196.558 139.739C196.558 141.354 197.306 142.153 198.802 142.153C199.363 142.153 199.754 142.102 199.975 142.017V139.858C199.924 139.875 199.822 139.892 199.669 139.892C199.244 139.892 199.091 139.62 199.091 138.991V133.432H196.558V139.739ZM196.371 131.273C196.371 132.072 197.017 132.701 197.816 132.701C198.615 132.701 199.261 132.072 199.261 131.273C199.261 130.457 198.615 129.828 197.816 129.828C197.017 129.828 196.371 130.457 196.371 131.273ZM200.616 137.767C200.616 139.11 201.041 140.181 201.908 140.997C202.775 141.796 203.897 142.204 205.308 142.204C206.753 142.204 207.994 141.677 208.997 140.64L207.518 139.229C206.923 139.79 206.226 140.062 205.427 140.062C204.084 140.062 203.2 139.399 203.149 138.379H209.626C209.643 138.124 209.66 137.852 209.66 137.563C209.66 136.322 209.252 135.302 208.436 134.469C207.62 133.636 206.566 133.211 205.257 133.211C203.914 133.211 202.792 133.619 201.925 134.452C201.058 135.268 200.616 136.356 200.616 137.699V137.767ZM203.183 136.73C203.251 135.931 204.152 135.302 205.257 135.302C206.277 135.302 207.11 135.931 207.11 136.73H203.183ZM213.451 142V137.189C213.451 136.186 214.148 135.489 215.1 135.489C216.103 135.489 216.63 136.101 216.63 137.104V139.654C216.63 141.286 217.378 142.102 218.891 142.102C219.418 142.102 219.792 142.068 219.996 141.983V139.841L219.894 139.858H219.724C219.299 139.858 219.163 139.62 219.163 138.957V136.798C219.163 134.571 217.973 133.245 215.916 133.245C214.76 133.245 213.808 133.755 213.451 134.503V133.432H210.918V142H213.451ZM221.455 139.161C221.455 141.201 222.441 142.221 224.413 142.221C224.906 142.221 225.314 142.187 225.654 142.102V139.858C225.365 139.909 225.144 139.926 225.008 139.926C224.243 139.926 223.92 139.603 223.92 138.787V135.727H225.824V133.432H223.92V130.151H221.455V133.432H220.333V135.727H221.455V139.161ZM226.548 137.767C226.548 139.11 226.973 140.181 227.84 140.997C228.707 141.796 229.829 142.204 231.24 142.204C232.685 142.204 233.926 141.677 234.929 140.64L233.45 139.229C232.855 139.79 232.158 140.062 231.359 140.062C230.016 140.062 229.132 139.399 229.081 138.379H235.558C235.575 138.124 235.592 137.852 235.592 137.563C235.592 136.322 235.184 135.302 234.368 134.469C233.552 133.636 232.498 133.211 231.189 133.211C229.846 133.211 228.724 133.619 227.857 134.452C226.99 135.268 226.548 136.356 226.548 137.699V137.767ZM229.115 136.73C229.183 135.931 230.084 135.302 231.189 135.302C232.209 135.302 233.042 135.931 233.042 136.73H229.115ZM236.137 140.708C236.97 141.728 238.211 142.238 239.877 142.238C242.393 142.238 243.651 141.099 243.651 139.348C243.651 138.209 242.954 137.393 241.543 136.917C240.591 136.577 239.877 136.458 239.554 136.322C239.282 136.203 239.197 136.084 239.197 135.863C239.197 135.54 239.503 135.319 240.047 135.319C240.778 135.319 241.39 135.523 241.849 135.948L243.056 134.282C242.291 133.551 241.322 133.177 240.115 133.177C239.18 133.177 238.398 133.415 237.752 133.908C237.106 134.384 236.783 135.064 236.783 135.931C236.783 137.07 237.446 137.852 238.755 138.311C239.01 138.396 239.401 138.515 239.911 138.634C240.421 138.753 240.761 138.872 240.948 138.974C241.135 139.076 241.237 139.212 241.237 139.382C241.237 139.841 240.812 140.079 239.945 140.079C238.976 140.079 238.075 139.705 237.599 139.144L236.137 140.708ZM60.0922 153.716C60.0922 154.974 60.5002 156.028 61.2992 156.895C62.1152 157.745 63.1352 158.17 64.3422 158.17C65.6852 158.17 66.6202 157.762 67.1812 156.929C67.3002 157.286 67.5552 157.592 67.9462 157.847C68.3032 158.051 68.7792 158.153 69.3402 158.153C69.8332 158.153 70.2072 158.102 70.4792 158.017V155.909C70.3262 155.926 70.1732 155.943 70.0542 155.943C69.5952 155.943 69.4252 155.671 69.4252 154.991V149.432H66.8922V150.554C66.6372 149.806 65.6342 149.279 64.3422 149.279C63.1352 149.279 62.1152 149.704 61.2992 150.571C60.5002 151.421 60.0922 152.475 60.0922 153.716ZM64.8012 155.858C64.1892 155.858 63.6792 155.654 63.2542 155.246C62.8292 154.821 62.6252 154.311 62.6252 153.716C62.6252 153.121 62.8292 152.611 63.2542 152.203C63.6792 151.778 64.1892 151.574 64.8012 151.574C65.4302 151.574 65.9572 151.778 66.3822 152.203C66.8242 152.611 67.0452 153.121 67.0452 153.716C67.0452 154.311 66.8242 154.821 66.3822 155.246C65.9572 155.654 65.4302 155.858 64.8012 155.858ZM75.742 149.16C74.416 149.16 73.294 149.602 72.376 150.469C71.475 151.336 71.016 152.407 71.016 153.699C71.016 154.991 71.475 156.062 72.376 156.929C73.294 157.796 74.416 158.221 75.742 158.221C77.153 158.221 78.343 157.694 79.312 156.623L77.714 155.042C77.153 155.637 76.507 155.926 75.742 155.926C74.518 155.926 73.549 154.991 73.549 153.699C73.549 152.407 74.501 151.455 75.742 151.455C76.507 151.455 77.153 151.744 77.714 152.339L79.312 150.758C78.343 149.687 77.153 149.16 75.742 149.16ZM80.9475 155.161C80.9475 157.201 81.9335 158.221 83.9055 158.221C84.3985 158.221 84.8065 158.187 85.1465 158.102V155.858C84.8575 155.909 84.6365 155.926 84.5005 155.926C83.7355 155.926 83.4125 155.603 83.4125 154.787V151.727H85.3165V149.432H83.4125V146.151H80.9475V149.432H79.8255V151.727H80.9475V155.161ZM86.3295 154.634C86.3295 156.861 87.5365 158.187 89.6955 158.187C90.9365 158.187 91.7865 157.762 92.2115 156.929C92.3305 157.286 92.5855 157.592 92.9765 157.847C93.3335 158.051 93.8095 158.153 94.3705 158.153C94.8635 158.153 95.2375 158.102 95.5095 158.017V155.909C95.3565 155.926 95.2035 155.943 95.0845 155.943C94.6255 155.943 94.4555 155.671 94.4555 154.991V149.432H91.9225V154.243C91.9225 155.246 91.2765 155.943 90.3415 155.943C89.3895 155.943 88.8625 155.331 88.8625 154.328V149.432H86.3295V154.634ZM96.1342 153.716C96.1342 154.974 96.5422 156.028 97.3412 156.895C98.1572 157.745 99.1772 158.17 100.384 158.17C101.727 158.17 102.662 157.762 103.223 156.929C103.342 157.286 103.597 157.592 103.988 157.847C104.345 158.051 104.821 158.153 105.382 158.153C105.875 158.153 106.249 158.102 106.521 158.017V155.909C106.368 155.926 106.215 155.943 106.096 155.943C105.637 155.943 105.467 155.671 105.467 154.991V149.432H102.934V150.554C102.679 149.806 101.676 149.279 100.384 149.279C99.1772 149.279 98.1572 149.704 97.3412 150.571C96.5422 151.421 96.1342 152.475 96.1342 153.716ZM100.843 155.858C100.231 155.858 99.7212 155.654 99.2962 155.246C98.8712 154.821 98.6672 154.311 98.6672 153.716C98.6672 153.121 98.8712 152.611 99.2962 152.203C99.7212 151.778 100.231 151.574 100.843 151.574C101.472 151.574 101.999 151.778 102.424 152.203C102.866 152.611 103.087 153.121 103.087 153.716C103.087 154.311 102.866 154.821 102.424 155.246C101.999 155.654 101.472 155.858 100.843 155.858ZM107.481 155.212C107.481 157.218 108.45 158.221 110.405 158.221C110.915 158.221 111.323 158.187 111.612 158.102V155.858C111.442 155.909 111.238 155.926 111 155.926C110.303 155.926 110.014 155.586 110.014 154.821V146.151H107.481V155.212ZM112.188 153.767C112.188 155.11 112.613 156.181 113.48 156.997C114.347 157.796 115.469 158.204 116.88 158.204C118.325 158.204 119.566 157.677 120.569 156.64L119.09 155.229C118.495 155.79 117.798 156.062 116.999 156.062C115.656 156.062 114.772 155.399 114.721 154.379H121.198C121.215 154.124 121.232 153.852 121.232 153.563C121.232 152.322 120.824 151.302 120.008 150.469C119.192 149.636 118.138 149.211 116.829 149.211C115.486 149.211 114.364 149.619 113.497 150.452C112.63 151.268 112.188 152.356 112.188 153.699V153.767ZM114.755 152.73C114.823 151.931 115.724 151.302 116.829 151.302C117.849 151.302 118.682 151.931 118.682 152.73H114.755ZM121.777 156.708C122.61 157.728 123.851 158.238 125.517 158.238C128.033 158.238 129.291 157.099 129.291 155.348C129.291 154.209 128.594 153.393 127.183 152.917C126.231 152.577 125.517 152.458 125.194 152.322C124.922 152.203 124.837 152.084 124.837 151.863C124.837 151.54 125.143 151.319 125.687 151.319C126.418 151.319 127.03 151.523 127.489 151.948L128.696 150.282C127.931 149.551 126.962 149.177 125.755 149.177C124.82 149.177 124.038 149.415 123.392 149.908C122.746 150.384 122.423 151.064 122.423 151.931C122.423 153.07 123.086 153.852 124.395 154.311C124.65 154.396 125.041 154.515 125.551 154.634C126.061 154.753 126.401 154.872 126.588 154.974C126.775 155.076 126.877 155.212 126.877 155.382C126.877 155.841 126.452 156.079 125.585 156.079C124.616 156.079 123.715 155.705 123.239 155.144L121.777 156.708ZM137.132 161.57C137.489 161.655 137.863 161.689 138.254 161.689C139.223 161.689 139.988 161.434 140.549 160.941C140.923 160.618 141.246 160.091 141.535 159.36L145.343 149.432H142.759L140.651 155.382L138.322 149.432H135.738L139.393 158.408L139.257 158.782C139.189 159.037 139.07 159.207 138.9 159.326C138.73 159.445 138.492 159.513 138.169 159.513C137.744 159.513 137.404 159.462 137.132 159.377V161.57ZM155.121 161.281V156.878C155.376 157.626 156.379 158.153 157.671 158.153C158.878 158.153 159.898 157.728 160.697 156.878C161.513 156.011 161.921 154.957 161.921 153.716C161.921 152.475 161.513 151.421 160.697 150.571C159.898 149.704 158.878 149.279 157.671 149.279C156.379 149.279 155.376 149.806 155.121 150.554V149.432H152.588V161.281H155.121ZM157.212 155.858C156.583 155.858 156.056 155.654 155.614 155.246C155.189 154.821 154.968 154.311 154.968 153.716C154.968 153.121 155.189 152.611 155.614 152.203C156.056 151.778 156.583 151.574 157.212 151.574C157.824 151.574 158.334 151.778 158.759 152.203C159.184 152.611 159.388 153.121 159.388 153.716C159.388 154.311 159.184 154.821 158.759 155.246C158.334 155.654 157.824 155.858 157.212 155.858ZM167.616 149.177C166.29 149.177 165.168 149.619 164.233 150.503C163.315 151.37 162.856 152.441 162.856 153.716C162.856 154.991 163.315 156.062 164.233 156.946C165.168 157.813 166.29 158.255 167.616 158.255C168.925 158.255 170.047 157.813 170.982 156.946C171.917 156.062 172.376 154.991 172.376 153.716C172.376 152.441 171.917 151.37 170.982 150.503C170.047 149.619 168.925 149.177 167.616 149.177ZM165.389 153.716C165.389 153.087 165.61 152.56 166.035 152.135C166.46 151.693 166.987 151.472 167.616 151.472C168.245 151.472 168.772 151.693 169.197 152.135C169.622 152.56 169.843 153.087 169.843 153.716C169.843 154.345 169.622 154.872 169.197 155.314C168.772 155.739 168.245 155.96 167.616 155.96C166.987 155.96 166.46 155.739 166.035 155.314C165.61 154.889 165.389 154.345 165.389 153.716ZM174.198 155.161C174.198 157.201 175.184 158.221 177.156 158.221C177.649 158.221 178.057 158.187 178.397 158.102V155.858C178.108 155.909 177.887 155.926 177.751 155.926C176.986 155.926 176.663 155.603 176.663 154.787V151.727H178.567V149.432H176.663V146.151H174.198V149.432H173.076V151.727H174.198V155.161ZM179.291 153.767C179.291 155.11 179.716 156.181 180.583 156.997C181.45 157.796 182.572 158.204 183.983 158.204C185.428 158.204 186.669 157.677 187.672 156.64L186.193 155.229C185.598 155.79 184.901 156.062 184.102 156.062C182.759 156.062 181.875 155.399 181.824 154.379H188.301C188.318 154.124 188.335 153.852 188.335 153.563C188.335 152.322 187.927 151.302 187.111 150.469C186.295 149.636 185.241 149.211 183.932 149.211C182.589 149.211 181.467 149.619 180.6 150.452C179.733 151.268 179.291 152.356 179.291 153.699V153.767ZM181.858 152.73C181.926 151.931 182.827 151.302 183.932 151.302C184.952 151.302 185.785 151.931 185.785 152.73H181.858ZM192.126 158V153.189C192.126 152.186 192.823 151.489 193.775 151.489C194.778 151.489 195.305 152.101 195.305 153.104V155.654C195.305 157.286 196.053 158.102 197.566 158.102C198.093 158.102 198.467 158.068 198.671 157.983V155.841L198.569 155.858H198.399C197.974 155.858 197.838 155.62 197.838 154.957V152.798C197.838 150.571 196.648 149.245 194.591 149.245C193.435 149.245 192.483 149.755 192.126 150.503V149.432H189.593V158H192.126ZM204.089 149.16C202.763 149.16 201.641 149.602 200.723 150.469C199.822 151.336 199.363 152.407 199.363 153.699C199.363 154.991 199.822 156.062 200.723 156.929C201.641 157.796 202.763 158.221 204.089 158.221C205.5 158.221 206.69 157.694 207.659 156.623L206.061 155.042C205.5 155.637 204.854 155.926 204.089 155.926C202.865 155.926 201.896 154.991 201.896 153.699C201.896 152.407 202.848 151.455 204.089 151.455C204.854 151.455 205.5 151.744 206.061 152.339L207.659 150.758C206.69 149.687 205.5 149.16 204.089 149.16ZM208.801 155.739C208.801 157.354 209.549 158.153 211.045 158.153C211.606 158.153 211.997 158.102 212.218 158.017V155.858C212.167 155.875 212.065 155.892 211.912 155.892C211.487 155.892 211.334 155.62 211.334 154.991V149.432H208.801V155.739ZM208.614 147.273C208.614 148.072 209.26 148.701 210.059 148.701C210.858 148.701 211.504 148.072 211.504 147.273C211.504 146.457 210.858 145.828 210.059 145.828C209.26 145.828 208.614 146.457 208.614 147.273ZM212.876 153.716C212.876 154.974 213.284 156.028 214.083 156.895C214.899 157.745 215.919 158.17 217.126 158.17C218.469 158.17 219.404 157.762 219.965 156.929C220.084 157.286 220.339 157.592 220.73 157.847C221.087 158.051 221.563 158.153 222.124 158.153C222.617 158.153 222.991 158.102 223.263 158.017V155.909C223.11 155.926 222.957 155.943 222.838 155.943C222.379 155.943 222.209 155.671 222.209 154.991V149.432H219.676V150.554C219.421 149.806 218.418 149.279 217.126 149.279C215.919 149.279 214.899 149.704 214.083 150.571C213.284 151.421 212.876 152.475 212.876 153.716ZM217.585 155.858C216.973 155.858 216.463 155.654 216.038 155.246C215.613 154.821 215.409 154.311 215.409 153.716C215.409 153.121 215.613 152.611 216.038 152.203C216.463 151.778 216.973 151.574 217.585 151.574C218.214 151.574 218.741 151.778 219.166 152.203C219.608 152.611 219.829 153.121 219.829 153.716C219.829 154.311 219.608 154.821 219.166 155.246C218.741 155.654 218.214 155.858 217.585 155.858ZM224.223 155.212C224.223 157.218 225.192 158.221 227.147 158.221C227.657 158.221 228.065 158.187 228.354 158.102V155.858C228.184 155.909 227.98 155.926 227.742 155.926C227.045 155.926 226.756 155.586 226.756 154.821V146.151H224.223V155.212ZM228.93 153.767C228.93 155.11 229.355 156.181 230.222 156.997C231.089 157.796 232.211 158.204 233.622 158.204C235.067 158.204 236.308 157.677 237.311 156.64L235.832 155.229C235.237 155.79 234.54 156.062 233.741 156.062C232.398 156.062 231.514 155.399 231.463 154.379H237.94C237.957 154.124 237.974 153.852 237.974 153.563C237.974 152.322 237.566 151.302 236.75 150.469C235.934 149.636 234.88 149.211 233.571 149.211C232.228 149.211 231.106 149.619 230.239 150.452C229.372 151.268 228.93 152.356 228.93 153.699V153.767ZM231.497 152.73C231.565 151.931 232.466 151.302 233.571 151.302C234.591 151.302 235.424 151.931 235.424 152.73H231.497ZM238.519 156.708C239.352 157.728 240.593 158.238 242.259 158.238C244.775 158.238 246.033 157.099 246.033 155.348C246.033 154.209 245.336 153.393 243.925 152.917C242.973 152.577 242.259 152.458 241.936 152.322C241.664 152.203 241.579 152.084 241.579 151.863C241.579 151.54 241.885 151.319 242.429 151.319C243.16 151.319 243.772 151.523 244.231 151.948L245.438 150.282C244.673 149.551 243.704 149.177 242.497 149.177C241.562 149.177 240.78 149.415 240.134 149.908C239.488 150.384 239.165 151.064 239.165 151.931C239.165 153.07 239.828 153.852 241.137 154.311C241.392 154.396 241.783 154.515 242.293 154.634C242.803 154.753 243.143 154.872 243.33 154.974C243.517 155.076 243.619 155.212 243.619 155.382C243.619 155.841 243.194 156.079 242.327 156.079C241.358 156.079 240.457 155.705 239.981 155.144L238.519 156.708Z" fill="#595958"/>
<path d="M130.48 119.31H174.945" stroke="#ED1164" stroke-width="2" stroke-miterlimit="10" stroke-linecap="round" stroke-linejoin="round"/>
<circle cx="37.5" cy="37.5" r="37.5" fill="#ED1164"/>
<g clip-path="url(#clip0_2292_4523)">
<path d="M58.5911 32.5064L52.0055 28.5245C52.0055 28.511 52.0055 28.4839 52.0055 28.4568V15.8609C52.0055 15.4952 51.7098 15.1973 51.3604 15.1973H48.4977C48.1348 15.1973 47.8526 15.4952 47.8526 15.8609C47.8526 16.2266 48.1482 16.511 48.4977 16.511H50.7153V27.739L44.8957 24.2175H47.8929C48.2558 24.2175 48.538 23.9196 48.538 23.5539C48.538 23.1882 48.2423 22.9038 47.8929 22.9038H42.8125C42.7857 22.9038 42.7453 22.9038 42.7185 22.9173L40.2455 21.4275H47.8794C48.2423 21.4275 48.5246 21.1295 48.5246 20.7638C48.5246 20.3981 48.2289 20.1002 47.8794 20.1002H38.1488C38.122 20.1002 38.1085 20.1002 38.0816 20.1002L34.762 18.0957C34.4528 17.9061 34.0496 18.0144 33.8615 18.3124L33.633 18.6916H27.0339C26.6711 18.6916 26.3888 18.9896 26.3888 19.3553V26.3575C26.3888 26.7232 26.6845 27.0211 27.0339 27.0211H28.6871L24.2115 34.5245V16.511H45.4737C45.8365 16.511 46.1188 16.2131 46.1188 15.8609C46.1188 15.4952 45.8231 15.1973 45.4737 15.1973H23.553C23.2035 15.1973 22.9079 15.4952 22.9079 15.8609V36.7186L16.6986 47.1474C16.5104 47.459 16.6179 47.8653 16.927 48.0413L35.985 59.5672C36.1328 59.6621 36.3076 59.6891 36.4823 59.6485L44.1028 57.7253C44.2641 57.6846 44.4119 57.5763 44.506 57.4273L48.8606 50.1136H51.3604C51.7233 50.1136 52.0055 49.8156 52.0055 49.4499V44.8179L58.8196 33.3868C58.9943 33.1024 58.9003 32.696 58.5911 32.5064ZM29.4666 25.6938H27.6791V20.0054H32.8535L29.4666 25.6938ZM37.6919 57.9826L39.4122 55.0977L42.2749 56.8314L41.8045 56.9533L37.6919 57.9826ZM50.7018 48.8134H49.6401L50.7018 47.0255V48.8134ZM43.7265 56.1813L39.5197 53.635C39.2106 53.4454 38.8074 53.5537 38.6192 53.8652L36.0925 58.1045L18.1501 47.2423L34.641 19.5584L57.3547 33.3055L43.7265 56.1813Z" fill="white"/>
<path d="M39.089 27.143L43.8602 30.0279C43.9678 30.0956 44.0753 30.1227 44.1962 30.1227C44.4113 30.1227 44.6398 30.0143 44.7607 29.8112C44.9489 29.4997 44.8414 29.0933 44.5322 28.9037L39.7745 26.0189C39.4519 25.8292 39.0487 25.9376 38.8606 26.2491C38.6858 26.5471 38.7799 26.9534 39.089 27.143Z" fill="white"/>
<path d="M46.2396 31.4636L52.7983 35.4319C53.1209 35.6351 53.5644 35.4861 53.7257 35.1475C53.8601 34.8496 53.7526 34.4839 53.4703 34.3078L46.9116 30.3394C46.6025 30.1498 46.1993 30.2582 46.0246 30.5697C45.823 30.8812 45.9305 31.2739 46.2396 31.4636Z" fill="white"/>
<path d="M32.7726 28.2265L38.1352 31.4771C38.2427 31.5448 38.3502 31.5719 38.4712 31.5719C38.6862 31.5719 38.9147 31.4635 39.0357 31.2468C39.2238 30.9353 39.1163 30.529 38.8072 30.3394L33.4446 27.1024C33.1355 26.9127 32.7323 27.0076 32.5441 27.3191C32.3694 27.6306 32.4635 28.0369 32.7726 28.2265Z" fill="white"/>
<path d="M51.3209 37.9105L41.1872 31.7886C40.878 31.599 40.4748 31.7074 40.3001 32.0189C40.112 32.3304 40.2195 32.7367 40.5286 32.9263L50.6624 39.0482C50.9849 39.2514 51.4285 39.1024 51.5897 38.7638C51.7107 38.4387 51.6032 38.073 51.3209 37.9105Z" fill="white"/>
<path d="M49.5351 40.9036L31.6598 30.0955C31.3507 29.9059 30.9475 30.0143 30.7728 30.3258C30.5846 30.6373 30.6921 31.0436 31.0013 31.2332L48.8631 42.0413C49.1856 42.2444 49.6291 42.0955 49.7904 41.7569C49.9248 41.4454 49.8039 41.0797 49.5351 40.9036Z" fill="white"/>
<path d="M47.7458 43.9105L34.0504 35.6216C33.7413 35.432 33.3381 35.5404 33.1634 35.8519C32.9752 36.1634 33.0828 36.5697 33.3919 36.7593L47.0873 45.0482C47.4098 45.2514 47.8534 45.1024 48.0146 44.7638C48.1356 44.4523 48.0146 44.0866 47.7458 43.9105Z" fill="white"/>
<path d="M27.4094 37.2333L38.1346 43.7209C38.2421 43.7886 38.3496 43.8157 38.4706 43.8157C38.6856 43.8157 38.9007 43.7073 39.0351 43.4906C39.2232 43.1791 39.1157 42.7728 38.8066 42.5967L28.0814 36.1092C27.7723 35.9196 27.3691 36.0279 27.1944 36.3394C27.0062 36.6374 27.1003 37.0437 27.4094 37.2333Z" fill="white"/>
<path d="M45.9601 46.9171L41.1889 44.0323C40.8798 43.8427 40.4766 43.951 40.2884 44.2625C40.1002 44.574 40.2078 44.9804 40.5169 45.17L45.2747 48.0548C45.5972 48.258 46.0407 48.109 46.202 47.7704C46.3499 47.4454 46.2289 47.0797 45.9601 46.9171Z" fill="white"/>
<path d="M25.6243 40.2265L29.7907 42.7457C29.8982 42.8134 30.0057 42.8405 30.1267 42.8405C30.3417 42.8405 30.5568 42.7321 30.6912 42.5154C30.8793 42.2039 30.7718 41.7976 30.4627 41.6215L26.2963 39.1024C25.9872 38.9127 25.584 39.0211 25.4092 39.3326C25.2211 39.6441 25.3151 40.0369 25.6243 40.2265Z" fill="white"/>
<path d="M44.1695 49.9104L32.8529 43.0572C32.5438 42.8676 32.1406 42.9759 31.9525 43.2874C31.7643 43.5989 31.8718 44.0053 32.1809 44.1813L43.4975 51.0346C43.82 51.2377 44.2635 51.1023 44.4248 50.7502C44.5592 50.4522 44.4383 50.0865 44.1695 49.9104Z" fill="white"/>
<path d="M42.371 52.9173L24.4958 42.1092C24.1866 41.9196 23.7834 42.0279 23.6087 42.3394C23.4206 42.6509 23.5281 43.0573 23.8372 43.2469L41.7124 54.055C42.035 54.2581 42.4785 54.1091 42.6398 53.7705C42.7742 53.459 42.6532 53.0798 42.371 52.9173Z" fill="white"/>
<path d="M29.8724 49.4363L22.7223 45.1158C22.4132 44.9262 22.01 45.0345 21.8353 45.346C21.6471 45.6575 21.7546 46.0639 22.0638 46.2399L29.2139 50.5605C29.3214 50.6282 29.4289 50.6553 29.5499 50.6553C29.7649 50.6553 29.9799 50.5469 30.1143 50.3302C30.2756 50.0187 30.1815 49.6124 29.8724 49.4363Z" fill="white"/>
<path d="M36.4161 53.3913L32.2497 50.8721C31.9405 50.6825 31.5373 50.7909 31.3626 51.1024C31.1745 51.4139 31.282 51.8202 31.5911 52.0098L35.7575 54.529C36.0801 54.7322 36.5236 54.5832 36.6849 54.2446C36.8058 53.9331 36.6983 53.5674 36.4161 53.3913Z" fill="white"/>
</g>
<defs>
<clipPath id="clip0_2292_4523">
<rect width="42.2958" height="44.4648" fill="white" transform="translate(16.6055 15.1973)"/>
</clipPath>
</defs>
</svg>
