<svg width="95" height="86" viewBox="0 0 95 86" fill="none" xmlns="http://www.w3.org/2000/svg">
<path d="M83.7366 78.0034C90.6837 69.7304 94.8608 59.0465 94.8273 47.3837C94.7547 21.6585 73.8857 0.50895 48.2029 0.150957C21.7774 -0.218224 0.238281 21.1327 0.238281 47.518C0.238281 59.1304 4.40985 69.7639 11.329 78.0034C11.5579 78.2775 11.9767 78.2887 12.228 78.0369L47.5328 42.6739L82.8375 78.0369C83.0888 78.2942 83.5077 78.2775 83.7366 78.0034Z" fill="#01A5EC"/>
<path d="M47.5322 85.7268C68.677 85.7268 85.8183 68.5855 85.8183 47.4407C85.8183 26.2958 68.677 9.15454 47.5322 9.15454C26.3874 9.15454 9.24609 26.2958 9.24609 47.4407C9.24609 68.5855 26.3874 85.7268 47.5322 85.7268Z" fill="#EAF9FF"/>
<mask id="mask0_2225_4522" style="mask-type:alpha" maskUnits="userSpaceOnUse" x="9" y="9" width="77" height="77">
<path d="M47.5751 85.8125C68.7436 85.8125 85.904 68.652 85.904 47.4835C85.904 26.315 68.7436 9.15454 47.5751 9.15454C26.4066 9.15454 9.24609 26.315 9.24609 47.4835C9.24609 68.652 26.4066 85.8125 47.5751 85.8125Z" fill="#FBC000"/>
</mask>
<g mask="url(#mask0_2225_4522)">
<g opacity="0.8">
<path d="M60.2943 88.7292L25.7617 68.2098L32.7683 59.7018L37.7731 56.9658L44.2792 53.1957L46.2811 49.1919L56.791 45.6886L49.7844 18.6631L89.3217 57.1994L73.4639 80.7688L60.2943 88.7292Z" fill="#01A5EC" fill-opacity="0.5" style="mix-blend-mode:multiply"/>
</g>
</g>
<path d="M46.7165 64.4338L43.834 66.7028C43.0373 67.3299 41.8852 67.1927 41.2582 66.3961C40.6311 65.5994 40.7683 64.4473 41.565 63.8203L44.4475 61.5513C45.2427 60.9253 45.3802 59.7707 44.7542 58.9755L42.668 56.3252C42.0409 55.5285 42.1781 54.3764 42.9747 53.7494C43.7714 53.1223 44.9235 53.2595 45.5505 54.0561L47.6367 56.7064C49.5137 59.0906 49.101 62.5568 46.7165 64.4338Z" fill="#252320"/>
<path d="M49.196 76.4839C47.604 77.7371 45.2975 77.4624 44.0444 75.8704L32.699 61.4576L38.4641 56.9194L49.8095 71.3322C51.0628 72.9243 50.7881 75.2307 49.196 76.4839Z" fill="#434041"/>
<path d="M34.4492 45.8877L41.4835 54.8238L40.7339 59.8025L30.6448 67.7443C28.2524 69.6276 24.7553 69.159 22.872 66.7663L18.3338 61.0011C16.4732 58.6374 16.9068 55.2146 19.2996 53.3314L29.3886 45.3896L34.4492 45.8877Z" fill="#ED1164"/>
<path d="M37.9433 50.3266L41.4831 54.8234L40.7334 59.8021L30.6444 67.7439C28.2519 69.6272 24.7549 69.1586 22.8716 66.7659L20.6478 63.9409L37.9433 50.3266Z" fill="#CB1862"/>
<path d="M59.896 25.0087C58.891 24.8902 58.172 23.9767 58.2918 22.9707L58.7245 19.3269C58.8441 18.3206 59.7562 17.6026 60.7625 17.7225C61.7675 17.841 62.4865 18.7544 62.3667 19.7604L61.934 23.4042C61.8143 24.4105 60.9023 25.1285 59.896 25.0087Z" fill="#ED1164"/>
<path d="M73.1636 37.6723L69.5202 37.2372C68.514 37.1174 67.7949 36.204 67.9159 35.1993C68.0358 34.1931 68.9479 33.4752 69.9539 33.595L73.5974 34.0301C74.6035 34.1499 75.3227 35.0634 75.2016 36.0681C75.0818 37.0741 74.1698 37.7921 73.1636 37.6723Z" fill="#ED1164"/>
<path d="M72.5372 23.0979C73.1725 23.9049 73.0376 25.0383 72.2304 25.6736L67.9066 29.0772C67.0994 29.7127 65.966 29.5776 65.3308 28.7705C64.6954 27.9633 64.8303 26.83 65.6375 26.1947L69.9614 22.7911C70.7685 22.1557 71.9017 22.2906 72.5372 23.0979Z" fill="#ED1164"/>
<path d="M50.3302 24.547L66.2138 44.725C66.6676 45.3016 66.6643 50.8132 67.3217 50.9961L62.1217 51.448C54.4223 52.0462 46.7934 55.3437 41.3742 59.6095L40.8842 59.9953L29.5385 45.5823L30.0286 45.1965C35.7362 40.7036 40.3005 34.4027 42.7661 26.8594L44.451 21.7047L50.3302 24.547Z" fill="white"/>
<path d="M32.1789 54.865C32.8142 55.6721 32.6794 56.8055 31.8722 57.4408L28.9896 59.71C28.1824 60.3454 27.0491 60.2103 26.4139 59.4032C25.7784 58.596 25.9134 57.4627 26.7206 56.8274L29.6031 54.5584C30.4103 53.923 31.5436 54.0579 32.1789 54.865Z" fill="white"/>
<path d="M57.7238 34.1478L65.6656 44.2368C66.1194 44.8134 66.7345 50.9153 67.3919 51.0982L61.4342 51.3761C53.7348 51.9744 47.1369 55.1304 41.7177 59.3963L40.6861 59.7672L34.6632 52.3006L57.7238 34.1478Z" fill="#E0E0E0"/>
<path d="M32.1789 54.8647C32.8142 55.6718 32.6794 56.8052 31.8722 57.4405L28.9896 59.7096C28.1824 60.345 27.049 60.21 26.4139 59.4029L32.1789 54.8647Z" fill="#CBCBCD"/>
<path d="M50.7345 19.5805L71.1562 45.5237C72.4042 47.1091 72.1281 49.4274 70.5427 50.6754C70.3698 50.8115 70.1514 50.8899 69.9329 50.9684C69.0412 51.4371 68.038 51.5265 67.1124 51.1811C66.4551 50.9984 65.8448 50.6384 65.391 50.0619L44.9692 24.1185C44.4472 23.4554 44.2529 22.6748 44.2418 21.8898C44.2309 21.1048 44.4776 20.3503 44.9467 19.701C45.1607 19.439 45.3232 19.1712 45.5827 18.9669C47.1681 17.719 49.4865 17.9951 50.7345 19.5805Z" fill="#01A5EC"/>
<path d="M60.9994 32.5635L71.2103 45.535C72.4583 47.1204 72.1822 49.4387 70.5968 50.6867C70.4238 50.8228 70.2055 50.9012 69.987 50.9797C69.0952 51.4484 68.092 51.5378 67.1664 51.1924C66.5091 51.0097 65.8989 50.6497 65.445 50.0731L55.2342 37.1016L60.9994 32.5635Z" fill="#009DDF"/>
</svg>
