<svg width="54" height="54" viewBox="0 0 54 54" fill="none" xmlns="http://www.w3.org/2000/svg">
<path d="M0.898598 48.7955H2.23847V35.3523C1.0105 35.0065 0.107582 33.8771 0.107582 32.5401C0.107582 30.929 1.41835 29.6183 3.02949 29.6183C4.5977 29.6183 5.88084 30.8603 5.94802 32.4121C7.34822 30.8431 8.25441 28.2709 8.82204 25.9783C9.5985 22.8418 9.88327 19.6646 9.97619 18.2944C8.76857 17.9356 7.88506 16.8162 7.88506 15.4936C7.88506 13.8825 9.19582 12.5718 10.8069 12.5718C12.4179 12.5718 13.7287 13.8825 13.7287 15.4936C13.7287 16.8305 12.8257 17.9599 11.5979 18.3057V32.9111L14.4906 27.8546V22.9514C14.4906 22.5145 14.8446 22.1604 15.2816 22.1604H16.6213V17.8374C16.6213 17.4006 16.9754 17.0464 17.4124 17.0464H36.5897C37.0267 17.0464 37.3808 17.4006 37.3808 17.8374V22.1604H38.7205C39.1575 22.1604 39.5115 22.5145 39.5115 22.9514V27.8546L42.4042 32.9111V18.3057C41.1764 17.9598 40.2735 16.8305 40.2735 15.4936C40.2735 13.8825 41.5842 12.5718 43.1953 12.5718C44.8063 12.5718 46.1171 13.8825 46.1171 15.4936C46.1171 16.8162 45.2334 17.9357 44.0257 18.2944C44.1181 19.6604 44.4013 22.8238 45.175 25.958C45.743 28.2584 46.6505 30.8396 48.054 32.4123C48.1211 30.8603 49.4043 29.6182 50.9725 29.6182C52.5837 29.6182 53.8944 30.9289 53.8944 32.54C53.8944 33.877 52.9914 35.0062 51.7635 35.3522V48.7954H53.1035C53.5405 48.7954 53.8945 49.1496 53.8945 49.5865V53.209C53.8945 53.6458 53.5405 54 53.1035 54H42.356C41.9191 54 41.565 53.6458 41.565 53.209C41.565 52.7721 41.9191 52.418 42.356 52.418H48.0508V49.5866C48.0508 49.1497 48.4049 48.7955 48.8418 48.7955H49.6676L44.9048 40.4693H41.0644C40.6274 40.4693 40.2733 40.1152 40.2733 39.6783V36.0559C40.2733 35.619 40.6274 35.2649 41.0644 35.2649H41.9282L38.262 28.8562H23.2794C22.8424 28.8562 22.4884 28.502 22.4884 28.0651C22.4884 27.6283 22.8424 27.2741 23.2794 27.2741H37.9295V23.7424H33.9242C33.4873 23.7424 33.1332 23.3882 33.1332 22.9514C33.1332 22.5145 33.4873 22.1604 33.9242 22.1604H35.7986V18.6284H18.2033V22.1604H30.2291C30.6661 22.1604 31.0202 22.5145 31.0202 22.9514C31.0202 23.3882 30.6661 23.7424 30.2291 23.7424H16.0725V27.2742H19.5801C20.017 27.2742 20.3711 27.6284 20.3711 28.0652C20.3711 28.5021 20.017 28.8563 19.5801 28.8563H15.7401L12.0739 35.265H12.9376C13.3746 35.265 13.7287 35.6191 13.7287 36.056V39.6784C13.7287 40.1153 13.3746 40.4694 12.9376 40.4694H9.09721L4.33445 48.7957H5.16017C5.59712 48.7957 5.95118 49.1498 5.95118 49.5867V52.418H38.6619C39.0988 52.418 39.4529 52.7721 39.4529 53.209C39.4529 53.6458 39.0988 54 38.6619 54H0.898598C0.461643 54 0.107582 53.6458 0.107582 53.209V49.5866C0.107582 49.1497 0.461643 48.7955 0.898598 48.7955ZM44.535 15.4936C44.535 14.7549 43.9341 14.1538 43.1953 14.1538C42.4564 14.1538 41.8555 14.7549 41.8555 15.4936C41.8555 16.2323 42.4564 16.8333 43.1953 16.8333C43.9341 16.8333 44.535 16.2324 44.535 15.4936ZM46.0875 32.4457C45.2678 31.2143 44.5634 29.5959 43.9863 27.6249V35.2649H45.326C45.763 35.2649 46.1171 35.619 46.1171 36.0559V39.4024L50.1816 46.508V35.3992C48.6066 35.1539 47.2319 34.1649 46.0875 32.4457ZM52.3125 32.5401C52.3125 31.8014 51.7114 31.2003 50.9726 31.2003C50.2338 31.2003 49.6329 31.8014 49.6329 32.5401C49.6329 33.2789 50.2338 33.8799 50.9726 33.8799C51.7114 33.8799 52.3125 33.2789 52.3125 32.5401ZM49.6329 52.418H52.3125V50.3776H49.6329V52.418ZM41.8555 38.8873H44.535V36.8469H41.8555V38.8873ZM3.02949 31.2003C2.29068 31.2003 1.68961 31.8014 1.68961 32.5401C1.68961 33.2789 2.29068 33.8799 3.02949 33.8799C3.7683 33.8799 4.36926 33.2789 4.36926 32.5401C4.36926 31.8014 3.7683 31.2003 3.02949 31.2003ZM7.91459 32.4457C6.77026 34.1649 5.39547 35.1539 3.8205 35.3992V46.508L7.88506 39.4024V36.0559C7.88506 35.619 8.23912 35.2649 8.67607 35.2649H10.0158V27.6249C9.43872 29.596 8.73429 31.2143 7.91459 32.4457ZM12.1466 15.4936C12.1466 14.7549 11.5457 14.1538 10.8069 14.1538C10.0681 14.1538 9.46709 14.7549 9.46709 15.4936C9.46709 16.2323 10.0681 16.8333 10.8069 16.8333C11.5457 16.8333 12.1466 16.2324 12.1466 15.4936ZM9.46709 38.8873H12.1466V36.8469H9.46709V38.8873ZM1.68961 52.418H4.36926V50.3776H1.68961V52.418Z" fill="white"/>
<path d="M19.7893 9.5157L18.2867 10.2671C18.098 10.3615 17.9509 10.5212 17.8726 10.7171L16.8673 13.2305C16.747 13.5308 16.4563 13.7277 16.1328 13.7277C15.8093 13.7277 15.5185 13.5308 15.3983 13.2305L14.3931 10.7172C14.3147 10.5212 14.1675 10.3614 13.9788 10.2671L12.4762 9.5157C12.2082 9.38165 12.0389 9.10785 12.0389 8.80822C12.0389 8.50858 12.2082 8.23468 12.4762 8.10073L13.9788 7.34937C14.1675 7.25498 14.3147 7.09519 14.393 6.89934L15.3983 4.38591C15.5185 4.08564 15.8093 3.88873 16.1328 3.88873C16.4563 3.88873 16.747 4.08564 16.8673 4.38591L17.8726 6.89944C17.9509 7.09519 18.098 7.25508 18.2867 7.34937L19.7893 8.10073C20.0572 8.23468 20.2266 8.50858 20.2266 8.80822C20.2266 9.10785 20.0573 9.38165 19.7893 9.5157ZM17.5791 8.76434C17.0435 8.49656 16.6261 8.04283 16.4036 7.4869L16.1328 6.80958L15.8618 7.48701C15.6394 8.04294 15.222 8.49656 14.6864 8.76434L14.5988 8.80822L14.6864 8.85209C15.2219 9.11988 15.6393 9.5735 15.862 10.1295L16.1328 10.8068L16.4036 10.1296C16.626 9.5736 17.0434 9.11988 17.5791 8.85209L17.6667 8.80822L17.5791 8.76434Z" fill="white"/>
<path d="M41.5237 9.51569L40.0211 10.267C39.8324 10.3614 39.6851 10.5212 39.6069 10.7171L38.6016 13.2304C38.4813 13.5307 38.1905 13.7276 37.8671 13.7276C37.5436 13.7276 37.2528 13.5307 37.1326 13.2304L36.1273 10.7169C36.049 10.5211 35.9019 10.3612 35.7132 10.2669L34.2106 9.51558C33.9426 9.38153 33.7733 9.10773 33.7733 8.8081C33.7733 8.50846 33.9426 8.23456 34.2106 8.10061L35.7132 7.34925C35.9019 7.25486 36.049 7.09507 36.1273 6.89922L37.1326 4.38579C37.2528 4.08552 37.5436 3.88861 37.8671 3.88861C38.1905 3.88861 38.4813 4.08552 38.6016 4.38579L39.6068 6.89911C39.6851 7.09507 39.8324 7.25496 40.0211 7.34925L41.5237 8.10061C41.7916 8.23456 41.9609 8.50846 41.9609 8.8081C41.9609 9.10773 41.7917 9.38163 41.5237 9.51569ZM39.3135 8.76433C38.778 8.49654 38.3606 8.04292 38.1379 7.48689L37.8671 6.80957L37.5962 7.48678C37.3739 8.04281 36.9564 8.49654 36.4208 8.76433L36.3331 8.8082L36.4208 8.85208C36.9563 9.11986 37.3738 9.57359 37.5962 10.1295L37.8671 10.8068L38.138 10.1294C38.3604 9.57348 38.7779 9.11986 39.3135 8.85208L39.4011 8.8082L39.3135 8.76433Z" fill="white"/>
<path d="M30.6564 5.62707L29.1538 6.37833C28.9651 6.47272 28.8179 6.63251 28.7397 6.82836L27.7344 9.34179C27.6141 9.64206 27.3233 9.83897 26.9999 9.83897C26.6764 9.83897 26.3856 9.64206 26.2654 9.34179L25.2601 6.82826C25.1818 6.63251 25.0347 6.47262 24.8461 6.37833L23.3434 5.62697C23.0754 5.49292 22.9061 5.21902 22.9061 4.91948C22.9061 4.61995 23.0754 4.34595 23.3434 4.212L24.8461 3.46064C25.0348 3.36625 25.1819 3.20646 25.2602 3.01061L26.2655 0.49718C26.3856 0.19691 26.6765 0 26.9999 0C27.3232 0 27.6141 0.19691 27.7344 0.49718L28.7397 3.01071C28.8179 3.20646 28.9651 3.36635 29.1538 3.46064L30.6565 4.212C30.9244 4.34605 31.0938 4.61985 31.0938 4.91948C31.0938 5.21912 30.9244 5.49302 30.6564 5.62707ZM28.4462 4.87561C27.9106 4.60782 27.4931 4.1541 27.2707 3.59817L26.9999 2.92085L26.729 3.59807C26.5067 4.1541 26.0892 4.60782 25.5536 4.87561L25.4658 4.91948L25.5535 4.96325H25.5536C26.0891 5.23104 26.5066 5.68477 26.729 6.24069L26.9999 6.91801L27.2707 6.2408C27.493 5.68477 27.9105 5.23104 28.4463 4.96325L28.5339 4.91948L28.4462 4.87561Z" fill="white"/>
</svg>
