<svg width="37" height="37" viewBox="0 0 37 37" fill="none" xmlns="http://www.w3.org/2000/svg">
<path d="M33.3346 10.0102C33.3841 10.0206 33.4341 10.0257 33.4836 10.0257C33.6733 10.0257 33.8577 9.95098 33.9946 9.81404L36.1904 7.61821C37.2699 6.53876 37.2699 4.78235 36.1904 3.70297C35.6676 3.18008 34.9724 2.89204 34.2328 2.89204C34.1901 2.89204 34.1475 2.89298 34.1051 2.89493C34.107 2.85259 34.1079 2.80995 34.1079 2.76725C34.1079 2.02771 33.82 1.33255 33.2971 0.80959C32.2176 -0.269863 30.4612 -0.269863 29.3818 0.80959L27.1859 3.00542C27.0132 3.1782 26.9394 3.42649 26.9898 3.66547L27.4847 6.01327L27.2356 6.26235C24.3083 4.08343 20.7174 2.88922 17.0539 2.88922C12.4986 2.88922 8.216 4.66312 4.99498 7.88421C1.77389 11.1052 0 15.3878 0 19.9431C0 24.4984 1.77389 28.781 4.99498 32.002C8.216 35.223 12.4986 36.997 17.0539 36.997C21.6092 36.997 25.8918 35.2231 29.1128 32.002C32.3339 28.781 34.1078 24.4984 34.1078 19.9431C34.1078 16.2804 32.9148 12.6917 30.7374 9.76469L30.9869 9.51524L33.3346 10.0102ZM23.8718 14.5864L22.4137 13.1284L27.8408 7.70131L27.9975 8.4446C28.0565 8.72476 28.2754 8.94357 28.5556 9.00261L29.2989 9.15928L23.8718 14.5864ZM23.413 19.9431C23.413 23.4495 20.5603 26.3022 17.0539 26.3022C13.5475 26.3022 10.6948 23.4495 10.6948 19.9431C10.6948 16.4367 13.5475 13.584 17.0539 13.584C17.8786 13.584 18.6913 13.7444 19.4471 14.0511L18.2888 15.2093C18.1531 15.3451 18.0768 15.5295 18.0772 15.7216L18.0793 16.9342C17.7573 16.8241 17.4127 16.7636 17.0539 16.7636C15.3007 16.7636 13.8743 18.1899 13.8743 19.9431C13.8743 21.6963 15.3007 23.1227 17.0539 23.1227C18.8071 23.1227 20.2334 21.6963 20.2334 19.9431C20.2334 19.5855 20.1732 19.2419 20.0638 18.9208L21.2786 18.9229H21.2799C21.4715 18.9229 21.6553 18.8468 21.7908 18.7113L22.9478 17.5543C23.2533 18.3089 23.413 19.1203 23.413 19.9431ZM20.9811 17.4772L19.5255 17.4746L19.5229 16.0191L21.3917 14.1504L22.8498 15.6084L20.9811 17.4772ZM18.7882 19.9431C18.7882 20.8994 18.0101 21.6774 17.0539 21.6774C16.0976 21.6774 15.3196 20.8994 15.3196 19.9431C15.3196 18.9869 16.0976 18.2088 17.0539 18.2088C17.267 18.2088 17.4711 18.2477 17.6599 18.3183L16.8275 19.1507C16.5453 19.4329 16.5453 19.8904 16.8275 20.1726C16.9686 20.3137 17.1535 20.3843 17.3385 20.3843C17.5234 20.3843 17.7083 20.3137 17.8494 20.1726L18.6804 19.3416C18.75 19.5291 18.7882 19.7317 18.7882 19.9431ZM34.2328 4.33729C34.5863 4.33729 34.9186 4.47495 35.1684 4.72483C35.6844 5.24078 35.6844 6.08025 35.1684 6.59613L33.2495 8.51506L30.1584 7.86347L33.2967 4.72512C33.2968 4.72497 33.2969 4.7249 33.2971 4.72476C33.5471 4.47495 33.8794 4.33729 34.2328 4.33729ZM30.4038 1.83159C30.9197 1.31557 31.7593 1.31564 32.2752 1.83159C32.5252 2.08148 32.6627 2.41381 32.6627 2.76725C32.6627 3.12068 32.5252 3.45301 32.2752 3.7029C32.2751 3.70304 32.275 3.70311 32.2748 3.70326L29.1366 6.84154L28.4849 3.75045L30.4038 1.83159ZM32.6625 19.9431C32.6625 28.5498 25.6605 35.5518 17.0539 35.5518C8.44724 35.5518 1.44524 28.5498 1.44524 19.9431C1.44524 11.3365 8.44724 4.33447 17.0539 4.33447C20.3868 4.33447 23.5332 5.35611 26.2026 7.29556L23.9179 9.5802C21.8815 8.22687 19.5211 7.51401 17.0539 7.51401C10.2005 7.51401 4.62478 13.0897 4.62478 19.9431C4.62478 22.0548 5.16408 24.1406 6.18427 25.9753C6.31637 26.2129 6.56257 26.3468 6.81642 26.3468C6.9353 26.3468 7.05576 26.3174 7.16704 26.2557C7.51578 26.0617 7.6413 25.6217 7.44735 25.2729C6.54631 23.6525 6.07003 21.8095 6.07003 19.9431C6.07003 13.8866 10.9973 8.95925 17.0539 8.95925C19.1355 8.95925 21.1308 9.53316 22.8727 10.6254L20.5389 12.9593C19.4615 12.4214 18.268 12.1388 17.0539 12.1388C12.7505 12.1388 9.24957 15.6398 9.24957 19.9431C9.24957 24.2464 12.7505 27.7474 17.0539 27.7474C21.3572 27.7474 24.8582 24.2464 24.8582 19.9431C24.8582 18.731 24.5765 17.5381 24.0401 16.462L26.3742 14.128C27.4649 15.869 28.0377 17.8625 28.0377 19.9431C28.0377 25.9996 23.1105 30.927 17.0539 30.927C15.1868 30.927 13.3433 30.4504 11.7225 29.5487C11.3736 29.3547 10.9338 29.4801 10.7397 29.8289C10.5457 30.1777 10.6712 30.6177 11.0199 30.8117C12.8551 31.8326 14.9416 32.3722 17.0539 32.3722C23.9073 32.3722 29.483 26.7965 29.483 19.9431C29.483 17.4768 28.7711 15.1183 27.4193 13.0828L29.7032 10.7988C31.6163 13.4455 32.6625 16.6617 32.6625 19.9431Z" fill="#01A5EC"/>
</svg>
