<svg width="97" height="88" viewBox="0 0 97 88" fill="none" xmlns="http://www.w3.org/2000/svg">
<path d="M85.4921 79.3558C92.5495 70.9515 96.7929 60.0979 96.7589 48.25C96.6852 22.1163 75.4848 0.630921 49.3942 0.267243C22.5491 -0.1078 0.667969 21.5822 0.667969 48.3864C0.667969 60.1832 4.90577 70.9855 11.9347 79.3558C12.1673 79.6343 12.5928 79.6456 12.8481 79.3899L48.7134 43.4654L84.5788 79.3899C84.8341 79.6513 85.2595 79.6343 85.4921 79.3558Z" fill="#01A5EC"/>
<path d="M48.7144 87.2016C70.1949 87.2016 87.6084 69.7882 87.6084 48.3076C87.6084 26.827 70.1949 9.41357 48.7144 9.41357C27.2338 9.41357 9.82031 26.827 9.82031 48.3076C9.82031 69.7882 27.2338 87.2016 48.7144 87.2016Z" fill="#EAF9FF"/>
<mask id="mask0_1805_6993" style="mask-type:alpha" maskUnits="userSpaceOnUse" x="9" y="9" width="79" height="79">
<path d="M48.6133 87.1459C70.118 87.1459 87.5509 69.7129 87.5509 48.2083C87.5509 26.7037 70.118 9.27075 48.6133 9.27075C27.1087 9.27075 9.67578 26.7037 9.67578 48.2083C9.67578 69.7129 27.1087 87.1459 48.6133 87.1459Z" fill="#FBC000"/>
</mask>
<g mask="url(#mask0_1805_6993)">
<g opacity="0.8">
<path d="M55.7852 89.1948L27.1914 70.3279L44.2075 53.8123L27.1914 46.8057L46.7098 26.2864L62.7249 35.2949L70.232 26.2864L94.0396 47.1832L74.9124 82.0221L55.7852 89.1948Z" fill="#01A5EC" fill-opacity="0.5" style="mix-blend-mode:multiply"/>
</g>
</g>
<path d="M46.2802 47.1449H27.9606C27.2599 47.1449 26.6914 46.5764 26.6914 45.8757V27.5561C26.6914 26.8553 27.2599 26.2869 27.9606 26.2869H46.2802C46.9809 26.2869 47.5494 26.8553 47.5494 27.5561V45.8757C47.5514 46.5764 46.9809 47.1449 46.2802 47.1449Z" fill="#ED1164"/>
<path d="M69.7841 47.1449H51.4645C50.7638 47.1449 50.1953 46.5764 50.1953 45.8757V27.5561C50.1953 26.8553 50.7638 26.2869 51.4645 26.2869H69.7841C70.4848 26.2869 71.0533 26.8553 71.0533 27.5561V45.8757C71.0533 46.5764 70.4848 47.1449 69.7841 47.1449Z" fill="white"/>
<path d="M46.2802 70.5018H27.9606C27.2599 70.5018 26.6914 69.9333 26.6914 69.2326V50.913C26.6914 50.2123 27.2599 49.6438 27.9606 49.6438H46.2802C46.9809 49.6438 47.5494 50.2123 47.5494 50.913V69.2326C47.5514 69.9333 46.9809 70.5018 46.2802 70.5018Z" fill="white"/>
<path d="M69.7841 70.5018H51.4645C50.7638 70.5018 50.1953 69.9333 50.1953 69.2326V50.913C50.1953 50.2123 50.7638 49.6438 51.4645 49.6438H69.7841C70.4848 49.6438 71.0533 50.2123 71.0533 50.913V69.2326C71.0533 69.9333 70.4848 70.5018 69.7841 70.5018Z" fill="#ED1164"/>
<path d="M34.5311 57.9795C35.9614 57.9795 37.1209 56.82 37.1209 55.3898C37.1209 53.9595 35.9614 52.8 34.5311 52.8C33.1009 52.8 31.9414 53.9595 31.9414 55.3898C31.9414 56.82 33.1009 57.9795 34.5311 57.9795Z" fill="#01A5EC"/>
<mask id="mask1_1805_6993" style="mask-type:alpha" maskUnits="userSpaceOnUse" x="26" y="49" width="22" height="22">
<path d="M46.2802 70.5018H27.9606C27.2599 70.5018 26.6914 69.9333 26.6914 69.2326V50.913C26.6914 50.2123 27.2599 49.6438 27.9606 49.6438H46.2802C46.9809 49.6438 47.5494 50.2123 47.5494 50.913V69.2326C47.5514 69.9333 46.9809 70.5018 46.2802 70.5018Z" fill="white"/>
</mask>
<g mask="url(#mask1_1805_6993)">
<path d="M30.2422 70.3628L43.858 55.9239C45.0917 54.6152 47.1682 54.5975 48.4236 55.8825L63.7843 71.6024L30.2422 70.3628Z" fill="#ED1164"/>
<path d="M24.3633 71.0895L33.3898 61.5162C34.6235 60.2075 36.7 60.1897 37.9554 61.4747L48.2097 71.9699L24.3633 71.0895Z" fill="#F53C82"/>
</g>
<g style="mix-blend-mode:multiply" opacity="0.4">
<path d="M65.8758 30.2798L71.0494 35.7553V45.9248C71.0494 46.5998 70.5026 47.1446 69.8295 47.1446H62.2024L56.6953 42.1764L62.6051 31.6082L65.8758 30.2798Z" fill="#E0E0E0"/>
</g>
<g style="mix-blend-mode:multiply" opacity="0.4">
<path d="M41.2252 36.0314L47.5535 43.1512V45.9225C47.5535 46.5976 47.0067 47.1424 46.3336 47.1424H38.7046L32.8086 41.8228L35.5819 35.3188L41.2252 36.0314Z" fill="#ED1164"/>
</g>
<g opacity="0.41">
<path d="M65.8785 56.6807L71.052 60.587V69.2819C71.052 69.957 70.5053 70.5018 69.8322 70.5018H62.2051L55.3735 64.3373L61.1412 62.3496L55.1445 58.6467L65.8785 56.6807Z" fill="#ED1164" style="mix-blend-mode:multiply"/>
</g>
<path d="M65.8775 30.2798H63.193H60.7691V32.7017V35.6251C59.6558 35.1671 58.2879 35.1987 56.924 36.0415C56.5489 36.2725 56.2351 36.5962 56.014 36.9772C54.2415 40.0268 56.3969 43.1515 59.2808 43.1515C61.002 43.1515 62.4607 42.0382 62.9838 40.4926C63.116 40.0998 63.193 39.6794 63.193 39.2412V32.7017H65.8775V30.2798Z" fill="#ED1164"/>
<path d="M32.6289 32.3992V41.031C32.6289 41.6409 33.2902 42.0219 33.8192 41.7139L41.2252 37.399C41.7482 37.0931 41.7482 36.3371 41.2252 36.0311L33.8192 31.7162C33.2902 31.4083 32.6289 31.7893 32.6289 32.3992Z" fill="white"/>
<path d="M65.1776 59.0434H56.0702C55.3596 59.0434 54.7852 58.467 54.7852 57.7584C54.7852 57.0478 55.3615 56.4734 56.0702 56.4734H65.1776C65.8882 56.4734 66.4626 57.0498 66.4626 57.7584C66.4626 58.469 65.8863 59.0434 65.1776 59.0434Z" fill="white"/>
<path d="M65.1776 64.4059H56.0702C55.3596 64.4059 54.7852 63.8296 54.7852 63.1209C54.7852 62.4103 55.3615 61.8359 56.0702 61.8359H65.1776C65.8882 61.8359 66.4626 62.4123 66.4626 63.1209C66.4626 63.8296 65.8863 64.4059 65.1776 64.4059Z" fill="white"/>
</svg>
