<svg width="297" height="211" viewBox="0 0 297 211" fill="none" xmlns="http://www.w3.org/2000/svg">
<path d="M262.308 196H8V61.3863C8 46.2593 23.5294 34 42.6916 34H297V168.614C297.012 183.741 281.471 196 262.308 196Z" fill="#F798BC"/>
<path d="M278 194.53V210H53.5501C38.3329 210 26 200.209 26 188.128V23H262.967V32.5895" stroke="#ED1164" stroke-miterlimit="10"/>
<path d="M135.388 96.4966C138.236 101.48 143.99 104.565 150.872 104.565C155.737 104.565 159.653 103.2 162.56 100.412C165.526 97.6238 167.009 94.1829 167.009 90.03C167.009 86.8264 165.941 84.0381 163.805 81.6651C161.729 79.2327 159.059 77.9868 155.856 77.8089H155.796L165.348 69.1473V62.6214H139.066V70.927H153.423L142.745 80.2412L145.652 84.9873C146.957 84.6314 148.44 84.4534 150.101 84.4534C154.906 84.4534 158.051 86.9451 158.051 90.2674C158.051 93.8269 154.906 96.2593 150.694 96.2593C146.838 96.2593 144.109 94.8355 142.507 91.9285L135.388 96.4966Z" fill="white"/>
<path d="M91.4031 140.964C89.6181 140.964 88.1221 141.542 86.8811 142.715C85.6401 143.888 85.0281 145.333 85.0281 147.084C85.0281 148.835 85.6401 150.28 86.8811 151.453C88.1221 152.609 89.6181 153.187 91.4031 153.187C93.2901 153.187 95.0071 152.371 96.2141 150.96L94.4291 149.447C93.6301 150.348 92.6271 150.807 91.4031 150.807C90.3321 150.807 89.4481 150.45 88.7171 149.753C88.0031 149.039 87.6461 148.155 87.6461 147.084C87.6461 146.013 88.0031 145.129 88.7341 144.415C89.4651 143.701 90.3491 143.344 91.4031 143.344C92.6101 143.344 93.6131 143.786 94.4121 144.687L96.1971 143.174C94.9901 141.797 93.2901 140.964 91.4031 140.964ZM101.307 144.177C99.9808 144.177 98.8588 144.619 97.9238 145.503C97.0058 146.37 96.5468 147.441 96.5468 148.716C96.5468 149.991 97.0058 151.062 97.9238 151.946C98.8588 152.813 99.9808 153.255 101.307 153.255C102.616 153.255 103.738 152.813 104.673 151.946C105.608 151.062 106.067 149.991 106.067 148.716C106.067 147.441 105.608 146.37 104.673 145.503C103.738 144.619 102.616 144.177 101.307 144.177ZM99.0798 148.716C99.0798 148.087 99.3008 147.56 99.7258 147.135C100.151 146.693 100.678 146.472 101.307 146.472C101.936 146.472 102.463 146.693 102.888 147.135C103.313 147.56 103.534 148.087 103.534 148.716C103.534 149.345 103.313 149.872 102.888 150.314C102.463 150.739 101.936 150.96 101.307 150.96C100.678 150.96 100.151 150.739 99.7258 150.314C99.3008 149.889 99.0798 149.345 99.0798 148.716ZM109.929 153V148.189C109.929 147.186 110.626 146.489 111.578 146.489C112.581 146.489 113.108 147.101 113.108 148.104V150.654C113.108 152.286 113.856 153.102 115.369 153.102C115.896 153.102 116.27 153.068 116.474 152.983V150.841L116.372 150.858H116.202C115.777 150.858 115.641 150.62 115.641 149.957V147.798C115.641 145.571 114.451 144.245 112.394 144.245C111.238 144.245 110.286 144.755 109.929 145.503V144.432H107.396V153H109.929ZM117.149 148.767C117.149 150.11 117.574 151.181 118.441 151.997C119.308 152.796 120.43 153.204 121.841 153.204C123.286 153.204 124.527 152.677 125.53 151.64L124.051 150.229C123.456 150.79 122.759 151.062 121.96 151.062C120.617 151.062 119.733 150.399 119.682 149.379H126.159C126.176 149.124 126.193 148.852 126.193 148.563C126.193 147.322 125.785 146.302 124.969 145.469C124.153 144.636 123.099 144.211 121.79 144.211C120.447 144.211 119.325 144.619 118.458 145.452C117.591 146.268 117.149 147.356 117.149 148.699V148.767ZM119.716 147.73C119.784 146.931 120.685 146.302 121.79 146.302C122.81 146.302 123.643 146.931 123.643 147.73H119.716ZM131.803 144.16C130.477 144.16 129.355 144.602 128.437 145.469C127.536 146.336 127.077 147.407 127.077 148.699C127.077 149.991 127.536 151.062 128.437 151.929C129.355 152.796 130.477 153.221 131.803 153.221C133.214 153.221 134.404 152.694 135.373 151.623L133.775 150.042C133.214 150.637 132.568 150.926 131.803 150.926C130.579 150.926 129.61 149.991 129.61 148.699C129.61 147.407 130.562 146.455 131.803 146.455C132.568 146.455 133.214 146.744 133.775 147.339L135.373 145.758C134.404 144.687 133.214 144.16 131.803 144.16ZM137.009 150.161C137.009 152.201 137.995 153.221 139.967 153.221C140.46 153.221 140.868 153.187 141.208 153.102V150.858C140.919 150.909 140.698 150.926 140.562 150.926C139.797 150.926 139.474 150.603 139.474 149.787V146.727H141.378V144.432H139.474V141.151H137.009V144.432H135.887V146.727H137.009V150.161ZM142.052 148.716C142.052 149.974 142.46 151.028 143.259 151.895C144.075 152.745 145.095 153.17 146.302 153.17C147.645 153.17 148.58 152.762 149.141 151.929C149.26 152.286 149.515 152.592 149.906 152.847C150.263 153.051 150.739 153.153 151.3 153.153C151.793 153.153 152.167 153.102 152.439 153.017V150.909C152.286 150.926 152.133 150.943 152.014 150.943C151.555 150.943 151.385 150.671 151.385 149.991V144.432H148.852V145.554C148.597 144.806 147.594 144.279 146.302 144.279C145.095 144.279 144.075 144.704 143.259 145.571C142.46 146.421 142.052 147.475 142.052 148.716ZM146.761 150.858C146.149 150.858 145.639 150.654 145.214 150.246C144.789 149.821 144.585 149.311 144.585 148.716C144.585 148.121 144.789 147.611 145.214 147.203C145.639 146.778 146.149 146.574 146.761 146.574C147.39 146.574 147.917 146.778 148.342 147.203C148.784 147.611 149.005 148.121 149.005 148.716C149.005 149.311 148.784 149.821 148.342 150.246C147.917 150.654 147.39 150.858 146.761 150.858ZM160.371 156.57C160.728 156.655 161.102 156.689 161.493 156.689C162.462 156.689 163.227 156.434 163.788 155.941C164.162 155.618 164.485 155.091 164.774 154.36L168.582 144.432H165.998L163.89 150.382L161.561 144.432H158.977L162.632 153.408L162.496 153.782C162.428 154.037 162.309 154.207 162.139 154.326C161.969 154.445 161.731 154.513 161.408 154.513C160.983 154.513 160.643 154.462 160.371 154.377V156.57ZM175.777 150.212C175.777 152.218 176.746 153.221 178.701 153.221C179.211 153.221 179.619 153.187 179.908 153.102V150.858C179.738 150.909 179.534 150.926 179.296 150.926C178.599 150.926 178.31 150.586 178.31 149.821V141.151H175.777V150.212ZM185.244 144.177C183.918 144.177 182.796 144.619 181.861 145.503C180.943 146.37 180.484 147.441 180.484 148.716C180.484 149.991 180.943 151.062 181.861 151.946C182.796 152.813 183.918 153.255 185.244 153.255C186.553 153.255 187.675 152.813 188.61 151.946C189.545 151.062 190.004 149.991 190.004 148.716C190.004 147.441 189.545 146.37 188.61 145.503C187.675 144.619 186.553 144.177 185.244 144.177ZM183.017 148.716C183.017 148.087 183.238 147.56 183.663 147.135C184.088 146.693 184.615 146.472 185.244 146.472C185.873 146.472 186.4 146.693 186.825 147.135C187.25 147.56 187.471 148.087 187.471 148.716C187.471 149.345 187.25 149.872 186.825 150.314C186.4 150.739 185.873 150.96 185.244 150.96C184.615 150.96 184.088 150.739 183.663 150.314C183.238 149.889 183.017 149.345 183.017 148.716ZM191.487 155.533C192.626 156.332 194.02 156.74 195.686 156.74C196.927 156.74 197.964 156.417 198.797 155.754C199.97 154.853 200.293 153.561 200.293 151.572V144.432H197.76V145.554C197.505 144.806 196.502 144.279 195.21 144.279C194.003 144.279 192.983 144.704 192.167 145.571C191.368 146.421 190.96 147.475 190.96 148.716C190.96 149.94 191.368 150.977 192.167 151.81C192.983 152.643 194.003 153.051 195.21 153.051C196.451 153.051 197.471 152.626 197.828 152.014V152.201C197.828 153.102 197.573 153.731 197.08 154.071C196.655 154.36 196.06 154.513 195.329 154.513C194.428 154.513 193.561 154.241 192.694 153.697L191.487 155.533ZM193.493 148.716C193.493 148.121 193.697 147.611 194.122 147.203C194.547 146.778 195.057 146.574 195.669 146.574C196.298 146.574 196.825 146.778 197.25 147.203C197.692 147.611 197.913 148.121 197.913 148.716C197.913 149.311 197.692 149.804 197.25 150.212C196.825 150.62 196.298 150.824 195.669 150.824C195.057 150.824 194.547 150.62 194.122 150.212C193.697 149.804 193.493 149.311 193.493 148.716ZM204.475 153V148.818C204.475 147.407 205.325 146.591 206.77 146.591C207.076 146.591 207.365 146.625 207.62 146.676V144.296C207.348 144.262 207.127 144.245 206.957 144.245C205.784 144.245 204.866 144.738 204.475 145.605V144.432H201.942V153H204.475ZM208.093 148.716C208.093 149.974 208.501 151.028 209.3 151.895C210.116 152.745 211.136 153.17 212.343 153.17C213.686 153.17 214.621 152.762 215.182 151.929C215.301 152.286 215.556 152.592 215.947 152.847C216.304 153.051 216.78 153.153 217.341 153.153C217.834 153.153 218.208 153.102 218.48 153.017V150.909C218.327 150.926 218.174 150.943 218.055 150.943C217.596 150.943 217.426 150.671 217.426 149.991V144.432H214.893V145.554C214.638 144.806 213.635 144.279 212.343 144.279C211.136 144.279 210.116 144.704 209.3 145.571C208.501 146.421 208.093 147.475 208.093 148.716ZM212.802 150.858C212.19 150.858 211.68 150.654 211.255 150.246C210.83 149.821 210.626 149.311 210.626 148.716C210.626 148.121 210.83 147.611 211.255 147.203C211.68 146.778 212.19 146.574 212.802 146.574C213.431 146.574 213.958 146.778 214.383 147.203C214.825 147.611 215.046 148.121 215.046 148.716C215.046 149.311 214.825 149.821 214.383 150.246C213.958 150.654 213.431 150.858 212.802 150.858ZM226.312 150.212C226.312 152.218 227.281 153.221 229.236 153.221C229.746 153.221 230.154 153.187 230.443 153.102V150.858C230.273 150.909 230.069 150.926 229.831 150.926C229.134 150.926 228.845 150.586 228.845 149.821V141.151H226.312V150.212ZM231.019 148.716C231.019 149.974 231.427 151.028 232.226 151.895C233.042 152.745 234.062 153.17 235.269 153.17C236.612 153.17 237.547 152.762 238.108 151.929C238.227 152.286 238.482 152.592 238.873 152.847C239.23 153.051 239.706 153.153 240.267 153.153C240.76 153.153 241.134 153.102 241.406 153.017V150.909C241.253 150.926 241.1 150.943 240.981 150.943C240.522 150.943 240.352 150.671 240.352 149.991V144.432H237.819V145.554C237.564 144.806 236.561 144.279 235.269 144.279C234.062 144.279 233.042 144.704 232.226 145.571C231.427 146.421 231.019 147.475 231.019 148.716ZM235.728 150.858C235.116 150.858 234.606 150.654 234.181 150.246C233.756 149.821 233.552 149.311 233.552 148.716C233.552 148.121 233.756 147.611 234.181 147.203C234.606 146.778 235.116 146.574 235.728 146.574C236.357 146.574 236.884 146.778 237.309 147.203C237.751 147.611 237.972 148.121 237.972 148.716C237.972 149.311 237.751 149.821 237.309 150.246C236.884 150.654 236.357 150.858 235.728 150.858ZM62.3991 169V164.818C62.3991 163.407 63.2491 162.591 64.6941 162.591C65.0001 162.591 65.2891 162.625 65.5441 162.676V160.296C65.2721 160.262 65.0511 160.245 64.8811 160.245C63.7081 160.245 62.7901 160.738 62.3991 161.605V160.432H59.8661V169H62.3991ZM66.0165 164.767C66.0165 166.11 66.4415 167.181 67.3085 167.997C68.1755 168.796 69.2975 169.204 70.7085 169.204C72.1535 169.204 73.3945 168.677 74.3975 167.64L72.9185 166.229C72.3235 166.79 71.6265 167.062 70.8275 167.062C69.4845 167.062 68.6005 166.399 68.5495 165.379H75.0265C75.0435 165.124 75.0605 164.852 75.0605 164.563C75.0605 163.322 74.6525 162.302 73.8365 161.469C73.0205 160.636 71.9665 160.211 70.6575 160.211C69.3145 160.211 68.1925 160.619 67.3255 161.452C66.4585 162.268 66.0165 163.356 66.0165 164.699V164.767ZM68.5835 163.73C68.6515 162.931 69.5525 162.302 70.6575 162.302C71.6775 162.302 72.5105 162.931 72.5105 163.73H68.5835ZM80.6703 160.16C79.3443 160.16 78.2223 160.602 77.3043 161.469C76.4033 162.336 75.9443 163.407 75.9443 164.699C75.9443 165.991 76.4033 167.062 77.3043 167.929C78.2223 168.796 79.3443 169.221 80.6703 169.221C82.0813 169.221 83.2713 168.694 84.2403 167.623L82.6423 166.042C82.0813 166.637 81.4353 166.926 80.6703 166.926C79.4463 166.926 78.4773 165.991 78.4773 164.699C78.4773 163.407 79.4293 162.455 80.6703 162.455C81.4353 162.455 82.0813 162.744 82.6423 163.339L84.2403 161.758C83.2713 160.687 82.0813 160.16 80.6703 160.16ZM89.5363 160.177C88.2103 160.177 87.0883 160.619 86.1533 161.503C85.2353 162.37 84.7763 163.441 84.7763 164.716C84.7763 165.991 85.2353 167.062 86.1533 167.946C87.0883 168.813 88.2103 169.255 89.5363 169.255C90.8453 169.255 91.9673 168.813 92.9023 167.946C93.8373 167.062 94.2963 165.991 94.2963 164.716C94.2963 163.441 93.8373 162.37 92.9023 161.503C91.9673 160.619 90.8453 160.177 89.5363 160.177ZM87.3093 164.716C87.3093 164.087 87.5303 163.56 87.9553 163.135C88.3803 162.693 88.9073 162.472 89.5363 162.472C90.1653 162.472 90.6923 162.693 91.1173 163.135C91.5423 163.56 91.7633 164.087 91.7633 164.716C91.7633 165.345 91.5423 165.872 91.1173 166.314C90.6923 166.739 90.1653 166.96 89.5363 166.96C88.9073 166.96 88.3803 166.739 87.9553 166.314C87.5303 165.889 87.3093 165.345 87.3093 164.716ZM98.1589 169V164.818C98.1589 163.407 99.0089 162.591 100.454 162.591C100.76 162.591 101.049 162.625 101.304 162.676V160.296C101.032 160.262 100.811 160.245 100.641 160.245C99.4679 160.245 98.5499 160.738 98.1589 161.605V160.432H95.6259V169H98.1589ZM101.776 164.716C101.776 165.974 102.184 167.028 102.983 167.895C103.799 168.745 104.819 169.17 106.026 169.17C107.369 169.17 108.304 168.762 108.865 167.929C108.984 168.286 109.239 168.592 109.63 168.847C109.987 169.051 110.463 169.153 111.024 169.153C111.517 169.153 111.891 169.102 112.163 169.017V166.909C112.01 166.926 111.857 166.943 111.738 166.943C111.279 166.943 111.109 166.671 111.109 165.991V157.151H108.576V161.554C108.321 160.806 107.318 160.279 106.026 160.279C104.819 160.279 103.799 160.704 102.983 161.571C102.184 162.421 101.776 163.475 101.776 164.716ZM106.485 166.858C105.873 166.858 105.363 166.654 104.938 166.246C104.513 165.821 104.309 165.311 104.309 164.716C104.309 164.121 104.513 163.611 104.938 163.203C105.363 162.778 105.873 162.574 106.485 162.574C107.114 162.574 107.641 162.778 108.066 163.203C108.508 163.611 108.729 164.121 108.729 164.716C108.729 165.311 108.508 165.821 108.066 166.246C107.641 166.654 107.114 166.858 106.485 166.858ZM112.717 164.716C112.717 165.974 113.125 167.028 113.924 167.895C114.74 168.745 115.76 169.17 116.967 169.17C118.31 169.17 119.245 168.762 119.806 167.929C119.925 168.286 120.18 168.592 120.571 168.847C120.928 169.051 121.404 169.153 121.965 169.153C122.458 169.153 122.832 169.102 123.104 169.017V166.909C122.951 166.926 122.798 166.943 122.679 166.943C122.22 166.943 122.05 166.671 122.05 165.991V160.432H119.517V161.554C119.262 160.806 118.259 160.279 116.967 160.279C115.76 160.279 114.74 160.704 113.924 161.571C113.125 162.421 112.717 163.475 112.717 164.716ZM117.426 166.858C116.814 166.858 116.304 166.654 115.879 166.246C115.454 165.821 115.25 165.311 115.25 164.716C115.25 164.121 115.454 163.611 115.879 163.203C116.304 162.778 116.814 162.574 117.426 162.574C118.055 162.574 118.582 162.778 119.007 163.203C119.449 163.611 119.67 164.121 119.67 164.716C119.67 165.311 119.449 165.821 119.007 166.246C118.582 166.654 118.055 166.858 117.426 166.858ZM128.367 160.16C127.041 160.16 125.919 160.602 125.001 161.469C124.1 162.336 123.641 163.407 123.641 164.699C123.641 165.991 124.1 167.062 125.001 167.929C125.919 168.796 127.041 169.221 128.367 169.221C129.778 169.221 130.968 168.694 131.937 167.623L130.339 166.042C129.778 166.637 129.132 166.926 128.367 166.926C127.143 166.926 126.174 165.991 126.174 164.699C126.174 163.407 127.126 162.455 128.367 162.455C129.132 162.455 129.778 162.744 130.339 163.339L131.937 161.758C130.968 160.687 129.778 160.16 128.367 160.16ZM133.079 166.739C133.079 168.354 133.827 169.153 135.323 169.153C135.884 169.153 136.275 169.102 136.496 169.017V166.858C136.445 166.875 136.343 166.892 136.19 166.892C135.765 166.892 135.612 166.62 135.612 165.991V160.432H133.079V166.739ZM132.892 158.273C132.892 159.072 133.538 159.701 134.337 159.701C135.136 159.701 135.782 159.072 135.782 158.273C135.782 157.457 135.136 156.828 134.337 156.828C133.538 156.828 132.892 157.457 132.892 158.273ZM141.914 160.177C140.588 160.177 139.466 160.619 138.531 161.503C137.613 162.37 137.154 163.441 137.154 164.716C137.154 165.991 137.613 167.062 138.531 167.946C139.466 168.813 140.588 169.255 141.914 169.255C143.223 169.255 144.345 168.813 145.28 167.946C146.215 167.062 146.674 165.991 146.674 164.716C146.674 163.441 146.215 162.37 145.28 161.503C144.345 160.619 143.223 160.177 141.914 160.177ZM139.687 164.716C139.687 164.087 139.908 163.56 140.333 163.135C140.758 162.693 141.285 162.472 141.914 162.472C142.543 162.472 143.07 162.693 143.495 163.135C143.92 163.56 144.141 164.087 144.141 164.716C144.141 165.345 143.92 165.872 143.495 166.314C143.07 166.739 142.543 166.96 141.914 166.96C141.285 166.96 140.758 166.739 140.333 166.314C139.908 165.889 139.687 165.345 139.687 164.716ZM142.781 159.616L144.481 157.151H141.744L140.894 159.616H142.781ZM150.537 169V164.189C150.537 163.186 151.234 162.489 152.186 162.489C153.189 162.489 153.716 163.101 153.716 164.104V166.654C153.716 168.286 154.464 169.102 155.977 169.102C156.504 169.102 156.878 169.068 157.082 168.983V166.841L156.98 166.858H156.81C156.385 166.858 156.249 166.62 156.249 165.957V163.798C156.249 161.571 155.059 160.245 153.002 160.245C151.846 160.245 150.894 160.755 150.537 161.503V160.432H148.004V169H150.537ZM164.48 164.716C164.48 165.974 164.888 167.028 165.687 167.895C166.503 168.745 167.523 169.17 168.73 169.17C170.073 169.17 171.008 168.762 171.569 167.929C171.688 168.286 171.943 168.592 172.334 168.847C172.691 169.051 173.167 169.153 173.728 169.153C174.221 169.153 174.595 169.102 174.867 169.017V166.909C174.714 166.926 174.561 166.943 174.442 166.943C173.983 166.943 173.813 166.671 173.813 165.991V157.151H171.28V161.554C171.025 160.806 170.022 160.279 168.73 160.279C167.523 160.279 166.503 160.704 165.687 161.571C164.888 162.421 164.48 163.475 164.48 164.716ZM169.189 166.858C168.577 166.858 168.067 166.654 167.642 166.246C167.217 165.821 167.013 165.311 167.013 164.716C167.013 164.121 167.217 163.611 167.642 163.203C168.067 162.778 168.577 162.574 169.189 162.574C169.818 162.574 170.345 162.778 170.77 163.203C171.212 163.611 171.433 164.121 171.433 164.716C171.433 165.311 171.212 165.821 170.77 166.246C170.345 166.654 169.818 166.858 169.189 166.858ZM175.504 164.767C175.504 166.11 175.929 167.181 176.796 167.997C177.663 168.796 178.785 169.204 180.196 169.204C181.641 169.204 182.882 168.677 183.885 167.64L182.406 166.229C181.811 166.79 181.114 167.062 180.315 167.062C178.972 167.062 178.088 166.399 178.037 165.379H184.514C184.531 165.124 184.548 164.852 184.548 164.563C184.548 163.322 184.14 162.302 183.324 161.469C182.508 160.636 181.454 160.211 180.145 160.211C178.802 160.211 177.68 160.619 176.813 161.452C175.946 162.268 175.504 163.356 175.504 164.699V164.767ZM178.071 163.73C178.139 162.931 179.04 162.302 180.145 162.302C181.165 162.302 181.998 162.931 181.998 163.73H178.071ZM192.956 166.161C192.956 168.201 193.942 169.221 195.914 169.221C196.407 169.221 196.815 169.187 197.155 169.102V166.858C196.866 166.909 196.645 166.926 196.509 166.926C195.744 166.926 195.421 166.603 195.421 165.787V162.727H197.325V160.432H195.421V157.151H192.956V160.432H191.834V162.727H192.956V166.161ZM198.338 165.634C198.338 167.861 199.545 169.187 201.704 169.187C202.945 169.187 203.795 168.762 204.22 167.929C204.339 168.286 204.594 168.592 204.985 168.847C205.342 169.051 205.818 169.153 206.379 169.153C206.872 169.153 207.246 169.102 207.518 169.017V166.909C207.365 166.926 207.212 166.943 207.093 166.943C206.634 166.943 206.464 166.671 206.464 165.991V160.432H203.931V165.243C203.931 166.246 203.285 166.943 202.35 166.943C201.398 166.943 200.871 166.331 200.871 165.328V160.432H198.338V165.634ZM217.923 169V164.189C217.923 163.186 218.518 162.489 219.334 162.489C220.15 162.489 220.609 163.101 220.609 164.104V169H223.142V164.189C223.142 163.186 223.72 162.489 224.536 162.489C225.335 162.489 225.777 163.101 225.777 164.104V166.654C225.777 168.286 226.525 169.102 228.038 169.102C228.531 169.102 228.888 169.068 229.126 168.983V166.841L229.024 166.858H228.871C228.446 166.858 228.31 166.62 228.31 165.957V163.798C228.31 161.571 227.222 160.245 225.301 160.245C223.89 160.245 222.955 160.704 222.479 161.605C222.088 160.704 221.306 160.245 220.15 160.245C219.113 160.245 218.246 160.755 217.923 161.503V160.432H215.39V169H217.923ZM229.824 164.716C229.824 165.974 230.232 167.028 231.031 167.895C231.847 168.745 232.867 169.17 234.074 169.17C235.417 169.17 236.352 168.762 236.913 167.929C237.032 168.286 237.287 168.592 237.678 168.847C238.035 169.051 238.511 169.153 239.072 169.153C239.565 169.153 239.939 169.102 240.211 169.017V166.909C240.058 166.926 239.905 166.943 239.786 166.943C239.327 166.943 239.157 166.671 239.157 165.991V160.432H236.624V161.554C236.369 160.806 235.366 160.279 234.074 160.279C232.867 160.279 231.847 160.704 231.031 161.571C230.232 162.421 229.824 163.475 229.824 164.716ZM234.533 166.858C233.921 166.858 233.411 166.654 232.986 166.246C232.561 165.821 232.357 165.311 232.357 164.716C232.357 164.121 232.561 163.611 232.986 163.203C233.411 162.778 233.921 162.574 234.533 162.574C235.162 162.574 235.689 162.778 236.114 163.203C236.556 163.611 236.777 164.121 236.777 164.716C236.777 165.311 236.556 165.821 236.114 166.246C235.689 166.654 235.162 166.858 234.533 166.858ZM243.871 169V164.818C243.871 163.407 244.721 162.591 246.166 162.591C246.472 162.591 246.761 162.625 247.016 162.676V160.296C246.744 160.262 246.523 160.245 246.353 160.245C245.18 160.245 244.262 160.738 243.871 161.605V160.432H241.338V169H243.871ZM252.214 160.16C250.888 160.16 249.766 160.602 248.848 161.469C247.947 162.336 247.488 163.407 247.488 164.699C247.488 165.991 247.947 167.062 248.848 167.929C249.766 168.796 250.888 169.221 252.214 169.221C253.625 169.221 254.815 168.694 255.784 167.623L254.186 166.042C253.625 166.637 252.979 166.926 252.214 166.926C250.99 166.926 250.021 165.991 250.021 164.699C250.021 163.407 250.973 162.455 252.214 162.455C252.979 162.455 253.625 162.744 254.186 163.339L255.784 161.758C254.815 160.687 253.625 160.16 252.214 160.16ZM256.32 164.716C256.32 165.974 256.728 167.028 257.527 167.895C258.343 168.745 259.363 169.17 260.57 169.17C261.913 169.17 262.848 168.762 263.409 167.929C263.528 168.286 263.783 168.592 264.174 168.847C264.531 169.051 265.007 169.153 265.568 169.153C266.061 169.153 266.435 169.102 266.707 169.017V166.909C266.554 166.926 266.401 166.943 266.282 166.943C265.823 166.943 265.653 166.671 265.653 165.991V160.432H263.12V161.554C262.865 160.806 261.862 160.279 260.57 160.279C259.363 160.279 258.343 160.704 257.527 161.571C256.728 162.421 256.32 163.475 256.32 164.716ZM261.029 166.858C260.417 166.858 259.907 166.654 259.482 166.246C259.057 165.821 258.853 165.311 258.853 164.716C258.853 164.121 259.057 163.611 259.482 163.203C259.907 162.778 260.417 162.574 261.029 162.574C261.658 162.574 262.185 162.778 262.61 163.203C263.052 163.611 263.273 164.121 263.273 164.716C263.273 165.311 263.052 165.821 262.61 166.246C262.185 166.654 261.658 166.858 261.029 166.858Z" fill="white"/>
<path d="M130.93 129.31H175.394" stroke="#ED1164" stroke-width="2" stroke-miterlimit="10" stroke-linecap="round" stroke-linejoin="round"/>
<circle cx="37.5" cy="37.5" r="37.5" fill="#ED1164"/>
<path d="M57.8529 41.0968C57.9595 40.3862 57.4383 39.6637 56.9291 39.0478C55.7329 37.5082 54.7025 35.8382 53.8734 34.0735C53.8142 33.9788 53.7787 33.8722 53.755 33.7656C53.755 33.5761 53.98 33.3511 54.3235 33.0431C54.8328 32.6641 55.1999 32.1075 55.342 31.4798C55.3776 31.0771 55.3183 30.6744 55.1525 30.3072C55.0222 29.9756 54.8801 29.6558 54.738 29.3479C54.4893 28.8386 54.2879 28.3057 54.1458 27.7609L54.0748 27.4648C53.9089 26.7068 53.7076 25.9725 53.4589 25.2382C52.843 23.5445 51.8837 21.993 50.652 20.6665C49.0886 19.0203 46.8028 17.907 43.6524 17.2793C41.4258 16.7937 39.1636 16.4739 36.9015 16.3081C35.6935 16.237 34.4854 16.3081 33.3011 16.5094C32.9339 16.5805 32.6852 16.9358 32.7444 17.3148C32.8036 17.6819 33.1589 17.9425 33.5379 17.8833C34.6275 17.7056 35.729 17.6346 36.8186 17.6938C39.0215 17.8478 41.2126 18.1675 43.3681 18.6413C46.1869 19.1979 48.2951 20.2046 49.6216 21.614C50.723 22.7984 51.5758 24.1841 52.1324 25.7119C52.3693 26.387 52.5588 27.0739 52.7009 27.7727L52.772 28.0688C52.9378 28.7084 53.1746 29.3242 53.4589 29.9046C53.5892 30.2007 53.7194 30.4967 53.8379 30.7928C53.9089 30.9468 53.9445 31.1008 53.9445 31.2666C53.9089 31.4916 53.6484 31.7403 53.3641 32.0009C52.7838 32.4036 52.4166 33.0431 52.3456 33.7419C52.3574 34.0735 52.4522 34.3933 52.618 34.6894C53.4944 36.537 54.5603 38.278 55.8158 39.8769C56.3487 40.5283 56.4553 40.777 56.4553 40.8836C56.325 41.0139 56.1829 41.1205 56.0408 41.2271C55.8631 41.3573 55.6618 41.4639 55.4723 41.5587C54.8801 41.8666 54.0629 42.2811 53.8971 43.1339C53.8024 43.6668 53.8616 44.2117 54.0866 44.6972C54.205 44.9578 54.3353 45.1828 54.4419 45.3723C54.4774 45.4315 54.513 45.5026 54.5485 45.5618C54.2643 45.7987 53.8616 46.0948 53.6958 46.2132C53.5418 46.3317 53.447 46.4975 53.4234 46.687C53.3997 46.8765 53.447 47.066 53.5655 47.2081C53.6721 47.3384 53.755 47.4923 53.8379 47.6345L53.6958 47.7174C53.0799 47.9898 52.6061 48.499 52.4048 49.1504C52.2982 49.6479 52.3219 50.1571 52.464 50.6427C52.4996 50.7849 52.5351 50.927 52.5469 51.081C52.5825 51.5073 52.5351 51.9337 52.3811 52.3245C52.2272 52.9759 51.5994 53.3786 50.948 53.2602C48.9109 52.7746 46.9094 52.1706 44.9433 51.4481C44.2209 51.1994 43.5576 50.9744 43.0365 50.7849C42.5509 50.619 42.1838 50.4888 41.9943 50.4296C39.0926 49.5057 38.5004 48.4635 38.5241 47.741C38.5359 47.3621 38.228 47.0304 37.8372 47.0304C37.6477 47.0186 37.47 47.0897 37.3397 47.2199C37.2094 47.3502 37.1265 47.5279 37.1265 47.7174C37.091 49.4584 38.5833 50.8204 41.5679 51.7679C41.7456 51.8271 42.1009 51.9455 42.5746 52.1113L43.2023 52.3364C42.0535 53.6155 41.2126 55.1315 40.7388 56.7896L24.9039 56.754L24.9513 56.683C25.1526 56.3869 25.3303 56.0908 25.4961 55.771C25.8396 55.0604 26.1357 54.3379 26.3607 53.58C26.7752 52.1706 27.0713 50.7138 27.2371 49.257C27.2726 49.0083 27.1779 48.7478 26.9766 48.5938C26.7752 48.4398 26.5028 48.4043 26.2659 48.5109C26.0291 48.6175 25.8751 48.8307 25.8514 49.0912C25.6856 50.4651 25.4132 51.8271 25.0224 53.1654C24.8092 53.8524 24.5486 54.5156 24.2288 55.1552C24.0986 55.4157 23.9446 55.6644 23.7788 55.9131C23.4827 56.3158 23.2458 56.7659 23.0682 57.2396C22.9971 57.4528 23.0445 57.6778 23.1748 57.8555C23.305 58.0331 23.5182 58.1397 23.7314 58.1397L41.26 58.1871C41.5797 58.1871 41.864 57.9621 41.935 57.6542C42.1956 56.6001 43.1905 53.7931 44.7657 52.8693C46.6962 53.5681 48.6622 54.1603 50.652 54.634C50.8414 54.6696 51.0309 54.6932 51.2204 54.6932C52.3693 54.6696 53.376 53.8997 53.6958 52.7983C53.9208 52.1942 53.9919 51.5547 53.9208 50.9151C53.8971 50.7256 53.8616 50.548 53.8142 50.3585C53.7313 50.0861 53.7076 49.8018 53.7431 49.5176C53.8024 49.3044 53.9563 49.186 54.3708 48.9609C54.5367 48.8662 54.7025 48.7714 54.8564 48.6649C55.0815 48.499 55.2354 48.2503 55.271 47.9779C55.2947 47.6226 55.2236 47.2791 55.0459 46.9712C55.2828 46.7936 55.5434 46.5922 55.6973 46.4501C56.3369 45.9171 55.9105 45.171 55.6618 44.7091C55.5671 44.5433 55.4605 44.3538 55.3539 44.1287C55.2591 43.9037 55.2236 43.655 55.271 43.4181C55.3065 43.2405 55.8158 42.9799 56.1119 42.8259C56.3606 42.7075 56.6093 42.5654 56.8343 42.4114C57.3318 42.1272 57.6989 41.6534 57.8529 41.0968Z" fill="white"/>
<path d="M50.7447 29.265C50.7921 29.265 50.8513 29.265 50.8987 29.2532C51.2777 29.1703 51.5027 28.7913 51.4198 28.4123L51.3487 28.1162C51.2185 27.4767 51.0408 26.8489 50.8276 26.2212C50.342 24.8829 49.5959 23.6512 48.6247 22.5971C47.5588 21.5667 46.2323 20.8205 44.7992 20.4534C44.5624 20.3705 44.29 20.4297 44.1123 20.6074C43.9228 20.7732 43.8517 21.0337 43.911 21.2706C43.9702 21.5193 44.1597 21.7207 44.3965 21.7917C45.6046 22.0996 46.706 22.7037 47.618 23.5564C48.4589 24.4684 49.1103 25.5343 49.5367 26.695C49.7262 27.2635 49.8801 27.832 49.9986 28.4123L50.0696 28.7202C50.1407 29.04 50.4249 29.265 50.7447 29.265Z" fill="white"/>
<path d="M52.2725 30.9588C52.2725 31.3496 51.9646 31.6576 51.5738 31.6576C51.1829 31.6576 50.875 31.3496 50.875 30.9588C50.875 30.5798 51.1829 30.26 51.5738 30.26C51.9646 30.26 52.2725 30.5798 52.2725 30.9588Z" fill="white"/>
<path d="M29.9374 21.1875C24.9157 21.2822 20.877 25.3801 20.8652 30.4137C20.8178 32.7942 21.6587 35.1038 23.2221 36.904C23.7195 37.4133 24.2525 37.887 24.8209 38.3015C25.8395 39.0951 26.8107 39.853 27.0712 40.8953C26.2777 41.2151 25.7448 41.9849 25.7448 42.8376V44.2352C25.7448 45.1235 26.3014 45.9051 27.1423 46.2012V46.3315C27.1423 47.8712 28.3977 49.1266 29.9374 49.1266C31.4771 49.1266 32.7325 47.8712 32.7325 46.3315V46.2012C33.5615 45.9051 34.13 45.1235 34.13 44.2352V42.8258C34.13 41.9731 33.6089 41.2032 32.8035 40.8834C33.0641 39.8294 34.0234 39.0832 35.0538 38.2897C35.6342 37.8752 36.1671 37.4014 36.6646 36.8921C38.2279 35.1038 39.0688 32.7824 39.0214 30.4018C38.9978 25.3801 34.9709 21.2822 29.9374 21.1875ZM32.0337 30.9585C32.0337 30.5795 32.3535 30.2597 32.7325 30.2597C33.1233 30.2597 33.4313 30.5676 33.4313 30.9585C33.4313 31.3493 33.1233 31.6573 32.7325 31.6573H32.0337V30.9585ZM29.2386 33.0548H30.6362V40.7295H29.2386V33.0548ZM28.5398 46.3197H31.3349C31.3349 47.0895 30.7072 47.7172 29.9374 47.7172C29.1676 47.7172 28.5398 47.0895 28.5398 46.3197ZM27.1423 42.8258C27.1423 42.435 27.4502 42.127 27.8411 42.127H32.0337C32.4246 42.127 32.7325 42.435 32.7325 42.8258V44.2233C32.7325 44.6142 32.4246 44.9221 32.0337 44.9221H27.8411C27.4502 44.9221 27.1423 44.6142 27.1423 44.2233V42.8258ZM29.9374 22.585C34.0353 22.585 37.5528 26.1737 37.6121 30.4374C37.6594 32.4626 36.937 34.4405 35.6105 35.9683C35.1723 36.4184 34.6985 36.8211 34.1892 37.2001C33.372 37.7686 32.6377 38.4673 32.0219 39.2609V33.0666H32.7206C33.8813 33.0666 34.817 32.131 34.817 30.9703C34.817 29.8097 33.8813 28.874 32.7206 28.874C31.56 28.874 30.6243 29.8097 30.6243 30.9703V31.6691H29.2386V30.9703C29.2386 29.8097 28.303 28.874 27.1423 28.874C25.9816 28.874 25.046 29.8097 25.046 30.9703C25.046 32.131 25.9816 33.0666 27.1423 33.0666H27.8411V39.2609C27.2252 38.4673 26.5027 37.7686 25.6737 37.2001C25.1644 36.8329 24.6907 36.4184 24.2525 35.9802C22.926 34.4524 22.2154 32.4745 22.2509 30.4492C22.3219 26.1737 25.8395 22.585 29.9374 22.585ZM27.1423 31.6573C26.7515 31.6573 26.4435 31.3493 26.4435 30.9585C26.4435 30.5795 26.7515 30.2597 27.1423 30.2597C27.5331 30.2597 27.8411 30.5676 27.8411 30.9585V31.6573H27.1423Z" fill="white"/>
<path d="M19.4665 30.2601C19.4665 29.8692 19.1586 29.5613 18.7677 29.5613H16.6714C16.2806 29.5613 15.9727 29.8811 15.9727 30.2601C15.9727 30.6509 16.2806 30.9588 16.6714 30.9588H18.7677C19.1467 30.9588 19.4665 30.6509 19.4665 30.2601Z" fill="white"/>
<path d="M22.6879 22.6327C22.7945 22.3722 22.7353 22.0761 22.5339 21.8747L21.0535 20.3943C20.8758 20.2048 20.6153 20.1337 20.3666 20.1929C20.1297 20.264 19.9402 20.4535 19.8691 20.7022C19.7981 20.9509 19.881 21.1996 20.0586 21.3773L21.5391 22.8578C21.6694 22.988 21.847 23.0591 22.0365 23.0591C22.3208 23.0591 22.5813 22.8933 22.6879 22.6327Z" fill="white"/>
<path d="M30.6358 19.0915V16.9952C30.6358 16.6162 30.3279 16.2964 29.9371 16.2964C29.5462 16.2964 29.2383 16.6043 29.2383 16.9952V19.0915C29.2383 19.4823 29.5462 19.7903 29.9371 19.7903C30.3279 19.7903 30.6358 19.4823 30.6358 19.0915Z" fill="white"/>
<path d="M37.8354 23.0591C38.0249 23.0591 38.2025 22.9881 38.3328 22.8578L39.8133 21.3773C39.9909 21.1997 40.062 20.9391 40.0028 20.7022C39.9435 20.4535 39.754 20.264 39.5053 20.2048C39.2566 20.1456 39.0079 20.2166 38.8302 20.3943L37.3498 21.8748C37.2195 22.005 37.1484 22.1827 37.1484 22.3722C37.1484 22.5617 37.2195 22.7393 37.3498 22.8696C37.4682 22.9881 37.6459 23.0591 37.8354 23.0591Z" fill="white"/>
<path d="M41.105 29.5613C40.7142 29.5613 40.4062 29.8692 40.4062 30.2601C40.4062 30.639 40.7142 30.9588 41.105 30.9588H43.2013C43.5922 30.9588 43.9001 30.6509 43.9001 30.2601C43.9001 29.8692 43.5922 29.5613 43.2013 29.5613H41.105Z" fill="white"/>
</svg>
