<svg width="58" height="58" viewBox="0 0 58 58" fill="none" xmlns="http://www.w3.org/2000/svg">
<path d="M55.8013 17.5946L55.4834 17.4112L56.6304 15.4254C57.9944 13.0633 58.3543 10.3027 57.6438 7.65212C56.9334 5.00213 55.2415 2.79168 52.8797 1.428C47.9864 -1.39758 41.7047 0.284083 38.8763 5.17795L37.7297 7.16694L37.4119 6.98354C36.6313 6.53279 35.7194 6.41339 34.8438 6.64732C33.967 6.8817 33.236 7.44165 32.7856 8.22306L27.5112 17.3551C27.0583 18.1346 26.9373 19.0463 27.1707 19.9221C27.1758 19.9412 27.1819 19.9598 27.1872 19.9788L23.1558 21.7951C22.6341 22.0291 22.4831 22.0421 22.4435 22.0369C22.3224 22.0212 21.9915 21.8286 21.6411 21.6248L20.1448 20.7608C20.3722 20.1335 20.4042 19.455 20.2285 18.8008C20.0091 17.9831 19.4901 17.3038 18.7682 16.8885L15.1137 14.7814C14.3934 14.3631 13.5461 14.253 12.7278 14.4711C11.8806 14.6967 11.1707 15.242 10.7286 16.0068L8.12778 20.5132C7.81501 21.055 8.0008 21.7477 8.54262 22.0604C9.08478 22.3731 9.77727 22.1872 10.0899 21.6455L12.6905 17.1399C12.8291 16.9002 13.0494 16.7299 13.3111 16.6601C13.5441 16.5982 13.7803 16.6267 13.9793 16.7423L17.6375 18.8516C17.8351 18.9652 17.9783 19.1558 18.0406 19.3883C18.1104 19.6486 18.0727 19.9235 17.9344 20.163L17.6645 20.6303C17.6635 20.632 17.6622 20.6336 17.6613 20.6353C17.6603 20.637 17.6596 20.6388 17.6587 20.6405L7.64668 37.9728C7.37356 38.4455 6.79503 38.625 6.35822 38.3738L2.70535 36.2657C2.2674 36.0122 2.13305 35.422 2.40594 34.9497L5.01006 30.4434C5.32305 29.9017 5.13772 29.209 4.59601 28.896C4.05441 28.5828 3.36147 28.7684 3.04859 29.3099L0.444366 33.8162C-0.453162 35.3692 0.0519596 37.3476 1.57174 38.2272L5.22699 40.3367C5.7158 40.618 6.25083 40.7514 6.78177 40.7514C7.71476 40.7514 8.63358 40.3377 9.26615 39.59L14.0693 42.3614C15.0381 42.92 15.1618 43.3877 15.3663 44.1626C15.6208 45.1252 15.9691 46.4437 17.9668 47.596C18.0891 47.6666 18.2124 47.7378 18.3353 47.8088L17.1028 49.9451C16.0687 51.7356 16.6851 54.0349 18.4776 55.0713L22.5888 57.4439C23.1773 57.7826 23.8202 57.9434 24.4555 57.9434C25.7541 57.9434 27.0197 57.2706 27.7154 56.0686L28.9476 53.9328C29.5014 54.242 30.103 54.3903 30.6977 54.3903C31.9442 54.3903 33.1583 53.7443 33.8249 52.5911C34.1316 52.0619 34.2945 51.4754 34.3075 50.8784C35.7857 50.9939 37.2719 50.2748 38.061 48.9081C38.445 48.2431 38.6237 47.4965 38.587 46.7446C40.0236 46.8161 41.4581 46.099 42.2288 44.7677C42.8682 43.6604 42.9114 42.3692 42.4581 41.2687C43.2947 40.9584 44.0322 40.3668 44.5119 39.5359C45.6054 37.642 44.9545 35.2102 43.0598 34.1144L41.0619 32.9619L42.7378 30.0575L47.1386 32.5971C47.6705 32.9043 48.2518 33.0503 48.8261 33.0502C49.9972 33.0501 51.1383 32.4429 51.7655 31.3578L57.0408 22.2205C57.4921 21.4399 57.6113 20.5276 57.3763 19.6514C57.1415 18.7761 56.5823 18.0458 55.8013 17.5946ZM40.8384 6.31031C43.0412 2.49873 47.9346 1.18863 51.7467 3.38969C53.5847 4.45102 54.9019 6.17301 55.4556 8.23869C56.0094 10.3046 55.7299 12.4546 54.6686 14.2924L53.5213 16.2789L39.6919 8.29918L40.8384 6.31031ZM23.7202 55.4811L19.6109 53.1096C18.9 52.6986 18.655 51.7873 19.065 51.0776L20.2974 48.9416C21.3379 49.5422 22.3909 50.1499 23.4444 50.758C24.6308 51.4428 25.817 52.1274 26.9848 52.8015L25.7537 54.9353C25.3428 55.6452 24.4301 55.8895 23.7202 55.4811ZM42.5501 38.4032C42.0808 39.2161 41.0361 39.4954 40.2214 39.0252C40.2128 39.0203 40.2042 39.0154 40.1954 39.0107L36.5386 36.9005C35.9966 36.5878 35.3039 36.7737 34.9914 37.3155C34.6787 37.8573 34.8645 38.55 35.4064 38.8627L39.644 41.308C40.457 41.7782 40.7367 42.8221 40.2678 43.634C39.7969 44.447 38.752 44.7264 37.9387 44.257L36.6905 43.5369C36.6625 43.5199 36.6345 43.5031 36.6059 43.4867C36.5907 43.4779 36.5754 43.4696 36.5601 43.4616L33.7001 41.8113C33.1581 41.4985 32.4654 41.6844 32.1529 42.2262C31.8402 42.7681 32.0261 43.4608 32.5679 43.7734L35.5287 45.4819C35.8921 45.71 36.1527 46.0638 36.2657 46.4845C36.3843 46.9258 36.3252 47.3843 36.0993 47.7754C35.6299 48.5883 34.5856 48.8674 33.7704 48.3971L30.4631 46.4906C29.9212 46.1781 29.2283 46.3643 28.9161 46.9062C28.6036 47.4482 28.7897 48.1408 29.3318 48.4532L31.3412 49.6115C31.3517 49.6181 31.3625 49.6245 31.3731 49.6306C31.6819 49.8089 31.903 50.0987 31.996 50.4465C32.0882 50.7919 32.0418 51.1502 31.8644 51.4563C31.4953 52.095 30.6751 52.3151 30.0368 51.9472C29.7312 51.7707 29.4229 51.5927 29.1135 51.414C29.1085 51.411 29.1039 51.4075 29.0988 51.4045C29.0938 51.4016 29.0884 51.3995 29.0833 51.3967C27.6072 50.5444 26.0926 49.6702 24.5771 48.7956C22.7279 47.7284 20.8786 46.6611 19.0995 45.6336C17.9187 44.9525 17.7748 44.4079 17.5571 43.5837C17.3168 42.6742 16.9877 41.4285 15.2015 40.3988L10.4465 37.6551L19.0575 22.7482L20.3165 23.4748L20.502 23.5825C21.2539 24.0201 21.782 24.3019 22.4377 24.3019C22.8886 24.3019 23.3998 24.1685 24.0852 23.861L28.5414 21.8533C28.6082 21.8985 28.6763 21.9423 28.7469 21.983L32.1376 23.9397C32.0969 24.0097 32.056 24.0798 32.0155 24.1489C30.8954 26.064 29.6257 28.2343 32.4673 30.5995C32.5169 30.6407 32.5699 30.6778 32.6259 30.7101L38.9198 34.3411C38.9294 34.347 38.9383 34.3538 38.9481 34.3594C38.9557 34.3637 38.9636 34.3667 38.9712 34.3708L41.927 36.0759C42.7399 36.5464 43.0194 37.5903 42.5501 38.4032ZM39.0999 31.83L33.8443 28.798C32.6039 27.7421 32.8202 27.2601 33.9708 25.2931C34.0134 25.2202 34.0565 25.1463 34.0996 25.0724L40.776 28.9253L39.0999 31.83ZM55.0794 21.0874L49.8041 30.2248C49.4996 30.7512 48.7981 30.9395 48.2716 30.6354L42.9074 27.5398C42.9014 27.5362 42.896 27.532 42.8898 27.5285C42.8837 27.5249 42.8775 27.5223 42.8714 27.519L29.8793 20.0213C29.622 19.8727 29.4375 19.6304 29.3599 19.3389C29.2825 19.0489 29.3217 18.7485 29.4714 18.4905L34.7478 9.35508C34.8959 9.09804 35.1378 8.91362 35.4287 8.8358C35.5268 8.80963 35.626 8.7966 35.7245 8.7966C35.9182 8.7966 36.1085 8.8469 36.279 8.94534C36.2792 8.94545 36.2793 8.94545 36.2794 8.94557L53.3323 18.7854C53.3445 18.793 53.3557 18.8014 53.3681 18.8085C53.3778 18.8141 53.3879 18.8178 53.3976 18.823L54.6685 19.5563C54.9254 19.7047 55.1101 19.9469 55.1883 20.2382C55.2664 20.5294 55.2278 20.8307 55.0794 21.0874Z" fill="white"/>
</svg>
