<svg width="37" height="37" viewBox="0 0 37 37" fill="none" xmlns="http://www.w3.org/2000/svg">
<path d="M33.4094 7.55874C30.4862 3.5763 26.1883 0.96841 21.3021 0.219937C16.4205 -0.533244 11.539 0.66243 7.55651 3.58571C3.57407 6.509 0.966179 10.8068 0.217706 15.6931C-0.431912 19.9344 0.382464 24.1711 2.52432 27.824L2.52903 27.8334C2.85384 28.3842 3.20689 28.9208 3.58819 29.4433C6.19137 32.9927 9.98552 35.5017 14.2645 36.5044C14.4575 36.5515 14.6552 36.5939 14.8529 36.6315C14.8953 36.6409 14.9377 36.6503 14.98 36.6551C16.1475 36.881 17.329 36.994 18.5106 36.994C19.6968 36.994 20.8784 36.8763 22.0411 36.6503C22.0741 36.6456 22.1117 36.6409 22.1447 36.6315C23.7593 36.3067 25.3363 35.7701 26.8238 35.0216C27.1816 34.8427 27.3228 34.4096 27.1439 34.0519C26.965 33.6941 26.532 33.5529 26.1742 33.7318C25.2798 34.1837 24.3619 34.5508 23.4298 34.8333L26.4237 29.6411L32.2891 28.5395C31.7807 29.2409 31.2111 29.9141 30.5803 30.5402C30.2979 30.8226 30.2979 31.2792 30.5803 31.5617C30.8627 31.8441 31.3194 31.8441 31.6018 31.5617C32.708 30.4554 33.6589 29.2174 34.4403 27.8852C34.4451 27.8758 34.4498 27.8664 34.4592 27.857C35.7349 25.6727 36.5634 23.2343 36.8694 20.6923C36.8741 20.6735 36.8741 20.6594 36.8741 20.6405C36.8976 20.4193 36.9211 20.1981 36.94 19.9768C37.293 15.5519 36.0409 11.1411 33.4094 7.55874ZM21.0855 1.64627C24.8279 2.22057 28.1984 3.98113 30.778 6.66905L29.8977 14.2479L24.2348 15.5189L19.2402 11.8895V6.46192L20.3512 5.66637C20.676 5.43571 20.7513 4.9838 20.5159 4.65899C20.2853 4.33419 19.8334 4.25887 19.5085 4.49424L18.4682 5.238L13.4878 2.19233C15.9168 1.44386 18.5012 1.25085 21.0855 1.64627ZM13.775 16.5687L16.1286 14.8599L18.4823 13.1511L23.1897 16.5687L21.3915 22.0998H15.5732L13.775 16.5687ZM8.40855 4.75314C9.463 3.97643 10.5881 3.33622 11.7602 2.82782L17.7574 6.49487V11.8895L12.7629 15.5189L7.07636 14.2432L5.91363 6.98444C6.66211 6.17006 7.49531 5.42159 8.40855 4.75314ZM1.64404 15.9143C2.063 13.1841 3.11274 10.6515 4.69442 8.48139L5.66885 14.5916L1.44633 18.8517C1.4275 17.8773 1.49341 16.8935 1.64404 15.9143ZM1.58755 20.7582L6.67152 15.6319L12.3627 16.9076L14.2504 22.7212L10.6963 28.1912L3.61643 26.8307C2.55257 24.9431 1.87 22.886 1.58755 20.7582ZM4.75091 28.5866C4.73208 28.5631 4.71325 28.5348 4.69442 28.5066L10.5786 29.6363L13.582 34.8474C10.1456 33.8118 7.01987 31.6841 4.75091 28.5866ZM21.4809 35.304C19.4897 35.6618 17.4703 35.6571 15.5167 35.3087L11.8826 29.0103L15.432 23.545H21.5515L25.1056 29.0103L21.4809 35.304ZM33.3482 26.8684L26.2966 28.1912L22.7425 22.7212L24.6302 16.9076L30.3167 15.6319L35.3583 20.81C35.0758 22.9236 34.4027 24.9808 33.3482 26.8684ZM35.5136 18.8941L31.3147 14.5822L32.0631 8.16599C32.1243 8.24602 32.1902 8.33075 32.2514 8.41548C34.5251 11.5224 35.5984 15.2271 35.5136 18.8941Z" fill="#01A5EC"/>
<path d="M22.4607 3.11955C22.3242 2.98303 22.1406 2.90771 21.9476 2.90771C21.7546 2.90771 21.571 2.98303 21.4345 3.11955C21.298 3.25606 21.2227 3.43965 21.2227 3.63265C21.2227 3.82565 21.298 4.00924 21.4345 4.14576C21.571 4.28227 21.7546 4.35759 21.9476 4.35759C22.1406 4.35759 22.3242 4.28227 22.4607 4.14576C22.5972 4.00924 22.6725 3.82565 22.6725 3.63265C22.6725 3.43965 22.5972 3.25606 22.4607 3.11955Z" fill="#01A5EC"/>
</svg>
