<svg width="35" height="59" viewBox="0 0 35 59" fill="none" xmlns="http://www.w3.org/2000/svg">
<path d="M14.19 49.95C15.17 50.33 16.23 50.53 17.34 50.53C18.44 50.53 19.5 50.33 20.49 49.95L17.34 55.3L14.19 49.95ZM2.14 29.47L11.49 13.59C12.72 11.5 14.91 10.25 17.34 10.25C19.77 10.25 21.96 11.5 23.19 13.59L32.54 29.47L23.19 45.35C21.96 47.44 19.77 48.69 17.34 48.69C14.91 48.69 12.72 47.44 11.49 45.35L2.14 29.47ZM20.49 8.99C19.51 8.61 18.45 8.41 17.34 8.41C16.24 8.41 15.17 8.61 14.19 8.99L17.34 3.64L20.49 8.99ZM24.79 46.29L34.68 29.48L24.79 12.67C24.79 12.67 24.79 12.67 24.79 12.66L17.34 0L9.89 12.66L0 29.47L9.89 46.28C9.89 46.28 9.89 46.29 9.9 46.29L17.34 58.94L24.79 46.29Z" fill="#434041"/>
<path d="M17.7078 29.5002C16.7278 29.5002 15.8278 29.8002 15.0678 30.3002L17.3578 22.3402L19.5278 29.8602C18.9678 29.6302 18.3578 29.5002 17.7078 29.5002ZM23.8978 38.3402L17.3678 15.6602L10.9078 38.0702C10.9078 38.0702 10.7978 38.5802 10.5078 38.8002H11.0778H11.9578H12.9078C12.9078 38.8002 12.7078 38.6202 12.8178 38.1102L13.3878 36.1202C14.1278 37.7602 15.7878 38.9002 17.7078 38.9002C18.9778 38.9002 20.1278 38.4002 20.9778 37.5902L19.9078 36.0402C19.3778 36.6602 18.5878 37.0602 17.7078 37.0602C16.1178 37.0602 14.8278 35.7802 14.8278 34.2002C14.8278 32.6202 16.1178 31.3402 17.7078 31.3402C18.3378 31.3402 18.9278 31.5502 19.4078 31.8902L19.9078 31.1602L21.8678 37.9502H21.8578C22.0478 38.5802 21.8078 38.8002 21.8078 38.8002H22.7578H23.6378H24.2078C24.0578 38.6902 23.9578 38.5002 23.8978 38.3402Z" fill="#434041"/>
</svg>
