<svg width="99" height="43" viewBox="0 0 99 43" fill="none" xmlns="http://www.w3.org/2000/svg">
<path d="M49.1587 42.6727C34.7815 42.6727 20.4042 42.6727 6.02693 42.6727C3.48353 42.6727 1.64663 41.4981 0.525059 39.2285C0.127653 38.4248 0.0128466 37.5505 0.0128466 36.6586C0.0128466 25.0985 0.0128466 13.5472 0.0128466 1.98712C0.0128466 0.0265788 0.0658341 8.116 0.00401533 6.1643C-0.119622 2.72011 2.6269 -0.0175775 6.17706 8.49834e-05C16.4036 0.0530725 26.6302 0.0177475 36.8568 0.0177475C55.3053 0.0177475 73.7626 0.0177475 92.2111 0.0177475C94.4984 0.0177475 96.2734 0.945028 97.4745 2.89673C98.0485 3.83285 98.2693 4.87493 98.2693 5.97884C98.2605 17.4418 98.2693 18.8636 98.2693 30.3266C98.2693 32.4549 98.2693 34.5832 98.2693 36.7116C98.2693 40.1558 95.7524 42.6727 92.2994 42.6727C77.9133 42.6727 63.536 42.6727 49.1587 42.6727ZM17.8608 21.8663C17.9226 22.034 17.9579 22.1224 17.9933 22.2018C19.4416 26.1494 20.8899 30.097 22.3382 34.0357C22.559 34.6274 22.7533 35.2368 23.0359 35.802C23.3892 36.5173 24.237 36.7734 24.9699 36.4555C25.6058 36.1817 25.8619 35.5459 25.65 34.751C25.6146 34.6097 25.5705 34.4773 25.5175 34.3448C23.6276 29.2757 21.7377 24.2154 19.839 19.1551C19.7065 18.8018 19.5564 18.4574 19.3533 18.1483C18.6026 17.0267 17.0042 17.0532 16.2977 18.2101C16.121 18.4927 15.9886 18.8106 15.8738 19.1197C14.6727 22.3255 13.4717 25.5401 12.2794 28.7546C12.1735 29.0284 12.041 29.1255 11.7496 29.1167C11.0342 29.0902 10.3189 29.099 9.61241 29.1167C9.22384 29.1255 8.82643 29.1255 8.45552 29.1962C7.8285 29.311 7.45759 29.8055 7.45759 30.4502C7.45759 31.0949 7.8285 31.563 8.46435 31.6866C8.69396 31.7308 8.92357 31.7484 9.16202 31.7572C9.8067 31.7661 10.4602 31.7572 11.1579 31.7572C11.0696 32.0045 10.9901 32.2076 10.9194 32.4108C10.6103 33.2851 10.2571 34.1505 10.0275 35.0513C9.81553 35.8549 10.4161 36.535 11.2462 36.5879C12.0322 36.6321 12.5709 36.2347 12.9241 35.2986C13.3215 34.23 13.7189 33.1702 14.0987 32.0928C14.1958 31.8191 14.3283 31.7484 14.6021 31.7484C15.3439 31.7661 16.0769 31.7661 16.8187 31.7484C17.3398 31.7396 17.8608 31.7484 18.3642 31.6778C19.0354 31.5806 19.3974 31.0949 19.3974 30.4237C19.3974 29.7702 19.0089 29.3022 18.3465 29.1697C18.1081 29.1255 17.8608 29.1079 17.6135 29.1079C16.8275 29.099 16.0327 29.1079 15.1938 29.1079C16.0857 26.6881 16.96 24.3125 17.8608 21.8663ZM35.6469 23.2704C35.5498 23.2263 35.5145 23.2086 35.488 23.1909C33.3066 21.3275 29.8713 21.8839 28.0874 23.9946C25.8972 26.591 25.6411 30.9359 27.5222 33.8591C28.891 35.9963 31.143 36.9412 33.6246 36.4378C34.4106 36.2788 35.0817 35.9433 35.6734 35.3957C36.0708 36.2965 36.5919 36.6674 37.316 36.5615C38.1638 36.4378 38.6231 35.8638 38.6231 34.9188C38.6231 29.2139 38.6231 23.5089 38.6231 17.8039C38.6231 17.6979 38.6231 17.5919 38.6142 17.4948C38.5347 16.6558 37.9077 16.1259 37.0423 16.1613C36.2386 16.1966 35.6646 16.7706 35.6469 17.5831C35.6293 18.1395 35.6381 18.6958 35.6381 19.2522C35.6469 20.5769 35.6469 21.8927 35.6469 23.2704ZM43.5862 30.5739C43.7363 30.565 43.8865 30.5562 44.0366 30.5562C45.9795 30.5562 47.9312 30.5562 49.8741 30.5562C50.5099 30.5562 51.1458 30.565 51.7816 30.5297C52.6559 30.4767 53.0886 29.991 53.1151 29.1255C53.1505 27.9951 52.9385 26.9001 52.4704 25.8756C51.4107 23.5707 49.6886 22.1312 47.0746 22.0694C44.5135 22.0076 42.5971 23.1909 41.4491 25.4606C40.1509 28.0393 40.2127 30.6887 41.4402 33.2851C41.9701 34.4155 42.8267 35.2809 43.9483 35.8638C46.5977 37.2238 50.0595 36.4731 52.0819 34.751C52.3556 34.5126 52.5853 34.1858 52.7442 33.8591C52.9915 33.3645 52.7972 32.6757 52.391 32.3401C51.9494 31.978 51.4725 31.978 50.925 32.3401C50.7395 32.4637 50.5629 32.5874 50.3951 32.7287C49.3 33.6383 48.0283 33.9739 46.6242 33.8503C44.9462 33.709 43.6304 32.3048 43.5862 30.5739ZM90.8157 29.3022C90.8245 27.8803 90.5243 26.5203 89.8355 25.2751C88.7051 23.2263 86.9741 22.0959 84.6162 22.0694C82.3289 22.0429 80.5185 23.0143 79.3969 25.0102C77.7366 27.9598 77.7455 30.9801 79.5382 33.8591C81.7195 37.3651 86.7004 37.5506 89.2349 34.2918C90.3653 32.817 90.8157 31.1214 90.8157 29.3022ZM61.0633 22.0517C58.6965 22.0605 56.7624 23.0673 55.5879 25.3281C54.6429 27.1473 54.4575 29.0814 54.8284 31.0772C55.3759 34.0004 57.2835 36.3142 60.5599 36.5526C61.6638 36.6321 62.75 36.5615 63.7391 36.0404C64.1542 35.8196 64.5428 35.4752 64.8342 35.0955C65.1874 34.6362 65.0815 33.9562 64.7282 33.5412C64.4015 33.1614 63.8098 33.0289 63.2622 33.2409C63.0238 33.3292 62.7942 33.4617 62.5646 33.5677C60.9926 34.2918 59.2617 33.8238 58.4404 32.3401C57.3365 30.3354 57.3453 28.2601 58.458 26.2554C59.1469 25.019 60.4451 24.5068 61.8227 24.8336C62.3703 24.966 62.8825 25.2398 63.43 25.3988C64.0041 25.5665 64.5074 25.3723 64.8342 24.913C65.1786 24.4361 65.2404 23.8621 64.8607 23.3941C64.5869 23.0585 64.2072 22.767 63.8186 22.5639C63.0061 22.14 62.1053 22.0782 61.0633 22.0517ZM69.4441 29.311C69.4441 28.3396 69.6207 27.4034 70.0623 26.538C70.9101 24.8865 72.6145 24.2948 74.3101 25.0543C74.6281 25.1956 74.9548 25.3458 75.2904 25.4164C76.1029 25.6107 76.8712 24.9749 76.8712 24.1447C76.8712 23.3941 76.3943 22.9702 75.8026 22.6434C74.9725 22.193 74.054 22.0959 73.1356 22.0517C70.4774 21.9192 68.2342 23.2704 67.1833 25.7167C66.1854 28.0216 66.1677 30.3796 67.1038 32.711C68.6581 36.6056 72.6852 37.1708 75.3964 36.1111C75.9351 35.8991 76.4031 35.5635 76.6681 35.0248C76.9065 34.5479 76.8359 33.8944 76.5003 33.5235C76.1117 33.0996 75.626 33.0378 75.1138 33.2144C74.8488 33.3027 74.5927 33.444 74.3366 33.5588C72.7028 34.3095 70.9542 33.7355 70.1153 32.1547C69.6384 31.2715 69.4441 30.3178 69.4441 29.311Z" fill="#434041"/>
<path d="M29.2778 29.7172C29.2778 28.2071 29.4544 27.165 30.0284 26.2112C31.1942 24.2595 33.8612 24.2242 35.0799 26.1406C36.2191 27.9245 36.1308 31.1567 34.8944 32.7464C33.6669 34.3183 31.3001 34.2653 30.1609 32.6227C29.4721 31.6248 29.2778 30.4856 29.2778 29.7172Z" fill="#434041"/>
<path d="M50.0446 28.0838C47.8721 28.0838 45.7261 28.0838 43.5801 28.0838C43.7038 25.8672 45.0373 24.6485 47.2098 24.7544C48.7464 24.8339 50.1153 26.4235 50.0446 28.0838Z" fill="#434041"/>
<path d="M87.8398 29.2847C87.8309 30.3709 87.6366 31.36 87.1509 32.2873C86.0558 34.3891 83.0532 34.398 82.0023 32.4109C80.8984 30.3179 80.8631 28.1631 82.0641 26.1143C83.1592 24.2332 85.7997 24.2597 86.992 26.0789C87.6455 27.068 87.8221 28.1808 87.8398 29.2847Z" fill="#434041"/>
</svg>
