<svg width="85" height="42" viewBox="0 0 85 42" fill="none" xmlns="http://www.w3.org/2000/svg">
<path d="M11.1309 24.3921C7.64874 24.3921 5.02214 23.8445 3.25113 22.7408C1.48011 21.6372 0.419223 19.9859 0.0513316 17.7786C0.0171092 17.5732 0 17.4021 0 17.2652V16.5038L7.78562 16.3926C7.81984 16.6321 7.77705 16.9059 7.85406 17.1626C8.14495 18.1636 9.88174 19.2159 11.7041 19.1047C12.7393 19.0448 13.4922 18.9165 13.9628 18.54C14.4333 18.1636 14.6729 17.693 14.6729 17.1284C14.6729 16.7605 14.6387 16.4525 14.5617 16.1872C14.4932 15.922 14.3221 15.691 14.074 15.4857C13.8173 15.2803 13.458 15.1007 12.9874 14.921C12.5169 14.7499 11.8923 14.5788 11.1137 14.4248C10.4379 14.2793 9.71063 14.151 8.92351 14.0312C8.13639 13.9114 7.34927 13.7574 6.57071 13.5778C5.79215 13.3981 5.03927 13.1585 4.31204 12.8677C3.58481 12.5768 2.94313 12.1832 2.37846 11.687C1.81379 11.1908 1.36889 10.5833 1.03522 9.85608C0.701554 9.12885 0.530444 8.23051 0.530444 7.16106C0.530444 5.92905 0.761444 4.85959 1.22345 3.96125C1.68545 3.06291 2.34424 2.31857 3.20836 1.72824C4.07248 1.1379 5.12481 0.710117 6.38249 0.427781C7.63161 0.145446 9.05186 0 10.6261 0C11.6784 0 12.7393 0.094112 13.8002 0.27378C14.8611 0.453448 15.845 0.787117 16.7519 1.27479C17.6588 1.76246 18.4545 2.42124 19.1475 3.25969C19.8405 4.09814 20.3367 5.1676 20.6447 6.4595C20.6618 6.51938 20.6789 6.60494 20.6875 6.69905C20.696 6.80172 20.7217 6.97283 20.7559 7.21239L13.8088 7.08405C13.8088 7.02417 13.5692 6.04027 12.9019 5.75793C12.0377 5.3986 11.0881 5.33015 10.3609 5.33015C9.37698 5.33015 8.70963 5.4756 8.3503 5.75793C7.99096 6.04027 7.80272 6.38249 7.80272 6.79316C7.80272 6.9985 7.83696 7.19528 7.89685 7.3835C7.95674 7.57173 8.11929 7.75139 8.37596 7.91395C8.63263 8.07651 9.00051 8.23051 9.48818 8.38451C9.97585 8.53851 10.6518 8.6754 11.4988 8.79518C11.8838 8.85507 12.2602 8.92351 12.6281 9.00907C12.996 9.08607 13.3468 9.15452 13.6719 9.18874C16.4097 9.63363 18.4801 10.4036 19.8918 11.4902C21.2949 12.5853 22.0051 14.1681 22.0051 16.2557C22.0051 17.5904 21.8083 18.771 21.4062 19.7892C21.004 20.8073 20.3709 21.6628 19.4983 22.3387C18.6256 23.0146 17.5048 23.528 16.1274 23.8702C14.7328 24.221 13.073 24.3921 11.1309 24.3921Z" fill="#474546"/>
<path d="M53.8921 6.66521V24.247H46.3118V6.66521H39.1849V0.282715H61.1472V6.66521H53.8921Z" fill="#474546"/>
<path d="M77.4111 24.2128V14.2968H69.5742V24.2128H61.9854V0.282715H69.5742V8.59022H77.4111V0.282715H85V24.2128H77.4111Z" fill="#474546"/>
<path d="M27.1299 18.0955C27.1299 17.3255 27.7545 16.701 28.5245 16.701H36.4983C37.2598 16.701 37.8929 17.3255 37.8929 18.0955V23.9476H45.4304L32.6996 0.282715L19.9175 23.939H27.1299V18.0955ZM32.6483 10.327C34.2311 10.327 35.5145 11.6104 35.5145 13.1931C35.5145 14.7759 34.2311 16.0593 32.6483 16.0593C31.0655 16.0593 29.7822 14.7759 29.7822 13.1931C29.7822 11.6018 31.0655 10.327 32.6483 10.327Z" fill="#474546"/>
<path d="M7.61455 29.3721C8.05089 29.3721 8.40169 29.4662 8.67547 29.6544C8.94069 29.8426 9.07758 30.0907 9.07758 30.3987V30.664H8.20489V30.3987C8.20489 30.3645 8.19635 30.3132 8.18779 30.2619C8.17924 30.202 8.15357 30.1506 8.11079 30.0907C8.06802 30.0394 8.00811 29.9881 7.93111 29.9539C7.85411 29.9196 7.75144 29.894 7.61455 29.894C7.48622 29.894 7.38357 29.9111 7.30656 29.9539C7.22956 29.9881 7.16966 30.0394 7.12688 30.0907C7.09266 30.1421 7.06699 30.202 7.04988 30.2619C7.04132 30.3217 7.03278 30.3645 7.03278 30.3987C7.03278 30.5442 7.0499 30.664 7.09267 30.7581C7.1269 30.8522 7.18679 30.9292 7.25523 30.9891C7.32368 31.049 7.40922 31.1003 7.50333 31.1431C7.59744 31.1859 7.70867 31.2286 7.82844 31.2714C7.96533 31.3228 8.10222 31.3741 8.25623 31.4425C8.40167 31.5024 8.53856 31.588 8.65834 31.6906C8.77812 31.7933 8.88079 31.9216 8.95779 32.0671C9.03479 32.2211 9.07758 32.4093 9.07758 32.6403C9.07758 32.9483 8.94069 33.1964 8.67547 33.3847C8.41024 33.5729 8.05089 33.667 7.61455 33.667C7.17822 33.667 6.82745 33.5729 6.55367 33.3847C6.28844 33.1964 6.15155 32.9483 6.15155 32.6403V32.3751H7.03278V32.6403C7.03278 32.6745 7.04132 32.7259 7.04988 32.7772C7.05844 32.8371 7.0841 32.8884 7.12688 32.9483C7.1611 32.9997 7.221 33.051 7.298 33.0852C7.375 33.1194 7.47768 33.1451 7.60602 33.1451C7.74291 33.1451 7.84557 33.128 7.92257 33.0852C7.99957 33.051 8.05945 32.9997 8.10223 32.9483C8.14501 32.897 8.17067 32.8371 8.17923 32.7772C8.18778 32.7173 8.19633 32.6745 8.19633 32.6403C8.19633 32.4863 8.17924 32.358 8.13646 32.2553C8.09368 32.1526 8.03377 32.0756 7.95677 32.0072C7.87977 31.9388 7.79423 31.8874 7.70012 31.8446C7.606 31.8019 7.49478 31.7591 7.375 31.7249C7.23811 31.6735 7.10123 31.6222 6.95578 31.5623C6.81034 31.5024 6.68201 31.4254 6.56223 31.3228C6.44245 31.2201 6.33976 31.1003 6.27132 30.9549C6.19431 30.8094 6.16011 30.6212 6.16011 30.3987C6.16011 30.0907 6.29701 29.8426 6.56223 29.6544C6.82745 29.4662 7.17822 29.3721 7.61455 29.3721Z" fill="#474546"/>
<path d="M11.4987 30.3047C11.9351 30.3047 12.2858 30.3988 12.5596 30.587C12.8248 30.7752 12.9617 31.0234 12.9617 31.3314V32.0843H10.9255V32.6318C10.9255 32.6746 10.9341 32.7174 10.9426 32.7773C10.9512 32.8372 10.9768 32.8885 11.0196 32.9398C11.0624 32.9912 11.1137 33.0425 11.1907 33.0767C11.2677 33.1109 11.3704 33.1366 11.4987 33.1366C11.6271 33.1366 11.7297 33.1195 11.8067 33.0767C11.8837 33.0425 11.9436 32.9912 11.9778 32.9398C12.0206 32.8885 12.0463 32.8286 12.0548 32.7773C12.0634 32.7174 12.072 32.6746 12.072 32.6318V32.3666H12.9532V32.6318C12.9532 32.9398 12.8163 33.1879 12.5511 33.3762C12.2859 33.5644 11.9265 33.6585 11.4902 33.6585C11.0538 33.6585 10.7031 33.5644 10.4293 33.3762C10.1641 33.1879 10.0272 32.9398 10.0272 32.6318V31.3399C10.0272 31.0319 10.1641 30.7838 10.4293 30.5956C10.7116 30.3988 11.0624 30.3047 11.4987 30.3047ZM12.0805 31.3399C12.0805 31.2971 12.072 31.2544 12.0634 31.1945C12.0548 31.1346 12.0292 31.0833 11.9864 31.0319C11.9436 30.9806 11.8837 30.9292 11.8153 30.895C11.7383 30.8608 11.6356 30.8351 11.5073 30.8351C11.379 30.8351 11.2763 30.8522 11.1993 30.895C11.1223 30.9292 11.0624 30.9806 11.0196 31.0319C10.9854 31.0833 10.9597 31.1431 10.9426 31.1945C10.9341 31.2544 10.9255 31.2971 10.9255 31.3399V31.6907H12.0805V31.3399Z" fill="#474546"/>
<path d="M14.2276 30.6205C14.3388 30.5264 14.4757 30.4494 14.6383 30.3895C14.8008 30.3382 14.9805 30.3125 15.1772 30.3125C15.4083 30.3125 15.6221 30.3553 15.8189 30.4323L15.297 30.8857C15.2115 30.8515 15.1088 30.8344 14.989 30.8344C14.8521 30.8344 14.7495 30.8515 14.6725 30.8943C14.5955 30.9285 14.5356 30.9798 14.4928 31.0312C14.45 31.0825 14.4244 31.1424 14.4158 31.1937C14.4073 31.2536 14.3987 31.2964 14.3987 31.3392V33.6663H13.5175V30.3125H14.0394C14.1249 30.3638 14.1848 30.4665 14.2276 30.6205Z" fill="#474546"/>
<path d="M18.2319 30.3203H19.1217L18.0437 33.657H16.8887L15.8107 30.3203H16.7004L17.3336 32.4507L17.4619 33.195L17.5817 32.4421L18.2319 30.3203Z" fill="#474546"/>
<path d="M19.5156 29.3892H20.3883V29.9025H19.5156V29.3892ZM19.5156 30.3046H20.3883V33.6584H19.5156V30.3046Z" fill="#474546"/>
<path d="M22.4072 30.3047C22.8435 30.3047 23.1943 30.3988 23.468 30.587C23.7333 30.7752 23.8702 31.0234 23.8702 31.3314V31.5966H22.9889V31.3314C22.9889 31.2971 22.9804 31.2458 22.9718 31.1945C22.9633 31.1346 22.9376 31.0832 22.8948 31.0234C22.8521 30.972 22.7922 30.9207 22.7237 30.8865C22.6467 30.8522 22.5441 30.8266 22.4157 30.8266C22.2874 30.8266 22.1847 30.8437 22.1077 30.8865C22.0307 30.9207 21.9708 30.972 21.928 31.0234C21.8938 31.0747 21.8682 31.1346 21.851 31.1945C21.8425 31.2544 21.8339 31.2971 21.8339 31.3314V32.6233C21.8339 32.666 21.8425 32.7088 21.851 32.7687C21.8596 32.8286 21.8853 32.8799 21.928 32.9313C21.9708 32.9826 22.0221 33.0339 22.1077 33.0682C22.1847 33.1024 22.2874 33.128 22.4157 33.128C22.5441 33.128 22.6467 33.1109 22.7237 33.0682C22.8007 33.0339 22.8606 32.9826 22.8948 32.9313C22.9376 32.8799 22.9633 32.82 22.9718 32.7687C22.9804 32.7088 22.9889 32.666 22.9889 32.6233V32.358H23.8702V32.6233C23.8702 32.9313 23.7333 33.1794 23.468 33.3676C23.2028 33.5558 22.8435 33.6499 22.4072 33.6499C21.9708 33.6499 21.62 33.5558 21.3463 33.3676C21.081 33.1794 20.9442 32.9313 20.9442 32.6233V31.3314C20.9442 31.0234 21.081 30.7752 21.3463 30.587C21.62 30.3988 21.9708 30.3047 22.4072 30.3047Z" fill="#474546"/>
<path d="M24.4349 29.3892H25.3075V29.9025H24.4349V29.3892ZM24.4349 30.3046H25.3075V33.6584H24.4349V30.3046Z" fill="#474546"/>
<path d="M27.3351 30.3047C27.7714 30.3047 28.1222 30.3988 28.396 30.587C28.6612 30.7752 28.7981 31.0234 28.7981 31.3314V32.6233C28.7981 32.9313 28.6612 33.1794 28.396 33.3676C28.1308 33.5558 27.7714 33.6499 27.3351 33.6499C26.8988 33.6499 26.548 33.5558 26.2742 33.3676C26.009 33.1794 25.8721 32.9313 25.8721 32.6233V31.3314C25.8721 31.0234 26.009 30.7752 26.2742 30.587C26.5394 30.3988 26.8988 30.3047 27.3351 30.3047ZM27.9169 31.3399C27.9169 31.3057 27.9083 31.2544 27.8998 31.203C27.8912 31.1431 27.8655 31.0918 27.8228 31.0319C27.78 30.9806 27.7201 30.9293 27.6431 30.895C27.5661 30.8608 27.4634 30.8351 27.3265 30.8351C27.1982 30.8351 27.0955 30.8522 27.0185 30.895C26.9415 30.9293 26.8816 30.9806 26.8389 31.0319C26.8046 31.0833 26.779 31.1431 26.7619 31.203C26.7533 31.2629 26.7448 31.3057 26.7448 31.3399V32.6318C26.7448 32.6746 26.7533 32.7174 26.7619 32.7773C26.7704 32.8372 26.7961 32.8885 26.8389 32.9398C26.8731 32.9912 26.933 33.0425 27.0185 33.0767C27.0955 33.1109 27.1982 33.1366 27.3265 33.1366C27.4634 33.1366 27.5661 33.1195 27.6431 33.0767C27.7201 33.0425 27.78 32.9912 27.8228 32.9398C27.8655 32.8885 27.8912 32.8286 27.8998 32.7773C27.9083 32.7174 27.9169 32.6746 27.9169 32.6318V31.3399Z" fill="#474546"/>
<path d="M33.5809 29.3721H34.4621V33.6584H33.9487C33.906 33.6242 33.8632 33.5814 33.8375 33.5387C33.8033 33.4873 33.7776 33.4274 33.7605 33.359C33.6493 33.4531 33.5124 33.5301 33.3499 33.5814C33.1873 33.6328 33.0162 33.6584 32.8194 33.6584C32.4344 33.6584 32.1264 33.5643 31.8954 33.3761C31.6644 33.1879 31.5446 32.9398 31.5446 32.6318V31.3399C31.5446 31.0319 31.6644 30.7837 31.8954 30.5955C32.1264 30.4073 32.4344 30.3132 32.8194 30.3132C33.1018 30.3132 33.3584 30.3731 33.5809 30.4929V29.3721ZM33.5809 31.3399C33.5809 31.2971 33.5723 31.2543 33.5638 31.1944C33.5552 31.1345 33.5295 31.0832 33.4868 31.0319C33.444 30.9805 33.3841 30.9292 33.3071 30.895C33.2301 30.8608 33.1274 30.8351 32.9991 30.8351C32.8707 30.8351 32.7681 30.8522 32.6911 30.895C32.6141 30.9292 32.5542 30.9805 32.5114 31.0319C32.4772 31.0832 32.4515 31.1431 32.4344 31.1944C32.4259 31.2543 32.4173 31.2971 32.4173 31.3399V32.6318C32.4173 32.6745 32.4259 32.7173 32.4344 32.7772C32.443 32.8371 32.4686 32.8884 32.5114 32.9398C32.5456 32.9911 32.6055 33.0424 32.6911 33.0767C32.7681 33.1109 32.8707 33.1365 32.9991 33.1365C33.1274 33.1365 33.2301 33.1194 33.3071 33.0767C33.3841 33.0424 33.444 32.9911 33.4868 32.9398C33.5295 32.8884 33.5552 32.8285 33.5638 32.7772C33.5723 32.7173 33.5809 32.6745 33.5809 32.6318V31.3399Z" fill="#474546"/>
<path d="M36.4897 30.3047C36.926 30.3047 37.2768 30.3988 37.5506 30.587C37.8158 30.7752 37.9527 31.0234 37.9527 31.3314V32.0843H35.9164V32.6318C35.9164 32.6746 35.925 32.7174 35.9335 32.7773C35.9421 32.8372 35.9678 32.8885 36.0105 32.9398C36.0533 32.9912 36.1046 33.0425 36.1902 33.0767C36.2672 33.1109 36.3699 33.1366 36.4982 33.1366C36.6266 33.1366 36.7292 33.1195 36.8062 33.0767C36.8832 33.0425 36.9431 32.9912 36.9859 32.9398C37.0287 32.8885 37.0543 32.8286 37.0629 32.7773C37.0715 32.7174 37.08 32.6746 37.08 32.6318V32.3666H37.9612V32.6318C37.9612 32.9398 37.8243 33.1879 37.5591 33.3762C37.2939 33.5644 36.9346 33.6585 36.4982 33.6585C36.0619 33.6585 35.7111 33.5644 35.4373 33.3762C35.1721 33.1879 35.0352 32.9398 35.0352 32.6318V31.3399C35.0352 31.0319 35.1721 30.7838 35.4373 30.5956C35.7026 30.3988 36.0533 30.3047 36.4897 30.3047ZM37.0714 31.3399C37.0714 31.2971 37.0629 31.2544 37.0543 31.1945C37.0458 31.1346 37.0201 31.0833 36.9773 31.0319C36.9346 30.9806 36.8747 30.9292 36.8062 30.895C36.7292 30.8608 36.6266 30.8351 36.4982 30.8351C36.3699 30.8351 36.2672 30.8522 36.1902 30.895C36.1132 30.9292 36.0533 30.9806 36.0191 31.0319C35.9849 31.0833 35.9592 31.1431 35.9421 31.1945C35.9336 31.2544 35.925 31.2971 35.925 31.3399V31.6907H37.08L37.0714 31.3399Z" fill="#474546"/>
<path d="M42.8295 29.3721L43.9075 33.6584H43.0177L42.7696 32.589H41.7515L41.5034 33.6584H40.6136L41.6916 29.3721H42.8295ZM42.6498 32.0842L42.376 30.9378L42.2477 29.971L42.1194 30.9378L41.8627 32.0842H42.6498Z" fill="#474546"/>
<path d="M46.4399 29.3721H47.3212V33.6584H46.8078C46.765 33.6242 46.7223 33.5814 46.6966 33.5387C46.6624 33.4873 46.6367 33.4274 46.6196 33.359C46.5084 33.4531 46.3715 33.5301 46.2089 33.5814C46.0464 33.6328 45.8753 33.6584 45.6785 33.6584C45.2935 33.6584 44.9855 33.5643 44.7545 33.3761C44.5235 33.1879 44.4037 32.9398 44.4037 32.6318V31.3399C44.4037 31.0319 44.5235 30.7837 44.7545 30.5955C44.9855 30.4073 45.2935 30.3132 45.6785 30.3132C45.9608 30.3132 46.2175 30.3731 46.4399 30.4929V29.3721ZM46.4399 31.3399C46.4399 31.2971 46.4314 31.2543 46.4228 31.1944C46.4143 31.1345 46.3886 31.0832 46.3458 31.0319C46.3031 30.9805 46.2431 30.9292 46.1661 30.895C46.0891 30.8608 45.9865 30.8351 45.8582 30.8351C45.7298 30.8351 45.6271 30.8522 45.5501 30.895C45.4731 30.9292 45.4133 30.9805 45.3705 31.0319C45.3363 31.0832 45.3106 31.1431 45.2935 31.1944C45.2849 31.2543 45.2764 31.2971 45.2764 31.3399V32.6318C45.2764 32.6745 45.2849 32.7173 45.2935 32.7772C45.302 32.8371 45.3277 32.8884 45.3705 32.9398C45.4047 32.9911 45.4646 33.0424 45.5501 33.0767C45.6271 33.1109 45.7298 33.1365 45.8582 33.1365C45.9865 33.1365 46.0891 33.1194 46.1661 33.0767C46.2431 33.0424 46.3031 32.9911 46.3458 32.9398C46.3886 32.8884 46.4143 32.8285 46.4228 32.7772C46.4314 32.7173 46.4399 32.6745 46.4399 32.6318V31.3399Z" fill="#474546"/>
<path d="M52.9425 33.1102C52.9425 33.23 52.9425 33.3241 52.9511 33.4011C52.9511 33.4695 52.9596 33.5294 52.9682 33.5722C52.9767 33.6235 52.9853 33.6492 52.9938 33.6663H52.2666C52.2324 33.6492 52.1982 33.615 52.1639 33.5637C52.1297 33.5209 52.1126 33.4695 52.0869 33.3925C52.0698 33.3241 52.0613 33.23 52.0613 33.1102V31.3392C52.0613 31.2964 52.0527 31.2536 52.0441 31.1937C52.0356 31.1339 52.0099 31.0825 51.9671 31.0312C51.9244 30.9799 51.8645 30.9285 51.7875 30.8943C51.7105 30.8601 51.6078 30.8344 51.4795 30.8344C51.3597 30.8344 51.2656 30.8515 51.1886 30.8772C51.1201 30.9114 51.0603 30.9456 51.0175 30.997C50.9747 31.0483 50.949 31.0911 50.9234 31.151C50.9062 31.2023 50.8977 31.2536 50.8977 31.2879C50.8977 31.2964 50.8977 31.2964 50.8977 31.305C50.8977 31.3135 50.8977 31.3392 50.8977 31.382C50.8977 31.4248 50.8977 31.4932 50.8977 31.5959C50.8977 31.69 50.8977 31.8269 50.8977 31.998C50.8977 32.1691 50.8977 32.3915 50.9063 32.6653C50.9063 32.9305 50.9148 33.2642 50.9148 33.6492H50.0336V31.3221C50.0336 31.2793 50.025 31.2365 50.0165 31.1766C50.0079 31.1167 49.9822 31.0654 49.9395 31.0141C49.8967 30.9627 49.8368 30.9114 49.7598 30.8772C49.6828 30.843 49.5801 30.8173 49.4433 30.8173C49.3149 30.8173 49.2122 30.8344 49.1352 30.8772C49.0582 30.9114 48.9984 30.9627 48.9556 31.0141C48.9214 31.0654 48.8957 31.1253 48.8786 31.1766C48.87 31.2365 48.8615 31.2793 48.8615 31.3221V33.6492H47.9802V30.2954H48.5021C48.5791 30.3467 48.639 30.4494 48.6818 30.6034C48.793 30.5093 48.9299 30.4323 49.0925 30.3724C49.255 30.3211 49.4347 30.2954 49.6315 30.2954C49.8539 30.2954 50.0422 30.3296 50.2218 30.3981C50.3929 30.4665 50.5384 30.5606 50.6496 30.6719C50.7523 30.5521 50.8977 30.4665 51.0774 30.3981C51.257 30.3296 51.4538 30.2954 51.6677 30.2954C52.0527 30.2954 52.3607 30.3895 52.5917 30.5777C52.8227 30.766 52.9339 31.0141 52.9339 31.3221V33.1102H52.9425Z" fill="#474546"/>
<path d="M53.5922 29.3892H54.4649V29.9025H53.5922V29.3892ZM53.5922 30.3046H54.4649V33.6584H53.5922V30.3046Z" fill="#474546"/>
<path d="M58.3832 33.1102C58.3832 33.23 58.3832 33.3241 58.3918 33.4011C58.3918 33.4695 58.4003 33.5294 58.4089 33.5722C58.4174 33.6235 58.426 33.6492 58.4346 33.6663H57.7073C57.6731 33.6492 57.6389 33.615 57.6047 33.5636C57.5704 33.5209 57.5533 33.4695 57.5277 33.3925C57.5105 33.3241 57.502 33.23 57.502 33.1102V31.3392C57.502 31.2964 57.4934 31.2536 57.4849 31.1937C57.4763 31.1338 57.4507 31.0825 57.4079 31.0312C57.3651 30.9798 57.3052 30.9285 57.2282 30.8943C57.1512 30.8601 57.0486 30.8344 56.9202 30.8344C56.7919 30.8344 56.6892 30.8515 56.6122 30.8943C56.5352 30.9285 56.4753 30.9798 56.4325 31.0312C56.3983 31.0825 56.3727 31.1424 56.3555 31.1937C56.347 31.2536 56.3384 31.2964 56.3384 31.3392V33.6663H55.4572V30.3125H55.9706C56.0476 30.3638 56.1074 30.4665 56.1673 30.6205C56.27 30.5264 56.4069 30.4494 56.578 30.3895C56.7406 30.3382 56.9288 30.3125 57.117 30.3125C57.502 30.3125 57.81 30.4066 58.041 30.5948C58.272 30.7831 58.3832 31.0312 58.3832 31.3392V33.1102Z" fill="#474546"/>
<path d="M58.9998 29.3892H59.8725V29.9025H58.9998V29.3892ZM58.9998 30.3046H59.8725V33.6584H58.9998V30.3046Z" fill="#474546"/>
<path d="M61.8911 30.3047C62.1221 30.3047 62.336 30.3304 62.5157 30.3817C62.7039 30.433 62.8494 30.5015 62.9777 30.5956C63.0975 30.6811 63.1916 30.7838 63.2515 30.895C63.3199 31.0063 63.3456 31.1175 63.3456 31.2287V31.3314H62.4729V31.2287C62.4729 31.1945 62.4643 31.1517 62.4472 31.1089C62.4301 31.0661 62.3959 31.0148 62.3531 30.9806C62.3103 30.9378 62.2505 30.9036 62.1735 30.8779C62.0965 30.8522 62.0023 30.8351 61.8911 30.8351C61.7799 30.8351 61.6858 30.8522 61.6088 30.8779C61.5318 30.9036 61.4719 30.9378 61.4291 30.9806C61.3863 31.0234 61.3607 31.0661 61.335 31.1089C61.3093 31.1517 61.3093 31.1945 61.3093 31.2287C61.3093 31.3057 61.3264 31.3656 61.3521 31.4169C61.3863 31.4683 61.4291 31.511 61.489 31.5453C61.5489 31.5795 61.6259 31.6137 61.7286 31.6479C61.8227 31.6821 61.9424 31.7164 62.0708 31.7506C62.2077 31.7848 62.3531 31.8276 62.4986 31.8704C62.6526 31.9131 62.7895 31.9816 62.9092 32.0586C63.0376 32.1356 63.1403 32.2297 63.2173 32.3409C63.3028 32.4521 63.3456 32.589 63.3456 32.7516C63.3456 32.8628 63.3113 32.974 63.2515 33.0767C63.183 33.1879 63.0975 33.282 62.9777 33.3676C62.8579 33.4532 62.7039 33.5216 62.5157 33.5815C62.3275 33.6328 62.1221 33.6585 61.8911 33.6585C61.6601 33.6585 61.4462 33.6328 61.2666 33.5815C61.0869 33.5302 60.9329 33.4617 60.8046 33.3676C60.6762 33.282 60.5821 33.1794 60.5222 33.0767C60.4538 32.9655 60.4281 32.8628 60.4281 32.7516V32.6404H61.3093V32.7516C61.3093 32.7858 61.3179 32.8286 61.335 32.8714C61.3521 32.9142 61.3863 32.9569 61.4291 32.9997C61.4719 33.0425 61.5318 33.0767 61.6002 33.1024C61.6772 33.128 61.7713 33.1452 61.8826 33.1452C61.9938 33.1452 62.0879 33.128 62.1649 33.1024C62.2419 33.0767 62.3018 33.0425 62.3446 32.9997C62.3873 32.9569 62.4216 32.9142 62.4387 32.8714C62.4558 32.8286 62.4644 32.7858 62.4644 32.7516C62.4644 32.6746 62.4472 32.6147 62.4216 32.5634C62.3873 32.512 62.3446 32.4693 62.2761 32.4265C62.2077 32.3923 62.1307 32.358 62.0366 32.3238C61.9425 32.2981 61.8312 32.2639 61.6944 32.2297C61.5575 32.1955 61.4206 32.1527 61.2666 32.1014C61.1211 32.05 60.9842 31.9901 60.8559 31.9131C60.7276 31.8361 60.6249 31.7506 60.5393 31.6394C60.4538 31.5281 60.411 31.3913 60.411 31.2373C60.411 31.126 60.4452 31.0148 60.5051 30.9036C60.5736 30.7924 60.6677 30.6982 60.7874 30.6041C60.9158 30.5186 61.0612 30.4501 61.2494 30.3902C61.4548 30.3389 61.6601 30.3047 61.8911 30.3047Z" fill="#474546"/>
<path d="M64.8175 32.7772C64.826 32.8371 64.8517 32.8884 64.8945 32.9398C64.9287 32.9911 64.9886 33.0424 65.0741 33.0767C65.1511 33.1109 65.2538 33.1365 65.3822 33.1365H65.827V33.6584H65.3822C64.9458 33.6584 64.595 33.5643 64.3212 33.3761C64.056 33.1879 63.9191 32.9398 63.9191 32.6318V29.3721H64.8004V30.3046H65.6388V30.8265H64.8004V32.6232C64.8004 32.6745 64.8089 32.7173 64.8175 32.7772Z" fill="#474546"/>
<path d="M66.8023 30.6205C66.9135 30.5264 67.0504 30.4494 67.2129 30.3895C67.3755 30.3382 67.5552 30.3125 67.752 30.3125C67.983 30.3125 68.1968 30.3553 68.3936 30.4323L67.8717 30.8857C67.7862 30.8515 67.6835 30.8344 67.5637 30.8344C67.4268 30.8344 67.3242 30.8515 67.2472 30.8943C67.1702 30.9285 67.1103 30.9798 67.0675 31.0312C67.0247 31.0825 66.999 31.1424 66.9905 31.1937C66.9819 31.2536 66.9734 31.2964 66.9734 31.3392V33.6663H66.0922V30.3125H66.6141C66.6996 30.3638 66.7595 30.4665 66.8023 30.6205Z" fill="#474546"/>
<path d="M70.0279 30.3203C70.4642 30.3203 70.815 30.4144 71.0887 30.6026C71.354 30.7909 71.4909 31.039 71.4909 31.347V33.6741H70.9519C70.8492 33.6057 70.7807 33.4944 70.738 33.3233C70.6439 33.4174 70.5326 33.503 70.3872 33.5714C70.2417 33.6399 70.0792 33.6741 69.8995 33.6741C69.4546 33.6741 69.1039 33.5886 68.8557 33.426C68.5991 33.2634 68.5135 33.0153 68.582 32.6902C68.6162 32.5362 68.6846 32.4079 68.7958 32.2967C68.9071 32.1854 69.044 32.0913 69.1894 32.0143C69.3434 31.9373 69.4974 31.8774 69.6685 31.8175C69.8396 31.7662 69.9936 31.7149 70.1305 31.6721C70.2674 31.6293 70.3872 31.5865 70.4727 31.5438C70.5669 31.501 70.6096 31.4497 70.6096 31.3983V31.347C70.6096 31.3042 70.6011 31.2614 70.5925 31.2015C70.584 31.1417 70.5583 31.0903 70.5155 31.039C70.4728 30.9877 70.4128 30.9363 70.3358 30.9021C70.2588 30.8679 70.1562 30.8422 70.0279 30.8422C69.8995 30.8422 69.7968 30.8593 69.7198 30.9021C69.6428 30.9363 69.583 30.9877 69.5402 31.039C69.506 31.0903 69.4803 31.1502 69.4632 31.2015C69.4546 31.2614 69.4461 31.3042 69.4461 31.347H68.5649C68.5649 31.039 68.7017 30.7909 68.967 30.6026C69.2407 30.4144 69.5915 30.3203 70.0279 30.3203ZM70.6096 31.7833C70.5925 31.8261 70.5326 31.8689 70.43 31.9117C70.3273 31.963 70.2075 32.0143 70.0792 32.0828C69.9509 32.1512 69.8225 32.2282 69.7027 32.3223C69.583 32.4164 69.4974 32.5362 69.4546 32.6817C69.4204 32.7587 69.4204 32.8357 69.4461 32.887C69.4717 32.9469 69.5059 32.9897 69.5573 33.0324C69.6086 33.0667 69.6771 33.1009 69.7626 33.118C69.8482 33.1351 69.9338 33.1437 70.0364 33.1437C70.1648 33.1437 70.2674 33.1266 70.3444 33.0838C70.4214 33.0496 70.4813 32.9982 70.5241 32.9469C70.5669 32.8956 70.5925 32.8357 70.6011 32.7843C70.6096 32.7244 70.6182 32.6817 70.6182 32.6389L70.6096 31.7833Z" fill="#474546"/>
<path d="M73.5187 30.3047C73.955 30.3047 74.3058 30.3988 74.5796 30.587C74.8448 30.7752 74.9817 31.0234 74.9817 31.3314V31.5966H74.1005V31.3314C74.1005 31.2971 74.0919 31.2458 74.0833 31.1945C74.0748 31.1346 74.0491 31.0832 74.0063 31.0234C73.9636 30.972 73.9037 30.9207 73.8267 30.8865C73.7497 30.8522 73.647 30.8266 73.5187 30.8266C73.3903 30.8266 73.2877 30.8437 73.2107 30.8865C73.1337 30.9207 73.0738 30.972 73.031 31.0234C72.9968 31.0747 72.9711 31.1346 72.954 31.1945C72.9454 31.2544 72.9369 31.2971 72.9369 31.3314V32.6233C72.9369 32.666 72.9454 32.7088 72.954 32.7687C72.9625 32.8286 72.9882 32.8799 73.031 32.9313C73.0738 32.9826 73.1251 33.0339 73.2107 33.0682C73.2877 33.1024 73.3903 33.128 73.5187 33.128C73.647 33.128 73.7497 33.1109 73.8267 33.0682C73.9037 33.0339 73.9636 32.9826 74.0063 32.9313C74.0491 32.8799 74.0748 32.82 74.0833 32.7687C74.0919 32.7088 74.1005 32.666 74.1005 32.6233V32.358H74.9817V32.6233C74.9817 32.9313 74.8448 33.1794 74.5796 33.3676C74.3144 33.5558 73.955 33.6499 73.5187 33.6499C73.0823 33.6499 72.7316 33.5558 72.4578 33.3676C72.1926 33.1794 72.0557 32.9313 72.0557 32.6233V31.3314C72.0557 31.0234 72.1926 30.7752 72.4578 30.587C72.723 30.3988 73.0738 30.3047 73.5187 30.3047Z" fill="#474546"/>
<path d="M75.5377 29.3892H76.4104V29.9025H75.5377V29.3892ZM75.5377 30.3046H76.4104V33.6584H75.5377V30.3046Z" fill="#474546"/>
<path d="M78.438 30.304C78.8743 30.304 79.2251 30.3981 79.4989 30.5863C79.7641 30.7745 79.901 31.0226 79.901 31.3307V32.6226C79.901 32.9306 79.7641 33.1787 79.4989 33.3669C79.2337 33.5551 78.8743 33.6492 78.438 33.6492C78.0016 33.6492 77.6509 33.5551 77.3771 33.3669C77.1119 33.1787 76.975 32.9306 76.975 32.6226V31.3307C76.975 31.0226 77.1119 30.7745 77.3771 30.5863C77.6423 30.3981 78.0016 30.304 78.438 30.304ZM79.4989 29.7992L77.5653 30.1243L77.3685 30.0045L79.4989 29.3115V29.7992ZM79.0283 31.3392C79.0283 31.305 79.0198 31.2536 79.0112 31.2023C79.0027 31.1424 78.977 31.0911 78.9342 31.0312C78.8914 30.9799 78.8315 30.9285 78.7545 30.8943C78.6775 30.8601 78.5749 30.8344 78.438 30.8344C78.3096 30.8344 78.207 30.8515 78.13 30.8943C78.053 30.9285 77.9931 30.9799 77.9503 31.0312C77.9161 31.0825 77.8904 31.1424 77.8733 31.2023C77.8647 31.2622 77.8562 31.305 77.8562 31.3392V32.6311C77.8562 32.6739 77.8647 32.7167 77.8733 32.7766C77.8819 32.8364 77.9076 32.8878 77.9503 32.9391C77.9846 32.9904 78.0444 33.0418 78.13 33.076C78.207 33.1102 78.3096 33.1359 78.438 33.1359C78.5749 33.1359 78.6775 33.1188 78.7545 33.076C78.8315 33.0418 78.8914 32.9904 78.9342 32.9391C78.977 32.8878 79.0027 32.8279 79.0112 32.7766C79.0198 32.7167 79.0283 32.6739 79.0283 32.6311V31.3392Z" fill="#474546"/>
<path d="M83.3833 33.1102C83.3833 33.23 83.3833 33.3241 83.3918 33.4011C83.3918 33.4695 83.4004 33.5294 83.4089 33.5722C83.4175 33.6235 83.4261 33.6492 83.4346 33.6663H82.7074C82.6732 33.6492 82.6389 33.615 82.6047 33.5636C82.5705 33.5209 82.5534 33.4695 82.5277 33.3925C82.5106 33.3241 82.5021 33.23 82.5021 33.1102V31.3392C82.5021 31.2964 82.4935 31.2536 82.485 31.1937C82.4764 31.1338 82.4507 31.0825 82.408 31.0312C82.3652 30.9798 82.3053 30.9285 82.2283 30.8943C82.1513 30.8601 82.0486 30.8344 81.9203 30.8344C81.7919 30.8344 81.6893 30.8515 81.6123 30.8943C81.5353 30.9285 81.4754 30.9798 81.4326 31.0312C81.3984 31.0825 81.3727 31.1424 81.3556 31.1937C81.347 31.2536 81.3385 31.2964 81.3385 31.3392V33.6663H80.4573V30.3125H80.9706C81.0476 30.3638 81.1075 30.4665 81.1674 30.6205C81.27 30.5264 81.4069 30.4494 81.5781 30.3895C81.7406 30.3382 81.9288 30.3125 82.1171 30.3125C82.5021 30.3125 82.8101 30.4066 83.0411 30.5948C83.2721 30.7831 83.3833 31.0312 83.3833 31.3392V33.1102Z" fill="#474546"/>
<path d="M14.4074 36.4126V36.9345H13.2523V40.699H12.3797V36.9345H11.2247V36.4126H14.4074Z" fill="#474546"/>
<path d="M15.3744 37.6532C15.4856 37.5591 15.6225 37.4821 15.7851 37.4222C15.9476 37.3709 16.1273 37.3452 16.3241 37.3452C16.5551 37.3452 16.769 37.388 16.9657 37.465L16.4439 37.9184C16.3583 37.8842 16.2557 37.8671 16.1359 37.8671C15.999 37.8671 15.8963 37.8842 15.8193 37.927C15.7423 37.9612 15.6824 38.0126 15.6396 38.0639C15.5969 38.1152 15.5712 38.1751 15.5626 38.2264C15.5541 38.2863 15.5455 38.3291 15.5455 38.3719V40.699H14.6643V37.3452H15.1862C15.2717 37.3965 15.3316 37.4992 15.3744 37.6532Z" fill="#474546"/>
<path d="M17.0428 36.4209H17.9155V36.9342H17.0428V36.4209ZM17.0428 37.3449H17.9155V40.6987H17.0428V37.3449Z" fill="#474546"/>
<path d="M20.3964 37.3454C20.7814 37.3454 21.0894 37.4395 21.3204 37.6278C21.5514 37.816 21.6712 38.0641 21.6712 38.3721V39.664C21.6712 39.972 21.5514 40.2201 21.3204 40.4083C21.0894 40.5966 20.7814 40.6907 20.3964 40.6907C20.1996 40.6907 20.0199 40.665 19.8574 40.6137C19.6948 40.5623 19.5579 40.4853 19.4553 40.3912C19.4296 40.4597 19.4039 40.5195 19.3783 40.5709C19.344 40.6222 19.3098 40.665 19.267 40.6907H18.7537V36.4043H19.6264V37.5165C19.8574 37.4053 20.1141 37.3454 20.3964 37.3454ZM20.7985 38.3721C20.7985 38.3293 20.79 38.2865 20.7814 38.2266C20.7728 38.1668 20.7472 38.1154 20.7044 38.0641C20.6616 38.0128 20.6017 37.9614 20.5247 37.9272C20.4477 37.893 20.3451 37.8673 20.2167 37.8673C20.0798 37.8673 19.9772 37.8844 19.9002 37.9272C19.8232 37.9614 19.7633 38.0128 19.7205 38.0641C19.6777 38.1154 19.652 38.1753 19.6435 38.2266C19.6349 38.2865 19.6264 38.3293 19.6264 38.3721V39.664C19.6264 39.7068 19.6349 39.7495 19.6435 39.8094C19.652 39.8693 19.6777 39.9207 19.7205 39.972C19.7633 40.0233 19.8232 40.0747 19.9002 40.1089C19.9772 40.1431 20.0798 40.1688 20.2167 40.1688C20.3451 40.1688 20.4477 40.1517 20.5247 40.1089C20.6017 40.0747 20.6616 40.0233 20.7044 39.972C20.7472 39.9207 20.7728 39.8608 20.7814 39.8094C20.79 39.7495 20.7985 39.7068 20.7985 39.664V38.3721Z" fill="#474546"/>
<path d="M25.1535 37.3452V40.699H24.6402C24.6059 40.6734 24.5803 40.6306 24.5632 40.5707C24.5375 40.5022 24.5204 40.4252 24.5033 40.3226C24.3921 40.4424 24.2466 40.5279 24.0755 40.5964C23.9044 40.6648 23.7076 40.699 23.4937 40.699C23.1087 40.699 22.8007 40.6049 22.5783 40.4167C22.3558 40.2285 22.236 39.9803 22.236 39.6723V37.3452H23.1087V39.6723C23.1087 39.7151 23.1173 39.7579 23.1258 39.8178C23.1344 39.8777 23.16 39.929 23.2028 39.9803C23.237 40.0317 23.2969 40.083 23.3825 40.1172C23.4595 40.1515 23.5622 40.1771 23.6905 40.1771C23.8274 40.1771 23.93 40.16 24.007 40.1172C24.084 40.083 24.1439 40.0317 24.1867 39.9803C24.2295 39.929 24.2552 39.8691 24.2637 39.8178C24.2723 39.7665 24.2808 39.7151 24.2808 39.6723V37.3452H25.1535Z" fill="#474546"/>
<path d="M26.7704 39.8094C26.779 39.8693 26.8046 39.9207 26.8474 39.972C26.8816 40.0233 26.9415 40.0747 27.0271 40.1089C27.1041 40.1431 27.2068 40.1688 27.3351 40.1688H27.78V40.6907H27.3351C26.8988 40.6907 26.548 40.5966 26.2742 40.4083C26.009 40.2201 25.8721 39.972 25.8721 39.664V36.4043H26.7533V37.3369H27.5918V37.8588H26.7533V39.6554C26.7533 39.7068 26.7619 39.7495 26.7704 39.8094Z" fill="#474546"/>
<path d="M29.3628 37.3545C29.7992 37.3545 30.1499 37.4486 30.4237 37.6368C30.6889 37.825 30.8258 38.0732 30.8258 38.3812V40.7083H30.2868C30.1841 40.6398 30.1157 40.5286 30.0729 40.3575C29.9788 40.4516 29.8676 40.5372 29.7221 40.6056C29.5767 40.6741 29.4142 40.7083 29.2345 40.7083C28.7896 40.7083 28.4388 40.6227 28.1907 40.4602C27.934 40.2976 27.8485 40.0495 27.9169 39.7244C27.9511 39.5704 28.0196 39.4421 28.1308 39.3308C28.242 39.2196 28.3789 39.1255 28.5244 39.0485C28.6784 38.9715 28.8324 38.9116 29.0035 38.8517C29.1746 38.8004 29.3286 38.7491 29.4655 38.7063C29.6024 38.6635 29.7221 38.6207 29.8077 38.5779C29.9018 38.5352 29.9446 38.4838 29.9446 38.4325V38.3812C29.9446 38.3384 29.936 38.2956 29.9275 38.2357C29.9189 38.1758 29.8933 38.1245 29.8505 38.0732C29.8077 38.0218 29.7478 37.9705 29.6708 37.9363C29.5938 37.9021 29.4912 37.8764 29.3628 37.8764C29.2345 37.8764 29.1318 37.8935 29.0548 37.9363C28.9778 37.9705 28.9179 38.0218 28.8751 38.0732C28.8409 38.1245 28.8153 38.1844 28.7981 38.2357C28.7896 38.2956 28.781 38.3384 28.781 38.3812H27.8998C27.8998 38.0732 28.0367 37.825 28.3019 37.6368C28.5671 37.4486 28.9265 37.3545 29.3628 37.3545ZM29.936 38.8175C29.9189 38.8603 29.859 38.9031 29.7564 38.9458C29.6537 38.9972 29.5339 39.0485 29.4056 39.1169C29.2773 39.1854 29.1489 39.2624 29.0291 39.3565C28.9094 39.4506 28.8238 39.5704 28.781 39.7158C28.7468 39.7928 28.7468 39.8698 28.7725 39.9212C28.7981 39.9811 28.8324 40.0238 28.8837 40.0666C28.935 40.1008 29.0035 40.1351 29.089 40.1522C29.1746 40.1693 29.2602 40.1778 29.3628 40.1778C29.4912 40.1778 29.5938 40.1607 29.6708 40.118C29.7478 40.0837 29.8077 40.0324 29.8505 39.9811C29.8933 39.9297 29.9189 39.8698 29.9275 39.8185C29.936 39.7586 29.9446 39.7158 29.9446 39.6731L29.936 38.8175Z" fill="#474546"/>
<path d="M32.0924 37.6532C32.2036 37.5591 32.3405 37.4821 32.503 37.4222C32.6656 37.3709 32.8453 37.3452 33.0421 37.3452C33.2731 37.3452 33.4869 37.388 33.6837 37.465L33.1618 37.9184C33.0763 37.8842 32.9736 37.8671 32.8538 37.8671C32.7169 37.8671 32.6143 37.8842 32.5373 37.927C32.4603 37.9612 32.4004 38.0126 32.3576 38.0639C32.3148 38.1152 32.2892 38.1751 32.2806 38.2264C32.2721 38.2863 32.2635 38.3291 32.2635 38.3719V40.699H31.3823V37.3452H31.9042C31.9812 37.3965 32.0411 37.4992 32.0924 37.6532Z" fill="#474546"/>
<path d="M33.8542 36.4209H34.7269V36.9342H33.8542V36.4209ZM33.8542 37.3449H34.7269V40.6987H33.8542V37.3449Z" fill="#474546"/>
<path d="M36.7464 37.3545C37.1828 37.3545 37.5335 37.4486 37.8073 37.6368C38.0725 37.825 38.2094 38.0732 38.2094 38.3812V40.7083H37.6704C37.5678 40.6398 37.4993 40.5286 37.4565 40.3575C37.3624 40.4516 37.2512 40.5372 37.1057 40.6056C36.9603 40.6741 36.7977 40.7083 36.6181 40.7083C36.1732 40.7083 35.8224 40.6227 35.5743 40.4602C35.3176 40.2976 35.2321 40.0495 35.3005 39.7244C35.3347 39.5704 35.4032 39.4421 35.5144 39.3308C35.6256 39.2196 35.7625 39.1255 35.908 39.0485C36.062 38.9715 36.216 38.9116 36.3871 38.8517C36.5582 38.8004 36.7122 38.7491 36.8491 38.7063C36.986 38.6635 37.1058 38.6207 37.1913 38.5779C37.2769 38.5352 37.3282 38.4838 37.3282 38.4325V38.3812C37.3282 38.3384 37.3197 38.2956 37.3111 38.2357C37.3025 38.1758 37.2769 38.1245 37.2341 38.0732C37.1913 38.0218 37.1314 37.9705 37.0544 37.9363C36.9774 37.9021 36.8748 37.8764 36.7464 37.8764C36.6181 37.8764 36.5154 37.8935 36.4384 37.9363C36.3614 37.9705 36.3015 38.0218 36.2588 38.0732C36.2245 38.1245 36.1989 38.1844 36.1818 38.2357C36.1732 38.2956 36.1646 38.3384 36.1646 38.3812H35.2834C35.2834 38.0732 35.4203 37.825 35.6855 37.6368C35.9593 37.4486 36.3101 37.3545 36.7464 37.3545ZM37.3282 38.8175C37.3111 38.8603 37.2512 38.9031 37.1485 38.9458C37.0459 38.9972 36.9261 39.0485 36.7978 39.1169C36.6694 39.1854 36.5411 39.2624 36.4213 39.3565C36.3015 39.4506 36.216 39.5704 36.1732 39.7158C36.139 39.7928 36.139 39.8698 36.1646 39.9212C36.1903 39.9811 36.2245 40.0238 36.2759 40.0666C36.3272 40.1008 36.3956 40.1351 36.4812 40.1522C36.5668 40.1693 36.6523 40.1778 36.755 40.1778C36.8833 40.1778 36.986 40.1607 37.063 40.118C37.14 40.0837 37.1999 40.0324 37.2341 39.9811C37.2769 39.9297 37.3025 39.8698 37.3111 39.8185C37.3197 39.7586 37.3282 39.7158 37.3282 39.6731V38.8175Z" fill="#474546"/>
<path d="M43.0689 36.4126H43.9501V40.699H43.4368C43.394 40.6647 43.3512 40.622 43.3256 40.5792C43.2914 40.5279 43.2657 40.468 43.2486 40.3995C43.1373 40.4936 43.0005 40.5706 42.8379 40.622C42.6753 40.6733 42.5042 40.699 42.3075 40.699C41.9225 40.699 41.6144 40.6049 41.3834 40.4166C41.1524 40.2284 41.0327 39.9803 41.0327 39.6723V38.3718C41.0327 38.0638 41.1524 37.8157 41.3834 37.6275C41.6144 37.4393 41.9225 37.3452 42.3075 37.3452C42.5898 37.3452 42.8464 37.4051 43.0689 37.5248V36.4126ZM43.0689 38.3718C43.0689 38.3291 43.0603 38.2863 43.0518 38.2264C43.0432 38.1665 43.0176 38.1152 42.9748 38.0638C42.932 38.0125 42.8721 37.9612 42.7951 37.9269C42.7181 37.8927 42.6155 37.8671 42.4871 37.8671C42.3588 37.8671 42.2561 37.8842 42.1791 37.9269C42.1021 37.9612 42.0422 38.0125 41.9994 38.0638C41.9652 38.1152 41.9396 38.1751 41.9224 38.2264C41.9139 38.2863 41.9053 38.3291 41.9053 38.3718V39.6637C41.9053 39.7065 41.9139 39.7493 41.9224 39.8092C41.931 39.8691 41.9567 39.9204 41.9994 39.9717C42.0337 40.0231 42.0935 40.0744 42.1791 40.1086C42.2561 40.1429 42.3588 40.1685 42.4871 40.1685C42.6155 40.1685 42.7181 40.1514 42.7951 40.1086C42.8721 40.0744 42.932 40.0231 42.9748 39.9717C43.0176 39.9204 43.0432 39.8605 43.0518 39.8092C43.0603 39.7493 43.0689 39.7065 43.0689 39.6637V38.3718Z" fill="#474546"/>
<path d="M46.0463 37.3452C46.4826 37.3452 46.8334 37.4393 47.1072 37.6276C47.3724 37.8158 47.5093 38.0639 47.5093 38.3719V39.1248H45.473V39.6723C45.473 39.7151 45.4816 39.7579 45.4902 39.8178C45.4987 39.8777 45.5244 39.929 45.5672 39.9803C45.6014 40.0317 45.6613 40.083 45.7468 40.1172C45.8238 40.1515 45.9265 40.1771 46.0548 40.1771C46.1831 40.1771 46.2858 40.16 46.3628 40.1172C46.4398 40.083 46.4997 40.0317 46.5425 39.9803C46.5853 39.929 46.6109 39.8691 46.6195 39.8178C46.628 39.7579 46.6366 39.7151 46.6366 39.6723V39.3986H47.5178V39.6638C47.5178 39.9718 47.3809 40.2199 47.1157 40.4081C46.8505 40.5964 46.4911 40.6905 46.0548 40.6905C45.6185 40.6905 45.2677 40.5964 44.9939 40.4081C44.7287 40.2199 44.5918 39.9718 44.5918 39.6638V38.3719C44.5918 38.0639 44.7287 37.8158 44.9939 37.6276C45.2506 37.4393 45.6014 37.3452 46.0463 37.3452ZM46.6195 38.3719C46.6195 38.3291 46.6109 38.2863 46.6024 38.2264C46.5938 38.1666 46.5682 38.1152 46.5254 38.0639C46.4826 38.0126 46.4227 37.9612 46.3457 37.927C46.2687 37.8928 46.166 37.8671 46.0377 37.8671C45.9094 37.8671 45.8067 37.8842 45.7297 37.927C45.6527 37.9612 45.5928 38.0126 45.55 38.0639C45.5158 38.1152 45.4901 38.1751 45.473 38.2264C45.4645 38.2863 45.4559 38.3291 45.4559 38.3719V38.7227H46.6109V38.3719H46.6195Z" fill="#474546"/>
<path d="M52.3861 36.4126H53.3956V40.699H52.3861V38.8338H51.2567V40.699H50.2643V36.4126H51.2567V38.3205H52.3861V36.4126Z" fill="#474546"/>
<path d="M57.1429 37.3452V40.699H56.6295C56.5953 40.6734 56.5696 40.6306 56.5525 40.5707C56.5354 40.5108 56.5097 40.4252 56.4926 40.3226C56.3814 40.4424 56.236 40.5279 56.0649 40.5964C55.8937 40.6648 55.697 40.699 55.4831 40.699C55.0981 40.699 54.7901 40.6049 54.5676 40.4167C54.3452 40.2285 54.2254 39.9803 54.2254 39.6723V37.3452H55.0981V39.6723C55.0981 39.7151 55.1066 39.7579 55.1152 39.8178C55.1238 39.8777 55.1494 39.929 55.1922 39.9803C55.2264 40.0317 55.2863 40.083 55.3719 40.1172C55.4489 40.1515 55.5515 40.1771 55.6798 40.1771C55.8167 40.1771 55.9194 40.16 55.9964 40.1172C56.0734 40.083 56.1333 40.0317 56.1675 39.9803C56.2103 39.929 56.236 39.8691 56.2445 39.8178C56.2531 39.7579 56.2616 39.7151 56.2616 39.6723V37.3452H57.1429Z" fill="#474546"/>
<path d="M59.162 37.3545C59.5984 37.3545 59.9491 37.4486 60.2229 37.6368C60.4882 37.825 60.625 38.0732 60.625 38.3812V40.7083H60.086C59.9834 40.6398 59.9149 40.5286 59.8721 40.3575C59.778 40.4516 59.6668 40.5372 59.5214 40.6056C59.3759 40.6741 59.2134 40.7083 59.0337 40.7083C58.5888 40.7083 58.238 40.6227 57.9899 40.4602C57.7332 40.2976 57.6477 40.0495 57.7161 39.7244C57.7503 39.5704 57.8188 39.4421 57.93 39.3308C58.0412 39.2196 58.1781 39.1255 58.3236 39.0485C58.4776 38.9715 58.6316 38.9116 58.8027 38.8517C58.9738 38.8004 59.1278 38.7491 59.2647 38.7063C59.4016 38.6635 59.5214 38.6207 59.6069 38.5779C59.6925 38.5352 59.7438 38.4838 59.7438 38.4325V38.3812C59.7438 38.3384 59.7352 38.2956 59.7267 38.2357C59.7181 38.1758 59.6925 38.1245 59.6497 38.0732C59.6069 38.0218 59.547 37.9705 59.47 37.9363C59.393 37.9021 59.2903 37.8764 59.162 37.8764C59.0337 37.8764 58.931 37.8935 58.854 37.9363C58.777 37.9705 58.7171 38.0218 58.6743 38.0732C58.6401 38.1245 58.6145 38.1844 58.5973 38.2357C58.5888 38.2956 58.5802 38.3384 58.5802 38.3812H57.699C57.699 38.0732 57.8359 37.825 58.1011 37.6368C58.3749 37.4486 58.7257 37.3545 59.162 37.3545ZM59.7438 38.8175C59.7267 38.8603 59.6668 38.9031 59.5641 38.9458C59.4615 38.9972 59.3417 39.0485 59.2133 39.1169C59.085 39.1854 58.9567 39.2624 58.8369 39.3565C58.7171 39.4506 58.6316 39.5704 58.5888 39.7158C58.5546 39.7928 58.5546 39.8698 58.5802 39.9212C58.6059 39.9811 58.6401 40.0238 58.6915 40.0666C58.7428 40.1008 58.8112 40.1351 58.8968 40.1522C58.9823 40.1693 59.0679 40.1778 59.1706 40.1778C59.2989 40.1778 59.4016 40.1607 59.4786 40.118C59.5556 40.0837 59.6155 40.0324 59.6583 39.9811C59.701 39.9297 59.7267 39.8698 59.7353 39.8185C59.7438 39.7586 59.7524 39.7158 59.7524 39.6731L59.7438 38.8175Z" fill="#474546"/>
<path d="M64.107 40.1429C64.107 40.2627 64.107 40.3568 64.1156 40.4338C64.1156 40.5022 64.1241 40.5621 64.1327 40.6049C64.1413 40.6562 64.1498 40.6819 64.1584 40.699H63.4312C63.3969 40.6819 63.3627 40.6477 63.3285 40.5964C63.2943 40.5536 63.2771 40.5022 63.2515 40.4252C63.2344 40.3568 63.2258 40.2627 63.2258 40.1429V38.3719C63.2258 38.3291 63.2173 38.2863 63.2087 38.2264C63.2002 38.1666 63.1745 38.1152 63.1317 38.0639C63.0889 38.0126 63.029 37.9612 62.952 37.927C62.875 37.8928 62.7724 37.8671 62.644 37.8671C62.5157 37.8671 62.413 37.8842 62.336 37.927C62.259 37.9612 62.1991 38.0126 62.1564 38.0639C62.1221 38.1152 62.0965 38.1751 62.0794 38.2264C62.0708 38.2863 62.0623 38.3291 62.0623 38.3719V40.699H61.181V37.3452H61.6944C61.7714 37.3965 61.8312 37.4992 61.8911 37.6532C61.9938 37.5591 62.1307 37.4821 62.3018 37.4222C62.4644 37.3709 62.6526 37.3452 62.8408 37.3452C63.2258 37.3452 63.5338 37.4393 63.7648 37.6276C63.9958 37.8158 64.107 38.0639 64.107 38.3719V40.1429Z" fill="#474546"/>
<path d="M66.1775 37.3452C66.6139 37.3452 66.9647 37.4393 67.2384 37.6276C67.5037 37.8158 67.6405 38.0639 67.6405 38.3719V38.6371H66.7593V38.3719C66.7593 38.3377 66.7508 38.2863 66.7422 38.235C66.7337 38.1751 66.708 38.1238 66.6652 38.0639C66.6224 38.0126 66.5625 37.9612 66.4855 37.927C66.4085 37.8928 66.3059 37.8671 66.1775 37.8671C66.0492 37.8671 65.9465 37.8842 65.8695 37.927C65.7925 37.9612 65.7327 38.0126 65.6984 38.0639C65.6642 38.1152 65.6385 38.1751 65.6214 38.235C65.6129 38.2949 65.6043 38.3377 65.6043 38.3719V39.6638C65.6043 39.7066 65.6129 39.7493 65.6214 39.8092C65.63 39.8691 65.6557 39.9205 65.6984 39.9718C65.7327 40.0231 65.7925 40.0745 65.8695 40.1087C65.9465 40.1429 66.0492 40.1686 66.1775 40.1686C66.3059 40.1686 66.4085 40.1515 66.4855 40.1087C66.5625 40.0745 66.6224 40.0231 66.6652 39.9718C66.708 39.9205 66.7337 39.8606 66.7422 39.8092C66.7508 39.7493 66.7593 39.7066 66.7593 39.6638V39.3986H67.6405V39.6638C67.6405 39.9718 67.5037 40.2199 67.2384 40.4081C66.9732 40.5964 66.6139 40.6905 66.1775 40.6905C65.7412 40.6905 65.3904 40.5964 65.1167 40.4081C64.8514 40.2199 64.7145 39.9718 64.7145 39.6638V38.3719C64.7145 38.0639 64.8514 37.8158 65.1167 37.6276C65.3904 37.4393 65.7412 37.3452 66.1775 37.3452Z" fill="#474546"/>
<path d="M69.6685 37.3545C70.1048 37.3545 70.4556 37.4486 70.7294 37.6368C70.9946 37.825 71.1315 38.0732 71.1315 38.3812V40.7083H70.5925C70.4898 40.6398 70.4214 40.5286 70.3786 40.3575C70.2845 40.4516 70.1733 40.5372 70.0278 40.6056C69.8824 40.6741 69.7198 40.7083 69.5402 40.7083C69.0953 40.7083 68.7445 40.6227 68.4964 40.4602C68.2397 40.2976 68.1541 40.0495 68.2226 39.7244C68.2568 39.5704 68.3252 39.4421 68.4365 39.3308C68.5477 39.2196 68.6846 39.1255 68.83 39.0485C68.9841 38.9715 69.138 38.9116 69.3092 38.8517C69.4803 38.8004 69.6343 38.7491 69.7711 38.7063C69.908 38.6635 70.0278 38.6207 70.1134 38.5779C70.1989 38.5352 70.2503 38.4838 70.2503 38.4325V38.3812C70.2503 38.3384 70.2417 38.2956 70.2332 38.2357C70.2246 38.1758 70.1989 38.1245 70.1562 38.0732C70.1134 38.0218 70.0535 37.9705 69.985 37.9363C69.908 37.9021 69.8054 37.8764 69.677 37.8764C69.5487 37.8764 69.446 37.8935 69.369 37.9363C69.292 37.9705 69.2322 38.0218 69.1979 38.0732C69.1637 38.1245 69.138 38.1844 69.1209 38.2357C69.1124 38.2956 69.1038 38.3384 69.1038 38.3812H68.2226C68.2226 38.0732 68.3595 37.825 68.6247 37.6368C68.8728 37.4486 69.2321 37.3545 69.6685 37.3545ZM70.2417 38.8175C70.2246 38.8603 70.1647 38.9031 70.0706 38.9458C69.9679 38.9972 69.8481 39.0485 69.7198 39.1169C69.5915 39.1854 69.4631 39.2624 69.3434 39.3565C69.2236 39.4506 69.138 39.5704 69.0953 39.7158C69.061 39.7928 69.061 39.8698 69.0867 39.9212C69.1124 39.9811 69.1466 40.0238 69.1979 40.0666C69.2493 40.1008 69.3177 40.1351 69.4033 40.1522C69.4888 40.1693 69.5744 40.1778 69.677 40.1778C69.8054 40.1778 69.908 40.1607 69.985 40.118C70.062 40.0837 70.1219 40.0324 70.1647 39.9811C70.2075 39.9297 70.2332 39.8698 70.2417 39.8185C70.2503 39.7586 70.2588 39.7158 70.2588 39.6731L70.2417 38.8175Z" fill="#474546"/>
<path d="M76.684 37.3452C77.1203 37.3452 77.4711 37.4393 77.7449 37.6276C78.0101 37.8158 78.147 38.0639 78.147 38.3719V39.6638C78.147 39.9718 78.0101 40.2199 77.7449 40.4081C77.4797 40.5964 77.1203 40.6905 76.684 40.6905C76.2477 40.6905 75.8969 40.5964 75.6231 40.4081C75.3579 40.2199 75.221 39.9718 75.221 39.6638V38.3719C75.221 38.0639 75.3579 37.8158 75.6231 37.6276C75.8883 37.4393 76.2477 37.3452 76.684 37.3452ZM77.2744 38.3719C77.2744 38.3377 77.2658 38.2863 77.2572 38.235C77.2487 38.1751 77.223 38.1238 77.1802 38.0639C77.1374 38.0126 77.0776 37.9612 77.0006 37.927C76.9236 37.8928 76.8209 37.8671 76.684 37.8671C76.5557 37.8671 76.453 37.8842 76.376 37.927C76.299 37.9612 76.2391 38.0126 76.1963 38.0639C76.1621 38.1152 76.1364 38.1751 76.1193 38.235C76.1108 38.2949 76.1022 38.3377 76.1022 38.3719V39.6638C76.1022 39.7066 76.1108 39.7493 76.1193 39.8092C76.1279 39.8691 76.1536 39.9205 76.1963 39.9718C76.2306 40.0231 76.2904 40.0745 76.376 40.1087C76.453 40.1429 76.5557 40.1686 76.684 40.1686C76.8209 40.1686 76.9236 40.1515 77.0006 40.1087C77.0776 40.0745 77.1374 40.0231 77.1802 39.9718C77.223 39.9205 77.2487 39.8606 77.2572 39.8092C77.2658 39.7493 77.2744 39.7066 77.2744 39.6638V38.3719Z" fill="#474546"/>
<path d="M71.5847 37.439H72.5685L73.1503 39.6035L73.6465 37.439H74.6219C74.6219 37.439 73.5695 41.1692 73.407 41.443C73.2444 41.7253 73.2359 41.7596 72.1065 41.7596V41.2548H72.6883C72.7653 41.1179 72.7397 40.9553 72.6028 40.6045C72.4744 40.2538 71.5847 37.439 71.5847 37.439Z" fill="#474546"/>
</svg>
