<svg width="176" height="27" viewBox="0 0 176 27" fill="none" xmlns="http://www.w3.org/2000/svg">
<path d="M175.116 20.7118C174.973 20.6988 174.842 20.6857 174.699 20.6597C173.878 20.4642 173.07 20.2557 172.249 20.0602C171.454 19.8647 170.659 19.6823 169.864 19.4998C169.082 19.3173 168.3 19.161 167.518 18.9785C166.697 18.7961 165.876 18.6006 165.055 18.4311C164.169 18.2487 163.27 18.0662 162.383 17.8838C161.979 17.8056 161.575 17.7144 161.171 17.6362C159.725 17.3495 158.291 17.0758 156.845 16.8021C155.906 16.6196 154.968 16.4242 154.03 16.2547C153.443 16.1505 152.844 16.0592 152.244 15.955C151.658 15.8507 151.058 15.7334 150.472 15.6292C149.977 15.538 149.494 15.4467 148.999 15.3685C147.918 15.1991 146.836 15.0427 145.767 14.8733C144.633 14.6908 143.513 14.5084 142.379 14.339C141.636 14.2217 140.893 14.1305 140.163 14.0262C139.355 13.9089 138.547 13.7916 137.739 13.6743C137.153 13.5961 136.566 13.5049 135.98 13.4267C135.159 13.3225 134.325 13.2312 133.491 13.127C132.435 12.9966 131.392 12.8663 130.337 12.736C129.047 12.5926 127.756 12.4362 126.466 12.3059C125.437 12.2017 124.42 12.1104 123.391 12.0192C121.775 11.8759 120.159 11.7325 118.543 11.5891C117.37 11.4849 116.197 11.3937 115.024 11.3024C114.268 11.2503 113.499 11.1982 112.743 11.1591C111.57 11.0809 110.397 11.0157 109.224 10.9506C108.234 10.8984 107.23 10.8333 106.24 10.7811C105.445 10.742 104.65 10.7029 103.855 10.6638C103.034 10.6247 102.226 10.5987 101.405 10.5596C100.154 10.5205 98.9027 10.4684 97.6516 10.4293C95.8662 10.3902 94.0808 10.3511 92.2823 10.338C89.5325 10.312 86.7696 10.2989 84.0198 10.2989C82.0128 10.2989 80.0058 10.338 78.0118 10.3771C77.3993 10.4162 76.7738 10.4423 76.1612 10.4684C74.6625 10.5205 73.1768 10.5726 71.6781 10.6247C70.2054 10.6899 68.7328 10.7551 67.2601 10.8333C66.0481 10.8984 64.8231 10.9766 63.611 11.0548C62.3208 11.146 61.0306 11.2373 59.7274 11.3285C58.8151 11.3937 57.9159 11.4719 57.0036 11.55C55.8698 11.6543 54.749 11.7716 53.6152 11.8759C52.5987 11.9671 51.5822 12.0322 50.5656 12.1365C49.5882 12.2277 48.6238 12.3581 47.6464 12.4623C46.669 12.5666 45.6915 12.6578 44.7271 12.7751C43.7106 12.8924 42.6941 13.0357 41.6906 13.153C40.9086 13.2443 40.1397 13.3225 39.3578 13.4267C38.6019 13.5179 37.8591 13.6352 37.1162 13.7395C36.2691 13.8568 35.409 13.961 34.5619 14.0783C33.8451 14.1826 33.1153 14.2999 32.3985 14.4172C31.7729 14.5084 31.1604 14.5996 30.5349 14.6909C29.8442 14.7951 29.1404 14.8994 28.4497 15.0167C27.8893 15.1079 27.3289 15.2121 26.7685 15.3034C25.9344 15.4467 25.1134 15.5901 24.2793 15.7204C23.3019 15.8898 22.3245 16.0332 21.3601 16.2156C20.4348 16.3851 19.5225 16.5675 18.5972 16.7369C17.9847 16.8542 17.3591 16.9585 16.7466 17.0758C16.2383 17.18 15.7171 17.2843 15.2088 17.4016C14.8048 17.4798 14.4008 17.571 13.9968 17.6492C12.8239 17.8838 11.6509 18.1053 10.478 18.3529C9.63093 18.5224 8.79686 18.7179 7.96279 18.9133C7.16781 19.0828 6.38587 19.2522 5.59089 19.4216C4.87411 19.578 4.1443 19.7474 3.42752 19.9168C2.64557 20.0993 1.86363 20.2948 1.06866 20.4903C0.847105 20.5424 0.638587 20.6206 0.417036 20.6597C0.286712 20.6857 0.143356 20.6727 0.0130324 20.6857C0.0130324 20.6597 0 20.6336 0 20.6076C0.0390971 20.5815 0.0781943 20.5294 0.130324 20.5163C1.13382 20.2166 2.13731 19.9168 3.1408 19.6171C4.00094 19.3564 4.86108 19.0828 5.73425 18.8351C6.34677 18.6527 6.97232 18.4963 7.59788 18.3269C8.23647 18.1444 8.86202 17.9489 9.50061 17.7665C10.1262 17.5971 10.7647 17.4276 11.3903 17.2582C12.068 17.0758 12.7326 16.8933 13.3973 16.7109C14.0489 16.5414 14.6875 16.372 15.3391 16.2026C16.108 16.0071 16.89 15.8116 17.6589 15.6161C18.3626 15.4467 19.0664 15.2773 19.7571 15.1079C20.2654 14.9906 20.7736 14.8603 21.2819 14.743C22.0117 14.5736 22.7415 14.4172 23.4713 14.2477C24.2793 14.0653 25.1004 13.8959 25.9084 13.7134C26.3384 13.6222 26.7555 13.5049 27.1855 13.4267C28.4106 13.1791 29.6356 12.9445 30.8476 12.7099C31.7729 12.5275 32.6982 12.332 33.6235 12.1626C34.601 11.9801 35.5914 11.8237 36.5689 11.6543C37.6506 11.4588 38.7322 11.2764 39.8139 11.0809C40.4916 10.9636 41.1693 10.8724 41.847 10.7681C43.072 10.5726 44.3101 10.3771 45.5351 10.1947C46.3953 10.0644 47.2554 9.9601 48.1156 9.85584C50.0574 9.60822 51.9862 9.34757 53.928 9.11299C54.9836 8.98267 56.0262 8.89144 57.0818 8.78718C58.4111 8.65686 59.7274 8.53957 61.0567 8.42227C62.1254 8.33105 63.194 8.23982 64.2627 8.14859C65.214 8.0704 66.1654 8.00524 67.1168 7.94008C68.3027 7.86188 69.4887 7.78369 70.6616 7.71853C71.6911 7.65336 72.7207 7.60123 73.7502 7.56214C75.8224 7.48394 77.9076 7.41878 79.9797 7.35362C80.8399 7.32755 81.7 7.30149 82.5601 7.30149C85.5576 7.27543 88.542 7.24936 91.5395 7.23633C92.556 7.23633 93.5725 7.27543 94.576 7.30149C95.7228 7.32756 96.8827 7.35362 98.0296 7.40575C99.0591 7.44485 100.089 7.52304 101.118 7.57517C101.535 7.60124 101.939 7.60124 102.356 7.6273C103.321 7.67943 104.285 7.74459 105.263 7.80975C105.849 7.84885 106.435 7.86188 107.009 7.88795C107.726 7.92704 108.429 7.97917 109.146 8.0313C110.423 8.12253 111.701 8.21376 112.978 8.31802C114.19 8.42227 115.402 8.5526 116.614 8.66989C117.617 8.76112 118.621 8.85234 119.611 8.9566C121.162 9.13906 122.713 9.33454 124.264 9.51699C125.567 9.67338 126.87 9.82977 128.173 10.0122C129.724 10.2338 131.288 10.4684 132.839 10.716C134.234 10.9375 135.615 11.1721 137.009 11.4067C138.43 11.6413 139.837 11.8759 141.258 12.1365C142.209 12.3059 143.161 12.5144 144.112 12.7099C145.311 12.9445 146.51 13.1791 147.709 13.4137C148.53 13.5831 149.351 13.7786 150.172 13.961C150.941 14.1305 151.697 14.2868 152.466 14.4693C153.274 14.6518 154.095 14.8472 154.903 15.0427C155.633 15.2121 156.376 15.3816 157.105 15.564C157.835 15.7465 158.552 15.9289 159.282 16.1114C159.959 16.2808 160.624 16.4502 161.302 16.6327C162.006 16.8151 162.709 17.0106 163.413 17.1931C164.065 17.3625 164.729 17.5319 165.381 17.7144C165.993 17.8838 166.606 18.0532 167.218 18.2226C168.131 18.4833 169.056 18.7439 169.968 19.0046C171.011 19.3173 172.053 19.6301 173.109 19.9429C173.722 20.1254 174.321 20.3078 174.934 20.5033C174.999 20.5163 175.051 20.5554 175.103 20.5945C175.142 20.6466 175.129 20.6727 175.116 20.7118Z" fill="#434041"/>
<path d="M146.053 0.0423206C146.848 0.0423206 147.422 0.0292882 147.995 0.055353C148.217 0.0683854 148.438 0.159612 148.66 0.198709C149.377 0.316001 150.093 0.394195 150.797 0.537551C151.618 0.720004 152.426 0.96762 153.234 1.2022C153.456 1.26736 153.495 1.41072 153.377 1.63227C153.065 2.24479 152.739 2.84428 152.426 3.4568C152.309 3.67836 152.192 3.89991 152.087 4.12146C151.957 4.39514 151.853 4.4603 151.566 4.36907C151.305 4.29088 151.045 4.18662 150.784 4.12146C149.976 3.92597 149.168 3.74352 148.347 3.5741C148.073 3.52197 147.787 3.52197 147.5 3.52197C146.692 3.52197 145.884 3.4959 145.076 3.5741C144.568 3.62623 144.046 3.76958 143.564 3.96507C142.952 4.19965 142.678 4.82521 142.86 5.4247C143.004 5.8678 143.356 6.14148 143.76 6.29786C144.385 6.55851 145.024 6.78006 145.675 6.97555C146.627 7.26226 147.578 7.49684 148.529 7.77052C149.311 7.99207 150.093 8.22666 150.862 8.50034C151.918 8.89131 152.908 9.39957 153.69 10.2336C154.212 10.794 154.537 11.4587 154.629 12.2015C154.707 12.788 154.668 13.3875 154.642 13.9739C154.629 14.3388 154.498 14.3779 154.146 14.2997C153.065 14.0521 151.983 13.8306 150.901 13.583C150.302 13.4526 149.689 13.3223 149.09 13.1659C149.012 13.1399 148.907 13.0486 148.894 12.9704C148.79 12.4752 148.464 12.1364 148.047 11.9279C147.513 11.6542 146.952 11.4326 146.379 11.2502C145.727 11.0286 145.05 10.8592 144.372 10.6767C143.707 10.4943 143.03 10.3509 142.378 10.1554C141.687 9.94693 140.997 9.72538 140.332 9.4517C139.459 9.09983 138.677 8.59156 138.025 7.90085C137.387 7.21013 137.061 6.42819 137.035 5.48986C136.996 3.84778 137.778 2.66183 139.094 1.7626C139.837 1.25433 140.645 0.889425 141.531 0.680907C142.352 0.498454 143.199 0.394195 143.994 0.172644C144.737 -0.0489061 145.506 0.120515 146.053 0.0423206Z" fill="#333333"/>
<path d="M36.5145 11.1204C36.4624 11.0813 36.3451 11.0292 36.306 10.938C35.9411 10.2342 35.6023 9.5044 35.2374 8.80065C34.9116 8.1751 34.5727 7.56258 34.2339 6.95005C33.869 6.27237 33.491 5.59469 33.1131 4.93003C33.074 4.85184 32.9828 4.73455 32.9437 4.74758C32.8524 4.76061 32.7612 4.83881 32.7221 4.917C32.4093 5.46436 32.1226 6.01172 31.8229 6.57211C31.4971 7.1716 31.1713 7.78413 30.8585 8.38362C30.4545 9.16556 30.0374 9.9475 29.6465 10.7294C29.3858 11.2507 29.1512 11.7851 28.9167 12.3194C28.8124 12.554 28.643 12.6713 28.3954 12.7234C27.2355 12.958 26.0756 13.1926 24.9157 13.4271C24.225 13.5705 23.5213 13.7399 22.8305 13.8963C22.7654 13.9093 22.6481 13.9093 22.6481 13.8833C22.622 13.8051 22.609 13.7139 22.6481 13.6487C22.9218 13.1144 23.2085 12.58 23.4822 12.0587C23.821 11.4202 24.1598 10.7685 24.5117 10.13C24.8115 9.5826 25.1112 9.03524 25.424 8.48787C25.9844 7.52348 26.5187 6.54605 27.1052 5.59469C27.7568 4.513 28.4345 3.43131 29.1121 2.36265C29.438 1.85439 29.7768 1.35916 30.1026 0.850899C30.259 0.603283 30.4415 0.485992 30.7542 0.499024C32.279 0.512057 33.8038 0.512057 35.3286 0.499024C35.6023 0.499024 35.7847 0.590251 35.9411 0.824834C36.6709 1.98472 37.4398 3.13157 38.1697 4.29145C38.73 5.17765 39.2513 6.07688 39.7857 6.98915C40.3461 7.94052 40.8804 8.90491 41.4277 9.86931C41.6102 10.1821 41.532 10.3254 41.1932 10.3776C39.9681 10.5731 38.7561 10.7816 37.5311 10.9901C37.2053 11.0422 36.8925 11.0683 36.5145 11.1204Z" fill="#333333"/>
<path d="M56.741 0.407715C57.7836 0.407715 58.8261 0.407715 59.8687 0.407715C60.1294 0.407715 60.3249 0.498941 60.4943 0.694427C61.6933 2.0107 62.9053 3.31394 64.1043 4.61717C64.2346 4.76053 64.3649 4.91692 64.4952 5.06028C64.6516 5.24273 64.795 5.2297 64.9514 5.06028C65.4987 4.46079 66.0591 3.8613 66.6195 3.26181C67.2451 2.58412 67.8706 1.90644 68.4962 1.24179C68.6786 1.0463 68.848 0.811719 69.0566 0.642298C69.1999 0.525006 69.4215 0.420747 69.6039 0.420747C71.5979 0.407715 73.5918 0.407715 75.5988 0.420747C75.7031 0.420747 75.8073 0.485909 75.9246 0.511974C75.8725 0.616233 75.8334 0.733524 75.7682 0.811719C74.6866 1.9716 73.5918 3.13148 72.5101 4.29136C71.637 5.21666 70.7768 6.14196 69.8906 7.06726C69.7864 7.17152 69.617 7.26275 69.4736 7.27578C68.6265 7.34094 67.7794 7.38004 66.9323 7.4452C66.2937 7.4843 65.6681 7.53643 65.0296 7.58856C64.4561 7.62765 63.8827 7.67978 63.3093 7.71888C62.3449 7.81011 61.3805 7.8883 60.4161 7.99256C60.1554 8.01863 59.9991 7.90133 59.8557 7.74495C59.3344 7.18455 58.8261 6.61113 58.3048 6.05074C57.8227 5.52944 57.3274 5.00815 56.8452 4.48685C55.9199 3.49639 54.9946 2.4929 54.0693 1.50243C53.8478 1.26785 53.6393 1.03327 53.4307 0.798686C53.3656 0.720492 53.3525 0.603201 53.3004 0.498942C53.3916 0.472877 53.4829 0.420747 53.5741 0.420747C54.6167 0.407715 55.6723 0.407715 56.741 0.407715Z" fill="#333333"/>
<path d="M72.8136 18.0279C71.8231 18.0279 70.8326 18.0018 69.8422 18.0409C69.4512 18.0539 69.2297 17.8975 69.0211 17.5978C68.565 16.9331 68.0698 16.2945 67.6006 15.6299C66.9099 14.6785 66.0628 13.8836 65.0984 13.1928C64.3816 12.6846 64.525 12.7758 63.9515 13.1537C62.8829 13.8445 62.0358 14.7698 61.2929 15.7863C60.7847 16.477 60.2764 17.1677 59.729 17.8324C59.6378 17.9497 59.4032 18.0148 59.2208 18.0148C57.4223 18.0279 55.6238 18.0148 53.8254 18.0148C53.669 18.0148 53.5126 18.0279 53.3562 18.0148C53.252 18.0018 53.0956 17.9757 53.0695 17.9106C53.0304 17.8324 53.0825 17.689 53.1477 17.6108C53.3692 17.298 53.5908 16.9722 53.8384 16.6855C54.8289 15.4865 55.8324 14.3006 56.8359 13.1146C57.1486 12.7497 57.4875 12.4109 57.8263 12.0721C57.9175 11.9939 58.0348 11.9026 58.1521 11.9026C59.0383 11.8244 59.9376 11.7462 60.8238 11.6811C61.7621 11.6159 62.7135 11.5508 63.6518 11.4856C63.9906 11.4595 64.3164 11.4465 64.6553 11.4335C66.154 11.3553 67.6397 11.2901 69.1384 11.2119C69.4773 11.1989 69.8031 11.1468 70.1419 11.1598C70.3113 11.1728 70.5329 11.225 70.6502 11.3422C71.3409 12.0199 72.0186 12.7237 72.6832 13.4274C73.1263 13.8966 73.5694 14.3788 73.9865 14.887C74.7423 15.8123 75.4722 16.7507 76.202 17.702C76.2411 17.7542 76.2802 17.8975 76.2541 17.9236C76.202 17.9757 76.0977 18.0148 76.0065 18.0148C74.9509 18.0279 73.8822 18.0279 72.8136 18.0279Z" fill="#333333"/>
<path d="M93.7135 18.2361C90.8334 18.2361 87.9663 18.2361 85.0861 18.2361C84.7473 18.2361 84.6821 18.171 84.6821 17.8191C84.6821 15.6948 84.6821 13.5705 84.6821 11.4463C84.6821 10.7555 84.6039 10.7686 85.3728 10.7686C86.8324 10.7686 88.2921 10.7686 89.7647 10.7686C90.4815 10.7686 90.4945 10.7816 90.4815 11.4723C90.4685 12.3846 90.4424 13.2969 90.4164 14.1961C90.4033 14.5871 90.4685 14.6392 90.8725 14.6392C94.6779 14.6392 98.4964 14.6392 102.302 14.6392C102.706 14.6392 102.745 14.6783 102.745 15.0823C102.745 15.9685 102.745 16.8547 102.745 17.7409C102.745 18.184 102.706 18.2361 102.263 18.2361C99.4217 18.2361 96.5676 18.2361 93.7135 18.2361Z" fill="#333333"/>
<path d="M125.788 9.13958C125.697 9.13958 125.606 9.16564 125.515 9.15261C124.446 9.02229 123.39 8.8659 122.322 8.73557C121.449 8.63131 120.575 8.54009 119.702 8.44886C118.568 8.33157 117.435 8.20125 116.301 8.08395C115.871 8.04486 115.428 8.01879 114.985 7.9797C114.033 7.9015 113.082 7.75814 112.143 7.73208C111.583 7.71905 111.401 7.36717 111.192 6.9762C110.918 6.46794 110.814 5.89451 110.827 5.33412C110.84 4.39579 111.127 3.52262 111.752 2.79281C112.534 1.88054 113.512 1.26802 114.646 0.903111C115.31 0.694593 115.975 0.525172 116.653 0.342719C116.848 0.290589 117.07 0.316654 117.265 0.251492C118.855 -0.178576 120.471 0.0820713 122.061 0.0429742C122.387 0.0299418 122.726 0.18633 123.052 0.251492C124.055 0.46001 125.046 0.668529 126.049 0.877047C126.388 0.955241 126.714 1.0595 127.039 1.16376C127.274 1.22892 127.326 1.37228 127.209 1.59383C126.753 2.45396 126.297 3.30107 125.867 4.17424C125.749 4.39579 125.606 4.42185 125.41 4.35669C124.368 3.99179 123.299 3.71811 122.204 3.58778C121.722 3.52262 121.227 3.52262 120.732 3.52262C120.028 3.52262 119.324 3.52262 118.621 3.60081C118.086 3.65294 117.552 3.77024 117.109 4.12211C116.418 4.66947 116.457 5.55567 117.174 6.06393C117.643 6.37671 118.138 6.61129 118.686 6.75465C119.793 7.0544 120.901 7.32808 121.996 7.65389C123.052 7.96666 124.094 8.3446 125.15 8.69648C125.332 8.76164 125.502 8.83983 125.671 8.91803C125.736 8.94409 125.814 8.98319 125.88 9.00925C125.84 9.04835 125.814 9.10048 125.788 9.13958Z" fill="#333333"/>
<path d="M120.997 18.3014C120.384 18.3275 119.759 18.3796 119.146 18.3796C118.338 18.3796 117.53 18.3796 116.722 18.3275C115.966 18.2753 115.197 18.2102 114.442 18.0799C113.399 17.8844 112.382 17.6237 111.353 17.3761C111.092 17.3109 110.832 17.1937 110.584 17.0894C110.441 17.0373 110.415 16.946 110.493 16.8027C110.845 16.138 111.184 15.4603 111.535 14.7957C111.64 14.5872 111.757 14.3656 111.848 14.1441C111.939 13.9225 112.083 13.8965 112.304 13.9616C113.269 14.2223 114.233 14.496 115.224 14.7045C116.657 15.0172 118.13 14.9651 119.589 14.9521C120.371 14.9391 121.14 14.7957 121.87 14.4829C122.457 14.2223 122.887 13.4925 122.652 12.8539C122.47 12.3717 122.509 12.3586 123.043 12.4368C123.655 12.515 124.281 12.5411 124.894 12.6063C125.871 12.7105 126.861 12.8278 127.839 12.9321C127.969 12.9451 128.113 12.9581 128.243 12.9712C128.451 12.9972 128.53 13.1015 128.53 13.323C128.477 14.7175 127.891 15.8122 126.757 16.6202C125.767 17.324 124.646 17.754 123.447 17.9495C122.639 18.0929 121.818 18.2232 121.01 18.3535C120.997 18.3405 120.997 18.3144 120.997 18.3014Z" fill="#333333"/>
<path d="M93.3668 0.0428175C96.1167 0.0428175 98.8535 0.0428175 101.603 0.0297852C101.864 0.0297852 101.942 0.134044 101.942 0.355595C101.955 0.694437 101.942 1.02025 101.942 1.35909C101.942 2.02374 101.942 2.68839 101.942 3.34001C101.942 3.63976 101.89 3.69188 101.603 3.69188C96.1036 3.69188 90.604 3.69188 85.1043 3.69188C84.7394 3.69188 84.7003 3.65279 84.7003 3.27485C84.7003 2.36258 84.7003 1.45031 84.7003 0.538048C84.7003 0.472886 84.7003 0.420757 84.7003 0.355595C84.7264 0.147077 84.7915 0.0428175 85.0522 0.0428175C87.8281 0.0558499 90.5909 0.0428175 93.3668 0.0428175Z" fill="#333333"/>
<path d="M147.268 18.3012C146.578 18.3273 145.965 18.3794 145.352 18.3794C144.531 18.3794 143.697 18.3925 142.876 18.3143C141.808 18.223 140.739 18.0797 139.683 17.8972C138.915 17.7669 138.172 17.5193 137.416 17.3238C137.194 17.2586 136.973 17.1804 136.764 17.0892C136.608 17.0241 136.595 16.9068 136.673 16.7504C137.077 15.9815 137.481 15.2256 137.872 14.4436C137.976 14.2221 138.106 14.1439 138.354 14.183C138.993 14.2873 139.631 14.3655 140.27 14.4697C140.895 14.574 141.521 14.7173 142.147 14.8086C142.694 14.8867 143.267 14.8737 143.815 14.9649C144.962 15.1344 146.108 15.3298 147.255 15.5253C148.48 15.7338 149.692 15.9424 150.917 16.1509C151.491 16.2421 152.051 16.3203 152.625 16.4246C152.703 16.4376 152.781 16.4897 152.872 16.5288C152.82 16.607 152.794 16.7113 152.716 16.7504C152.286 16.998 151.856 17.2847 151.4 17.4411C150.605 17.7017 149.784 17.9103 148.962 18.0927C148.376 18.21 147.777 18.2361 147.268 18.3012Z" fill="#333333"/>
<path d="M42.5465 18.0273C41.6603 18.0273 40.7741 18.0273 39.8879 18.0273C39.6924 18.0273 39.5751 17.9622 39.4969 17.8058C39.2232 17.2324 38.9495 16.6589 38.6759 16.0855C38.4022 15.5251 38.1415 14.9517 37.8678 14.3913C37.7636 14.1698 37.8027 14.0655 38.0633 14.0264C39.0799 13.883 40.0964 13.7527 41.0999 13.6224C41.6994 13.5442 42.2989 13.479 42.8853 13.4008C43.146 13.3617 43.3024 13.453 43.4196 13.6876C43.8367 14.5477 44.2798 15.4078 44.7229 16.2549C44.9575 16.7241 45.2051 17.1802 45.4397 17.6494C45.57 17.91 45.5048 18.0143 45.2181 18.0143C44.3319 18.0273 43.4327 18.0273 42.5465 18.0273Z" fill="#333333"/>
<path d="M23.3942 18.0274C22.5471 18.0274 21.713 18.0274 20.8659 18.0274C20.5401 18.0274 20.475 17.9362 20.6183 17.6364C20.7095 17.4279 20.8268 17.2454 20.9181 17.0369C21.0484 16.7502 21.2699 16.6459 21.5827 16.6068C22.6123 16.4505 23.6288 16.255 24.6584 16.0725C25.4533 15.9292 26.2483 15.7988 27.0433 15.6685C27.2909 15.6294 27.3691 15.7467 27.2648 15.9943C27.1215 16.3332 26.952 16.659 26.7957 16.9978C26.6784 17.2324 26.548 17.467 26.4568 17.7146C26.3656 17.9752 26.1831 18.0404 25.9355 18.0274C25.0754 18.0274 24.2283 18.0274 23.3942 18.0274Z" fill="#333333"/>
<path d="M118.567 24.1138C118.567 23.5404 118.567 22.967 118.567 22.3805C118.567 22.2111 118.515 22.0156 118.723 21.9374C118.945 21.8592 119.18 21.8853 119.349 22.0677C119.701 22.4457 120.04 22.8236 120.392 23.2146C120.782 23.6577 121.173 24.1008 121.564 24.5439C121.747 24.7524 121.929 24.9609 122.112 25.1564C122.164 25.2216 122.268 25.2346 122.346 25.2737C122.385 25.1955 122.438 25.1043 122.438 25.0261C122.438 24.1138 122.438 23.2016 122.425 22.2893C122.425 22.1068 122.438 21.9374 122.672 21.8983C122.92 21.8592 123.063 21.9504 123.063 22.2111C123.063 23.4883 123.063 24.7524 123.063 26.0296C123.063 26.1078 122.985 26.2511 122.946 26.2511C122.75 26.2511 122.542 26.2511 122.346 26.186C122.255 26.1599 122.19 26.0165 122.112 25.9253C121.252 24.987 120.392 24.0487 119.531 23.1234C119.505 23.0973 119.479 23.0582 119.44 23.0321C119.375 22.993 119.31 22.98 119.245 22.9539C119.219 23.0191 119.18 23.0712 119.18 23.1364C119.18 24.0617 119.193 24.987 119.193 25.9253C119.193 26.2511 119.114 26.3163 118.789 26.2902C118.619 26.2772 118.554 26.199 118.554 26.0166C118.554 25.378 118.554 24.7524 118.567 24.1138C118.554 24.1138 118.567 24.1138 118.567 24.1138Z" fill="#434041"/>
<path d="M135.865 26.2903C135.683 26.3164 135.566 26.2382 135.488 26.0557C135.227 25.5084 134.966 24.961 134.693 24.4137C134.653 24.3355 134.575 24.2573 134.51 24.1921C134.432 24.2573 134.341 24.3094 134.289 24.3876C134.106 24.7395 133.937 25.0913 133.767 25.4432C133.663 25.6648 133.546 25.8733 133.441 26.0818C133.337 26.2903 133.142 26.3164 132.959 26.2643C132.855 26.2382 132.738 26.1209 132.699 26.0036C132.321 25.1826 131.956 24.3485 131.591 23.5144C131.539 23.3841 131.395 23.2538 131.565 23.1235C131.695 23.0192 132.034 23.0844 132.125 23.2538C132.269 23.5144 132.373 23.7751 132.477 24.0488C132.633 24.4397 132.79 24.8307 132.946 25.2217C132.972 25.2738 133.064 25.352 133.09 25.339C133.181 25.2999 133.272 25.2477 133.324 25.1565C133.481 24.8698 133.611 24.57 133.754 24.2833C133.911 23.9706 134.054 23.6447 134.223 23.345C134.276 23.2407 134.406 23.1104 134.484 23.1235C134.588 23.1365 134.719 23.2538 134.784 23.358C134.966 23.6969 135.123 24.0487 135.292 24.4006C135.422 24.6743 135.553 24.961 135.683 25.2347C135.722 25.2999 135.787 25.352 135.839 25.4172C135.892 25.365 135.97 25.3129 135.996 25.2347C136.191 24.7655 136.387 24.2833 136.569 23.8011C136.634 23.6317 136.7 23.4493 136.791 23.2798C136.843 23.2016 136.947 23.1104 137.038 23.0974C137.156 23.0844 137.351 23.0974 137.39 23.1625C137.442 23.2538 137.403 23.4232 137.351 23.5405C137.025 24.2964 136.687 25.0392 136.335 25.7951C136.256 26.0427 136.217 26.3294 135.865 26.2903Z" fill="#434041"/>
<path d="M147.222 23.4357C147.222 23.8006 147.222 24.1786 147.222 24.5435C147.222 24.6347 147.261 24.739 147.287 24.8302C147.392 24.8041 147.509 24.7911 147.587 24.7259C148.135 24.2698 148.682 23.8137 149.229 23.3575C149.425 23.2012 149.62 23.0839 149.881 23.1099C149.946 23.123 150.011 23.149 150.063 23.1621C150.037 23.2272 150.024 23.3185 149.972 23.3575C149.685 23.6052 149.386 23.8528 149.086 24.1004C148.825 24.3089 148.812 24.3741 149.047 24.6347C149.464 25.0909 149.868 25.56 150.272 26.0292C150.311 26.0683 150.337 26.1595 150.324 26.2116C150.311 26.2507 150.233 26.2768 150.181 26.2768C149.881 26.3029 149.62 26.2768 149.425 25.9771C149.177 25.6252 148.864 25.2994 148.578 24.9736C148.382 24.752 148.291 24.739 148.069 24.9214C147.874 25.0909 147.678 25.2603 147.47 25.4167C147.287 25.56 147.209 25.7294 147.222 25.951C147.235 26.2116 147.144 26.2898 146.883 26.2768C146.649 26.2768 146.584 26.1595 146.584 25.938C146.597 24.739 146.584 23.527 146.597 22.328C146.597 22.1977 146.636 22.0152 146.727 21.9501C146.936 21.7806 147.209 21.95 147.209 22.2498C147.235 22.6408 147.222 23.0448 147.222 23.4357Z" fill="#434041"/>
<path d="M126.418 24.9605C126.027 24.9605 125.623 24.9605 125.232 24.9605C124.958 24.9605 124.841 25.156 125.024 25.3645C125.18 25.547 125.389 25.7425 125.597 25.8076C126.04 25.9379 126.509 25.951 126.952 25.7555C127.109 25.6903 127.278 25.6512 127.435 25.6382C127.5 25.6382 127.617 25.7424 127.63 25.8206C127.643 25.8728 127.552 26.0031 127.487 26.0292C126.627 26.381 125.766 26.4983 124.906 26.0422C124.62 25.8988 124.411 25.6512 124.359 25.3515C124.307 24.9344 124.268 24.4783 124.372 24.0743C124.502 23.5269 124.972 23.2533 125.506 23.149C126.053 23.0317 126.614 23.0317 127.122 23.2924C127.369 23.4227 127.578 23.6573 127.721 23.8919C127.839 24.0873 127.852 24.361 127.891 24.6086C127.93 24.8172 127.826 24.9344 127.604 24.9344C127.226 24.9605 126.822 24.9605 126.418 24.9605ZM126.092 24.4913C126.092 24.4783 126.092 24.4783 126.092 24.4913C126.405 24.4913 126.705 24.4913 127.018 24.4783C127.252 24.4653 127.317 24.335 127.226 24.1264C127.109 23.8397 126.874 23.7094 126.588 23.6051C126.079 23.4097 125.349 23.6051 125.05 24.0613C124.998 24.1525 124.972 24.2959 125.011 24.3871C125.024 24.4392 125.18 24.4783 125.271 24.4783C125.545 24.4913 125.819 24.4913 126.092 24.4913Z" fill="#434041"/>
<path d="M141.775 24.713C141.775 25.6644 141.371 26.2117 140.563 26.2899C140.211 26.329 139.847 26.316 139.482 26.2899C139.052 26.2639 138.713 26.0684 138.439 25.7426C138.426 25.7295 138.413 25.7165 138.4 25.7035C138.1 25.2604 138.191 24.7521 138.218 24.2699C138.244 23.7356 138.608 23.4228 139.104 23.2534C139.794 23.0058 140.459 23.0449 141.111 23.3446C141.515 23.5271 141.801 23.8659 141.775 24.3611C141.775 24.4654 141.775 24.5957 141.775 24.713ZM141.15 24.726C141.15 23.918 140.785 23.5271 140.003 23.5271C139.247 23.5271 138.843 23.9311 138.83 24.6739C138.804 25.4819 139.195 25.8468 139.925 25.8729C140.707 25.925 141.241 25.4819 141.15 24.726Z" fill="#434041"/>
<path d="M152.938 24.4524C153.264 24.5045 153.59 24.5306 153.903 24.5957C154.255 24.6739 154.45 24.9085 154.476 25.2343C154.502 25.6774 154.359 25.925 154.007 26.0944C153.486 26.329 152.938 26.3681 152.391 26.329C151.974 26.2899 151.557 26.1726 151.14 26.0684C151.062 26.0423 150.996 25.912 150.931 25.8338C151.036 25.7686 151.127 25.6644 151.231 25.6513C151.335 25.6383 151.466 25.6774 151.583 25.7295C152.143 25.9772 152.717 25.9772 153.303 25.8859C153.42 25.8729 153.564 25.8208 153.655 25.7295C153.759 25.6253 153.89 25.4689 153.89 25.3386C153.89 25.1561 153.72 25.0258 153.525 24.9997C153.043 24.9476 152.573 24.9085 152.091 24.8303C151.817 24.7912 151.531 24.713 151.296 24.5957C150.97 24.4133 150.918 23.9832 151.14 23.6835C151.4 23.3055 151.804 23.2143 152.208 23.1491C152.834 23.0579 153.447 23.1231 154.033 23.3316C154.124 23.3576 154.176 23.4619 154.255 23.5401C154.163 23.6053 154.085 23.7356 153.994 23.7356C153.824 23.7356 153.642 23.6835 153.473 23.6313C152.951 23.501 152.443 23.4358 151.935 23.6835C151.765 23.7616 151.622 23.8659 151.648 24.0875C151.687 24.309 151.844 24.3742 152.026 24.4002C152.326 24.4393 152.625 24.4784 152.925 24.5175C152.938 24.4915 152.938 24.4784 152.938 24.4524Z" fill="#434041"/>
<path d="M129.112 24.6744C129.112 24.4398 129.112 24.2052 129.112 23.9837C129.112 23.7621 129.086 23.5797 128.825 23.5145C128.773 23.5015 128.695 23.4102 128.695 23.3581C128.695 23.306 128.76 23.1887 128.799 23.1887C129.112 23.1235 129.125 22.915 129.112 22.6674C129.099 22.4719 129.138 22.3025 129.386 22.2895C129.62 22.2764 129.711 22.3546 129.724 22.5892C129.763 23.1366 129.763 23.1366 130.311 23.1496C130.454 23.1496 130.637 23.1496 130.637 23.3451C130.65 23.5406 130.467 23.5666 130.324 23.5666C129.607 23.5275 129.737 23.723 129.724 24.1922C129.724 24.5571 129.724 24.909 129.724 25.2739C129.724 25.6648 129.933 25.8734 130.324 25.8994C130.376 25.8994 130.441 25.8864 130.48 25.9125C130.545 25.9646 130.65 26.0298 130.65 26.0949C130.65 26.1601 130.558 26.2643 130.493 26.2904C129.724 26.538 129.099 26.0819 129.112 25.2869C129.112 25.0654 129.112 24.8699 129.112 24.6744Z" fill="#434041"/>
<path d="M143.02 24.7391C143.02 24.3091 143.007 23.879 143.033 23.4489C143.033 23.3447 143.124 23.1622 143.189 23.1492C143.32 23.1362 143.515 23.1753 143.593 23.2665C143.724 23.4098 143.815 23.4098 143.971 23.3447C144.479 23.1101 145.001 23.0319 145.548 23.1883C145.678 23.2274 145.887 23.2404 145.835 23.475C145.796 23.6575 145.522 23.7617 145.353 23.6835C144.936 23.488 144.519 23.5271 144.101 23.6835C143.789 23.8008 143.645 24.0224 143.645 24.3482C143.645 24.8955 143.645 25.4299 143.658 25.9772C143.658 26.2118 143.567 26.303 143.346 26.303C143.111 26.303 143.02 26.2248 143.02 25.9772C143.02 25.5602 143.007 25.1432 143.02 24.7391C143.007 24.7391 143.007 24.7391 143.02 24.7391Z" fill="#434041"/>
</svg>
