<svg width="169" height="36" viewBox="0 0 169 36" fill="none" xmlns="http://www.w3.org/2000/svg">
<path d="M0.238403 0.0820312V25.0291C2.18074 35.3555 11.4826 35.4538 11.4826 35.4538H35.4053V0.0820312H0.238403ZM29.6848 17.7679H24.366V11.3263H17.826V6.31881H29.6848V17.7679Z" fill="#1D1D1B"/>
<path d="M55.7553 0.590332C58.7221 1.09845 58.7221 4.17177 58.7221 4.17177C59.1319 5.81087 57.1896 7.54831 57.1896 7.54831C59.1319 8.05644 59.1319 10.8183 59.1319 10.8183C59.3368 14.3998 55.2472 15.0062 55.2472 15.0062H47.0681V0.590332H55.7553ZM50.1332 3.14733V6.31899H54.4277C54.4277 6.31899 55.9275 5.97478 55.8619 4.73726C55.8619 4.73726 55.7226 3.15552 54.2965 3.15552H50.1332V3.14733ZM50.1332 8.6711V12.3509H54.2884C54.2884 12.3509 56.1979 12.1132 56.3372 10.3594C56.3372 10.3594 56.2717 8.6711 54.567 8.6711H50.1332Z" fill="#1D1D1B"/>
<path d="M66.0151 0.590332H69.0802L74.7351 15.0062H71.5963L70.4407 12.0395H64.8513L63.4909 15.0062H60.4258L66.0151 0.590332ZM67.5805 4.73726L65.5316 9.55621H69.6211L67.5805 4.73726Z" fill="#1D1D1B"/>
<path d="M160.059 20.7183H163.124L168.779 35.1342H165.64L164.484 32.1674H158.895L157.534 35.1342H154.469L160.059 20.7183ZM161.624 24.857L159.575 29.6759H163.665L161.624 24.857Z" fill="#1D1D1B"/>
<path d="M104.657 10.5069L106.501 12.3509C106.501 12.3509 104.862 15.0063 100.641 15.0063C100.641 15.0063 93.2815 15.9979 92.6668 7.79423C92.6668 7.79423 92.1915 0.41828 100.641 0.0740687C100.641 0.0740687 104.321 -0.0652551 106.165 2.52452L104.116 4.43408C104.116 4.43408 103.042 2.83595 100.387 2.83595C100.387 2.83595 96.2483 2.77039 95.9369 7.55656C95.9369 7.55656 95.732 12.0887 100.485 12.4493C100.485 12.4493 103.313 12.6542 104.657 10.5069Z" fill="#1D1D1B"/>
<path d="M79.3661 30.7335L81.2101 32.5775C81.2101 32.5775 79.571 35.2328 75.3503 35.2328C75.3503 35.2328 67.9907 36.2245 67.3761 28.0208C67.3761 28.0208 66.9007 20.6448 75.3503 20.3006C75.3503 20.3006 79.0301 20.1613 80.8741 22.7511L78.8252 24.6606C78.8252 24.6606 77.7516 23.0625 75.0962 23.0625C75.0962 23.0625 70.9575 22.997 70.6461 27.7831C70.6461 27.7831 70.4412 32.3152 75.1946 32.6758C75.1946 32.684 78.022 32.8807 79.3661 30.7335Z" fill="#1D1D1B"/>
<path d="M134.825 30.7335L136.669 32.5775C136.669 32.5775 135.03 35.2328 130.809 35.2328C130.809 35.2328 123.45 36.2245 122.835 28.0208C122.835 28.0208 122.36 20.6448 130.809 20.3006C130.809 20.3006 134.489 20.1613 136.333 22.7511L134.284 24.6606C134.284 24.6606 133.21 23.0625 130.555 23.0625C130.555 23.0625 126.416 22.997 126.105 27.7831C126.105 27.7831 125.9 32.3152 130.653 32.6758C130.645 32.684 133.481 32.8807 134.825 30.7335Z" fill="#1D1D1B"/>
<path d="M115.722 12.4736C113.067 12.4736 110.919 10.3181 110.919 7.67099C110.919 5.01565 113.075 2.86843 115.722 2.86843C118.369 2.86843 120.524 5.02384 120.524 7.67099C120.524 10.3181 118.377 12.4736 115.722 12.4736ZM123.393 7.67099C123.393 3.43392 119.959 0 115.722 0C111.485 0 108.051 3.43392 108.051 7.67099C108.051 11.9081 111.485 15.342 115.722 15.342C119.959 15.342 123.393 11.9081 123.393 7.67099Z" fill="#1D1D1B"/>
<path d="M103.248 20.5791H100.437V35.2736H103.248V20.5791Z" fill="#1D1D1B"/>
<path d="M64.3925 20.5791H61.5814V35.2736H64.3925V20.5791Z" fill="#1D1D1B"/>
<path d="M47.2729 35.2736V20.5791H54.6325C54.6325 20.5791 58.9761 21.1446 58.7712 25.4882C58.7712 25.4882 59.1318 29.2745 54.7309 30.3481H50.1332V35.2736H47.2729ZM50.1332 23.341V27.7911H53.7638C53.7638 27.7911 55.8618 27.3814 55.8618 25.5702C55.8618 25.5702 56.0094 23.4475 54.0179 23.3492H50.1332V23.341Z" fill="#1D1D1B"/>
<path d="M84.0791 20.5791V35.2736H86.9967V29.168H93.4875V35.2736H96.2986V20.5791H94.4054C94.4054 20.5791 93.4875 20.6283 93.4875 21.6035V26.2012H86.8902V20.5791H84.0791Z" fill="#1D1D1B"/>
<path d="M139.693 20.5791V35.2736H142.611V29.168H149.102V35.2736H151.913V20.5791H150.02C150.02 20.5791 149.102 20.6283 149.102 21.6035V26.2012H142.504V20.5791H139.693Z" fill="#1D1D1B"/>
<path d="M77.0713 15.0062V0.590332H80.3905C80.3905 0.590332 81.0543 0.746047 81.4149 1.40988L86.9387 10.5069V0.590332H89.7497V15.0062H86.783C86.783 15.0062 86.2748 15.0554 85.8077 14.2932L80.2348 5.13884V15.0062H77.0713Z" fill="#1D1D1B"/>
<path d="M107.206 35.2738V20.8579H110.525C110.525 20.8579 111.189 21.0136 111.549 21.6775L117.073 30.7745V20.8579H119.884V35.2738H116.917C116.917 35.2738 116.409 35.323 115.942 34.5608L110.369 25.4064V35.2738H107.206Z" fill="#1D1D1B"/>
</svg>
