<svg width="151" height="42" viewBox="0 0 151 42" fill="none" xmlns="http://www.w3.org/2000/svg">
<path d="M127.785 4.28125H22.5284V36.7983H127.785V4.28125Z" fill="#231F1E"/>
<path d="M22.5371 4.28125H0V36.7983H22.5371V4.28125Z" fill="#575756"/>
<path d="M150.322 4.28125H127.785V36.7983H150.322V4.28125Z" fill="#575756"/>
<path d="M127.785 0H22.5284V1.99772H127.785V0Z" fill="#575756"/>
<path d="M22.5371 0H0V1.99772H22.5371V0Z" fill="#231F1E"/>
<path d="M150.322 0H127.785V1.99772H150.322V0Z" fill="#231F1E"/>
<path d="M127.785 39.0811H22.5284V41.0788H127.785V39.0811Z" fill="#575756"/>
<path d="M22.5371 39.0811H0V41.0788H22.5371V39.0811Z" fill="#231F1E"/>
<path d="M150.322 39.0811H127.785V41.0788H150.322V39.0811Z" fill="#231F1E"/>
<path d="M37.4378 12.9376C38.268 13.1105 38.8907 13.3873 39.2972 13.7591C39.8679 14.2867 40.1533 14.9266 40.1533 15.6877C40.1533 16.2671 39.9631 16.8206 39.5912 17.3481C39.2107 17.8756 38.7004 18.2648 38.0432 18.507C37.3859 18.7491 36.3827 18.8702 35.0423 18.8702H29.395V18.5502H29.8447C30.3463 18.5502 30.7009 18.3945 30.9171 18.0832C31.0555 17.8843 31.116 17.4605 31.116 16.8033V9.29668C31.116 8.57889 31.0295 8.12053 30.8566 7.93027C30.6317 7.68813 30.2944 7.56705 29.8447 7.56705H29.395V7.24707H34.558C35.5266 7.24707 36.2962 7.31626 36.8757 7.45463C37.7578 7.66218 38.4323 8.0254 38.8993 8.54429C39.3663 9.06318 39.5998 9.66855 39.5998 10.3518C39.5998 10.9312 39.4182 11.4587 39.055 11.9171C38.6918 12.3754 38.1469 12.7127 37.4378 12.9376ZM32.811 12.4792C33.0272 12.5224 33.278 12.5484 33.5548 12.5657C33.8315 12.583 34.1429 12.5916 34.4801 12.5916C35.3363 12.5916 35.9849 12.5051 36.4173 12.3235C36.8497 12.1419 37.1784 11.8652 37.4119 11.4933C37.6454 11.1214 37.7578 10.715 37.7578 10.2739C37.7578 9.59072 37.4724 9.01129 36.9016 8.53564C36.3308 8.05135 35.5006 7.81785 34.4023 7.81785C33.8142 7.81785 33.2867 7.87839 32.811 8.00811V12.4792ZM32.811 18.0313C33.4942 18.187 34.1688 18.2648 34.8347 18.2648C35.8984 18.2648 36.7114 18.0313 37.2735 17.5643C37.8356 17.0973 38.1124 16.5265 38.1124 15.8347C38.1124 15.385 37.9826 14.9526 37.7318 14.5288C37.481 14.1137 37.0659 13.7851 36.4952 13.5429C35.9244 13.3008 35.2152 13.1797 34.3764 13.1797C34.0131 13.1797 33.7018 13.1883 33.4424 13.197C33.1829 13.2056 32.9754 13.2316 32.8197 13.2575V18.0313H32.811Z" fill="white"/>
<path d="M49.3032 14.9785H44.6678L43.8549 16.8119C43.656 17.2617 43.5522 17.5989 43.5522 17.8238C43.5522 18.0054 43.6387 18.1611 43.8116 18.2908C43.9846 18.4292 44.3565 18.5156 44.9359 18.5502V18.8702H41.1653V18.5502C41.6669 18.4637 41.9869 18.3513 42.1339 18.2129C42.4366 17.9362 42.7652 17.3827 43.1284 16.5439L47.3401 6.979H47.6514L51.8198 16.6476C52.1571 17.426 52.4598 17.9276 52.7365 18.1611C53.0132 18.3946 53.3938 18.5243 53.8781 18.5502V18.8702H49.1562V18.5502C49.6318 18.5243 49.9518 18.4464 50.1248 18.3167C50.2891 18.187 50.3756 18.0227 50.3756 17.8324C50.3756 17.5816 50.2545 17.1838 50.021 16.639L49.3032 14.9785ZM49.0524 14.3472L47.0201 9.65128L44.9359 14.3472H49.0524Z" fill="white"/>
<path d="M53.7395 7.24707H56.9825L64.2989 15.9644V9.26209C64.2989 8.54429 64.2124 8.10324 64.0481 7.92163C63.8319 7.67948 63.486 7.56705 63.019 7.56705H62.6038V7.24707H66.7722V7.56705H66.3485C65.8469 7.56705 65.4837 7.71407 65.2761 8.01676C65.1464 8.19837 65.0859 8.61348 65.0859 9.27074V19.0691H64.7659L56.8701 9.6945V16.8552C56.8701 17.573 56.9479 18.014 57.1123 18.1956C57.3371 18.4378 57.683 18.5588 58.1414 18.5588H58.5652V18.8788H54.3967V18.5588H54.8119C55.3221 18.5588 55.6853 18.4118 55.8929 18.1091C56.0226 17.9275 56.0831 17.5124 56.0831 16.8552V8.76914C55.7372 8.37133 55.4691 8.11188 55.2962 7.99081C55.1145 7.86109 54.8551 7.74866 54.5092 7.63624C54.3362 7.58435 54.0768 7.5584 53.7308 7.5584V7.24707H53.7395Z" fill="white"/>
<path d="M77.7902 6.979L78.0669 10.9312H77.7902C77.4269 9.74641 76.9081 8.89889 76.2249 8.38C75.5503 7.86111 74.7374 7.60167 73.7861 7.60167C72.9904 7.60167 72.2727 7.80058 71.6327 8.18975C70.9927 8.57891 70.4911 9.20158 70.1193 10.0664C69.7474 10.9226 69.5658 11.9863 69.5658 13.2662C69.5658 14.3213 69.7387 15.2293 70.0847 15.999C70.4306 16.7687 70.9495 17.3654 71.65 17.7719C72.3505 18.187 73.1461 18.3859 74.0369 18.3859C74.8152 18.3859 75.4984 18.2216 76.0951 17.9016C76.6919 17.5816 77.3405 16.933 78.0496 15.9731L78.3264 16.146C77.7296 17.1838 77.0291 17.9362 76.2249 18.4205C75.4292 18.9048 74.4779 19.1383 73.371 19.1383C71.3905 19.1383 69.8512 18.4205 68.7615 16.9936C67.9486 15.9298 67.5421 14.6759 67.5421 13.2403C67.5421 12.0814 67.8102 11.0177 68.3464 10.0404C68.8826 9.07186 69.6177 8.31947 70.5603 7.78328C71.4943 7.2471 72.5235 6.979 73.6391 6.979C74.5039 6.979 75.36 7.18656 76.1989 7.59302C76.4497 7.72274 76.6227 7.78328 76.7265 7.78328C76.8821 7.78328 77.0205 7.73139 77.1416 7.61897C77.2972 7.4633 77.401 7.2471 77.4702 6.979H77.7902Z" fill="white"/>
<path d="M85.4695 6.979C87.0262 6.979 88.3667 7.54978 89.5082 8.69999C90.6498 9.85019 91.2119 11.2771 91.2119 12.9895C91.2119 14.7537 90.6411 16.2239 89.4909 17.3914C88.3407 18.5589 86.957 19.1383 85.3225 19.1383C83.6794 19.1383 82.2957 18.5675 81.1714 17.4346C80.0471 16.2931 79.4937 14.8229 79.4937 13.0154C79.4937 11.1734 80.1423 9.65993 81.4308 8.50108C82.5551 7.48924 83.9042 6.979 85.4695 6.979ZM85.2966 7.61032C84.2242 7.61032 83.368 7.99949 82.7194 8.76917C81.9151 9.72912 81.5087 11.1388 81.5087 12.9895C81.5087 14.8834 81.9238 16.3449 82.7627 17.3741C83.4026 18.1524 84.2501 18.5416 85.3052 18.5416C86.4295 18.5416 87.3548 18.1178 88.0899 17.2617C88.825 16.4141 89.1882 15.065 89.1882 13.2316C89.1882 11.2425 88.7818 9.75506 87.9775 8.77782C87.3289 7.99949 86.4381 7.61032 85.2966 7.61032Z" fill="white"/>
<path d="M97.8623 18.8272V18.5072H98.312C98.8136 18.5072 99.1768 18.3516 99.3844 18.0316C99.5141 17.8413 99.5746 17.4176 99.5746 16.7603V9.25371C99.5746 8.52727 99.4881 8.07756 99.3238 7.88731C99.0903 7.63651 98.753 7.50679 98.3033 7.50679H97.8536V7.2041H102.723C104.513 7.2041 105.87 7.40301 106.804 7.79218C107.738 8.18999 108.482 8.84725 109.053 9.76395C109.624 10.6807 109.901 11.7444 109.901 12.9551C109.901 14.5723 109.39 15.9214 108.387 17.0111C107.254 18.2218 105.525 18.8272 103.198 18.8272H97.8623ZM101.278 17.9883C102.022 18.1527 102.653 18.2305 103.155 18.2305C104.521 18.2305 105.654 17.7635 106.554 16.8295C107.453 15.8955 107.903 14.6329 107.903 13.0416C107.903 11.433 107.453 10.1704 106.554 9.24506C105.654 8.31971 104.495 7.85271 103.086 7.85271C102.558 7.85271 101.953 7.93919 101.278 8.10351V17.9883Z" fill="white"/>
<path d="M114.268 7.83542V12.4276H116.897C117.58 12.4276 118.038 12.3238 118.263 12.1249C118.566 11.8655 118.739 11.3985 118.774 10.7325H119.102V14.7799H118.774C118.687 14.2178 118.609 13.8545 118.523 13.6902C118.419 13.4913 118.246 13.3356 118.004 13.2146C117.762 13.1021 117.39 13.0416 116.888 13.0416H114.259V16.8727C114.259 17.383 114.285 17.703 114.328 17.8154C114.372 17.9278 114.458 18.0143 114.579 18.0835C114.7 18.1527 114.916 18.1786 115.245 18.1786H117.277C117.952 18.1786 118.445 18.1354 118.748 18.0402C119.05 17.9451 119.344 17.7721 119.63 17.504C119.993 17.1495 120.365 16.6133 120.754 15.9041H121.109L120.079 18.8186H110.86V18.4986H111.284C111.57 18.4986 111.838 18.4294 112.089 18.2997C112.279 18.2045 112.408 18.0748 112.469 17.8846C112.538 17.703 112.573 17.3311 112.573 16.7603V9.21047C112.573 8.47538 112.495 8.01703 112.339 7.84406C112.132 7.61921 111.777 7.49814 111.284 7.49814H110.86V7.2041H120.079L120.209 9.74666H119.863C119.742 9.13264 119.604 8.71753 119.457 8.48403C119.31 8.25918 119.085 8.07756 118.791 7.96514C118.557 7.87866 118.142 7.83542 117.546 7.83542H114.268Z" fill="white"/>
<path d="M38.2593 21.5254L38.536 25.4776H38.2593C37.8961 24.2928 37.3772 23.4453 36.694 22.9264C36.0194 22.4075 35.2065 22.1481 34.2552 22.1481C33.4596 22.1481 32.7418 22.347 32.1018 22.7361C31.4618 23.1253 30.9602 23.748 30.5884 24.6128C30.2165 25.4689 30.0349 26.5327 30.0349 27.8126C30.0349 28.8677 30.2079 29.7757 30.5538 30.5454C30.8997 31.3151 31.4186 31.9118 32.1191 32.3183C32.8196 32.7334 33.6152 32.9323 34.506 32.9323C35.2843 32.9323 35.9675 32.768 36.5642 32.448C37.161 32.128 37.8096 31.4794 38.5187 30.5195L38.7955 30.6924C38.1988 31.7302 37.4983 32.4826 36.694 32.9669C35.8897 33.4512 34.947 33.6847 33.8401 33.6847C31.8597 33.6847 30.3203 32.9669 29.2306 31.5399C28.4177 30.4762 28.0112 29.2222 28.0112 27.7867C28.0112 26.6278 28.2793 25.5641 28.8155 24.5868C29.3517 23.6182 30.0868 22.8659 31.0294 22.3297C31.9634 21.7935 32.9926 21.5254 34.1082 21.5254C34.973 21.5254 35.8292 21.7329 36.668 22.1394C36.9188 22.2691 37.0918 22.3297 37.1956 22.3297C37.3512 22.3297 37.4896 22.2778 37.6107 22.1654C37.7663 22.0097 37.8701 21.7935 37.9393 21.5254H38.2593Z" fill="white"/>
<path d="M46.1464 21.5254C47.7031 21.5254 49.0435 22.0962 50.1851 23.2464C51.3266 24.3966 51.8888 25.8235 51.8888 27.5359C51.8888 29.3001 51.318 30.7703 50.1678 31.9378C49.0176 33.1053 47.6339 33.6847 45.9994 33.6847C44.3562 33.6847 42.9725 33.1139 41.8483 31.981C40.724 30.8394 40.1705 29.3693 40.1705 27.5618C40.1705 25.7197 40.8191 24.2063 42.1077 23.0475C43.2406 22.0356 44.5811 21.5254 46.1464 21.5254ZM45.9821 22.1567C44.9097 22.1567 44.0535 22.5459 43.4049 23.3156C42.6007 24.2755 42.1942 25.6852 42.1942 27.5359C42.1942 29.4298 42.6093 30.8913 43.4482 31.9205C44.0881 32.6988 44.9357 33.088 45.9907 33.088C47.115 33.088 48.0403 32.6642 48.7754 31.808C49.5105 30.9605 49.8738 29.6114 49.8738 27.778C49.8738 25.7889 49.4673 24.3014 48.663 23.3242C48.0144 22.5459 47.1236 22.1567 45.9821 22.1567Z" fill="white"/>
<path d="M60.0873 33.4166L55.4605 23.6355V31.4016C55.4605 32.1193 55.5384 32.5604 55.7027 32.742C55.9189 32.9842 56.2648 33.1052 56.7318 33.1052H57.1556V33.4252H52.9872V33.1052H53.4109C53.9125 33.1052 54.2757 32.9582 54.4833 32.6555C54.613 32.4739 54.6736 32.0588 54.6736 31.4016V23.8085C54.6736 23.2982 54.613 22.9264 54.5006 22.6929C54.4141 22.5285 54.2671 22.3902 54.0422 22.2778C53.826 22.1653 53.4715 22.1134 52.9785 22.1134V21.7935H56.3686L60.71 30.8913L64.9821 21.7935H68.3722V22.1134H67.9571C67.4469 22.1134 67.0836 22.2605 66.8761 22.5631C66.7464 22.7448 66.6858 23.1599 66.6858 23.8171V31.4102C66.6858 32.128 66.7723 32.569 66.9366 32.7507C67.1528 32.9928 67.4988 33.1139 67.9658 33.1139H68.3809V33.4339H63.2958V33.1139H63.7195C64.2298 33.1139 64.593 32.9669 64.7919 32.6642C64.9216 32.4826 64.9821 32.0675 64.9821 31.4102V23.6442L60.364 33.4252H60.0873V33.4166Z" fill="white"/>
<path d="M72.6443 22.4248V27.017H75.2733C75.9566 27.017 76.4149 26.9132 76.6398 26.7143C76.9424 26.4549 77.1154 25.9879 77.15 25.322H77.4786V29.3693H77.15C77.0635 28.8072 76.9857 28.4439 76.8992 28.2796C76.7954 28.0807 76.6225 27.9251 76.3803 27.804C76.1382 27.6916 75.7663 27.631 75.2647 27.631H72.6357V31.4622C72.6357 31.9724 72.6616 32.2924 72.7048 32.4048C72.7481 32.5172 72.8346 32.6037 72.9556 32.6729C73.0767 32.7421 73.2929 32.768 73.6302 32.768H75.6625C76.3371 32.768 76.83 32.7248 77.1327 32.6297C77.4354 32.5345 77.7294 32.3616 78.0148 32.0935C78.378 31.7389 78.7499 31.2027 79.1391 30.4936H79.4936L78.4645 33.408H69.2369V33.088H69.6607C69.9461 33.088 70.2142 33.0188 70.465 32.8891C70.6552 32.794 70.785 32.6642 70.8455 32.474C70.9147 32.2924 70.9493 31.9205 70.9493 31.3497V23.7999C70.9493 23.0648 70.8714 22.6064 70.7158 22.4335C70.5082 22.2086 70.1536 22.0876 69.6607 22.0876H69.2369V21.7676H78.4559L78.5856 24.3101H78.2397C78.1186 23.6961 77.9802 23.281 77.8332 23.0475C77.6862 22.8227 77.4613 22.641 77.1673 22.5286C76.9338 22.4421 76.5187 22.3989 75.922 22.3989H72.6443V22.4248Z" fill="white"/>
<path d="M92.2237 33.4166H89.0325L84.9852 27.9769C84.6825 27.9855 84.4403 27.9942 84.2501 27.9942C84.1722 27.9942 84.0944 27.9942 83.9993 27.9942C83.9128 27.9942 83.8177 27.9855 83.7225 27.9855V31.367C83.7225 32.102 83.809 32.5518 83.9733 32.7334C84.1982 32.9842 84.5355 33.1139 84.9765 33.1139H85.4435V33.4339H80.3152V33.1139H80.7649C81.2665 33.1139 81.6297 32.9582 81.8459 32.6296C81.967 32.4566 82.0275 32.0329 82.0275 31.367V23.8604C82.0275 23.1253 81.941 22.6756 81.7767 22.494C81.5432 22.2432 81.2059 22.1134 80.7562 22.1134H80.3065V21.7935H84.6652C85.9365 21.7935 86.8705 21.8799 87.4758 22.0615C88.0812 22.2432 88.5914 22.5718 89.0152 23.0561C89.439 23.5404 89.6465 24.1112 89.6465 24.7857C89.6465 25.5035 89.4044 26.1175 88.9287 26.6451C88.4531 27.1726 87.7093 27.5445 86.6975 27.7607L89.1709 31.0989C89.733 31.8685 90.2173 32.3701 90.6238 32.6209C91.0302 32.8717 91.5578 33.036 92.215 33.1052V33.4166H92.2237ZM83.7312 27.4407C83.8436 27.4407 83.9387 27.4407 84.0252 27.4407C84.1117 27.4407 84.1722 27.4407 84.2241 27.4407C85.3657 27.4407 86.2219 27.1986 86.8013 26.7229C87.3807 26.2386 87.6661 25.6332 87.6661 24.8895C87.6661 24.163 87.4326 23.575 86.9656 23.1166C86.4986 22.6583 85.8759 22.4334 85.1062 22.4334C84.769 22.4334 84.302 22.4853 83.7225 22.5977V27.4407H83.7312Z" fill="white"/>
<path d="M103.051 21.5254L103.328 25.4776H103.051C102.688 24.2928 102.169 23.4453 101.486 22.9264C100.811 22.4075 99.9984 22.1481 99.0471 22.1481C98.2515 22.1481 97.5337 22.347 96.8937 22.7361C96.2537 23.1253 95.7521 23.748 95.3803 24.6128C95.0084 25.4689 94.8268 26.5327 94.8268 27.8126C94.8268 28.8677 94.9997 29.7757 95.3457 30.5454C95.6916 31.3151 96.2105 31.9118 96.911 32.3183C97.6115 32.7334 98.4071 32.9323 99.2979 32.9323C100.076 32.9323 100.759 32.768 101.356 32.448C101.953 32.128 102.601 31.4794 103.311 30.5195L103.587 30.6924C102.991 31.7302 102.29 32.4826 101.486 32.9669C100.69 33.4512 99.7389 33.6847 98.6406 33.6847C96.6602 33.6847 95.1208 32.9669 94.0312 31.5399C93.2182 30.4762 92.8118 29.2222 92.8118 27.7867C92.8118 26.6278 93.0799 25.5641 93.616 24.5868C94.1522 23.6182 94.8873 22.8659 95.83 22.3297C96.764 21.7935 97.7931 21.5254 98.9087 21.5254C99.7735 21.5254 100.63 21.7329 101.469 22.1394C101.719 22.2691 101.892 22.3297 101.996 22.3297C102.152 22.3297 102.29 22.2778 102.411 22.1654C102.567 22.0097 102.671 21.7935 102.74 21.5254H103.051Z" fill="white"/>
<path d="M109.909 33.1051V33.4251H104.781V33.1051H105.205C105.698 33.1051 106.061 32.9667 106.277 32.6813C106.415 32.4997 106.485 32.0587 106.485 31.3582V23.8516C106.485 23.2635 106.45 22.8743 106.372 22.6841C106.312 22.5371 106.191 22.416 106.009 22.3122C105.749 22.1738 105.481 22.1046 105.196 22.1046H104.772V21.7847H109.901V22.1046H109.468C108.984 22.1046 108.621 22.243 108.404 22.5284C108.257 22.71 108.18 23.1511 108.18 23.8516V31.3582C108.18 31.9462 108.214 32.3354 108.292 32.5257C108.353 32.6727 108.474 32.7938 108.664 32.8975C108.915 33.0359 109.183 33.1051 109.468 33.1051H109.909Z" fill="white"/>
<path d="M117.07 21.5254C118.627 21.5254 119.967 22.0962 121.109 23.2464C122.25 24.3966 122.812 25.8235 122.812 27.5359C122.812 29.3001 122.241 30.7703 121.091 31.9378C119.941 33.1053 118.557 33.6847 116.923 33.6847C115.28 33.6847 113.896 33.1139 112.772 31.981C111.647 30.8394 111.094 29.3693 111.094 27.5618C111.094 25.7197 111.743 24.2063 113.031 23.0475C114.164 22.0356 115.505 21.5254 117.07 21.5254ZM116.906 22.1567C115.833 22.1567 114.977 22.5459 114.328 23.3156C113.524 24.2755 113.118 25.6852 113.118 27.5359C113.118 29.4298 113.533 30.8913 114.372 31.9205C115.012 32.6988 115.859 33.088 116.914 33.088C118.038 33.088 118.964 32.6642 119.699 31.808C120.434 30.9605 120.797 29.6114 120.797 27.778C120.797 25.7889 120.391 24.3014 119.586 23.3242C118.938 22.5459 118.038 22.1567 116.906 22.1567Z" fill="white"/>
</svg>
