<svg width="93" height="28" viewBox="0 0 93 28" fill="none" xmlns="http://www.w3.org/2000/svg">
<path d="M66.8629 3.77439L58.8781 18.968C58.7021 19.296 58.2141 19.296 58.038 18.968L50.0452 3.77439C49.9652 3.62238 49.8052 3.52637 49.6372 3.52637H45.7728C45.5087 3.52637 45.3407 3.8064 45.4687 4.03842L58.046 27.5769C58.2221 27.9049 58.6861 27.9049 58.8621 27.5769L71.4394 4.03842C71.5594 3.8064 71.3994 3.52637 71.1354 3.52637H67.271C67.095 3.52637 66.943 3.62238 66.8629 3.77439Z" fill="#434041"/>
<path d="M71.3914 24.0485L79.3762 8.85492C79.5522 8.52689 80.0403 8.52689 80.2163 8.85492L88.2091 24.0485C88.2891 24.2005 88.4491 24.2965 88.6171 24.2965H92.4816C92.7456 24.2965 92.9136 24.0165 92.7856 23.7845L80.2003 0.246026C80.0243 -0.0820085 79.5602 -0.0820085 79.3842 0.246026L66.8069 23.7845C66.6869 24.0165 66.8549 24.2965 67.1109 24.2965H70.9753C71.1513 24.2965 71.3113 24.2005 71.3914 24.0485Z" fill="#434041"/>
<path d="M11.6812 24.2965H4.48047C4.22444 24.2965 4.01642 24.0885 4.01642 23.8325V17.3758C4.01642 17.1198 4.22444 16.9118 4.48047 16.9118H11.6812C15.1136 16.9118 16.6417 17.8879 16.6417 20.6001C16.6417 23.3124 15.1456 24.2965 11.6812 24.2965ZM4.48847 7.03873H11.5852C14.2015 7.03873 15.5376 8.15885 15.5376 10.2231C15.5376 12.2953 14.2095 13.4074 11.5852 13.4074H4.48847C4.23244 13.4074 4.02442 13.1994 4.02442 12.9433V7.50278C4.02442 7.24675 4.23244 7.03873 4.48847 7.03873ZM16.8418 14.7355C18.5059 13.9034 19.546 12.0953 19.546 9.87903C19.546 6.09463 16.5937 3.52637 12.4333 3.52637H0.464048C0.208022 3.52637 0 3.73439 0 3.99042V27.3528C0 27.6089 0.208022 27.8169 0.464048 27.8169H11.9052C17.6338 27.8169 20.6501 25.3526 20.6501 20.5281C20.6581 15.8236 16.8418 14.7355 16.8418 14.7355Z" fill="#434041"/>
<path d="M36.2278 24.2965H29.027C28.771 24.2965 28.563 24.0885 28.563 23.8325V17.3758C28.563 17.1198 28.771 16.9118 29.027 16.9118H36.2278C39.6601 16.9118 41.1883 17.8879 41.1883 20.6001C41.1883 23.3124 39.6921 24.2965 36.2278 24.2965ZM29.035 7.03873H36.1318C38.748 7.03873 40.0842 8.15885 40.0842 10.2231C40.0842 12.2953 38.756 13.4074 36.1318 13.4074H29.035C28.779 13.4074 28.571 13.1994 28.571 12.9433V7.50278C28.571 7.24675 28.779 7.03873 29.035 7.03873ZM41.3883 14.7355C43.0525 13.9034 44.0926 12.0953 44.0926 9.87903C44.0926 6.09463 41.1403 3.52637 36.9799 3.52637H25.0186C24.7626 3.52637 24.5546 3.73439 24.5546 3.99042V27.3528C24.5546 27.6089 24.7626 27.8169 25.0186 27.8169H36.4598C42.1884 27.8169 45.2047 25.3526 45.2047 20.5281C45.2047 15.8236 41.3883 14.7355 41.3883 14.7355Z" fill="#434041"/>
</svg>
