<svg width="156" height="27" viewBox="0 0 156 27" fill="none" xmlns="http://www.w3.org/2000/svg">
<path d="M46.4868 26.5619C45.7796 26.3435 45.0412 26.1875 44.386 25.8755C43.6788 25.5427 43.034 25.0435 42.2957 24.5755C42.2749 24.9707 42.2541 25.4283 42.2229 25.9379C40.8397 25.9379 39.5189 25.9379 38.1254 25.9379C38.1254 17.3269 38.1254 8.72632 38.1254 0.0737305C39.4565 0.0737305 40.8085 0.0737305 42.2541 0.0737305C42.2541 3.04806 42.2541 6.01198 42.2541 9.15271C44.6148 6.83356 47.4643 7.15595 50.2307 7.18715C51.333 7.19755 52.4562 7.29115 53.5378 7.49915C57.0113 8.18553 58.5921 9.78709 58.9457 13.4478C59.1744 15.8397 59.1224 18.2837 58.8833 20.6756C58.5609 23.8475 56.6993 25.6259 53.5586 26.2395C53.0594 26.3331 52.5706 26.4579 52.0714 26.5619C50.2099 26.5619 48.3483 26.5619 46.4868 26.5619ZM42.2853 16.8173C42.2853 17.6909 42.2541 18.5645 42.2957 19.438C42.3685 21.3412 43.2212 22.5164 45.0724 22.9116C47.4123 23.4212 49.7835 23.4004 52.1234 22.9116C53.6938 22.5788 54.6194 21.5596 54.713 19.9684C54.8274 18.1277 54.9209 16.2765 54.817 14.4358C54.6818 12.1166 53.673 10.9103 51.541 10.7439C49.4299 10.5775 47.2667 10.6399 45.1556 10.8583C43.346 11.0351 42.3789 12.3038 42.2957 14.1342C42.2541 15.0182 42.2853 15.9125 42.2853 16.8173Z" fill="#434041"/>
<path d="M113.648 26.561C113.336 26.4674 113.014 26.3738 112.702 26.3011C110.268 25.6875 109.135 24.4707 108.833 22.0164C108.719 21.0492 108.688 20.0612 108.74 19.094C108.885 16.6501 110.133 15.1525 112.629 14.5597C115.76 13.811 118.942 13.9254 122.093 14.3205C122.967 14.4245 123.778 14.9861 124.693 15.3709C124.631 14.2373 124.953 12.9166 124.256 11.6894C123.861 10.9926 123.123 10.7326 122.415 10.7222C120.387 10.691 118.349 10.6598 116.321 10.8262C114.855 10.951 114.376 11.4814 113.815 12.7918C112.525 12.3654 111.246 11.939 109.925 11.5126C109.998 10.2854 110.518 9.35987 111.485 8.68389C112.983 7.64391 114.699 7.38392 116.467 7.25912C118.952 7.08232 121.417 7.08233 123.861 7.59191C127.064 8.2679 128.832 10.3166 128.874 13.5302C128.926 17.7733 128.884 22.0164 128.884 26.2594C128.884 26.3634 128.863 26.4674 128.842 26.561C127.449 26.561 126.055 26.561 124.651 26.561C124.651 26.0827 124.651 25.6043 124.651 25.0011C123.892 25.8643 123.892 25.8643 121.864 26.561C119.129 26.561 116.384 26.561 113.648 26.561ZM118.671 23.3059C119.909 23.1811 121.427 23.0979 122.915 22.8483C124.048 22.6611 124.599 22.0372 124.683 21.1948C124.859 19.4164 124.527 18.6364 123.341 18.0853C123.019 17.9397 122.665 17.7733 122.322 17.7525C120.273 17.6277 118.214 17.4613 116.155 17.4717C113.576 17.4821 112.9 18.2516 112.91 20.8204C112.92 22.2036 113.378 22.8067 114.761 23.0043C115.957 23.1811 117.174 23.2019 118.671 23.3059Z" fill="#434041"/>
<path d="M67.5775 26.5613C67.0575 26.4365 66.5375 26.3221 66.0279 26.1765C63.3448 25.4278 61.6496 23.7014 61.4104 20.9247C61.192 18.4287 61.1296 15.8808 61.3064 13.3849C61.5352 10.1401 63.3448 8.2474 66.5687 7.59221C69.8342 6.92663 73.1517 6.95783 76.4276 7.48821C79.4124 7.977 81.0555 9.69296 81.3675 12.6985C81.5651 14.5912 81.4091 16.5256 81.4091 18.5015C76.1052 18.5015 70.739 18.5015 65.3935 18.5015C64.7487 20.9351 65.8407 22.7966 68.2846 23.0254C70.4582 23.223 72.6629 23.1086 74.8469 23.0358C76.0844 22.9942 77.062 22.3806 77.5924 21.1015C78.8092 21.4655 80.0155 21.8191 81.2635 22.1934C81.1283 23.2958 80.6187 24.159 79.8283 24.8662C78.7988 25.8022 77.5196 26.1765 76.178 26.4053C75.9492 26.4469 75.7308 26.5093 75.5125 26.5717C72.8501 26.5613 70.219 26.5613 67.5775 26.5613ZM77.3636 15.132C77.3636 14.6952 77.3636 14.3416 77.3636 13.9777C77.3532 11.9393 76.7396 11.0033 74.7013 10.7953C72.5381 10.5769 70.3126 10.5353 68.1494 10.7537C65.8095 10.9825 64.8007 12.7713 65.3519 15.1216C69.3142 15.132 73.2869 15.132 77.3636 15.132Z" fill="#434041"/>
<path d="M99.2238 26.5613C99.2238 21.403 99.2238 16.2343 99.2238 10.9928C98.5063 10.9928 97.8303 10.9928 97.1023 10.9928C97.1023 9.84886 97.1023 8.77769 97.1023 7.62332C97.7991 7.62332 98.4855 7.62332 99.1614 7.62332C99.2342 6.54175 99.2446 5.53297 99.3902 4.5554C99.775 1.96586 101.668 0.187503 104.309 0.0523062C106.441 -0.0516912 108.594 0.0315073 110.788 0.0315073C110.788 1.05068 110.788 2.02826 110.788 3.14103C109.977 3.14103 109.166 3.13063 108.344 3.14103C107.544 3.15143 106.743 3.15143 105.952 3.23463C104.465 3.39062 103.509 4.3994 103.415 5.87616C103.384 6.40655 103.405 6.94734 103.405 7.59212C105.256 7.59212 107.065 7.59212 108.927 7.59212C108.927 8.74649 108.927 9.78646 108.927 10.92C107.138 10.92 105.318 10.92 103.405 10.92C103.405 16.1927 103.405 21.3718 103.405 26.5508C102.011 26.5612 100.617 26.5613 99.2238 26.5613Z" fill="#434041"/>
<path d="M89.7601 26.561C89.6457 26.509 89.5417 26.4362 89.4273 26.405C86.713 25.7499 85.1426 23.8363 85.1218 21.0388C85.0906 17.7213 85.1114 14.4037 85.1114 10.9822C84.3731 10.9822 83.6763 10.9822 82.9275 10.9822C82.9275 9.83826 82.9275 8.78788 82.9275 7.65431C83.6243 7.65431 84.3107 7.65431 85.0698 7.65431C85.0698 5.08558 85.0698 2.60004 85.0698 0.0625C86.4946 0.0625 87.8466 0.0625 89.2817 0.0625C89.2817 2.55844 89.2817 5.04398 89.2817 7.61271C90.9041 7.61271 92.4537 7.64391 93.9928 7.59191C94.6792 7.57111 94.908 7.76871 94.856 8.45509C94.7936 9.24547 94.8456 10.0463 94.8456 10.9198C93.0048 10.9198 91.2057 10.9198 89.3441 10.9198C89.3233 11.211 89.2921 11.4294 89.2921 11.6478C89.2921 14.5805 89.2817 17.5133 89.2921 20.446C89.2921 22.3179 90.1449 23.1707 92.0377 23.1915C93.4312 23.2123 94.8144 23.1915 96.2808 23.1915C96.2808 24.3563 96.2808 25.4483 96.2808 26.5506C94.0968 26.561 91.9337 26.561 89.7601 26.561Z" fill="#434041"/>
<path d="M155.216 10.2029C154.363 10.7125 153.51 11.2324 152.699 11.7212C151.087 10.3485 149.247 10.3589 147.364 10.806C145.773 11.1804 144.91 12.3244 144.577 13.874C144.504 14.2172 144.484 14.5916 144.484 14.9451C144.484 18.8242 144.494 22.7034 144.504 26.5721C143.111 26.5721 141.717 26.5721 140.313 26.5721C140.303 26.1665 140.272 25.7505 140.272 25.3449C140.272 19.6146 140.272 13.8844 140.272 8.16451C140.272 7.86292 140.272 7.56133 140.272 7.21814C141.613 7.21814 142.872 7.21814 144.213 7.21814C144.213 8.01892 144.213 8.7989 144.213 9.57888C145.7 7.74852 147.593 7.09334 149.839 7.22854C151.982 7.35333 153.999 7.68613 155.206 9.76607C155.216 9.89087 155.216 10.0469 155.216 10.2029Z" fill="#434041"/>
<path d="M132.566 26.5619C132.555 26.1563 132.524 25.7403 132.524 25.3347C132.524 19.6045 132.524 13.8742 132.524 8.14394C132.524 7.84235 132.524 7.54076 132.524 7.15596C133.855 7.15596 135.082 7.13516 136.32 7.18716C136.465 7.19756 136.694 7.60315 136.694 7.83195C136.725 10.0367 136.715 12.2518 136.715 14.4566C136.715 18.1797 136.715 21.9132 136.715 25.6363C136.715 25.9483 136.736 26.2499 136.757 26.5619C135.363 26.5619 133.959 26.5619 132.566 26.5619Z" fill="#434041"/>
<path d="M121.864 26.5619C123.892 25.8651 123.892 25.8651 124.651 25.002C124.651 25.6051 124.651 26.0835 124.651 26.5619C123.726 26.5619 122.79 26.5619 121.864 26.5619Z" fill="#434041"/>
<path d="M11.1381 8.26807C14.8508 12.5736 18.4803 16.7959 22.2346 21.1429C20.2483 21.1429 18.4283 21.1429 16.5252 21.1429C16.5252 22.9213 16.5252 24.6269 16.5252 26.3948C12.9165 26.3948 9.39097 26.3948 5.78226 26.3948C5.78226 24.6893 5.78226 22.9837 5.78226 21.2053C3.8791 21.2053 2.05915 21.2053 0 21.2053C3.77511 16.8167 7.42542 12.584 11.1381 8.26807Z" fill="#434041"/>
<path d="M14.0917 5.37696C16.1092 5.37696 17.9292 5.37696 19.8011 5.37696C19.8011 3.56741 19.8011 1.86185 19.8011 0.0834961C23.389 0.0834961 26.9146 0.0834961 30.5441 0.0834961C30.5441 1.51866 30.5441 2.95382 30.5441 4.37859C30.5441 5.36656 30.5441 5.36656 31.5632 5.36656C33.0608 5.36656 34.5584 5.36656 36.2743 5.36656C32.5096 9.73445 28.8593 13.9671 25.1778 18.2414C21.4963 13.9775 17.8668 9.75525 14.0917 5.37696Z" fill="#434041"/>
<path d="M132.565 0.0214844C133.813 0.0214844 134.999 0.0214844 136.184 0.0214844C136.33 0.0214844 136.486 0.0422838 136.673 0.0630833C136.673 1.42545 136.673 2.74622 136.673 4.12938C135.311 4.12938 133.959 4.12938 132.565 4.12938C132.565 2.77742 132.565 1.44625 132.565 0.0214844Z" fill="#434041"/>
</svg>
