<svg width="96" height="39" viewBox="0 0 96 39" fill="none" xmlns="http://www.w3.org/2000/svg">
<path d="M17.3365 2.32764C26.6869 2.32764 34.2585 9.9224 34.2585 19.2805C34.2585 28.6464 26.6869 36.2334 17.3365 36.2334C7.99386 36.2334 0.414557 28.6464 0.414557 19.2805C0.406823 9.9224 7.98613 2.32764 17.3365 2.32764Z" fill="#6E6E6E"/>
<path d="M76.2617 0.456543C86.6407 0.456543 95.0553 8.88658 95.0553 19.281C95.0553 29.6832 86.6407 38.1133 76.2617 38.1133C65.8827 38.1133 57.4681 29.6832 57.4681 19.281C57.4681 8.88658 65.8827 0.456543 76.2617 0.456543Z" fill="#8F8F8F"/>
<path d="M40.871 5.95557C48.3884 5.95557 54.4828 12.0577 54.4828 19.5983C54.4828 27.1312 48.3884 33.2333 40.871 33.2333C33.3458 33.2333 27.2515 27.1235 27.2515 19.5983C27.2515 12.0577 33.3536 5.95557 40.871 5.95557Z" fill="#565656"/>
<path d="M15.0629 21.0757H19.4171C20.5617 21.0757 21.5052 22.0192 21.5052 23.1716C21.5052 24.3162 20.5617 25.2597 19.4171 25.2597H15.0629V21.0757ZM15.0629 13.6433H18.8216C19.9739 13.6433 20.9175 14.5869 20.9175 15.7392C20.9175 16.8916 19.9739 17.8351 18.8216 17.8351H15.0629V13.6433ZM41.8069 10.9983C43.1449 10.9983 44.22 12.081 44.22 13.419C44.22 14.757 43.1449 15.8398 41.8069 15.8398C40.469 15.8398 39.3939 14.757 39.3939 13.419C39.3939 12.081 40.4767 10.9983 41.8069 10.9983ZM43.8333 28.0594V19.7299C43.8333 18.0285 42.7428 17.2396 41.5208 17.2396H39.7961V28.0594H43.8333ZM64.452 12.3749C69.425 11.4933 74.1659 11.153 77.0043 12.3749C81.2193 11.4546 89.5411 10.1707 90.1057 16.7214V27.3789H85.4188V18.0594C84.4676 15.5691 81.8303 15.6155 79.6184 16.1491V27.3789H74.8156V17.518C73.6942 15.2674 70.2139 15.9171 69.2626 16.1336V27.3789H64.4598L64.452 12.3749ZM10.554 28.9489H18.0327C23.0521 28.9489 25.9136 27.2551 25.9136 23.6665C25.9136 20.9983 24.2585 19.699 21.6522 19.235V19.1267C23.81 18.6395 25.1866 17.4639 25.1866 15.1282C25.1866 11.7253 22.7736 9.91553 17.8935 9.91553H10.554V28.9489Z" fill="#EBEBEB"/>
</svg>
