<svg width="110" height="63" viewBox="0 0 110 63" fill="none" xmlns="http://www.w3.org/2000/svg">
<path d="M22.792 15.3042C23.0863 15.3042 23.3218 15.2924 23.569 15.3042C26.5356 15.4573 29.4788 15.7869 32.3866 16.3637C35.3179 16.9406 38.1786 17.7411 40.898 19.0125C42.0518 19.5541 43.1584 20.1662 44.1943 20.9197C45.042 21.5318 45.8072 22.2264 46.5017 23.0152C46.6077 23.1329 46.7254 23.2506 46.8785 23.4272C46.902 23.2859 46.9256 23.2035 46.9256 23.1211C46.5488 18.3297 47.6437 13.7973 49.4802 9.42975C50.8222 6.25118 52.5175 3.26097 54.6483 0.541534C54.7896 0.364947 54.9426 0.211904 55.131 0C55.3193 0.188359 55.4841 0.341402 55.6136 0.506216C57.1911 2.44867 58.4979 4.56772 59.6398 6.78094C61.2291 9.85356 62.4299 13.0557 63.0891 16.4579C63.513 18.6476 63.6425 20.849 63.5012 23.074C63.5012 23.1682 63.5012 23.2624 63.5012 23.439C63.6071 23.333 63.6778 23.2742 63.7366 23.2035C64.7373 21.991 65.9263 21.0256 67.2566 20.2133C69.5522 18.8006 72.048 17.8706 74.6379 17.1643C77.2632 16.4461 79.9356 15.9399 82.6432 15.6692C84.0206 15.5279 85.398 15.4219 86.7754 15.316C87.0461 15.2924 87.3169 15.316 87.623 15.316C87.623 15.4573 87.6465 15.575 87.623 15.6809C86.2574 21.3553 83.7145 26.3703 79.3705 30.3612C76.7452 32.7628 73.7315 34.4933 70.2704 35.388C69.1049 35.6941 67.9159 35.8943 66.7033 35.9296C66.5738 35.9296 66.4443 35.9296 66.3148 35.9296C66.2913 35.9296 66.2559 35.906 66.1735 35.8707C66.3148 35.7883 66.4208 35.7059 66.5503 35.647C68.6811 34.5287 70.6824 33.2455 72.6013 31.7974C72.9427 31.5384 73.0487 31.2324 72.9663 30.7615C70.1055 31.8092 67.3508 33.01 64.6196 34.2932C69.411 30.5966 74.0611 26.7588 78.4875 22.6031C78.3345 22.3795 78.205 22.2029 78.0284 21.9674C75.2501 23.8039 72.5424 25.6875 69.8819 27.63C67.2331 29.5607 64.6196 31.5384 61.9708 33.4927C63.6425 30.8086 65.3024 28.1127 66.6915 25.2637C66.1265 24.993 65.9852 25.0047 65.6202 25.3932C63.4541 27.6771 61.4528 30.1022 59.5927 32.6451C59.4868 32.7981 59.3691 32.9511 59.1689 33.0571C59.2749 32.5038 59.3926 31.9505 59.4868 31.3854C59.8635 28.925 60.2284 26.4645 60.6287 24.0041C60.7229 23.4508 60.5581 23.0623 60.0636 22.7209C59.6634 23.5096 59.3926 24.3337 59.0865 25.1342C58.7804 25.9583 58.4743 26.7824 58.1918 27.6182C57.9093 28.4541 57.6267 29.2899 57.3677 30.1257C57.097 30.9616 56.8497 31.7974 56.5201 32.6333C56.4966 32.3037 56.4613 31.974 56.4613 31.6444C56.4142 29.5136 56.3906 27.3828 56.32 25.2402C56.2258 22.403 56.1081 19.5776 55.9668 16.7522C55.8844 14.9981 55.7549 13.244 55.649 11.4899C55.6372 11.3722 55.6372 11.2663 55.6254 11.1485C55.5783 10.8071 55.5195 10.7483 55.2016 10.7483C54.8837 10.7483 54.8131 10.7954 54.7896 11.1485C54.6836 12.5259 54.5659 13.9033 54.4953 15.2924C54.3187 19.0008 54.1656 22.7091 54.0244 26.4174C53.9537 28.3363 53.9302 30.2552 53.8949 32.1859C53.8949 32.3272 53.8949 32.4802 53.8124 32.6451C53.471 31.5384 53.1414 30.4318 52.7765 29.337C52.4115 28.2186 52.0348 27.112 51.6345 26.0054C51.2343 24.9105 50.8105 23.8157 50.3631 22.6385C50.1394 22.8975 49.9511 23.0623 49.8216 23.2624C49.7509 23.3684 49.7392 23.5449 49.7627 23.6744C50.0453 25.7228 50.3278 27.7713 50.6339 29.8197C50.7752 30.785 50.9871 31.7386 51.1636 32.7039C51.1872 32.8216 51.199 32.9511 51.1401 33.1042C51.0224 32.9394 50.8929 32.7746 50.7752 32.6097C48.9386 30.0904 46.9609 27.6888 44.8301 25.4285C44.4416 25.0165 44.3709 25.0047 43.7352 25.2519C44.3945 26.7235 45.1832 28.1127 45.9955 29.49C46.8078 30.8556 47.6437 32.2095 48.4442 33.5869C43.2643 29.5018 37.8961 25.7111 32.3983 21.9792C32.2335 22.1911 32.0922 22.3795 31.9157 22.6031C36.3539 26.7588 40.9922 30.6084 45.7836 34.305C43.0524 33.0335 40.2977 31.821 37.4487 30.7732C37.331 31.2559 37.4723 31.562 37.8254 31.8328C39.7443 33.2455 41.7574 34.5051 43.8647 35.6117C44.006 35.6824 44.1472 35.7648 44.4062 35.8943C44.1826 35.9178 44.0648 35.9413 43.9471 35.9413C42.1695 35.8943 40.4507 35.5529 38.779 34.9642C34.2466 33.3867 30.656 30.5496 27.8188 26.7235C25.3819 23.439 23.8162 19.766 22.8744 15.8104C22.8273 15.6456 22.8155 15.5043 22.792 15.3042Z" fill="#434041"/>
<path d="M0 41.8977C0.235449 41.8741 0.353174 41.8506 0.482671 41.8506C1.64815 41.8506 2.82539 41.8388 3.99087 41.8624C4.43822 41.8741 4.89735 41.9448 5.33293 42.0625C5.9451 42.2391 6.46309 42.5687 6.6279 43.2633C6.79271 43.9579 6.52195 44.6878 5.88623 45.1351C5.67433 45.2882 5.43888 45.3941 5.20343 45.5236C5.48597 45.6413 5.76851 45.7237 6.03928 45.8532C6.94576 46.3006 7.40488 47.1247 7.3107 48.0665C7.2283 48.9023 6.54549 49.6557 5.63901 49.8912C5.26229 49.9854 4.8738 50.0678 4.48531 50.0796C3.41402 50.1031 2.34272 50.0913 1.27143 50.0913C1.17725 50.0913 1.08307 50.0678 0.941797 50.056C0.930025 49.8559 0.918252 49.6675 0.918252 49.4792C0.918252 47.6544 0.918252 45.8415 0.918252 44.0167C0.918252 43.8166 0.918252 43.6282 0.918252 43.4281C0.90648 42.9808 0.776983 42.604 0.400264 42.3215C0.235449 42.2509 0.153042 42.086 0 41.8977ZM2.83716 46.1358C2.83716 47.0776 2.82539 47.9841 2.84894 48.8788C2.84894 49.0083 2.97843 49.1966 3.09616 49.2555C3.88491 49.6087 4.8738 49.126 5.07393 48.2901C5.1328 48.0429 5.14457 47.7722 5.1328 47.5132C5.10925 46.8892 4.77962 46.4772 4.20277 46.277C3.79073 46.1476 3.36693 46.0769 2.83716 46.1358ZM2.87248 45.3235C3.26097 45.4059 3.60238 45.3706 3.932 45.2646C4.28518 45.1469 4.5324 44.9114 4.60303 44.5583C4.6619 44.2757 4.69721 43.9696 4.6619 43.6989C4.56772 42.969 4.10859 42.5805 3.3787 42.5569C2.91957 42.5334 2.82539 42.6158 2.82539 43.0749C2.81362 43.7106 2.82539 44.3464 2.82539 44.9821C2.82539 45.0763 2.84894 45.1822 2.87248 45.3235Z" fill="#434041"/>
<path d="M60.3118 50.0803C60.0057 50.0803 59.7585 50.0803 59.4407 50.0803C59.5113 49.7036 59.5702 49.3504 59.6526 49.009C59.9469 47.6788 60.2177 46.3367 60.5355 45.0064C60.665 44.4531 60.6179 44.0057 60.0882 43.6997C60.0175 43.6643 59.9704 43.5819 59.9233 43.5231C59.9116 43.4995 59.9233 43.4642 59.9233 43.3936C59.9587 43.3818 60.0175 43.3347 60.0764 43.3347C60.6768 43.3229 61.2772 43.3347 61.8776 43.3229C62.1837 43.3229 62.3367 43.4995 62.4544 43.7585C62.8547 44.6532 63.2667 45.5362 63.667 46.4191C63.7376 46.5839 63.82 46.737 63.926 46.9606C64.0202 46.8076 64.0908 46.7016 64.1379 46.5957C64.5264 45.7363 64.9384 44.8887 65.3034 44.0175C65.5153 43.5113 65.8567 43.2876 66.3982 43.3229C66.7043 43.3465 67.0104 43.3229 67.2929 43.3229C67.34 43.3818 67.3753 43.4171 67.3753 43.4407C67.2576 44.6768 67.599 45.8658 67.8109 47.0548C67.9639 47.9378 68.1523 48.8089 68.3171 49.6918C68.3407 49.7978 68.3171 49.9155 68.3171 50.045C67.7285 50.045 67.1516 50.045 66.5042 50.045C66.304 49.3269 66.1981 48.5617 66.045 47.8083C65.892 47.0548 65.7389 46.2896 65.5035 45.5362C64.8089 47.0548 64.1143 48.5735 63.3727 50.1863C63.255 49.9862 63.1843 49.8684 63.1255 49.7507C62.6075 48.5381 62.0777 47.3256 61.5597 46.1248C61.4891 45.9717 61.4184 45.8187 61.2419 45.6657C60.9475 47.1254 60.6415 48.5735 60.3118 50.0803Z" fill="#434041"/>
<path d="M44.4788 55.8372C44.7378 55.8019 44.8555 55.7666 44.985 55.7666C46.2799 55.7784 47.5867 55.7901 48.8817 55.8372C49.1995 55.849 49.5292 55.9432 49.8117 56.0727C50.9301 56.5789 50.7653 57.8503 50.0354 58.3801C49.847 58.5214 49.6233 58.6155 49.4232 58.7333C49.694 58.8628 49.9883 58.9805 50.2473 59.1335C50.883 59.522 51.2244 60.0871 51.1538 60.8405C51.0831 61.5704 50.6593 62.0296 49.9883 62.265C49.6586 62.3827 49.2937 62.4887 48.9523 62.5005C47.8104 62.5358 46.6802 62.524 45.5383 62.524C45.4794 62.524 45.4088 62.5005 45.3146 62.4769C45.3028 62.2885 45.2793 62.1002 45.2793 61.9001C45.2793 60.5227 45.2793 59.1335 45.2793 57.7562C45.2793 57.5089 45.2675 57.2735 45.2557 57.0263C45.2322 56.7084 45.1145 56.4259 44.8555 56.214C44.7613 56.1315 44.6671 56.0256 44.4788 55.8372ZM47.21 59.369C47.1864 59.4278 47.1747 59.4514 47.1747 59.4867C47.1747 59.9576 47.1629 60.4285 47.1629 60.8994C47.1629 61.6646 46.9981 61.8647 48.1282 61.7941C48.7051 61.7588 49.0465 61.4645 49.1524 60.9347C49.2937 60.2637 49.0818 59.7104 48.5638 59.4749C48.1282 59.2866 47.6691 59.263 47.21 59.369ZM47.1864 58.5331C47.9399 58.6626 48.4225 58.5096 48.658 58.0975C48.8699 57.7208 48.8346 57.038 48.5874 56.7673C48.3048 56.4494 47.7044 56.3435 47.1864 56.5436C47.1864 57.1911 47.1864 57.8503 47.1864 58.5331Z" fill="#434041"/>
<path d="M16.4218 49.9629C16.3512 50.0335 16.3158 50.0924 16.2805 50.0924C15.586 50.0924 14.8796 50.1041 14.185 50.0571C13.5729 50.01 13.0902 49.6568 12.7017 49.1977C12.4192 48.868 12.1602 48.5031 11.8894 48.1617C11.6893 47.9027 11.4774 47.6555 11.2655 47.42C11.1948 47.3494 11.0771 47.3258 10.9005 47.2317C10.9005 48.2206 10.9005 49.1388 10.9005 50.0453C10.253 50.0453 9.67618 50.0453 9.02869 50.0453C9.01692 49.8922 9.00515 49.7157 9.00515 49.5508C9.00515 48.0675 9.00515 46.5842 9.00515 45.1126C9.00515 44.8889 8.99337 44.6535 8.95806 44.4298C8.91097 44.1355 8.80501 43.8647 8.52248 43.6999C8.44007 43.6528 8.38121 43.5469 8.25171 43.3938C8.47539 43.3703 8.60488 43.335 8.74615 43.335C9.81745 43.335 10.9005 43.2997 11.9718 43.3468C12.478 43.3703 13.0196 43.4409 13.4905 43.6175C14.7148 44.0766 14.9032 45.3834 13.9025 46.2075C13.6553 46.4076 13.361 46.5606 13.0666 46.749C13.0784 46.7843 13.0902 46.8549 13.1255 46.8903C13.7141 47.5848 14.3028 48.2912 14.9149 48.9622C15.5389 49.6568 15.6095 49.6803 16.4218 49.9629ZM10.9123 44.0531C10.9123 44.8065 10.9123 45.4893 10.9123 46.1604C10.9123 46.3605 10.9711 46.5018 11.1948 46.5489C11.807 46.7019 12.3603 46.4311 12.5369 45.819C12.6193 45.5011 12.6428 45.1479 12.5957 44.8183C12.5487 44.4298 12.2897 44.1237 11.8776 44.0531C11.5833 44.0178 11.2772 44.0531 10.9123 44.0531Z" fill="#434041"/>
<path d="M80.6402 46.7603C81.4761 47.6785 82.1471 48.6792 83.0654 49.4679C83.289 49.6563 83.6069 49.7387 83.8777 49.8682C83.9248 49.8917 83.9836 49.9271 84.0778 49.9859C83.9836 50.0448 83.9365 50.1036 83.8894 50.1036C83.2184 50.1036 82.5592 50.1272 81.8881 50.0801C81.2642 50.033 80.7462 49.7034 80.3459 49.2207C80.0634 48.8793 79.8044 48.5261 79.5336 48.1847C79.3453 47.9375 79.1569 47.7021 78.945 47.4666C78.8626 47.3724 78.7449 47.3253 78.5565 47.1958C78.4741 48.1965 78.5683 49.1265 78.4977 50.0448C77.8973 50.0448 77.344 50.0448 76.7082 50.0448C76.6965 49.8917 76.6729 49.7269 76.6729 49.5621C76.6729 48.1612 76.6729 46.7603 76.6729 45.3593C76.6729 45.1474 76.6611 44.9355 76.6494 44.7236C76.6258 44.2763 76.5081 43.8878 76.0843 43.6523C76.0254 43.617 75.9901 43.5346 75.9077 43.4404C76.0254 43.3933 76.1078 43.3345 76.1903 43.3345C77.5912 43.358 78.9921 43.358 80.3812 43.4287C80.758 43.4522 81.1465 43.6052 81.4761 43.7936C82.206 44.2056 82.3943 45.0886 81.8999 45.7714C81.6762 46.0775 81.3348 46.2894 81.0287 46.5366C80.9463 46.619 80.8051 46.6661 80.6402 46.7603ZM78.5447 44.0526C78.5447 44.8178 78.533 45.5359 78.5565 46.2658C78.5565 46.36 78.686 46.4895 78.792 46.5366C79.3688 46.7485 79.9692 46.4542 80.1693 45.8773C80.3106 45.4888 80.2988 45.0768 80.1929 44.6765C80.1105 44.3587 79.8986 44.1115 79.5689 44.0644C79.2511 44.029 78.9215 44.0526 78.5447 44.0526Z" fill="#434041"/>
<path d="M43.3606 50.0443C43.3489 49.0083 43.3371 47.9841 43.3253 46.8893C42.4424 46.8539 41.6183 46.8539 40.7236 46.8893C40.7236 47.9606 40.7236 48.9965 40.7236 50.0443C40.0997 50.0443 39.5346 50.0443 38.9106 50.0443C38.8989 49.8912 38.8753 49.7264 38.8753 49.5616C38.8753 48.2078 38.8753 46.8539 38.8753 45.5119C38.8753 45.3 38.8635 45.0881 38.8635 44.8762C38.8518 44.3817 38.734 43.9461 38.2749 43.6636C38.2161 43.6283 38.1807 43.5341 38.1101 43.4399C38.2278 43.4046 38.3102 43.3457 38.3926 43.3457C39.0284 43.334 39.6641 43.334 40.2998 43.3457C40.6647 43.3575 40.7118 43.4046 40.7118 43.7931C40.7236 44.3817 40.7118 44.9703 40.7118 45.5472C40.7118 45.7002 40.7236 45.8651 40.7354 46.0416C41.583 46.0416 42.3953 46.0416 43.2782 46.0416C43.29 45.8768 43.3253 45.712 43.3253 45.5472C43.3371 45.0057 43.3253 44.4759 43.3253 43.9344C43.3253 43.7578 43.3489 43.5812 43.3606 43.3811C43.9728 43.3811 44.5496 43.3811 45.15 43.3811C45.15 45.6296 45.15 47.8311 45.15 50.0561C44.5967 50.0443 44.0434 50.0443 43.3606 50.0443Z" fill="#434041"/>
<path d="M78.6383 55.5786C79.015 55.6375 79.427 55.661 79.8155 55.7787C81.1694 56.1555 82.0523 57.2385 82.1347 58.6512C82.1582 59.0986 82.17 59.5695 82.0758 60.0051C81.7933 61.406 80.6985 62.3831 79.1445 62.6068C78.4264 62.7127 77.72 62.6774 77.0254 62.442C75.9542 62.0888 75.2596 61.3707 74.9535 60.2876C74.7416 59.5342 74.6827 58.7807 74.9182 58.0273C75.3302 56.7676 76.2485 56.0613 77.4963 55.7434C77.8613 55.6492 78.238 55.6375 78.6383 55.5786ZM76.79 58.9809C76.8253 59.44 76.8253 59.7578 76.8606 60.0639C76.9195 60.5231 77.0372 60.9469 77.308 61.3354C77.7907 62.0417 79.1798 62.3478 79.7684 61.1705C79.8744 60.9586 79.9686 60.7232 80.0274 60.4877C80.2276 59.7225 80.2393 58.9338 80.0981 58.1686C80.0274 57.7447 79.8508 57.3209 79.6389 56.956C79.1563 56.1319 77.7436 56.0966 77.2491 57.0619C77.1314 57.2974 77.0137 57.5328 76.9666 57.7801C76.8724 58.2156 76.8371 58.6748 76.79 58.9809Z" fill="#434041"/>
<path d="M39.8454 55.5894C40.6342 55.6129 41.3758 55.7659 42.0233 56.2133C43.2123 57.0374 43.5537 58.2499 43.4125 59.6038C43.2241 61.3225 41.9645 62.4762 40.2339 62.6293C39.6806 62.6764 39.1273 62.6646 38.5858 62.5351C37.1731 62.1819 36.243 61.146 36.1018 59.6862C36.0547 59.2035 36.0429 58.6973 36.1489 58.2264C36.4549 56.8726 37.3967 56.0956 38.7035 55.7542C39.0684 55.6482 39.4569 55.6364 39.8454 55.5894ZM37.9971 59.0976C38.0089 59.0976 38.0207 59.0976 38.0324 59.0976C38.056 59.3919 38.056 59.6862 38.0913 59.9687C38.1502 60.4278 38.2679 60.8634 38.5269 61.2519C39.0449 62.0524 40.5282 62.3468 41.0933 61.0518C41.1639 60.887 41.2228 60.7222 41.2817 60.5456C41.47 59.8628 41.5171 59.1682 41.4347 58.4618C41.3758 57.9085 41.2463 57.3788 40.9285 56.8961C40.4105 56.1191 39.0449 56.072 38.5269 56.9667C38.3856 57.2022 38.2679 57.4612 38.209 57.7319C38.1031 58.1911 38.056 58.6502 37.9971 59.0976Z" fill="#434041"/>
<path d="M52.8986 41.8509C53.5932 41.8509 54.276 41.8392 54.9588 41.8509C55.2413 41.8509 55.465 41.9922 55.6063 42.2277C55.724 42.4396 55.8417 42.6515 55.9241 42.8869C56.7717 45.1355 57.6194 47.384 58.467 49.6443C58.5141 49.762 58.5376 49.8915 58.5729 50.0446C57.9019 50.0446 57.2544 50.0446 56.5481 50.0446C56.2773 49.2911 55.9948 48.5024 55.7122 47.7019C54.688 47.7019 53.6874 47.7019 52.6278 47.7019C52.569 47.8196 52.4983 47.9608 52.4277 48.1021C52.204 48.6437 51.9568 49.1734 51.7567 49.7267C51.6507 50.0093 51.4977 50.1623 51.1798 50.1152C51.0268 50.0917 50.862 50.1152 50.6147 50.1152C50.6854 49.8915 50.7325 49.7385 50.7913 49.5854C51.533 47.8196 52.2864 46.0537 53.0281 44.2878C53.1694 43.9464 53.3106 43.5933 53.4284 43.2401C53.5696 42.8045 53.4872 42.5926 53.1223 42.3101C52.9928 42.2041 52.828 42.1335 52.8986 41.8509ZM54.3113 43.7934C54.276 43.7934 54.2289 43.7816 54.1936 43.7816C53.7933 44.7705 53.3342 45.7476 52.9575 46.8189C53.4048 46.8189 53.7815 46.8307 54.1465 46.8189C54.5232 46.8071 54.9117 46.866 55.3591 46.7601C55.0059 45.7476 54.6527 44.7705 54.3113 43.7934Z" fill="#434041"/>
<path d="M105.024 50.0808C104.683 50.0808 104.435 50.0808 104.118 50.0808C104.106 49.8807 104.082 49.6923 104.082 49.5158C104.082 48.0207 104.071 46.5255 104.082 45.0187C104.094 44.4654 104.012 43.9827 103.505 43.6648C103.447 43.6295 103.423 43.5353 103.352 43.4294C103.494 43.3941 103.588 43.347 103.694 43.347C104.153 43.3352 104.6 43.3588 105.059 43.3352C105.401 43.3234 105.636 43.4529 105.848 43.7119C106.802 44.8774 107.779 46.0429 108.744 47.2083C108.85 47.3261 108.956 47.4438 109.156 47.538C109.133 46.1724 109.097 44.795 109.074 43.3823C109.392 43.3823 109.651 43.3823 109.91 43.3823C110.016 43.7708 110.039 49.5628 109.921 50.0926C109.156 50.1515 108.544 49.8454 108.061 49.2803C107.602 48.7388 107.167 48.1619 106.708 47.6086C106.166 46.9376 105.624 46.2783 105.012 45.5131C105.024 47.0789 105.024 48.5504 105.024 50.0808Z" fill="#434041"/>
<path d="M32.9399 62.4768C32.2689 62.4768 31.6567 62.4768 30.9739 62.4768C30.9739 61.2525 30.9739 60.0163 30.9621 58.792C30.9621 57.5794 30.9621 56.3551 30.9621 55.1072C30.4677 55.1072 30.0321 55.0719 29.6083 55.119C29.2786 55.1543 29.0903 55.4251 28.9255 55.7076C28.8195 55.896 28.7253 56.1197 28.4546 56.1432C28.3133 55.8253 28.3015 54.9542 28.4193 54.3891C28.7842 54.2714 34.9647 54.2478 35.5063 54.3773C35.5298 54.9424 35.624 55.531 35.5769 56.2492C35.365 56.0961 35.2355 56.0255 35.1296 55.9195C35.0236 55.8018 34.953 55.6488 34.8588 55.5193C34.6704 55.2485 34.4232 55.0955 34.0818 55.0955C33.7286 55.0955 33.3755 55.0955 32.9634 55.0955C32.9281 57.5794 32.9987 60.0281 32.9399 62.4768Z" fill="#434041"/>
<path d="M59.0215 62.4767C58.374 62.4767 57.7501 62.4767 57.0437 62.4767C56.926 62.1706 56.7965 61.8292 56.667 61.4878C56.2432 60.4047 56.5375 60.6048 55.3838 60.5931C54.9482 60.5813 54.5009 60.6048 54.0653 60.5931C53.7945 60.5813 53.6533 60.6755 53.5473 60.9345C53.3472 61.4642 53.1117 61.9822 52.888 62.5238C52.5937 62.5238 52.323 62.5238 51.9816 62.5238C52.064 62.3118 52.1228 62.1353 52.2052 61.9587C52.8292 60.5107 53.4649 59.0626 54.0888 57.6264C54.183 57.4145 54.2654 57.2026 54.3361 56.9907C54.4773 56.5433 54.442 56.4374 54.0653 56.1666C53.9829 56.1078 53.9005 56.0253 53.771 55.8959C53.924 55.8488 54.0182 55.7899 54.1242 55.7899C54.6657 55.7781 55.1954 55.7899 55.737 55.7899C56.149 55.7899 56.4433 55.9665 56.6081 56.3668C57.3969 58.3328 58.1857 60.287 58.9744 62.2412C58.998 62.3001 59.0097 62.3825 59.0215 62.4767ZM55.996 59.7572C55.7017 58.9685 55.4191 58.2268 55.1013 57.391C54.7246 58.2268 54.4067 58.9567 54.1006 59.7572C54.7599 59.7572 55.3367 59.7572 55.996 59.7572Z" fill="#434041"/>
<path d="M102.756 50.0453C102.061 50.0453 101.449 50.0453 100.755 50.0453C100.507 49.4567 100.248 48.821 99.9894 48.1735C99.1182 48.1735 98.2824 48.1735 97.3995 48.1735C97.2229 48.6091 97.0345 49.0329 96.8579 49.4685C96.5636 50.1748 96.5636 50.1748 95.7042 50.0453C95.7749 49.8569 95.8337 49.6804 95.9044 49.5155C96.5518 48.0204 97.1993 46.5371 97.8468 45.042C97.9292 44.8654 97.9999 44.6771 98.0587 44.5005C98.1882 44.0649 98.1529 43.9825 97.8115 43.7117C97.7173 43.6411 97.6349 43.5469 97.4936 43.4292C97.6349 43.3821 97.7055 43.335 97.7762 43.335C98.3413 43.3232 98.9181 43.3232 99.4832 43.335C99.8834 43.335 100.166 43.5234 100.319 43.9001C100.531 44.4063 100.743 44.9243 100.943 45.4305C101.485 46.7843 102.026 48.1499 102.568 49.5038C102.626 49.6686 102.685 49.8334 102.756 50.0453ZM99.7069 47.3259C99.5421 46.8785 99.4125 46.49 99.2713 46.1133C99.13 45.7484 98.9887 45.3716 98.8122 44.9243C98.4472 45.7719 98.1176 46.5253 97.8233 47.3259C98.4707 47.3259 99.0476 47.3259 99.7069 47.3259Z" fill="#434041"/>
<path d="M72.1134 46.0545C72.8786 46.0545 73.6085 46.0545 74.3855 46.0545C74.3855 46.337 74.3855 46.5489 74.3855 46.8314C73.6203 46.8432 72.8904 46.855 72.1134 46.8785C72.1134 47.6791 72.1134 48.4325 72.1134 49.2448C72.2194 49.2566 72.3489 49.2919 72.4666 49.2919C72.8551 49.3037 73.2436 49.2919 73.6438 49.2919C74.0323 49.3037 74.3384 49.1624 74.5621 48.8328C74.7034 48.6209 74.7151 48.6326 75.0448 48.6091C74.9977 48.9976 74.9741 49.3861 74.9153 49.7628C74.88 49.9865 74.7269 50.0924 74.5032 50.0924C74.3384 50.0924 74.1736 50.0924 74.0206 50.0924C72.9493 50.0924 71.878 50.0924 70.7949 50.0924C70.2887 50.0924 70.1945 49.9865 70.1945 49.492C70.1945 48.0793 70.1945 46.6549 70.1945 45.2422C70.1945 45.0303 70.1945 44.8183 70.1827 44.6064C70.1474 44.2415 70.0297 43.9119 69.7001 43.6882C69.6059 43.6293 69.547 43.5351 69.4882 43.4645C69.5117 43.4174 69.5117 43.4057 69.5235 43.3939C69.5352 43.3821 69.547 43.3586 69.5588 43.3586C71.1363 43.3468 72.7138 43.335 74.2913 43.3232C74.3973 43.3232 74.515 43.3468 74.6798 43.3703C74.7034 43.6411 74.7269 43.9119 74.7505 44.2297C73.8557 44.0531 73.0199 44.1002 72.1605 44.1355C72.1134 44.783 72.1134 45.3952 72.1134 46.0545Z" fill="#434041"/>
<path d="M36.9248 45.0653C36.6187 45.1831 36.501 45.0183 36.395 44.8534C36.3126 44.7122 36.2537 44.5591 36.1596 44.4296C35.8064 43.9116 35.1236 43.7468 34.5703 44.0294C34.0523 44.2884 33.9228 44.8064 34.2995 45.2419C34.4761 45.4421 34.7115 45.6069 34.947 45.7482C35.3119 45.9836 35.7122 46.172 36.0771 46.4192C36.5834 46.7488 36.9365 47.1962 37.0543 47.8201C37.1838 48.55 36.9601 49.1386 36.4068 49.5978C36.0301 49.9038 35.5945 50.0804 35.1236 50.1511C34.2406 50.2923 33.3813 50.2452 32.5454 49.8921C32.2864 49.7861 32.1569 49.6331 32.1805 49.3388C32.204 48.9856 32.1805 48.6442 32.1805 48.291C32.2158 48.2792 32.2629 48.2557 32.2982 48.2439C32.4041 48.3734 32.5219 48.4911 32.6278 48.6206C32.9457 48.9974 33.3224 49.327 33.8286 49.4094C34.1111 49.4565 34.4172 49.4565 34.688 49.3741C35.2766 49.1975 35.465 48.6442 35.1 48.138C34.9234 47.9025 34.6645 47.7024 34.4055 47.5376C34.0641 47.3139 33.6991 47.1373 33.3577 46.9254C32.7809 46.5605 32.3924 46.066 32.3453 45.3479C32.2864 44.6298 32.5572 44.0529 33.1693 43.6997C34.2642 43.064 35.4297 43.0758 36.6069 43.4761C36.7129 43.5114 36.8306 43.6409 36.8424 43.7351C36.8777 44.1824 36.9012 44.6298 36.9248 45.0653Z" fill="#434041"/>
<path d="M65.8433 61.1227C65.8433 61.3817 65.8786 61.6407 65.8315 61.8879C65.808 62.0174 65.6785 62.194 65.549 62.2411C65.1958 62.3941 64.8191 62.5354 64.4424 62.5943C63.6301 62.7002 62.8178 62.6061 62.0526 62.2764C59.7098 61.2993 59.2742 58.0383 61.2991 56.4961C62.4999 55.5779 63.8537 55.4248 65.2782 55.8604C65.7727 56.0135 65.808 56.1076 65.8433 56.6256C65.8551 56.8846 65.8904 57.1436 65.8904 57.4026C65.8904 57.4968 65.8315 57.6498 65.7609 57.6734C65.6785 57.6969 65.5372 57.6381 65.4666 57.5674C65.3842 57.485 65.3253 57.3555 65.2782 57.2378C64.8544 56.2725 63.7596 56.037 62.9473 56.7316C62.6059 57.0259 62.3822 57.4026 62.2409 57.8264C61.9584 58.7094 61.9937 59.5923 62.2998 60.4635C62.8413 62.0057 64.5719 62.1352 65.4666 61.2875C65.549 61.2169 65.6432 61.1463 65.7256 61.0756C65.7609 61.0992 65.808 61.1109 65.8433 61.1227Z" fill="#434041"/>
<path d="M73.2342 61.0167C73.246 61.2168 73.2578 61.311 73.2696 61.4051C73.2813 62.0879 73.2107 62.2292 72.5632 62.4176C71.3271 62.7943 70.1145 62.6766 68.9844 62.0291C68.0426 61.4875 67.5717 60.6164 67.454 59.5569C67.2185 57.2848 68.8078 56.0251 70.3971 55.719C71.127 55.5778 71.8569 55.6131 72.5632 55.825C73.1636 56.0016 73.2342 56.084 73.246 56.7079C73.2578 57.0258 73.246 57.3436 73.246 57.6615C73.0106 57.7674 72.8811 57.6615 72.7751 57.4967C72.7163 57.4143 72.6927 57.3201 72.6456 57.2377C72.1865 56.2841 71.1034 56.0369 70.3147 56.7668C70.0321 57.0258 69.7967 57.3672 69.6554 57.7086C69.2787 58.6504 69.314 59.6157 69.7025 60.5575C69.985 61.2521 70.6208 61.876 71.7038 61.7936C72.1159 61.7583 72.4573 61.5935 72.7751 61.3581C72.9164 61.2756 73.0341 61.1815 73.2342 61.0167Z" fill="#434041"/>
<path d="M94.6254 45.336C94.4371 45.2183 94.3076 45.1594 94.1898 45.0652C94.1192 45.0064 94.0839 44.9004 94.0486 44.8062C93.8838 44.3706 93.6248 44.0292 93.1303 43.9586C92.577 43.8762 92.059 43.9704 91.6352 44.3824C91.1761 44.818 90.9406 45.3713 90.8582 45.9717C90.7523 46.7251 90.7994 47.4668 91.129 48.1732C91.7176 49.4564 93.1068 49.786 94.2134 48.9148C94.3193 48.8324 94.4371 48.75 94.6254 48.597C94.6372 48.9266 94.6725 49.1856 94.6254 49.421C94.6019 49.5505 94.4724 49.7036 94.3429 49.7742C93.9191 50.045 93.4364 50.1274 92.9537 50.1745C92.0119 50.2687 91.1054 50.0803 90.2931 49.5623C88.3271 48.3026 88.2801 45.2771 90.2107 43.9586C91.4351 43.1228 92.7771 43.0404 94.1781 43.4642C94.5077 43.5583 94.6607 43.7585 94.6372 44.1117C94.6136 44.3824 94.6607 44.665 94.6607 44.9357C94.6843 45.0299 94.649 45.1359 94.6254 45.336Z" fill="#434041"/>
<path d="M24.9034 50.0452C24.2559 50.0452 23.7026 50.0452 23.0904 50.0452C23.0786 49.8804 23.0668 49.692 23.0668 49.5037C23.0668 47.8791 23.0668 46.2427 23.0668 44.6181C23.0668 44.4415 23.0433 44.2649 23.0315 44.0648C22.7137 44.0648 22.4429 44.053 22.1604 44.0648C21.8425 44.0766 21.6306 44.2649 21.4658 44.5357C21.3716 44.7123 21.301 44.9359 20.9713 44.9477C20.9125 44.4297 20.936 43.9235 21.0067 43.4291C21.4069 43.3113 26.4102 43.2878 26.9518 43.4055C27.0813 43.8882 27.0342 44.3826 27.0459 44.8535C26.834 44.9713 26.7045 44.8653 26.6457 44.7358C26.3043 43.9588 25.6568 44.0177 24.9387 44.0883C24.868 45.0772 24.9151 46.0661 24.9034 47.055C24.9034 48.0439 24.9034 49.0328 24.9034 50.0452Z" fill="#434041"/>
<path d="M28.6708 50.0448C28.659 49.8682 28.6473 49.6916 28.6473 49.515C28.6473 48.067 28.6473 46.619 28.6473 45.1827C28.6473 44.9591 28.6237 44.7236 28.6002 44.4999C28.5648 44.1585 28.4236 43.876 28.1293 43.6876C28.0469 43.6288 27.988 43.5346 27.9174 43.4404C27.988 43.3933 28.0233 43.3462 28.0704 43.3462C28.765 43.3345 29.4713 43.3227 30.1659 43.3345C30.5073 43.3345 30.5662 43.4169 30.5662 43.8525C30.5662 45.1827 30.5662 46.513 30.5662 47.8433C30.5662 48.4084 30.5662 48.9853 30.5662 49.5503C30.5662 49.7034 30.5544 49.8682 30.5426 50.033C29.8951 50.0448 29.3065 50.0448 28.6708 50.0448Z" fill="#434041"/>
<path d="M19.3213 50.0451C18.6974 50.0451 18.1441 50.0451 17.5319 50.0451C17.5201 49.8685 17.5084 49.692 17.5084 49.5271C17.5084 48.0909 17.5084 46.6664 17.5084 45.2302C17.5084 45.0301 17.5084 44.8417 17.4848 44.6416C17.4377 44.2648 17.3436 43.9117 16.9786 43.688C16.8962 43.6409 16.8491 43.535 16.7432 43.4055C16.8727 43.3701 16.9433 43.3348 17.0257 43.3348C17.6614 43.3348 18.2971 43.323 18.9328 43.3348C19.3096 43.3348 19.3802 43.3937 19.3802 43.7469C19.392 45.7599 19.3802 47.7848 19.3802 49.7979C19.3802 49.8803 19.3449 49.9509 19.3213 50.0451Z" fill="#434041"/>
<path d="M87.0091 50.0453C86.3734 50.0453 85.7966 50.0453 85.1609 50.0453C85.1491 49.8805 85.1373 49.7039 85.1373 49.5273C85.1373 48.1146 85.1373 46.7019 85.1373 45.2775C85.1373 45.0773 85.1373 44.889 85.1255 44.6888C85.102 44.2886 84.9961 43.9236 84.6311 43.6764C84.5487 43.6176 84.5016 43.5234 84.4427 43.441C84.5016 43.3939 84.5134 43.3468 84.5369 43.3468C85.2668 43.335 85.9967 43.3232 86.7266 43.3232C86.9385 43.3232 87.0445 43.4527 87.0445 43.6764C87.0445 43.7471 87.0445 43.8059 87.0445 43.8765C87.0445 45.7955 87.0445 47.7144 87.0445 49.6333C87.0445 49.7628 87.0209 49.8923 87.0091 50.0453Z" fill="#434041"/>
</svg>
