<svg width="231" height="43" viewBox="0 0 231 43" fill="none" xmlns="http://www.w3.org/2000/svg">
<path fill-rule="evenodd" clip-rule="evenodd" d="M223.8 20.1698V17.3956H226.954C227.262 17.3956 227.519 17.1592 227.519 16.8715V11.0867C227.519 10.799 227.262 10.5627 226.954 10.5627H223.8V7.78845H227.17C229.019 7.78845 230.54 9.17557 230.54 10.8812V17.0668C230.54 18.7724 229.03 20.1595 227.17 20.1595H223.8V20.1698ZM223.8 7.78845V10.5627H220.656C220.347 10.5627 220.09 10.799 220.09 11.0867V16.8715C220.09 17.1592 220.347 17.3956 220.656 17.3956H223.8V20.1698H220.43C218.58 20.1698 217.059 18.7827 217.059 17.077V10.8915C217.059 9.18585 218.58 7.79872 220.43 7.79872H223.8V7.78845ZM193.828 16.1215V13.4089H197.609V10.984C197.609 10.6963 197.352 10.4599 197.033 10.4599H193.838V7.75762H197.198C199.037 7.75762 200.558 9.14475 200.558 10.8401V20.0465L197.619 20.0671V16.8613V16.1112H193.828V16.1215ZM212.518 7.71652L208.809 12.5971L205.089 7.71652H201.308L207.216 15.3714V20.0979H210.411V15.3714L216.278 7.71652H212.518ZM193.828 7.75762V10.4599H190.622C190.314 10.4599 190.046 10.6963 190.046 10.984V13.4089H190.067H191.567H193.817V16.1215H191.567H190.067H190.046L190.057 20.0773L187.108 20.0568V10.8504C187.108 9.15502 188.618 7.7679 190.457 7.7679H193.828V7.75762ZM147.59 16.1215V13.4089H151.371V10.984C151.371 10.6963 151.114 10.4599 150.796 10.4599H147.6V7.75762H150.96C152.81 7.75762 154.32 9.14475 154.32 10.8401V20.0465L151.382 20.0671V16.8613V16.1112H147.59V16.1215ZM179.33 17.3545H181.569C181.888 17.3545 182.145 17.1181 182.145 16.8202V15.1556H185.073V16.964C185.073 18.6594 183.563 20.0465 181.724 20.0465H175.014H174.932H174.85H174.767L174.675 20.0362L174.593 20.026L174.511 20.0157L174.428 20.0054L174.346 19.9951L174.264 19.9746L174.182 19.954L174.1 19.9335L174.017 19.9129L173.935 19.8924L173.853 19.8718L173.781 19.8513L173.709 19.8205L173.637 19.7896L173.565 19.7588L173.493 19.728L173.421 19.6972L173.35 19.6561L173.278 19.615L173.206 19.5739L173.134 19.5328L173.072 19.4917L173.01 19.4506L172.949 19.4095L172.887 19.3581L172.825 19.3067L172.764 19.2553L172.702 19.204L172.641 19.1526L172.589 19.1012L172.538 19.0498L172.486 18.9985L172.435 18.9368L172.384 18.8752C172.281 18.7621 172.188 18.6388 172.106 18.5053L172.065 18.4436L172.024 18.382L171.993 18.3203L171.952 18.2587L171.921 18.1867L171.89 18.1148L171.86 18.0429L171.829 17.971L171.798 17.899L171.777 17.8271L171.757 17.7552L171.736 17.6833L171.716 17.6113L171.705 17.5394L171.695 17.4675L171.685 17.3956L171.675 17.3236L171.664 17.2517L171.654 17.1695V17.0873V17.0051V10.8401V10.7271V10.6449L171.664 10.573L171.675 10.501L171.685 10.4291L171.695 10.3572L171.705 10.2853L171.716 10.2133L171.736 10.1414L171.757 10.0695L171.777 9.99757L171.798 9.92565L171.829 9.85372L171.86 9.7818L171.89 9.70987L171.921 9.63795L171.952 9.56602L171.993 9.4941L172.024 9.43245L172.065 9.3708L172.106 9.30915C172.188 9.17557 172.281 9.05227 172.384 8.93925L172.435 8.8776L172.486 8.82622L172.538 8.77485L172.589 8.72347L172.641 8.6721L172.702 8.62072L172.764 8.56935L172.825 8.51797L172.887 8.4666L172.949 8.4255L173.01 8.3844L173.072 8.3433L173.134 8.3022L173.206 8.2611L173.278 8.22L173.35 8.1789L173.421 8.1378L173.493 8.10697L173.565 8.07615L173.637 8.04532L173.709 8.0145L173.781 7.98367L173.853 7.96312L173.935 7.94257L174.017 7.92202L174.1 7.90147L174.182 7.88092L174.264 7.86037L174.346 7.83982L174.428 7.82955L174.511 7.81927L174.593 7.809L174.675 7.79872L174.757 7.78845H174.839H174.922H175.004H181.713C183.563 7.78845 185.063 9.17557 185.063 10.8709V12.6793H182.135V11.0148C182.135 10.7168 181.878 10.4805 181.559 10.4805H179.401H176.391H175.168C174.922 10.4805 174.706 10.6243 174.624 10.8298V10.8401L174.613 10.8504V10.8607V10.8709V10.8812V10.8915V10.9018V10.912V10.9223V10.9326V10.9429V10.9531V10.9634V10.9737V16.851V16.8613V16.8715V16.8818V16.8921V16.9024V16.9126V16.9229V16.9332V16.9435V16.9537V16.964V16.9743L174.624 16.9846V16.9948C174.706 17.2003 174.922 17.3442 175.168 17.3442H176.391H179.33V17.3545ZM156.406 20.1184H159.375L159.365 10.4599H165.469C165.787 10.4599 166.054 10.6963 166.054 10.9942V20.1184L169.003 20.0979V10.8504C169.003 9.14475 167.482 7.74735 165.623 7.74735H156.406V20.1184ZM94.9615 10.4908H98.1571C98.4756 10.4908 98.7325 10.7271 98.7325 11.0251V13.45H94.9513V16.1523H98.7325V16.9126V20.1184L101.671 20.0979V10.8915C101.671 9.19612 100.161 7.809 98.3112 7.809H94.9513V10.4908H94.9615ZM147.59 7.75762V10.4599H144.395C144.076 10.4599 143.819 10.6963 143.819 10.984V13.4089H143.84H145.545H147.59V16.1215H145.545H143.84H143.819L143.829 20.0773L140.88 20.0568V10.8504C140.88 9.15502 142.391 7.7679 144.23 7.7679H147.59V7.75762ZM111.247 7.7268H114.443V12.443H120.803V7.7268H123.999V20.0979H120.803V15.3817H114.443V20.0979H111.247V7.7268ZM138.63 7.79872H135.661L135.671 17.4572H129.568C129.249 17.4572 128.992 17.2209 128.992 16.9229V7.79872L126.043 7.81927V17.0668C126.043 18.7724 127.564 20.1698 129.414 20.1698H138.63V7.79872ZM91.766 10.4908H94.9615V7.78845H91.6119C89.7624 7.78845 88.252 9.17557 88.252 10.8709V20.0773L91.2009 20.0979L91.1906 16.142H92.0537H94.9513V13.4397H92.064H91.2009H91.1906V11.0148C91.1906 10.7374 91.4475 10.4908 91.766 10.4908ZM65.76 16.1523V13.45H69.5412V11.0251C69.5412 10.7374 69.2843 10.4908 68.9658 10.4908H65.76V7.78845H69.1199C70.9694 7.78845 72.4798 9.17557 72.4798 10.8709V20.0773L69.5412 20.0979V16.8921V16.1317H65.76V16.1523ZM83.135 17.4058H77.2063C76.8878 17.3545 76.6207 17.262 76.6309 16.8715V15.1556H73.6923V17.0051C73.6923 18.7005 75.2027 20.0876 77.0419 20.0876H83.2789C85.1284 20.0876 86.6388 18.7005 86.6388 17.0051V7.79872L83.6899 7.77817L83.7001 16.8613C83.7104 17.1798 83.4535 17.4058 83.135 17.4058ZM65.76 7.79872V10.501H62.5645C62.2459 10.501 61.9891 10.7374 61.9891 11.0353V13.4602H61.9993H63.6844H65.76V16.1626H63.6844H61.9993V20.1184L59.0504 20.0979V10.8915C59.0504 9.19612 60.5608 7.809 62.4103 7.809H65.76V7.79872ZM48.5699 27.8452V26.2526C49.9468 26.8897 51.3955 27.424 52.906 27.8452H48.5699ZM48.5699 20.1082V17.4058H48.9706H51.899H54.139C54.4575 17.4058 54.7144 17.1695 54.7144 16.8715V15.207H57.6427V17.0154C57.6427 18.7108 56.1323 20.0979 54.2828 20.0979H48.5699V20.1082ZM48.5699 10.4702V7.7679H54.2931C56.1426 7.7679 57.653 9.15502 57.653 10.8504V12.6588H54.7246V10.9942C54.7246 10.6963 54.4678 10.4599 54.1492 10.4599H51.9915H48.9809H48.5699V10.4702ZM48.5699 7.77817V10.4805H47.7376C47.491 10.4805 47.2753 10.6243 47.1931 10.8298V10.8401L47.1828 10.8504V10.8607V10.8709V10.8812V10.8915V10.9018V10.912V10.9223V10.9326V10.9429V10.9531V10.9634V10.9737V16.851V16.8613V16.8715V16.8818V16.8921V16.9024V16.9126V16.9229V16.9332V16.9435V16.9537V16.964V16.9743L47.1931 16.9846V16.9948C47.2753 17.1901 47.491 17.3442 47.7376 17.3442H48.5699V20.0465H47.5835H47.5013H47.4191H47.3369L47.2547 20.0362L47.1725 20.026L47.0903 20.0157L47.0081 20.0054L46.9259 19.9951L46.8437 19.9746L46.7615 19.954L46.6793 19.9335L46.5971 19.9129L46.5149 19.8924L46.443 19.8718L46.3711 19.841L46.2889 19.8102L46.2169 19.7794L46.145 19.7485L46.0731 19.7177L46.0012 19.6869L45.9292 19.6561L45.8573 19.615L45.7854 19.5739L45.7135 19.5328L45.6518 19.4917L45.5902 19.4506L45.5285 19.4095L45.4669 19.3581L45.4052 19.317L45.3436 19.2656L45.2819 19.2142L45.2203 19.1629L45.1586 19.1115L45.1072 19.0601L45.0559 19.0087L45.0045 18.9574L44.9531 18.8957C44.8504 18.7827 44.7579 18.6491 44.6757 18.5258L44.6346 18.4642L44.5935 18.4333L44.5627 18.3717L44.5318 18.2998L44.4907 18.2278L44.4599 18.1559L44.4291 18.084L44.3983 18.0121L44.3674 17.9401L44.3469 17.8682L44.3263 17.7963L44.3058 17.7244L44.2852 17.6524L44.2647 17.5805L44.2544 17.5086L44.2441 17.4367L44.2339 17.3647L44.2236 17.2825L44.2133 17.2003V17.1181V17.0359V10.8709V10.7887V10.7065L44.2236 10.6243L44.2339 10.5524L44.2441 10.4702L44.2544 10.3983L44.2852 10.3161L44.3058 10.2442L44.3263 10.1722L44.3469 10.1003L44.3674 10.0284L44.388 9.95647L44.4188 9.88455L44.4496 9.81262L44.4805 9.7407L44.5113 9.66877L44.5421 9.60712L44.5729 9.54547L44.6038 9.48382L44.6449 9.42217L44.686 9.36052C44.7682 9.23722 44.8606 9.10365 44.9634 8.99062L45.0148 8.92897L45.0661 8.86732L45.1175 8.81595L45.1689 8.76457L45.2305 8.7132L45.2922 8.66182L45.3538 8.61045L45.4155 8.55907L45.4771 8.5077L45.5388 8.4666L45.6004 8.4255L45.6621 8.3844L45.7237 8.3433L45.7751 8.2611L45.847 8.22L45.919 8.18917L45.9909 8.15835L46.0628 8.12752L46.1347 8.0967L46.2067 8.06587L46.2786 8.03505L46.3608 8.00422L46.4327 7.98367L46.5046 7.95285L46.5868 7.9323L46.669 7.91175L46.7512 7.8912L46.8334 7.87065L46.9156 7.8501L46.9978 7.83982L47.08 7.82955L47.1622 7.81927L47.2444 7.809L47.3266 7.79872H47.4088H47.491H47.5732H48.5699V7.77817ZM48.5699 26.2526V27.8452H20.961V24.1051H44.799C45.9703 24.9169 47.2342 25.6361 48.5699 26.2526ZM20.961 23.0057V18.7416H28.1021V19.5328C28.1021 20.8993 26.8897 22.0296 25.4101 22.0296H29.1913C30.6709 22.0296 31.873 20.9096 31.873 19.5328V11.0353C31.873 9.66877 30.6606 8.5488 29.1913 8.5488H20.961V7.45965C22.6769 7.45965 24.0846 6.10335 24.0846 4.4388C24.0846 2.77425 22.6769 1.41795 20.961 1.41795V0H36.9078C35.9111 2.3016 35.3665 4.78815 35.3665 7.38772C35.3665 13.5322 38.4182 19.0807 43.3091 23.0057H20.961ZM20.961 14.9296H27.1568H28.1124V14.0665V13.4602V13.1623C28.1124 12.6896 27.6808 12.2992 27.1568 12.2992H20.961V14.9296ZM20.961 0V1.41795C19.2451 1.41795 17.8374 2.77425 17.8374 4.4388C17.8374 6.10335 19.2451 7.45965 20.961 7.45965V8.5488H12.7204C11.2408 8.5488 10.0284 9.66877 10.0284 11.0353V19.5328C10.0284 20.8993 11.2408 22.0296 12.7204 22.0296H16.5016C15.022 22.0296 13.8096 20.9096 13.8096 19.5328V18.7416H20.9507V23.0057H10.0284V24.1051H20.961V27.8452H14.3953C6.48352 27.8452 0 21.5775 0 13.9226C0 6.26775 6.47325 0 14.3953 0H20.961ZM20.961 12.3094H14.7652C14.2411 12.3094 13.8096 12.6999 13.8096 13.1725V13.4705V14.0767V14.9398H14.7652H20.961V12.3094Z" fill="#474546"/>
<path fill-rule="evenodd" clip-rule="evenodd" d="M67.0547 39.5078L68.4726 31.4213H70.2605L69.1097 37.9357H72.3566L72.0894 39.5078H67.0547ZM77.6277 39.5078H76.1789L76.1275 38.994C75.5727 39.4153 74.9459 39.6208 74.2472 39.6208C73.6307 39.6208 73.23 39.4461 73.0347 39.0968C72.8395 38.7474 72.8087 38.2234 72.932 37.5247L73.2094 35.9321C73.2608 35.6238 73.3224 35.3567 73.4046 35.1306C73.4766 34.9046 73.5999 34.6785 73.7437 34.4627C73.8978 34.247 74.0828 34.062 74.2986 33.9284C74.5143 33.7949 74.7918 33.6818 75.1411 33.5996C75.4802 33.5174 75.8809 33.4763 76.3433 33.4763C77.0625 33.4763 77.8126 33.5996 78.6038 33.8462L77.6277 39.5078ZM74.9356 35.9526L74.6274 37.7096C74.6068 37.8638 74.6171 37.9768 74.6685 38.0487C74.7198 38.1206 74.8123 38.1515 74.9664 38.1515C75.3672 38.1515 75.7987 37.9562 76.2611 37.5658L76.7132 35.0073C76.518 34.9662 76.2919 34.9457 76.0453 34.9457C75.8706 34.9457 75.7268 34.9662 75.5932 35.0073C75.4699 35.0484 75.3672 35.0895 75.2952 35.1409C75.2233 35.1923 75.1617 35.2642 75.1103 35.3669C75.0589 35.4697 75.0281 35.5519 75.0075 35.6341C74.987 35.6957 74.9664 35.8088 74.9356 35.9526ZM86.2176 39.6722C85.0462 39.6722 84.1728 39.4256 83.5769 38.9324C82.9912 38.4392 82.6932 37.7816 82.6932 36.9698C82.6932 36.7643 82.7138 36.5383 82.7549 36.302L83.5974 31.5138C83.7927 30.3836 84.255 29.5616 84.9743 29.0478C85.6935 28.5341 86.721 28.2772 88.0773 28.2772C89.0637 28.2772 90.1323 28.4416 91.2729 28.7601L90.718 30.8562C89.598 30.6096 88.6322 30.4863 87.8307 30.4863C87.2451 30.4863 86.8032 30.5993 86.5361 30.8357C86.2587 31.0617 86.0737 31.4727 85.971 32.0481L85.2928 35.9115C85.262 36.0965 85.2414 36.2711 85.2414 36.4253C85.2414 36.7952 85.3545 37.0623 85.5702 37.2267C85.786 37.3911 86.1354 37.4733 86.608 37.4733C87.5636 37.4733 88.5192 37.3706 89.485 37.1548L89.5775 39.2509C88.5603 39.5283 87.4506 39.6722 86.2176 39.6722ZM97.5406 39.5078L98.8866 31.7604C97.8078 31.4213 96.77 31.2569 95.7939 31.2569C95.1671 31.2569 94.6225 31.3186 94.1499 31.4316C93.6772 31.5446 93.297 31.6988 92.9991 31.8837C92.7011 32.0687 92.4442 32.3153 92.2387 32.6132C92.0332 32.9112 91.8688 33.2195 91.7661 33.5277C91.6633 33.836 91.5708 34.2059 91.4989 34.6271L91.1187 36.8054C90.9543 37.761 90.9954 38.4803 91.2523 38.9632C91.5092 39.4461 92.064 39.6824 92.9066 39.6824C93.8622 39.6824 94.7253 39.3947 95.4753 38.8193L95.5575 39.5078H97.5406ZM93.8519 34.6374C93.893 34.4422 93.9238 34.2983 93.9444 34.1853C93.9649 34.0723 94.0163 33.9593 94.0882 33.8154C94.1601 33.6818 94.2423 33.5791 94.3451 33.5072C94.4376 33.4455 94.5814 33.3839 94.7458 33.3325C94.9205 33.2811 95.1157 33.2503 95.3623 33.2503C95.7117 33.2503 96.0199 33.2811 96.2768 33.3325L95.6603 36.8363C95.013 37.3706 94.4273 37.6377 93.8827 37.6377C93.6772 37.6377 93.5436 37.5966 93.482 37.5041C93.4203 37.4117 93.3998 37.2575 93.4306 37.0418L93.8519 34.6374ZM98.9688 42.9499L97.8283 41.3367C98.4448 40.8538 98.8044 40.5558 98.9175 40.4531C99.1435 40.2373 99.2771 39.9701 99.349 39.6516C99.3593 39.6105 99.3696 39.5591 99.3696 39.518L100.767 31.6063L103.182 31.2672L101.651 39.8982C101.599 40.1859 101.527 40.4325 101.455 40.6277C101.373 40.823 101.24 41.0387 101.055 41.2853C100.87 41.5217 100.603 41.7785 100.274 42.0354C99.945 42.2923 99.5134 42.6005 98.9688 42.9499ZM100.962 30.5171L101.394 28.0203L103.808 27.6915L103.367 30.1883L100.962 30.5171ZM110.189 39.5078H108.206L108.144 38.8091C107.384 39.3845 106.531 39.6722 105.576 39.6722C104.733 39.6722 104.178 39.4358 103.921 38.9529C103.665 38.47 103.613 37.7507 103.788 36.7952L104.168 34.6169C104.24 34.1956 104.322 33.8257 104.435 33.5174C104.538 33.2092 104.702 32.9009 104.908 32.603C105.113 32.305 105.37 32.0584 105.668 31.8734C105.966 31.6885 106.346 31.5344 106.819 31.4213C107.292 31.3083 107.836 31.2467 108.463 31.2467C109.439 31.2467 110.477 31.4111 111.556 31.7501L110.189 39.5078ZM106.5 34.6374L106.079 37.052C106.048 37.2678 106.059 37.4219 106.131 37.5144C106.192 37.6069 106.326 37.648 106.531 37.648C107.076 37.648 107.661 37.3808 108.309 36.8465L108.925 33.3428C108.658 33.2914 108.35 33.2606 108.011 33.2606C107.775 33.2606 107.569 33.2811 107.394 33.3428C107.23 33.3941 107.086 33.4558 106.994 33.5174C106.901 33.5894 106.809 33.6921 106.737 33.8257C106.665 33.9593 106.613 34.0826 106.593 34.1956C106.572 34.2983 106.542 34.4422 106.5 34.6374ZM138.178 36.1273H135.99L135.383 39.5078H132.938L134.89 28.4313H139.113C140.285 28.4313 141.168 28.6471 141.754 29.0684C142.34 29.4999 142.638 30.1164 142.638 30.9179C142.638 31.1234 142.607 31.4111 142.545 31.7707L142.329 33.014C142.237 33.5585 142.103 34.0106 141.939 34.3805C141.774 34.7402 141.538 35.0587 141.22 35.3361C140.911 35.6135 140.5 35.8088 140.007 35.9423C139.514 36.0656 138.908 36.1273 138.178 36.1273ZM139.915 32.7982L140.069 31.9145C140.1 31.709 140.12 31.5446 140.12 31.4316C140.12 31.1439 140.038 30.9281 139.863 30.7946C139.689 30.661 139.422 30.5891 139.041 30.5891H136.976L136.37 34.0209H138.384C138.918 34.0209 139.288 33.9284 139.483 33.7435C139.689 33.5585 139.833 33.24 139.915 32.7982ZM142.627 36.5897C142.566 36.939 142.525 37.2575 142.525 37.5658C142.525 38.2748 142.72 38.7988 143.1 39.1481C143.48 39.4975 144.097 39.6824 144.919 39.6824C145.607 39.6824 146.306 39.5694 147.025 39.3639C147.744 39.1584 148.361 38.8913 148.875 38.5727L148.422 36.9082C147.046 37.5041 145.987 37.8124 145.247 37.8124C145.052 37.8124 144.929 37.761 144.878 37.6583C144.826 37.5555 144.816 37.4219 144.836 37.237L144.939 36.6821C145.494 36.5383 146.059 36.3739 146.635 36.1992C147.662 35.891 148.381 35.5211 148.803 35.0895C149.224 34.658 149.44 34.062 149.44 33.2914C149.44 32.6338 149.193 32.1406 148.69 31.7912C148.186 31.4419 147.539 31.2672 146.737 31.2672C146.111 31.2672 145.576 31.3391 145.134 31.4727C144.682 31.6063 144.323 31.8221 144.045 32.0995C143.768 32.3769 143.552 32.6954 143.388 33.0551C143.234 33.4044 143.11 33.836 143.018 34.3292L142.627 36.5897ZM146.337 34.4936C146.162 34.5449 145.813 34.6374 145.278 34.771L145.371 34.2161C145.432 33.8462 145.556 33.5585 145.741 33.3633C145.915 33.1681 146.203 33.0653 146.593 33.0653C146.799 33.0653 146.974 33.1064 147.097 33.1886C147.22 33.2708 147.282 33.3839 147.282 33.538C147.272 33.9901 146.963 34.3086 146.337 34.4936ZM155.296 31.2569L155.327 33.3736C154.392 33.8873 153.611 34.3394 152.985 34.7402L152.142 39.518H149.799L151.176 31.6166L153.241 31.2672L153.19 32.3666C153.961 31.9043 154.659 31.5344 155.296 31.2569ZM158.79 31.2569L157.803 36.8979C157.783 37.0109 157.773 37.0931 157.773 37.1445C157.773 37.3089 157.875 37.4014 158.091 37.4014C158.471 37.4014 159.17 37.1445 160.187 36.641L161.061 31.596L163.475 31.2569L162.027 39.5078H160.033L160.013 38.7577C158.738 39.3639 157.67 39.6722 156.827 39.6722C155.841 39.6722 155.348 39.1276 155.348 38.0282C155.348 37.7713 155.379 37.463 155.43 37.0931L156.396 31.5857L158.79 31.2569ZM159.468 30.5582L158.79 29.3355C159.581 28.904 160.485 28.3388 161.513 27.6401L162.263 29.0067C161.492 29.5307 160.567 30.0445 159.468 30.5582ZM120.043 39.5078H118.645L118.594 39.0146C118.101 39.4153 117.495 39.6208 116.786 39.6208C116.19 39.6208 115.789 39.4461 115.584 39.107C115.378 38.768 115.337 38.2645 115.46 37.5966L115.727 36.0656C115.758 35.8807 115.789 35.706 115.83 35.5724C115.861 35.4286 115.902 35.2847 115.964 35.1203C116.015 34.9559 116.077 34.8224 116.149 34.7093C116.221 34.5963 116.313 34.4833 116.416 34.36C116.519 34.247 116.642 34.1442 116.786 34.0723C116.93 34.0004 117.084 33.9284 117.279 33.8668C117.464 33.8051 117.68 33.7538 117.916 33.7229C118.163 33.6921 118.43 33.6818 118.728 33.6818C119.015 33.6818 119.252 33.7024 119.416 33.7435L119.807 31.4727L121.502 31.2364L120.043 39.5078ZM117.382 36.0759L117.084 37.8021C117.053 37.9562 117.063 38.0693 117.104 38.1412C117.156 38.2131 117.248 38.2439 117.392 38.2439C117.834 38.2439 118.276 38.0487 118.717 37.6583L119.159 35.1203C118.995 35.0895 118.779 35.0792 118.512 35.0792C118.306 35.0792 118.132 35.0998 117.988 35.1512C117.844 35.2025 117.731 35.2745 117.649 35.3772C117.567 35.48 117.515 35.5827 117.474 35.6855C117.443 35.7779 117.412 35.9115 117.382 36.0759ZM121.461 37.4528C121.409 37.6994 121.389 37.9254 121.389 38.1412C121.389 38.6344 121.522 39.0043 121.8 39.2612C122.067 39.5078 122.499 39.6311 123.084 39.6311C123.567 39.6311 124.06 39.5591 124.574 39.405C125.078 39.2612 125.519 39.0659 125.879 38.8399L125.561 37.6685C124.595 38.0898 123.845 38.3056 123.321 38.3056C123.187 38.3056 123.095 38.2748 123.053 38.2028C123.012 38.1309 123.002 38.0282 123.023 37.9049L123.095 37.5144C123.485 37.4117 123.886 37.2986 124.286 37.1753C125.006 36.9596 125.519 36.7027 125.817 36.3944C126.115 36.0965 126.27 35.6649 126.27 35.1203C126.27 34.658 126.095 34.3086 125.745 34.062C125.396 33.8154 124.934 33.6921 124.369 33.6921C123.927 33.6921 123.547 33.7435 123.238 33.836C122.92 33.9387 122.663 34.0826 122.468 34.2778C122.273 34.473 122.118 34.6991 122.005 34.9457C121.892 35.1923 121.81 35.4902 121.749 35.8396L121.461 37.4528ZM124.071 35.9732C123.947 36.0143 123.701 36.0759 123.321 36.1684L123.393 35.7779C123.434 35.5108 123.526 35.3156 123.649 35.1717C123.773 35.0381 123.978 34.9662 124.245 34.9662C124.389 34.9662 124.512 34.997 124.595 35.0587C124.677 35.1203 124.728 35.2025 124.728 35.3053C124.728 35.6135 124.512 35.8396 124.071 35.9732ZM126.516 39.5078L127.924 31.4624L129.619 31.2261L128.17 39.5078H126.516Z" fill="#474546"/>
</svg>
