<svg width="145" height="41" viewBox="0 0 145 41" fill="none" xmlns="http://www.w3.org/2000/svg">
<path fill-rule="evenodd" clip-rule="evenodd" d="M36.4827 0H28.9452H19.573V9.80662V19.6132V29.4199H20.204V24.3029C20.204 24.1841 20.2391 24.0773 20.2858 23.9942C20.2858 23.9823 20.391 23.8161 20.4378 23.733C20.6715 23.3056 20.8 22.8069 20.8 22.2727V18.7466V8.83308V4.90331L23.815 3.06309V20.848L23.7917 21.1448C23.7917 21.1923 23.78 21.2398 23.7683 21.2873C23.6748 21.8215 23.406 22.2845 23.0204 22.6288C22.997 22.6526 22.8685 22.7832 22.8685 22.7832L21.0922 24.0417C20.9169 24.1485 20.7883 24.3385 20.7883 24.564C20.7883 24.5997 20.7883 24.9083 20.7883 24.9083V26.9623V29.4199H21.6882V24.5284C21.6882 24.3622 21.7583 24.2079 21.8635 24.0892C21.9102 24.0417 22.4127 23.6974 22.4127 23.6974L23.2775 23.0919C23.371 23.0325 23.4528 22.9731 23.5463 22.9019L23.6865 22.7832C24.3175 22.2252 24.7149 21.406 24.7149 20.4799C24.7149 20.4681 24.7149 13.5346 24.7149 13.5346V7.34903L27.7299 5.50881V19.7557C27.7299 19.7795 27.7299 19.9101 27.7299 19.9101C27.7065 20.6224 27.3676 21.2398 26.8417 21.6434L26.7716 21.7028C26.7132 21.7503 26.6431 21.7859 26.5729 21.8334L22.8334 24.2435L22.6114 24.386C22.4244 24.4928 22.2958 24.6828 22.2958 24.9202V26.7961V29.4199H23.1957V24.9558C23.1957 24.7421 23.3008 24.564 23.4645 24.4453C23.4761 24.4335 23.9202 24.1485 23.9202 24.1485L27.1923 22.0471C28.0454 21.501 28.618 20.5512 28.618 19.447C28.618 19.3639 28.618 19.1977 28.618 19.1977V12.288V9.8185L31.633 7.97827V18.8297C31.633 18.8534 31.633 18.8772 31.633 18.9009C31.633 19.637 31.2824 20.29 30.7565 20.7174C30.7565 20.7174 30.4644 20.9192 30.4527 20.9192L24.3292 24.6709L24.0838 24.8252C23.9202 24.9321 23.8033 25.1221 23.8033 25.3358V26.9148V29.4317H24.7149V25.3714C24.7265 25.1695 24.8317 24.9915 24.9836 24.8846C24.9953 24.8727 25.2524 24.7184 25.2524 24.7184L30.9552 21.2279C31.9018 20.7055 32.5445 19.6964 32.5445 18.521C32.5445 18.4854 32.5445 18.4497 32.5445 18.4141V12.2642L35.5595 10.424V17.8799L35.5478 17.8917C35.4894 18.616 35.1038 19.2571 34.5311 19.637C34.5195 19.6489 34.4493 19.6964 34.4493 19.6964L26.5846 24.5047L25.6264 25.0864C25.4394 25.1933 25.3108 25.3951 25.3108 25.6207C25.3108 25.6444 25.3108 25.7038 25.3108 25.7038V28.1851V29.408H28.9335H36.4827C37.6513 29.408 38.5862 28.4463 38.5862 27.271V19.6132V9.80662V2.13704C38.5979 0.961666 37.6513 0 36.4827 0Z" fill="#434041"/>
<path fill-rule="evenodd" clip-rule="evenodd" d="M2.11518 0H9.65268H19.0249V9.80662V19.6132V29.4199H18.3938V24.3029C18.3938 24.1841 18.3588 24.0773 18.312 23.9942C18.312 23.9823 18.1952 23.8161 18.1601 23.733C17.9264 23.3056 17.7979 22.8069 17.7979 22.2727V18.7466V8.83309V4.90331L14.7829 3.06309V20.848L14.7945 21.1448C14.7945 21.1923 14.8062 21.2398 14.8179 21.2873C14.9114 21.8215 15.1802 22.2845 15.5658 22.6288C15.5892 22.6526 15.7177 22.7832 15.7177 22.7832L17.494 24.0417C17.6693 24.1485 17.7979 24.3385 17.7979 24.5641C17.7979 24.5997 17.7979 24.9083 17.7979 24.9083V26.9623V29.4199H16.898V24.5284C16.898 24.3622 16.8279 24.2079 16.7227 24.0892C16.676 24.0417 16.1735 23.6974 16.1735 23.6974L15.3087 23.0919C15.2152 23.0325 15.1334 22.9731 15.04 22.9019L14.9114 22.7832C14.2804 22.2252 13.883 21.406 13.883 20.4799C13.883 20.4681 13.883 13.5346 13.883 13.5346V7.34903L10.8563 5.50881V19.7557C10.8563 19.7795 10.8563 19.9101 10.8563 19.9101C10.8797 20.6224 11.2186 21.2398 11.7445 21.6434L11.8146 21.7028C11.873 21.7503 11.9431 21.7859 12.0133 21.8334L15.7528 24.2435L15.9748 24.386C16.1618 24.4928 16.2904 24.6828 16.2904 24.9202V26.7961V29.4199H15.3905V24.9558C15.3905 24.7421 15.2854 24.5641 15.1218 24.4453C15.1101 24.4335 14.666 24.1485 14.666 24.1485L11.3939 22.0471C10.5174 21.4891 9.95652 20.5274 9.95652 19.4352C9.95652 19.3521 9.95652 19.1858 9.95652 19.1858V12.2761V9.80662L6.94152 7.9664V18.8178C6.94152 18.8415 6.94152 18.8653 6.94152 18.889C6.94152 19.6251 7.2921 20.2781 7.81797 20.7055C7.81797 20.7055 8.11012 20.9073 8.12181 20.9073L14.2453 24.659L14.4907 24.8134C14.6543 24.9202 14.7712 25.1102 14.7712 25.3239V26.9029V29.4199H13.8597V25.3595C13.848 25.1577 13.7428 24.9796 13.5909 24.8727C13.5792 24.8609 13.3221 24.7065 13.3221 24.7065L7.61931 21.216C6.67274 20.6936 6.03 19.6845 6.03 18.5091C6.03 18.4735 6.03 18.4379 6.04169 18.4023H6.03V12.2523L3.015 10.4121V17.868L3.02669 17.8799C3.08512 18.6041 3.47076 19.2452 4.04337 19.6251C4.05506 19.637 4.12518 19.6845 4.12518 19.6845L11.9899 24.4928L12.9481 25.0746C13.1351 25.1814 13.2637 25.3832 13.2637 25.6088C13.2637 25.6326 13.2637 25.6919 13.2637 25.6919V28.1733V29.3961H9.64099H2.10349C0.94657 29.3961 0 28.4345 0 27.2591V19.6014V9.80662V2.13704C0 0.961666 0.94657 0 2.11518 0Z" fill="#434041"/>
<path fill-rule="evenodd" clip-rule="evenodd" d="M49.0669 22.0596H143.922C144.331 22.0596 144.752 22.2733 144.752 22.5226V26.4405C144.752 26.6898 144.343 26.9629 143.922 26.9629H49.0669C48.5995 26.9629 48.2489 26.7017 48.2489 26.4405V22.5226C48.2489 22.2733 48.5995 22.0596 49.0669 22.0596Z" fill="#434041"/>
<path d="M61.448 17.6068C60.5248 18.1054 59.438 18.4023 58.2578 18.4023C56.8788 18.4023 55.6518 18.058 54.5766 17.405C53.4898 16.7045 52.6601 15.7547 52.1226 14.5556C51.585 13.309 51.3396 11.8606 51.3396 10.1153C51.3396 8.07325 51.6318 6.37549 52.181 4.97455C52.7653 3.5736 53.5483 2.57632 54.5416 1.93521C55.5232 1.29409 56.6451 0.985411 57.8721 0.985411C59.3446 0.985411 60.5833 1.38907 61.6117 2.23202C62.6868 3.07496 63.4697 4.4759 64.0657 6.37549H64.463L64.054 0H63.5632C63.4697 0.451152 63.2711 0.795452 63.0724 1.04477C62.8737 1.19911 62.6751 1.29409 62.4297 1.29409C62.231 1.29409 61.9856 1.19911 61.6 0.997284C60.2678 0.356173 58.994 0 57.6267 0C55.9089 0 54.3312 0.451152 52.8588 1.29409C51.4331 2.13704 50.3112 3.38364 49.4698 4.92706C48.6284 6.51796 48.2428 8.21572 48.2428 10.1153C48.2428 12.4542 48.8271 14.4487 50.1009 16.1465C51.772 18.4379 54.1793 19.5895 57.2177 19.5895C58.9355 19.5895 60.408 19.1858 61.635 18.4379C62.8621 17.6424 63.9489 16.4433 64.8721 14.8049L64.428 14.5556C63.3646 16.0634 62.3362 17.0607 61.448 17.6068Z" fill="#434041"/>
<path d="M75.7869 0C75.6934 0 75.635 0 75.5882 0C73.2277 0.0474897 71.2177 0.842942 69.5466 2.44572C67.5366 4.33344 66.5549 6.77915 66.5549 9.77101C66.5549 12.656 67.3963 15.0542 69.1609 16.847C70.8788 18.6872 72.9939 19.5895 75.5415 19.5895H75.5882C78.0891 19.5895 80.2042 18.6397 81.9688 16.7401C83.7334 14.9474 84.6683 12.5492 84.6683 9.71164C84.6683 6.92162 83.7919 4.61837 82.0156 2.77815C80.251 0.949794 78.1826 0 75.7869 0ZM79.8069 16.5502C78.7318 17.8917 77.3061 18.5922 75.5882 18.5922H75.5415C73.9288 18.5922 72.5966 17.9986 71.615 16.7401C70.2945 15.1017 69.6517 12.751 69.6517 9.71164C69.6517 6.6723 70.2945 4.42841 71.5215 2.885C72.5499 1.63839 73.8704 0.985411 75.4948 0.985411C75.5415 0.985411 75.5882 0.985411 75.5882 0.985411C77.3061 1.0329 78.6851 1.63839 79.6667 2.885C80.8937 4.4759 81.5248 6.87413 81.5248 10.0678C81.5248 13.0597 80.9405 15.2086 79.8069 16.5502Z" fill="#434041"/>
<path d="M144.203 14.5101C143.607 15.6023 143.023 16.5046 142.439 17.0508C141.994 17.5019 141.55 17.7987 141.106 17.8937C140.616 18.0481 139.833 18.143 138.804 18.143H135.661C135.17 18.143 134.831 18.0955 134.632 18.0006C134.434 17.8937 134.34 17.7512 134.235 17.5494C134.188 17.4069 134.141 16.8489 134.141 16.0535V9.87983H138.22C139.003 9.87983 139.54 9.97481 139.938 10.1766C140.323 10.3785 140.58 10.6278 140.721 10.9246C140.873 11.2214 141.013 11.7675 141.118 12.7173H141.609V6.14002H141.118C141.071 7.23228 140.826 7.98024 140.335 8.3839C139.996 8.74008 139.307 8.88255 138.232 8.88255H134.153V1.45041H139.26C140.148 1.45041 140.791 1.55726 141.176 1.65224C141.621 1.85407 141.959 2.15088 142.205 2.49518C142.404 2.89884 142.649 3.53996 142.848 4.53724H143.385L143.14 0.453125H128.906V0.951767H129.549C130.332 0.951767 130.869 1.1536 131.208 1.4979C131.407 1.79471 131.547 2.49518 131.547 3.6943V15.8635C131.547 16.754 131.5 17.4188 131.407 17.7156C131.302 17.965 131.115 18.2143 130.811 18.3686C130.414 18.5586 129.981 18.6654 129.537 18.6654H128.894V19.2116H143.128L144.752 14.5219H144.203V14.5101Z" fill="#434041"/>
<path d="M127.762 4.59645C126.874 3.10052 125.705 2.05575 124.279 1.40277C123.391 0.999103 122.211 0.702292 120.844 0.559823C119.956 0.512333 119.021 0.464844 117.992 0.464844H110.432V0.951613H111.121C111.857 0.951613 112.348 1.15344 112.745 1.54523C112.991 1.84204 113.084 2.59001 113.084 3.74163V15.8634C113.084 16.9081 112.991 17.6086 112.792 17.9054C112.5 18.4041 111.916 18.6534 111.121 18.6534H110.432V19.1995H118.682C119.465 19.1995 120.154 19.152 120.844 19.0452C123.403 18.7009 125.355 17.7986 126.734 16.2552C128.299 14.5099 129.082 12.3729 129.082 9.72533C129.082 7.77826 128.638 6.09237 127.762 4.59645ZM123.882 15.9584C122.994 16.9081 121.966 17.5493 120.844 17.9054C120.154 18.1073 119.418 18.2022 118.635 18.2022C117.852 18.2022 116.871 18.0598 115.737 17.7986V1.90141C116.777 1.6046 117.7 1.49774 118.542 1.49774C119.371 1.49774 120.108 1.6046 120.844 1.79456C122.024 2.13886 123.006 2.79184 123.882 3.74163C125.249 5.23756 125.939 7.27961 125.939 9.87967C125.939 12.4679 125.249 14.5099 123.882 15.9584Z" fill="#434041"/>
<path d="M84.9998 0.453125V0.951767H85.6426C86.0867 0.951767 86.5307 1.04675 86.9164 1.29607C87.1618 1.43854 87.3604 1.64037 87.4539 1.88969C87.5474 2.19837 87.6409 2.79199 87.6409 3.74179V15.8635C87.6409 16.9677 87.5007 17.7156 87.302 18.0124C86.9631 18.4517 86.4139 18.6536 85.6309 18.6536H84.9882V19.1997H92.888V18.6536H92.2453C91.8012 18.6536 91.3571 18.5467 90.9715 18.3567C90.6793 18.1549 90.4807 17.9531 90.4339 17.7512C90.282 17.4069 90.2352 16.8015 90.2352 15.8517V9.97481H93.6242C94.2085 9.97481 94.711 10.0817 95.0032 10.2716C95.2954 10.426 95.5408 10.6753 95.7394 11.0196C95.9381 11.3639 96.0433 11.91 96.0433 12.6105H96.5224V6.28249H96.0433C95.8913 7.27977 95.6459 7.98024 95.307 8.32454C94.9564 8.66884 94.3721 8.82319 93.6359 8.82319H90.2469V1.45041H94.3254C95.307 1.45041 95.9965 1.55726 96.4406 1.74722C96.9314 1.90156 97.3171 2.19837 97.6209 2.64952C97.913 3.05319 98.2052 3.6943 98.4506 4.53724H98.9414L98.7428 0.453125H84.9998Z" fill="#434041"/>
<path d="M100.461 0.951767H101.092C101.537 0.951767 101.981 1.04675 102.366 1.29607C102.658 1.43854 102.857 1.64037 102.904 1.88969C103.056 2.1865 103.102 2.79199 103.102 3.72991V15.8517C103.102 16.9558 103.009 17.7038 102.764 18.0006C102.425 18.4398 101.875 18.6417 101.092 18.6417H100.461V19.1878H108.408V18.6417H107.718C107.286 18.6417 106.889 18.5348 106.491 18.3449C106.199 18.143 106.001 17.9412 105.907 17.7394C105.814 17.3951 105.708 16.7896 105.708 15.8398V3.74179C105.708 2.64952 105.849 1.90156 106.047 1.65224C106.386 1.1536 106.982 0.951767 107.718 0.951767H108.408V0.453125H100.461V0.951767Z" fill="#434041"/>
<path d="M0 34.2783H4.07843V35.3468H1.23872V36.6053H3.69279V37.6738H1.23872V39.0154H4.10181V40.0839H0V34.2783Z" fill="#434041"/>
<path d="M5.04712 34.2783H6.28584V39.0035H9.03206V40.0721H5.04712V34.2783Z" fill="#434041"/>
<path d="M11.6753 34.2783H14.3514C15.4616 34.2783 16.0809 34.8245 16.0809 35.7624C16.0809 36.2966 15.8355 36.7834 15.2512 37.0327V37.0565C15.894 37.2227 16.2329 37.7926 16.2329 38.4218C16.2329 39.4428 15.4499 40.0839 14.4566 40.0839H11.6753V34.2783ZM14.0826 36.6172C14.5734 36.6172 14.8539 36.356 14.8539 35.9405C14.8539 35.5131 14.5384 35.2993 14.0476 35.2993H12.914V36.6172H14.0826ZM14.1527 39.0392C14.6669 39.0392 14.9708 38.7661 14.9708 38.3031C14.9708 37.8519 14.6786 37.6145 14.1527 37.6145H12.9257V39.0392H14.1527V39.0392Z" fill="#434041"/>
<path d="M18.6042 34.2661H19.8663L21.9114 40.0717H20.6142L20.2286 38.9201H18.1251L17.7394 40.0717H16.5358L18.6042 34.2661ZM19.913 37.8753L19.1885 35.6671H19.1768L18.4523 37.8753H19.913Z" fill="#434041"/>
<path d="M22.5212 34.2783H23.7366L26.0504 37.8757H26.0621V34.2783H27.2424V40.0721H26.0621L23.7132 36.3916H23.7015V40.0721H22.5329V34.2783H22.5212Z" fill="#434041"/>
<path d="M28.1636 38.1252V36.3206C28.1636 34.9197 29.2387 34.1836 30.5008 34.1836C31.5993 34.1836 32.7445 34.7772 32.7445 36.0951V36.3206H31.5759V36.2019C31.5759 35.537 30.9916 35.2521 30.5125 35.2521C29.9983 35.2521 29.414 35.537 29.414 36.2731V38.0777C29.414 38.7189 29.9282 39.0869 30.5475 39.0869C31.0267 39.0869 31.5759 38.8138 31.5759 38.1252V38.0184H32.7445V38.244C32.7445 39.5618 31.6343 40.1554 30.5358 40.1554C29.2737 40.1673 28.1636 39.4906 28.1636 38.1252Z" fill="#434041"/>
<path d="M33.4803 38.1012V36.344C33.4803 34.9193 34.6373 34.1714 35.8176 34.1714C37.0796 34.1714 38.2015 34.9193 38.2015 36.3084V37.9943C38.2015 39.4427 37.0212 40.167 35.8526 40.167C34.6022 40.167 33.4803 39.5021 33.4803 38.1012ZM36.9628 38.0537V36.2609C36.9628 35.6198 36.4252 35.2518 35.8292 35.2518C35.3034 35.2518 34.7308 35.5367 34.7308 36.2965V38.0655C34.7308 38.7185 35.2449 39.0984 35.8643 39.0984C36.3785 39.0984 36.9628 38.7898 36.9628 38.0537Z" fill="#434041"/>
<path d="M41.0289 34.2783H43.3194C44.5698 34.2783 45.6099 35.0382 45.6099 36.356V37.9469C45.6099 39.3478 44.4997 40.0721 43.3428 40.0721H41.0289V34.2783V34.2783ZM43.2726 39.0035C43.7985 39.0035 44.3711 38.683 44.3711 37.9825V36.356C44.3711 35.7268 43.857 35.3468 43.2376 35.3468H42.2676V39.0035H43.2726Z" fill="#434041"/>
<path d="M46.5348 34.2783H50.6132V35.3468H47.7735V36.6053H50.2276V37.6738H47.7735V39.0154H50.6366V40.0839H46.5348V34.2783V34.2783Z" fill="#434041"/>
<path d="M53.5001 34.2783H55.7906C57.041 34.2783 58.0811 35.0382 58.0811 36.356V37.9469C58.0811 39.3478 56.9709 40.0721 55.814 40.0721H53.5118V34.2783H53.5001ZM55.7438 39.0035C56.2697 39.0035 56.8423 38.683 56.8423 37.9825V36.356C56.8423 35.7268 56.3165 35.3468 55.7088 35.3468H54.7388V39.0035H55.7438Z" fill="#434041"/>
<path d="M59.0063 34.2783H63.0848V35.3468H60.2451V36.6053H62.6992V37.6738H60.2451V39.0154H63.1082V40.0839H59.0063V34.2783Z" fill="#434041"/>
<path d="M63.5236 38.9207L64.4584 38.3152C64.7155 38.802 65.2531 39.1225 65.8725 39.1225C66.375 39.1225 66.8775 38.9326 66.8775 38.4695C66.8775 38.0778 66.5619 37.9115 66.1646 37.8047L65.1947 37.5435C64.4351 37.3535 63.8391 36.9499 63.8391 35.9763C63.8391 34.8841 64.7623 34.1836 65.9543 34.1836C66.9242 34.1836 67.5786 34.4685 68.011 35.2165L67.1229 35.8101C66.8658 35.3708 66.41 35.2046 65.9192 35.2046C65.4751 35.2046 65.0778 35.3827 65.0778 35.8339C65.0778 36.2138 65.4401 36.3562 65.8841 36.475L66.819 36.7243C67.5669 36.9143 68.1512 37.3654 68.1512 38.3271C68.1512 39.4906 67.1229 40.1554 65.9075 40.1554C64.8558 40.1554 63.9443 39.7992 63.5236 38.9207Z" fill="#434041"/>
<path d="M70.4675 34.2661H71.7179L73.7629 40.0717H72.4658L72.0918 38.9201H69.9884L69.6027 40.0717H68.399L70.4675 34.2661ZM71.7763 37.8753L71.0518 35.6671H71.0401L70.3156 37.8753H71.7763Z" fill="#434041"/>
<path d="M74.3876 34.2783H76.7598C77.94 34.2783 78.7464 34.9669 78.7464 36.1067C78.7464 36.7953 78.3958 37.4957 77.6479 37.7926L79.0151 40.0602H77.6479L76.4209 37.9588H75.638V40.0602H74.3993V34.2783H74.3876ZM76.5962 36.9615C77.1571 36.9615 77.5194 36.6647 77.5194 36.1304C77.5194 35.5368 77.1454 35.2993 76.5845 35.2993H75.6146V36.9615H76.5962Z" fill="#434041"/>
<path d="M79.7013 34.2783H82.0736C83.2539 34.2783 84.0602 34.9669 84.0602 36.1067C84.0602 36.7953 83.7096 37.4957 82.9617 37.7926L84.329 40.0602H82.9617L81.7347 37.9588H80.9517V40.0602H79.7013V34.2783ZM81.91 36.9615C82.4826 36.9615 82.8448 36.6647 82.8448 36.1304C82.8448 35.5368 82.4592 35.2993 81.91 35.2993H80.94V36.9615H81.91Z" fill="#434041"/>
<path d="M84.861 38.1012V36.344C84.861 34.9193 86.0179 34.1714 87.1981 34.1714C88.4602 34.1714 89.582 34.9193 89.582 36.3084V37.9943C89.582 39.4427 88.4018 40.167 87.2332 40.167C85.9711 40.167 84.861 39.5021 84.861 38.1012ZM88.3316 38.0537V36.2609C88.3316 35.6198 87.7941 35.2518 87.1981 35.2518C86.6723 35.2518 86.0997 35.5367 86.0997 36.2965V38.0655C86.0997 38.7185 86.6138 39.0984 87.2332 39.0984C87.7474 39.0984 88.3316 38.7898 88.3316 38.0537Z" fill="#434041"/>
<path d="M90.5121 34.2783H91.7508V39.0035H94.4853V40.0721H90.5121V34.2783Z" fill="#434041"/>
<path d="M95.2157 34.2783H96.4545V39.0035H99.2008V40.0721H95.2157V34.2783Z" fill="#434041"/>
<path d="M99.7418 38.1012V36.344C99.7418 34.9193 100.899 34.1714 102.079 34.1714C103.341 34.1714 104.463 34.9193 104.463 36.3084V37.9943C104.463 39.4427 103.283 40.167 102.126 40.167C100.852 40.167 99.7418 39.5021 99.7418 38.1012ZM103.213 38.0537V36.2609C103.213 35.6198 102.675 35.2518 102.079 35.2518C101.553 35.2518 100.981 35.5367 100.981 36.2965V38.0655C100.981 38.7185 101.495 39.0984 102.114 39.0984C102.628 39.0984 103.213 38.7898 103.213 38.0537Z" fill="#434041"/>
<path d="M107.276 34.2783H109.578C110.828 34.2783 111.857 35.0382 111.857 36.356V37.9469C111.857 39.3478 110.758 40.0721 109.59 40.0721H107.276V34.2783ZM109.531 39.0035C110.057 39.0035 110.63 38.683 110.63 37.9825V36.356C110.63 35.7268 110.104 35.3468 109.496 35.3468H108.526V39.0035H109.531Z" fill="#434041"/>
<path d="M112.799 34.2783H116.878V35.3468H114.038V36.6053H116.492V37.6738H114.038V39.0154H116.901V40.0839H112.799V34.2783V34.2783Z" fill="#434041"/>
<path d="M117.847 34.2783H119.085V39.0035H121.82V40.0721H117.847V34.2783Z" fill="#434041"/>
<path d="M124.457 34.2783H126.899C128.08 34.2783 128.863 34.9907 128.863 36.1185C128.863 37.0327 128.29 37.9706 126.946 37.9706H125.696V40.0602H124.457V34.2783V34.2783ZM126.724 36.9615C127.285 36.9615 127.647 36.6647 127.647 36.1304C127.647 35.5368 127.262 35.2993 126.712 35.2993H125.696V36.9615H126.724Z" fill="#434041"/>
<path d="M129.626 34.2783H133.704V35.3468H130.864V36.6053H133.318V37.6738H130.864V39.0154H133.727V40.0839H129.626V34.2783V34.2783Z" fill="#434041"/>
<path d="M134.673 34.2783H137.045C138.225 34.2783 139.032 34.9669 139.032 36.1067C139.032 36.7953 138.681 37.4957 137.933 37.7926L139.3 40.0602H137.933L136.706 37.9588H135.923V40.0602H134.684V34.2783H134.673ZM136.893 36.9615C137.454 36.9615 137.828 36.6647 137.828 36.1304C137.828 35.5368 137.442 35.2993 136.893 35.2993H135.923V36.9615H136.893Z" fill="#434041"/>
<path d="M139.939 38.0405V34.277H141.189V37.9337C141.189 38.6104 141.528 39.0734 142.265 39.0734C142.954 39.0734 143.316 38.6816 143.316 37.9337V34.277H144.555V37.9693C144.555 39.3821 143.573 40.1657 142.241 40.1657C140.851 40.1657 139.939 39.4652 139.939 38.0405ZM142.533 32.3062H143.737L142.674 33.7427H141.844L142.533 32.3062Z" fill="#434041"/>
</svg>
