<svg width="172" height="35" viewBox="0 0 172 35" fill="none" xmlns="http://www.w3.org/2000/svg">
<path d="M138.562 0.477051L142.462 0.487452V10.0878C142.691 11.3151 144.251 11.6064 145.864 11.5544C147.528 11.5544 149.223 11.4192 149.535 10.2646V0.477051H153.768V13.9883C153.768 13.9883 153.383 17.3271 149.993 17.3895H142.286C141.152 17.4935 138.77 16.2453 138.572 13.6762L138.562 0.477051Z" fill="#474546"/>
<path d="M167.733 11.7726C172.351 11.4814 172.923 1.2466 167.712 0.487305H163.094H155.293L155.324 17.4413L159.869 17.4309L159.838 12.2407H162.657L163.083 12.9168L165.944 17.4413L171.415 17.4309L167.733 11.7726ZM166.36 7.95539C166.36 8.27783 166.152 8.36104 165.517 8.38184H163.104H159.849V6.13518H163.104H165.465C166.183 6.10397 166.349 6.40561 166.36 6.63444C166.36 7.08169 166.36 7.51854 166.36 7.95539Z" fill="#474546"/>
<path d="M15.5938 6.10513V0.488466H3.78864C4.01747 0.488466 0.564328 0.322047 0.366709 3.97288V13.8645C0.366709 13.8645 0.335506 17.1408 3.76784 17.4009L15.625 17.4113V14.2181C12.4735 14.2181 9.31158 14.2285 6.16007 14.2285C5.96246 14.2285 4.67273 14.3429 4.64153 12.8139C4.64153 10.8793 4.65193 8.94467 4.65193 7.01004C4.67273 6.84362 4.64153 6.08433 6.00406 6.10513H15.5938Z" fill="#474546"/>
<path d="M29.4396 11.7624C34.0473 11.4712 34.6297 1.23634 29.4188 0.477051H24.8008H17L17.0312 17.4311L21.5764 17.4207L21.5556 12.2304H24.3743L24.8008 12.9065L27.661 17.4311L33.132 17.4207L29.4396 11.7624ZM28.0563 7.94514C28.0563 8.26758 27.8483 8.35079 27.2138 8.37159H24.8008H21.5452V6.13532H24.8008H27.1618C27.8795 6.10412 28.0459 6.40575 28.0563 6.63458C28.0563 7.07143 28.0563 7.50829 28.0563 7.94514Z" fill="#474546"/>
<path d="M34.2349 0.477051L38.1352 0.487452V10.0878C38.3641 11.3151 39.9242 11.6064 41.526 11.5544C43.2005 11.5544 44.8855 11.4192 45.1975 10.2646V0.477051H49.4307V13.9883C49.4307 13.9883 49.0459 17.3271 45.6552 17.3895H37.948C36.8143 17.4935 34.4325 16.2453 34.2453 13.6762L34.2349 0.477051Z" fill="#474546"/>
<path d="M51.0959 0.487747L66.0214 0.456543L66.0318 7.07173L58.2934 14.2486H66.0214V17.421L51.0959 17.4106V14.2486L60.3529 6.12522L51.0959 6.10441V0.487747Z" fill="#474546"/>
<path d="M84.5661 0.487305H80.6969H73.385V17.4205H80.6865H84.9613C85.2942 17.4517 87.8632 16.8172 88.0816 14.6538V4.26295C88.0816 4.26295 87.9568 0.830545 84.5661 0.487305ZM84.1709 12.8232C84.1605 13.7801 82.9747 14.1233 82.6939 14.1025H80.6865H77.2126V6.12477H80.6865H82.4963C84.0877 6.16638 84.1605 7.90339 84.1605 7.90339L84.1709 12.8232Z" fill="#474546"/>
<path d="M90.1487 0.477051V17.4311H101.527V14.2691H93.7058V11.3359H101.527V8.35079H93.7162V6.13532H101.517V0.477051H90.1487Z" fill="#474546"/>
<path d="M102.776 0.519543V17.4215H114.883V11.1704H106.708V0.477938C106.708 0.477938 102.776 0.457135 102.776 0.519543Z" fill="#474546"/>
<path d="M136.568 0.46682V6.14589H128.06C127.03 6.33312 128.33 7.31083 128.528 7.63327L135.237 13.7388C136.391 14.9037 136.557 17.5457 133.708 17.4H121.403V14.7581H129.246L121.861 7.97651C119.219 3.79522 122.88 0.321203 125.449 0.46682H136.568Z" fill="#474546"/>
<path d="M72.8494 24.7536V25.1072C72.8494 25.5961 72.839 26.0641 72.8182 26.5114C72.423 26.449 72.0693 26.4178 71.7573 26.4178C71.6325 26.4178 71.5077 26.4178 71.3829 26.4282C71.0916 26.449 70.8108 26.501 70.5508 26.5842C70.1763 26.6882 69.8331 26.8858 69.5419 27.1458C69.2403 27.4059 69.001 27.7595 68.8346 28.186C68.6578 28.6124 68.5746 29.0493 68.5746 29.4965C68.5746 29.819 68.6162 30.1414 68.7202 30.443C68.8138 30.7447 68.9698 31.0047 69.1674 31.2231C69.3755 31.4416 69.6147 31.608 69.9059 31.7328C70.1971 31.8576 70.4988 31.9096 70.8316 31.9096C71.0188 31.9096 71.206 31.8888 71.3829 31.8472L71.4037 31.8368C71.5909 31.7952 71.7573 31.7224 71.9237 31.6288C72.0797 31.5352 72.2149 31.4416 72.3294 31.3375C72.4334 31.2231 72.5686 31.0775 72.7142 30.8799L72.6726 31.7744C72.9742 31.764 73.2134 31.764 73.3798 31.764C73.5463 31.764 73.7647 31.764 74.0455 31.7744C74.0455 30.9631 74.0767 29.8086 74.1495 28.3004C74.2119 26.8026 74.2847 25.6169 74.3679 24.7432C74.0871 24.7536 73.8375 24.7536 73.6191 24.7536C73.4215 24.764 73.1822 24.764 72.8494 24.7536ZM72.6934 29.0285C72.6518 29.3925 72.5894 29.6838 72.5062 29.9022C72.4126 30.1206 72.3086 30.3078 72.1837 30.443C72.0589 30.5783 71.9133 30.6823 71.7677 30.7551C71.6533 30.8071 71.5181 30.8383 71.3829 30.8487C71.3413 30.8487 71.2997 30.8591 71.258 30.8591C71.0084 30.8591 70.7796 30.7967 70.582 30.6719C70.374 30.5471 70.2283 30.3702 70.1451 30.1518C70.0515 29.9334 69.9995 29.6942 69.9995 29.4237C69.9995 29.1637 70.0515 28.8829 70.1555 28.602C70.2595 28.3212 70.4052 28.082 70.5924 27.9051C70.7796 27.7283 70.998 27.5931 71.2476 27.5203C71.2892 27.5099 71.3309 27.4995 71.3829 27.4787C71.5909 27.4267 71.7989 27.4059 72.0277 27.4059C72.2669 27.4059 72.5166 27.4371 72.7766 27.5099C72.7454 28.2484 72.7142 28.758 72.6934 29.0285Z" fill="#474546"/>
<path d="M60.5383 26.9791C60.3199 26.7815 60.0599 26.6359 59.7374 26.5527C59.4254 26.4591 59.0926 26.4175 58.7389 26.4175C58.6973 26.4175 58.6557 26.4175 58.6245 26.4175C58.2917 26.4279 57.9797 26.4799 57.678 26.5735C57.3348 26.6775 57.0332 26.8543 56.7731 27.1144C56.5027 27.364 56.3051 27.6864 56.1491 28.0921C55.9931 28.4977 55.9307 28.9034 55.9307 29.3194C55.9307 29.7043 55.9931 30.0683 56.1179 30.4116C56.2427 30.7548 56.4403 31.0564 56.7107 31.2853C56.9812 31.5245 57.2828 31.6909 57.6468 31.7741C57.9381 31.8469 58.2709 31.8885 58.6245 31.9093C58.6973 31.9093 58.7701 31.9197 58.8533 31.9197C59.1134 31.9197 59.363 31.8989 59.623 31.8781C59.8727 31.8469 60.1847 31.7949 60.5591 31.7117C60.6423 31.1812 60.7047 30.8276 60.7463 30.6196C60.3719 30.7444 60.0391 30.8276 59.7686 30.8796C59.4982 30.9316 59.2382 30.9524 58.999 30.9524C58.8846 30.9524 58.7597 30.942 58.6349 30.9212C58.5517 30.9108 58.4685 30.89 58.3853 30.8588C58.1773 30.7964 58.0005 30.7028 57.8445 30.5676C57.6988 30.4324 57.574 30.2659 57.5012 30.0787C57.418 29.8915 57.3868 29.6731 57.3868 29.4442C57.3868 29.3714 57.3868 29.2674 57.3972 29.1426H58.6453H61.1728C61.204 28.9762 61.2248 28.7994 61.2248 28.6433C61.2248 28.3001 61.1728 27.9881 61.0584 27.7072C60.9232 27.416 60.7567 27.1768 60.5383 26.9791ZM58.6245 28.5393H57.418C57.4492 28.3729 57.4908 28.2377 57.522 28.1441C57.5532 28.0401 57.6052 27.9465 57.678 27.8424C57.7508 27.7384 57.8341 27.6344 57.9485 27.5512C58.0629 27.468 58.1877 27.3952 58.3229 27.3536C58.4165 27.3224 58.5205 27.3016 58.6245 27.2912C58.6661 27.2912 58.7077 27.2808 58.7493 27.2808C58.8742 27.2808 58.9886 27.2912 59.0926 27.3224C59.1966 27.3536 59.3006 27.3952 59.3734 27.4472C59.4566 27.4992 59.5294 27.5616 59.5918 27.6344C59.6542 27.7176 59.7062 27.8008 59.7374 27.9049C59.779 28.0089 59.7998 28.1025 59.8102 28.1753C59.8206 28.2585 59.8206 28.3729 59.8206 28.5393H58.6245Z" fill="#474546"/>
<path d="M52.6512 27.9775C52.8073 27.8111 52.9841 27.6863 53.1921 27.6031C53.4001 27.5199 53.6185 27.4887 53.8578 27.4887C54.2322 27.4887 54.6794 27.5719 55.1995 27.7487L55.1163 26.6254C54.7938 26.5421 54.513 26.4901 54.2738 26.4693C54.0346 26.4381 53.8057 26.4277 53.5873 26.4277C53.1817 26.4277 52.8177 26.4693 52.4952 26.563C52.1624 26.6462 51.8712 26.823 51.6007 27.083C51.3303 27.3326 51.1223 27.6551 50.9871 28.0607C50.8519 28.456 50.7791 28.872 50.7791 29.3089C50.7791 29.6313 50.8207 29.9538 50.9039 30.2554C50.9871 30.557 51.1119 30.8275 51.2783 31.0459C51.4447 31.2643 51.6423 31.4307 51.8608 31.5659C52.0792 31.7012 52.3184 31.7948 52.5784 31.8468C52.8385 31.8988 53.0985 31.9196 53.3793 31.9196C53.8578 31.9196 54.3362 31.8572 54.825 31.7428C54.8667 31.4723 54.8979 31.2539 54.9291 31.0771C54.9603 30.9003 54.9915 30.7338 55.0123 30.5986C54.7626 30.6922 54.5234 30.7547 54.305 30.7859C54.0866 30.8275 53.8994 30.8483 53.7433 30.8483C53.4313 30.8483 53.1505 30.7859 52.9009 30.6506C52.6512 30.5258 52.4744 30.3386 52.3808 30.0994C52.2768 29.8601 52.2248 29.5793 52.2248 29.2569C52.2248 29.028 52.256 28.7992 52.3184 28.5704C52.3912 28.3416 52.5056 28.1439 52.6512 27.9775Z" fill="#474546"/>
<path d="M27.1175 24.7659C26.1918 24.7659 25.3077 24.7659 24.4653 24.7555V25.4524L24.4028 27.5222L24.2884 29.8001L24.1428 31.7764L25.1621 31.766L26.8575 31.7556C27.5752 31.7556 28.376 31.7556 29.2705 31.766C29.2809 31.4123 29.3121 31.0379 29.3433 30.6426L28.5945 30.6738L27.4815 30.6946C26.8887 30.705 26.5143 30.705 26.3478 30.705L25.7862 30.6946L25.8694 28.7704C26.4727 28.7496 26.9823 28.7392 27.3879 28.7392C27.5232 28.7392 28.0432 28.7392 28.9585 28.76C28.9793 28.3231 29.0001 27.9487 29.0313 27.6367C28.2512 27.6575 27.6896 27.6679 27.3671 27.6679C26.8887 27.6679 26.4102 27.6679 25.9422 27.6575L26.0254 25.8268C26.3374 25.8164 26.5767 25.8164 26.7327 25.8164C26.8887 25.8164 27.2319 25.8164 27.7728 25.8164C28.0224 25.8164 28.2616 25.8164 28.5008 25.8164C28.7401 25.8164 28.9169 25.8268 29.0625 25.8268L29.5514 25.858L29.6138 24.7451H28.1264L27.1175 24.7659Z" fill="#474546"/>
<path d="M30.8276 24.7539C30.8068 25.846 30.7652 27.1462 30.6923 28.6544C30.6195 30.1625 30.5571 31.2027 30.5051 31.7851C30.9628 31.7747 31.2228 31.7747 31.2956 31.7747C31.4932 31.7747 31.7324 31.7747 32.0133 31.7851L32.0341 30.8282L32.2109 26.6365L32.3357 24.7539C32.0445 24.7643 31.7949 24.7643 31.5972 24.7643C31.4412 24.7643 31.1812 24.7643 30.8276 24.7539Z" fill="#474546"/>
<path d="M48.8067 26.5527C48.4946 26.4695 48.141 26.4175 47.7666 26.4175C47.4337 26.4175 47.0905 26.4383 46.7265 26.4799C46.3728 26.5215 45.9568 26.6047 45.4887 26.7087C45.4575 26.9063 45.4367 27.0624 45.4263 27.1664C45.4159 27.2704 45.3847 27.4368 45.3327 27.6864C46.0816 27.3848 46.7785 27.2392 47.4025 27.2392C47.569 27.2392 47.725 27.26 47.8602 27.2912C48.0058 27.3432 48.1202 27.4056 48.2138 27.4992C48.297 27.5928 48.3386 27.7072 48.3386 27.8425C48.3386 27.9049 48.3282 27.9777 48.297 28.0401C48.2762 28.1025 48.2242 28.1649 48.1618 28.2273C48.0994 28.2897 48.0266 28.3313 47.9434 28.3729C47.8602 28.4145 47.7458 28.4457 47.6106 28.4873C47.4753 28.5289 47.3297 28.5601 47.2049 28.5913C46.7161 28.6954 46.3208 28.7994 46.0192 28.9034C45.728 29.0074 45.4991 29.1114 45.3327 29.2258C45.1767 29.3402 45.0415 29.4546 44.9479 29.5691C44.8439 29.6835 44.7711 29.8187 44.7191 29.9643C44.6671 30.1099 44.6359 30.2555 44.6359 30.4012C44.6359 30.6612 44.7087 30.9108 44.8335 31.1708C44.9687 31.4205 45.1767 31.6077 45.4471 31.7221C45.728 31.8469 46.0816 31.8989 46.508 31.8989C46.6329 31.8989 46.7681 31.8885 46.9137 31.8781C47.0593 31.8677 47.2569 31.8469 47.4961 31.8053C47.5898 31.4205 47.673 31.1292 47.7458 30.9316C47.5377 31.0044 47.3713 31.046 47.2465 31.0564C47.1321 31.0668 47.0073 31.0876 46.9033 31.0876C46.7369 31.0876 46.5809 31.0668 46.456 31.0252C46.3312 30.9836 46.2272 30.9108 46.144 30.8068C46.0608 30.7028 46.0192 30.578 46.0192 30.4324C46.0192 30.3387 46.04 30.2555 46.0712 30.1827C46.1024 30.1099 46.1544 30.0267 46.2272 29.9643C46.3 29.8915 46.3936 29.8291 46.4976 29.7771C46.6017 29.7147 46.7265 29.6731 46.8513 29.6211C46.9761 29.5795 47.1529 29.5274 47.3713 29.465C47.5898 29.4026 47.7354 29.361 47.829 29.3298C47.9122 29.2986 47.9954 29.2674 48.0682 29.2362C48.1306 29.205 48.2346 29.1426 48.3594 29.0594L48.297 30.3387C48.2658 30.8796 48.2346 31.3685 48.1826 31.7845C48.4634 31.7741 48.7131 31.7741 48.9211 31.7741C49.1395 31.7741 49.3787 31.7741 49.6388 31.7845C49.6492 30.9316 49.6804 30.0995 49.7324 29.2986C49.7844 28.4977 49.8156 27.9985 49.8156 27.8008C49.8156 27.4472 49.722 27.1664 49.5451 26.9687C49.3683 26.7815 49.1187 26.6463 48.8067 26.5527Z" fill="#474546"/>
<path d="M40.9065 25.1911C40.7297 25.0246 40.5217 24.9102 40.2824 24.8374C40.0536 24.775 39.7104 24.7334 39.2423 24.7334C39.0135 24.7334 38.7015 24.7438 38.3166 24.7542C37.9214 24.7646 37.6198 24.7646 37.4014 24.7646C37.1309 24.7646 36.7773 24.7646 36.33 24.7542C36.33 25.0246 36.3404 25.2223 36.3404 25.3575C36.3404 25.5343 36.3405 25.7215 36.33 25.8983L36.2676 27.8642L36.1324 30.5685L36.0388 31.7854C36.4549 31.775 36.7149 31.775 36.8085 31.775L37.5574 31.7854C37.5574 31.5462 37.5574 31.3694 37.5574 31.2446C37.5574 30.9221 37.5678 30.4125 37.5886 29.7052L37.651 27.7394C37.6718 27.1257 37.703 26.4808 37.7446 25.8047C37.9006 25.8047 38.067 25.8047 38.2646 25.7943C38.4623 25.7839 38.6495 25.7839 38.8471 25.7839C39.0655 25.7839 39.2319 25.8047 39.3567 25.8255C39.4816 25.8463 39.5856 25.8983 39.6792 25.9711C39.7728 26.044 39.8456 26.1376 39.8976 26.2624C39.9496 26.3768 39.9704 26.512 39.9704 26.6576C39.9704 26.8969 39.908 27.1153 39.7832 27.3129C39.6584 27.5105 39.492 27.6457 39.2839 27.7394C39.0759 27.8226 38.8263 27.8642 38.5351 27.8642C38.327 27.8642 38.119 27.8434 37.9006 27.8018C38.0046 28.1138 38.0774 28.4466 38.1606 28.8107C38.4311 28.8523 38.6807 28.8835 38.9095 28.8835C39.3879 28.8835 39.8248 28.7899 40.2096 28.6131C40.6049 28.4362 40.9065 28.1658 41.1249 27.8018C41.3433 27.4377 41.4577 27.0425 41.4577 26.5952C41.4577 26.304 41.4057 26.0336 41.3017 25.7839C41.2185 25.5551 41.0833 25.3575 40.9065 25.1911Z" fill="#474546"/>
<path d="M42.4718 24.7539C42.451 25.846 42.4094 27.1462 42.3366 28.6544C42.2638 30.1625 42.2014 31.2027 42.1494 31.7851C42.6071 31.7747 42.8671 31.7747 42.9399 31.7747C43.1375 31.7747 43.3767 31.7747 43.6576 31.7851L43.6784 30.8282L43.8552 26.6365L43.98 24.7539C43.6888 24.7643 43.4391 24.7643 43.2415 24.7643C43.0855 24.7643 42.8255 24.7643 42.4718 24.7539Z" fill="#474546"/>
<path d="M65.0078 26.4277C64.8622 26.4277 64.7166 26.4485 64.571 26.4797C64.4358 26.5109 64.3006 26.563 64.1861 26.6254C64.0717 26.6878 63.9677 26.771 63.8741 26.8646C63.7805 26.9582 63.6661 27.0934 63.5413 27.2806L63.5621 26.5526C63.2709 26.563 63.042 26.563 62.8652 26.563C62.7196 26.563 62.4804 26.563 62.1579 26.5526C62.1683 26.823 62.1683 26.9894 62.1683 27.0414C62.1683 27.3326 62.1579 27.6343 62.1579 27.9255L62.1163 29.3505L61.9603 31.7948C62.262 31.7844 62.5116 31.7844 62.73 31.7844C62.9484 31.7844 63.1876 31.7844 63.4373 31.7948C63.4269 31.5451 63.4269 31.3475 63.4269 31.1811C63.4269 30.7651 63.4373 30.3386 63.4477 29.9017C63.4685 29.4753 63.4893 29.1633 63.5205 28.9864C63.5517 28.7576 63.5933 28.5704 63.6661 28.4248C63.7389 28.248 63.8429 28.0919 63.9677 27.9775C64.0925 27.8527 64.2277 27.7591 64.3838 27.7071C64.5398 27.6447 64.7166 27.6135 64.9142 27.6135C65.0806 27.6135 65.2574 27.6343 65.4655 27.6967C65.4343 27.2078 65.4135 26.8022 65.4135 26.4797C65.2887 26.4381 65.143 26.4277 65.0078 26.4277Z" fill="#474546"/>
<path d="M111.968 26.4277C111.822 26.4277 111.677 26.4485 111.531 26.4797C111.396 26.5109 111.261 26.563 111.146 26.6254C111.032 26.6878 110.928 26.771 110.834 26.8646C110.741 26.9582 110.626 27.0934 110.501 27.2806L110.532 26.5526C110.241 26.563 110.012 26.563 109.836 26.563C109.69 26.563 109.451 26.563 109.139 26.5526C109.149 26.823 109.149 26.9894 109.149 27.0414C109.149 27.3326 109.149 27.6343 109.139 27.9255L109.097 29.3505L108.952 31.7948C109.243 31.7844 109.503 31.7844 109.711 31.7844C109.929 31.7844 110.168 31.7844 110.428 31.7948C110.418 31.5451 110.418 31.3475 110.418 31.1811C110.418 30.7651 110.428 30.3386 110.439 29.9017C110.46 29.4753 110.48 29.1633 110.512 28.9864C110.543 28.7576 110.584 28.5704 110.657 28.4248C110.741 28.248 110.834 28.0919 110.959 27.9775C111.084 27.8527 111.219 27.7591 111.375 27.7071C111.531 27.6447 111.708 27.6135 111.905 27.6135C112.061 27.6135 112.249 27.6343 112.457 27.6967C112.425 27.2078 112.415 26.8022 112.415 26.4797C112.249 26.4381 112.103 26.4277 111.968 26.4277Z" fill="#474546"/>
<path d="M106.831 26.5527C106.508 26.4695 106.165 26.4175 105.791 26.4175C105.458 26.4175 105.115 26.4383 104.761 26.4799C104.407 26.5215 103.991 26.6047 103.523 26.7087C103.492 26.9063 103.471 27.0624 103.461 27.1664C103.45 27.2704 103.419 27.4368 103.378 27.6864C104.137 27.3848 104.823 27.2392 105.447 27.2392C105.614 27.2392 105.77 27.26 105.905 27.2912C106.04 27.3224 106.155 27.3848 106.248 27.4784C106.331 27.572 106.373 27.6864 106.373 27.8216C106.373 27.8841 106.363 27.9569 106.331 28.0193C106.3 28.0817 106.259 28.1441 106.196 28.2065C106.134 28.2689 106.061 28.3105 105.978 28.3521C105.895 28.3937 105.78 28.4249 105.635 28.4665C105.489 28.5081 105.364 28.5393 105.229 28.5705C104.74 28.6745 104.345 28.7786 104.043 28.8826C103.742 28.9866 103.513 29.0906 103.357 29.205C103.201 29.3194 103.076 29.4338 102.972 29.5483C102.868 29.6627 102.795 29.7979 102.743 29.9435C102.691 30.0891 102.67 30.2347 102.67 30.3804C102.67 30.6404 102.743 30.89 102.868 31.15C103.003 31.3997 103.201 31.5869 103.482 31.7013C103.762 31.8261 104.116 31.8781 104.542 31.8781C104.667 31.8781 104.803 31.8677 104.948 31.8573C105.094 31.8469 105.281 31.8261 105.531 31.7845C105.624 31.3997 105.707 31.1084 105.78 30.9108C105.572 30.9836 105.416 31.0252 105.291 31.0356C105.167 31.046 105.052 31.0668 104.938 31.0668C104.761 31.0668 104.615 31.046 104.49 31.0044C104.366 30.9628 104.251 30.89 104.168 30.786C104.085 30.682 104.043 30.5572 104.043 30.4116C104.043 30.3179 104.064 30.2347 104.095 30.1619C104.126 30.0891 104.178 30.0059 104.251 29.9435C104.324 29.8707 104.407 29.8083 104.522 29.7563C104.626 29.6939 104.75 29.6523 104.875 29.6003C105.011 29.5587 105.177 29.5066 105.395 29.4442C105.614 29.3818 105.759 29.3402 105.853 29.309C105.936 29.2778 106.009 29.2466 106.082 29.2154C106.144 29.1842 106.248 29.1218 106.373 29.0386L106.311 30.3179C106.29 30.8588 106.248 31.3477 106.196 31.7637C106.477 31.7533 106.727 31.7533 106.935 31.7533C107.153 31.7533 107.392 31.7533 107.652 31.7637C107.663 30.9108 107.694 30.0787 107.756 29.2778C107.808 28.4769 107.84 27.9777 107.84 27.78C107.84 27.4264 107.756 27.1456 107.569 26.9479C107.392 26.7815 107.143 26.6463 106.831 26.5527Z" fill="#474546"/>
<path d="M120.146 26.9791C119.927 26.7815 119.667 26.6359 119.345 26.5527C119.033 26.4591 118.7 26.4175 118.346 26.4175C118.305 26.4175 118.263 26.4175 118.221 26.4175C117.899 26.4279 117.577 26.4799 117.275 26.5735C116.932 26.6775 116.63 26.8543 116.36 27.1144C116.089 27.364 115.881 27.6864 115.736 28.0921C115.59 28.4873 115.517 28.9034 115.517 29.3194C115.517 29.7043 115.58 30.0683 115.704 30.4116C115.829 30.7548 116.027 31.0564 116.297 31.2853C116.568 31.5245 116.88 31.6909 117.233 31.7741C117.525 31.8469 117.857 31.8885 118.211 31.9093C118.284 31.9093 118.367 31.9197 118.44 31.9197C118.7 31.9197 118.95 31.8989 119.21 31.8781C119.47 31.8469 119.771 31.7949 120.146 31.7117C120.229 31.1812 120.291 30.8276 120.333 30.6196C119.948 30.7444 119.626 30.8276 119.345 30.8796C119.064 30.9316 118.814 30.9524 118.575 30.9524C118.45 30.9524 118.336 30.942 118.211 30.9212C118.128 30.9108 118.045 30.89 117.961 30.8588C117.753 30.7964 117.577 30.7028 117.421 30.5676C117.275 30.4324 117.15 30.2659 117.077 30.0787C117.005 29.8915 116.963 29.6731 116.963 29.4442C116.963 29.3714 116.963 29.2674 116.973 29.1426H118.221H120.749C120.78 28.9762 120.801 28.7994 120.801 28.6433C120.801 28.3001 120.739 27.9881 120.624 27.7072C120.531 27.416 120.364 27.1768 120.146 26.9791ZM118.232 28.5393H117.025C117.057 28.3729 117.088 28.2377 117.129 28.1441C117.171 28.0401 117.223 27.9465 117.285 27.8424C117.358 27.7384 117.441 27.6344 117.556 27.5512C117.67 27.468 117.795 27.3952 117.93 27.3536C118.024 27.3224 118.128 27.3016 118.221 27.2912C118.263 27.2912 118.305 27.2808 118.346 27.2808C118.471 27.2808 118.586 27.2912 118.7 27.3224C118.804 27.3536 118.898 27.3952 118.981 27.4472C119.064 27.4992 119.137 27.5616 119.199 27.6344C119.262 27.7176 119.314 27.8008 119.345 27.9049C119.376 28.0089 119.407 28.1025 119.418 28.1753C119.428 28.2585 119.438 28.3729 119.438 28.5393H118.232Z" fill="#474546"/>
<path d="M127.171 27.4575C127.119 27.2598 127.005 27.083 126.828 26.9062C126.662 26.7398 126.433 26.615 126.152 26.5421C125.871 26.4693 125.58 26.4277 125.278 26.4277C125.091 26.4277 124.904 26.4485 124.727 26.4693C124.55 26.5005 124.394 26.5421 124.249 26.5942C124.103 26.6462 123.968 26.719 123.843 26.8022C123.718 26.8958 123.614 26.979 123.531 27.0622C123.448 27.1558 123.354 27.2702 123.25 27.4263L123.313 26.5526C123.063 26.563 122.824 26.563 122.605 26.563C122.418 26.563 122.168 26.563 121.846 26.5526C121.836 27.3222 121.804 28.1959 121.752 29.1633C121.7 30.1306 121.638 31.0147 121.555 31.7948C121.867 31.7844 122.127 31.7844 122.345 31.7844C122.564 31.7844 122.793 31.7844 123.063 31.7948C123.084 30.9731 123.115 30.3074 123.146 29.8185C123.188 29.2673 123.24 28.872 123.323 28.6328C123.396 28.404 123.5 28.2167 123.635 28.0607C123.77 27.9151 123.916 27.8007 124.103 27.7175C124.28 27.6343 124.467 27.6031 124.675 27.6031C124.883 27.6031 125.081 27.6447 125.258 27.7279C125.434 27.8111 125.57 27.9359 125.653 28.1023C125.736 28.2688 125.778 28.4872 125.778 28.7576C125.778 28.9968 125.757 29.4961 125.715 30.2346C125.674 30.9835 125.642 31.5035 125.611 31.7948C125.871 31.7844 126.142 31.7844 126.402 31.7844C126.589 31.7844 126.828 31.7844 127.099 31.7948C127.099 31.4411 127.109 31.1083 127.13 30.7963L127.234 28.5496C127.244 28.3416 127.244 28.1959 127.244 28.1023C127.244 27.8735 127.223 27.6551 127.171 27.4575Z" fill="#474546"/>
<path d="M100.453 24.6704C100.443 24.9512 100.432 25.2841 100.411 25.6377C100.661 25.6273 100.911 25.6273 101.16 25.6273C101.389 25.6273 101.639 25.6273 101.899 25.6377C101.909 25.3361 101.92 25.1801 101.92 25.1593L101.951 24.6704C101.701 24.6808 101.452 24.6808 101.212 24.6808C100.932 24.6808 100.682 24.6808 100.453 24.6704Z" fill="#474546"/>
<path d="M91.603 26.5537C91.5926 27.1986 91.5718 27.8851 91.551 28.6028C91.5302 29.3204 91.499 29.9549 91.4574 30.5062C91.4366 30.8494 91.395 31.2863 91.343 31.7959C91.7071 31.7855 91.9775 31.7855 92.1543 31.7855C92.3415 31.7855 92.5911 31.7855 92.9136 31.7959C92.9136 31.3903 92.9136 30.8286 92.9344 30.1317C92.9448 29.4245 92.9656 28.8108 92.9968 28.2699C93.028 27.729 93.0696 27.157 93.1112 26.5641C92.768 26.5745 92.5183 26.5745 92.3623 26.5745C92.1959 26.5537 91.9463 26.5537 91.603 26.5537Z" fill="#474546"/>
<path d="M89.6148 24.7539C89.5108 25.0035 89.438 25.1908 89.386 25.2948C89.3444 25.4092 89.2924 25.5132 89.2404 25.6068L87.6178 28.9976C87.3994 29.4449 87.2642 29.7465 87.1914 29.9025L86.9106 30.5266C86.7962 30.1417 86.6922 29.8193 86.6194 29.5801L85.3816 25.8044C85.3192 25.6068 85.2672 25.4508 85.236 25.326L85.08 24.7539C84.716 24.7643 84.4663 24.7643 84.3207 24.7643C84.0815 24.7643 83.7903 24.7643 83.4366 24.7539L84.3519 27.3022L85.3504 30.1521C85.548 30.7242 85.6625 31.0467 85.6937 31.1403L85.8913 31.7851C86.3905 31.7747 86.7026 31.7747 86.8378 31.7747C86.9834 31.7747 87.285 31.7747 87.7323 31.7851L88.0339 31.1403L90.8526 25.5756L91.2998 24.7539C90.8734 24.7643 90.6133 24.7643 90.4885 24.7643C90.2701 24.7643 89.9893 24.7643 89.6148 24.7539Z" fill="#474546"/>
<path d="M79.7801 26.9791C79.5617 26.7815 79.3017 26.6359 78.9793 26.5527C78.6672 26.4591 78.3344 26.4175 77.9808 26.4175C77.9392 26.4175 77.8976 26.4175 77.8664 26.4175C77.5335 26.4279 77.2215 26.4799 76.9199 26.5735C76.587 26.6775 76.2854 26.8543 76.015 27.1144C75.7445 27.364 75.5365 27.6864 75.3909 28.0921C75.2453 28.4873 75.1725 28.9034 75.1725 29.3194C75.1725 29.7043 75.2349 30.0683 75.3597 30.4116C75.4949 30.7548 75.6821 31.0564 75.9526 31.2853C76.223 31.5245 76.535 31.6909 76.8887 31.7741C77.1799 31.8469 77.5127 31.8885 77.8664 31.9093C77.9392 31.9093 78.012 31.9197 78.0952 31.9197C78.3552 31.9197 78.6048 31.8989 78.8649 31.8781C79.1145 31.8469 79.4265 31.7949 79.8009 31.7117C79.8842 31.1812 79.9466 30.8276 79.9882 30.6196C79.6033 30.7444 79.2809 30.8276 79.0001 30.8796C78.7192 30.9316 78.4696 30.9524 78.2304 30.9524C78.1056 30.9524 77.9912 30.942 77.8664 30.9212C77.7831 30.9108 77.6999 30.89 77.6167 30.8588C77.4087 30.7964 77.2319 30.7028 77.0759 30.5676C76.9199 30.4324 76.8055 30.2659 76.7222 30.0787C76.6494 29.8915 76.6078 29.6731 76.6078 29.4442C76.6078 29.3714 76.6078 29.2674 76.6182 29.1426H77.8664H80.3938C80.425 28.9762 80.4458 28.7994 80.4458 28.6433C80.4458 28.3001 80.3938 27.9881 80.2794 27.7072C80.1546 27.416 79.9882 27.1768 79.7801 26.9791ZM77.8664 28.5393H76.6598C76.691 28.3729 76.7222 28.2377 76.7638 28.1441C76.795 28.0401 76.8471 27.9465 76.9199 27.8424C76.9927 27.7384 77.0863 27.6344 77.2007 27.5512C77.3151 27.468 77.4399 27.3952 77.5751 27.3536C77.6687 27.3224 77.7727 27.3016 77.8767 27.2912C77.9184 27.2912 77.96 27.2808 78.0016 27.2808C78.1264 27.2808 78.2408 27.2912 78.3552 27.3224C78.4592 27.3536 78.5528 27.3952 78.636 27.4472C78.7192 27.4992 78.792 27.5616 78.8544 27.6344C78.9169 27.7176 78.9585 27.8008 79.0001 27.9049C79.0417 28.0089 79.0625 28.1025 79.0729 28.1753C79.0833 28.2585 79.0833 28.3729 79.0833 28.5393H77.8664Z" fill="#474546"/>
<path d="M100.379 26.5537V27.0218C100.379 27.3546 100.369 27.9995 100.338 28.9772C100.317 29.7261 100.296 30.371 100.265 30.9326C100.223 31.6607 100.192 32.1184 100.161 32.3056C100.119 32.4928 100.067 32.6488 99.9943 32.7736C99.9423 32.8465 99.9007 32.9193 99.8279 32.9713C99.7446 33.0441 99.6302 33.0961 99.5054 33.1377C99.3702 33.1793 99.235 33.2001 99.079 33.2001C98.9126 33.2001 98.7462 33.1793 98.5693 33.1481C98.4237 33.1169 98.2677 33.0753 98.1117 33.0233L98.1637 33.4705L98.2157 34.1362C98.3405 34.157 98.4549 34.1778 98.5693 34.1986C98.7566 34.2298 98.923 34.2506 99.079 34.2714C99.339 34.2922 99.5574 34.3026 99.7447 34.3026C100.046 34.3026 100.306 34.2714 100.535 34.2194C100.691 34.1778 100.837 34.1154 100.972 34.0322C101.097 33.9594 101.201 33.8762 101.284 33.7826C101.367 33.689 101.43 33.5849 101.482 33.4601C101.544 33.3249 101.586 33.1273 101.617 32.8777C101.638 32.6904 101.669 32.108 101.69 31.1511L101.762 28.8524L101.866 26.5537C101.575 26.5641 101.336 26.5641 101.138 26.5641C100.941 26.5537 100.691 26.5537 100.379 26.5537Z" fill="#474546"/>
<path d="M97.4004 31.7845C97.6812 31.7741 97.9308 31.7741 98.1389 31.7741C98.2741 31.7741 98.4197 31.7741 98.5861 31.7741C98.6797 31.7741 98.7733 31.7741 98.8669 31.7845C98.8773 30.9316 98.9085 30.0995 98.9605 29.2986C99.0125 28.4977 99.0437 27.9985 99.0437 27.8008C99.0437 27.4472 98.9605 27.1664 98.7733 26.9687C98.7213 26.9063 98.6485 26.8543 98.5861 26.8023C98.4301 26.6983 98.2533 26.6151 98.0348 26.5527C97.7228 26.4695 97.3692 26.4175 96.9947 26.4175C96.6619 26.4175 96.3187 26.4383 95.9546 26.4799C95.601 26.5215 95.185 26.6047 94.7169 26.7087C94.6857 26.9063 94.6649 27.0624 94.6545 27.1664C94.6441 27.2704 94.6129 27.4368 94.5609 27.6864C95.3202 27.3848 96.0067 27.2392 96.6307 27.2392C96.7971 27.2392 96.9531 27.26 97.0884 27.2912C97.2236 27.3224 97.338 27.3848 97.4316 27.4784C97.5148 27.572 97.5564 27.6864 97.5564 27.8216C97.5564 27.8841 97.546 27.9569 97.5148 28.0193C97.4836 28.0817 97.442 28.1441 97.3796 28.2065C97.3172 28.2689 97.2444 28.3105 97.1612 28.3521C97.078 28.3937 96.9635 28.4249 96.8283 28.4665C96.6827 28.5081 96.5579 28.5393 96.4227 28.5705C95.9338 28.6745 95.5386 28.7786 95.237 28.8826C94.9457 28.9866 94.7065 29.0906 94.5505 29.205C94.3945 29.3194 94.2593 29.4338 94.1657 29.5483C94.0617 29.6627 93.9889 29.7979 93.9368 29.9435C93.8848 30.0891 93.8536 30.2347 93.8536 30.3804C93.8536 30.6404 93.916 30.89 94.0513 31.15C94.1761 31.3997 94.3841 31.5869 94.6649 31.7013C94.9458 31.8261 95.2994 31.8781 95.7362 31.8781C95.861 31.8781 95.9962 31.8677 96.1315 31.8573C96.2771 31.8469 96.4747 31.8261 96.7139 31.7845C96.8075 31.3997 96.8907 31.1084 96.9739 30.9108C96.7659 30.9836 96.5995 31.0252 96.4747 31.0356C96.3499 31.046 96.2355 31.0668 96.1315 31.0668C95.9546 31.0668 95.809 31.046 95.6842 31.0044C95.5594 30.9628 95.4554 30.89 95.3722 30.786C95.289 30.682 95.2474 30.5572 95.2474 30.4116C95.2474 30.3179 95.2682 30.2347 95.2994 30.1619C95.3306 30.0891 95.3826 30.0059 95.4554 29.9435C95.5282 29.8707 95.6114 29.8083 95.7154 29.7563C95.8194 29.6939 95.9442 29.6523 96.0691 29.6003C96.1939 29.5587 96.3707 29.5066 96.5891 29.4442C96.8075 29.3818 96.9531 29.3402 97.0467 29.309C97.13 29.2778 97.2132 29.2466 97.2756 29.2154C97.3484 29.1842 97.442 29.1218 97.5772 29.0386L97.5148 30.3179C97.4836 30.89 97.4524 31.3685 97.4004 31.7845Z" fill="#474546"/>
<path d="M91.6563 24.6704V24.8368C91.6563 25.0241 91.6459 25.2945 91.6355 25.6481C91.9267 25.6481 92.1764 25.6377 92.3948 25.6377C92.6132 25.6377 92.8524 25.6377 93.1124 25.6481L93.1436 24.9616C93.1436 24.8472 93.154 24.7536 93.1644 24.6704C92.9356 24.6808 92.686 24.6808 92.4156 24.6808C92.218 24.6808 91.9683 24.6808 91.6563 24.6704Z" fill="#474546"/>
<path d="M134.032 24.7433C134.23 24.7433 134.396 24.7329 134.552 24.7329C134.937 24.7329 135.228 24.7537 135.416 24.7849C135.613 24.8161 135.78 24.8681 135.936 24.9305C136.081 24.9929 136.216 25.0762 136.32 25.1698C136.424 25.2634 136.518 25.3778 136.591 25.5026C136.664 25.6274 136.716 25.773 136.757 25.9187C136.799 26.0643 136.809 26.2203 136.809 26.3763C136.809 26.5635 136.789 26.7508 136.737 26.9276C136.695 27.1044 136.622 27.2604 136.539 27.3956C136.445 27.5308 136.352 27.6557 136.237 27.7493C136.123 27.8533 136.008 27.9261 135.904 27.9781C135.8 28.0301 135.655 28.0925 135.478 28.1549C135.634 28.1861 135.769 28.2277 135.863 28.2589C135.956 28.2901 136.06 28.3421 136.164 28.4149C136.279 28.4774 136.383 28.571 136.476 28.675C136.57 28.779 136.653 28.8934 136.716 29.0078C136.778 29.1222 136.82 29.2574 136.851 29.3927C136.882 29.5383 136.903 29.6839 136.903 29.8399C136.903 30.1728 136.83 30.4744 136.685 30.7448C136.539 31.0257 136.352 31.2337 136.092 31.4001C135.842 31.5561 135.561 31.6705 135.249 31.7225C135.031 31.7641 134.625 31.7849 134.043 31.7953V30.7864C134.178 30.7864 134.292 30.776 134.375 30.7656C134.511 30.7448 134.636 30.7136 134.75 30.6616C134.875 30.6096 134.968 30.5576 135.031 30.5056C135.104 30.4536 135.156 30.3808 135.218 30.2976C135.27 30.2144 135.312 30.1103 135.343 30.0063C135.374 29.8919 135.384 29.7775 135.384 29.6735C135.384 29.5175 135.353 29.3823 135.301 29.2574C135.249 29.1326 135.166 29.0286 135.052 28.9454C134.948 28.8622 134.812 28.7998 134.677 28.7582C134.532 28.7166 134.323 28.6958 134.032 28.6958V27.6869C134.157 27.6869 134.24 27.6765 134.303 27.6661C134.428 27.6453 134.552 27.6141 134.688 27.562C134.823 27.51 134.937 27.4372 135.031 27.3332C135.124 27.2292 135.187 27.1148 135.228 26.99C135.27 26.8652 135.291 26.7403 135.291 26.6051C135.291 26.4803 135.27 26.3555 135.218 26.2411C135.166 26.1267 135.104 26.0331 135.01 25.9603C134.916 25.8874 134.792 25.8354 134.667 25.8042C134.532 25.773 134.334 25.7522 134.074 25.7522H134.032V24.7433ZM143.185 31.7849C142.884 31.7745 142.655 31.7745 142.488 31.7745C142.28 31.7745 142.051 31.7745 141.802 31.7849V30.932C141.708 31.0777 141.625 31.1921 141.552 31.2753C141.479 31.3585 141.386 31.4521 141.271 31.5353C141.157 31.6185 141.022 31.6913 140.897 31.7329C140.762 31.7849 140.606 31.8266 140.429 31.8578C140.252 31.889 140.065 31.9098 139.867 31.9098C139.482 31.9098 139.15 31.8474 138.858 31.7433C138.577 31.6393 138.349 31.4625 138.182 31.2337C138.016 31.0049 137.933 30.6824 137.933 30.2664V30.1624L138.016 28.831L138.099 27.0836C138.099 26.938 138.109 26.7612 138.109 26.5531C138.432 26.5635 138.682 26.5635 138.879 26.5635C139.077 26.5635 139.316 26.5635 139.586 26.5531L139.42 28.9038C139.41 29.091 139.399 29.2366 139.399 29.3719C139.389 29.4967 139.389 29.5903 139.389 29.6423C139.389 29.8919 139.42 30.0999 139.503 30.256C139.576 30.4224 139.711 30.5472 139.888 30.6304C140.075 30.7136 140.262 30.7552 140.47 30.7552C140.668 30.7552 140.866 30.7136 141.043 30.6408C141.209 30.568 141.344 30.4744 141.459 30.3496C141.573 30.2248 141.677 30.0583 141.75 29.8503C141.812 29.6943 141.854 29.4863 141.885 29.2262C141.906 29.039 141.927 28.7062 141.947 28.2485C141.979 27.6973 141.999 27.1252 142.01 26.5531C142.353 26.5635 142.613 26.5635 142.79 26.5635C142.998 26.5635 143.216 26.5635 143.476 26.5531C143.435 27.042 143.393 27.6557 143.352 28.3941C143.31 29.1326 143.279 29.7359 143.258 30.2144C143.216 30.6928 143.196 31.2129 143.185 31.7849ZM144.329 31.6913L144.215 30.5576C144.548 30.6928 144.839 30.7864 145.068 30.8384C145.307 30.8904 145.515 30.9216 145.713 30.9216C145.91 30.9216 146.077 30.9008 146.212 30.8488C146.347 30.8072 146.451 30.7344 146.513 30.6408C146.576 30.5472 146.617 30.4536 146.617 30.3496C146.617 30.308 146.617 30.2664 146.607 30.2248C146.597 30.1832 146.586 30.1416 146.565 30.0999C146.545 30.0583 146.513 30.0167 146.493 29.9855C146.461 29.9543 146.43 29.9127 146.368 29.8607C146.316 29.8191 146.243 29.7567 146.149 29.6839L145.869 29.4655C145.598 29.2574 145.401 29.091 145.255 28.9662C145.12 28.8518 144.995 28.727 144.901 28.6022C144.808 28.4774 144.735 28.3421 144.683 28.2069C144.631 28.0717 144.61 27.9261 144.61 27.7805C144.61 27.5308 144.683 27.2916 144.839 27.0628C144.995 26.834 145.213 26.6675 145.505 26.5635C145.796 26.4595 146.139 26.4075 146.534 26.4075C146.982 26.4075 147.502 26.4595 148.094 26.5635L148.157 27.6349C147.751 27.4684 147.377 27.3956 147.002 27.3956C146.805 27.3956 146.628 27.4164 146.482 27.458C146.337 27.4996 146.222 27.562 146.16 27.6349C146.097 27.7181 146.066 27.8117 146.066 27.9053C146.066 27.9573 146.077 28.0197 146.097 28.0821C146.108 28.1341 146.149 28.1965 146.201 28.2589C146.253 28.3213 146.316 28.3733 146.378 28.4357C146.441 28.4878 146.586 28.6022 146.794 28.7582C147.013 28.9246 147.2 29.0702 147.356 29.195C147.512 29.3303 147.647 29.4551 147.751 29.5903C147.855 29.7255 147.938 29.8607 147.99 30.0167C148.042 30.1624 148.074 30.3184 148.074 30.4744C148.074 30.7344 147.99 30.9737 147.834 31.1921C147.678 31.4105 147.439 31.5873 147.117 31.7121C146.794 31.837 146.441 31.8994 146.045 31.8994C145.837 31.8994 145.588 31.8786 145.286 31.8474C144.974 31.8266 144.662 31.7641 144.329 31.6913ZM149.509 29.7255L149.561 27.9157L149.634 24.7537C149.967 24.7641 150.216 24.7641 150.403 24.7641C150.549 24.7641 150.799 24.7641 151.152 24.7537L151.038 26.1683L150.819 29.7255C150.57 29.7255 150.372 29.7151 150.216 29.7151C150.029 29.7151 149.779 29.7255 149.509 29.7255ZM149.301 31.7849L149.332 31.3585C149.343 31.2337 149.353 31.0985 149.363 30.9633L149.395 30.4432C149.79 30.4536 150.06 30.4536 150.206 30.4536C150.31 30.4536 150.57 30.4536 150.976 30.4432C150.944 30.828 150.924 31.2753 150.903 31.7849L150.133 31.7745C149.967 31.7745 149.696 31.7745 149.301 31.7849ZM131.078 31.7849C131.141 31.0569 131.182 30.464 131.214 29.9959C131.245 29.5279 131.266 28.7374 131.307 27.6245C131.349 26.5011 131.359 25.7314 131.359 25.3154C131.359 25.1906 131.359 25.0033 131.349 24.7537C131.786 24.7641 132.139 24.7641 132.431 24.7641C132.711 24.7641 133.075 24.7641 133.491 24.7537C133.689 24.7537 133.855 24.7433 134.022 24.7433V25.7418H132.826L132.753 27.6765H133.585C133.762 27.6765 133.897 27.6765 134.022 27.6661V28.675H134.001H132.701L132.618 30.776H133.793C133.876 30.776 133.939 30.776 134.011 30.776V31.7849C133.783 31.7849 133.523 31.7953 133.242 31.7953L131.994 31.7849H131.078Z" fill="#474546"/>
<path d="M22.2839 26.73L22.2319 28.5398L22.1591 31.7018C21.8262 31.6914 21.5766 31.6914 21.3894 31.6914C21.2438 31.6914 20.9941 31.6914 20.6405 31.7018L20.7549 30.2872L20.9733 26.73C21.223 26.73 21.4206 26.7404 21.5766 26.7404C21.7742 26.7404 22.0238 26.73 22.2839 26.73Z" fill="#474546"/>
<path d="M22.5029 24.6704L22.4717 25.0969C22.4613 25.2217 22.4509 25.3569 22.4405 25.4921L22.4093 26.0122C22.0141 26.0018 21.7437 26.0018 21.598 26.0018C21.494 26.0018 21.234 26.0018 20.8284 26.0122C20.8596 25.6273 20.8804 25.1801 20.9012 24.6704L21.6709 24.6808C21.8373 24.6808 22.1077 24.6808 22.5029 24.6704Z" fill="#474546"/>
<path d="M149.507 29.7252L149.559 27.9154L149.632 24.7534C149.965 24.7638 150.215 24.7638 150.402 24.7638C150.548 24.7638 150.797 24.7638 151.151 24.7534L151.036 26.168L150.818 29.7252C150.568 29.7252 150.371 29.7148 150.215 29.7148C150.028 29.7148 149.778 29.7252 149.507 29.7252Z" fill="#474546"/>
<path d="M149.296 31.7851L149.328 31.3587C149.338 31.2339 149.348 31.0986 149.359 30.9634L149.39 30.4434C149.785 30.4538 150.056 30.4538 150.201 30.4538C150.305 30.4538 150.565 30.4538 150.971 30.4434C150.94 30.8282 150.919 31.2755 150.898 31.7851L150.128 31.7747C149.962 31.7747 149.692 31.7747 149.296 31.7851Z" fill="#474546"/>
</svg>
