<svg width="74" height="79" viewBox="0 0 74 79" fill="none" xmlns="http://www.w3.org/2000/svg">
<path d="M12.5651 28.5066C11.6842 27.9877 10.743 27.7705 10.7068 27.8912C10.4775 28.8928 10.2 29.9305 9.99484 30.9321C9.87417 31.4871 10.0552 31.9457 10.4654 32.2956C10.9361 32.6938 11.4187 33.1041 11.9376 33.442C14.9784 35.3847 18.0434 37.3033 21.0843 39.2461C21.6876 39.6322 22.2789 40.0666 22.8581 40.6096C21.4342 40.8027 20.3844 41.3819 19.9741 42.7455C19.7569 43.4816 19.8655 44.2056 20.2034 44.8934C20.8429 46.1725 22.0134 46.6793 23.3045 46.2449C24.7526 45.7501 25.2714 44.29 24.8008 42.0335C25.9713 41.8525 27.2504 42.9506 27.4555 44.29C27.6727 45.6777 26.9849 46.9206 25.6696 47.4153C24.7164 47.7773 23.8355 47.5722 23.0632 46.9085C22.5805 46.4862 21.3859 46.5103 20.9274 46.9689C20.131 47.7894 19.3225 48.61 18.5864 49.4788C18.4054 49.6839 18.2968 50.1183 18.3934 50.3717C18.7554 51.3974 18.5744 52.3265 18.1279 53.2919C17.7417 54.1124 17.4763 55.0054 17.1143 55.838C16.8729 56.381 16.9695 56.8033 17.3797 57.2015C17.6693 57.4911 17.8865 57.8531 18.2003 58.1186C19.0691 58.8547 19.0208 59.7718 18.864 60.7612C18.695 61.8593 18.5985 62.9695 18.4778 64.0676C18.4296 64.5502 18.7795 64.4899 19.057 64.4899C20.4568 64.4778 21.8565 64.4416 23.2683 64.4175C23.7148 64.4054 24.1613 64.4175 24.7043 64.4175C23.9562 62.4627 23.2321 60.5923 22.4719 58.6375C23.0873 58.3599 23.6786 58.0583 24.3061 57.8169C24.7646 57.648 24.825 57.4187 24.6802 56.9843C24.2337 55.6328 23.7993 54.2814 23.4131 52.9178C23.3287 52.6282 23.4131 52.2903 23.4373 51.9766C23.4373 51.9404 23.4614 51.9042 23.4855 51.868C24.0527 50.8423 24.0648 49.8287 23.5217 48.7668C23.1356 48.0066 23.208 47.9342 24.0406 47.9342C25.561 47.9463 25.1266 47.6325 25.6817 49.0685C25.7903 49.346 25.7541 49.708 25.6938 50.0097C25.5369 50.7941 25.4645 51.5663 26.0196 52.23C26.2971 52.5558 26.1885 52.8454 26.0437 53.1471C25.8386 53.5574 25.7903 53.9435 25.9955 54.3658C26.0558 54.4865 26.1161 54.6434 26.0799 54.752C25.6334 56.2 26.1161 57.648 25.9955 59.096C25.9834 59.3132 25.7541 59.5063 25.6455 59.7235C25.549 59.9045 25.3559 60.1338 25.4042 60.2665C25.8506 61.5939 26.4057 62.885 26.2006 64.3572C27.3952 64.3692 27.0573 65.4432 27.5159 65.962C27.5038 66.0103 27.4797 66.0706 27.4676 66.1189C26.8763 66.1189 26.2851 66.1189 25.6938 66.1189C17.4521 66.1551 9.19843 66.1913 0.956789 66.2275C0.172445 66.2275 0.160378 66.2275 0.160378 65.419C0.136245 61.5818 0.124178 57.7445 0.112111 53.9073C0.0638436 47.4274 0.03971 40.9475 0.0155763 34.4797C0.00350952 32.6093 0.0155763 30.739 0.00350952 28.8686C0.00350952 28.5187 0.0276432 28.2653 0.486183 28.2653C3.74423 28.2774 6.9902 28.2653 10.3086 28.2653C10.393 28.036 10.4654 27.7826 10.574 27.5413C10.6102 27.4689 12.3599 27.9757 12.4565 27.9153C12.4806 27.9998 12.8064 27.9274 12.8305 28.0119L12.5651 28.5066Z" fill="#434041"/>
<path d="M51.6029 8.83757C51.7115 8.23423 52.2907 8.16183 52.6769 7.88429C52.9061 7.72742 53.1233 7.53435 53.3647 7.37748C53.9801 6.99134 54.5714 6.50867 55.2471 6.2794C56.4538 5.86913 57.7208 5.79673 58.9999 6.0622C58.8913 7.35335 58.7827 8.6083 58.6741 9.86325C58.4207 12.7472 58.4207 15.6191 58.662 18.5031C58.9033 21.4595 59.3981 24.3676 60.0618 27.2515C60.1824 27.7825 60.4117 27.9273 60.9306 27.9152C64.7075 27.867 68.4844 27.8549 72.2613 27.8308C73.1543 27.8308 73.1905 27.8549 73.1905 28.7358C73.2025 32.3799 73.2025 36.0241 73.2146 39.6683C73.2267 45.3638 73.2508 51.0473 73.2749 56.7429C73.287 59.5665 73.2749 62.3901 73.2991 65.2138C73.2991 65.6964 73.1784 65.8412 72.6716 65.8412C66.9399 65.8533 61.2081 65.9016 55.4764 65.9257C53.956 65.9378 52.4355 65.9257 50.9151 65.9257C50.7703 65.9257 50.6134 65.9016 50.4324 65.8895C50.4083 65.3586 50.3721 64.8518 50.3359 64.2364C51.084 64.2364 51.8201 64.2122 52.5441 64.2484C53.0268 64.2726 53.1957 64.1157 53.1837 63.621C53.1354 58.8425 53.1475 54.064 53.0751 49.2976C53.0509 47.6324 52.8579 45.9551 52.7493 44.2899C52.7251 44.0003 52.7493 43.7107 52.7493 43.3366C53.2802 43.3366 53.7991 43.3004 54.3059 43.3608C54.4266 43.3728 54.5714 43.7348 54.5834 43.952C54.7282 46.2447 54.8489 48.5374 54.9816 50.8663C56.7193 49.9251 57.9139 48.5374 58.7103 46.8119C60.4358 43.047 60.7254 39.1374 59.7118 35.1312C59.0361 32.4161 58.2517 29.7373 57.6363 27.0102C56.5383 22.099 56.2245 17.1154 56.5745 12.0956C56.671 10.7562 56.8037 9.42884 56.9244 8.08943C56.9485 7.82396 56.9847 7.57055 56.5986 7.54642C55.2833 7.46195 53.9801 7.52229 52.7493 8.04116C52.3149 8.22216 51.9529 8.56003 51.5547 8.8255L51.6029 8.83757Z" fill="#434041"/>
<path d="M51.6037 8.82558C50.6263 10.1409 50.566 11.7216 50.4333 13.2541C50.204 16.1019 50.0592 18.9617 49.8058 21.8095C49.7334 22.5818 49.3955 23.342 49.13 24.078C48.9008 24.7055 48.3216 24.8624 47.7424 24.8262C47.2235 24.79 46.6805 24.7176 46.2099 24.5004C43.3259 23.1368 40.7798 21.2423 38.3182 19.2513C36.4719 17.7671 34.686 16.2225 32.8519 14.7263C30.4385 12.7594 28.0372 10.7804 25.5635 8.89798C23.2588 7.14829 20.8816 5.49513 18.5165 3.82991C17.4667 3.09384 16.3686 2.44223 15.2826 1.76649C15.1499 1.68202 15.0051 1.63375 14.7758 1.52515C14.4138 2.43016 13.2795 6.09848 12.9296 6.97935L12.9416 6.99142C13.014 6.64148 13.8225 3.47998 13.9432 3.1421C14.1604 2.53876 14.4379 1.95956 14.7155 1.32001C15.0895 1.48895 15.4274 1.64582 15.8497 1.85095C16.079 1.34415 16.3324 0.849408 16.5375 0.342601C16.6823 -0.03147 16.8392 -0.0918042 17.1771 0.125399C18.782 1.15108 20.4472 2.08022 22.0038 3.16624C24.2965 4.77113 26.5409 6.43635 28.7492 8.13777C31.0539 9.92366 33.2984 11.7819 35.5549 13.6282C37.7631 15.4261 39.9472 17.2603 42.1554 19.0703C44.0861 20.6511 46.1133 22.0991 48.4905 22.9317C49.311 23.2213 49.3834 23.1972 49.5041 22.3646C49.6972 21.0613 49.8299 19.7461 49.9506 18.4308C50.1919 15.8002 50.385 13.1696 50.6625 10.5511C50.7349 9.89952 50.928 9.22378 51.5917 8.84971C51.6158 8.83764 51.6037 8.82558 51.6037 8.82558Z" fill="#434041"/>
<path d="M12.9411 6.96733C13.4479 7.3052 16.1267 9.46517 16.6094 9.83924C18.2022 11.0459 19.8312 12.2285 21.3758 13.5076C23.4995 15.2693 25.5992 17.0673 27.6626 18.9014C29.4967 20.5304 31.2826 22.1957 33.0565 23.885C34.0097 24.79 34.8785 25.7795 35.7715 26.7087C35.2043 26.3225 34.601 25.9243 34.0218 25.502C31.7412 23.8488 29.4847 22.1595 27.204 20.5184C24.5011 18.5877 21.7619 16.7053 19.071 14.7625C16.0302 12.5663 12.8566 10.5753 9.56235 8.77736C9.38135 8.69289 9.26068 8.53602 9.09175 8.43949C8.94695 8.34295 8.79008 8.28262 8.54874 8.16195C8.40394 8.66876 8.235 9.13936 8.1264 9.60997C7.89713 10.6356 7.63166 11.6493 7.49893 12.687C7.37826 13.5558 7.37826 14.4608 8.35567 14.9676C7.77646 14.7625 7.41446 14.4246 7.36619 13.773C7.26966 12.4457 7.59546 11.1907 7.89713 9.92371C8.02987 9.39277 8.18674 8.87389 8.3074 8.34295C8.3798 8.05335 8.51254 7.93268 8.80214 8.08955C9.11588 8.27055 9.44169 8.43949 9.81576 8.64462C10.0088 8.00508 10.2019 7.35347 10.4312 6.59326C12.5308 7.37761 14.2563 8.76529 16.187 9.79097C15.825 9.46517 13.3272 7.28107 12.9773 6.95527L12.9411 6.96733Z" fill="#434041"/>
<path d="M30.0769 31.1733C29.1719 30.5578 28.279 29.9183 27.3498 29.327C25.2985 28.0238 23.223 26.7568 21.1595 25.4656C18.891 24.0538 16.6224 22.6299 14.3297 21.2423C13.2678 20.5907 12.1577 20.0235 11.0717 19.4081C10.0943 18.853 9.11685 18.298 8.13943 17.7429C7.9705 17.6463 7.7895 17.586 7.51196 17.4653C7.25856 18.7565 7.02929 19.9873 6.75175 21.2061C6.65522 21.6887 6.59488 22.1352 6.82415 22.5455C6.87242 22.6299 12.399 26.1897 12.4714 26.2621C12.3749 26.2138 6.82415 22.6903 6.76382 22.6299C6.34148 22.2559 6.49835 21.7129 6.58281 21.2543C6.81208 19.927 7.13789 18.6117 7.43956 17.224C7.95843 17.4533 8.42904 17.6705 8.95998 17.9118C9.11685 17.2602 9.33405 16.6569 9.39438 16.0294C9.41852 15.8001 9.10478 15.5347 8.94791 15.2812C16.6465 19.6494 23.4643 25.2726 30.2097 30.9923C30.1614 31.0647 30.1131 31.1129 30.0769 31.1733Z" fill="#434041"/>
<path d="M48.9072 65.9381C47.6281 65.9381 46.4456 65.9381 45.2148 65.9381C45.2148 65.4071 45.2148 64.9003 45.2148 64.297C45.613 64.297 45.9991 64.2728 46.3852 64.297C46.7834 64.3211 46.9403 64.1763 46.9403 63.766C46.9403 63.03 47.0127 62.2818 47.0127 61.5457C47.0127 61.1717 47.1334 61.0148 47.5195 61.0269C47.8936 61.0389 48.2797 60.9907 48.7624 60.9665C48.5452 60.2667 48.4004 59.6512 48.1711 59.06C47.966 58.5411 48.0022 58.2153 48.6055 58.0705C48.7503 58.0343 48.871 57.9378 49.052 57.8412C48.3521 56.8517 47.6764 55.8985 46.9644 54.8969C47.5919 54.8125 47.9901 54.9935 48.328 55.4882C49.1244 56.6345 49.9691 57.7568 50.7896 58.879C50.8379 58.9393 50.8741 59.0117 50.9465 59.1444C50.7776 59.241 50.6328 59.3858 50.4638 59.422C49.9329 59.5426 49.9208 59.8202 50.0777 60.2787C50.307 60.9545 50.4638 61.6543 50.669 62.4025C50.0535 62.4266 49.5226 62.4628 48.9193 62.487C48.9072 63.6333 48.9072 64.7434 48.9072 65.9381Z" fill="#434041"/>
<path d="M32.1552 66.0944C30.8519 66.0944 29.6091 66.1065 28.3782 66.0824C28.2696 66.0824 28.1007 65.8893 28.0766 65.7686C28.0162 65.3463 28.0042 64.924 27.98 64.4171C28.6075 64.4171 29.1747 64.393 29.7539 64.4292C30.1883 64.4533 30.3331 64.2723 30.321 63.85C30.2969 63.2829 30.2969 62.7157 30.321 62.1607C30.3934 60.1576 30.4779 58.1665 30.5623 56.1634C30.5744 55.898 30.5623 55.6325 30.5623 55.3429C31.0933 55.2464 31.3226 55.5963 31.6122 55.9704C32.4689 57.1047 32.4327 58.3355 32.3362 59.6749C32.1793 61.6297 32.2155 63.5966 32.1793 65.5635C32.1552 65.6721 32.1552 65.8048 32.1552 66.0944Z" fill="#434041"/>
<path d="M10.9118 27.6376C11.2858 27.71 11.6599 27.7824 12.1064 27.8669C12.2271 27.4445 12.3598 26.986 12.4563 26.5154C12.4684 26.4309 12.3477 26.2861 12.2633 26.2137C12.034 26.0448 11.7806 25.9 11.5634 25.6948C17.1141 28.6633 21.9529 32.6574 26.8038 36.6394C26.3452 36.3981 25.8746 36.1688 25.4161 35.9034C21.9046 33.9003 18.4053 31.8972 14.9059 29.882C13.7233 29.2063 12.5649 28.5064 11.3944 27.8186C11.2496 27.7341 11.0807 27.6859 10.9118 27.6134C10.9118 27.6255 10.9118 27.6376 10.9118 27.6376Z" fill="#434041"/>
<path d="M35.8059 64.3932C35.8059 62.5107 35.8059 60.7369 35.8059 58.8545C36.373 58.9269 36.8798 58.9752 37.3625 59.0838C37.4952 59.12 37.6642 59.3734 37.6762 59.5302C37.7124 61.5575 37.7245 63.5847 37.7486 65.6119C37.7486 65.9136 37.64 66.0343 37.3384 66.0343C36.0472 66.0343 34.7681 66.0463 33.477 66.0222C33.3684 66.0222 33.2477 65.8291 33.1391 65.7205C33.115 65.6964 33.1391 65.6481 33.1391 65.6119C33.0426 64.4052 33.0426 64.4052 34.2372 64.3811C34.7319 64.3932 35.2387 64.3932 35.8059 64.3932Z" fill="#434041"/>
<path d="M43.1549 65.9863C41.9362 65.9863 40.7777 65.9863 39.5469 65.9863C39.5469 65.5399 39.5228 65.0934 39.5711 64.659C39.5831 64.5504 39.8124 64.3814 39.9572 64.3694C40.3795 64.3332 40.8139 64.3573 41.2725 64.3573C41.2725 64.0074 41.2966 63.7298 41.2725 63.4402C41.1277 62.0646 41.007 60.7011 40.8139 59.3254C40.7536 58.8548 40.9587 58.7221 41.3087 58.4928C41.9724 58.0705 42.5516 58.2032 43.1308 58.5773C43.2394 58.6497 43.3238 58.8669 43.3118 59.0117C43.2876 59.2168 43.2152 59.4582 43.0704 59.5909C42.2258 60.3632 42.7205 61.2923 42.7688 62.1491C42.8412 63.4402 43.0222 64.6831 43.1549 65.9863Z" fill="#434041"/>
<path d="M42.3062 41.8643C43.4526 42.0935 44.2128 42.8899 44.3938 44.157C44.6593 46.0876 43.175 47.6563 41.4012 47.4029C41.0271 47.3547 40.6772 47.0289 40.3273 46.8117C40.0497 46.6307 39.8084 46.4014 39.4343 46.0997C40.6772 46.2083 41.5219 45.7377 42.1132 44.7844C42.6924 43.8432 42.7044 42.8899 42.3062 41.8643Z" fill="#434041"/>
<path d="M52.5577 37.2178C53.4989 37.2178 54.6211 38.2676 54.7297 39.6553C54.8383 41.043 54.0178 42.2496 52.7508 42.5392C52.7267 41.9721 52.3043 42.0445 51.9182 42.0324C51.4717 42.0324 51.0132 42.0445 50.5788 41.9721C50.3254 41.9238 50.0961 41.7187 49.903 41.5256C52.1233 41.3084 53.2576 39.4622 52.5577 37.2178Z" fill="#434041"/>
<path d="M40.9393 47.6691C41.6151 47.6329 41.9771 47.9225 42.327 48.381C42.8097 49.0205 43.1838 49.5877 42.9545 50.4565C42.7976 51.0357 42.9545 51.6511 43.3648 52.1579C43.4251 52.2303 43.4975 52.3269 43.4975 52.4113C43.4734 53.075 43.5216 53.7628 43.3768 54.4144C43.1234 55.5004 42.7373 56.5502 42.3029 57.6001C42.1701 56.4778 42.0495 55.3556 41.9167 54.2334C41.8805 53.9197 41.8564 53.618 41.7961 53.3043C41.5547 52.1097 41.7237 50.9633 42.0857 49.817C42.1581 49.5998 42.0857 49.286 41.965 49.0809C41.6754 48.5982 41.3134 48.1638 40.9393 47.6691Z" fill="#434041"/>
<path d="M32.7632 42.3587C35.2369 42.3708 36.335 40.6332 35.6351 38.0991C36.7935 38.4249 37.5175 39.5471 37.433 40.8866C37.3606 42.0812 36.4194 43.2517 35.3696 43.4327C35.3093 43.4447 35.2489 43.4568 35.2007 43.4447C34.3681 43.1431 33.5475 42.8293 32.7149 42.5276C32.727 42.4673 32.739 42.407 32.7632 42.3587Z" fill="#434041"/>
<path d="M45.0216 53.0743C46.7954 52.6278 47.2781 51.9159 47.1816 49.8404C48.0142 49.7801 48.6537 50.3351 48.9554 51.3849C49.3174 52.652 48.702 53.8466 47.4591 54.2568C47.3626 54.281 47.266 54.3051 47.1695 54.3172C46.6989 54.3775 45.2509 53.557 45.0216 53.0743Z" fill="#434041"/>
<path d="M27.4939 53.1468C29.3039 53.002 29.9193 51.904 29.859 50.2991C30.8123 50.2387 31.5725 51.4334 31.6811 52.3504C31.7897 53.183 31.1863 54.2329 30.4503 54.5466C30.1486 54.6793 29.8952 54.7276 29.7504 54.3415C29.5694 53.8347 29.1591 53.6899 28.6644 53.6295C28.2782 53.5813 27.9042 53.4726 27.5301 53.3882C27.518 53.3037 27.506 53.2313 27.4939 53.1468Z" fill="#434041"/>
<path d="M35.745 51.3491C35.8174 50.2148 35.8656 49.0684 35.9622 47.9342C36.0587 46.812 36.1914 45.7018 36.3121 44.5796C37.5429 44.6399 38.3152 45.2191 38.1583 46.0035C37.5188 45.8225 37.3981 46.2569 37.2533 46.7637C36.8672 48.1996 36.4328 49.6356 36.0104 51.0715C35.9742 51.1801 35.926 51.2767 35.8777 51.3732C35.8294 51.3611 35.7812 51.3491 35.745 51.3491Z" fill="#434041"/>
<path d="M35.8182 58.1787C35.8182 56.779 35.8182 55.3913 35.8182 53.895C36.2284 54.0278 36.6025 54.1364 37.0731 54.2812C36.687 55.6085 36.3129 56.9117 35.9268 58.2029C35.8906 58.2029 35.8544 58.1908 35.8182 58.1787Z" fill="#434041"/>
<path d="M-6.10352e-05 72.2959H1.21869C2.00303 72.2959 2.53397 72.3321 2.81151 72.4045C3.08905 72.4769 3.29418 72.5976 3.43898 72.7544C3.58379 72.9234 3.66825 73.1044 3.70445 73.3095C3.74065 73.5146 3.75272 73.9129 3.75272 74.5041V76.6882C3.75272 77.2433 3.72859 77.6294 3.66825 77.8104C3.61999 78.0035 3.52345 78.1483 3.39072 78.2569C3.25798 78.3655 3.10111 78.4379 2.90804 78.4862C2.71497 78.5224 2.42537 78.5465 2.03923 78.5465H-6.10352e-05V72.2959ZM1.62896 73.3578V77.4726C1.85823 77.4726 2.00303 77.4243 2.06337 77.3278C2.11163 77.2312 2.14783 76.9778 2.14783 76.5555V74.1301C2.14783 73.8525 2.13577 73.6715 2.1237 73.587C2.09957 73.5026 2.06337 73.4543 2.00303 73.406C1.93063 73.3819 1.80996 73.3578 1.62896 73.3578Z" fill="#434041"/>
<path d="M4.38852 72.2959H7.10355V73.5508H6.01754V74.7334H7.03115V75.928H6.00547V77.3036H7.20009V78.5586H4.38852V72.2959Z" fill="#434041"/>
<path d="M7.66501 72.2959H10.4162V73.5508H9.29403V74.7334H10.2956V75.928H9.29403V78.5586H7.66501V72.2959Z" fill="#434041"/>
<path d="M10.8149 72.2959H13.53V73.5508H12.444V74.7334H13.4576V75.928H12.444V77.3036H13.6386V78.5586H10.8149V72.2959Z" fill="#434041"/>
<path d="M17.7302 72.2959V78.5465H16.3063L15.4616 75.6987V78.5465H14.0981V72.2959H15.4616L16.3787 75.1075V72.2959H17.7302Z" fill="#434041"/>
<path d="M21.832 74.1792H20.3237V73.7207C20.3237 73.5035 20.2995 73.3707 20.2633 73.3104C20.2271 73.2501 20.1547 73.2259 20.0703 73.2259C19.9737 73.2259 19.9013 73.2621 19.8531 73.3466C19.8048 73.4311 19.7807 73.5517 19.7807 73.7086C19.7807 73.9138 19.8048 74.0706 19.8651 74.1792C19.9134 74.2878 20.0703 74.4085 20.3237 74.5654C21.0477 74.9998 21.5062 75.3497 21.6872 75.6272C21.8803 75.9048 21.9648 76.3512 21.9648 76.9546C21.9648 77.4011 21.9165 77.7269 21.8079 77.9441C21.6993 78.1492 21.5062 78.3302 21.2046 78.475C20.9029 78.6198 20.5529 78.6922 20.1668 78.6922C19.7324 78.6922 19.3583 78.6077 19.0567 78.4388C18.755 78.2699 18.5499 78.0647 18.4533 77.8113C18.3568 77.5579 18.3085 77.1959 18.3085 76.7253V76.315H19.8169V77.0753C19.8169 77.3045 19.841 77.4614 19.8772 77.5217C19.9255 77.5941 19.9979 77.6183 20.1065 77.6183C20.2151 77.6183 20.2995 77.5821 20.3478 77.4855C20.3961 77.4011 20.4323 77.2804 20.4323 77.1115C20.4323 76.7495 20.384 76.5081 20.2875 76.3875C20.1789 76.2788 19.9255 76.0858 19.5273 75.8203C19.1291 75.5548 18.8515 75.3618 18.7188 75.2411C18.5861 75.1204 18.4775 74.9515 18.393 74.7343C18.3085 74.5171 18.2603 74.2516 18.2603 73.9137C18.2603 73.4311 18.3206 73.0811 18.4413 72.8639C18.5619 72.6467 18.7671 72.4657 19.0325 72.3451C19.3101 72.2244 19.6359 72.1641 20.022 72.1641C20.4443 72.1641 20.8064 72.2365 21.096 72.3692C21.3856 72.5019 21.5907 72.6829 21.6872 72.8881C21.7838 73.0932 21.832 73.4431 21.832 73.9379V74.1792Z" fill="#434041"/>
<path d="M26.1806 75.9534C26.1806 76.5809 26.1685 77.0273 26.1323 77.2928C26.1082 77.5583 26.0117 77.7875 25.8548 78.0048C25.6979 78.222 25.4928 78.3909 25.2273 78.4995C24.9618 78.6202 24.6481 78.6684 24.2982 78.6684C23.9603 78.6684 23.6586 78.6081 23.3932 78.4995C23.1277 78.3909 22.9105 78.222 22.7536 78.0048C22.5967 77.7875 22.5002 77.5462 22.464 77.2928C22.4278 77.0394 22.4157 76.5809 22.4157 75.9413V74.8674C22.4157 74.2399 22.4278 73.7934 22.464 73.528C22.4881 73.2625 22.5847 73.0332 22.7415 72.816C22.8984 72.5988 23.1036 72.4299 23.369 72.3213C23.6345 72.2006 23.9482 72.1523 24.2982 72.1523C24.636 72.1523 24.9377 72.2127 25.2032 72.3213C25.4686 72.4299 25.6859 72.5988 25.8427 72.816C25.9996 73.0332 26.0961 73.2746 26.1323 73.528C26.1685 73.7814 26.1806 74.2399 26.1806 74.8794V75.9534ZM24.5516 73.902C24.5516 73.6124 24.5395 73.4194 24.5033 73.347C24.4671 73.2625 24.4068 73.2263 24.3102 73.2263C24.2258 73.2263 24.1654 73.2625 24.1172 73.3228C24.0689 73.3832 24.0448 73.5762 24.0448 73.902V76.8222C24.0448 77.1842 24.0568 77.4135 24.093 77.4979C24.1172 77.5824 24.1896 77.6307 24.2982 77.6307C24.4068 77.6307 24.4792 77.5824 24.5154 77.4859C24.5516 77.3893 24.5636 77.1601 24.5636 76.786V73.902H24.5516Z" fill="#434041"/>
<path d="M26.791 72.2959H27.9374C28.7096 72.2959 29.2285 72.32 29.494 72.3804C29.7715 72.4407 29.9887 72.5855 30.1577 72.8389C30.3266 73.0802 30.4111 73.4664 30.4111 74.0094C30.4111 74.4921 30.3507 74.8179 30.2301 74.9868C30.1094 75.1557 29.8681 75.2523 29.5181 75.2885C29.8439 75.3729 30.0611 75.4695 30.1697 75.6143C30.2783 75.747 30.3507 75.8677 30.3749 75.9883C30.399 76.0969 30.4111 76.4107 30.4111 76.9175V78.5706H28.9027V76.4952C28.9027 76.1573 28.8786 75.9521 28.8182 75.8677C28.77 75.7832 28.6252 75.747 28.408 75.747V78.5706H26.791V72.2959ZM28.42 73.3578V74.7455C28.601 74.7455 28.7338 74.7213 28.8062 74.6731C28.8786 74.6248 28.9148 74.4559 28.9148 74.1904V73.8525C28.9148 73.6595 28.8786 73.5267 28.8062 73.4664C28.7338 73.394 28.601 73.3578 28.42 73.3578Z" fill="#434041"/>
<path d="M32.6754 72.2966V78.5472H31.0464V72.2966H32.6754ZM33.1702 71.0537L31.9032 72.1035H31.1188L31.7946 71.0537H33.1702Z" fill="#434041"/>
<path d="M36.138 72.2959L37.0671 78.5465H35.4019L35.3174 77.4243H34.7382L34.6417 78.5465H32.9644L33.785 72.2959H36.138ZM35.2692 76.3142C35.1847 75.6022 35.1002 74.7334 35.0158 73.6836C34.8468 74.8782 34.7503 75.7591 34.702 76.3142H35.2692Z" fill="#434041"/>
<path d="M38.7369 72.2959H39.9557C40.74 72.2959 41.271 72.3321 41.5485 72.4045C41.826 72.4769 42.0312 72.5976 42.176 72.7544C42.3208 72.9234 42.4052 73.1044 42.4414 73.3095C42.4776 73.5146 42.4897 73.9129 42.4897 74.5041V76.6882C42.4897 77.2433 42.4656 77.6294 42.4052 77.8104C42.357 78.0035 42.2604 78.1483 42.1277 78.2569C41.995 78.3655 41.8381 78.4379 41.645 78.4862C41.452 78.5224 41.1624 78.5465 40.7762 78.5465H38.7249V72.2959H38.7369ZM40.3659 73.3578V77.4726C40.5952 77.4726 40.74 77.4243 40.8003 77.3278C40.8486 77.2312 40.8848 76.9778 40.8848 76.5555V74.1301C40.8848 73.8525 40.8727 73.6715 40.8607 73.587C40.8365 73.5026 40.8003 73.4543 40.74 73.406C40.6676 73.3819 40.5469 73.3578 40.3659 73.3578Z" fill="#434041"/>
<path d="M43.1134 72.2959H45.8285V73.5508H44.7425V74.7334H45.7561V75.928H44.7425V77.3036H45.9371V78.5586H43.1134V72.2959Z" fill="#434041"/>
<path d="M48.0322 72.2959V77.2916H49.0217V78.5465H46.4032V72.2959H48.0322Z" fill="#434041"/>
<path d="M50.7985 72.2959H52.4396C52.8861 72.2959 53.2239 72.3321 53.4653 72.4045C53.7066 72.4769 53.8876 72.5734 53.9962 72.7062C54.1169 72.8389 54.2013 72.9958 54.2375 73.1888C54.2858 73.3698 54.2979 73.6595 54.2979 74.0577V74.6007C54.2979 74.9989 54.2617 75.2885 54.1772 75.4695C54.0927 75.6505 53.9479 75.7953 53.7187 75.8918C53.5015 75.9883 53.2119 76.0366 52.8499 76.0366H52.4154V78.5586H50.7985V72.2959ZM52.4154 73.3578V74.9506C52.4637 74.9506 52.4999 74.9506 52.5361 74.9506C52.6809 74.9506 52.7895 74.9144 52.8499 74.842C52.9102 74.7696 52.9343 74.6127 52.9343 74.3835V73.8646C52.9343 73.6474 52.8981 73.5146 52.8378 73.4422C52.7654 73.394 52.6326 73.3578 52.4154 73.3578Z" fill="#434041"/>
<path d="M58.4696 72.2959V76.471C58.4696 76.9416 58.4575 77.2795 58.4213 77.4726C58.3851 77.6656 58.3006 77.8587 58.1437 78.0638C57.9869 78.269 57.7938 78.4138 57.5404 78.5224C57.287 78.631 56.9974 78.6793 56.6595 78.6793C56.2855 78.6793 55.9597 78.6189 55.6701 78.4982C55.3804 78.3776 55.1753 78.2086 55.0305 78.0156C54.8857 77.8225 54.8012 77.6053 54.7771 77.3881C54.753 77.1709 54.7409 76.7003 54.7409 76.0004V72.2959H56.3699V76.9899C56.3699 77.2674 56.382 77.4364 56.4182 77.5088C56.4423 77.5812 56.5027 77.6174 56.5992 77.6174C56.7078 77.6174 56.7681 77.5812 56.7923 77.4967C56.8164 77.4122 56.8405 77.2192 56.8405 76.9054V72.2959H58.4696Z" fill="#434041"/>
<path d="M59.0962 72.2959H61.8113V73.5508H60.7252V74.7334H61.7389V75.928H60.7252V77.3036H61.9199V78.5586H59.0962V72.2959Z" fill="#434041"/>
<path d="M62.3714 72.2959H63.9884C64.4952 72.2959 64.8934 72.3321 65.1468 72.4166C65.4123 72.501 65.6295 72.6579 65.7863 72.8992C65.9432 73.1406 66.0277 73.5388 66.0277 74.0697C66.0277 74.4317 65.9673 74.6851 65.8587 74.8299C65.7501 74.9747 65.5209 75.0833 65.183 75.1678C65.5571 75.2523 65.8105 75.3971 65.9432 75.5901C66.0759 75.7832 66.1483 76.0849 66.1483 76.4952V77.0744C66.1483 77.4967 66.1001 77.8104 66.0035 78.0156C65.907 78.2207 65.7501 78.3534 65.545 78.4379C65.3278 78.5103 64.9054 78.5465 64.2418 78.5465H62.3593V72.2959H62.3714ZM64.0004 73.3578V74.7455C64.0728 74.7455 64.1211 74.7455 64.1573 74.7455C64.3142 74.7455 64.4228 74.7093 64.459 74.6248C64.5072 74.5403 64.5193 74.3231 64.5193 73.9491C64.5193 73.756 64.5072 73.6112 64.471 73.5388C64.4348 73.4543 64.3866 73.406 64.3262 73.394C64.278 73.3698 64.1694 73.3578 64.0004 73.3578ZM64.0004 75.7229V77.4726C64.2297 77.4605 64.3745 77.4243 64.4348 77.364C64.4952 77.3036 64.5314 77.1468 64.5314 76.8934V76.3142C64.5314 76.0487 64.5072 75.8797 64.4469 75.8315C64.3986 75.7591 64.2418 75.7349 64.0004 75.7229Z" fill="#434041"/>
<path d="M68.3703 72.2959V77.2916H69.3598V78.5465H66.7413V72.2959H68.3703Z" fill="#434041"/>
<path d="M73.3631 75.9534C73.3631 76.5809 73.351 77.0273 73.3148 77.2928C73.2907 77.5583 73.1941 77.7875 73.0373 78.0048C72.8804 78.222 72.6752 78.3909 72.4098 78.4995C72.1443 78.6202 71.8306 78.6684 71.4806 78.6684C71.1428 78.6684 70.8411 78.6081 70.5756 78.4995C70.3101 78.3909 70.0929 78.222 69.9361 78.0048C69.7792 77.7875 69.6827 77.5462 69.6465 77.2928C69.6103 77.0394 69.5982 76.5809 69.5982 75.9413V74.8674C69.5982 74.2399 69.6103 73.7934 69.6465 73.528C69.6706 73.2625 69.7671 73.0332 69.924 72.816C70.0809 72.5988 70.286 72.4299 70.5515 72.3213C70.817 72.2006 71.1307 72.1523 71.4806 72.1523C71.8185 72.1523 72.1202 72.2127 72.3856 72.3213C72.6511 72.4299 72.8683 72.5988 73.0252 72.816C73.1821 73.0332 73.2786 73.2746 73.3148 73.528C73.351 73.7814 73.3631 74.2399 73.3631 74.8794V75.9534ZM71.734 73.902C71.734 73.6124 71.722 73.4194 71.6858 73.347C71.6496 73.2625 71.5892 73.2263 71.4927 73.2263C71.4082 73.2263 71.3479 73.2625 71.2996 73.3228C71.2514 73.3832 71.2272 73.5762 71.2272 73.902V76.8222C71.2272 77.1842 71.2393 77.4135 71.2755 77.4979C71.2996 77.5824 71.372 77.6307 71.4806 77.6307C71.5892 77.6307 71.6616 77.5824 71.6978 77.4859C71.734 77.3893 71.7461 77.1601 71.7461 76.786V73.902H71.734Z" fill="#434041"/>
</svg>
