<svg width="126" height="31" viewBox="0 0 126 31" fill="none" xmlns="http://www.w3.org/2000/svg">
<path d="M119.166 18.8413H102.56C102.545 20.6274 101.889 22.4208 100.826 23.6903H121.033C121.026 23.6903 121.41 21.3064 119.166 18.8413Z" fill="#93939A"/>
<path d="M115.557 16.2507C109.372 13.2247 97.3938 10.3685 97.3938 6.64134C97.3938 2.91423 105.645 0.456543 105.645 0.456543H101.579C101.328 0.545108 100.811 0.722239 100.634 0.796044C99.0987 1.3791 93.5781 3.71131 93.5781 7.19488C93.5781 8.77429 95.2682 9.99944 97.2167 11.4091C99.7186 13.2173 102.56 15.2691 102.56 18.7969C102.56 18.8117 102.56 18.8338 102.56 18.8486H119.166C118.354 17.9555 117.196 17.0478 115.557 16.2507Z" fill="#808080"/>
<path d="M118.893 0.456543H118.709C123.056 4.95861 125.72 10.9589 125.72 17.5496C125.72 19.6678 125.447 21.7269 124.923 23.6975H125.063C125.58 21.7269 125.853 19.6678 125.853 17.5496C125.853 10.9663 123.211 4.96599 118.893 0.456543Z" fill="#474546"/>
<path d="M122.982 17.5496C122.982 19.6752 122.679 21.7343 122.118 23.6975H122.325C122.886 21.7343 123.181 19.6752 123.181 17.5496C123.181 10.8999 120.258 4.86266 115.535 0.456543H115.247C120.022 4.83314 122.982 10.8777 122.982 17.5496Z" fill="#474546"/>
<path d="M121.137 17.5496C121.137 18.8781 120.996 20.1771 120.738 21.4391C120.782 21.572 120.819 21.7048 120.856 21.8229C121.166 20.4354 121.336 19.0109 121.336 17.5496C121.336 10.7301 117.779 4.61173 112.155 0.456543H111.815C117.52 4.57482 121.137 10.708 121.137 17.5496Z" fill="#474546"/>
<path d="M118.753 17.5496C118.753 17.8301 118.745 18.1179 118.731 18.3984C118.819 18.4796 118.9 18.5681 118.982 18.6493C119.004 18.2877 119.019 17.9186 119.019 17.5496C119.019 10.5308 114.671 4.29437 108.007 0.456543H107.468C114.288 4.22794 118.753 10.4792 118.753 17.5496Z" fill="#474546"/>
<path d="M104.479 0.847656C104.317 0.9067 104.147 0.973124 103.962 1.03955C111.055 4.33122 115.882 10.0584 116.295 16.627C116.435 16.7082 116.576 16.782 116.708 16.8632C116.406 10.1544 111.609 4.27956 104.479 0.847656Z" fill="#474546"/>
<path d="M101.527 2.14648C101.372 2.22767 101.217 2.30885 101.062 2.39742C107.778 4.82558 112.715 9.69667 113.948 15.5124C114.096 15.5789 114.243 15.6379 114.391 15.7043C113.254 9.73357 108.309 4.70749 101.527 2.14648Z" fill="#474546"/>
<path d="M98.582 4.21289C98.427 4.36788 98.2794 4.53025 98.1539 4.7C104.545 5.40114 109.712 9.31277 111.158 14.3905C111.365 14.4717 111.572 14.5529 111.771 14.6267C110.442 9.26111 105.173 5.06164 98.582 4.21289Z" fill="#474546"/>
<path d="M97.4233 6.90688C102.494 6.92164 106.848 9.63026 108.693 13.4607C108.929 13.5493 109.158 13.6378 109.394 13.719C107.608 9.44575 102.914 6.39025 97.4233 6.37549C97.4159 6.46405 97.4085 6.55262 97.4085 6.64118C97.4012 6.72975 97.4085 6.81832 97.4233 6.90688Z" fill="#474546"/>
<path d="M98.0581 8.16162C98.3607 8.5085 98.7519 8.85538 99.2242 9.1875C101.623 9.51962 103.734 10.5972 105.232 12.1397C105.8 12.3685 106.383 12.5899 106.966 12.8113C105.143 10.1174 101.844 8.27971 98.0581 8.16162Z" fill="#474546"/>
<path d="M23.0433 10.4721C23.0433 16.7898 19.235 22.4063 11.4044 23.1443C10.2457 23.2403 9.69216 23.2403 8.53343 23.2403H0.761841L4.6956 0.988281H12.1794C13.375 0.988281 14.113 0.988281 15.2127 1.11375C19.6188 1.60824 23.0433 4.50875 23.0433 10.4721ZM17.6852 10.5976C17.6852 6.95167 16.0098 5.27631 13.4636 5.018C12.755 4.95157 12.172 4.92205 11.3011 4.92205H9.04268L6.49643 19.2696H8.82126C9.72167 19.2696 10.3047 19.2696 11.0428 19.2032C15.626 18.6939 17.6852 14.893 17.6852 10.5976Z" fill="#474546"/>
<path d="M37.7157 12.5972C39.6862 13.3426 40.3284 15.1804 40.3284 19.1141C40.3284 20.8854 40.5571 22.2434 41.0074 23.2398H35.5237C35.3613 22.1106 35.2949 20.9519 35.2654 18.0144C35.2654 15.9184 34.5864 14.6268 33.1029 14.5309C32.4903 14.5014 31.9442 14.5014 31.3316 14.5014H29.302L27.7521 23.2398H22.7186L26.6524 0.987793H35.103C36.4241 0.987793 37.295 1.01731 38.4242 1.15016C41.1992 1.4749 43.4208 2.89194 43.4208 5.98434C43.4208 9.50481 41.2952 11.6968 37.7157 12.5972ZM37.9076 7.2464C37.9076 5.69651 36.9112 5.12083 35.5237 4.98799C35.0735 4.95846 34.5273 4.92156 33.8114 4.92156H30.9773L29.9441 10.789H32.6232C33.3317 10.789 33.8484 10.789 34.3355 10.7595C36.1953 10.5971 37.9076 9.6967 37.9076 7.2464Z" fill="#474546"/>
<path d="M55.9674 4.92937L52.7421 23.2476H47.7087L50.934 4.92937H43.5166L44.2251 0.995605H64.0859L63.3405 4.92937H55.9674Z" fill="#474546"/>
<path d="M81.1569 6.06587C72.5809 2.38303 67.0603 6.9589 67.0603 13.092C67.0603 17.2546 70.1601 21.5648 78.8321 18.369L78.2048 23.5944C65.5695 24.3546 61.0969 20.1625 61.0969 13.7268C61.0969 6.16919 65.6654 -1.97142 82.5149 1.5638L81.1569 6.06587Z" fill="#474546"/>
<path d="M4.20098 28.0297C4.20098 29.0703 3.58103 29.6608 2.79132 29.7493C2.62157 29.7715 2.54039 29.7715 2.35588 29.7715H1.19714V26.3765H2.37063C2.55514 26.3765 2.62894 26.3765 2.80607 26.3986C3.5884 26.4872 4.20098 26.989 4.20098 28.0297ZM3.47769 28.0371C3.47769 27.3654 3.15296 26.989 2.65109 26.9226C2.54038 26.9079 2.43704 26.9005 2.28943 26.9005H1.87613V29.2253H2.28207C2.42968 29.2253 2.533 29.2253 2.6437 29.2106C3.14557 29.1589 3.47769 28.7308 3.47769 28.0371Z" fill="#474546"/>
<path d="M5.3817 26.5389C5.3817 26.7529 5.22673 26.9005 5.00532 26.9005C4.7839 26.9005 4.62891 26.7603 4.62891 26.5389C4.62891 26.3249 4.7839 26.1772 5.00532 26.1772C5.22673 26.1772 5.3817 26.3249 5.3817 26.5389ZM4.6658 29.7715V27.1515H5.34481V29.7715H4.6658Z" fill="#474546"/>
<path d="M7.49992 27.107V27.6532C6.93163 27.6163 6.65115 27.8672 6.65115 28.5684V29.7714H5.97217V27.1513H6.65115V27.6311L6.85781 27.2694C6.98327 27.1513 7.16042 27.0923 7.30802 27.0923C7.38921 27.0923 7.44088 27.0923 7.49992 27.107Z" fill="#474546"/>
<path d="M10.1865 28.6422H8.32666C8.37094 29.1957 8.61448 29.3655 8.93183 29.3655C9.21967 29.3655 9.43372 29.2031 9.478 28.9226H10.157C10.0241 29.5352 9.52966 29.8452 8.91708 29.8452C8.20118 29.8452 7.64026 29.395 7.64026 28.4798C7.64026 27.6753 8.16428 27.0923 8.96875 27.0923C9.77322 27.0923 10.1939 27.7049 10.1939 28.4134C10.2013 28.4724 10.2013 28.5536 10.1865 28.6422ZM8.3488 28.1993H9.50014C9.45586 27.786 9.27135 27.5646 8.94661 27.5646C8.62925 27.5646 8.40784 27.7639 8.3488 28.1993Z" fill="#474546"/>
<path d="M12.9911 28.0966H12.3195C12.2531 27.7202 12.0612 27.5578 11.7807 27.5578C11.4338 27.5578 11.1903 27.8383 11.1903 28.4361C11.1903 29.0855 11.4338 29.3586 11.7733 29.3586C12.039 29.3586 12.2383 29.1889 12.3047 28.8641H12.9837C12.873 29.5062 12.3859 29.8383 11.7364 29.8383C11.0205 29.8383 10.4891 29.3881 10.4891 28.4804C10.4891 27.5873 11.0796 27.0854 11.7955 27.0854C12.504 27.0854 12.9468 27.5209 12.9911 28.0966Z" fill="#474546"/>
<path d="M15.7588 28.0966H15.0872C15.0208 27.7202 14.8289 27.5578 14.5484 27.5578C14.2015 27.5578 13.958 27.8383 13.958 28.4361C13.958 29.0855 14.2015 29.3586 14.541 29.3586C14.8067 29.3586 15.006 29.1889 15.0724 28.8641H15.7514C15.6407 29.5062 15.1536 29.8383 14.5041 29.8383C13.7882 29.8383 13.2568 29.3881 13.2568 28.4804C13.2568 27.5873 13.8473 27.0854 14.5632 27.0854C15.2717 27.0854 15.7071 27.5209 15.7588 28.0966Z" fill="#474546"/>
<path d="M16.9027 26.5389C16.9027 26.7529 16.7477 26.9005 16.5263 26.9005C16.3049 26.9005 16.1499 26.7603 16.1499 26.5389C16.1499 26.3249 16.3049 26.1772 16.5263 26.1772C16.7477 26.1772 16.9027 26.3249 16.9027 26.5389ZM16.1868 29.7715V27.1515H16.8658V29.7715H16.1868Z" fill="#474546"/>
<path d="M20.0395 28.4652C20.0395 29.2549 19.5524 29.8454 18.6815 29.8454C17.8106 29.8454 17.3235 29.2623 17.3235 28.4652C17.3235 27.6682 17.8106 27.0851 18.6815 27.0851C19.5524 27.0851 20.0395 27.6682 20.0395 28.4652ZM19.331 28.4652C19.331 27.8969 19.0874 27.5648 18.6741 27.5648C18.2682 27.5648 18.0172 27.8969 18.0172 28.4652C18.0172 29.0262 18.2608 29.3657 18.6741 29.3657C19.0874 29.3657 19.331 29.0262 19.331 28.4652ZM18.4601 26.9449L18.8438 26.3618H19.4564L18.8438 26.9449H18.4601Z" fill="#474546"/>
<path d="M22.9399 28.2959V29.772H22.2608V28.3918C22.2608 28.2811 22.2608 28.163 22.2535 28.0302C22.2313 27.7571 22.0837 27.5652 21.7516 27.5652C21.4195 27.5652 21.1612 27.8531 21.1612 28.5764V29.772H20.4822V27.1519H21.1612V27.5726L21.3605 27.2626C21.545 27.1298 21.7368 27.0781 21.9878 27.0781C22.5413 27.0781 22.866 27.3512 22.9177 27.8088C22.9399 27.949 22.9399 28.0819 22.9399 28.2959Z" fill="#474546"/>
<path d="M27.3239 29.772H26.5785C26.4973 29.5432 26.4456 29.3366 26.4087 29.0118C26.3644 28.6502 26.2242 28.4288 25.9511 28.4066C25.8551 28.3992 25.774 28.3992 25.6854 28.3992H25.2943V29.7646H24.6152V26.3696H25.8551C26.0544 26.3696 26.1799 26.377 26.3497 26.3918C26.8442 26.4508 27.2427 26.7091 27.2427 27.2922C27.2427 27.7276 26.9844 28.0081 26.5785 28.1188C26.9106 28.2443 27.0434 28.5247 27.0803 28.9085C27.1246 29.3292 27.191 29.5801 27.3239 29.772ZM25.7666 27.8974C25.8847 27.8974 25.9658 27.8974 26.0397 27.89C26.3127 27.8679 26.5268 27.735 26.5268 27.4029C26.5268 27.0708 26.3423 26.9527 26.0766 26.9232C25.9954 26.9158 25.9142 26.9084 25.7887 26.9084H25.2943V27.8974H25.7666Z" fill="#474546"/>
<path d="M30.0767 28.6422H28.2168C28.2611 29.1957 28.5046 29.3655 28.822 29.3655C29.1098 29.3655 29.3238 29.2031 29.3681 28.9226H30.0471C29.9143 29.5352 29.4198 29.8452 28.8072 29.8452C28.0913 29.8452 27.5304 29.395 27.5304 28.4798C27.5304 27.6753 28.0544 27.0923 28.8589 27.0923C29.6633 27.0923 30.084 27.7049 30.084 28.4134C30.0914 28.4724 30.0914 28.5536 30.0767 28.6422ZM28.2389 28.1993H29.3903C29.346 27.786 29.1615 27.5646 28.8367 27.5646C28.5194 27.5646 28.298 27.7639 28.2389 28.1993Z" fill="#474546"/>
<path d="M33.1028 29.1219C33.1028 29.2843 33.1028 29.4835 33.0954 29.6312C33.0659 30.4504 32.5345 30.8415 31.7079 30.8415C30.9403 30.8415 30.5123 30.5242 30.4532 29.9485L30.4458 29.8968H31.1027L31.11 29.9411C31.1396 30.1847 31.3684 30.3323 31.7153 30.3323C32.1359 30.3323 32.3869 30.1183 32.4164 29.705C32.4238 29.609 32.4238 29.4983 32.4238 29.3876V29.3212L32.2245 29.609C32.0769 29.7197 31.8407 29.7935 31.575 29.7935C30.837 29.7935 30.3794 29.2695 30.3794 28.5019C30.3794 27.5499 30.9625 27.0923 31.6341 27.0923C31.8481 27.0923 32.1138 27.1439 32.2467 27.2399L32.4164 27.513V27.1661H33.0954V29.1219H33.1028ZM32.4238 28.4355V28.3617C32.4238 27.7713 32.0843 27.5573 31.7669 27.5573C31.3758 27.5573 31.0805 27.8303 31.0805 28.4281C31.0805 28.9669 31.3389 29.3064 31.7374 29.3064C32.1138 29.3138 32.4238 29.0776 32.4238 28.4355Z" fill="#474546"/>
<path d="M34.4461 26.5389C34.4461 26.7529 34.2911 26.9005 34.0696 26.9005C33.8482 26.9005 33.6932 26.7603 33.6932 26.5389C33.6932 26.3249 33.8482 26.1772 34.0696 26.1772C34.2911 26.1772 34.4461 26.3249 34.4461 26.5389ZM33.7302 29.7715V27.1515H34.4092V29.7715H33.7302Z" fill="#474546"/>
<path d="M37.5828 28.4656C37.5828 29.2553 37.0957 29.8457 36.2248 29.8457C35.3539 29.8457 34.8668 29.2627 34.8668 28.4656C34.8668 27.6685 35.3539 27.0854 36.2248 27.0854C37.0957 27.0854 37.5828 27.6685 37.5828 28.4656ZM36.8743 28.4656C36.8743 27.8973 36.6308 27.5652 36.2175 27.5652C35.8115 27.5652 35.5606 27.8973 35.5606 28.4656C35.5606 29.0265 35.8041 29.366 36.2175 29.366C36.6308 29.366 36.8743 29.0265 36.8743 28.4656Z" fill="#474546"/>
<path d="M40.483 28.2959V29.772H39.8041V28.3918C39.8041 28.2811 39.804 28.163 39.7967 28.0302C39.7745 27.7571 39.6269 27.5652 39.2948 27.5652C38.9627 27.5652 38.7044 27.8531 38.7044 28.5764V29.772H38.0254V27.1519H38.7044V27.5726L38.9036 27.2626C39.0881 27.1298 39.28 27.0781 39.531 27.0781C40.0845 27.0781 40.4093 27.3512 40.4609 27.8088C40.4757 27.949 40.483 28.0819 40.483 28.2959Z" fill="#474546"/>
<path d="M42.5497 29.3876L42.4242 29.6681C42.2397 29.7935 42.0183 29.8378 41.7747 29.8378C41.3245 29.8378 40.9333 29.5721 40.9333 29.0776C40.9333 28.5019 41.4278 28.1772 42.3725 28.1772H42.5423V28.1255C42.5423 28.0444 42.5423 27.9706 42.5349 27.882C42.5128 27.6975 42.3947 27.5646 42.129 27.5646C41.8559 27.5646 41.7083 27.7196 41.6936 28.0075L41.0367 28.0148C41.0588 27.4244 41.5312 27.0923 42.1585 27.0923C42.8892 27.0923 43.1696 27.4096 43.2065 27.8672C43.2139 27.9927 43.2213 28.1255 43.2213 28.2732V29.1219C43.2213 29.3212 43.2287 29.4983 43.273 29.7861H42.6087L42.5497 29.3876ZM42.5423 28.8045V28.5905C42.0036 28.5536 41.6345 28.6717 41.6345 29.0186C41.6345 29.2474 41.7895 29.3581 42.0331 29.3581C42.3135 29.3655 42.5423 29.1736 42.5423 28.8045Z" fill="#474546"/>
<path d="M44.5055 28.9156C44.5055 29.0189 44.5055 29.0853 44.5129 29.1591C44.5277 29.292 44.5867 29.3362 44.8155 29.3215V29.7864C44.6826 29.8012 44.5498 29.8086 44.3948 29.8086C44.0627 29.8086 43.8487 29.6831 43.8339 29.3436C43.8265 29.2255 43.8265 29.1001 43.8265 28.9303V26.1553H44.5055V28.9156Z" fill="#474546"/>
<path d="M48.7197 29.7717H48.0407V29.3658L47.8414 29.6536C47.6938 29.7643 47.4281 29.8381 47.1624 29.8381C46.4318 29.8381 45.9963 29.2846 45.9963 28.5096C45.9963 27.5576 46.5794 27.0852 47.251 27.0852C47.4651 27.0852 47.7307 27.1369 47.8636 27.2328L48.0333 27.5059V26.1553H48.7123V29.7717H48.7197ZM48.0407 28.4949V28.3694C48.0407 27.779 47.7012 27.5649 47.3839 27.5649C46.9927 27.5649 46.6975 27.8675 46.6975 28.4727C46.6975 29.0115 46.9558 29.3658 47.3543 29.3658C47.7307 29.3658 48.0407 29.1296 48.0407 28.4949Z" fill="#474546"/>
<path d="M51.7162 28.6422H49.8563C49.9006 29.1957 50.1441 29.3655 50.4615 29.3655C50.7493 29.3655 50.9634 29.2031 51.0076 28.9226H51.6866C51.5538 29.5352 51.0593 29.8452 50.4467 29.8452C49.7308 29.8452 49.1699 29.395 49.1699 28.4798C49.1699 27.6753 49.6939 27.0923 50.4984 27.0923C51.3029 27.0923 51.7236 27.7049 51.7236 28.4134C51.7236 28.4724 51.7236 28.5536 51.7162 28.6422ZM49.8785 28.1993H51.0298C50.9855 27.786 50.801 27.5646 50.4763 27.5646C50.1589 27.5646 49.9375 27.7639 49.8785 28.1993Z" fill="#474546"/>
<path d="M54.7864 26.9079V29.7715H54.1074V26.9079H52.9561V26.3765H55.9377V26.9079H54.7864Z" fill="#474546"/>
<path d="M57.495 27.107V27.6532C56.9267 27.6163 56.6463 27.8672 56.6463 28.5684V29.7714H55.9673V27.1513H56.6463V27.6311L56.8529 27.2694C56.9784 27.1513 57.1555 27.0923 57.3031 27.0923C57.3843 27.0923 57.436 27.0923 57.495 27.107Z" fill="#474546"/>
<path d="M59.3107 29.3876L59.1852 29.6681C59.0007 29.7935 58.7793 29.8378 58.5357 29.8378C58.0855 29.8378 57.6943 29.5721 57.6943 29.0776C57.6943 28.5019 58.1888 28.1772 59.1335 28.1772H59.3033V28.1255C59.3033 28.0444 59.3033 27.9706 59.2959 27.882C59.2737 27.6975 59.1557 27.5646 58.89 27.5646C58.6169 27.5646 58.4693 27.7196 58.4545 28.0075L57.7977 28.0148C57.8198 27.4244 58.2922 27.0923 58.9195 27.0923C59.6502 27.0923 59.9306 27.4096 59.9675 27.8672C59.9749 27.9927 59.9823 28.1255 59.9823 28.2732V29.1219C59.9823 29.3212 59.9896 29.4983 60.0339 29.7861H59.3697L59.3107 29.3876ZM59.3033 28.8045V28.5905C58.7645 28.5536 58.3955 28.6717 58.3955 29.0186C58.3955 29.2474 58.5505 29.3581 58.794 29.3581C59.0671 29.3655 59.3033 29.1736 59.3033 28.8045Z" fill="#474546"/>
<path d="M63.0673 28.2959V29.772H62.3883V28.3918C62.3883 28.2811 62.3883 28.163 62.3809 28.0302C62.3588 27.7571 62.2112 27.5652 61.879 27.5652C61.5469 27.5652 61.2886 27.8531 61.2886 28.5764V29.772H60.6096V27.1519H61.2886V27.5726L61.4879 27.2626C61.6724 27.1298 61.8643 27.0781 62.1152 27.0781C62.6687 27.0781 62.9935 27.3512 63.0452 27.8088C63.0599 27.949 63.0673 28.0819 63.0673 28.2959Z" fill="#474546"/>
<path d="M65.6358 27.9121H64.9568C64.9125 27.6685 64.7796 27.5357 64.5508 27.5357C64.3516 27.5357 64.2409 27.6537 64.2409 27.8161C64.2409 28.0154 64.4033 28.1187 64.8387 28.222C65.3775 28.3623 65.6875 28.5763 65.6875 29.056C65.6875 29.58 65.2077 29.8383 64.6099 29.8383C63.9752 29.8383 63.525 29.5653 63.4512 28.9748H64.1302C64.1819 29.2627 64.3811 29.3955 64.6173 29.3955C64.8313 29.3955 65.0011 29.2996 65.0011 29.1077C65.0011 28.9084 64.8313 28.7903 64.3737 28.6796C63.8866 28.5542 63.5545 28.3475 63.5545 27.8899C63.5545 27.388 63.9678 27.0854 64.5952 27.0854C65.2225 27.0854 65.5768 27.4323 65.6358 27.9121Z" fill="#474546"/>
<path d="M68.8313 28.414C68.8313 29.3587 68.2483 29.8384 67.5767 29.8384C67.3626 29.8384 67.0969 29.7867 66.9641 29.6908L66.7943 29.4177V30.7314H66.1154V27.1519H66.7943V27.5505L66.9936 27.2626C67.1412 27.1445 67.4069 27.0781 67.6726 27.0781C68.3959 27.0855 68.8313 27.639 68.8313 28.414ZM68.1302 28.4583C68.1302 27.9195 67.8719 27.5652 67.4733 27.5652C67.0969 27.5652 66.7943 27.794 66.7943 28.4361V28.5616C66.7943 29.1594 67.1339 29.3661 67.4512 29.3661C67.835 29.3661 68.1302 29.0635 68.1302 28.4583Z" fill="#474546"/>
<path d="M71.813 28.4656C71.813 29.2553 71.3259 29.8457 70.455 29.8457C69.5841 29.8457 69.097 29.2627 69.097 28.4656C69.097 27.6685 69.5841 27.0854 70.455 27.0854C71.3259 27.0854 71.813 27.6685 71.813 28.4656ZM71.1119 28.4656C71.1119 27.8973 70.8683 27.5652 70.455 27.5652C70.0491 27.5652 69.7982 27.8973 69.7982 28.4656C69.7982 29.0265 70.0417 29.366 70.455 29.366C70.8609 29.366 71.1119 29.0265 71.1119 28.4656Z" fill="#474546"/>
<path d="M73.7837 27.107V27.6532C73.2154 27.6163 72.935 27.8672 72.935 28.5684V29.7714H72.256V27.1513H72.935V27.6311L73.1416 27.2694C73.2671 27.1513 73.4442 27.0923 73.5918 27.0923C73.6656 27.0923 73.7247 27.0923 73.7837 27.107Z" fill="#474546"/>
<path d="M74.9424 28.8344C74.9424 28.923 74.9424 28.9968 74.9497 29.0632C74.9719 29.3215 75.0604 29.3806 75.4442 29.3511V29.7939C75.2892 29.816 75.149 29.8308 74.994 29.8308C74.4848 29.8308 74.3077 29.661 74.2781 29.292C74.2708 29.1739 74.2708 29.0632 74.2708 28.9156V27.624H73.887V27.1738H74.2708V26.5317H74.9497V27.1738H75.4885V27.624H74.9497V28.8344H74.9424Z" fill="#474546"/>
<path d="M78.2267 28.6422H76.3668C76.4111 29.1957 76.6546 29.3655 76.972 29.3655C77.2598 29.3655 77.4739 29.2031 77.5181 28.9226H78.1972C78.0643 29.5352 77.5698 29.8452 76.9573 29.8452C76.2414 29.8452 75.6804 29.395 75.6804 28.4798C75.6804 27.6753 76.2044 27.0923 77.0089 27.0923C77.8134 27.0923 78.2341 27.7049 78.2341 28.4134C78.2341 28.4724 78.2341 28.5536 78.2267 28.6422ZM76.389 28.1993H77.5403C77.496 27.786 77.3115 27.5646 76.9868 27.5646C76.6694 27.5646 76.448 27.7639 76.389 28.1993Z" fill="#474546"/>
<path d="M80.6769 27.9121H79.9979C79.9537 27.6685 79.8208 27.5357 79.592 27.5357C79.3927 27.5357 79.282 27.6537 79.282 27.8161C79.282 28.0154 79.4444 28.1187 79.8798 28.222C80.4186 28.3623 80.7286 28.5763 80.7286 29.056C80.7286 29.58 80.2489 29.8383 79.651 29.8383C79.0163 29.8383 78.5661 29.5653 78.4923 28.9748H79.1713C79.223 29.2627 79.4223 29.3955 79.6584 29.3955C79.8725 29.3955 80.0422 29.2996 80.0422 29.1077C80.0422 28.9084 79.8725 28.7903 79.4149 28.6796C78.9278 28.5542 78.5956 28.3475 78.5956 27.8899C78.5956 27.388 79.0089 27.0854 79.6363 27.0854C80.2636 27.0854 80.6179 27.4323 80.6769 27.9121Z" fill="#474546"/>
<path d="M83.5331 29.8751C83.26 30.5836 82.9722 30.8124 82.4408 30.8124C82.3153 30.8124 82.2341 30.8051 82.1382 30.7903V30.3253C82.2046 30.3327 82.271 30.3327 82.3375 30.3327C82.5663 30.3327 82.7212 30.2441 82.8319 29.9858L82.8688 29.9046L81.7987 27.1665H82.5589L83.2083 29.2699L83.8504 27.1665H84.5959L83.5331 29.8751Z" fill="#474546"/>
<path d="M89.8508 27.4767L89.8582 27.5284H89.1792L89.1718 27.4767C89.0907 27.056 88.8323 26.8125 88.3821 26.8125C87.836 26.8125 87.467 27.2774 87.467 28.0524C87.467 28.9011 87.8581 29.3292 88.3747 29.3292C88.8176 29.3292 89.0759 29.0635 89.1645 28.6428L89.1718 28.5912H89.8434L89.8361 28.6428C89.7623 29.3661 89.2087 29.8384 88.3379 29.8384C87.3932 29.8384 86.7437 29.1742 86.7437 28.0893C86.7437 26.9748 87.4448 26.3032 88.3895 26.3032C89.3047 26.3106 89.777 26.8125 89.8508 27.4767Z" fill="#474546"/>
<path d="M92.8695 28.4656C92.8695 29.2553 92.3824 29.8457 91.5115 29.8457C90.6406 29.8457 90.1534 29.2627 90.1534 28.4656C90.1534 27.6685 90.6406 27.0854 91.5115 27.0854C92.3824 27.0854 92.8695 27.6685 92.8695 28.4656ZM92.1683 28.4656C92.1683 27.8973 91.9248 27.5652 91.5115 27.5652C91.1055 27.5652 90.8546 27.8973 90.8546 28.4656C90.8546 29.0265 91.0982 29.366 91.5115 29.366C91.9174 29.366 92.1683 29.0265 92.1683 28.4656Z" fill="#474546"/>
<path d="M97.2241 28.2144V29.7717H96.5451V28.4063C96.5451 28.2513 96.5377 28.1111 96.5229 27.9782C96.486 27.7051 96.3384 27.5575 96.0801 27.5575C95.7775 27.5575 95.6004 27.8158 95.6004 28.421V29.7643H94.9288V28.3989C94.9288 28.2439 94.9214 28.1037 94.9066 27.9708C94.8697 27.6978 94.7221 27.5502 94.4564 27.5502C94.1538 27.5502 93.984 27.8085 93.984 28.4137V29.7569H93.3051V27.1368H93.984V27.5354L94.1759 27.218C94.3235 27.1147 94.4933 27.063 94.7295 27.063C95.1575 27.063 95.4306 27.2771 95.534 27.5575L95.7923 27.2107C95.9399 27.1073 96.117 27.0557 96.3532 27.0557C96.8477 27.0557 97.1355 27.3435 97.1946 27.7051C97.2241 27.8675 97.2241 28.0004 97.2241 28.2144Z" fill="#474546"/>
<path d="M100.242 29.7719H99.5634V29.3291L99.3641 29.6612C99.1723 29.7867 98.9877 29.8383 98.7368 29.8383C98.198 29.8383 97.8733 29.5357 97.8142 29.1741C97.7921 29.0412 97.7921 28.9084 97.7921 28.6944V27.1519H98.4711V28.5541C98.4711 28.6353 98.4785 28.7829 98.4933 28.9158C98.5302 29.1889 98.6852 29.3586 99.0025 29.3586C99.342 29.3586 99.5782 29.0781 99.5782 28.4877V27.1519H100.257V29.7719H100.242Z" fill="#474546"/>
<path d="M103.328 28.2959V29.772H102.649V28.3918C102.649 28.2811 102.649 28.163 102.641 28.0302C102.619 27.7571 102.471 27.5652 102.139 27.5652C101.807 27.5652 101.549 27.8531 101.549 28.5764V29.772H100.87V27.1519H101.549V27.5726L101.748 27.2626C101.933 27.1298 102.125 27.0781 102.375 27.0781C102.929 27.0781 103.254 27.3512 103.305 27.8088C103.32 27.949 103.328 28.0819 103.328 28.2959Z" fill="#474546"/>
<path d="M104.634 26.5389C104.634 26.7529 104.479 26.9005 104.257 26.9005C104.036 26.9005 103.881 26.7603 103.881 26.5389C103.881 26.3249 104.036 26.1772 104.257 26.1772C104.479 26.1772 104.634 26.3249 104.634 26.5389ZM103.918 29.7715V27.1515H104.597V29.7715H103.918Z" fill="#474546"/>
<path d="M107.557 28.0966H106.885C106.819 27.7202 106.627 27.5578 106.346 27.5578C105.999 27.5578 105.756 27.8383 105.756 28.4361C105.756 29.0855 105.999 29.3586 106.339 29.3586C106.604 29.3586 106.804 29.1889 106.87 28.8641H107.549C107.438 29.5062 106.951 29.8383 106.302 29.8383C105.586 29.8383 105.055 29.3881 105.055 28.4804C105.055 27.5873 105.645 27.0854 106.361 27.0854C107.069 27.0854 107.512 27.5209 107.557 28.0966Z" fill="#474546"/>
<path d="M109.461 29.3876L109.335 29.6681C109.151 29.7935 108.929 29.8378 108.686 29.8378C108.236 29.8378 107.844 29.5721 107.844 29.0776C107.844 28.5019 108.339 28.1772 109.284 28.1772H109.453V28.1255C109.453 28.0444 109.453 27.9706 109.446 27.882C109.424 27.6975 109.306 27.5646 109.04 27.5646C108.767 27.5646 108.619 27.7196 108.605 28.0075L107.948 28.0148C107.97 27.4244 108.442 27.0923 109.069 27.0923C109.8 27.0923 110.081 27.4096 110.118 27.8672C110.125 27.9927 110.132 28.1255 110.132 28.2732V29.1219C110.132 29.3212 110.14 29.4983 110.184 29.7861H109.52L109.461 29.3876ZM109.453 28.8045V28.5905C108.915 28.5536 108.546 28.6717 108.546 29.0186C108.546 29.2474 108.7 29.3581 108.944 29.3581C109.224 29.3655 109.453 29.1736 109.453 28.8045Z" fill="#474546"/>
<path d="M113.084 28.0966H112.413C112.346 27.7202 112.155 27.5578 111.874 27.5578C111.527 27.5578 111.284 27.8383 111.284 28.4361C111.284 29.0855 111.527 29.3586 111.867 29.3586C112.132 29.3586 112.332 29.1889 112.398 28.8641H113.077C112.966 29.5062 112.479 29.8383 111.83 29.8383C111.114 29.8383 110.583 29.3881 110.583 28.4804C110.583 27.5873 111.173 27.0854 111.889 27.0854C112.597 27.0854 113.033 27.5209 113.084 28.0966Z" fill="#474546"/>
<path d="M114.236 26.5389C114.236 26.7529 114.081 26.9005 113.86 26.9005C113.638 26.9005 113.483 26.7603 113.483 26.5389C113.483 26.3249 113.638 26.1772 113.86 26.1772C114.081 26.1772 114.236 26.3249 114.236 26.5389ZM113.52 29.7715V27.1515H114.199V29.7715H113.52Z" fill="#474546"/>
<path d="M117.365 28.4656C117.365 29.2553 116.878 29.8457 116.007 29.8457C115.136 29.8457 114.649 29.2627 114.649 28.4656C114.649 27.6685 115.136 27.0854 116.007 27.0854C116.878 27.0854 117.365 27.6685 117.365 28.4656ZM116.664 28.4656C116.664 27.8973 116.42 27.5652 116.007 27.5652C115.601 27.5652 115.35 27.8973 115.35 28.4656C115.35 29.0265 115.594 29.366 116.007 29.366C116.42 29.366 116.664 29.0265 116.664 28.4656Z" fill="#474546"/>
<path d="M120.273 28.2959V29.772H119.594V28.3918C119.594 28.2811 119.594 28.163 119.587 28.0302C119.565 27.7571 119.417 27.5652 119.085 27.5652C118.753 27.5652 118.494 27.8531 118.494 28.5764V29.772H117.815V27.1519H118.494V27.5726L118.694 27.2626C118.878 27.1298 119.07 27.0781 119.321 27.0781C119.875 27.0781 120.199 27.3512 120.251 27.8088C120.266 27.949 120.273 28.0819 120.273 28.2959Z" fill="#474546"/>
<path d="M123.232 28.6422H121.373C121.417 29.1957 121.66 29.3655 121.978 29.3655C122.266 29.3655 122.48 29.2031 122.524 28.9226H123.203C123.07 29.5352 122.576 29.8452 121.963 29.8452C121.247 29.8452 120.686 29.395 120.686 28.4798C120.686 27.6753 121.21 27.0923 122.015 27.0923C122.819 27.0923 123.24 27.7049 123.24 28.4134C123.247 28.4724 123.247 28.5536 123.232 28.6422ZM121.395 28.1993H122.546C122.502 27.786 122.317 27.5646 121.992 27.5646C121.675 27.5646 121.454 27.7639 121.395 28.1993Z" fill="#474546"/>
<path d="M125.683 27.9121H125.004C124.96 27.6685 124.827 27.5357 124.598 27.5357C124.399 27.5357 124.288 27.6537 124.288 27.8161C124.288 28.0154 124.45 28.1187 124.886 28.222C125.425 28.3623 125.735 28.5763 125.735 29.056C125.735 29.58 125.255 29.8383 124.657 29.8383C124.022 29.8383 123.572 29.5653 123.498 28.9748H124.177C124.229 29.2627 124.428 29.3955 124.664 29.3955C124.878 29.3955 125.048 29.2996 125.048 29.1077C125.048 28.9084 124.878 28.7903 124.421 28.6796C123.934 28.5542 123.602 28.3475 123.602 27.8899C123.602 27.388 124.015 27.0854 124.642 27.0854C125.27 27.0854 125.631 27.4323 125.683 27.9121Z" fill="#474546"/>
<path d="M73.0383 23.6903H99.416C100.863 22.3987 101.483 20.2436 101.497 18.8413H82.7215C80.7435 21.5499 77.7028 23.7641 73.0383 23.6903Z" fill="#93939A"/>
<path d="M96.5969 12.2579C94.5008 10.7375 92.5155 9.30568 92.5155 7.1875C92.5155 3.87368 96.2721 1.58575 98.7003 0.456543H95.8367C95.8367 0.456543 93.689 0.700098 91.1058 2.64853C88.9065 4.30175 87.9027 6.51588 86.4783 10.6268C85.6886 12.9073 84.6996 16.1547 82.729 18.8486H101.505C101.505 18.8338 101.505 18.8117 101.505 18.7969C101.497 15.8078 99.0029 14.007 96.5969 12.2579Z" fill="#808080"/>
</svg>
