<svg width="129" height="32" viewBox="0 0 129 32" fill="none" xmlns="http://www.w3.org/2000/svg">
<path d="M15.3837 0.00898525C16.0216 0.0988377 16.6596 0.161734 17.2975 0.269557C22.7246 1.17707 26.2199 4.29495 27.8372 9.52436C28.4842 11.6089 28.565 13.7564 28.5381 15.9219C28.5381 16.1734 28.5201 16.416 28.5201 16.6676C28.5021 17.4494 28.0169 17.9346 27.2352 17.9615C27.1094 17.9615 26.9836 17.9615 26.8668 17.9615C21.2061 17.9615 15.5544 17.9615 9.89369 17.9615C9.61515 17.9615 9.34559 17.9885 9.06705 17.9885C8.64474 17.9885 8.50996 18.1951 8.51895 18.6084C8.52794 20.8188 9.47139 22.508 11.3223 23.7031C12.3197 24.341 13.4339 24.6555 14.593 24.7364C16.1205 24.8442 17.648 24.7903 19.1126 24.2602C20.1908 23.8738 21.0983 23.2089 22.0238 22.562C22.1675 22.4631 22.3113 22.3553 22.473 22.2744C22.7516 22.1397 23.0211 22.1396 23.2727 22.3733C24.3959 23.4245 25.519 24.4758 26.6602 25.5181C27.2981 26.1021 27.3071 26.4705 26.5434 27.0276C25.6448 27.6746 24.7014 28.2856 23.74 28.8337C21.7183 29.9838 19.5438 30.7475 17.2257 31.044C15.2399 31.2956 13.2452 31.1608 11.2774 30.7745C9.40849 30.4061 7.65637 29.7591 6.09293 28.6629C3.77474 27.0546 2.34609 24.8352 1.53741 22.2025C0.755697 19.6597 0.549037 17.045 0.67483 14.3944C0.782653 11.9414 1.2409 9.56929 2.31015 7.34993C4.17908 3.48628 7.23406 1.15011 11.4571 0.350425C12.131 0.224631 12.8139 0.179705 13.4968 0.0898525C13.6046 0.071882 13.7034 0.035941 13.8113 0C14.3414 0.00898525 14.8625 0.00898525 15.3837 0.00898525ZM20.7299 12.768C20.658 12.2289 20.6131 11.7257 20.5143 11.2405C20.1459 9.38958 19.2653 7.88006 17.5222 6.99052C16.39 6.41547 15.186 6.20881 13.9281 6.3346C11.8345 6.55923 10.1992 7.50268 9.23777 9.43451C8.78851 10.342 8.57286 11.3124 8.48301 12.3188C8.44707 12.7141 8.56388 12.804 8.94126 12.804C12.6971 12.795 16.4529 12.795 20.2088 12.795C20.3615 12.795 20.5053 12.777 20.7299 12.768Z" fill="#333333"/>
<path d="M128.475 24.8171C128.304 25.1944 127.99 25.2933 127.612 25.2753C126.462 25.2304 125.294 25.3023 124.162 25.1226C121.718 24.7182 120.604 22.8313 120.505 20.8636C120.397 18.7161 120.451 16.5506 120.451 14.3942C120.442 11.2224 120.442 8.05059 120.442 4.8788C120.442 3.7826 120.469 3.74666 121.565 3.72869C122.419 3.71072 123.272 3.72869 124.126 3.72869C124.629 3.72869 124.818 3.91738 124.827 4.42055C124.827 5.50777 124.827 6.59498 124.827 7.67321C124.827 11.3392 124.818 15.0052 124.836 18.6712C124.836 19.1743 124.881 19.6865 124.998 20.1807C125.186 21.0073 125.761 21.4206 126.606 21.4386C126.911 21.4476 127.208 21.4476 127.514 21.4386C127.963 21.4206 128.313 21.5554 128.475 22.0137C128.475 22.9571 128.475 23.8826 128.475 24.8171Z" fill="#333333"/>
<path d="M64.1941 17.4676C62.433 17.4676 60.6719 17.4676 58.9108 17.4676C58.2549 17.4676 58.1471 17.6203 58.21 18.2583C58.4436 20.4417 60.1867 21.502 61.9658 21.6367C63.6101 21.7625 65.0837 21.3672 66.4135 20.3608C67.0335 19.8936 66.8987 19.9565 67.4288 20.4327C68.0758 21.0257 68.7137 21.6367 69.3606 22.2298C69.5943 22.4364 69.5493 22.6341 69.3696 22.8318C69.2169 22.9935 69.0462 23.1373 68.8665 23.2631C67.294 24.3413 65.6048 25.159 63.7089 25.4195C61.5525 25.716 59.4499 25.4645 57.4911 24.4671C55.8019 23.6045 54.6788 22.2208 54.1037 20.4327C53.1872 17.5754 53.1153 14.6822 54.1396 11.8338C55.2179 8.82378 57.4103 7.13455 60.5731 6.70326C62.3072 6.46964 64.0144 6.61341 65.6228 7.31426C68.3004 8.47335 69.738 10.6208 70.1963 13.4242C70.376 14.5025 70.34 15.6076 70.367 16.7038C70.376 17.2519 70.1244 17.4586 69.5673 17.4676C67.7792 17.4676 65.9822 17.4676 64.1941 17.4676ZM65.6497 14.3497C65.5599 12.93 65.1825 11.6721 63.9156 10.9443C62.5498 10.1536 61.1122 10.1716 59.7734 11.0252C58.5873 11.7799 58.2818 13.0109 58.156 14.3497C60.6629 14.3497 63.1249 14.3497 65.6497 14.3497Z" fill="#333333"/>
<path d="M117.679 22.5797C116.052 23.9994 114.255 24.9428 112.207 25.3292C110.059 25.7425 107.957 25.5359 105.953 24.6643C104.084 23.8466 102.817 22.4359 102.179 20.5221C101.218 17.6738 101.155 14.7715 102.143 11.9232C103.203 8.85025 105.423 7.10712 108.667 6.69379C110.302 6.47815 111.91 6.61293 113.447 7.22392C116.142 8.30215 117.679 10.3688 118.191 13.1542C118.416 14.3672 118.344 15.6341 118.389 16.8831C118.398 17.2515 118.137 17.4132 117.805 17.4581C117.661 17.4851 117.499 17.4671 117.355 17.4671C114.076 17.4671 110.805 17.4671 107.525 17.4671C107.211 17.4671 106.896 17.521 106.582 17.53C106.276 17.539 106.196 17.6648 106.214 17.9703C106.357 20.0549 107.858 21.5015 109.951 21.6363C111.614 21.7441 113.105 21.3847 114.444 20.3604C114.983 19.947 115.019 19.983 115.513 20.4502C116.088 20.9893 116.663 21.5195 117.229 22.0586C117.373 22.2113 117.508 22.382 117.679 22.5797ZM106.241 14.3492C108.729 14.3492 111.2 14.3492 113.662 14.3492C113.878 12.2736 112.198 10.4227 110.032 10.3957C107.849 10.3688 106.267 11.8064 106.241 14.3492Z" fill="#333333"/>
<path d="M77.3239 8.32077C78.465 7.56601 79.5253 6.99994 80.7293 6.74835C84.0898 6.06547 87.6749 7.6918 88.4297 11.4117C88.5465 11.9957 88.6273 12.6067 88.6363 13.2087C88.6543 16.9736 88.6453 20.7384 88.6453 24.5032C88.6453 25.0872 88.4387 25.2849 87.8546 25.2849C86.7494 25.2849 85.6532 25.2849 84.548 25.2849C83.991 25.2849 83.8112 25.1052 83.8112 24.5391C83.8112 21.2685 83.8292 17.9979 83.7933 14.7362C83.7843 14.0444 83.6765 13.3345 83.4698 12.6786C82.9756 11.1242 81.5919 10.5581 80.1902 10.7378C78.4291 10.9624 77.3509 12.0317 77.3329 13.6041C77.288 17.1623 77.2969 20.7204 77.279 24.2786C77.279 24.4313 77.279 24.5841 77.261 24.7278C77.2161 25.0962 77.0184 25.2849 76.632 25.2849C75.464 25.2849 74.2959 25.2759 73.1188 25.2849C72.7055 25.2849 72.4988 25.0962 72.4629 24.7099C72.4359 24.4493 72.4539 24.1887 72.4539 23.9281C72.4539 18.546 72.4629 13.1638 72.4629 7.77267C72.4629 6.964 72.6156 6.79328 73.4153 6.78429C74.3228 6.76632 75.2303 6.77531 76.1378 6.78429C76.3265 6.78429 76.5242 6.82922 76.7039 6.86516C77.0004 6.92806 77.1712 7.08081 77.1622 7.43123C77.1532 7.73673 77.261 8.03324 77.3239 8.32077Z" fill="#333333"/>
<path d="M42.2095 16.4513C42.1287 20.89 40.5562 25.2569 36.9532 28.815C36.6387 29.1205 36.2972 29.408 35.9558 29.6776C35.3448 30.1628 34.626 30.1269 34.0419 29.6057C33.1794 28.833 32.3258 28.0603 31.4722 27.2875C30.942 26.8023 30.933 26.3351 31.4542 25.8499C33.7814 23.6934 35.2909 21.0608 35.7581 17.9339C36.423 13.5131 35.3089 9.58659 32.0742 6.36988C31.9843 6.28002 31.8945 6.19916 31.8046 6.11829C31.0948 5.45338 31.0768 5.17484 31.7866 4.50094C32.5594 3.76415 33.3591 3.04533 34.1767 2.34449C34.9584 1.67059 35.6233 1.68856 36.414 2.38043C38.4896 4.18646 39.9812 6.39683 40.9696 8.94864C41.8321 11.186 42.2005 13.5131 42.2095 16.4513Z" fill="#434041"/>
<path d="M96.1489 7.37677C97.0384 7.37677 97.892 7.36779 98.7367 7.37677C99.4195 7.38576 99.5723 7.51155 99.5903 8.18545C99.6172 8.98513 99.6082 9.77583 99.6082 10.5755C99.6082 11.1685 99.3926 11.4022 98.7906 11.4291C98.1975 11.4561 97.6045 11.4381 97.0115 11.4471C96.3196 11.4561 96.1489 11.6268 96.1489 12.3007C96.1489 14.6458 96.1489 17 96.1579 19.3451C96.1579 19.6416 96.2208 19.9471 96.3017 20.2347C96.5353 21.0343 97.0744 21.4297 97.91 21.4567C98.2425 21.4656 98.5749 21.4567 98.8984 21.4656C99.3297 21.4746 99.5543 21.6633 99.5633 22.0766C99.5813 22.9392 99.5903 23.8018 99.5723 24.6734C99.5633 25.1406 99.3656 25.3023 98.8894 25.2934C97.7932 25.2754 96.679 25.3293 95.5918 25.1855C93.5162 24.898 92.0876 23.3525 91.818 21.232C91.7641 20.8097 91.7372 20.3874 91.7282 19.9651C91.7192 14.8884 91.7192 9.80279 91.7192 4.72613C91.7192 4.56439 91.7102 4.39367 91.7371 4.23194C91.8 3.93542 91.9528 3.73775 92.3032 3.74673C93.3635 3.75572 94.4237 3.73775 95.484 3.74673C95.9063 3.74673 96.077 3.92644 96.086 4.35773C96.104 5.18437 96.095 6.00203 96.104 6.82867C96.113 6.99041 96.1309 7.16113 96.1489 7.37677Z" fill="#333333"/>
</svg>
