<svg width="120" height="49" viewBox="0 0 120 49" fill="none" xmlns="http://www.w3.org/2000/svg">
<path d="M23.6042 39.0366C16.3187 38.9585 10.4724 33.1345 10.5337 25.7263C10.5895 18.5857 16.486 12.706 23.7604 12.7562C31.046 12.8064 36.8979 18.7921 36.8142 26.0108C36.7305 33.1959 30.9679 39.0255 23.6042 39.0366ZM23.6879 26.1781C23.5987 26.0777 23.5261 26.0219 23.4927 25.9494C22.7228 24.3874 21.9474 22.831 21.1832 21.2634C20.6811 20.237 20.2069 19.1994 19.6769 18.1897C19.5765 18 19.2753 17.8215 19.0577 17.8159C18.1429 17.7769 17.2224 17.8047 16.3075 17.7992C15.8835 17.7992 15.7218 17.9888 15.7218 18.4184C15.7329 23.4112 15.7329 28.4039 15.7218 33.3967C15.7218 33.8709 15.9338 34.0104 16.3689 33.9992C17.2503 33.9825 18.1317 33.9936 19.0131 33.9936C19.6881 33.9936 19.7662 33.91 19.7662 33.2238C19.7662 31.0537 19.7606 28.8837 19.755 26.7137C19.755 26.5519 19.7774 26.3845 19.7941 26.1112C19.9391 26.2618 20.0117 26.312 20.0451 26.3789C20.6532 27.6062 21.2389 28.8502 21.8693 30.0663C21.9641 30.2504 22.2654 30.429 22.4774 30.4457C23.2528 30.4903 24.0282 30.4847 24.8036 30.4513C24.9989 30.4401 25.2666 30.3062 25.3615 30.15C25.7296 29.5308 26.0476 28.8837 26.3768 28.2422C26.7338 27.5504 27.0852 26.8475 27.4925 26.061C27.5259 26.2897 27.5594 26.418 27.5594 26.5519C27.5538 28.7944 27.5483 31.0314 27.5371 33.274C27.5315 33.8821 27.6263 33.9992 28.2233 34.0048C28.8425 34.0104 29.4561 34.0048 30.0753 34.0048C31.8214 34.0048 31.5481 34.161 31.5536 32.5097C31.5592 27.8684 31.5536 23.2271 31.5536 18.5857C31.5536 17.8605 31.4978 17.8047 30.7671 17.8047C30.0084 17.8047 29.2497 17.8326 28.491 17.7936C27.9945 17.7713 27.6989 17.9609 27.4925 18.3961C27.1856 19.0488 26.8454 19.6847 26.5385 20.3374C25.7799 21.9273 25.0379 23.5172 24.2792 25.107C24.1119 25.4529 23.8999 25.7932 23.6879 26.1781Z" fill="#5F5C5D"/>
<path d="M22.3389 8.17626C22.4784 8.31014 22.6011 8.48865 22.7685 8.57233C25.5354 10.006 28.598 8.3213 29.0666 5.5153C29.1392 5.08017 29.2117 4.92955 29.7305 5.06901C32.5365 5.81654 35.0301 7.17212 37.295 8.94609C39.3032 10.5137 40.9879 12.4048 42.2989 14.6083C42.4718 14.8984 42.6392 15.1885 42.8456 15.4507C43.1413 15.83 42.9516 16.0085 42.6057 16.1591C41.9642 16.4436 41.3227 16.7337 40.6811 17.0294C39.9503 17.3697 39.2196 17.7211 38.4888 18.067C38.1485 18.2288 37.9142 18.2622 37.6743 17.8438C36.4972 15.7742 34.8795 14.1006 32.927 12.7451C29.8365 10.6029 26.4057 9.60994 22.6569 9.84981C20.8495 9.96138 19.0811 10.3296 17.3964 11.0938C16.1021 11.6796 14.847 12.3099 13.7536 13.1969C12.9224 13.8664 12.1804 14.6473 11.4162 15.3949C11.2321 15.5734 11.0926 15.7184 10.836 15.5343C9.4079 14.5079 7.9798 13.4814 6.46802 12.3936C7.37174 11.4676 8.17505 10.536 9.08435 9.72709C10.8025 8.19857 12.7104 6.92109 14.8414 6.05084C16.0408 5.55993 17.3015 5.19732 18.5511 4.83472C19.4716 4.56695 19.4493 4.606 19.572 3.67438C19.9402 0.801441 22.9024 -0.788439 25.396 0.394209C27.5325 1.4095 28.5367 4.24339 27.036 6.44133C26.0933 7.81923 24.3918 8.48865 22.8298 8.08142C22.6904 8.04795 22.5453 8.04795 22.4003 8.03121C22.3836 8.087 22.3612 8.13163 22.3389 8.17626Z" fill="#333333"/>
<path d="M8.28568 36.3814C8.33031 36.1917 8.42514 36.0021 8.41399 35.8124C8.27452 32.6996 5.28443 30.8866 2.6179 31.8851C2.20508 32.0413 2.03773 32.0525 1.89827 31.5337C1.15074 28.7333 1.07822 25.8938 1.4743 23.0432C1.83132 20.5161 2.62347 18.1173 3.87864 15.8803C4.04042 15.5902 4.21335 15.2946 4.33608 14.9878C4.5146 14.5415 4.76563 14.6196 5.06687 14.8427C5.63588 15.2555 6.20489 15.6683 6.77948 16.0756C7.44332 16.5386 8.10717 16.996 8.77659 17.4535C9.08899 17.6655 9.23403 17.8551 8.98857 18.2679C7.78361 20.3208 7.14208 22.5578 6.94125 24.9231C6.62886 28.6719 7.48795 32.1417 9.56316 35.2657C10.5673 36.7775 11.7667 38.1219 13.2729 39.1986C14.4276 40.0242 15.5991 40.7996 16.9157 41.3017C17.9142 41.6866 18.9574 41.9376 19.9894 42.2277C20.2349 42.2947 20.4301 42.3504 20.4022 42.6573C20.2293 44.4033 20.0508 46.155 19.8667 48.0126C18.6115 47.6947 17.4066 47.4604 16.2462 47.081C14.065 46.3558 12.0066 45.3405 10.1824 43.9292C9.15593 43.137 8.21316 42.2221 7.27597 41.324C6.58423 40.6601 6.62886 40.6546 5.76418 41.0172C3.09207 42.1385 0.230286 40.3645 0.012723 37.6087C-0.176947 35.249 1.77554 32.9618 4.43092 33.1626C6.0989 33.2909 7.52142 34.4289 7.95655 35.9853C7.9956 36.1248 8.06812 36.2475 8.12948 36.3814C8.18527 36.387 8.23547 36.387 8.28568 36.3814Z" fill="#434041"/>
<path d="M39.2304 41.5417C37.4899 43.2599 35.5988 44.5932 33.4957 45.6754C30.3717 47.2876 27.0581 47.9794 23.5771 48.0184C22.8965 48.024 22.8853 47.9961 22.9523 47.3434C23.0973 45.9209 23.2479 44.5039 23.3595 43.0814C23.393 42.6909 23.5213 42.5794 23.9006 42.5682C26.4667 42.4845 28.9157 41.882 31.2029 40.705C32.6645 39.9519 33.9308 38.9422 35.1302 37.8041C36.536 36.4653 37.5903 34.9033 38.4494 33.2074C39.0519 32.0192 39.4368 30.7361 39.7157 29.414C40.0449 27.8353 40.0895 26.2566 39.95 24.6779C39.8385 23.4617 39.5093 22.2624 39.2304 21.063C39.1467 20.7059 39.0965 20.4884 39.5093 20.3154C40.6083 19.8469 41.6905 19.3392 42.7783 18.8371C43.1744 18.6586 43.5649 18.4634 44.0335 18.2402C44.1786 18.614 44.3124 18.932 44.424 19.2555C45.4672 22.4186 45.7684 25.6708 45.3556 28.9622C45.1883 30.2843 44.7922 31.5785 44.4631 32.8727C44.3626 33.2688 44.4407 33.5366 44.7866 33.7151C46.806 34.7471 47.1798 37.3132 46.3207 39.0537C45.7071 40.2977 44.424 41.2015 42.6389 41.1568C40.8426 41.1122 39.6153 40.2475 38.9849 38.613C38.4104 37.1124 38.6893 35.701 39.7436 34.4626C39.8608 34.3231 39.9612 34.1781 40.0058 33.9605C38.9403 34.1223 38.2542 34.8475 37.7744 35.6899C37.2277 36.6605 36.9767 37.7037 37.3002 38.8864C37.6182 40.0355 38.3323 40.811 39.2304 41.5417Z" fill="#4D4A4B"/>
<path d="M66.6575 26.9924V19.1156L63.2546 25.1794H62.4568L59.0428 19.1156V26.998H57.7318V16.6777H59.1153L62.8529 23.3775L66.6017 16.6777H67.9684V26.998H66.6575V26.9924Z" fill="#434041"/>
<path d="M74.2819 16.6724H75.3865L79.6038 26.9926H78.2092L77.0489 23.9691H72.6084L71.448 26.9926H70.0534L74.2819 16.6724ZM76.6584 22.9538L74.8342 18.1841L72.9989 22.9538H76.6584Z" fill="#434041"/>
<path d="M81.6816 26.9926V16.6724H86.0998C86.5573 16.6724 86.9701 16.7672 87.3494 16.9569C87.7288 17.1465 88.0579 17.3976 88.3368 17.7155C88.6158 18.0279 88.8333 18.385 88.9895 18.7755C89.1457 19.166 89.2238 19.5676 89.2238 19.9749C89.2238 20.449 89.1346 20.9009 88.956 21.3249C88.7775 21.7488 88.5265 22.117 88.1974 22.4127C87.8738 22.7139 87.4945 22.9203 87.0538 23.0375L89.5529 26.9926H88.0691L85.7149 23.2829H82.9814V26.9926H81.6816ZM82.9926 22.1226H86.1166C86.4736 22.1226 86.786 22.0222 87.0538 21.8269C87.3215 21.6261 87.5279 21.3639 87.6786 21.0348C87.8292 20.7056 87.9017 20.3486 87.9017 19.9749C87.9017 19.5899 87.8124 19.2329 87.6395 18.9038C87.4666 18.5802 87.2379 18.318 86.9589 18.1284C86.68 17.9331 86.3676 17.8383 86.0273 17.8383H82.987V22.1226H82.9926Z" fill="#434041"/>
<path d="M91.9234 26.9923V16.672H93.2344V22.3788L98.5563 16.6553H99.9676L95.8228 21.2129L100.196 26.9923H98.7292L94.9916 21.9995L93.2344 23.8348V26.9923H91.9234Z" fill="#434041"/>
<path d="M109.109 25.8323V26.9926H102.102V16.6724H108.98V17.8327H103.413V21.1742H108.255V22.262H103.413V25.8267H109.109V25.8323Z" fill="#434041"/>
<path d="M119.045 17.8381H115.486V26.998H114.175V17.8381H110.611V16.6777H119.045V17.8381Z" fill="#434041"/>
<path d="M60.0983 34.3899V39.3046H57.3536V29.3135H59.4902L63.5012 34.3955V29.3135H66.2458V39.3046H64.0646L60.0983 34.3899Z" fill="#333333"/>
<path d="M79.194 36.9114V39.3046H72.0702V29.3135H79.0657V31.7067H74.8148V33.1125H78.4464V35.3383H74.8148V36.917H79.194V36.9114Z" fill="#333333"/>
<path d="M86.5435 29.3135L88.3565 32.4653L90.1696 29.3135H93.1262L89.9855 34.3788L93.009 39.3046H90.0524L88.351 36.2922L86.6495 39.3046H83.6817L86.7053 34.3788L83.5646 29.3135H86.5435Z" fill="#333333"/>
<path d="M102.31 39.3771C101.513 39.3771 100.826 39.2433 100.257 38.9811C99.6829 38.7189 99.2198 38.3563 98.8572 37.8988C98.4946 37.4414 98.2324 36.9114 98.0595 36.3201C97.8921 35.7232 97.8085 35.0984 97.8085 34.4457V29.3135H100.553V34.4401C100.553 34.7693 100.587 35.0817 100.654 35.3829C100.72 35.6842 100.821 35.9519 100.96 36.1862C101.1 36.4205 101.284 36.6046 101.501 36.7385C101.725 36.8724 101.992 36.9449 102.31 36.9449C102.639 36.9449 102.913 36.878 103.142 36.7385C103.365 36.6046 103.549 36.4149 103.683 36.1751C103.817 35.9352 103.917 35.6674 103.984 35.3662C104.051 35.0649 104.084 34.7581 104.084 34.4401V29.3135H106.829V34.4457C106.829 35.1375 106.74 35.7846 106.556 36.387C106.372 36.9895 106.098 37.5139 105.73 37.9602C105.362 38.4121 104.899 38.7579 104.33 39.009C103.761 39.2488 103.086 39.3771 102.31 39.3771Z" fill="#333333"/>
<path d="M118.566 32.5931C118.248 32.4035 117.958 32.2528 117.696 32.1357C117.434 32.0185 117.149 31.9126 116.837 31.8177C116.525 31.7229 116.223 31.6783 115.922 31.6783C115.688 31.6783 115.493 31.7173 115.348 31.7898C115.197 31.8624 115.124 31.9907 115.124 32.1636C115.124 32.3309 115.197 32.4648 115.348 32.5652C115.498 32.6657 115.71 32.7605 115.989 32.8442C116.268 32.9278 116.597 33.0283 116.982 33.151C117.601 33.3351 118.137 33.5526 118.589 33.7925C119.04 34.0324 119.386 34.3448 119.632 34.7186C119.877 35.0979 120 35.5944 120 36.2192C120 36.8161 119.894 37.3126 119.676 37.7198C119.459 38.1215 119.169 38.445 118.806 38.6905C118.438 38.9303 118.031 39.1089 117.584 39.2148C117.133 39.3208 116.675 39.3766 116.207 39.3766C115.727 39.3766 115.23 39.3264 114.706 39.226C114.187 39.1256 113.68 38.9917 113.194 38.8188C112.709 38.6458 112.263 38.4394 111.855 38.2051L113.038 35.8008C113.412 36.0239 113.758 36.208 114.064 36.3475C114.377 36.4869 114.717 36.6153 115.096 36.7268C115.476 36.8384 115.861 36.8942 116.246 36.8942C116.547 36.8942 116.753 36.8551 116.87 36.777C116.988 36.6989 117.049 36.5985 117.049 36.4758C117.049 36.2805 116.943 36.1299 116.737 36.0239C116.53 35.9179 116.262 35.8119 115.928 35.7171C115.593 35.6223 115.225 35.5051 114.823 35.3768C114.243 35.1816 113.763 34.9584 113.389 34.713C113.016 34.4675 112.737 34.1719 112.558 33.8316C112.38 33.4913 112.29 33.0785 112.29 32.5931C112.29 31.8568 112.463 31.2431 112.809 30.7466C113.155 30.2502 113.613 29.8764 114.182 29.6198C114.751 29.3632 115.359 29.2349 116.017 29.2349C116.502 29.2349 116.976 29.2962 117.434 29.4134C117.891 29.5305 118.315 29.6756 118.717 29.8429C119.113 30.0103 119.464 30.1721 119.766 30.3227L118.566 32.5931Z" fill="#333333"/>
</svg>
