<svg width="91" height="45" viewBox="0 0 91 45" fill="none" xmlns="http://www.w3.org/2000/svg">
<path d="M2.45494 36.1724C2.45494 38.8617 2.44751 41.551 2.46237 44.2403C2.46237 44.5746 2.38803 44.686 2.03887 44.6637C1.47427 44.634 0.909634 44.6489 0.337603 44.6563C0.114733 44.6637 0.0552979 44.5895 0.0552979 44.374C0.0627268 40.1544 0.0627268 35.9273 0.0552979 31.7076C0.0552979 31.4922 0.122162 31.4253 0.337603 31.4253C1.48167 31.4327 2.62573 31.4402 3.77723 31.4253C4.02981 31.4253 4.12644 31.507 4.20073 31.7447C5.11449 34.5678 6.0431 37.3833 6.97172 40.1989C7.00144 40.2806 7.03117 40.3624 7.08318 40.5035C7.59578 38.9434 8.09353 37.4353 8.58385 35.9273C9.04444 34.538 9.50501 33.1488 9.95075 31.7522C10.0325 31.4922 10.1439 31.4179 10.4113 31.4253C11.5331 31.4402 12.6549 31.4402 13.7693 31.4253C13.9921 31.4253 14.0812 31.4699 14.0812 31.715C14.0738 35.9347 14.0738 40.1618 14.0812 44.3814C14.0812 44.5597 14.0664 44.6637 13.8361 44.6563C13.0115 44.6415 12.1869 44.6415 11.3623 44.6563C11.028 44.6637 11.1022 44.4557 11.1022 44.2774C11.1022 41.6476 11.1022 39.0252 11.1022 36.3953C11.1022 36.321 11.1022 36.2393 11.1022 36.1353C10.9536 36.2096 10.9536 36.3581 10.9239 36.4622C10.0621 39.0623 9.20785 41.655 8.36838 44.2552C8.26437 44.5746 8.12321 44.6637 7.80377 44.6563C7.1203 44.634 6.43683 44.634 5.7608 44.6563C5.44135 44.6637 5.30019 44.582 5.19619 44.2626C4.35671 41.6699 3.50243 39.092 2.6481 36.5067C2.61095 36.3879 2.56634 36.2764 2.52177 36.1576C2.49948 36.165 2.47722 36.1724 2.45494 36.1724Z" fill="#474546"/>
<path d="M41.5834 2.93463C42.6309 2.19173 43.6709 1.44141 44.7333 0.713367C45.3053 0.32706 45.9963 0.386492 46.5683 0.824802C48.6038 2.4146 50.6319 4.01926 52.6674 5.61649C55.2824 7.65946 57.8677 9.73958 60.5198 11.7305C61.0027 12.0946 61.4559 12.4883 61.5525 13.1569C61.7011 14.1895 61.1737 14.873 60.1187 14.9027C59.2421 14.9324 58.3729 14.9027 57.4963 14.9027C57.4369 14.6204 57.1768 14.509 56.9985 14.3381C55.7653 13.3946 54.5544 12.414 53.3063 11.478C51.8651 10.3413 50.409 9.21212 48.9604 8.08292C47.8089 7.18401 46.6574 6.27767 45.4985 5.37877C44.763 4.78445 44.0052 4.21242 43.2549 3.62553C42.9875 3.41752 42.7052 3.25408 42.3858 3.13521C42.1332 3.00149 41.8211 3.1055 41.5834 2.93463Z" fill="#ADADAD"/>
<path d="M63.3578 35.2213C64.2716 34.6641 65.2225 34.4189 66.2477 34.4189C68.0306 34.4264 69.0706 35.3624 69.2638 37.1454C69.3455 37.8808 69.3158 38.6089 69.3158 39.3444C69.3233 40.9787 69.3083 42.6131 69.3306 44.2475C69.3381 44.6041 69.2267 44.6709 68.8998 44.6635C68.194 44.6412 67.4809 44.6412 66.7751 44.6635C66.5077 44.6709 66.4334 44.5966 66.4334 44.3218C66.4483 42.3382 66.4408 40.3547 66.4408 38.3712C66.4408 37.9997 66.4185 37.6283 66.3219 37.2642C66.2477 36.9745 66.0917 36.8111 65.7796 36.7516C65.0887 36.6328 64.4573 36.7442 63.8407 37.0711C63.603 37.1974 63.5212 37.3385 63.5212 37.6134C63.5361 39.8272 63.5212 42.0411 63.5361 44.2549C63.5361 44.5669 63.4692 44.6784 63.1423 44.6635C62.3994 44.6412 61.6491 44.6487 60.8987 44.6561C60.6907 44.6561 60.609 44.6041 60.609 44.3812C60.6164 41.2165 60.6164 38.0443 60.609 34.8795C60.609 34.5972 60.7205 34.5675 60.9508 34.5675C61.6046 34.575 62.2657 34.5898 62.9194 34.5601C63.2611 34.5452 63.4023 34.6418 63.3429 34.9835C63.3355 35.0504 63.3504 35.1098 63.3578 35.2213Z" fill="#474546"/>
<path d="M42.4078 3.05322C42.6084 3.0978 42.7941 3.2018 42.9575 3.32067C43.8416 3.95956 44.7034 4.62074 45.5355 5.32649C45.4983 5.48993 45.372 5.57908 45.2457 5.67565C42.8982 7.44375 40.5803 9.25642 38.2402 11.0319C36.9698 12.02 35.6698 12.9635 34.392 13.9441C34.1766 14.0853 34.1542 14.2784 34.2285 14.5013C33.3519 14.5013 32.4828 14.5681 31.6136 14.4641C31.049 14.3973 30.5363 14.1893 30.3431 13.6098C30.1277 12.9709 30.2391 12.3617 30.6997 11.8491C31.2123 11.2771 31.8735 10.8908 32.4827 10.4376C35.3651 8.29065 38.2625 6.14368 41.1523 4.00413C41.2118 3.95956 41.2712 3.90756 41.3232 3.85555C41.6204 3.49153 41.9621 3.2018 42.4078 3.05322Z" fill="#727272"/>
<path d="M25.7895 41.2832C26.5398 39.1213 27.2753 37.0412 27.9885 34.9537C28.0925 34.6491 28.2262 34.5599 28.5382 34.5748C29.1028 34.5971 29.6674 34.5897 30.2394 34.5748C30.4697 34.5674 30.5663 34.5971 30.4698 34.8645C29.3406 38.0441 28.2262 41.2312 27.1118 44.4182C27.045 44.6188 26.9484 44.6634 26.7553 44.6634C25.8935 44.6559 25.0318 44.6559 24.17 44.6634C23.9694 44.6634 23.8877 44.6039 23.8209 44.4108C22.7214 41.2312 21.6144 38.059 20.4926 34.8794C20.396 34.6119 20.4703 34.5748 20.7155 34.5748C21.5253 34.5822 22.335 34.5897 23.1448 34.5748C23.3825 34.5674 23.4716 34.6565 23.5533 34.872C24.2294 36.8406 24.9203 38.8019 25.6112 40.7631C25.6483 40.9043 25.7003 41.0529 25.7895 41.2832Z" fill="#474546"/>
<path d="M40.2682 41.2906C40.6546 40.1763 41.0112 39.1585 41.3678 38.1482C41.7467 37.071 42.1329 35.9938 42.4969 34.9091C42.5787 34.664 42.6827 34.56 42.9502 34.5674C43.5296 34.5897 44.1091 34.5897 44.6885 34.5674C44.9857 34.56 45.0302 34.6343 44.9337 34.9166C43.9605 37.6653 42.9947 40.414 42.0363 43.1627C41.8952 43.5713 41.7392 43.9799 41.6055 44.4034C41.5461 44.5965 41.4569 44.6634 41.2564 44.6634C40.3946 44.6559 39.5328 44.6559 38.6711 44.6634C38.4779 44.6634 38.3739 44.6188 38.3071 44.4182C37.2002 41.2312 36.0858 38.0442 34.964 34.8571C34.8897 34.6491 34.9045 34.5674 35.1571 34.5748C35.9669 34.5897 36.7766 34.5971 37.5864 34.5748C37.8613 34.5674 37.9578 34.6714 38.047 34.9166C38.7676 37.0041 39.5031 39.0991 40.2682 41.2906Z" fill="#474546"/>
<path d="M34.3104 13.907C35.2836 13.1641 36.2568 12.4212 37.2374 11.6783C37.5494 11.4406 37.8763 11.2103 38.1958 10.98C38.4409 11.0468 38.4855 11.2549 38.5226 11.4554C38.5597 11.6486 38.5523 11.8417 38.5523 12.0349C38.5523 15.6231 38.5523 19.2187 38.5523 22.8069C38.5523 23.0001 38.5597 23.1932 38.5226 23.3864C38.4706 23.587 38.2998 23.6464 38.1215 23.6984C37.022 23.9956 35.9373 24.3447 34.8749 24.7682C34.7561 24.8127 34.6372 24.8647 34.5035 24.8053C34.5035 21.5366 34.5035 18.2604 34.5035 14.9916C34.5035 14.8356 34.4961 14.687 34.4887 14.531C34.3624 14.3305 34.3104 14.1224 34.3104 13.907Z" fill="#474546"/>
<path d="M34.5035 24.7904C35.7812 24.2556 37.0962 23.8544 38.426 23.4829C38.7603 23.2229 39.1763 23.2526 39.5552 23.1412C39.8152 23.0669 40.0753 23.0075 40.3502 22.9926C40.8776 22.8886 41.4124 22.8218 41.9324 22.7103C42.1107 22.6732 42.2965 22.6806 42.4748 22.6732C43.1434 22.532 43.8269 22.5097 44.4955 22.4652C45.6098 22.3983 46.7168 22.3166 47.8385 22.376C48.0243 22.3612 48.2174 22.3686 48.4032 22.376C49.5546 22.4726 50.721 22.4503 51.8576 22.6806C52.2737 22.6806 52.6673 22.8143 53.0759 22.8589C54.3091 23.1189 55.5201 23.4532 56.6493 24.0327C56.7979 24.107 56.9688 24.159 57.0282 24.3373C57.2882 24.523 57.5557 24.7013 57.8083 24.9019C57.9866 25.043 58.1574 25.2065 58.3208 25.3699C58.6328 25.6968 58.8557 26.0905 58.6477 26.5214C58.4322 26.9597 57.9791 26.8706 57.5854 26.8186C57.1099 26.7591 56.6568 26.6031 56.2259 26.4025C54.4132 25.5482 52.4742 25.1916 50.513 24.8945C47.8905 24.5007 45.2458 24.3447 42.5936 24.4339C39.0203 24.5527 35.5064 25.0505 32.089 26.1277C32.0296 26.1425 31.9702 26.1648 31.9033 26.1574C32.7131 25.5928 33.6194 25.2139 34.5035 24.7904Z" fill="#727272"/>
<path d="M57.028 24.3305C55.8394 23.6916 54.5765 23.2607 53.2467 23.0007C53.2096 22.9933 53.1799 22.9636 53.1501 22.9487C52.9198 22.7779 52.9941 22.5327 52.9941 22.3098C52.9866 19.0485 52.9866 15.7872 52.9941 12.5184C52.9941 12.2881 52.9867 12.0578 53.0536 11.8275C53.0981 11.6492 53.1501 11.4784 53.3581 11.4189C54.3833 12.2064 55.4085 12.9939 56.4337 13.7814C56.6491 13.9448 56.8498 14.1231 57.0578 14.2865C57.1915 14.4945 57.2064 14.7026 57.0652 14.918C57.0578 15.854 57.0504 16.7901 57.0504 17.7336C57.0355 19.94 57.028 22.1315 57.028 24.3305Z" fill="#474546"/>
<path d="M16.8078 39.6116C16.8078 38.0515 16.8153 36.4988 16.8004 34.9387C16.8004 34.6564 16.8673 34.5599 17.1644 34.5673C17.9073 34.5896 18.6577 34.5821 19.4005 34.5673C19.6606 34.5599 19.72 34.6564 19.72 34.9016C19.7126 38.0515 19.7126 41.2088 19.72 44.3587C19.72 44.5964 19.6531 44.6633 19.4154 44.6633C18.6577 44.6484 17.8999 44.6484 17.1348 44.6633C16.8673 44.6707 16.793 44.5964 16.793 44.3215C16.8078 42.754 16.8078 41.1791 16.8078 39.6116Z" fill="#474546"/>
<path d="M34.1916 39.6337C34.1916 41.1938 34.1842 42.7465 34.1991 44.3066C34.1991 44.6037 34.1174 44.6706 33.8351 44.6631C33.0996 44.6409 32.3715 44.6483 31.636 44.6631C31.4057 44.6631 31.3018 44.6334 31.3018 44.3586C31.3092 41.2087 31.3092 38.0514 31.3018 34.9015C31.3018 34.6489 31.3687 34.5746 31.6212 34.5746C32.3641 34.5894 33.1144 34.5969 33.8573 34.5746C34.1396 34.5672 34.1916 34.6712 34.1916 34.9312C34.1842 36.4913 34.1916 38.0662 34.1916 39.6337Z" fill="#474546"/>
<path d="M45.766 39.5892C45.766 38.0292 45.7734 36.4691 45.7585 34.9164C45.7585 34.649 45.8255 34.5672 46.1003 34.5747C46.8432 34.597 47.5935 34.5895 48.3438 34.5747C48.5964 34.5672 48.6707 34.6564 48.6707 34.9016C48.6633 38.0589 48.6633 41.2088 48.6707 44.3661C48.6707 44.6112 48.589 44.6632 48.3587 44.6632C47.6009 44.6484 46.8358 44.6484 46.078 44.6632C45.818 44.6707 45.7585 44.5889 45.7585 44.3438C45.7734 42.754 45.766 41.1716 45.766 39.5892Z" fill="#474546"/>
<path d="M34.8008 26.1949C37.6387 25.6452 40.5063 25.3926 43.3887 25.4371C47.0809 25.4891 50.7211 25.8977 54.2499 27.0418C55.3271 27.391 56.3523 27.859 57.2289 28.6167C57.4221 28.7876 57.6004 28.9808 57.7044 29.2111C57.7861 29.3894 57.8232 29.5825 57.6895 29.7608C57.5632 29.9242 57.37 29.9168 57.1917 29.8871C56.6717 29.7905 56.1888 29.5602 55.7208 29.3225C52.9424 27.911 49.9708 27.1384 46.9101 26.6555C43.7899 26.1652 40.64 26.0463 37.4901 26.1355C36.5912 26.1578 35.6923 26.232 34.7933 26.284C34.7785 26.2618 34.7711 26.2469 34.7786 26.2246C34.786 26.2023 34.7934 26.1949 34.8008 26.1949Z" fill="#727272"/>
<path d="M10.7603 27.116C10.3666 26.6108 10.4632 26.0091 10.4557 25.4371C10.4557 24.137 10.4557 22.8443 10.4557 21.5443C10.4557 21.4106 10.3666 21.1803 10.6118 21.1803C10.8198 21.1803 11.1095 21.0168 11.2209 21.3808C11.3101 21.6631 11.5032 21.5591 11.6741 21.4477C12.6101 20.8534 13.5314 20.9574 14.408 21.5591C14.7794 21.8191 15.1137 22.146 15.24 22.614C15.4778 22.9781 15.4777 23.3941 15.5 23.7953C15.5446 24.6422 15.5298 25.4816 15.5075 26.3285C15.5 26.7966 15.2995 26.908 14.8611 26.7148C14.6086 26.7371 14.616 26.5737 14.616 26.3954C14.616 25.5411 14.6383 24.6793 14.6086 23.825C14.5937 23.4164 14.616 22.9781 14.3114 22.6289C13.7022 21.8711 12.6919 21.7003 11.949 22.2129C11.4809 22.5398 11.3398 23.0226 11.3324 23.5575C11.3175 24.4193 11.3249 25.2736 11.3249 26.1354C11.3249 26.4474 11.3547 26.7668 10.9461 26.8783C10.8643 26.9154 10.8495 27.0566 10.7603 27.116Z" fill="#A6A5A9"/>
<path d="M2.18741 21.1648C2.36571 21.1648 2.54407 21.1648 2.72236 21.1722C2.96752 21.1796 3.24984 21.0979 3.29441 21.4916C3.30184 21.5436 3.42806 21.5882 3.50235 21.6328C3.2572 21.9597 2.91552 21.9968 2.53664 21.9968C2.02404 21.9894 2.00177 22.0191 1.99434 22.5391C1.98691 23.7946 2.00176 25.0501 1.9869 26.3056C1.97947 26.8182 1.79375 26.9296 1.34059 26.7365C1.04343 26.7588 1.09537 26.5508 1.09537 26.3799C1.09537 25.1615 1.09537 23.9432 1.09537 22.7248C1.09537 22.5911 1.14738 22.4425 1.01366 22.3237C1.03595 21.9151 0.731391 21.9819 0.486234 21.9522C0.159359 21.8259 0.211318 21.5436 0.255892 21.3059C0.300466 21.0682 0.538244 21.1722 0.679395 21.1796C0.998841 21.2093 1.07309 21.0905 1.10281 20.771C1.19938 19.7384 2.09088 19.2704 2.97493 19.2406C3.08636 19.2332 3.19039 19.2704 3.18296 19.4041C3.17553 19.5824 3.2795 19.6195 3.42065 19.6344C3.33893 19.9167 3.10861 20.0058 2.8486 20.0653C2.53658 20.1321 2.22461 20.2138 2.06117 20.5407C1.95717 20.771 1.9274 20.9939 2.18741 21.1648Z" fill="#A4A4A8"/>
<path d="M47.2591 30.6592C48.1729 30.6667 48.8564 31.3204 48.8415 32.1896C48.8267 33.0291 48.1357 33.6828 47.2443 33.6828C46.3156 33.6828 45.6099 33.0142 45.6174 32.1376C45.6397 31.2833 46.3305 30.6518 47.2591 30.6592Z" fill="#474546"/>
<path d="M18.2861 30.6592C19.2073 30.6592 19.8684 31.2981 19.8684 32.1822C19.8684 33.0439 19.1627 33.6903 18.249 33.6828C17.3501 33.668 16.6369 32.9845 16.6517 32.145C16.6666 31.2907 17.3649 30.6518 18.2861 30.6592Z" fill="#474546"/>
<path d="M34.3474 32.1748C34.3474 33.044 33.6565 33.6903 32.7427 33.6829C31.829 33.6754 31.1456 33.0217 31.153 32.1525C31.1604 31.2759 31.829 30.6519 32.765 30.6519C33.6937 30.6593 34.3474 31.2833 34.3474 32.1748Z" fill="#474546"/>
<path d="M24.2441 26.1872C24.3927 26.1649 24.4744 26.2838 24.5784 26.3506C25.5442 26.9673 26.5545 27.0787 27.5649 26.5141C28.5232 25.9792 29.0656 25.1546 29.0953 24.0179C29.1027 23.6836 28.9244 23.3568 29.073 23.0225C29.9273 24.8426 28.9616 26.8781 27.0449 27.2273C25.938 27.4278 24.9722 27.0935 24.2441 26.1872Z" fill="#808080"/>
<path d="M4.66149 26.1801C5.51583 26.8264 6.45182 27.0567 7.48445 26.7075C8.96282 26.2172 9.78005 24.5531 9.28973 23.0673C9.27488 23.0153 9.24517 22.9782 9.30461 22.9336C9.8915 23.7434 9.86179 24.6274 9.5052 25.4892C8.69544 27.495 6.08042 27.9036 4.65406 26.2766C4.61691 26.2395 4.62435 26.2098 4.66149 26.1801Z" fill="#808080"/>
<path d="M10.7606 27.1157C10.768 26.9151 10.7161 26.6848 11.0578 26.7219C11.2881 26.7442 11.2287 26.5437 11.2361 26.4174C11.2435 25.4516 11.2287 24.4858 11.2435 23.5275C11.251 22.5914 11.7413 22.0045 12.655 21.8262C13.2865 21.7 14.0666 22.0863 14.3266 22.6509C13.7397 22.2348 13.1231 22.1011 12.447 22.4206C11.8304 22.7103 11.563 23.2155 11.5556 23.8692C11.5407 24.7904 11.5481 25.7116 11.5407 26.6402C11.5407 27.1974 11.5407 27.2048 10.9835 27.1825C10.9092 27.1603 10.8349 27.1305 10.7606 27.1157Z" fill="#808080"/>
<path d="M1.34806 26.7297C1.90523 26.7148 1.86805 26.8188 1.86805 26.2245C1.86805 24.8947 1.87547 23.5575 1.86061 22.2277C1.86061 21.938 1.94976 21.834 2.23206 21.8637C2.37321 21.8786 2.51432 21.8711 2.65548 21.8637C2.88577 21.8563 3.14585 21.9454 3.27957 21.6483C3.29443 21.6111 3.42066 21.6334 3.49495 21.626C3.52467 22.3169 3.52468 22.3169 2.85607 22.3169C2.15032 22.3169 2.15036 22.3169 2.15036 23.0301C2.15036 24.2633 2.14293 25.5039 2.15779 26.7371C2.16522 27.064 2.09088 27.1829 1.73429 27.1829C1.38513 27.1829 1.29605 27.0491 1.34806 26.7297Z" fill="#808080"/>
<path d="M21.8297 26.7296C22.2086 26.7964 22.2903 26.633 22.2903 26.269C22.2754 24.2037 22.2829 22.131 22.2829 20.0658C22.2829 19.8578 22.2457 19.6275 22.5875 19.7017C22.5875 22.0419 22.5875 24.3894 22.5949 26.7296C22.5949 27.0342 22.5726 27.1902 22.1937 27.1827C21.8223 27.1753 21.7925 27.0044 21.8297 26.7296Z" fill="#808080"/>
<path d="M17.4165 26.1055C18.5383 27.101 19.987 27.0416 20.8934 26.4101C21.1236 26.2541 21.3094 26.0387 21.5545 25.8232C21.5991 26.0981 21.6214 26.3433 21.5174 26.581C20.1653 27.6656 18.6572 27.517 17.3497 26.1798C17.3274 26.113 17.3423 26.0758 17.4165 26.1055Z" fill="#808080"/>
<path d="M14.8687 26.7303C15.4407 26.708 15.3961 26.8269 15.3887 26.188C15.3738 25.1999 15.4481 24.2193 15.3293 23.2312C15.307 23.0307 15.2773 22.8301 15.2475 22.6221C15.5596 22.8004 15.5744 23.1347 15.6116 23.4244C15.7601 24.5908 15.6561 25.7571 15.6858 26.9309C15.6933 27.1909 15.5076 27.1909 15.3441 27.1612C15.1733 27.1315 14.8984 27.3098 14.8687 26.9606C14.8612 26.8863 14.8687 26.812 14.8687 26.7303Z" fill="#808080"/>
<path d="M2.18727 21.1656C1.92726 21.2176 1.84559 21.0988 1.86788 20.8536C1.91245 20.445 2.12789 20.1627 2.51419 20.0438C2.83364 19.9398 3.19021 19.925 3.42051 19.6353C3.56166 19.8284 3.48743 20.0513 3.48 20.2593C3.47257 20.4599 3.28683 20.3782 3.18282 20.3856C2.68508 20.4302 2.32099 20.6456 2.18727 21.1656Z" fill="#808080"/>
<path d="M42.4079 3.05336C42.0439 3.31337 41.6799 3.58082 41.3159 3.84083C41.1524 3.35795 41.197 3.20194 41.5833 2.92707C41.8656 2.92707 42.1479 2.89735 42.4079 3.05336Z" fill="#414041"/>
<path d="M0.493966 21.9455C0.67969 21.8341 0.895138 21.8043 1.05858 21.9306C1.15515 22.0049 1.11054 22.1907 1.02139 22.3169C0.768809 22.3021 0.412247 22.4358 0.493966 21.9455Z" fill="#808080"/>
<path d="M57.0581 14.9254C57.0581 14.7174 57.0581 14.502 57.0507 14.2939C57.1695 14.3831 57.2958 14.4648 57.4147 14.554C57.541 14.6431 57.6078 14.7545 57.4889 14.8957C57.3478 14.9106 57.1992 14.918 57.0581 14.9254Z" fill="#404343"/>
<path d="M34.3103 13.9067C34.4663 14.085 34.5331 14.2782 34.4811 14.5159C34.3994 14.5085 34.3102 14.5085 34.2285 14.5011C33.8496 14.241 34.0874 14.0702 34.3103 13.9067Z" fill="#454041"/>
<path d="M17.4176 26.1058C17.3953 26.1281 17.3655 26.1579 17.3432 26.1803C17.2091 26.1207 17.157 26.0015 17.09 25.8898C17.2911 25.8228 17.3134 26.0164 17.4176 26.1058Z" fill="#808082"/>
<path d="M34.8016 26.1943C34.8016 26.2241 34.8016 26.2465 34.7941 26.2763C34.7122 26.3582 34.6228 26.3582 34.5186 26.3061C34.5781 26.172 34.6899 26.1794 34.8016 26.1943Z" fill="#B88078"/>
<path d="M4.66198 26.1805C4.66198 26.2177 4.65453 26.2475 4.65453 26.2847C4.53536 26.2028 4.44593 26.106 4.41614 25.957C4.52786 25.9943 4.6024 26.0762 4.66198 26.1805Z" fill="#808080"/>
<path d="M79.9914 31.7148C79.9914 31.4622 79.8948 31.4176 79.6719 31.4251C78.929 31.4325 78.1787 31.4399 77.4358 31.4251C77.1535 31.4176 77.0941 31.5142 77.1015 31.7742C77.1164 32.5988 77.0941 33.4235 77.1164 34.2481C77.1238 34.5304 77.0197 34.575 76.782 34.5229C76.1431 34.3818 75.5043 34.4041 74.8654 34.4635C73.0973 34.627 71.864 35.5556 71.3886 37.1677C70.8908 38.8689 70.8835 40.5999 71.3664 42.3085C71.8567 44.0395 72.9859 44.8344 74.7911 44.8121C75.6826 44.7972 76.4626 44.4481 77.2649 43.9429C77.2649 44.1509 77.2723 44.2921 77.2649 44.4332C77.2501 44.6264 77.3317 44.6709 77.51 44.6709C78.2529 44.6635 79.0033 44.6561 79.7462 44.6709C79.969 44.6784 79.9914 44.5744 79.9914 44.3886C79.984 40.1615 79.984 35.9419 79.9914 31.7148ZM76.8043 42.0337C76.3437 42.2714 75.8832 42.4942 75.3483 42.4794C74.7242 42.4645 74.3676 42.1971 74.1967 41.5953C73.959 40.7559 74.0036 39.8867 74.0259 39.0249C74.0408 38.4752 74.0927 37.9254 74.2785 37.3905C74.4345 36.9299 74.7762 36.6848 75.2443 36.6179C75.7569 36.5436 76.2694 36.6105 76.782 36.6402C77.042 36.6551 77.1089 36.7814 77.1089 37.0414C77.0941 37.7843 77.1015 38.5346 77.1015 39.2775C77.1015 40.0204 77.0867 40.7707 77.1089 41.5136C77.1089 41.7736 77.0198 41.9148 76.8043 42.0337Z" fill="#474546"/>
<path d="M90.3325 37.576C90.3176 35.9862 89.5673 35.0204 88.1261 34.6192C87.7324 34.5078 87.3238 34.4484 86.9077 34.4261C85.4962 34.3518 84.1367 34.5375 82.8515 35.1615C82.6955 35.2358 82.5321 35.2878 82.5395 35.5404C82.5618 36.2462 82.5469 36.9594 82.5469 37.7171C82.8738 37.5834 83.1413 37.472 83.4161 37.3605C84.4785 36.9445 85.5482 36.6028 86.7146 36.6993C87.3609 36.7514 87.4649 36.8628 87.4649 37.4942C87.4649 37.5983 87.4575 37.7023 87.4649 37.8063C87.502 38.0886 87.3832 38.148 87.1158 38.1257C86.1277 38.0589 85.1397 38.0514 84.1516 38.2446C82.8664 38.4972 82.0937 39.2326 81.8709 40.4436C81.7297 41.2013 81.7743 41.9591 81.9749 42.702C82.2869 43.8757 83.0373 44.5741 84.2556 44.7672C85.3403 44.9381 86.3209 44.6706 87.2421 44.1283C87.6061 43.9129 87.6284 43.9129 87.6135 44.3215C87.6061 44.5815 87.6655 44.6781 87.9478 44.6706C88.6536 44.6484 89.3667 44.6558 90.0725 44.6706C90.2954 44.6781 90.3548 44.6038 90.3548 44.3883C90.3399 42.1076 90.3622 39.8418 90.3325 37.576ZM86.722 42.0928C86.2466 42.2785 85.7711 42.4048 85.2585 42.2711C85.1842 42.2488 85.0951 42.2488 85.043 42.2042C84.6716 41.9071 84.7014 41.4762 84.7237 41.0676C84.7459 40.7259 84.8796 40.4361 85.2585 40.3544C85.9346 40.2058 86.618 40.2875 87.2941 40.243C87.4426 40.2355 87.45 40.3395 87.45 40.451C87.45 40.6441 87.45 40.8373 87.45 41.0304C87.45 41.8105 87.45 41.8105 86.722 42.0928Z" fill="#474546"/>
<path d="M58.9821 37.9026C58.7592 36.4391 58.1129 35.2728 56.6494 34.7156C55.7653 34.3739 54.8368 34.3739 53.9081 34.4704C52.1326 34.6562 50.9588 35.6368 50.513 37.3603C50.1342 38.8387 50.1342 40.3468 50.513 41.8251C50.8993 43.3258 51.7908 44.3733 53.3657 44.6853C55.1933 45.0419 56.9391 44.6779 58.633 43.9721C58.7444 43.9275 58.7889 43.8458 58.7889 43.7344C58.7889 43.0806 58.7889 42.4269 58.7889 41.7286C58.5884 41.8029 58.4323 41.8549 58.2763 41.9143C57.2882 42.2932 56.2706 42.5606 55.2082 42.6275C54.0716 42.7018 53.4327 42.1817 53.2544 41.0674C53.2024 40.7628 53.2766 40.7034 53.5663 40.7108C55.2899 40.7256 57.0135 40.7182 58.737 40.7182C58.9004 40.7182 59.0712 40.7628 59.0564 40.4879C59.0267 39.6187 59.1158 38.757 58.9821 37.9026ZM55.3493 38.5192C55.119 38.5192 54.8887 38.5192 54.6584 38.5192C54.3018 38.5192 53.9378 38.5044 53.5812 38.5267C53.2915 38.5415 53.1281 38.4821 53.2395 38.1478C53.2544 38.1106 53.2544 38.0735 53.2544 38.0364C53.3584 36.8106 53.9452 36.4466 55.2527 36.6471C55.7579 36.7214 55.9956 37.1003 56.0996 37.5758C56.2928 38.5192 56.3002 38.5192 55.3493 38.5192Z" fill="#474546"/>
<path d="M48.4032 22.4728C48.0095 21.7819 47.6232 21.0836 47.2146 20.4001C47.0883 20.1921 47.066 20.0435 47.2072 19.8132C47.638 19.1075 47.4523 18.2977 46.7466 17.8223C46.5237 17.6737 46.5608 17.5622 46.6722 17.3988C46.7836 17.2354 46.7614 16.9234 47.1254 17.0645C47.6455 17.2651 48.1878 17.2799 48.7078 17.0719C48.9975 16.9605 49.057 17.1239 49.1535 17.3097C50.0673 19.1223 50.981 20.935 51.8948 22.7551C50.7433 22.614 49.577 22.5545 48.4032 22.4728Z" fill="#474546"/>
<path d="M40.3649 23.0744C40.3649 21.3509 40.3723 19.6274 40.3723 17.9113C40.3723 17.5324 40.4614 17.2055 40.7289 16.9232C40.8477 16.797 40.9518 16.7672 41.1226 16.8638C41.9993 17.3616 42.8833 17.3541 43.76 16.8638C43.9308 16.7672 44.0274 16.797 44.1537 16.9232C44.384 17.1535 44.4954 17.4284 44.5029 17.7924C44.1834 17.6661 43.8862 17.5324 43.5445 17.5621C42.5639 17.6513 41.9398 18.5948 42.2444 19.5457C42.3039 19.724 42.3262 19.8428 42.1925 19.9914C41.9696 20.244 41.9472 20.5783 41.9398 20.8978C41.9324 21.5292 41.9398 22.1532 41.9472 22.7847C41.4272 22.9482 40.8923 22.9779 40.3649 23.0744Z" fill="#474546"/>
<path d="M42.408 22.7554C42.4154 22.1239 42.4228 21.4924 42.4303 20.8684C42.4303 20.7124 42.4155 20.5564 42.4823 20.4152C42.5863 20.1849 42.6829 20.0215 42.9874 20.237C43.3737 20.5044 43.8195 20.5118 44.2281 20.2667C44.4956 20.1032 44.5921 20.2295 44.6813 20.445C44.8001 20.7124 44.6887 20.9947 44.7853 21.3216C44.971 21.0244 45.1344 20.7644 45.283 20.5044C45.3573 20.3707 45.4241 20.3187 45.5876 20.3781C45.7956 20.4524 46.0407 20.4821 46.2265 20.3781C46.5608 20.1998 46.6648 20.3855 46.7985 20.6307C47.1402 21.2473 47.4969 21.8565 47.846 22.4731C46.0408 22.4656 44.2206 22.5697 42.408 22.7554Z" fill="#474546"/>
<path d="M22.58 19.7016C22.5354 19.5531 22.2902 19.6794 22.2753 19.4713C22.2382 19.0479 21.9039 19.2708 21.7107 19.2485C21.4359 19.2113 21.5101 19.4565 21.5101 19.6051C21.5027 20.4074 21.5101 21.2097 21.5101 22.0566C20.0318 20.3628 17.402 21.0314 16.6368 22.807C16.1687 23.9064 16.399 24.9391 17.0825 25.89C17.2534 25.9271 17.2905 26.1203 17.4316 26.1797C17.9071 26.7146 18.546 26.93 19.222 26.9672C20.0764 27.0043 20.8341 26.7295 21.4284 26.046C21.4804 26.1649 21.4656 26.2466 21.4656 26.3209C21.4656 26.41 21.4359 26.4992 21.4954 26.5809C21.5771 26.6775 21.6736 26.7592 21.8147 26.7369C22.1862 26.8855 22.3273 26.8112 22.3719 26.4546C22.3942 26.2986 22.3868 26.1426 22.3868 25.994C22.3868 24.1293 22.3868 22.2646 22.3868 20.3925C22.4017 20.1474 22.3571 19.8874 22.58 19.7016ZM21.3244 24.8425C20.9975 25.5705 20.4181 26.0163 19.6158 26.1054C19.0958 26.1649 18.6055 26.0683 18.1523 25.7637C17.87 25.5705 17.7066 25.318 17.5803 25.0208C17.3128 24.7162 17.3574 24.3448 17.4094 23.9956C17.5951 22.6064 19.3112 21.7075 20.5815 22.3241C20.7078 22.3835 20.8119 22.4801 20.9233 22.5692C21.0347 22.6584 21.1313 22.755 21.2056 22.8738C21.6514 23.5053 21.6216 24.1813 21.3244 24.8425Z" fill="#A6A5A9"/>
<path d="M20.9456 22.6438C19.7049 21.8638 18.5461 22.3095 17.9592 23.0301C17.4689 23.6319 17.3797 24.293 17.5803 25.0211C17.4095 24.9468 17.4094 24.9468 17.3425 24.7833C16.9488 23.7804 17.2757 22.7404 18.1671 22.1609C19.0289 21.5963 20.173 21.7226 20.9085 22.4581C20.9605 22.5101 21.005 22.5769 21.057 22.6289C21.0273 22.6735 20.9902 22.6735 20.9456 22.6438Z" fill="#808080"/>
<path d="M20.9458 22.6443C20.983 22.6368 21.0203 22.6368 21.0575 22.6294C21.1544 22.6815 21.1991 22.7635 21.1991 22.8752C21.1097 22.8007 21.0277 22.7188 20.9458 22.6443Z" fill="#808080"/>
<path d="M29.073 23.0221C28.9616 22.6952 28.7016 22.4723 28.501 22.2123C27.7729 21.2837 26.7923 20.9048 25.6408 21.1277C24.5562 21.3431 23.8058 22.034 23.4567 23.0815C23.0704 24.2627 23.427 25.2879 24.2442 26.1868C25.002 26.8406 25.8563 27.1006 26.8518 26.9C28.0776 26.6548 29.1473 25.4068 29.1845 24.1587C29.1993 23.7724 29.1473 23.4009 29.073 23.0221ZM27.7432 25.4736C26.9632 26.2834 25.7002 26.3428 24.8459 25.6296C24.6676 25.4811 24.6379 25.2508 24.4744 25.1096C23.843 24.0473 24.8385 22.242 26.2723 22.1454C26.8295 22.1083 27.3792 22.1454 27.7655 22.6506C28.5084 23.4604 28.501 24.6787 27.7432 25.4736Z" fill="#A4A4A8"/>
<path d="M27.7579 22.6511C27.0001 22.1237 26.1978 22.0494 25.4177 22.5546C24.608 23.0746 24.2811 23.8472 24.4297 24.8055C24.4446 24.9095 24.4594 25.0061 24.4742 25.1101C24.0211 24.6718 24.0657 24.0924 24.1474 23.5649C24.2811 22.7477 24.7937 22.1682 25.5886 21.9157C26.3909 21.6556 27.1041 21.8562 27.6985 22.458C27.7505 22.4951 27.8916 22.5471 27.7579 22.6511Z" fill="#808080"/>
<path d="M9.29706 22.9333C8.74732 21.9229 8.00442 21.1726 6.78606 21.0909C5.49342 21.0017 4.51275 21.5515 3.95558 22.6955C3.39098 23.847 3.56935 24.9614 4.40883 25.9569C4.5054 26.0534 4.5797 26.1649 4.69113 26.2466C5.57518 27.1381 7.1278 27.1827 8.18272 26.4769C9.28963 25.7489 9.92853 24.1071 9.29706 22.9333ZM8.17528 25.3403C7.35066 26.2912 6.19916 26.3878 5.18881 25.6226C4.98823 25.474 4.98825 25.2437 4.83224 25.0951C4.46822 24.4265 4.60938 23.5722 5.21112 22.859C5.99117 21.9304 7.60328 21.8784 8.21246 22.703C8.8885 23.3047 8.7696 24.6494 8.17528 25.3403Z" fill="#A4A4A8"/>
<path d="M8.2049 22.7025C7.64029 22.3237 7.03855 22.1156 6.34765 22.2865C5.13673 22.5911 4.49779 23.7649 4.81724 25.1021C4.52751 24.9684 4.52009 24.6712 4.46066 24.4186C4.25265 23.5346 4.69841 22.554 5.50817 22.0785C6.31793 21.6105 7.32083 21.7368 7.99686 22.3905C8.09344 22.4797 8.21975 22.554 8.2049 22.7025Z" fill="#808080"/>
<path d="M11.4446 21.6486C11.3552 21.7677 11.318 21.8646 11.1839 21.8794C11.1467 21.6783 11.1988 21.589 11.4446 21.6486Z" fill="#808080"/>
<path d="M44.451 14.5685C44.451 15.7051 43.5521 16.604 42.4229 16.5966C41.3086 16.5892 40.4246 15.6977 40.4246 14.5759C40.4246 13.4467 41.2863 12.5627 42.4155 12.5552C43.567 12.5478 44.451 13.4244 44.451 14.5685Z" fill="#474546"/>
<path d="M49.8963 14.576C49.8963 15.7052 49.0196 16.5893 47.8978 16.5967C46.7835 16.6041 45.8549 15.6755 45.8549 14.5612C45.8623 13.4245 46.7612 12.5405 47.9053 12.5479C49.0345 12.5702 49.8963 13.4468 49.8963 14.576Z" fill="#474546"/>
<path d="M46.9543 19.0482C46.9543 19.6277 46.5086 20.0734 45.9366 20.0734C45.3794 20.066 44.9337 19.6277 44.9337 19.0705C44.9263 18.491 45.372 18.0527 45.9589 18.0527C46.5161 18.0527 46.9543 18.491 46.9543 19.0482Z" fill="#474546"/>
<path d="M43.6338 20.0735C43.0543 20.0661 42.6309 19.6203 42.6458 19.026C42.6606 18.454 43.0841 18.0454 43.6561 18.0528C44.2133 18.0603 44.6664 18.5134 44.6664 19.0557C44.6739 19.6129 44.191 20.0809 43.6338 20.0735Z" fill="#474546"/>
</svg>
