<svg width="107" height="27" viewBox="0 0 107 27" fill="none" xmlns="http://www.w3.org/2000/svg">
<path d="M37.5862 19.625L37.5566 17.9478C37.5123 15.709 37.5123 13.4776 37.4975 11.2389L37.4827 7.88443C37.4827 7.21206 37.3498 6.37714 36.9951 5.6826C36.6552 4.9659 36.1158 4.35264 35.51 3.89454C34.2834 2.97096 32.8426 2.54241 31.4314 2.43158C30.0202 2.32075 28.5941 2.52764 27.2716 3.04484C26.9169 3.18523 26.5697 3.35517 26.2372 3.54727V2.64586C26.2372 2.32075 26.0598 2.16559 25.7052 2.16559C23.7767 2.16559 22.0404 2.65324 20.4888 3.63594C20.1563 3.81327 19.7351 4.12359 19.2253 4.56691C18.7598 5.01023 18.4347 5.36489 18.2352 5.6161C17.4225 6.64313 16.8905 7.75143 16.6393 8.93362C16.4841 8.12825 16.2181 7.33766 15.8117 6.56924C15.6344 6.22197 15.3906 5.84515 15.0877 5.43877C14.9103 5.21711 14.6665 4.94373 14.3636 4.61863C13.9498 4.22703 13.6395 3.96843 13.44 3.83543C13.1297 3.59899 12.8563 3.42167 12.6346 3.28128C12.243 3.04484 11.7258 2.82318 11.0904 2.59413C10.2038 2.30598 9.30972 2.1582 8.40092 2.1582C7.49211 2.1582 6.59807 2.30598 5.71143 2.59413C5.06862 2.8158 4.55882 3.04484 4.16722 3.28128C3.94556 3.41428 3.67216 3.59899 3.36184 3.83543C3.16234 3.96843 2.85202 4.22703 2.43825 4.61863C2.13532 4.94373 1.89151 5.20973 1.71418 5.43877C1.41124 5.85254 1.16739 6.22936 0.990057 6.56924C0.325076 7.82532 0 9.11833 0 10.4557V10.5591C0 11.9186 0.339875 13.2264 1.01224 14.4973C1.22652 14.8889 1.5073 15.2953 1.85456 15.7312C2.16489 16.1302 2.57123 16.5366 3.06627 16.9503C3.34704 17.172 3.59827 17.3567 3.81993 17.5045C5.23117 18.4059 6.76804 18.8566 8.41571 18.8566C10.0634 18.8566 11.5928 18.4059 13.0114 17.5045C13.2331 17.3567 13.4917 17.1794 13.7725 16.9503C14.2675 16.5366 14.6665 16.1302 14.9842 15.7312C15.3315 15.2953 15.6123 14.8889 15.8265 14.4973C16.1147 13.9505 16.329 13.3964 16.4989 12.8348V18.3542C16.4989 18.6793 16.6762 18.8344 17.0309 18.8344H18.8781C19.2475 18.8344 19.4174 18.6645 19.41 18.3172V10.4631C19.4248 9.82026 19.5652 9.16267 19.8312 8.49768C20.0233 8.07653 20.2006 7.76621 20.341 7.56671C20.4666 7.33027 20.7548 6.9904 21.2202 6.5323C21.5971 6.19981 21.9 5.96337 22.1364 5.83037C22.432 5.65305 22.7054 5.50527 22.964 5.39444C23.2448 5.26145 23.6142 5.13584 24.0797 5.01023C24.2127 4.97329 24.3678 4.95112 24.5156 4.92896C24.3161 5.13584 24.124 5.34272 23.9541 5.57177C23.0896 6.68746 22.6463 8.01742 22.4837 9.30305C22.3433 10.6108 22.3877 11.8004 22.6684 13.1008C22.9566 14.3643 23.5624 15.7534 24.7668 16.7582C25.949 17.7705 27.5006 18.236 28.8971 18.2951C29.6064 18.3394 30.2935 18.2803 30.9585 18.1916C31.6235 18.1177 32.7466 17.8148 32.5619 16.5809C32.3772 15.347 31.1654 15.4948 30.6482 15.5391C30.131 15.5613 29.6286 15.5317 29.1483 15.4874C28.1878 15.3692 27.375 15.0958 26.7691 14.6081C26.1485 14.1426 25.72 13.3964 25.4761 12.495C25.2323 11.6157 25.1954 10.5296 25.3062 9.62076C25.5131 7.75143 26.6509 6.21458 28.4242 5.53483C29.2961 5.18756 30.2861 5.03979 31.2319 5.12845C32.185 5.19495 33.0939 5.51266 33.7219 6.00031C34.0396 6.24414 34.2687 6.52491 34.4091 6.83523C34.5568 7.16034 34.6085 7.44849 34.6159 7.8992L34.5938 11.2537C34.579 13.4924 34.579 15.7238 34.5347 17.9626L34.5051 19.6398L34.4977 20.0462L34.4903 20.0536C34.4755 20.0757 34.4682 20.0979 34.4608 20.1201L34.4017 20.2383C34.3647 20.3122 34.313 20.4008 34.2539 20.4895C33.8032 21.2062 33.0717 21.8416 32.2885 22.2702C31.4905 22.6987 30.5965 22.9499 29.6507 22.9795C28.705 23.009 27.7297 22.8391 26.7544 22.5879L25.7864 26.0015C27.1238 26.2674 28.5203 26.4152 29.9463 26.2748C31.3723 26.1271 32.8057 25.6837 34.0248 24.9375C35.244 24.1765 36.2562 23.2085 37.0025 21.982C37.0985 21.8342 37.1872 21.6717 37.2685 21.487L37.3941 21.221L37.5049 20.8959C37.5862 20.7555 37.6527 20.0462 37.6231 20.061L37.5862 19.625ZM13.1149 13.7658C12.9819 13.9579 12.7898 14.1796 12.546 14.453C12.2356 14.7633 11.9844 14.9776 11.8071 15.1032C10.7727 15.8346 9.63482 16.2041 8.39352 16.2041C7.14484 16.2041 6.00698 15.8346 4.97996 15.1032C4.80263 14.9776 4.55142 14.7633 4.24109 14.453C3.99727 14.187 3.80515 13.9579 3.67215 13.7658C2.985 12.7683 2.64516 11.6822 2.64516 10.5148C2.64516 9.74637 2.80032 9.00012 3.10325 8.28341C3.73129 6.87218 4.76567 5.85993 6.21385 5.24667C6.94533 4.95851 7.66944 4.81074 8.40092 4.81074C9.1324 4.81074 9.8565 4.95851 10.588 5.24667C12.0362 5.85993 13.0705 6.87218 13.6986 8.28341C14.0015 9.0075 14.1493 9.75376 14.1493 10.5148C14.1419 11.6822 13.802 12.761 13.1149 13.7658ZM34.446 20.1127C34.446 20.0905 34.4534 20.0757 34.4534 20.061V20.157C34.4534 20.2013 34.446 20.1201 34.446 20.1127Z" fill="#474546"/>
<path d="M66.6313 5.27622C66.3653 4.87724 66.0254 4.47086 65.6116 4.05709C65.3752 3.83543 65.1609 3.65072 64.9762 3.51033C63.7866 2.60891 62.4936 2.1582 61.112 2.1582C59.7229 2.1582 58.4372 2.60891 57.2477 3.51033C57.0555 3.6581 56.8487 3.83543 56.6122 4.05709C56.1985 4.47086 55.8586 4.87724 55.5926 5.27622C55.2971 5.71216 55.0606 6.11853 54.8833 6.51013C54.5729 7.20467 54.3513 7.91398 54.2109 8.63068C53.9302 7.42633 53.3908 6.31064 52.578 5.291C52.2086 4.84768 51.7874 4.42653 51.3146 4.04232C50.886 3.70983 50.4944 3.44383 50.1398 3.24434C48.8393 2.53503 47.4798 2.18037 46.0686 2.18037H45.9651C44.7164 2.18037 43.5047 2.46114 42.3151 3.03007C41.99 3.17784 41.6059 3.3995 41.1551 3.71721C40.8744 3.90932 40.5419 4.1827 40.1429 4.55213C39.8178 4.87723 39.5739 5.13584 39.4188 5.33533C39.1232 5.72693 38.8942 6.0742 38.7095 6.38453C37.9706 7.69971 37.6012 9.05923 37.6012 10.4705V10.5739C37.6012 11.7635 37.8671 12.9309 38.3917 14.0761C39.1306 15.5982 40.2463 17.0316 41.7093 17.9109C43.0688 18.7014 44.7313 19.3886 46.2312 19.3886V19.3812C46.3124 19.3886 46.3937 19.396 46.475 19.4034C47.1843 19.4477 47.8714 19.3886 48.5364 19.2999C49.2014 19.226 50.3245 18.9231 50.1398 17.6892C49.955 16.4553 48.7433 16.6031 48.2261 16.6474C47.7089 16.6696 47.2065 16.64 46.7262 16.5957C46.0538 16.5144 44.5908 16.3371 43.3791 15.7164C42.9727 15.4061 42.6181 15.1327 42.3743 14.948C42.1526 14.7559 41.894 14.5047 41.5984 14.1796C40.7044 13.0787 40.2537 11.8595 40.2537 10.5296C40.2537 9.80548 40.3941 9.09617 40.6749 8.39424C40.9335 7.75882 41.3029 7.18989 41.7832 6.68007L41.8644 6.5988C42.123 6.3328 42.3373 6.1407 42.5072 6.01509C43.5712 5.2245 44.7386 4.8329 46.0095 4.8329C47.1399 4.8329 48.1891 5.14323 49.157 5.76388C49.4009 5.93382 49.6817 6.15548 49.9994 6.42886C50.2949 6.73179 50.5018 6.96084 50.62 7.13078C50.8565 7.45588 51.0412 7.75882 51.1742 8.04698C51.5658 8.8154 51.7653 9.67987 51.7653 10.6478V18.369C51.7505 18.7162 51.9131 18.8714 52.2382 18.8492H53.9375C54.0632 18.8492 54.1518 18.8271 54.2331 18.7901C54.2922 18.8123 54.3587 18.8344 54.44 18.8344H55.8734C56.1394 18.8344 56.2723 18.6941 56.2723 18.4207V10.4926C56.2723 9.32522 56.5605 8.23908 57.1369 7.24161C57.2477 7.04951 57.4102 6.82785 57.6171 6.55446C57.8831 6.24414 58.09 6.02987 58.2378 5.90426C59.1096 5.17278 60.0628 4.80335 61.112 4.80335C62.1612 4.80335 63.1217 5.17278 63.9862 5.90426C64.1339 6.02987 64.3482 6.24414 64.6068 6.55446C64.8137 6.82046 64.9762 7.04951 65.0871 7.24161C65.6634 8.23908 65.9515 9.32522 65.9515 10.4926V18.4281C65.9515 18.7088 66.0845 18.8418 66.3505 18.8418H67.7839C68.0646 18.8418 68.2051 18.6867 68.1977 18.3763V10.4409C68.1977 9.08139 67.9169 7.7736 67.348 6.50274C67.1559 6.11853 66.9194 5.71216 66.6313 5.27622Z" fill="#474546"/>
<path d="M79.6571 2.2166H81.3566C81.6817 2.2166 81.8442 2.06883 81.8442 1.78067V0.443321C81.8442 0.147774 81.6817 0 81.3566 0H79.6571C79.3247 0 79.1547 0.155163 79.1695 0.472876V1.74373C79.1547 2.06144 79.3247 2.2166 79.6571 2.2166Z" fill="#474546"/>
<path d="M88.8932 15.4868C88.9523 15.5681 89.004 15.6494 89.0705 15.7306C89.366 16.1296 89.7503 16.536 90.2232 16.9498C90.4892 17.1714 90.7256 17.3562 90.9398 17.5039C92.2846 18.4053 93.7401 18.8561 95.3065 18.8561C96.8729 18.8561 98.3285 18.4053 99.6732 17.5039C99.8875 17.3562 100.124 17.1788 100.39 16.9498C100.855 16.536 101.24 16.1296 101.543 15.7306C101.875 15.2947 102.141 14.8883 102.341 14.4967C102.983 13.2259 103.301 11.9181 103.301 10.5586V10.4625C103.301 9.12517 102.983 7.83215 102.355 6.57608C102.185 6.22881 101.956 5.85199 101.668 5.44561C101.498 5.22395 101.269 4.95057 100.981 4.62547C100.589 4.23387 100.294 3.97526 100.102 3.84227C99.8063 3.60583 99.5476 3.4285 99.3334 3.28812C98.9565 3.05168 98.4689 2.83002 97.863 2.60097C97.0207 2.31281 96.171 2.16504 95.3065 2.16504C95.0774 2.16504 94.8484 2.17982 94.612 2.19459C94.5677 2.19459 94.5307 2.19459 94.4864 2.19459C94.1317 2.2537 93.7771 2.29804 93.4298 2.37192C92.026 2.68964 90.7255 3.45806 89.7724 4.45553C89.7576 4.47031 89.7429 4.49247 89.7207 4.51464C89.6838 4.54419 89.6542 4.57375 89.6172 4.61069C89.3291 4.93579 89.1001 5.20178 88.9301 5.43083C88.642 5.8446 88.4129 6.22142 88.243 6.5613C87.6149 7.81737 87.2972 9.11039 87.2972 10.4477V10.5512C87.2972 10.7359 87.3194 10.9132 87.3268 11.0979V11.1275L87.2972 11.4822C87.179 13.3737 86.2406 15.0583 84.7038 15.9671C84.3269 16.1887 83.9206 16.3661 83.5364 16.4621C83.1152 16.5582 82.9674 16.5656 82.598 16.4843C82.4207 16.44 82.1547 16.307 81.8517 16.1222V4.13043C81.8517 3.83488 81.6892 3.68711 81.3641 3.68711H79.6647C79.3248 3.68711 79.1623 3.84227 79.177 4.15998V16.4695C79.1549 17.1419 79.1401 17.8216 79.177 18.265V18.3832C79.1697 18.494 79.1992 18.5827 79.2435 18.6566C79.2509 18.6787 79.2657 18.6935 79.2731 18.7083C79.2805 18.7157 79.2879 18.7304 79.2953 18.7378C79.2953 18.7378 79.3027 18.7378 79.3027 18.7452C79.3544 18.7896 79.4282 18.8191 79.5169 18.8339C80.1819 19.1073 81.1572 19.4989 81.8887 19.6023C82.3025 19.6466 82.7457 19.691 83.2112 19.6393C83.4551 19.6171 83.6693 19.5801 83.8614 19.5284C84.0683 19.4841 84.2531 19.425 84.4378 19.3585C85.1693 19.1073 85.7973 18.7526 86.3736 18.3462C87.4523 17.5556 88.3168 16.5877 88.8932 15.4868ZM100.338 8.27547C100.626 8.99956 100.767 9.74582 100.767 10.5069C100.767 11.6743 100.442 12.7604 99.7915 13.7579C99.6659 13.95 99.4811 14.1716 99.2447 14.445C98.9492 14.7553 98.7127 14.9696 98.5427 15.0952C97.56 15.8267 96.4814 16.1961 95.2992 16.1961C94.117 16.1961 93.0308 15.8267 92.0555 15.0952C91.8856 14.9696 91.6491 14.7553 91.3536 14.445C91.1171 14.179 90.9398 13.95 90.8068 13.7579C90.2009 12.8343 89.8907 11.8294 89.8463 10.7655C89.8611 10.5216 89.8537 10.2704 89.898 10.0266C89.9423 9.53893 90.0827 9.06606 90.2379 8.60796C90.5777 7.70654 91.1541 6.68691 91.8412 6.08842C91.8486 6.08104 91.856 6.08104 91.8634 6.07365C92.9496 5.23873 94.043 4.9284 94.8706 4.82496C95.011 4.81018 95.1588 4.8028 95.2992 4.8028C95.9937 4.8028 96.6882 4.95057 97.3753 5.23873C98.757 5.85199 99.7397 6.86424 100.338 8.27547Z" fill="#474546"/>
<path d="M105.459 5.95508C105.651 7.29982 105.754 8.65194 105.74 10.0041C105.747 11.3488 105.636 12.6935 105.415 14.0087C104.964 16.6317 103.996 19.1882 102.23 21.2127C101.366 22.2323 100.294 23.0746 99.112 23.7618C98.5356 24.1312 97.8928 24.3898 97.2648 24.678C96.6072 24.907 95.9644 25.173 95.2773 25.3356C92.5656 26.0818 89.6841 26.3183 86.8025 26.3109C89.6545 26.6877 92.6174 26.7172 95.4842 26.0597C98.351 25.4686 101.107 24.0056 103.021 21.8112C104.919 19.602 105.902 16.8386 106.198 14.0974C106.515 11.3562 106.242 8.57806 105.459 5.95508Z" fill="#474546"/>
<path d="M77.3447 9.14014H70.5028V10.4258H77.3447V9.14014Z" fill="#474546"/>
</svg>
