<svg width="162" height="36" viewBox="0 0 162 36" fill="none" xmlns="http://www.w3.org/2000/svg">
<path fill-rule="evenodd" clip-rule="evenodd" d="M7.63204 25.4625C6.6509 25.4625 5.86078 24.6724 5.86078 23.7V23.6652V23.6479C5.86078 23.1877 6.03443 22.7709 6.31228 22.4497L15.568 6.30864C15.8284 5.66612 16.471 5.21463 17.2003 5.21463H17.235H17.2611C17.7126 5.21463 18.1293 5.3796 18.4506 5.65744C18.6416 5.82241 18.7979 6.01343 18.9021 6.24786L28.2186 22.441C28.4964 22.7622 28.6701 23.179 28.6701 23.6392V23.6565V23.6913C28.6701 24.6637 27.8799 25.4538 26.9075 25.4538H26.8988H26.8554H26.8467H26.838H7.68413H7.67545H7.66677H7.63204V25.4625ZM17.3566 0.456543C26.9422 0.456543 34.7132 8.2275 34.7132 17.8131C34.7132 27.3988 26.9422 35.1697 17.3566 35.1697C7.77096 35.1697 0 27.3988 0 17.8131C0 8.2275 7.77096 0.456543 17.3566 0.456543Z" fill="#474546"/>
<path d="M81.7643 12.2647V25.4709V25.4796V25.4883C81.7643 25.7227 81.5646 25.9138 81.3301 25.9138C81.3041 25.9138 81.2867 25.9138 81.2694 25.9051H78.0394C78.022 25.9051 77.996 25.9138 77.97 25.9138C77.7268 25.9138 77.5358 25.7227 77.5358 25.4796V25.4623V10.1114V10.1027C77.5445 9.86825 77.7355 9.67723 77.97 9.67723H77.9786H84.9855C86.9131 9.67723 88.8232 9.81616 90.308 10.5715C91.8535 11.3617 92.9128 12.7769 93.0083 15.3209V15.3557C92.9475 16.9359 92.5134 18.082 91.8188 18.9156C91.2631 19.5928 90.5337 20.053 89.7176 20.3656L92.9562 25.2278C92.9996 25.2973 93.0343 25.3841 93.0343 25.4709C93.0343 25.7141 92.8433 25.9051 92.6002 25.9051H88.7104H88.693C88.5454 25.9051 88.4065 25.8269 88.3283 25.7141C87.0259 23.7692 85.7235 21.5377 84.4212 19.5494C84.3691 19.4799 84.343 19.3931 84.343 19.2976C84.343 19.0718 84.5167 18.8808 84.7424 18.8635C86.8697 18.6203 88.7104 18.0039 88.7104 15.3296C88.7104 11.5614 84.8987 11.7871 82.2071 11.8218H82.1984C81.9553 11.8218 81.7643 12.0215 81.7643 12.2647ZM105.633 20.5913L103.419 15.6422V15.6335C103.349 15.4859 103.202 15.3817 103.019 15.3817C102.828 15.3817 102.672 15.5033 102.611 15.6683L100.345 20.6174C100.31 20.6781 100.293 20.7476 100.293 20.8171C100.293 21.0602 100.484 21.2512 100.727 21.2512H105.242H105.277C105.503 21.2338 105.676 21.0428 105.676 20.8171C105.694 20.7215 105.668 20.6521 105.633 20.5913ZM98.8951 23.6215L97.9834 25.6533C97.914 25.8009 97.7664 25.9051 97.5927 25.9051H97.584H95.4221C95.1789 25.9051 94.9879 25.7141 94.9879 25.4709C94.9879 25.3841 95.014 25.306 95.0487 25.2452L102.455 9.92035C102.524 9.77274 102.672 9.67723 102.846 9.67723H105.008C105.181 9.67723 105.338 9.78143 105.407 9.92903L112.64 25.2712C112.674 25.332 112.692 25.4015 112.692 25.4796C112.692 25.7227 112.501 25.9138 112.258 25.9138C110.938 25.9138 109.627 25.9138 108.307 25.9138C108.133 25.9138 107.977 25.8096 107.908 25.662L106.996 23.6302C106.927 23.4739 106.779 23.3697 106.597 23.3697H106.588H99.3032H99.2858C99.1122 23.3697 98.9646 23.4739 98.8951 23.6215ZM46.7646 12.0736V25.4623V25.4709C46.7646 25.7054 46.5822 25.8964 46.3478 25.9138H46.3217H42.9182C42.675 25.9138 42.4753 25.7141 42.4753 25.4709V25.4536V9.87693V9.86825C42.4753 9.62514 42.675 9.42544 42.9182 9.42544H42.9268H51.0191C52.9726 9.42544 54.7352 9.56436 56.246 10.3371C58.1996 11.3356 59.1807 13.2371 59.1634 15.3557C59.146 17.4569 58.3646 19.315 56.4283 20.3048C54.9176 21.0775 52.7122 21.2165 50.7586 21.2165H50.2724C50.0987 21.2165 49.9511 21.1209 49.8816 20.982L49.0741 19.7317C49.0307 19.6623 49.0047 19.6536 49.0047 19.4886C49.0047 19.3236 49.2044 19.0458 49.4475 19.0458H49.4562H49.4649C51.7224 19.0197 54.3966 18.6724 54.7526 16.1545C54.8134 15.7551 54.8134 15.0691 54.77 14.6697C54.4313 11.379 49.8209 11.5874 47.2161 11.6221H47.2074C46.9643 11.6221 46.7646 11.8218 46.7646 12.065V12.0736ZM130.205 20.8865C131.924 21.9718 131.047 23.5868 128.468 23.5868H121.982H121.974C121.73 23.5868 121.539 23.7865 121.539 24.0209V24.0296V25.4536V25.4623C121.539 25.7054 121.739 25.8964 121.974 25.8964C121.982 25.8964 121.991 25.8964 122 25.8964H129.805C134.676 25.8964 136.343 24.1251 136.482 21.8677C136.569 20.4697 135.883 19.2021 134.008 18.1515L127.4 14.5656C126.176 13.8623 126.332 12.9506 126.81 12.4209C127.253 11.926 127.912 11.8653 129.137 11.8653H134.181H134.19C134.433 11.8653 134.624 11.6656 134.624 11.4311V9.98981C134.624 9.7467 134.433 9.55568 134.19 9.55568H128.633C126.046 9.55568 121.704 10.1895 121.531 13.8015C121.47 15.182 122.191 16.5712 123.988 17.4742L130.205 20.8865ZM118.509 10.1114V25.4709C118.509 25.7141 118.318 25.9051 118.075 25.9051H115.01C114.767 25.9051 114.576 25.7141 114.576 25.4709V10.12V10.1114C114.576 9.86825 114.776 9.67723 115.01 9.67723H118.075C118.318 9.67723 118.509 9.86825 118.509 10.1114ZM153.031 13.4715C151.877 12.3602 150.288 11.6742 148.525 11.6742C146.762 11.6742 145.165 12.3602 144.019 13.4715C142.873 14.5742 142.161 16.1024 142.161 17.7955C142.161 19.4799 142.873 21.0081 144.019 22.1195C145.174 23.2308 146.762 23.9168 148.525 23.9168C150.288 23.9168 151.885 23.2308 153.031 22.1195C154.177 21.0168 154.889 19.4886 154.889 17.7955C154.889 16.1024 154.177 14.5742 153.031 13.4715ZM148.516 9.27783C151.486 9.27783 154.186 10.2156 156.14 11.7263C158.137 13.2718 159.37 15.4078 159.37 17.7868C159.37 20.1659 158.137 22.3018 156.14 23.8473C154.177 25.3581 151.486 26.2958 148.516 26.2958C145.547 26.2958 142.847 25.3581 140.884 23.8473C138.887 22.3018 137.654 20.1659 137.654 17.7868C137.654 15.4078 138.887 13.2632 140.884 11.7263C142.847 10.2156 145.547 9.27783 148.516 9.27783ZM68.6622 20.5913L66.4481 15.6422V15.6335C66.3786 15.4859 66.231 15.3817 66.0487 15.3817C65.8577 15.3817 65.7014 15.5033 65.6406 15.6683L63.3831 20.6C63.3484 20.6608 63.331 20.7302 63.331 20.7997C63.331 21.0428 63.5307 21.2338 63.7652 21.2338H68.2801H68.3149C68.5406 21.2165 68.7143 21.0254 68.7143 20.7997C68.7229 20.7215 68.7056 20.6521 68.6622 20.5913ZM62.1936 23.6215L61.2819 25.6533C61.2125 25.8009 61.0649 25.9051 60.8912 25.9051H60.8825H58.7206C58.4774 25.9051 58.2864 25.7141 58.2864 25.4709C58.2864 25.3841 58.3125 25.306 58.3472 25.2452L65.7448 9.91167C65.8143 9.76406 65.9619 9.66855 66.1355 9.66855H68.2975C68.4712 9.66855 68.6274 9.77274 68.6969 9.92035L75.9295 25.2626C75.9643 25.3233 75.9816 25.3928 75.9816 25.4709C75.9816 25.7141 75.7906 25.9051 75.5475 25.9051C74.2364 25.9051 72.9167 25.9051 71.5969 25.9051C71.4232 25.9051 71.267 25.8009 71.1975 25.6533L70.2858 23.6215C70.2164 23.4653 70.0688 23.3611 69.8864 23.3611H69.8777H62.6017H62.5843C62.4107 23.3698 62.2631 23.4739 62.1936 23.6215ZM159.309 5.78741C158.345 5.78741 157.564 6.5949 157.564 7.58472C157.564 8.57454 158.345 9.38202 159.309 9.38202C160.273 9.38202 161.054 8.57454 161.054 7.58472C161.054 6.5949 160.273 5.78741 159.309 5.78741ZM159.309 5.46616C160.446 5.46616 161.367 6.41256 161.367 7.58472C161.367 8.75687 160.446 9.70328 159.309 9.70328C158.171 9.70328 157.251 8.75687 157.251 7.58472C157.251 6.41256 158.171 5.46616 159.309 5.46616ZM158.883 8.62664H158.432V6.53412H159.292C159.422 6.53412 159.552 6.5428 159.674 6.56017C159.795 6.57753 159.899 6.60358 159.995 6.65568C160.09 6.70777 160.168 6.77723 160.229 6.87274C160.29 6.96825 160.325 7.09849 160.333 7.26346C160.333 7.36765 160.316 7.45448 160.29 7.53262C160.264 7.60208 160.229 7.67155 160.186 7.72364C160.151 7.76705 160.116 7.80178 160.073 7.83652C160.03 7.86256 159.977 7.88861 159.925 7.91466L159.847 7.94939L159.899 8.01885L160.333 8.63532H159.812C159.691 8.46167 159.604 8.32274 159.526 8.20119C159.448 8.07963 159.361 7.95807 159.283 7.83652C159.413 7.81915 159.543 7.7931 159.647 7.73232C159.786 7.6455 159.882 7.51526 159.882 7.27214C159.882 6.66436 159.326 6.69909 158.892 6.70777V6.77723V8.62664H158.883ZM118.405 4.67604C118.362 4.46765 118.162 4.31137 118.032 4.30268C117.103 4.27664 115.427 4.61526 114.845 4.92783C114.663 4.97125 114.541 5.1449 114.541 5.35328V6.87274C114.541 6.91616 114.55 6.9422 114.559 6.98562C114.602 7.194 114.802 7.35029 114.932 7.35897C115.861 7.38502 117.537 7.0464 118.118 6.73382C118.301 6.69041 118.422 6.51676 118.422 6.30837V4.78891C118.414 4.7455 118.405 4.71077 118.405 4.67604Z" fill="#474546"/>
</svg>
