<svg width="149" height="49" viewBox="0 0 149 49" fill="none" xmlns="http://www.w3.org/2000/svg">
<path d="M0 0L15.4239 39.0937C17.6475 44.7484 23.0708 48.4566 29.1233 48.4566H148.892L136.082 21.4118C133.869 16.7467 129.401 13.5713 124.292 13.0385L0 0Z" fill="#434041"/>
<path d="M40.0369 31.7634C41.2517 31.7634 42.3255 31.0348 42.7811 29.9147L44.7443 25.043L43.1932 21.4109C42.7811 20.4322 41.87 19.7471 40.8178 19.6166L22.769 17.4961L25.3939 23.9555C25.7844 24.9233 26.6629 25.5867 27.6825 25.7063C27.4222 25.8477 27.2053 26.0543 27.0534 26.3044C26.7931 26.7394 26.7497 27.2831 26.9449 27.7616L30.0905 35.5586C30.5243 36.6243 31.5439 37.3202 32.6937 37.3202H37.9652L35.7307 31.7742H40.0369V31.7634Z" fill="white"/>
<path d="M32.6802 36.5384C31.8233 36.5384 31.0858 36.0055 30.7821 35.2552L29.1334 31.1772L34.4916 31.9058C34.817 31.9493 35.0665 32.1668 35.1858 32.4387L36.8453 36.5384H32.6802Z" fill="#6E6E6E"/>
<path d="M28 24.9454C27.1432 24.9454 26.4056 24.4125 26.1019 23.6622L23.9651 18.3989L40.7232 20.3672C41.5367 20.4651 42.1875 20.9979 42.4912 21.6939L43.8796 24.9345H28V24.9454Z" fill="#434041"/>
<path d="M27.6353 27.4562C27.5377 27.206 27.5486 26.9233 27.7004 26.6841C27.8523 26.434 28.1126 26.2817 28.3838 26.26L43.8945 25.1182L42.0831 29.6202C41.7577 30.4249 40.9659 30.9903 40.0439 30.9903H29.0671L27.6353 27.4562Z" fill="#8F8F8F"/>
<path d="M66.4397 29.0346C66.4397 29.7306 66.4072 29.9263 66.2987 30.5571H61.038C61.3201 31.3618 62.0576 31.862 63.1749 31.862C63.7823 31.862 64.5741 31.7315 65.8431 31.4705L66.136 33.1887C64.9646 33.5693 63.9667 33.7759 63.1098 33.7759C60.2245 33.7759 58.7494 32.0142 58.7494 29.7632C58.7494 27.3273 60.4632 25.7506 62.7193 25.7506C64.8344 25.7397 66.4072 27.0664 66.4397 29.0346ZM60.9513 29.002H64.4982C64.4548 28.0777 63.7497 27.447 62.7735 27.447C61.7973 27.447 61.1465 28.0559 60.9513 29.002Z" fill="white"/>
<path d="M67.6976 23.9551H69.8778V25.9669H72.2424V27.9786H69.8778V30.4906C69.8778 31.328 70.2032 31.8065 71.0492 31.8065C71.5048 31.8065 71.917 31.7738 72.5244 31.6977L72.7305 33.5029C71.9821 33.6769 71.5807 33.753 70.5828 33.753C68.7498 33.753 67.6976 32.6655 67.6976 30.6973V23.9551Z" fill="white"/>
<path d="M78.7407 27.9029C77.8296 27.9029 76.9401 27.9138 76.0724 28.0008V33.5359H74.7491C74.2718 33.5359 73.8922 33.1444 73.8922 32.6768V26.2608C75.2697 26.0107 77.2764 25.7715 78.7407 25.7715V27.9029Z" fill="white"/>
<path d="M87.7619 29.7084C87.7619 32.166 86.0698 33.8189 83.5425 33.8189C81.0044 33.8189 79.2906 32.166 79.2906 29.7084C79.2906 27.2834 81.0044 25.6631 83.5425 25.6631C86.059 25.6631 87.7619 27.2834 87.7619 29.7084ZM85.6143 29.7084C85.6143 28.447 84.7791 27.6205 83.5425 27.6205C82.306 27.6205 81.46 28.4578 81.46 29.7084C81.46 31.0025 82.306 31.8615 83.5425 31.8615C84.7791 31.8615 85.6143 30.9916 85.6143 29.7084Z" fill="white"/>
<path d="M96.8715 29.72C96.8715 32.0689 95.353 33.624 93.2487 33.624C92.522 33.624 91.9146 33.624 91.0035 33.5261V36.5492H89.6802C89.203 36.5492 88.8234 36.1577 88.8234 35.6901V26.1206C89.9189 25.9792 91.5025 25.7617 93.1077 25.7617C95.5048 25.7617 96.8064 27.3276 96.8715 29.72ZM94.7456 29.7853C94.7456 28.5238 94.2249 27.5669 92.7498 27.5669C92.0556 27.5669 91.4916 27.6104 90.9927 27.6648V31.6774C91.9038 31.8188 92.4027 31.8079 92.8908 31.8079C94.008 31.7971 94.7456 30.9054 94.7456 29.7853Z" fill="white"/>
<path d="M105.413 29.0346C105.413 29.7306 105.38 29.9263 105.272 30.5571H100.011C100.293 31.3618 101.031 31.862 102.148 31.862C102.755 31.862 103.547 31.7315 104.816 31.4705L105.109 33.1887C103.937 33.5693 102.94 33.7759 102.083 33.7759C99.1974 33.7759 97.7223 32.0142 97.7223 29.7632C97.7223 27.3273 99.4361 25.7506 101.692 25.7506C103.807 25.7397 105.38 27.0664 105.413 29.0346ZM99.9242 29.002H103.471C103.428 28.0777 102.723 27.447 101.746 27.447C100.77 27.447 100.13 28.0559 99.9242 29.002Z" fill="white"/>
<path d="M111.602 27.9029C110.691 27.9029 109.801 27.9138 108.933 28.0008V33.5359H107.61C107.133 33.5359 106.753 33.1444 106.753 32.6768V26.2608C108.131 26.0107 110.137 25.7715 111.602 25.7715V27.9029Z" fill="white"/>
<path d="M120.531 33.373C119.577 33.5469 117.516 33.7536 116.063 33.7536C114.208 33.7536 112.906 32.9706 112.906 30.8718V25.9674H115.087V30.3499C115.087 31.4373 115.585 31.9049 116.573 31.9049C117.126 31.9049 117.722 31.8614 118.362 31.7962V25.9674H120.531V33.373ZM117.505 24.9561H115.466L116.518 22.9443H119.035L117.505 24.9561Z" fill="white"/>
<path d="M58.2243 26.6634C58.2243 28.9579 56.4672 30.4586 53.9074 30.4586H52.2913V33.5361H50.9788C50.5016 33.5361 50.1219 33.1446 50.1219 32.677V23.0857C51.1198 23.0205 52.4973 22.9443 53.8966 22.9443C56.4672 22.9443 58.2243 24.358 58.2243 26.6634ZM54.1026 28.4686C55.2524 28.4686 56.1093 27.7726 56.1093 26.6743C56.1093 25.576 55.2524 24.967 54.1026 24.967C53.4844 24.967 52.8661 24.967 52.2913 24.9996V28.4686H54.1026Z" fill="white"/>
</svg>
