<svg width="77" height="38" viewBox="0 0 77 38" fill="none" xmlns="http://www.w3.org/2000/svg">
<path d="M10.3604 22.3828C7.23024 22.3828 4.86918 21.8906 3.2772 20.8985C1.68522 19.9064 0.731579 18.422 0.400879 16.4378C0.370116 16.2533 0.354736 16.0995 0.354736 15.9764V15.2919L7.35329 15.1919C7.38405 15.4073 7.34559 15.6534 7.4148 15.8841C7.67629 16.7839 9.2375 17.7299 10.8756 17.6299C11.8062 17.5761 12.483 17.4607 12.906 17.1223C13.329 16.7839 13.5443 16.3609 13.5443 15.8533C13.5443 15.5226 13.5135 15.2458 13.4443 15.0074C13.3828 14.769 13.229 14.5613 13.006 14.3767C12.7752 14.1922 12.4522 14.0306 12.0292 13.8691C11.6062 13.7153 11.0448 13.5615 10.345 13.4231C9.7374 13.2923 9.08369 13.177 8.37614 13.0693C7.6686 12.9616 6.96105 12.8232 6.2612 12.6617C5.56134 12.5002 4.88457 12.2849 4.23086 12.0234C3.57715 11.7619 3.00034 11.4081 2.49275 10.9621C1.98517 10.516 1.58524 9.96995 1.28531 9.31624C0.985368 8.66253 0.831557 7.85501 0.831557 6.89367C0.831557 5.78621 1.0392 4.82487 1.4545 4.01734C1.8698 3.20982 2.46199 2.54073 3.23875 2.01007C4.01552 1.47941 4.96147 1.09487 6.092 0.841079C7.21485 0.587285 8.49152 0.456543 9.90661 0.456543C10.8526 0.456543 11.8062 0.541141 12.7599 0.702646C13.7135 0.864151 14.5979 1.16409 15.4131 1.60246C16.2284 2.04083 16.9436 2.63301 17.5666 3.3867C18.1895 4.14039 18.6356 5.10173 18.9124 6.26303C18.9278 6.31687 18.9432 6.39377 18.9509 6.47837C18.9586 6.57066 18.9816 6.72447 19.0124 6.93981L12.7676 6.82445C12.7676 6.77062 12.5522 5.88619 11.9523 5.63239C11.1756 5.30938 10.3219 5.24786 9.6682 5.24786C8.78377 5.24786 8.18389 5.3786 7.86088 5.63239C7.53787 5.88619 7.36866 6.19381 7.36866 6.56297C7.36866 6.74755 7.39944 6.92443 7.45327 7.09363C7.50711 7.26282 7.65323 7.42433 7.88395 7.57045C8.11467 7.71658 8.44536 7.85501 8.88373 7.99344C9.3221 8.13187 9.92968 8.25492 10.6911 8.3626C11.0371 8.41643 11.3755 8.47796 11.7062 8.55486C12.0369 8.62408 12.3523 8.68561 12.6445 8.71637C15.1055 9.11629 16.9667 9.80845 18.2356 10.7852C19.4969 11.7696 20.1353 13.1924 20.1353 15.0689C20.1353 16.2686 19.9584 17.33 19.5969 18.2452C19.2354 19.1604 18.6663 19.9294 17.8819 20.537C17.0974 21.1446 16.0899 21.606 14.8517 21.9136C13.5981 22.2289 12.1062 22.3828 10.3604 22.3828Z" fill="#474546"/>
<path d="M48.7987 6.44772V22.2521H41.9847V6.44772H35.5784V0.710449H55.3204V6.44772H48.7987Z" fill="#474546"/>
<path d="M69.9402 22.2214V13.3078H62.8955V22.2214H56.0739V0.710449H62.8955V8.17813H69.9402V0.710449H76.7619V22.2214H69.9402Z" fill="#474546"/>
<path d="M24.7421 16.7225C24.7421 16.0303 25.3035 15.4689 25.9956 15.4689H33.1634C33.8479 15.4689 34.417 16.0303 34.417 16.7225V21.983H41.1925L29.7487 0.710449L18.2588 21.9753H24.7421V16.7225ZM29.7026 9.73935C31.1254 9.73935 32.279 10.893 32.279 12.3157C32.279 13.7385 31.1254 14.8921 29.7026 14.8921C28.2798 14.8921 27.1262 13.7385 27.1262 12.3157C27.1262 10.8853 28.2798 9.73935 29.7026 9.73935Z" fill="#474546"/>
<path d="M7.1995 26.8589C7.59173 26.8589 7.90707 26.9435 8.15317 27.1127C8.39158 27.2819 8.51463 27.5049 8.51463 27.7818V28.0202H7.73017V27.7818C7.73017 27.751 7.72248 27.7049 7.71479 27.6587C7.7071 27.6049 7.68403 27.5587 7.64558 27.5049C7.60713 27.4588 7.55327 27.4126 7.48406 27.3819C7.41484 27.3511 7.32256 27.328 7.1995 27.328C7.08414 27.328 6.99187 27.3434 6.92265 27.3819C6.85343 27.4126 6.79958 27.4588 6.76113 27.5049C6.73037 27.5511 6.7073 27.6049 6.69191 27.6587C6.68422 27.7126 6.67654 27.751 6.67654 27.7818C6.67654 27.9125 6.69193 28.0202 6.73038 28.1048C6.76115 28.1894 6.81498 28.2586 6.87651 28.3124C6.93803 28.3663 7.01492 28.4124 7.09952 28.4509C7.18412 28.4893 7.2841 28.5278 7.39177 28.5662C7.51482 28.6124 7.63788 28.6585 7.77631 28.72C7.90705 28.7739 8.0301 28.8508 8.13777 28.9431C8.24544 29.0354 8.33774 29.1507 8.40695 29.2815C8.47617 29.4199 8.51463 29.5891 8.51463 29.7967C8.51463 30.0736 8.39158 30.2966 8.15317 30.4658C7.91476 30.635 7.59173 30.7196 7.1995 30.7196C6.80728 30.7196 6.49197 30.635 6.24586 30.4658C6.00745 30.2966 5.8844 30.0736 5.8844 29.7967V29.5583H6.67654V29.7967C6.67654 29.8275 6.68422 29.8736 6.69191 29.9198C6.69961 29.9736 6.72267 30.0198 6.76113 30.0736C6.79189 30.1197 6.84574 30.1659 6.91495 30.1967C6.98417 30.2274 7.07647 30.2505 7.19183 30.2505C7.31488 30.2505 7.40717 30.2351 7.47638 30.1967C7.5456 30.1659 7.59943 30.1197 7.63788 30.0736C7.67633 30.0275 7.6994 29.9736 7.70709 29.9198C7.71479 29.866 7.72247 29.8275 7.72247 29.7967C7.72247 29.6583 7.7071 29.5429 7.66865 29.4507C7.6302 29.3584 7.57634 29.2892 7.50713 29.2276C7.43791 29.1661 7.36101 29.12 7.27642 29.0815C7.19182 29.043 7.09184 29.0046 6.98417 28.9738C6.86111 28.9277 6.73807 28.8815 6.60733 28.8277C6.47659 28.7739 6.36123 28.7047 6.25356 28.6124C6.14589 28.5201 6.05358 28.4124 5.99206 28.2817C5.92284 28.1509 5.8921 27.9817 5.8921 27.7818C5.8921 27.5049 6.01515 27.2819 6.25356 27.1127C6.49197 26.9435 6.80728 26.8589 7.1995 26.8589Z" fill="#474546"/>
<path d="M10.6911 27.6973C11.0833 27.6973 11.3986 27.7819 11.6447 27.9511C11.8831 28.1203 12.0062 28.3433 12.0062 28.6202V29.2969H10.1758V29.7891C10.1758 29.8276 10.1835 29.866 10.1912 29.9199C10.1989 29.9737 10.222 30.0199 10.2604 30.066C10.2989 30.1122 10.345 30.1583 10.4142 30.1891C10.4834 30.2198 10.5757 30.2429 10.6911 30.2429C10.8065 30.2429 10.8987 30.2275 10.9679 30.1891C11.0372 30.1583 11.091 30.1122 11.1218 30.066C11.1602 30.0199 11.1833 29.966 11.191 29.9199C11.1987 29.866 11.2064 29.8276 11.2064 29.7891V29.5507H11.9985V29.7891C11.9985 30.066 11.8755 30.289 11.6371 30.4582C11.3986 30.6274 11.0756 30.712 10.6834 30.712C10.2912 30.712 9.97585 30.6274 9.72975 30.4582C9.49134 30.289 9.36829 30.066 9.36829 29.7891V28.6278C9.36829 28.351 9.49134 28.1279 9.72975 27.9587C9.98354 27.7819 10.2989 27.6973 10.6911 27.6973ZM11.2141 28.6278C11.2141 28.5894 11.2064 28.5509 11.1987 28.4971C11.191 28.4433 11.1679 28.3971 11.1295 28.351C11.091 28.3048 11.0372 28.2587 10.9756 28.2279C10.9064 28.1972 10.8141 28.1741 10.6988 28.1741C10.5834 28.1741 10.4911 28.1895 10.4219 28.2279C10.3527 28.2587 10.2989 28.3048 10.2604 28.351C10.2296 28.3971 10.2066 28.451 10.1912 28.4971C10.1835 28.5509 10.1758 28.5894 10.1758 28.6278V28.9432H11.2141V28.6278Z" fill="#474546"/>
<path d="M13.1441 27.9815C13.2441 27.8969 13.3671 27.8276 13.5132 27.7738C13.6594 27.7277 13.8209 27.7046 13.9977 27.7046C14.2054 27.7046 14.3977 27.743 14.5745 27.8123L14.1054 28.2199C14.0285 28.1891 13.9362 28.1737 13.8285 28.1737C13.7055 28.1737 13.6132 28.1891 13.544 28.2276C13.4748 28.2583 13.4209 28.3045 13.3825 28.3506C13.344 28.3968 13.321 28.4506 13.3133 28.4967C13.3056 28.5506 13.2979 28.589 13.2979 28.6275V30.7193H12.5057V27.7046H12.9749C13.0518 27.7507 13.1056 27.843 13.1441 27.9815Z" fill="#474546"/>
<path d="M16.7435 27.7119H17.5433L16.5743 30.7113H15.536L14.567 27.7119H15.3668L15.936 29.6269L16.0513 30.296L16.159 29.6192L16.7435 27.7119Z" fill="#474546"/>
<path d="M17.8975 26.8745H18.6819V27.336H17.8975V26.8745ZM17.8975 27.6974H18.6819V30.7122H17.8975V27.6974Z" fill="#474546"/>
<path d="M20.4967 27.6973C20.889 27.6973 21.2043 27.7819 21.4504 27.9511C21.6888 28.1203 21.8119 28.3433 21.8119 28.6202V28.8586H21.0197V28.6202C21.0197 28.5894 21.012 28.5432 21.0043 28.4971C20.9966 28.4433 20.9736 28.3971 20.9351 28.3433C20.8967 28.2971 20.8428 28.251 20.7813 28.2202C20.7121 28.1895 20.6198 28.1664 20.5044 28.1664C20.3891 28.1664 20.2968 28.1818 20.2276 28.2202C20.1583 28.251 20.1045 28.2971 20.0661 28.3433C20.0353 28.3894 20.0122 28.4433 19.9969 28.4971C19.9892 28.5509 19.9815 28.5894 19.9815 28.6202V29.7815C19.9815 29.8199 19.9892 29.8584 19.9969 29.9122C20.0045 29.966 20.0276 30.0122 20.0661 30.0583C20.1045 30.1045 20.1507 30.1506 20.2276 30.1814C20.2968 30.2121 20.3891 30.2352 20.5044 30.2352C20.6198 30.2352 20.7121 30.2198 20.7813 30.1814C20.8505 30.1506 20.9044 30.1045 20.9351 30.0583C20.9736 30.0122 20.9966 29.9583 21.0043 29.9122C21.012 29.8584 21.0197 29.8199 21.0197 29.7815V29.543H21.8119V29.7815C21.8119 30.0583 21.6888 30.2813 21.4504 30.4505C21.212 30.6197 20.889 30.7043 20.4967 30.7043C20.1045 30.7043 19.7892 30.6197 19.5431 30.4505C19.3047 30.2813 19.1816 30.0583 19.1816 29.7815V28.6202C19.1816 28.3433 19.3047 28.1203 19.5431 27.9511C19.7892 27.7819 20.1045 27.6973 20.4967 27.6973Z" fill="#474546"/>
<path d="M22.3195 26.8745H23.1039V27.336H22.3195V26.8745ZM22.3195 27.6974H23.1039V30.7122H22.3195V27.6974Z" fill="#474546"/>
<path d="M24.9265 27.6973C25.3187 27.6973 25.634 27.7819 25.8801 27.9511C26.1185 28.1203 26.2416 28.3433 26.2416 28.6202V29.7815C26.2416 30.0583 26.1185 30.2813 25.8801 30.4505C25.6417 30.6197 25.3187 30.7043 24.9265 30.7043C24.5342 30.7043 24.2189 30.6197 23.9728 30.4505C23.7344 30.2813 23.6113 30.0583 23.6113 29.7815V28.6202C23.6113 28.3433 23.7344 28.1203 23.9728 27.9511C24.2112 27.7819 24.5342 27.6973 24.9265 27.6973ZM25.4494 28.6278C25.4494 28.5971 25.4417 28.5509 25.434 28.5048C25.4264 28.451 25.4033 28.4048 25.3648 28.351C25.3264 28.3048 25.2725 28.2587 25.2033 28.2279C25.1341 28.1972 25.0418 28.1741 24.9188 28.1741C24.8034 28.1741 24.7111 28.1895 24.6419 28.2279C24.5727 28.2587 24.5188 28.3048 24.4804 28.351C24.4496 28.3971 24.4266 28.451 24.4112 28.5048C24.4035 28.5586 24.3958 28.5971 24.3958 28.6278V29.7891C24.3958 29.8276 24.4035 29.866 24.4112 29.9199C24.4189 29.9737 24.4419 30.0199 24.4804 30.066C24.5111 30.1122 24.565 30.1583 24.6419 30.1891C24.7111 30.2198 24.8034 30.2429 24.9188 30.2429C25.0418 30.2429 25.1341 30.2275 25.2033 30.1891C25.2725 30.1583 25.3264 30.1122 25.3648 30.066C25.4033 30.0199 25.4264 29.966 25.434 29.9199C25.4417 29.866 25.4494 29.8276 25.4494 29.7891V28.6278Z" fill="#474546"/>
<path d="M30.5408 26.8589H31.333V30.7119H30.8715C30.8331 30.6812 30.7946 30.6427 30.7716 30.6043C30.7408 30.5581 30.7177 30.5043 30.7023 30.4428C30.6024 30.5274 30.4793 30.5966 30.3332 30.6427C30.1871 30.6889 30.0333 30.7119 29.8564 30.7119C29.5103 30.7119 29.2334 30.6273 29.0258 30.4581C28.8181 30.2889 28.7104 30.0659 28.7104 29.789V28.6278C28.7104 28.3509 28.8181 28.1279 29.0258 27.9587C29.2334 27.7895 29.5103 27.7049 29.8564 27.7049C30.1102 27.7049 30.3409 27.7587 30.5408 27.8664V26.8589ZM30.5408 28.6278C30.5408 28.5893 30.5332 28.5508 30.5255 28.497C30.5178 28.4432 30.4947 28.397 30.4563 28.3509C30.4178 28.3047 30.364 28.2586 30.2947 28.2278C30.2255 28.1971 30.1332 28.174 30.0179 28.174C29.9025 28.174 29.8102 28.1894 29.741 28.2278C29.6718 28.2586 29.618 28.3047 29.5795 28.3509C29.5487 28.397 29.5257 28.4509 29.5103 28.497C29.5026 28.5508 29.4949 28.5893 29.4949 28.6278V29.789C29.4949 29.8275 29.5026 29.866 29.5103 29.9198C29.518 29.9736 29.541 30.0198 29.5795 30.0659C29.6103 30.1121 29.6641 30.1582 29.741 30.189C29.8102 30.2197 29.9025 30.2428 30.0179 30.2428C30.1332 30.2428 30.2255 30.2274 30.2947 30.189C30.364 30.1582 30.4178 30.1121 30.4563 30.0659C30.4947 30.0198 30.5178 29.9659 30.5255 29.9198C30.5332 29.866 30.5408 29.8275 30.5408 29.789V28.6278Z" fill="#474546"/>
<path d="M33.1556 27.6973C33.5478 27.6973 33.8631 27.7819 34.1092 27.9511C34.3476 28.1203 34.4707 28.3433 34.4707 28.6202V29.2969H32.6403V29.7891C32.6403 29.8276 32.648 29.866 32.6557 29.9199C32.6634 29.9737 32.6864 30.0199 32.7249 30.066C32.7633 30.1122 32.8095 30.1583 32.8864 30.1891C32.9556 30.2198 33.0479 30.2429 33.1632 30.2429C33.2786 30.2429 33.3709 30.2275 33.4401 30.1891C33.5093 30.1583 33.5632 30.1122 33.6016 30.066C33.6401 30.0199 33.6631 29.966 33.6708 29.9199C33.6785 29.866 33.6862 29.8276 33.6862 29.7891V29.5507H34.4784V29.7891C34.4784 30.066 34.3553 30.289 34.1169 30.4582C33.8785 30.6274 33.5555 30.712 33.1632 30.712C32.771 30.712 32.4557 30.6274 32.2096 30.4582C31.9712 30.289 31.8481 30.066 31.8481 29.7891V28.6278C31.8481 28.351 31.9712 28.1279 32.2096 27.9587C32.448 27.7819 32.7633 27.6973 33.1556 27.6973ZM33.6785 28.6278C33.6785 28.5894 33.6708 28.5509 33.6631 28.4971C33.6555 28.4433 33.6324 28.3971 33.5939 28.351C33.5555 28.3048 33.5016 28.2587 33.4401 28.2279C33.3709 28.1972 33.2786 28.1741 33.1632 28.1741C33.0479 28.1741 32.9556 28.1895 32.8864 28.2279C32.8172 28.2587 32.7633 28.3048 32.7326 28.351C32.7018 28.3971 32.6787 28.451 32.6634 28.4971C32.6557 28.5509 32.648 28.5894 32.648 28.6278V28.9432H33.6862L33.6785 28.6278Z" fill="#474546"/>
<path d="M38.8544 26.8589L39.8235 30.7119H39.0236L38.8006 29.7506H37.8854L37.6624 30.7119H36.8625L37.8316 26.8589H38.8544ZM38.6929 29.2968L38.4468 28.2663L38.3315 27.3972L38.2161 28.2663L37.9854 29.2968H38.6929Z" fill="#474546"/>
<path d="M42.0999 26.8589H42.8921V30.7119H42.4306C42.3922 30.6812 42.3537 30.6427 42.3306 30.6043C42.2999 30.5581 42.2768 30.5043 42.2614 30.4428C42.1614 30.5274 42.0384 30.5966 41.8923 30.6427C41.7462 30.6889 41.5923 30.7119 41.4155 30.7119C41.0694 30.7119 40.7925 30.6273 40.5849 30.4581C40.3772 30.2889 40.2695 30.0659 40.2695 29.789V28.6278C40.2695 28.3509 40.3772 28.1279 40.5849 27.9587C40.7925 27.7895 41.0694 27.7049 41.4155 27.7049C41.6693 27.7049 41.9 27.7587 42.0999 27.8664V26.8589ZM42.0999 28.6278C42.0999 28.5893 42.0922 28.5508 42.0846 28.497C42.0769 28.4432 42.0538 28.397 42.0153 28.3509C41.9769 28.3047 41.923 28.2586 41.8538 28.2278C41.7846 28.1971 41.6923 28.174 41.577 28.174C41.4616 28.174 41.3693 28.1894 41.3001 28.2278C41.2309 28.2586 41.177 28.3047 41.1386 28.3509C41.1078 28.397 41.0848 28.4509 41.0694 28.497C41.0617 28.5508 41.054 28.5893 41.054 28.6278V29.789C41.054 29.8275 41.0617 29.866 41.0694 29.9198C41.0771 29.9736 41.1001 30.0198 41.1386 30.0659C41.1693 30.1121 41.2232 30.1582 41.3001 30.189C41.3693 30.2197 41.4616 30.2428 41.577 30.2428C41.6923 30.2428 41.7846 30.2274 41.8538 30.189C41.923 30.1582 41.9769 30.1121 42.0153 30.0659C42.0538 30.0198 42.0769 29.9659 42.0846 29.9198C42.0922 29.866 42.0999 29.8275 42.0999 29.789V28.6278Z" fill="#474546"/>
<path d="M47.9451 30.2197C47.9451 30.3274 47.9451 30.412 47.9528 30.4812C47.9528 30.5427 47.9605 30.5965 47.9682 30.635C47.9759 30.6811 47.9836 30.7042 47.9913 30.7196H47.3376C47.3068 30.7042 47.276 30.6734 47.2453 30.6273C47.2145 30.5889 47.1991 30.5427 47.1761 30.4735C47.1607 30.412 47.153 30.3274 47.153 30.2197V28.6277C47.153 28.5893 47.1453 28.5508 47.1376 28.497C47.1299 28.4431 47.1068 28.397 47.0684 28.3509C47.0299 28.3047 46.9761 28.2586 46.9069 28.2278C46.8377 28.197 46.7454 28.174 46.63 28.174C46.5223 28.174 46.4377 28.1893 46.3685 28.2124C46.307 28.2432 46.2532 28.2739 46.2147 28.3201C46.1763 28.3662 46.1532 28.4047 46.1301 28.4585C46.1147 28.5047 46.107 28.5508 46.107 28.5816C46.107 28.5893 46.107 28.5893 46.107 28.597C46.107 28.6046 46.107 28.6277 46.107 28.6662C46.107 28.7046 46.107 28.7662 46.107 28.8584C46.107 28.943 46.107 29.0661 46.107 29.2199C46.107 29.3737 46.107 29.5737 46.1147 29.8198C46.1147 30.0582 46.1224 30.3581 46.1224 30.7042H45.3303V28.6123C45.3303 28.5739 45.3226 28.5354 45.3149 28.4816C45.3072 28.4278 45.2841 28.3816 45.2457 28.3355C45.2072 28.2893 45.1534 28.2432 45.0842 28.2124C45.015 28.1817 44.9227 28.1586 44.7996 28.1586C44.6843 28.1586 44.592 28.174 44.5227 28.2124C44.4535 28.2432 44.3997 28.2893 44.3612 28.3355C44.3305 28.3816 44.3074 28.4355 44.292 28.4816C44.2843 28.5354 44.2767 28.5739 44.2767 28.6123V30.7042H43.4845V27.6895H43.9536C44.0229 27.7356 44.0767 27.8279 44.1151 27.9663C44.2151 27.8817 44.3382 27.8125 44.4843 27.7587C44.6304 27.7125 44.7919 27.6895 44.9688 27.6895C45.1688 27.6895 45.338 27.7202 45.4995 27.7817C45.6533 27.8433 45.784 27.9279 45.884 28.0278C45.9763 27.9202 46.107 27.8433 46.2686 27.7817C46.4301 27.7202 46.6069 27.6895 46.7992 27.6895C47.1453 27.6895 47.4222 27.774 47.6298 27.9432C47.8375 28.1124 47.9374 28.3355 47.9374 28.6123V30.2197H47.9451Z" fill="#474546"/>
<path d="M48.5292 26.8745H49.3136V27.336H48.5292V26.8745ZM48.5292 27.6974H49.3136V30.7122H48.5292V27.6974Z" fill="#474546"/>
<path d="M52.8359 30.2195C52.8359 30.3271 52.8359 30.4117 52.8436 30.4809C52.8436 30.5425 52.8513 30.5963 52.859 30.6347C52.8667 30.6809 52.8744 30.704 52.882 30.7193H52.2283C52.1976 30.704 52.1668 30.6732 52.136 30.6271C52.1053 30.5886 52.0899 30.5425 52.0668 30.4732C52.0514 30.4117 52.0438 30.3271 52.0438 30.2195V28.6275C52.0438 28.589 52.0361 28.5506 52.0284 28.4967C52.0207 28.4429 51.9976 28.3968 51.9592 28.3506C51.9207 28.3045 51.8669 28.2583 51.7977 28.2276C51.7285 28.1968 51.6362 28.1737 51.5208 28.1737C51.4054 28.1737 51.3132 28.1891 51.2439 28.2276C51.1747 28.2583 51.1209 28.3045 51.0824 28.3506C51.0517 28.3968 51.0286 28.4506 51.0132 28.4967C51.0055 28.5506 50.9978 28.589 50.9978 28.6275V30.7193H50.2057V27.7046H50.6671C50.7364 27.7507 50.7902 27.843 50.844 27.9815C50.9363 27.8969 51.0594 27.8276 51.2132 27.7738C51.3593 27.7277 51.5285 27.7046 51.6977 27.7046C52.0438 27.7046 52.3206 27.7892 52.5283 27.9584C52.7359 28.1276 52.8359 28.3506 52.8359 28.6275V30.2195Z" fill="#474546"/>
<path d="M53.3901 26.8745H54.1746V27.336H53.3901V26.8745ZM53.3901 27.6974H54.1746V30.7122H53.3901V27.6974Z" fill="#474546"/>
<path d="M55.9892 27.6973C56.1968 27.6973 56.3891 27.7203 56.5506 27.7665C56.7198 27.8126 56.8505 27.8742 56.9659 27.9587C57.0736 28.0357 57.1582 28.1279 57.212 28.2279C57.2735 28.3279 57.2966 28.4279 57.2966 28.5279V28.6202H56.5121V28.5279C56.5121 28.4971 56.5044 28.4586 56.4891 28.4202C56.4737 28.3817 56.4429 28.3356 56.4045 28.3048C56.366 28.2664 56.3122 28.2356 56.243 28.2125C56.1738 28.1895 56.0891 28.1741 55.9892 28.1741C55.8892 28.1741 55.8046 28.1895 55.7354 28.2125C55.6662 28.2356 55.6123 28.2664 55.5739 28.3048C55.5354 28.3433 55.5124 28.3817 55.4893 28.4202C55.4662 28.4586 55.4662 28.4971 55.4662 28.5279C55.4662 28.5971 55.4816 28.6509 55.5047 28.6971C55.5354 28.7432 55.5739 28.7817 55.6277 28.8124C55.6815 28.8432 55.7508 28.8739 55.843 28.9047C55.9276 28.9355 56.0353 28.9662 56.1507 28.997C56.2737 29.0278 56.4045 29.0662 56.5352 29.1047C56.6736 29.1431 56.7967 29.2046 56.9044 29.2739C57.0197 29.3431 57.112 29.4277 57.1812 29.5277C57.2582 29.6276 57.2966 29.7507 57.2966 29.8968C57.2966 29.9968 57.2658 30.0968 57.212 30.1891C57.1505 30.289 57.0736 30.3736 56.9659 30.4505C56.8582 30.5274 56.7198 30.589 56.5506 30.6428C56.3814 30.689 56.1968 30.712 55.9892 30.712C55.7815 30.712 55.5893 30.689 55.4278 30.6428C55.2663 30.5967 55.1278 30.5351 55.0125 30.4505C54.8971 30.3736 54.8125 30.2813 54.7587 30.1891C54.6971 30.0891 54.6741 29.9968 54.6741 29.8968V29.7968H55.4662V29.8968C55.4662 29.9276 55.4739 29.966 55.4893 30.0045C55.5047 30.0429 55.5354 30.0814 55.5739 30.1198C55.6123 30.1583 55.6662 30.1891 55.7277 30.2121C55.7969 30.2352 55.8815 30.2506 55.9815 30.2506C56.0815 30.2506 56.1661 30.2352 56.2353 30.2121C56.3045 30.1891 56.3583 30.1583 56.3968 30.1198C56.4352 30.0814 56.466 30.0429 56.4814 30.0045C56.4968 29.966 56.5045 29.9276 56.5045 29.8968C56.5045 29.8276 56.4891 29.7738 56.466 29.7276C56.4352 29.6815 56.3968 29.643 56.3353 29.6046C56.2737 29.5738 56.2045 29.543 56.1199 29.5123C56.0353 29.4892 55.9353 29.4584 55.8123 29.4277C55.6892 29.3969 55.5662 29.3585 55.4278 29.3123C55.297 29.2662 55.174 29.2123 55.0586 29.1431C54.9432 29.0739 54.851 28.997 54.774 28.897C54.6971 28.797 54.6587 28.674 54.6587 28.5356C54.6587 28.4356 54.6894 28.3356 54.7433 28.2356C54.8048 28.1356 54.8894 28.051 54.9971 27.9664C55.1124 27.8895 55.2432 27.828 55.4124 27.7742C55.5969 27.728 55.7815 27.6973 55.9892 27.6973Z" fill="#474546"/>
<path d="M58.6197 29.9198C58.6274 29.9736 58.6504 30.0198 58.6889 30.0659C58.7196 30.1121 58.7735 30.1582 58.8504 30.189C58.9196 30.2197 59.0119 30.2428 59.1273 30.2428H59.5272V30.7119H59.1273C58.735 30.7119 58.4197 30.6273 58.1736 30.4581C57.9352 30.2889 57.8121 30.0659 57.8121 29.789V26.8589H58.6043V27.6972H59.358V28.1663H58.6043V29.7814C58.6043 29.8275 58.612 29.866 58.6197 29.9198Z" fill="#474546"/>
<path d="M60.4038 27.9815C60.5038 27.8969 60.6269 27.8276 60.773 27.7738C60.9191 27.7277 61.0806 27.7046 61.2575 27.7046C61.4652 27.7046 61.6574 27.743 61.8343 27.8123L61.3652 28.2199C61.2883 28.1891 61.196 28.1737 61.0883 28.1737C60.9653 28.1737 60.873 28.1891 60.8038 28.2276C60.7345 28.2583 60.6807 28.3045 60.6423 28.3506C60.6038 28.3968 60.5807 28.4506 60.573 28.4967C60.5653 28.5506 60.5576 28.589 60.5576 28.6275V30.7193H59.7655V27.7046H60.2346C60.3116 27.7507 60.3654 27.843 60.4038 27.9815Z" fill="#474546"/>
<path d="M63.3034 27.7119C63.6956 27.7119 64.0109 27.7965 64.257 27.9657C64.4954 28.1349 64.6185 28.3579 64.6185 28.6348V30.7267H64.1339C64.0416 30.6651 63.9801 30.5652 63.9417 30.4114C63.8571 30.496 63.7571 30.5729 63.6263 30.6344C63.4956 30.6959 63.3495 30.7267 63.188 30.7267C62.7881 30.7267 62.4728 30.6498 62.2497 30.5036C62.019 30.3575 61.9421 30.1345 62.0036 29.8422C62.0344 29.7038 62.0959 29.5884 62.1959 29.4885C62.2959 29.3885 62.4189 29.3039 62.5497 29.2347C62.6881 29.1655 62.8265 29.1116 62.9803 29.0578C63.1341 29.0116 63.2726 28.9655 63.3956 28.927C63.5187 28.8886 63.6264 28.8501 63.7033 28.8117C63.7879 28.7732 63.8263 28.7271 63.8263 28.6809V28.6348C63.8263 28.5963 63.8186 28.5579 63.8109 28.5041C63.8032 28.4502 63.7802 28.4041 63.7417 28.3579C63.7033 28.3118 63.6494 28.2656 63.5802 28.2349C63.511 28.2041 63.4187 28.181 63.3034 28.181C63.188 28.181 63.0957 28.1964 63.0265 28.2349C62.9573 28.2656 62.9034 28.3118 62.865 28.3579C62.8342 28.4041 62.8111 28.4579 62.7958 28.5041C62.7881 28.5579 62.7804 28.5963 62.7804 28.6348H61.9882C61.9882 28.3579 62.1113 28.1349 62.3497 27.9657C62.5958 27.7965 62.9111 27.7119 63.3034 27.7119ZM63.8263 29.027C63.8109 29.0655 63.7571 29.1039 63.6648 29.1424C63.5725 29.1885 63.4649 29.2347 63.3495 29.2962C63.2341 29.3577 63.1188 29.4269 63.0111 29.5115C62.9034 29.5961 62.8265 29.7038 62.7881 29.8346C62.7573 29.9038 62.7573 29.973 62.7804 30.0191C62.8035 30.073 62.8342 30.1114 62.8803 30.1499C62.9265 30.1806 62.988 30.2114 63.0649 30.2268C63.1418 30.2422 63.2188 30.2498 63.311 30.2498C63.4264 30.2498 63.5187 30.2345 63.5879 30.196C63.6571 30.1653 63.7109 30.1191 63.7494 30.073C63.7879 30.0268 63.8109 29.973 63.8186 29.9268C63.8263 29.873 63.834 29.8345 63.834 29.7961L63.8263 29.027Z" fill="#474546"/>
<path d="M66.4412 27.6973C66.8334 27.6973 67.1488 27.7819 67.3949 27.9511C67.6333 28.1203 67.7563 28.3433 67.7563 28.6202V28.8586H66.9642V28.6202C66.9642 28.5894 66.9565 28.5432 66.9488 28.4971C66.9411 28.4433 66.918 28.3971 66.8796 28.3433C66.8411 28.2971 66.7873 28.251 66.7181 28.2202C66.6489 28.1895 66.5566 28.1664 66.4412 28.1664C66.3258 28.1664 66.2336 28.1818 66.1643 28.2202C66.0951 28.251 66.0413 28.2971 66.0029 28.3433C65.9721 28.3894 65.949 28.4433 65.9336 28.4971C65.9259 28.5509 65.9182 28.5894 65.9182 28.6202V29.7815C65.9182 29.8199 65.9259 29.8584 65.9336 29.9122C65.9413 29.966 65.9644 30.0122 66.0029 30.0583C66.0413 30.1045 66.0874 30.1506 66.1643 30.1814C66.2336 30.2121 66.3258 30.2352 66.4412 30.2352C66.5566 30.2352 66.6489 30.2198 66.7181 30.1814C66.7873 30.1506 66.8411 30.1045 66.8796 30.0583C66.918 30.0122 66.9411 29.9583 66.9488 29.9122C66.9565 29.8584 66.9642 29.8199 66.9642 29.7815V29.543H67.7563V29.7815C67.7563 30.0583 67.6333 30.2813 67.3949 30.4505C67.1565 30.6197 66.8334 30.7043 66.4412 30.7043C66.049 30.7043 65.7337 30.6197 65.4876 30.4505C65.2492 30.2813 65.1261 30.0583 65.1261 29.7815V28.6202C65.1261 28.3433 65.2492 28.1203 65.4876 27.9511C65.726 27.7819 66.0413 27.6973 66.4412 27.6973Z" fill="#474546"/>
<path d="M68.2561 26.8745H69.0405V27.336H68.2561V26.8745ZM68.2561 27.6974H69.0405V30.7122H68.2561V27.6974Z" fill="#474546"/>
<path d="M70.8632 27.6968C71.2554 27.6968 71.5708 27.7814 71.8169 27.9506C72.0553 28.1198 72.1783 28.3428 72.1783 28.6197V29.781C72.1783 30.0579 72.0553 30.2809 71.8169 30.4501C71.5785 30.6193 71.2554 30.7039 70.8632 30.7039C70.471 30.7039 70.1557 30.6193 69.9096 30.4501C69.6711 30.2809 69.5481 30.0579 69.5481 29.781V28.6197C69.5481 28.3428 69.6711 28.1198 69.9096 27.9506C70.148 27.7814 70.471 27.6968 70.8632 27.6968ZM71.8169 27.2431L70.0788 27.5353L69.9019 27.4276L71.8169 26.8047V27.2431ZM71.3939 28.6274C71.3939 28.5966 71.3862 28.5505 71.3785 28.5043C71.3708 28.4505 71.3477 28.4044 71.3093 28.3505C71.2708 28.3044 71.217 28.2582 71.1478 28.2275C71.0785 28.1967 70.9863 28.1736 70.8632 28.1736C70.7478 28.1736 70.6556 28.189 70.5863 28.2275C70.5171 28.2582 70.4633 28.3044 70.4248 28.3505C70.3941 28.3967 70.371 28.4505 70.3556 28.5043C70.3479 28.5582 70.3402 28.5966 70.3402 28.6274V29.7887C70.3402 29.8271 70.3479 29.8656 70.3556 29.9194C70.3633 29.9733 70.3864 30.0194 70.4248 30.0656C70.4556 30.1117 70.5094 30.1578 70.5863 30.1886C70.6556 30.2194 70.7478 30.2424 70.8632 30.2424C70.9863 30.2424 71.0785 30.2271 71.1478 30.1886C71.217 30.1578 71.2708 30.1117 71.3093 30.0656C71.3477 30.0194 71.3708 29.9656 71.3785 29.9194C71.3862 29.8656 71.3939 29.8271 71.3939 29.7887V28.6274Z" fill="#474546"/>
<path d="M75.3086 30.2195C75.3086 30.3271 75.3086 30.4117 75.3163 30.4809C75.3163 30.5425 75.3239 30.5963 75.3316 30.6347C75.3393 30.6809 75.347 30.704 75.3547 30.7193H74.701C74.6702 30.704 74.6395 30.6732 74.6087 30.6271C74.5779 30.5886 74.5626 30.5425 74.5395 30.4732C74.5241 30.4117 74.5164 30.3271 74.5164 30.2195V28.6275C74.5164 28.589 74.5087 28.5506 74.501 28.4967C74.4933 28.4429 74.4703 28.3968 74.4318 28.3506C74.3934 28.3045 74.3395 28.2583 74.2703 28.2276C74.2011 28.1968 74.1088 28.1737 73.9935 28.1737C73.8781 28.1737 73.7858 28.1891 73.7166 28.2276C73.6474 28.2583 73.5935 28.3045 73.5551 28.3506C73.5243 28.3968 73.5012 28.4506 73.4859 28.4967C73.4782 28.5506 73.4705 28.589 73.4705 28.6275V30.7193H72.6783V27.7046H73.1398C73.209 27.7507 73.2628 27.843 73.3167 27.9815C73.409 27.8969 73.532 27.8276 73.6858 27.7738C73.8319 27.7277 74.0011 27.7046 74.1703 27.7046C74.5164 27.7046 74.7933 27.7892 75.0009 27.9584C75.2086 28.1276 75.3086 28.3506 75.3086 28.6275V30.2195Z" fill="#474546"/>
<path d="M13.3056 33.188V33.6571H12.2674V37.041H11.483V33.6571H10.4447V33.188H13.3056Z" fill="#474546"/>
<path d="M14.1749 34.3032C14.2749 34.2186 14.398 34.1494 14.5441 34.0956C14.6902 34.0494 14.8517 34.0264 15.0286 34.0264C15.2362 34.0264 15.4285 34.0648 15.6054 34.134L15.1363 34.5416C15.0594 34.5109 14.9671 34.4955 14.8594 34.4955C14.7364 34.4955 14.6441 34.5109 14.5748 34.5493C14.5056 34.5801 14.4518 34.6262 14.4134 34.6724C14.3749 34.7185 14.3518 34.7724 14.3441 34.8185C14.3364 34.8723 14.3288 34.9108 14.3288 34.9493V37.0411H13.5366V34.0264H14.0057C14.0827 34.0725 14.1365 34.1648 14.1749 34.3032Z" fill="#474546"/>
<path d="M15.6747 33.1958H16.4591V33.6572H15.6747V33.1958ZM15.6747 34.0264H16.4591V37.0412H15.6747V34.0264Z" fill="#474546"/>
<path d="M18.6893 34.0266C19.0353 34.0266 19.3122 34.1112 19.5199 34.2804C19.7275 34.4496 19.8352 34.6727 19.8352 34.9495V36.1108C19.8352 36.3877 19.7275 36.6107 19.5199 36.7799C19.3122 36.9491 19.0353 37.0337 18.6893 37.0337C18.5124 37.0337 18.3509 37.0106 18.2047 36.9645C18.0586 36.9183 17.9356 36.8491 17.8433 36.7645C17.8202 36.8261 17.7971 36.8799 17.7741 36.926C17.7433 36.9722 17.7125 37.0106 17.6741 37.0337H17.2126V33.1807H17.9971V34.1805C18.2047 34.0805 18.4355 34.0266 18.6893 34.0266ZM19.0507 34.9495C19.0507 34.9111 19.043 34.8726 19.0353 34.8188C19.0277 34.765 19.0046 34.7188 18.9661 34.6727C18.9277 34.6265 18.8738 34.5804 18.8046 34.5496C18.7354 34.5188 18.6431 34.4958 18.5278 34.4958C18.4047 34.4958 18.3124 34.5112 18.2432 34.5496C18.174 34.5804 18.1201 34.6265 18.0817 34.6727C18.0432 34.7188 18.0202 34.7726 18.0125 34.8188C18.0048 34.8726 17.9971 34.9111 17.9971 34.9495V36.1108C17.9971 36.1493 18.0048 36.1877 18.0125 36.2416C18.0202 36.2954 18.0432 36.3415 18.0817 36.3877C18.1201 36.4338 18.174 36.48 18.2432 36.5107C18.3124 36.5415 18.4047 36.5646 18.5278 36.5646C18.6431 36.5646 18.7354 36.5492 18.8046 36.5107C18.8738 36.48 18.9277 36.4338 18.9661 36.3877C19.0046 36.3415 19.0277 36.2877 19.0353 36.2416C19.043 36.1877 19.0507 36.1493 19.0507 36.1108V34.9495Z" fill="#474546"/>
<path d="M22.9654 34.0264V37.0411H22.504C22.4732 37.0181 22.4502 36.9796 22.4348 36.9258C22.4117 36.8642 22.3963 36.795 22.381 36.7027C22.281 36.8104 22.1502 36.8873 21.9964 36.9488C21.8426 37.0104 21.6657 37.0411 21.4734 37.0411C21.1273 37.0411 20.8505 36.9565 20.6505 36.7873C20.4506 36.6181 20.3429 36.3951 20.3429 36.1182V34.0264H21.1274V36.1182C21.1274 36.1567 21.135 36.1952 21.1427 36.249C21.1504 36.3028 21.1735 36.349 21.2119 36.3951C21.2427 36.4413 21.2965 36.4874 21.3734 36.5182C21.4427 36.5489 21.535 36.572 21.6503 36.572C21.7734 36.572 21.8657 36.5566 21.9349 36.5182C22.0041 36.4874 22.0579 36.4413 22.0964 36.3951C22.1348 36.349 22.1579 36.2951 22.1656 36.249C22.1733 36.2028 22.181 36.1567 22.181 36.1182V34.0264H22.9654Z" fill="#474546"/>
<path d="M24.4189 36.2416C24.4266 36.2954 24.4496 36.3415 24.4881 36.3877C24.5188 36.4338 24.5727 36.48 24.6496 36.5107C24.7188 36.5415 24.8111 36.5646 24.9265 36.5646H25.3264V37.0337H24.9265C24.5342 37.0337 24.2189 36.9491 23.9728 36.7799C23.7344 36.6107 23.6113 36.3877 23.6113 36.1108V33.1807H24.4035V34.019H25.1572V34.4881H24.4035V36.1031C24.4035 36.1493 24.4112 36.1877 24.4189 36.2416Z" fill="#474546"/>
<path d="M26.7493 34.0347C27.1415 34.0347 27.4568 34.1193 27.7029 34.2885C27.9413 34.4577 28.0644 34.6807 28.0644 34.9576V37.0494H27.5799C27.4876 36.9879 27.426 36.8879 27.3876 36.7341C27.303 36.8187 27.203 36.8956 27.0723 36.9571C26.9415 37.0187 26.7954 37.0494 26.6339 37.0494C26.234 37.0494 25.9187 36.9725 25.6956 36.8264C25.4649 36.6803 25.388 36.4572 25.4495 36.165C25.4803 36.0266 25.5418 35.9112 25.6418 35.8112C25.7418 35.7112 25.8648 35.6266 25.9956 35.5574C26.134 35.4882 26.2724 35.4344 26.4263 35.3805C26.5801 35.3344 26.7185 35.2883 26.8416 35.2498C26.9646 35.2113 27.0723 35.1729 27.1492 35.1344C27.2338 35.096 27.2722 35.0498 27.2722 35.0037V34.9576C27.2722 34.9191 27.2646 34.8806 27.2569 34.8268C27.2492 34.773 27.2261 34.7268 27.1876 34.6807C27.1492 34.6345 27.0953 34.5884 27.0261 34.5576C26.9569 34.5269 26.8646 34.5038 26.7493 34.5038C26.6339 34.5038 26.5416 34.5192 26.4724 34.5576C26.4032 34.5884 26.3494 34.6345 26.3109 34.6807C26.2801 34.7268 26.2571 34.7807 26.2417 34.8268C26.234 34.8806 26.2263 34.9191 26.2263 34.9576H25.4342C25.4342 34.6807 25.5572 34.4577 25.7956 34.2885C26.034 34.1193 26.357 34.0347 26.7493 34.0347ZM27.2645 35.3498C27.2492 35.3882 27.1953 35.4267 27.103 35.4651C27.0108 35.5113 26.9031 35.5574 26.7877 35.619C26.6724 35.6805 26.557 35.7497 26.4493 35.8343C26.3417 35.9189 26.2648 36.0266 26.2263 36.1573C26.1955 36.2265 26.1955 36.2957 26.2186 36.3419C26.2417 36.3957 26.2725 36.4342 26.3186 36.4726C26.3647 36.5034 26.4263 36.5341 26.5032 36.5495C26.5801 36.5649 26.657 36.5726 26.7493 36.5726C26.8646 36.5726 26.9569 36.5572 27.0261 36.5188C27.0953 36.488 27.1492 36.4419 27.1876 36.3957C27.2261 36.3496 27.2492 36.2957 27.2569 36.2496C27.2646 36.1958 27.2722 36.1573 27.2722 36.1189L27.2645 35.3498Z" fill="#474546"/>
<path d="M29.2028 34.3032C29.3028 34.2186 29.4258 34.1494 29.5719 34.0956C29.7181 34.0494 29.8796 34.0264 30.0565 34.0264C30.2641 34.0264 30.4564 34.0648 30.6333 34.134L30.1641 34.5416C30.0872 34.5109 29.9949 34.4955 29.8873 34.4955C29.7642 34.4955 29.6719 34.5109 29.6027 34.5493C29.5335 34.5801 29.4797 34.6262 29.4412 34.6724C29.4028 34.7185 29.3797 34.7724 29.372 34.8185C29.3643 34.8723 29.3566 34.9108 29.3566 34.9493V37.0411H28.5645V34.0264H29.0336C29.1028 34.0725 29.1567 34.1648 29.2028 34.3032Z" fill="#474546"/>
<path d="M30.7865 33.1958H31.5709V33.6572H30.7865V33.1958ZM30.7865 34.0264H31.5709V37.0412H30.7865V34.0264Z" fill="#474546"/>
<path d="M33.3864 34.0347C33.7786 34.0347 34.0939 34.1193 34.34 34.2885C34.5784 34.4577 34.7015 34.6807 34.7015 34.9576V37.0494H34.2169C34.1247 36.9879 34.0631 36.8879 34.0247 36.7341C33.9401 36.8187 33.8401 36.8956 33.7094 36.9571C33.5786 37.0187 33.4325 37.0494 33.271 37.0494C32.8711 37.0494 32.5557 36.9725 32.3327 36.8264C32.102 36.6803 32.0251 36.4572 32.0866 36.165C32.1174 36.0266 32.1789 35.9112 32.2789 35.8112C32.3789 35.7112 32.5019 35.6266 32.6327 35.5574C32.7711 35.4882 32.9095 35.4344 33.0633 35.3805C33.2172 35.3344 33.3556 35.2883 33.4786 35.2498C33.6017 35.2113 33.7094 35.1729 33.7863 35.1344C33.8632 35.096 33.9093 35.0498 33.9093 35.0037V34.9576C33.9093 34.9191 33.9016 34.8806 33.894 34.8268C33.8863 34.773 33.8632 34.7268 33.8247 34.6807C33.7863 34.6345 33.7324 34.5884 33.6632 34.5576C33.594 34.5269 33.5017 34.5038 33.3864 34.5038C33.271 34.5038 33.1787 34.5192 33.1095 34.5576C33.0403 34.5884 32.9864 34.6345 32.948 34.6807C32.9172 34.7268 32.8942 34.7807 32.8788 34.8268C32.8711 34.8806 32.8634 34.9191 32.8634 34.9576H32.0712C32.0712 34.6807 32.1943 34.4577 32.4327 34.2885C32.6788 34.1193 32.9941 34.0347 33.3864 34.0347ZM33.9093 35.3498C33.8939 35.3882 33.8401 35.4267 33.7478 35.4651C33.6555 35.5113 33.5479 35.5574 33.4325 35.619C33.3171 35.6805 33.2018 35.7497 33.0941 35.8343C32.9864 35.9189 32.9095 36.0266 32.8711 36.1573C32.8403 36.2265 32.8403 36.2957 32.8634 36.3419C32.8864 36.3957 32.9172 36.4342 32.9634 36.4726C33.0095 36.5034 33.071 36.5341 33.148 36.5495C33.2249 36.5649 33.3017 36.5726 33.394 36.5726C33.5094 36.5726 33.6017 36.5572 33.6709 36.5188C33.7401 36.488 33.794 36.4419 33.8247 36.3957C33.8632 36.3496 33.8863 36.2957 33.894 36.2496C33.9016 36.1958 33.9093 36.1573 33.9093 36.1189V35.3498Z" fill="#474546"/>
<path d="M39.0698 33.188H39.8619V37.041H39.4005C39.362 37.0103 39.3236 36.9718 39.3005 36.9334C39.2697 36.8872 39.2467 36.8334 39.2313 36.7719C39.1313 36.8565 39.0083 36.9257 38.8621 36.9718C38.716 37.018 38.5622 37.041 38.3853 37.041C38.0392 37.041 37.7624 36.9564 37.5547 36.7872C37.3471 36.618 37.2394 36.395 37.2394 36.1182V34.9492C37.2394 34.6723 37.3471 34.4493 37.5547 34.2801C37.7624 34.1109 38.0392 34.0263 38.3853 34.0263C38.6391 34.0263 38.8698 34.0801 39.0698 34.1878V33.188ZM39.0698 34.9492C39.0698 34.9107 39.0621 34.8723 39.0544 34.8184C39.0467 34.7646 39.0236 34.7184 38.9852 34.6723C38.9467 34.6262 38.8929 34.58 38.8237 34.5492C38.7544 34.5185 38.6622 34.4954 38.5468 34.4954C38.4314 34.4954 38.3391 34.5108 38.2699 34.5492C38.2007 34.58 38.1469 34.6262 38.1084 34.6723C38.0777 34.7184 38.0546 34.7723 38.0392 34.8184C38.0315 34.8723 38.0238 34.9107 38.0238 34.9492V36.1105C38.0238 36.1489 38.0315 36.1874 38.0392 36.2412C38.0469 36.295 38.07 36.3412 38.1084 36.3873C38.1392 36.4335 38.193 36.4796 38.2699 36.5104C38.3391 36.5411 38.4314 36.5642 38.5468 36.5642C38.6622 36.5642 38.7544 36.5488 38.8237 36.5104C38.8929 36.4796 38.9467 36.4335 38.9852 36.3873C39.0236 36.3412 39.0467 36.2873 39.0544 36.2412C39.0621 36.1874 39.0698 36.1489 39.0698 36.1105V34.9492Z" fill="#474546"/>
<path d="M41.746 34.0264C42.1383 34.0264 42.4536 34.111 42.6997 34.2802C42.9381 34.4494 43.0611 34.6724 43.0611 34.9493V35.626H41.2307V36.1182C41.2307 36.1567 41.2384 36.1952 41.2461 36.249C41.2538 36.3028 41.2769 36.349 41.3154 36.3951C41.3461 36.4413 41.3999 36.4874 41.4768 36.5182C41.5461 36.5489 41.6383 36.572 41.7537 36.572C41.8691 36.572 41.9614 36.5566 42.0306 36.5182C42.0998 36.4874 42.1536 36.4413 42.1921 36.3951C42.2305 36.349 42.2536 36.2951 42.2613 36.249C42.269 36.1952 42.2767 36.1567 42.2767 36.1182V35.8721H43.0688V36.1106C43.0688 36.3874 42.9458 36.6104 42.7074 36.7796C42.469 36.9488 42.1459 37.0334 41.7537 37.0334C41.3615 37.0334 41.0462 36.9488 40.8001 36.7796C40.5617 36.6104 40.4386 36.3874 40.4386 36.1106V34.9493C40.4386 34.6724 40.5617 34.4494 40.8001 34.2802C41.0308 34.111 41.3461 34.0264 41.746 34.0264ZM42.2613 34.9493C42.2613 34.9108 42.2536 34.8723 42.2459 34.8185C42.2382 34.7647 42.2152 34.7185 42.1767 34.6724C42.1383 34.6262 42.0844 34.5801 42.0152 34.5493C41.946 34.5186 41.8537 34.4955 41.7383 34.4955C41.623 34.4955 41.5307 34.5109 41.4615 34.5493C41.3923 34.5801 41.3384 34.6262 41.3 34.6724C41.2692 34.7185 41.2461 34.7724 41.2307 34.8185C41.2231 34.8723 41.2154 34.9108 41.2154 34.9493V35.2646H42.2536V34.9493H42.2613Z" fill="#474546"/>
<path d="M47.445 33.188H48.3525V37.041H47.445V35.3645H46.4298V37.041H45.5377V33.188H46.4298V34.903H47.445V33.188Z" fill="#474546"/>
<path d="M51.7209 34.0264V37.0411H51.2595C51.2287 37.0181 51.2056 36.9796 51.1903 36.9258C51.1749 36.8719 51.1518 36.795 51.1364 36.7027C51.0364 36.8104 50.9057 36.8873 50.7519 36.9488C50.5981 37.0104 50.4212 37.0411 50.2289 37.0411C49.8828 37.0411 49.606 36.9565 49.406 36.7873C49.2061 36.6181 49.0984 36.3951 49.0984 36.1182V34.0264H49.8828V36.1182C49.8828 36.1567 49.8905 36.1952 49.8982 36.249C49.9059 36.3028 49.929 36.349 49.9674 36.3951C49.9982 36.4413 50.052 36.4874 50.1289 36.5182C50.1982 36.5489 50.2904 36.572 50.4058 36.572C50.5288 36.572 50.6212 36.5566 50.6904 36.5182C50.7596 36.4874 50.8134 36.4413 50.8442 36.3951C50.8826 36.349 50.9057 36.2951 50.9134 36.249C50.9211 36.1952 50.9288 36.1567 50.9288 36.1182V34.0264H51.7209Z" fill="#474546"/>
<path d="M53.5359 34.0347C53.9281 34.0347 54.2435 34.1193 54.4896 34.2885C54.728 34.4577 54.851 34.6807 54.851 34.9576V37.0494H54.3665C54.2742 36.9879 54.2127 36.8879 54.1742 36.7341C54.0896 36.8187 53.9897 36.8956 53.8589 36.9571C53.7282 37.0187 53.582 37.0494 53.4205 37.0494C53.0206 37.0494 52.7053 36.9725 52.4823 36.8264C52.2515 36.6803 52.1746 36.4572 52.2362 36.165C52.2669 36.0266 52.3285 35.9112 52.4284 35.8112C52.5284 35.7112 52.6515 35.6266 52.7822 35.5574C52.9207 35.4882 53.0591 35.4344 53.2129 35.3805C53.3667 35.3344 53.5051 35.2883 53.6282 35.2498C53.7512 35.2113 53.8589 35.1729 53.9358 35.1344C54.0127 35.096 54.0589 35.0498 54.0589 35.0037V34.9576C54.0589 34.9191 54.0512 34.8806 54.0435 34.8268C54.0358 34.773 54.0127 34.7268 53.9743 34.6807C53.9358 34.6345 53.882 34.5884 53.8128 34.5576C53.7436 34.5269 53.6513 34.5038 53.5359 34.5038C53.4205 34.5038 53.3283 34.5192 53.259 34.5576C53.1898 34.5884 53.136 34.6345 53.0975 34.6807C53.0668 34.7268 53.0437 34.7807 53.0283 34.8268C53.0206 34.8806 53.0129 34.9191 53.0129 34.9576H52.2208C52.2208 34.6807 52.3438 34.4577 52.5823 34.2885C52.8284 34.1193 53.1437 34.0347 53.5359 34.0347ZM54.0589 35.3498C54.0435 35.3882 53.9896 35.4267 53.8974 35.4651C53.8051 35.5113 53.6974 35.5574 53.582 35.619C53.4667 35.6805 53.3513 35.7497 53.2436 35.8343C53.136 35.9189 53.0591 36.0266 53.0206 36.1573C52.9899 36.2265 52.9899 36.2957 53.0129 36.3419C53.036 36.3957 53.0668 36.4342 53.1129 36.4726C53.1591 36.5034 53.2206 36.5341 53.2975 36.5495C53.3744 36.5649 53.4513 36.5726 53.5436 36.5726C53.659 36.5726 53.7512 36.5572 53.8204 36.5188C53.8897 36.488 53.9435 36.4419 53.982 36.3957C54.0204 36.3496 54.0435 36.2957 54.0512 36.2496C54.0589 36.1958 54.0666 36.1573 54.0666 36.1189L54.0589 35.3498Z" fill="#474546"/>
<path d="M57.981 36.5412C57.981 36.6489 57.981 36.7335 57.9887 36.8027C57.9887 36.8642 57.9964 36.9181 58.0041 36.9565C58.0118 37.0027 58.0195 37.0257 58.0272 37.0411H57.3735C57.3427 37.0257 57.3119 36.995 57.2812 36.9488C57.2504 36.9104 57.235 36.8642 57.212 36.795C57.1966 36.7335 57.1889 36.6489 57.1889 36.5412V34.9493C57.1889 34.9108 57.1812 34.8723 57.1735 34.8185C57.1658 34.7647 57.1428 34.7185 57.1043 34.6724C57.0659 34.6262 57.012 34.5801 56.9428 34.5493C56.8736 34.5186 56.7813 34.4955 56.6659 34.4955C56.5506 34.4955 56.4583 34.5109 56.3891 34.5493C56.3199 34.5801 56.266 34.6262 56.2276 34.6724C56.1968 34.7185 56.1737 34.7724 56.1583 34.8185C56.1507 34.8723 56.143 34.9108 56.143 34.9493V37.0411H55.3508V34.0264H55.8123C55.8815 34.0725 55.9353 34.1648 55.9891 34.3032C56.0814 34.2186 56.2045 34.1494 56.3583 34.0956C56.5044 34.0494 56.6736 34.0264 56.8428 34.0264C57.1889 34.0264 57.4658 34.111 57.6734 34.2802C57.8811 34.4494 57.981 34.6724 57.981 34.9493V36.5412Z" fill="#474546"/>
<path d="M59.8422 34.0264C60.2344 34.0264 60.5497 34.111 60.7958 34.2802C61.0343 34.4494 61.1573 34.6724 61.1573 34.9493V35.1877H60.3652V34.9493C60.3652 34.9185 60.3575 34.8723 60.3498 34.8262C60.3421 34.7724 60.319 34.7262 60.2806 34.6724C60.2421 34.6262 60.1883 34.5801 60.1191 34.5493C60.0498 34.5186 59.9576 34.4955 59.8422 34.4955C59.7268 34.4955 59.6345 34.5109 59.5653 34.5493C59.4961 34.5801 59.4423 34.6262 59.4115 34.6724C59.3808 34.7185 59.3577 34.7724 59.3423 34.8262C59.3346 34.88 59.3269 34.9185 59.3269 34.9493V36.1106C59.3269 36.149 59.3346 36.1875 59.3423 36.2413C59.35 36.2951 59.3731 36.3413 59.4115 36.3874C59.4423 36.4336 59.4961 36.4797 59.5653 36.5105C59.6345 36.5412 59.7268 36.5643 59.8422 36.5643C59.9576 36.5643 60.0498 36.5489 60.1191 36.5105C60.1883 36.4797 60.2421 36.4336 60.2806 36.3874C60.319 36.3413 60.3421 36.2874 60.3498 36.2413C60.3575 36.1875 60.3652 36.149 60.3652 36.1106V35.8721H61.1573V36.1106C61.1573 36.3874 61.0343 36.6104 60.7958 36.7796C60.5574 36.9488 60.2344 37.0334 59.8422 37.0334C59.45 37.0334 59.1347 36.9488 58.8886 36.7796C58.6502 36.6104 58.5271 36.3874 58.5271 36.1106V34.9493C58.5271 34.6724 58.6502 34.4494 58.8886 34.2802C59.1347 34.111 59.45 34.0264 59.8422 34.0264Z" fill="#474546"/>
<path d="M62.9802 34.0347C63.3725 34.0347 63.6878 34.1193 63.9339 34.2885C64.1723 34.4577 64.2954 34.6807 64.2954 34.9576V37.0494H63.8108C63.7186 36.9879 63.657 36.8879 63.6186 36.7341C63.534 36.8187 63.434 36.8956 63.3033 36.9571C63.1725 37.0187 63.0264 37.0494 62.8649 37.0494C62.465 37.0494 62.1496 36.9725 61.9266 36.8264C61.6959 36.6803 61.619 36.4572 61.6805 36.165C61.7113 36.0266 61.7728 35.9112 61.8728 35.8112C61.9727 35.7112 62.0958 35.6266 62.2266 35.5574C62.365 35.4882 62.5034 35.4344 62.6572 35.3805C62.811 35.3344 62.9495 35.2883 63.0725 35.2498C63.1956 35.2113 63.3033 35.1729 63.3802 35.1344C63.4571 35.096 63.5032 35.0498 63.5032 35.0037V34.9576C63.5032 34.9191 63.4955 34.8806 63.4878 34.8268C63.4801 34.773 63.4571 34.7268 63.4186 34.6807C63.3802 34.6345 63.3263 34.5884 63.2648 34.5576C63.1956 34.5269 63.1033 34.5038 62.9879 34.5038C62.8726 34.5038 62.7803 34.5192 62.7111 34.5576C62.6418 34.5884 62.588 34.6345 62.5573 34.6807C62.5265 34.7268 62.5034 34.7807 62.488 34.8268C62.4803 34.8806 62.4726 34.9191 62.4726 34.9576H61.6805C61.6805 34.6807 61.8036 34.4577 62.042 34.2885C62.265 34.1193 62.588 34.0347 62.9802 34.0347ZM63.4955 35.3498C63.4801 35.3882 63.4263 35.4267 63.3417 35.4651C63.2494 35.5113 63.1417 35.5574 63.0264 35.619C62.911 35.6805 62.7956 35.7497 62.688 35.8343C62.5803 35.9189 62.5034 36.0266 62.465 36.1573C62.4342 36.2265 62.4342 36.2957 62.4573 36.3419C62.4803 36.3957 62.5111 36.4342 62.5573 36.4726C62.6034 36.5034 62.6649 36.5341 62.7418 36.5495C62.8187 36.5649 62.8956 36.5726 62.9879 36.5726C63.1033 36.5726 63.1956 36.5572 63.2648 36.5188C63.334 36.488 63.3879 36.4419 63.4263 36.3957C63.4648 36.3496 63.4878 36.2957 63.4955 36.2496C63.5032 36.1958 63.5109 36.1573 63.5109 36.1189L63.4955 35.3498Z" fill="#474546"/>
<path d="M69.2865 34.0264C69.6788 34.0264 69.9941 34.111 70.2402 34.2802C70.4786 34.4494 70.6016 34.6724 70.6016 34.9493V36.1106C70.6016 36.3874 70.4786 36.6104 70.2402 36.7796C70.0018 36.9488 69.6788 37.0334 69.2865 37.0334C68.8943 37.0334 68.579 36.9488 68.3329 36.7796C68.0945 36.6104 67.9714 36.3874 67.9714 36.1106V34.9493C67.9714 34.6724 68.0945 34.4494 68.3329 34.2802C68.5713 34.111 68.8943 34.0264 69.2865 34.0264ZM69.8172 34.9493C69.8172 34.9185 69.8095 34.8723 69.8018 34.8262C69.7941 34.7724 69.771 34.7262 69.7326 34.6724C69.6941 34.6262 69.6403 34.5801 69.5711 34.5493C69.5019 34.5186 69.4096 34.4955 69.2865 34.4955C69.1712 34.4955 69.0789 34.5109 69.0097 34.5493C68.9404 34.5801 68.8866 34.6262 68.8482 34.6724C68.8174 34.7185 68.7943 34.7724 68.779 34.8262C68.7713 34.88 68.7636 34.9185 68.7636 34.9493V36.1106C68.7636 36.149 68.7713 36.1875 68.779 36.2413C68.7866 36.2951 68.8097 36.3413 68.8482 36.3874C68.8789 36.4336 68.9328 36.4797 69.0097 36.5105C69.0789 36.5412 69.1712 36.5643 69.2865 36.5643C69.4096 36.5643 69.5019 36.5489 69.5711 36.5105C69.6403 36.4797 69.6941 36.4336 69.7326 36.3874C69.771 36.3413 69.7941 36.2874 69.8018 36.2413C69.8095 36.1875 69.8172 36.149 69.8172 36.1106V34.9493Z" fill="#474546"/>
<path d="M64.7028 34.1108H65.5872L66.1101 36.0566L66.5562 34.1108H67.433C67.433 34.1108 66.487 37.464 66.3409 37.7101C66.1947 37.9639 66.1871 37.9946 65.1719 37.9946V37.5409H65.6948C65.7641 37.4178 65.741 37.2717 65.618 36.9564C65.5026 36.6411 64.7028 34.1108 64.7028 34.1108Z" fill="#474546"/>
</svg>
