<svg width="114" height="46" viewBox="0 0 114 46" fill="none" xmlns="http://www.w3.org/2000/svg">
<path d="M113.053 0.36133C112.723 0.189818 112.363 0.0813031 111.993 0.0413299C111.134 -0.027215 110.269 -0.0104667 109.413 0.0913298C106.019 0.745464 102.89 2.37937 100.413 4.79133C96.1099 8.80972 93.0842 14.0055 91.7131 19.7313C91.6464 20.257 91.4068 20.7456 91.0321 21.1203C90.6574 21.495 90.1688 21.7346 89.6431 21.8013C88.1231 22.0913 86.6431 22.5713 85.0731 22.9913C85.0629 22.8448 85.0629 22.6978 85.0731 22.5513C85.9431 19.7813 86.6631 16.9513 87.7031 14.2413C88.3283 12.3752 89.3566 10.6696 90.715 9.24557C92.0734 7.82151 93.7286 6.71389 95.5631 6.00133C95.704 5.9563 95.8323 5.87867 95.9375 5.77474C96.0427 5.67081 96.122 5.54351 96.1687 5.4032C96.2155 5.26289 96.2285 5.11352 96.2067 4.96723C96.1848 4.82095 96.1288 4.68188 96.0431 4.56133C95.7948 4.16173 95.4183 3.85813 94.9751 3.70012C94.5319 3.5421 94.0483 3.53901 93.6031 3.69133C92.3978 3.9773 91.2794 4.55021 90.3431 5.36133C88.4612 6.99461 86.9478 9.00908 85.9031 11.2713C84.2552 14.6992 83.1101 18.3467 82.5031 22.1013C82.2031 23.7413 82.1931 23.7413 80.5031 23.7513C79.9472 23.7112 79.3891 23.7112 78.8331 23.7513C78.5331 23.8013 78.0831 24.0613 78.0431 24.2813C78.0466 24.4548 78.0867 24.6255 78.1608 24.7823C78.2349 24.9392 78.3413 25.0785 78.4731 25.1913C78.83 25.4508 79.2397 25.6284 79.6731 25.7113C80.3531 25.8413 81.0431 25.8713 81.6731 25.9413C81.5968 26.9554 81.264 27.9334 80.706 28.7835C80.148 29.6336 79.3831 30.328 78.4831 30.8013C77.1531 31.5113 76.5431 31.1713 76.4831 29.6613C76.4831 29.5513 76.4831 29.4313 76.4831 29.3113C76.4831 27.0913 75.8531 26.0813 73.3931 25.0313C72.0731 24.4613 71.3931 24.7713 70.7831 26.1113C70.5431 26.6413 70.3731 27.2013 70.1331 27.7313C69.75 28.6807 69.3092 29.6058 68.8131 30.5013C68.4264 31.1327 67.9244 31.6857 67.3331 32.1313C66.6231 32.6713 66.1231 32.3613 66.1631 31.4713C66.1631 30.7613 66.3331 30.0413 66.4231 29.3313C66.4985 28.948 66.4404 28.5505 66.2585 28.2048C66.0765 27.8591 65.7817 27.5862 65.4231 27.4313C65.2552 27.3523 65.1232 27.2131 65.0531 27.0413C65.0224 26.6521 64.8391 26.2907 64.5432 26.0359C64.2473 25.7812 63.8626 25.6537 63.4731 25.6813C62.3982 25.625 61.3288 25.8672 60.3831 26.3813C58.8341 27.263 57.4747 28.4423 56.3831 29.8513C55.6431 30.7213 54.9131 31.6013 54.1431 32.4313C53.7839 32.8147 53.3773 33.1508 52.9331 33.4313C52.4931 33.7013 52.2131 33.5313 52.2431 33.0013C52.2731 32.4713 52.3431 32.1613 52.4031 31.7513C52.5731 30.6713 52.7931 29.5913 52.9031 28.5113C52.9943 28.168 52.9768 27.8049 52.8533 27.4718C52.7298 27.1388 52.5061 26.8522 52.2131 26.6513C51.8864 26.4935 51.5189 26.4404 51.1608 26.4995C50.8028 26.5586 50.4718 26.7269 50.2131 26.9813C49.4412 27.542 48.7185 28.1676 48.0531 28.8513C46.7831 30.2113 45.5831 31.6413 44.3331 33.0213C44.0649 33.2826 43.7775 33.5233 43.4731 33.7413L43.2531 33.6213C43.2531 33.2013 43.2531 32.7713 43.3231 32.3613C43.7751 29.6864 44.7946 27.1393 46.3131 24.8913C48.4 21.6571 50.0794 18.1774 51.3131 14.5313C51.5998 13.7235 51.7649 12.8776 51.8031 12.0213C51.7523 11.5053 51.5096 11.0271 51.1231 10.6813C50.7031 10.2913 50.1231 10.5313 49.7131 10.8413C49.3002 11.1125 48.9353 11.4505 48.6331 11.8413C47.8223 12.974 47.0777 14.1526 46.4031 15.3713C44.4925 19.1319 42.9454 23.0665 41.7831 27.1213C41.2161 29.1355 40.1014 30.9529 38.5631 32.3713C37.0016 34.0085 35.249 35.4522 33.3431 36.6713C32.5723 37.0917 31.7432 37.395 30.8831 37.5713C30.0931 37.7513 29.5831 37.2013 29.6631 36.3913C29.699 35.9508 29.7932 35.5171 29.9431 35.1013C30.9177 32.4883 32.567 30.1801 34.7231 28.4113C35.7731 27.5513 36.8831 27.0613 38.2131 28.0213C38.8031 28.4513 39.4031 28.1013 39.5531 27.3713C39.6482 27.0173 39.6075 26.6406 39.4392 26.315C39.2708 25.9894 38.9869 25.7384 38.6431 25.6113C38.0493 25.3499 37.3999 25.2399 36.7531 25.2913C35.1614 25.5127 33.5875 25.8469 32.0431 26.2913C27.5149 27.7361 23.1189 29.5661 18.9031 31.7613C18.6668 31.8866 18.3998 31.9421 18.1331 31.9213C15.9231 31.5913 13.7131 31.2313 11.5131 30.8713C9.58312 30.5513 7.62312 30.3413 5.74312 29.8713C3.86312 29.4013 3.57312 28.2713 4.67312 26.6713C4.82152 26.4358 4.99595 26.2178 5.19312 26.0213C5.98595 25.2534 6.83133 24.5417 7.72312 23.8913C12.7107 20.5193 18.4978 18.5189 24.5031 18.0913C26.342 17.8925 28.2006 18.1931 29.8831 18.9613C30.1917 19.1202 30.5363 19.196 30.8831 19.1813C31.2631 19.1813 31.8131 19.0013 31.9431 18.7413C32.0135 18.5441 32.0348 18.3327 32.0052 18.1253C31.9756 17.918 31.8959 17.721 31.7731 17.5513C31.2982 17.0147 30.7201 16.5794 30.0731 16.2713C28.0692 15.4834 25.9003 15.2084 23.7631 15.4713C19.0419 15.8913 14.4297 17.1298 10.1331 19.1313C7.12771 20.3147 4.40279 22.1132 2.13312 24.4113C1.33842 25.29 0.711405 26.3067 0.283115 27.4113C0.103571 27.8226 0.00748117 28.2655 0.000419704 28.7142C-0.00664176 29.163 0.0754658 29.6086 0.24198 30.0254C0.408494 30.4421 0.656099 30.8217 0.970434 31.142C1.28477 31.4623 1.65958 31.717 2.07312 31.8913C2.59024 32.2073 3.15377 32.4401 3.74312 32.5813C5.63312 32.9513 7.53312 33.3013 9.44312 33.5813C11.1431 33.8013 12.8531 33.8713 14.7031 34.0113C12.9931 35.0113 11.4131 36.0113 9.87312 37.0113C7.76009 38.2513 5.81716 39.7606 4.09312 41.5013C2.84312 42.8513 3.09312 44.0513 4.66312 44.9513C5.80157 45.5608 7.10449 45.792 8.38312 45.6113C11.656 45.2719 14.8405 44.3437 17.7831 42.8713C19.6786 42.0635 21.3447 40.7993 22.6331 39.1913C22.972 38.7785 23.2203 38.2991 23.362 37.7841C23.5036 37.2691 23.5354 36.7301 23.4552 36.202C23.3751 35.674 23.1848 35.1687 22.8967 34.7189C22.6087 34.2692 22.2292 33.885 21.7831 33.5913L21.2131 33.1413L29.5531 29.2913C29.5013 29.5262 29.3833 29.7414 29.2131 29.9113C27.6273 31.5605 26.5809 33.6532 26.2131 35.9113C26.112 36.5018 26.1449 37.1074 26.3092 37.6835C26.4736 38.2596 26.7652 38.7914 27.1626 39.2397C27.56 39.688 28.053 40.0412 28.6052 40.2735C29.1575 40.5057 29.7548 40.6109 30.3531 40.5813C31.3729 40.5346 32.3728 40.2829 33.2931 39.8413C35.3066 38.8021 37.0996 37.3826 38.5731 35.6613L39.7431 34.4113C39.6831 34.7213 39.6531 34.8513 39.6331 34.9913C39.4573 36.044 39.3404 37.1056 39.2831 38.1713C39.2496 38.4734 39.3074 38.7785 39.4491 39.0473C39.5907 39.3162 39.8097 39.5364 40.0777 39.6795C40.3458 39.8227 40.6506 39.8822 40.9528 39.8505C41.255 39.8187 41.5407 39.6971 41.7731 39.5013C42.2378 39.2286 42.662 38.892 43.0331 38.5013C44.0798 37.3413 45.1031 36.1647 46.1031 34.9713C46.9731 33.9713 47.7931 32.8613 48.6631 31.8313C48.9665 31.5351 49.3019 31.2735 49.6631 31.0513L49.8631 31.1813C49.8631 31.6113 49.8031 32.0413 49.7431 32.4713C49.5931 33.6413 49.3231 34.8113 49.2831 35.9913C49.2261 36.2747 49.2527 36.5686 49.3598 36.8371C49.4669 37.1056 49.6497 37.3372 49.8861 37.5036C50.1225 37.67 50.4021 37.7641 50.691 37.7743C50.9799 37.7846 51.2656 37.7106 51.5131 37.5613C52.3403 37.1967 53.1007 36.6965 53.7631 36.0813C54.4205 35.3867 55.0382 34.6556 55.6131 33.8913L55.7431 34.2913C55.9695 35.0485 56.4731 35.6925 57.1534 36.0947C57.8336 36.4969 58.6406 36.6278 59.4131 36.4613C60.5408 36.2219 61.5512 35.6002 62.2731 34.7013C62.5931 34.3413 62.8731 33.9513 63.1831 33.5613C64.1831 35.2113 65.4131 35.7213 67.0831 35.1013C67.7672 34.8666 68.3893 34.4803 68.9031 33.9713C69.7323 33.0668 70.4693 32.082 71.1031 31.0313C71.5772 30.1296 71.9915 29.1975 72.3431 28.2413C73.4931 28.4713 73.6231 28.7313 73.5831 29.8313C73.5507 30.8031 73.6245 31.7756 73.8031 32.7313C73.8767 33.1667 74.1103 33.5588 74.4581 33.8308C74.8059 34.1028 75.2429 34.2349 75.6831 34.2013C76.217 34.199 76.747 34.1113 77.2531 33.9413C78.5674 33.5226 79.7589 32.7878 80.7231 31.8013C80.7231 31.8813 80.7931 31.9213 80.7831 31.9613C80.6631 32.9613 80.5331 33.9613 80.4231 34.9613C80.2998 35.9336 80.2264 36.9115 80.2031 37.8913C80.207 38.1373 80.2596 38.3801 80.358 38.6056C80.4563 38.8311 80.5984 39.0349 80.7761 39.2051C80.9537 39.3753 81.1634 39.5085 81.3929 39.5971C81.6224 39.6858 81.8672 39.728 82.1131 39.7213C82.9231 39.7213 83.1131 39.2713 83.2731 38.0113C83.6531 34.0113 84.0931 30.0113 84.5031 26.0113C84.5005 25.9199 84.516 25.8288 84.5489 25.7434C84.5817 25.6581 84.6312 25.5801 84.6945 25.514C84.7578 25.4479 84.8336 25.3951 84.9174 25.3586C85.0013 25.3221 85.0916 25.3026 85.1831 25.3013C85.9131 25.1813 86.6431 25.0013 87.3631 24.8413L90.5731 24.1013C90.5731 24.3213 90.5731 24.4313 90.5731 24.5413C89.5731 30.2113 88.5731 35.8713 87.5731 41.5413C87.4085 42.4112 87.3381 43.2963 87.3631 44.1813C87.3684 44.4104 87.4216 44.6358 87.5193 44.843C87.617 45.0503 87.757 45.2347 87.9304 45.3845C88.1037 45.5343 88.3066 45.6461 88.5258 45.7128C88.745 45.7794 88.9757 45.7993 89.2031 45.7713C90.0231 45.7713 90.4531 45.3013 90.5931 44.2413C90.7031 43.3413 90.7831 42.4313 90.8831 41.5313C91.5089 35.609 92.43 29.7217 93.6431 23.8913C93.655 23.7205 93.725 23.559 93.8414 23.4335C93.9578 23.3079 94.1137 23.226 94.2831 23.2013C96.8931 22.6313 99.5031 22.0113 102.113 21.4113C103.113 21.1713 104.213 21.0013 105.243 20.7013C106.023 20.4713 106.183 19.9313 105.783 19.2313C105.572 18.8653 105.253 18.573 104.871 18.3941C104.488 18.2153 104.059 18.1584 103.643 18.2313C102.72 18.338 101.805 18.505 100.903 18.7313C98.8131 19.2613 96.7331 19.8413 94.5231 20.4313C95.6009 16.0501 97.7172 11.9926 100.693 8.60133C103.856 5.24351 108.109 3.11733 112.693 2.60133C113.153 2.54133 113.693 2.52133 113.773 1.93133C113.868 1.62693 113.848 1.29799 113.715 1.00805C113.582 0.718097 113.346 0.487697 113.053 0.36133ZM20.2931 37.1513C19.944 37.6983 19.5044 38.1818 18.9931 38.5813C16.7417 40.2087 14.178 41.3526 11.4631 41.9413C10.0231 42.3013 8.54312 42.4813 7.08312 42.7413L6.94312 42.4413C8.37312 41.3513 9.75312 40.1813 11.2531 39.1713C13.4431 37.6913 15.7231 36.3213 17.9731 34.9213C18.3101 34.7645 18.6898 34.7246 19.0521 34.8079C19.4144 34.8912 19.7385 35.093 19.9731 35.3813C20.2423 35.5798 20.4254 35.8736 20.4849 36.2027C20.5444 36.5318 20.4758 36.8712 20.2931 37.1513ZM60.9031 32.9413C60.4031 33.4013 59.8131 33.8213 59.0831 33.4813C58.6431 33.2713 58.6131 32.4813 59.0831 31.6113C59.5394 30.6579 60.1952 29.8136 61.006 29.1356C61.8169 28.4575 62.764 27.9616 63.7831 27.6813C63.32 29.6642 62.3242 31.483 60.9031 32.9413Z" fill="#434041"/>
</svg>
