<svg width="127" height="42" viewBox="0 0 127 42" fill="none" xmlns="http://www.w3.org/2000/svg">
<path d="M126.287 0H0V41.5891H126.287V0Z" fill="#434041"/>
<path d="M7.34442 22.6572L14.3341 22.691C14.5705 23.7603 14.6155 24.0979 15.1557 24.7733C15.7185 25.4824 16.1575 25.6512 17.2718 25.73C18.9714 25.8425 19.219 25.2685 19.4328 24.9308C19.7705 24.3906 19.793 23.794 19.6805 23.1862C19.6017 22.781 19.3991 22.4884 19.1289 22.2295C18.7463 21.8693 17.6207 21.3516 16.664 21.1265C12.2293 20.1472 11.7453 19.7983 10.5635 18.9879C8.93145 17.8736 8.1098 16.3204 8.1098 14.3281C8.1098 12.5273 8.81889 11.019 10.2371 9.79217C11.6553 8.56532 13.8614 7.95752 16.8441 7.95752C19.6805 7.95752 21.7965 8.419 23.1697 9.34195C24.5541 10.2649 26.2087 13.3602 26.7264 15.1723L19.5792 15.0372C19.354 14.2268 19.4666 13.968 19.2753 13.3151C18.9489 12.1896 18.3523 12.0545 17.9471 11.8407C16.9454 11.3229 15.9211 11.7506 15.5159 12.0208C15.3133 12.1558 14.7731 12.6398 14.6042 13.0675C14.5142 13.3151 14.3116 13.8667 14.5705 14.4294C14.8181 14.9922 15.9549 15.4875 18.8813 16.1515C21.8078 16.8156 23.845 17.626 25.0043 18.594C26.1524 19.5732 26.7264 20.9351 26.7264 22.6797C26.7264 24.5819 25.9273 26.214 24.3402 27.5871C22.7532 28.9603 20.4008 29.6356 17.283 29.6356C14.4579 29.6356 12.2181 29.0616 10.5748 27.9135C8.93145 26.7767 7.85092 24.6157 7.34442 22.6572Z" fill="white"/>
<path d="M43.0973 22.4878L49.164 22.5104C48.3761 24.5138 47.1605 27.0351 45.4609 28.0818C43.7614 29.1286 41.6228 29.6576 39.0678 29.6576C35.0158 29.6576 32.0219 28.4758 30.0747 26.1234C28.5439 24.2324 27.7673 21.8463 27.7673 18.9761C27.7673 15.5432 28.7803 12.8419 30.795 10.8947C32.8097 8.94747 35.3647 7.97949 38.4488 7.97949C41.9155 7.97949 44.6505 9.00374 46.654 11.041C48.6575 13.0782 49.6142 16.2073 49.5242 20.4056H34.0816C34.1266 22.0376 34.6219 23.2982 35.5786 24.2099C36.5241 25.1216 37.7171 25.5719 39.1353 25.5719C40.1033 25.5719 40.9137 25.3355 41.5665 24.874C42.2193 24.3675 42.7709 23.5234 43.0973 22.4878ZM43.4124 17.0177C43.3674 15.4306 42.9059 14.2263 42.028 13.3934C41.1501 12.5717 40.0808 12.1553 38.8202 12.1553C37.4695 12.1553 36.3665 12.5943 35.4886 13.4609C34.6106 14.3389 34.1829 15.5207 34.1942 17.0177H43.4124Z" fill="white"/>
<path d="M72.5875 29.489L64.4611 8.55374H72.7564L75.4802 19.1339L76.7746 22.6681C77.1123 21.7677 77.3374 21.1824 77.4274 20.8898C77.63 20.3045 77.8551 19.7192 78.0915 19.1339L81.6145 8.54248H89.0318L80.3313 29.2526L72.5875 29.489Z" fill="white"/>
<path d="M111.542 29.174H104.226V8.43004L111.306 8.4413V12.2232C112.465 10.8275 114.907 8.71143 115.751 8.48632C115.751 8.48632 115.965 8.39628 116.269 8.36251C116.472 8.34 118.205 8.10363 118.689 8.46381L118.667 15.1496C118.205 15.0708 116.044 15.2621 115.729 15.2621C115.346 15.2621 114.648 15.2959 113.939 15.7124C113.23 16.1401 112.24 16.9392 111.823 18.0535C111.418 19.1565 111.542 19.2353 111.542 22.7696V29.174Z" fill="white"/>
<path d="M57.5392 29.174H50.2231V8.43004L57.3029 8.4413V12.2232C58.4622 10.8275 60.9046 8.71143 61.7488 8.48632C61.7488 8.48632 61.9626 8.39628 62.2665 8.36251C62.4691 8.34 64.2025 8.10363 64.6865 8.46381L64.664 15.1496C64.2025 15.0708 62.0414 15.2621 61.7263 15.2621C61.3436 15.2621 60.6457 15.2959 59.9367 15.7124C59.2276 16.1401 58.2371 16.9392 57.8206 18.0535C57.4154 19.1565 57.5392 19.2353 57.5392 22.7696V29.174Z" fill="white"/>
<path d="M8.51843 37.2109V33.2715H9.31757V34.8247H10.8708V33.2715H11.67V37.2109H10.8708V35.4888H9.30632V37.2109H8.51843Z" fill="white"/>
<path d="M12.9351 37.2109V33.2715H15.8616V33.9356H13.7343V34.8135H15.7152V35.4776H13.7343V36.5468H15.9403V37.2109H12.9351Z" fill="white"/>
<path d="M16.3712 37.2109V33.2715H18.0482C18.4647 33.2715 18.7798 33.3053 18.9712 33.3728C19.1625 33.4403 19.3201 33.5754 19.4327 33.7555C19.5452 33.9356 19.6015 34.1382 19.6015 34.3745C19.6015 34.6672 19.5114 34.9148 19.3426 35.1061C19.1738 35.2975 18.9149 35.4213 18.566 35.4663C18.7348 35.5676 18.8811 35.6802 18.9937 35.7927C19.1062 35.9165 19.2526 36.1304 19.4439 36.4343L19.9279 37.1997H18.9712L18.3971 36.3442C18.1945 36.0403 18.0482 35.849 17.9807 35.7702C17.9019 35.6914 17.8231 35.6351 17.7443 35.6014C17.6655 35.5676 17.5305 35.5564 17.3391 35.5564H17.1816V37.1997H16.3712V37.2109ZM17.159 34.9373H17.7443C18.127 34.9373 18.3634 34.926 18.4647 34.8923C18.5547 34.8585 18.6335 34.8022 18.6898 34.7234C18.7461 34.6447 18.7686 34.5434 18.7686 34.4308C18.7686 34.2957 18.7348 34.1944 18.6673 34.1044C18.5997 34.0256 18.4984 33.9693 18.3634 33.9468C18.2958 33.9356 18.1045 33.9356 17.7781 33.9356H17.159V34.9373Z" fill="white"/>
<path d="M20.3369 37.2109V33.2715H22.014C22.4304 33.2715 22.7456 33.3053 22.9369 33.3728C23.1283 33.4403 23.2746 33.5754 23.3984 33.7555C23.511 33.9356 23.5672 34.1382 23.5672 34.3745C23.5672 34.6672 23.4772 34.9148 23.3084 35.1061C23.1395 35.2975 22.8807 35.4213 22.5317 35.4663C22.7006 35.5676 22.8469 35.6802 22.9594 35.7927C23.072 35.9165 23.2183 36.1304 23.4097 36.4343L23.8937 37.1997H22.9369L22.3629 36.3442C22.1603 36.0403 22.014 35.849 21.9465 35.7702C21.8677 35.6914 21.7889 35.6351 21.7101 35.6014C21.6313 35.5676 21.4962 35.5564 21.3049 35.5564H21.1473V37.1997H20.3369V37.2109ZM21.1248 34.9373H21.7101C22.0928 34.9373 22.3291 34.926 22.4304 34.8923C22.5205 34.8585 22.5993 34.8022 22.6555 34.7234C22.7118 34.6447 22.7343 34.5434 22.7343 34.4308C22.7343 34.2957 22.7006 34.1944 22.633 34.1044C22.5655 34.0256 22.4642 33.9693 22.3291 33.9468C22.2616 33.9356 22.0703 33.9356 21.7439 33.9356H21.1248V34.9373Z" fill="white"/>
<path d="M28.0857 37.2109H27.219L26.8701 36.3105H25.2943L24.9679 37.2109H24.1237L25.6545 33.2715H26.4986L28.0857 37.2109ZM26.6224 35.6464L26.0822 34.1832L25.5532 35.6464H26.6224Z" fill="white"/>
<path d="M35.1046 37.2109V33.2715H35.9038V37.2109H35.1046Z" fill="white"/>
<path d="M37.1018 37.2109V33.2715H40.017V33.9356H37.8897V34.8135H39.8707V35.4776H37.8897V36.5468H40.0958V37.2109H37.1018Z" fill="white"/>
<path d="M40.7741 37.2109V33.2715H41.5507L43.1603 35.9053V33.2715H43.9031V37.2109H43.104L41.517 34.6447V37.2109H40.7741Z" fill="white"/>
<path d="M46.0821 37.2109V33.9356H44.9116V33.2715H48.0406V33.9356H46.87V37.2109H46.0821Z" fill="white"/>
<path d="M51.9229 37.2109H51.0563L50.7073 36.3105H49.1316L48.8052 37.2109H47.961L49.4917 33.2715H50.3359L51.9229 37.2109ZM50.4597 35.6464L49.9195 34.1832L49.3904 35.6464H50.4597Z" fill="white"/>
<path d="M54.0967 33.2715H55.5487C55.8751 33.2715 56.1227 33.294 56.3028 33.3503C56.5392 33.4178 56.7305 33.5416 56.8994 33.7105C57.0682 33.8905 57.192 34.0931 57.2708 34.352C57.3608 34.5996 57.3946 34.9148 57.3946 35.2862C57.3946 35.6126 57.3496 35.894 57.2708 36.1304C57.1695 36.4118 57.0344 36.6481 56.8431 36.8282C56.708 36.9633 56.5167 37.0646 56.2803 37.1434C56.1002 37.1997 55.8751 37.2222 55.5712 37.2222H54.0742V33.2715H54.0967ZM54.8846 33.9356V36.5468H55.4812C55.7063 36.5468 55.8638 36.5356 55.9651 36.5131C56.089 36.4793 56.2015 36.423 56.2916 36.3555C56.3703 36.2767 56.4491 36.1529 56.4942 35.9728C56.5504 35.7927 56.5729 35.5564 56.5729 35.2525C56.5729 34.9486 56.5504 34.7122 56.4942 34.5546C56.4379 34.397 56.3703 34.262 56.269 34.1719C56.1677 34.0819 56.0552 34.0143 55.8976 33.9918C55.7851 33.9693 55.5712 33.9581 55.2448 33.9581H54.8846V33.9356Z" fill="white"/>
<path d="M58.5267 37.2109V33.2715H61.4419V33.9356H59.3146V34.8135H61.2956V35.4776H59.3146V36.5468H61.5207V37.2109H58.5267Z" fill="white"/>
<path d="M61.9843 37.2104V33.3047H62.7835V36.5463H64.7644V37.2104H61.9843Z" fill="white"/>
<path d="M66.7303 37.2109V33.2715H68.0022C68.4861 33.2715 68.8013 33.294 68.9476 33.3278C69.1727 33.384 69.3641 33.5191 69.5104 33.7105C69.668 33.913 69.7355 34.1607 69.7355 34.4758C69.7355 34.7122 69.6905 34.9148 69.6004 35.0836C69.5104 35.2525 69.3978 35.3763 69.2628 35.4663C69.1277 35.5564 68.9926 35.6239 68.8463 35.6577C68.655 35.6914 68.3848 35.7139 68.0247 35.7139H67.5294V37.1997H66.7303V37.2109ZM67.5294 33.9356V35.0499H67.9684C68.2835 35.0499 68.4861 35.0273 68.5987 34.9823C68.7 34.9373 68.79 34.881 68.8463 34.791C68.9026 34.7009 68.9364 34.5996 68.9364 34.4871C68.9364 34.3408 68.8913 34.2282 68.8126 34.1269C68.7338 34.0369 68.6212 33.9806 68.4974 33.9468C68.4074 33.9243 68.216 33.9243 67.9234 33.9243H67.5294V33.9356Z" fill="white"/>
<path d="M70.1734 37.2109V33.2715H73.0998V33.9356H70.9725V34.8135H72.9535V35.4776H70.9725V36.5468H73.1674V37.2109H70.1734Z" fill="white"/>
<path d="M73.8314 37.2109V33.2715H75.5085C75.925 33.2715 76.2401 33.3053 76.4314 33.3728C76.6228 33.4403 76.7804 33.5754 76.8929 33.7555C77.0055 33.9356 77.0618 34.1382 77.0618 34.3745C77.0618 34.6672 76.9717 34.9148 76.8029 35.1061C76.6341 35.2975 76.3752 35.4213 76.0263 35.4663C76.1951 35.5676 76.3414 35.6802 76.454 35.7927C76.5665 35.9165 76.7128 36.1304 76.9042 36.4343L77.3882 37.1997H76.4314L75.8574 36.3442C75.6548 36.0403 75.5085 35.849 75.441 35.7702C75.3622 35.6914 75.2834 35.6351 75.2046 35.6014C75.1146 35.5676 74.9907 35.5564 74.7994 35.5564H74.6306V37.1997H73.8314V37.2109ZM74.6306 34.9373H75.2159C75.5985 34.9373 75.8349 34.926 75.9249 34.8923C76.015 34.8585 76.0938 34.8022 76.1501 34.7234C76.2063 34.6447 76.2289 34.5434 76.2289 34.4308C76.2289 34.2957 76.1951 34.1944 76.1275 34.1044C76.06 34.0256 75.9587 33.9693 75.8349 33.9468C75.7674 33.9356 75.576 33.9356 75.2496 33.9356H74.6306V34.9373Z" fill="white"/>
<path d="M78.0088 33.2713H78.9318V35.4099C78.9318 35.7475 78.943 35.9726 78.9655 36.0627C79.0106 36.2203 79.1006 36.3553 79.2469 36.4454C79.3932 36.5467 79.5958 36.5917 79.8547 36.5917C80.1136 36.5917 80.3162 36.5467 80.4513 36.4566C80.5863 36.3666 80.6651 36.254 80.6989 36.119C80.7214 35.9839 80.7439 35.7588 80.7439 35.4549V33.2713H81.6668V35.3423C81.6668 35.8151 81.6443 36.1527 81.5881 36.3441C81.5318 36.5354 81.4417 36.7043 81.3067 36.8393C81.1716 36.9744 80.9915 37.0757 80.7664 37.1545C80.5413 37.2333 80.2487 37.2783 79.8885 37.2783C79.4495 37.2783 79.1231 37.2333 78.8867 37.1432C78.6616 37.0532 78.4815 36.9406 78.3465 36.8056C78.2114 36.6705 78.1326 36.5242 78.0876 36.3666C78.0313 36.1415 77.9976 35.8038 77.9976 35.3648V33.2713H78.0088ZM79.2694 33.0462L79.6971 32.2471H80.6876L79.8209 33.0462H79.2694Z" fill="white"/>
<path d="M87.6933 36.7036C87.9184 36.8386 88.166 36.9512 88.4361 37.0412L88.0985 37.604C87.9634 37.5702 87.8171 37.5252 87.6933 37.4577C87.6595 37.4464 87.4569 37.3339 87.0742 37.1088C86.7703 37.2213 86.4439 37.2776 86.0725 37.2776C85.3634 37.2776 84.8119 37.0975 84.4067 36.7486C84.0015 36.3884 83.8101 35.8932 83.8101 35.2516C83.8101 34.61 84.0127 34.1035 84.4179 33.7546C84.8231 33.3944 85.3634 33.2144 86.05 33.2144C86.7366 33.2144 87.2768 33.3944 87.6708 33.7546C88.0647 34.1148 88.2673 34.61 88.2673 35.2516C88.2673 35.5893 88.211 35.8932 88.0985 36.152C88.0197 36.3321 87.8846 36.5235 87.6933 36.7036ZM86.9504 36.2533C87.0742 36.1295 87.153 35.9832 87.2205 35.8144C87.2768 35.6455 87.3106 35.4429 87.3106 35.2291C87.3106 34.7789 87.198 34.4299 86.9617 34.2048C86.7253 33.9797 86.4214 33.8672 86.0387 33.8672C85.656 33.8672 85.3521 33.9797 85.1158 34.2048C84.8794 34.4299 84.7668 34.7676 84.7668 35.2178C84.7668 35.6793 84.8794 36.017 85.1158 36.2533C85.3521 36.4785 85.6448 36.591 86.0049 36.591C86.14 36.591 86.2638 36.5685 86.3876 36.5347C86.1963 36.4334 86.0049 36.3434 85.8136 36.2871L86.0725 35.8369C86.3764 35.9494 86.669 36.0845 86.9504 36.2533Z" fill="white"/>
<path d="M89.1646 33.2715H90.065V35.41C90.065 35.7477 90.0763 35.9728 90.0988 36.0629C90.1326 36.2204 90.2339 36.3555 90.369 36.4455C90.5153 36.5468 90.7066 36.5919 90.9655 36.5919C91.2244 36.5919 91.4157 36.5468 91.5395 36.4568C91.6633 36.3668 91.7421 36.2542 91.7759 36.1191C91.7984 35.9841 91.8209 35.759 91.8209 35.4551V33.2715H92.7213V35.3425C92.7213 35.8152 92.6988 36.1529 92.6426 36.3442C92.5975 36.5356 92.5075 36.7044 92.3724 36.8395C92.2374 36.9745 92.0685 37.0758 91.8434 37.1546C91.6296 37.2334 91.3369 37.2784 90.988 37.2784C90.5603 37.2784 90.2339 37.2334 90.02 37.1434C89.8062 37.0533 89.6261 36.9408 89.5023 36.8057C89.3785 36.6707 89.2884 36.5243 89.2547 36.3668C89.1984 36.1416 89.1646 35.804 89.1646 35.365V33.2715Z" fill="white"/>
<path d="M93.5741 37.2109V33.2715H96.4893V33.9356H94.362V34.8135H96.343V35.4776H94.362V36.5468H96.5568V37.2109H93.5741Z" fill="white"/>
<path d="M101.052 35.7586L101.818 36.0062C101.694 36.4339 101.502 36.7604 101.232 36.963C100.962 37.1768 100.613 37.2781 100.186 37.2781C99.6678 37.2781 99.2288 37.098 98.8911 36.7378C98.5535 36.3777 98.3846 35.8937 98.3846 35.2746C98.3846 34.6218 98.5535 34.1153 98.8911 33.7439C99.2288 33.3837 99.679 33.2036 100.231 33.2036C100.715 33.2036 101.108 33.3499 101.401 33.6313C101.581 33.8002 101.716 34.0365 101.806 34.3517L101.018 34.543C100.973 34.3404 100.872 34.1828 100.726 34.059C100.579 33.9352 100.399 33.8789 100.186 33.8789C99.8929 33.8789 99.6565 33.9802 99.4764 34.1941C99.2963 34.408 99.2063 34.7456 99.2063 35.2071C99.2063 35.7023 99.2963 36.0625 99.4764 36.2764C99.6565 36.4902 99.8929 36.5915 100.174 36.5915C100.388 36.5915 100.568 36.524 100.715 36.3889C100.872 36.2539 100.985 36.0513 101.052 35.7586Z" fill="white"/>
<path d="M102.501 37.2109V33.2715H104.178C104.594 33.2715 104.909 33.3053 105.089 33.3728C105.281 33.4403 105.438 33.5754 105.551 33.7555C105.663 33.9356 105.72 34.1382 105.72 34.3745C105.72 34.6672 105.63 34.9148 105.461 35.1061C105.292 35.2975 105.022 35.4213 104.684 35.4663C104.853 35.5676 104.999 35.6802 105.112 35.7927C105.225 35.9165 105.371 36.1304 105.562 36.4343L106.046 37.1997H105.089L104.515 36.3442C104.313 36.0403 104.166 35.849 104.099 35.7702C104.02 35.6914 103.941 35.6351 103.863 35.6014C103.784 35.5676 103.649 35.5564 103.457 35.5564H103.3V37.1997H102.501V37.2109ZM103.3 34.9373H103.885C104.268 34.9373 104.504 34.926 104.594 34.8923C104.684 34.8585 104.763 34.8022 104.819 34.7234C104.876 34.6447 104.898 34.5434 104.898 34.4308C104.898 34.2957 104.864 34.1944 104.797 34.1044C104.729 34.0256 104.628 33.9693 104.493 33.9468C104.425 33.9356 104.234 33.9356 103.908 33.9356H103.289V34.9373H103.3Z" fill="white"/>
<path d="M106.695 37.2109V33.2715H109.611V33.9356H107.483V34.8135H109.464V35.4776H107.483V36.5468H109.689V37.2109H106.695Z" fill="white"/>
<path d="M112.408 35.7586L113.185 36.0062C113.061 36.4339 112.87 36.7604 112.6 36.963C112.33 37.1768 111.981 37.2781 111.553 37.2781C111.035 37.2781 110.596 37.098 110.259 36.7378C109.921 36.3777 109.752 35.8937 109.752 35.2746C109.752 34.6218 109.921 34.1153 110.259 33.7439C110.596 33.3837 111.047 33.2036 111.598 33.2036C112.082 33.2036 112.476 33.3499 112.769 33.6313C112.949 33.8002 113.084 34.0365 113.174 34.3517L112.386 34.543C112.341 34.3404 112.24 34.1828 112.093 34.059C111.947 33.9352 111.767 33.8789 111.553 33.8789C111.26 33.8789 111.024 33.9802 110.844 34.1941C110.664 34.408 110.574 34.7456 110.574 35.2071C110.574 35.7023 110.664 36.0625 110.844 36.2764C111.024 36.4902 111.26 36.5915 111.542 36.5915C111.756 36.5915 111.936 36.524 112.082 36.3889C112.228 36.2539 112.341 36.0513 112.408 35.7586Z" fill="white"/>
<path d="M113.625 37.2109V33.2715H116.551V33.9356H114.424V34.8135H116.405V35.4776H114.424V36.5468H116.619V37.2109H113.625Z" fill="white"/>
<path d="M28.9341 37.1885V33.249H30.5211L31.4778 35.9391L32.4233 33.249H34.0216V37.1885H33.0874V34.0707L31.9843 37.1885H30.9601L29.767 34.1157V37.1885H28.9341Z" fill="white"/>
<path d="M101.806 10.8618C101.806 10.8618 103.979 11.5371 104.271 10.0063L101.806 10.8618Z" fill="#434041"/>
<path d="M79.9518 28.9377L80.9986 29.4779L81.2237 29.2078L82.2029 29.7931H84.5666C84.5666 29.7931 84.8142 29.1966 84.5666 29.1628L83.1484 28.9377C83.1484 28.9377 82.9908 28.3637 83.2159 28.3074C83.2159 28.3074 86.345 24.7731 86.435 24.2329L90.5095 19.877C90.5095 19.877 93.3797 22.387 93.3234 22.8822C93.3234 22.8822 92.5355 27.1368 91.3312 28.2849L91.2299 29.568L92.4905 29.5905L92.5693 29.4554C92.5693 29.4554 95.5745 29.8719 95.7321 29.6468C95.7321 29.6468 95.8334 29.4217 95.7321 29.2303C95.642 29.039 95.642 29.039 95.642 29.039C95.642 29.039 94.8204 28.8814 94.1225 28.4762C94.1225 28.4762 96.9702 22.1619 96.6775 21.464L94.2126 18.1436C94.2126 18.1436 95.6308 18.2112 95.7546 18.1436C95.8784 18.0761 96.8351 12.0769 96.6888 11.9869L96.7 11.8631C96.7 11.8631 101.562 14.1029 102.44 13.4163V13.0336C102.44 13.0336 104.117 12.4484 104.23 11.8631C104.343 11.2778 104.23 11.773 104.23 11.773C104.23 11.773 104.41 9.74704 104.275 9.49942C104.275 9.49942 103.847 8.86911 103.453 9.80332C103.453 9.80332 103.386 11.2103 103.138 11.4016C103.138 11.4016 101.562 11.7505 100.955 11.4129C100.955 11.4129 100.043 10.9739 102.53 10.715C102.53 10.715 103.093 10.4336 103.149 10.1973C103.149 10.1973 103.082 9.38686 103.217 9.38686C103.217 9.38686 104.129 8.47516 103.386 8.36261C103.386 8.36261 102.924 8.05871 101.968 9.83708C101.968 9.83708 97.533 9.96089 95.7996 8.35135C95.7996 8.35135 95.2256 7.95741 95.8446 7.631H96.7901C96.7901 7.631 96.8351 6.95567 96.9026 6.95567L97.1165 6.57298H97.5555C97.5555 6.57298 97.5555 6.07774 97.2516 6.05523C97.2516 6.05523 97.3416 4.99721 97.4992 4.95219C97.4992 4.95219 98.1182 4.52448 97.6455 4.27686C97.6455 4.27686 93.4472 1.18159 93.4922 6.43792C93.4922 6.43792 91.1286 6.66303 90.5883 11.9644C90.5883 11.9644 88.7987 14.7332 88.2246 16.5904C88.2246 16.5904 88.0558 17.4346 88.022 17.9748C88.022 17.9748 86.1086 20.8787 85.7034 21.1826C85.7034 21.1826 83.2497 22.7697 82.293 25.2121C82.293 25.2121 80.3008 27.452 80.2107 27.8684L79.9518 28.9377Z" fill="#020202"/>
</svg>
