<svg width="99" height="68" viewBox="0 0 99 68" fill="none" xmlns="http://www.w3.org/2000/svg">
<path d="M55.886 22.3713C55.1093 21.8746 54.3958 21.423 53.6552 20.9534C54.2603 19.8877 55.1002 19.1471 56.175 18.7317C58.0535 17.9911 59.9682 17.955 61.8377 18.7317C63.5537 19.4451 64.1407 20.8811 64.1317 22.6513C64.1136 25.144 64.1136 27.6367 64.1227 30.1293C64.1227 30.8519 64.213 31.5834 64.2581 32.3511C63.2285 32.3511 62.208 32.3511 61.1513 32.3511C61.052 31.9989 60.9526 31.6466 60.8804 31.4028C59.6431 31.8453 58.4509 32.2698 57.1233 32.7394C57.1233 39.3685 57.1233 46.1782 57.1233 53.0241C55.7686 53.0241 54.4861 53.0241 53.1133 53.0241C53.1133 52.7892 53.1133 52.5635 53.1133 52.3377C53.1133 45.257 53.1133 38.1764 53.1043 31.0957C53.1043 30.5267 53.0591 29.9487 53.0049 29.3797C52.8063 27.4018 53.7184 25.7491 55.5428 24.8189C57.0059 24.0692 58.5774 23.699 60.194 23.4912C60.6817 23.428 60.8533 23.2835 60.8442 22.7597C60.8171 21.3056 60.2482 20.7186 58.7851 20.7637C57.5839 20.8179 56.6537 21.3869 55.886 22.3713ZM60.7359 25.6768C59.5076 25.8213 58.3877 26.0471 57.3942 26.6613C57.1143 26.8329 56.8704 27.0767 56.6627 27.3386C56.2111 27.8895 56.1389 28.883 56.5001 29.4068C56.9336 30.039 57.5749 30.0752 58.2522 29.9668C59.1463 29.8223 59.8598 29.3436 60.5281 28.7656C60.6275 28.6843 60.7268 28.5398 60.7268 28.4224C60.7449 27.5283 60.7359 26.6251 60.7359 25.6768Z" fill="#434041"/>
<path d="M90.7368 53.0329C89.355 53.0329 88.0725 53.0329 86.7088 53.0329C86.7088 52.7619 86.7088 52.5091 86.7088 52.2652C86.6998 48.8242 86.6998 45.3833 86.6907 41.9423C86.6907 41.6894 86.6727 41.4275 86.6365 41.1746C86.3927 39.5309 85.4895 38.8987 83.9181 39.4767C83.033 39.8018 82.2382 40.4069 81.4525 40.9578C81.2628 41.0933 81.2086 41.5178 81.2086 41.8068C81.1906 45.2478 81.1996 48.6888 81.1996 52.1297C81.1996 52.4188 81.1996 52.7168 81.1996 53.0419C79.8449 53.0419 78.5715 53.0419 77.2529 53.0419C77.2529 47.5056 77.2529 41.9784 77.2529 36.406C78.4631 36.406 79.6552 36.406 80.8835 36.406C80.8835 37.0201 80.8835 37.5891 80.8835 38.2665C81.4344 37.8872 81.9131 37.553 82.3918 37.2279C83.611 36.415 84.9296 35.9815 86.4198 36.0718C88.8944 36.2254 90.4388 37.6975 90.6194 40.1992C90.7097 41.4365 90.7188 42.6829 90.7278 43.9292C90.7458 46.7199 90.7368 49.5016 90.7368 52.2923C90.7368 52.5091 90.7368 52.7349 90.7368 53.0329Z" fill="#434041"/>
<path d="M74.4516 44.7423C74.2078 46.0519 74.0994 47.4157 73.693 48.671C72.6272 51.9675 69.981 53.6293 66.5401 53.3493C63.6048 53.1145 61.6269 51.5972 60.6786 48.8426C59.6942 45.9887 59.6942 43.0806 60.787 40.2537C61.8889 37.3998 64.2732 35.9547 67.3258 36.027C71.2996 36.1173 73.5485 38.7455 74.1174 42.349C74.2439 43.1257 74.2619 43.9205 74.3342 44.7062C74.3793 44.7152 74.4155 44.7333 74.4516 44.7423ZM70.3333 44.065C70.1978 43.4508 70.0262 42.2135 69.6288 41.0575C69.2766 40.0189 68.3644 39.5402 67.2535 39.5131C66.1156 39.486 65.2215 39.9557 64.7699 40.9853C64.4448 41.7349 64.219 42.5567 64.1377 43.3605C63.9661 45.0765 63.9571 46.7925 64.7338 48.4091C65.2305 49.4387 66.0614 49.9354 67.1993 49.9354C68.3102 49.9354 69.114 49.4206 69.6198 48.4362C70.2158 47.2621 70.2249 45.9797 70.3333 44.065Z" fill="#434041"/>
<path d="M40.2112 45.4742C39.9493 47.2263 40.8344 49.2042 42.1259 49.8003C43.7967 50.5679 45.2237 50.0531 47.0661 47.9759C48.0054 48.5539 48.9537 49.1319 49.9471 49.7461C49.4143 50.8479 48.6556 51.6878 47.6441 52.2658C45.3049 53.6025 42.8303 53.756 40.3286 52.8077C38.6217 52.1575 37.5198 50.8208 36.9238 49.1319C35.8671 46.1425 35.84 43.0989 37.0051 40.1366C38.6759 35.8828 44.3205 34.5913 47.7344 37.6349C48.9898 38.7548 49.622 40.254 49.8929 41.8887C50.0465 42.8009 50.0645 43.7402 50.1458 44.6614C50.191 45.2213 50.0013 45.4381 49.3781 45.429C46.4881 45.4019 43.607 45.429 40.717 45.4381C40.5634 45.4471 40.4099 45.4561 40.2112 45.4742ZM46.2081 42.4938C46.2081 41.401 45.9823 40.3714 45.0701 39.676C44.0947 38.9264 42.9839 38.8271 41.882 39.396C40.6628 40.0282 40.3377 41.1933 40.2022 42.4938C42.2162 42.4938 44.167 42.4938 46.2081 42.4938Z" fill="#434041"/>
<path d="M39.4363 13.0874C40.5201 13.0874 41.4594 13.0874 42.4077 13.0874C42.8502 13.0874 42.7689 13.4216 42.7689 13.6835C42.7689 15.3814 42.7599 17.0793 42.7599 18.7862C42.7599 19.0391 42.7599 19.292 42.7599 19.6442C42.9134 19.5359 42.9947 19.4997 43.0489 19.4365C44.5662 17.7115 48.1065 17.6393 49.9128 20.1229C51.2043 21.8931 51.5385 23.9071 51.4391 26.0204C51.3578 27.7274 50.9424 29.3259 49.8767 30.7258C48.1788 32.9476 45.0358 33.3359 42.8954 31.5386C42.7057 31.3761 42.507 31.2135 42.3083 31.051C42.1548 31.5116 42.1277 32.1438 41.8387 32.2973C41.4413 32.514 40.8452 32.3876 40.3304 32.3966C40.0324 32.4057 39.7434 32.3966 39.4363 32.3966C39.4363 25.9662 39.4363 19.572 39.4363 13.0874ZM42.7599 25.334C42.7599 26.3004 42.7509 27.2668 42.7689 28.2422C42.7689 28.4409 42.8231 28.6937 42.9586 28.8292C43.5005 29.3711 44.1236 29.7685 44.9184 29.8227C46.4267 29.922 47.4382 29.1273 47.8627 27.4745C48.2058 26.1107 48.2239 24.7289 47.8356 23.3742C47.664 22.7872 47.3659 22.1821 46.9685 21.7215C46.0564 20.6828 44.5662 20.737 43.2205 21.7215C42.9134 21.9473 42.7418 22.2001 42.7599 22.6065C42.7779 23.5097 42.7599 24.4219 42.7599 25.334Z" fill="#434041"/>
<path d="M34.7976 49.8623C34.7976 50.8738 34.8157 51.8221 34.7796 52.7704C34.7706 52.9149 34.5538 53.1678 34.4183 53.1769C33.0636 53.2491 31.6908 53.4297 30.3542 53.2943C28.575 53.1046 27.6628 52.0299 27.5996 50.2236C27.5273 48.047 27.5635 45.8704 27.5544 43.7029C27.5544 42.3843 27.5544 41.0657 27.5544 39.6658C26.8138 39.6658 26.1275 39.6658 25.3778 39.6658C25.3778 38.6091 25.3688 37.6247 25.3959 36.6493C25.3959 36.55 25.6488 36.3874 25.8023 36.3693C26.1907 36.3332 26.5971 36.3422 26.9854 36.3693C27.4099 36.3964 27.5815 36.261 27.5725 35.8004C27.5454 34.4547 27.5635 33.109 27.5635 31.7633C27.5635 31.5556 27.5815 31.3388 27.5906 31.0859C28.9091 31.0859 30.1826 31.0859 31.5463 31.0859C31.5463 32.829 31.5463 34.554 31.5463 36.3422C32.4766 36.3422 33.3255 36.3693 34.1654 36.3332C34.6531 36.3151 34.8338 36.4597 34.8067 36.9654C34.7706 37.8324 34.7976 38.6994 34.7976 39.6387C33.6868 39.6387 32.6482 39.6387 31.5463 39.6387C31.5463 39.9458 31.5463 40.1806 31.5463 40.4064C31.5463 42.9804 31.5463 45.5453 31.5463 48.1192C31.5463 48.2547 31.5373 48.3992 31.5554 48.5347C31.6637 49.6365 31.9979 49.9436 33.1088 49.9436C33.6507 49.9436 34.1835 49.8894 34.7976 49.8623Z" fill="#434041"/>
<path d="M0.652848 20.9443C1.45665 19.6257 2.57655 18.8038 4.01255 18.4335C5.55692 18.0452 7.11033 18.0632 8.61858 18.6232C10.2172 19.2193 11.1113 20.5108 11.1203 22.2177C11.1293 24.313 11.1203 26.4083 11.1203 28.5036C11.1203 29.759 11.1203 31.0234 11.1203 32.3781C10.2894 32.3781 9.31401 32.3871 8.33861 32.36C8.23926 32.36 8.11282 32.1704 8.06767 32.0349C7.98638 31.8001 7.95026 31.5382 7.91413 31.4027C6.84842 31.7639 5.81884 32.2516 4.74409 32.4323C3.20875 32.6942 1.65534 32.5768 0.643817 31.1137C-0.512208 29.4429 -0.0516046 26.7425 1.54696 25.4781C3.01006 24.322 4.76216 23.9156 6.53232 23.5815C6.97486 23.5002 7.4174 23.437 7.86898 23.3557C7.87801 23.175 7.88704 23.0396 7.88704 22.9041C7.91413 21.2333 7.1013 20.5288 5.43952 20.7907C4.5725 20.9262 3.81385 21.2875 3.24487 21.9648C2.99199 22.2719 2.80233 22.3261 2.46817 22.1003C1.89016 21.7119 1.27602 21.3507 0.652848 20.9443ZM7.77866 25.5503C6.73101 25.8483 5.8098 26.0561 4.94279 26.3993C4.49121 26.5799 4.06674 26.9321 3.73257 27.3024C3.20875 27.8895 3.15456 28.8378 3.52485 29.3977C3.87708 29.9486 4.53637 30.2105 5.3763 29.9035C6.153 29.6235 6.85745 29.1358 7.589 28.7203C7.68835 28.6662 7.77866 28.5036 7.77866 28.3862C7.78769 27.5101 7.77866 26.6251 7.77866 25.5503Z" fill="#434041"/>
<path d="M21.539 21.685C20.094 21.7482 18.947 22.2992 18.1703 23.4642C18.0077 23.7081 17.8994 24.0332 17.8903 24.3312C17.8723 26.7246 17.8813 29.1179 17.8723 31.5112C17.8723 31.7641 17.8723 32.026 17.8723 32.315C17.6646 32.3602 17.4839 32.4054 17.1859 32.4776C17.1859 34.8077 17.1859 37.174 17.1859 39.5312C17.1859 41.8974 17.1859 44.2636 17.1859 46.6841C16.2827 46.6841 15.4428 46.6841 14.5487 46.6841C14.5487 37.3004 14.5487 27.9438 14.5487 18.524C15.5512 18.524 16.5627 18.524 17.6375 18.524C17.6375 19.1562 17.6375 19.7704 17.6375 20.3935C17.6736 20.4116 17.7187 20.4206 17.7549 20.4387C17.9626 20.1677 18.1613 19.8968 18.378 19.6259C19.0373 18.804 19.8592 18.2892 20.943 18.226C21.3674 18.2079 21.5571 18.3163 21.539 18.7769C21.521 19.7342 21.539 20.7006 21.539 21.685Z" fill="#434041"/>
<path d="M48.1757 55.4001H41.8627C41.7814 55.3821 41.6821 55.373 41.5556 55.373C39.2436 55.4001 37.4734 55.4001 35.8026 55.373C35.6671 55.373 35.5497 55.3821 35.4594 55.4001H28.9297V67.0326H35.342C35.4594 67.0417 35.5678 67.0507 35.6671 67.0507C36.2632 67.0507 36.8502 67.0507 37.4463 67.0507C38.8101 67.0507 40.2099 67.0507 41.6008 67.0597C41.6098 67.0597 41.6188 67.0597 41.6279 67.0597C41.7362 67.0597 41.8266 67.0507 41.9078 67.0326H48.1847V55.4001H48.1757ZM35.342 66.9062C35.2878 66.9062 35.2336 66.8972 35.1794 66.8972C35.1794 66.8159 35.1704 66.7436 35.1704 66.6714C35.1614 66.4998 35.1523 66.3463 35.1523 66.1927C35.1523 65.2354 35.1523 64.269 35.1523 63.3117C35.1523 60.9725 35.1523 58.5521 35.1343 56.1768C35.1343 55.7524 35.2155 55.5898 35.4684 55.5266H41.8446C42.0253 55.5717 42.1336 55.6801 42.1336 56.0775C42.1156 59.3649 42.1156 62.7427 42.1336 66.4004C42.1336 66.7346 42.0704 66.8701 41.8808 66.9243H35.342V66.9062Z" fill="#434041"/>
<path d="M12.6626 41.626C10.2964 41.626 8.1288 41.626 5.97029 41.626C5.80772 42.8723 6.30445 44.1006 7.17147 44.4799C8.59844 45.1031 9.64609 44.507 10.486 43.2787C11.1543 43.6942 11.7775 44.0916 12.4368 44.498C11.624 45.9882 10.3776 46.7197 8.7881 46.8732C5.58194 47.1984 3.56792 45.4914 3.28795 42.195C3.17054 40.8583 3.20666 39.5126 3.71243 38.2211C4.50719 36.2071 5.97029 35.2769 8.31846 35.3491C10.1699 35.4033 11.6872 36.5864 12.202 38.5282C12.4639 39.4946 12.5 40.5061 12.6626 41.626ZM9.86284 39.63C9.93509 38.2934 9.14033 37.3902 7.94818 37.3812C6.79215 37.3722 5.97029 38.3024 6.00641 39.63C7.27985 39.63 8.55328 39.63 9.86284 39.63Z" fill="#434041"/>
<path d="M23.6864 18.4969C24.6979 18.4969 25.7004 18.4969 26.7571 18.4969C26.7571 19.1562 26.7571 19.7974 26.7571 20.6103C27.1003 20.1587 27.3261 19.8245 27.588 19.5175C28.2744 18.7137 29.1143 18.226 30.2071 18.235C30.478 18.235 30.6677 18.2801 30.6587 18.6143C30.6496 19.6168 30.6587 20.6283 30.6587 21.6579C30.2884 21.7211 29.9632 21.7663 29.6381 21.8295C28.5814 22.0643 27.7686 22.6694 27.2086 23.5726C27.0641 23.8074 27.019 24.1325 27.019 24.4125C27.0009 26.86 27.0009 29.3166 27.019 31.7641C27.028 32.2518 26.8835 32.4234 26.3868 32.3963C25.6191 32.3602 24.8424 32.3782 24.0747 32.3873C23.7677 32.3963 23.5961 32.315 23.5961 31.9628C23.6051 27.5735 23.6051 23.1933 23.6141 18.804C23.6141 18.7137 23.6593 18.6233 23.6864 18.4969Z" fill="#434041"/>
<path d="M74.4613 61.8838C75.3555 63.4372 76.2225 64.9545 77.1708 66.5982C76.3038 66.5982 75.5451 66.6072 74.7955 66.5892C74.6871 66.5892 74.5336 66.4718 74.4794 66.3634C73.5492 64.7377 72.637 63.103 71.6887 61.4141C72.0319 61.2245 72.348 61.0709 72.646 60.8903C73.4227 60.4207 73.9375 59.7885 73.8653 58.8131C73.775 57.6932 72.6189 56.8894 71.5532 57.2326C71.4178 57.2777 71.3003 57.5938 71.3003 57.7835C71.2823 60.1768 71.2913 62.5702 71.2913 64.9545C71.2913 65.4873 71.2913 66.0112 71.2913 66.6163C70.5146 66.6163 69.8011 66.6163 69.0244 66.6163C69.0244 66.3634 69.0244 66.1647 69.0244 65.966C69.0244 62.6605 69.0334 59.364 69.0154 56.0585C69.0154 55.5798 69.1328 55.4173 69.6205 55.3721C71.0023 55.2547 72.3841 55.1463 73.7388 55.5256C75.0484 55.8869 76.0148 56.6546 76.2315 58.0815C76.4573 59.5627 76.0328 60.8181 74.7323 61.6851C74.6691 61.7393 74.6058 61.7844 74.4613 61.8838Z" fill="#434041"/>
<path d="M86.6004 55.409C86.6004 55.8064 86.6004 56.0954 86.6004 56.3844C86.5643 58.6603 86.6095 60.9362 86.474 63.2031C86.3385 65.4158 85.1915 66.5267 82.9969 66.7525C82.3195 66.8247 81.6061 66.7705 80.9377 66.617C79.3482 66.2377 78.4179 65.1178 78.3096 63.167C78.1741 60.7195 78.2283 58.2629 78.2193 55.8154C78.2193 55.6889 78.445 55.4632 78.5895 55.4361C79.014 55.3819 79.4566 55.418 79.8901 55.3909C80.3597 55.3638 80.5313 55.5354 80.5313 56.0412C80.5042 57.9017 80.5042 59.7621 80.5223 61.6136C80.5313 62.2006 80.5674 62.8057 80.6668 63.3837C80.8384 64.3411 81.4074 64.7836 82.3557 64.7926C83.3401 64.8017 83.882 64.4043 84.0716 63.4379C84.1981 62.8057 84.2432 62.1464 84.2432 61.4962C84.2613 59.6808 84.2613 57.8565 84.2342 56.0412C84.2252 55.5986 84.3426 55.3819 84.8212 55.409C85.3993 55.427 85.9502 55.409 86.6004 55.409Z" fill="#434041"/>
<path d="M51.8472 66.6528C51.8472 62.8596 51.8472 59.1657 51.8472 55.4177C53.5271 55.2912 55.1798 55.0655 56.8055 55.5532C58.097 55.9415 58.8647 56.8266 59.1175 58.1542C59.6504 60.9088 58.2415 62.8325 55.5411 63.0222C55.3063 63.0402 55.0624 63.0673 54.8276 63.0312C54.2677 62.9589 54.0509 63.1396 54.087 63.7356C54.1412 64.5394 54.087 65.3523 54.1051 66.1651C54.1141 66.4902 53.9967 66.6438 53.6716 66.6438C53.0755 66.6528 52.4704 66.6528 51.8472 66.6528ZM54.1051 57.2601C54.1051 58.4703 54.0961 59.6534 54.1232 60.8275C54.1232 60.9359 54.3309 61.1165 54.4573 61.1256C55.1798 61.1707 55.9023 61.1256 56.4081 60.5204C56.95 59.8612 56.95 59.0844 56.6791 58.3348C56.3359 57.3865 55.5682 57.0795 54.1051 57.2601Z" fill="#434041"/>
<path d="M63.0284 61.7482C63.0284 62.7326 63.0284 63.6357 63.0284 64.6111C63.2542 64.6292 63.489 64.6472 63.7148 64.6563C64.7082 64.6563 65.6927 64.6653 66.6861 64.6473C67.0203 64.6382 67.1829 64.7285 67.2371 65.0898C67.4267 66.4264 67.3003 66.589 65.9817 66.589C64.2657 66.589 62.5407 66.589 60.7705 66.589C60.7705 62.8861 60.7705 59.2193 60.7705 55.4713C61.1318 55.4713 61.5021 55.4713 61.8724 55.4713C63.3987 55.4713 64.916 55.4894 66.4423 55.4623C66.9571 55.4532 67.1377 55.6158 67.1467 56.1306C67.1738 57.4311 67.1919 57.4311 65.9004 57.4311C64.9611 57.4311 64.0128 57.4311 63.0374 57.4311C63.0374 58.244 63.0374 58.9665 63.0374 59.7883C63.8864 59.7883 64.7353 59.8245 65.5753 59.7793C66.1172 59.7522 66.3068 59.9238 66.3158 60.4657C66.3429 61.7572 66.361 61.7572 65.0695 61.7572C64.4012 61.7482 63.7509 61.7482 63.0284 61.7482Z" fill="#434041"/>
<path d="M36.0018 18.4602C36.0018 23.1475 36.0018 27.7264 36.0018 32.3505C34.909 32.3505 33.8613 32.3505 32.7414 32.3505C32.7324 32.1248 32.7053 31.908 32.7053 31.7003C32.7053 27.5097 32.7144 23.3191 32.6873 19.1285C32.6873 18.6227 32.8047 18.4241 33.3466 18.4512C34.2226 18.4963 35.0896 18.4602 36.0018 18.4602Z" fill="#434041"/>
<path d="M36.0324 16.2123C34.9125 16.2123 33.8558 16.2123 32.7178 16.2123C32.7178 15.246 32.7088 14.3067 32.7359 13.3765C32.7359 13.2771 32.9527 13.0965 33.0791 13.0965C33.9461 13.0694 34.8131 13.0694 35.6802 13.0965C35.8066 13.0965 36.0234 13.2681 36.0234 13.3674C36.0414 14.2977 36.0324 15.2369 36.0324 16.2123Z" fill="#434041"/>
<path d="M66.6731 30.8159C67.3956 31.403 68.0369 31.9268 68.7233 32.4867C68.1362 33.1822 67.5853 33.8415 67.0163 34.4917C66.9441 34.573 66.8176 34.6272 66.7093 34.6362C66.068 34.6453 65.4178 34.6453 64.623 34.6453C65.3365 33.3176 65.9777 32.1164 66.6731 30.8159Z" fill="#434041"/>
<path d="M81.2147 54.5052C81.9553 53.006 83.6171 52.3829 85.5137 52.9518C84.2312 53.9905 83.0391 55.1103 81.2147 54.5052Z" fill="#434041"/>
<path d="M70.2931 25.3701L64.6303 29.5607L74.1314 37.1832L76.886 30.5813C74.2488 29.4614 71.9729 27.646 70.2931 25.3701Z" fill="#706F6F"/>
<path d="M84.7285 3.18799C84.4124 5.59938 83.9699 8.8778 83.6719 10.8828C83.3738 10.8286 83.0668 10.7925 82.7597 10.7925C81.6217 10.7925 80.5741 11.1898 79.7432 11.8491L75.2997 5.47294C72.1839 7.76693 70.1518 11.4608 70.1518 15.6333C70.1518 18.5866 71.1723 21.3051 72.8703 23.4546C74.2521 25.1976 76.0945 26.5704 78.1988 27.3832C79.6077 27.9251 81.1431 28.2322 82.7416 28.2322C89.7049 28.2322 95.3405 22.5875 95.3405 15.6333C95.3495 9.34743 90.7435 4.13629 84.7285 3.18799Z" fill="white"/>
<path d="M83.0956 0C74.308 0 67.1822 7.12581 67.1822 15.9224C67.1822 16.0489 67.1822 16.1753 67.1913 16.3018C67.1913 16.3379 67.1913 16.383 67.1913 16.4192C67.1913 16.5095 67.2003 16.5908 67.2003 16.6811C67.2003 16.7262 67.2003 16.7714 67.2093 16.8166C67.2183 16.8978 67.2183 16.9882 67.2274 17.0694C67.2274 17.1146 67.2364 17.1507 67.2364 17.1959C67.2454 17.3043 67.2545 17.4126 67.2635 17.512C67.2635 17.53 67.2635 17.5481 67.2725 17.5662C67.2816 17.6836 67.2996 17.81 67.3177 17.9274C67.3267 17.9726 67.3267 18.0087 67.3358 18.0539C67.3448 18.1351 67.3538 18.2164 67.3719 18.2887C67.3809 18.3338 67.3899 18.388 67.3899 18.4332C67.399 18.5054 67.417 18.5777 67.4261 18.659C67.4351 18.7041 67.4441 18.7583 67.4532 18.8035C67.4712 18.8848 67.4803 18.966 67.4983 19.0564C67.5074 19.0925 67.5164 19.1286 67.5164 19.1647C67.5435 19.2731 67.5615 19.3905 67.5886 19.4989C67.5977 19.5441 67.6157 19.5982 67.6248 19.6434C67.6428 19.7066 67.6609 19.7789 67.6699 19.8421C67.688 19.8963 67.697 19.9505 67.7151 20.0047C67.7331 20.0679 67.7512 20.1221 67.7602 20.1853C67.7783 20.2395 67.7873 20.2937 67.8054 20.3569C67.8234 20.4201 67.8415 20.4743 67.8596 20.5375C67.8776 20.6098 67.9047 20.682 67.9228 20.7452C67.9499 20.8265 67.977 20.9168 68.0041 20.9981C68.0221 21.0613 68.0492 21.1155 68.0673 21.1787C68.0854 21.2239 68.1034 21.2781 68.1215 21.3232C68.1486 21.3865 68.1666 21.4497 68.1937 21.5129C68.2118 21.5581 68.2299 21.6032 68.2479 21.6484C68.275 21.7116 68.3021 21.7748 68.3202 21.838C68.3382 21.8742 68.3563 21.9193 68.3653 21.9554C68.4647 22.1903 68.564 22.4251 68.6724 22.6509C68.6905 22.678 68.6995 22.7141 68.7176 22.7412C68.7537 22.8134 68.7808 22.8857 68.8169 22.9489C68.835 22.976 68.844 23.0121 68.8621 23.0392C68.8982 23.1115 68.9343 23.1837 68.9704 23.2469C68.9795 23.274 68.9975 23.2921 69.0066 23.3192C69.133 23.563 69.2775 23.8069 69.413 24.0507C69.422 24.0598 69.431 24.0778 69.431 24.0869C69.4762 24.1591 69.5214 24.2314 69.5665 24.3127C69.5756 24.3307 69.5936 24.3578 69.6026 24.3759C69.6478 24.4481 69.693 24.5204 69.7381 24.5926C69.7472 24.6107 69.7562 24.6197 69.7652 24.6378C69.9278 24.8816 70.0994 25.1255 70.271 25.3693C70.4787 25.6493 70.6955 25.9203 70.9122 26.1822C70.9212 26.1912 70.9303 26.2002 70.9393 26.2093C71.1651 26.4712 71.3909 26.7241 71.6347 26.9769C71.6438 26.986 71.6438 26.986 71.6528 26.995C71.7702 27.1124 71.8786 27.2298 71.996 27.3382C72.005 27.3472 72.014 27.3563 72.0231 27.3653C72.2669 27.6001 72.5198 27.8259 72.7727 28.0517C72.7907 28.0697 72.8088 28.0788 72.8178 28.0968C72.9443 28.2052 73.0707 28.3046 73.1972 28.4039C73.1972 28.4039 73.1972 28.4039 73.2062 28.4129C73.3417 28.5213 73.4771 28.6207 73.6126 28.729C73.6216 28.7381 73.6397 28.7471 73.6487 28.7561C73.7752 28.8464 73.8926 28.9368 74.019 29.018C74.0371 29.0361 74.0642 29.0451 74.0822 29.0632C74.3532 29.2529 74.6332 29.4335 74.9222 29.5961C74.9493 29.6141 74.9764 29.6231 74.9944 29.6412C75.1209 29.7135 75.2473 29.7857 75.3737 29.858C75.3918 29.867 75.4099 29.876 75.4279 29.8941C75.5724 29.9754 75.726 30.0567 75.8705 30.1289C75.8885 30.1379 75.8976 30.147 75.9156 30.147C76.0511 30.2102 76.1775 30.2824 76.313 30.3457C76.3401 30.3637 76.3762 30.3728 76.4033 30.3908C76.5478 30.4631 76.7014 30.5263 76.8459 30.5895C77.6768 30.9417 78.5528 31.2307 79.4469 31.4385H79.456C79.5824 31.4656 79.6998 31.4927 79.8262 31.5198C79.8353 31.5198 79.8353 31.5198 79.8443 31.5198C79.9617 31.5468 80.0882 31.5649 80.2056 31.592C80.2146 31.592 80.2236 31.592 80.2327 31.601C80.3501 31.6191 80.4675 31.6462 80.5849 31.6643C80.5939 31.6643 80.612 31.6643 80.621 31.6733C80.7294 31.6913 80.8468 31.7094 80.9642 31.7184C80.9823 31.7184 81.0003 31.7275 81.0274 31.7275C81.1358 31.7455 81.2442 31.7546 81.3526 31.7636C81.3797 31.7636 81.4067 31.7726 81.4338 31.7726C81.5422 31.7817 81.6416 31.7907 81.7499 31.7997C81.777 31.7997 81.8132 31.8088 81.8403 31.8088C81.9396 31.8178 82.0389 31.8178 82.1383 31.8268C82.1744 31.8268 82.2105 31.8358 82.2467 31.8358C82.346 31.8449 82.4363 31.8449 82.5357 31.8449C82.5808 31.8449 82.617 31.8449 82.6621 31.8539C82.7976 31.8539 82.9331 31.8629 83.0776 31.8629C91.8742 31.8629 99 24.7371 99 15.9405C99 7.14387 91.8923 0 83.0956 0ZM82.7524 28.2323C81.1448 28.2323 79.6185 27.9343 78.2096 27.3833C76.0963 26.5615 74.2629 25.1977 72.8811 23.4547C71.1741 21.3052 70.1626 18.5867 70.1626 15.6334C70.1626 11.4609 72.1856 7.76704 75.3105 5.47306L79.754 11.8493C80.5849 11.19 81.6325 10.7926 82.7705 10.7926C83.0866 10.7926 83.3937 10.8197 83.6827 10.8829C83.9807 8.87791 84.4232 5.5995 84.7393 3.1881C90.7633 4.1364 95.3694 9.34755 95.3694 15.6334C95.3513 22.5967 89.7157 28.2323 82.7524 28.2323Z" fill="#434041"/>
<path d="M83.6698 10.8838C83.3717 10.8296 83.0647 10.7935 82.7576 10.7935C81.6196 10.7935 80.572 11.1908 79.7411 11.8501C78.6302 12.7352 77.9167 14.099 77.9167 15.6343C77.9167 18.3076 80.0843 20.4752 82.7576 20.4752C85.4309 20.4752 87.5985 18.3076 87.5985 15.6343C87.5985 13.2771 85.9096 11.3082 83.6698 10.8838Z" fill="#706F6F"/>
</svg>
