<svg width="96" height="87" viewBox="0 0 96 87" fill="none" xmlns="http://www.w3.org/2000/svg">
<path d="M84.7441 79.0188C91.7948 70.6223 96.0343 59.779 96.0003 47.9423C95.9266 21.8333 74.7462 0.368122 48.6803 0.00478694C21.8605 -0.369902 0 21.2996 0 48.0785C0 59.8642 4.23381 70.6564 11.2561 79.0188C11.4885 79.2969 11.9136 79.3083 12.1687 79.0528L48.0001 43.1622L83.8316 79.0528C84.0867 79.314 84.5118 79.2969 84.7441 79.0188Z" fill="#019B69"/>
<path d="M47.9999 86.8575C69.4602 86.8575 86.8573 69.4605 86.8573 48.0002C86.8573 26.5399 69.4602 9.14282 47.9999 9.14282C26.5396 9.14282 9.14258 26.5399 9.14258 48.0002C9.14258 69.4605 26.5396 86.8575 47.9999 86.8575Z" fill="#EAFFF8"/>
<mask id="mask0_1805_11783" style="mask-type:alpha" maskUnits="userSpaceOnUse" x="9" y="9" width="78" height="78">
<path d="M47.9008 86.8017C69.3852 86.8017 86.8017 69.3852 86.8017 47.9008C86.8017 26.4165 69.3852 9 47.9008 9C26.4165 9 9 26.4165 9 47.9008C9 69.3852 26.4165 86.8017 47.9008 86.8017Z" fill="#FBC000"/>
</mask>
<g mask="url(#mask0_1805_11783)">
<g opacity="0.8">
<path d="M55.0668 88.8492L26.5 70.0001L43.5 53.5001L26.5 46.5001L46 26.0001L62 35.0001L69.5 26.0001L93.2851 46.8772L74.176 81.6833L55.0668 88.8492Z" fill="#019B69" fill-opacity="0.5" style="mix-blend-mode:multiply"/>
</g>
</g>
<path d="M45.5703 46.8383H27.268C26.5679 46.8383 26 46.2704 26 45.5703V27.268C26 26.5679 26.5679 26 27.268 26H45.5703C46.2704 26 46.8383 26.5679 46.8383 27.268V45.5703C46.8403 46.2704 46.2704 46.8383 45.5703 46.8383Z" fill="#ED1164"/>
<path d="M69.0508 46.8384H50.7485C50.0484 46.8384 49.4805 46.2705 49.4805 45.5704V27.2681C49.4805 26.5681 50.0484 26.0001 50.7485 26.0001H69.0508C69.7508 26.0001 70.3188 26.5681 70.3188 27.2681V45.5704C70.3188 46.2705 69.7508 46.8384 69.0508 46.8384Z" fill="white"/>
<path d="M45.5703 70.1734H27.268C26.5679 70.1734 26 69.6055 26 68.9054V50.6031C26 49.903 26.5679 49.3351 27.268 49.3351H45.5703C46.2704 49.3351 46.8383 49.903 46.8383 50.6031V68.9054C46.8403 69.6055 46.2704 70.1734 45.5703 70.1734Z" fill="white"/>
<path d="M69.0508 70.1734H50.7485C50.0484 70.1734 49.4805 69.6055 49.4805 68.9054V50.6031C49.4805 49.903 50.0484 49.3351 50.7485 49.3351H69.0508C69.7508 49.3351 70.3188 49.903 70.3188 50.6031V68.9054C70.3188 69.6055 69.7508 70.1734 69.0508 70.1734Z" fill="#ED1164"/>
<path d="M33.8334 57.6633C35.2623 57.6633 36.4207 56.505 36.4207 55.0761C36.4207 53.6471 35.2623 52.4888 33.8334 52.4888C32.4045 52.4888 31.2461 53.6471 31.2461 55.0761C31.2461 56.505 32.4045 57.6633 33.8334 57.6633Z" fill="#EEC542"/>
<mask id="mask1_1805_11783" style="mask-type:alpha" maskUnits="userSpaceOnUse" x="26" y="49" width="21" height="22">
<path d="M45.5703 70.1734H27.268C26.5679 70.1734 26 69.6055 26 68.9054V50.6031C26 49.903 26.5679 49.3351 27.268 49.3351H45.5703C46.2704 49.3351 46.8383 49.903 46.8383 50.6031V68.9054C46.8403 69.6055 46.2704 70.1734 45.5703 70.1734Z" fill="white"/>
</mask>
<g mask="url(#mask1_1805_11783)">
<path d="M29.5449 70.0354L43.1479 55.6101C44.3804 54.3026 46.455 54.2849 47.7092 55.5687L63.0554 71.2738L29.5449 70.0354Z" fill="#ED1164"/>
<path d="M23.6738 70.7611L32.6919 61.1968C33.9244 59.8893 35.9989 59.8716 37.2531 61.1554L47.4978 71.6406L23.6738 70.7611Z" fill="#F53C82"/>
</g>
<g style="mix-blend-mode:multiply" opacity="0.4">
<path d="M65.1484 29.9896L70.3171 35.46V45.6198C70.3171 46.2943 69.7708 46.8385 69.0984 46.8385H61.4785L55.9766 41.875L61.8808 31.3168L65.1484 29.9896Z" fill="#E0E0E0"/>
</g>
<g style="mix-blend-mode:multiply" opacity="0.4">
<path d="M40.5181 35.7357L46.8404 42.8488V45.6175C46.8404 46.2919 46.2941 46.8362 45.6216 46.8362H37.9998L32.1094 41.5216L34.8801 35.0238L40.5181 35.7357Z" fill="#ED1164"/>
</g>
<g opacity="0.41">
<path d="M65.1496 56.3651L70.3183 60.2677V68.9545C70.3183 69.6289 69.772 70.1732 69.0996 70.1732H61.4797L54.6545 64.0146L60.4168 62.0287L54.4258 58.3292L65.1496 56.3651Z" fill="#ED1164" style="mix-blend-mode:multiply"/>
</g>
<path d="M65.1488 29.9896H62.4669H60.0452V32.4093V35.3298C58.933 34.8723 57.5664 34.9039 56.2038 35.7459C55.8291 35.9767 55.5155 36.3001 55.2947 36.6807C53.5238 39.7274 55.6772 42.8492 58.5583 42.8492C60.2779 42.8492 61.7353 41.7369 62.2578 40.1928C62.39 39.8004 62.4669 39.3804 62.4669 38.9426V32.4093H65.1488V29.9896Z" fill="#ED1164"/>
<path d="M31.9297 32.1069V40.7306C31.9297 41.3399 32.5903 41.7205 33.1188 41.4129L40.5178 37.1021C41.0404 36.7964 41.0404 36.0411 40.5178 35.7354L33.1188 31.4246C32.5903 31.117 31.9297 31.4976 31.9297 32.1069Z" fill="white"/>
<path d="M64.451 58.726H55.3521C54.6422 58.726 54.0684 58.1502 54.0684 57.4422C54.0684 56.7323 54.6442 56.1584 55.3521 56.1584H64.451C65.161 56.1584 65.7348 56.7343 65.7348 57.4422C65.7348 58.1522 65.159 58.726 64.451 58.726Z" fill="white"/>
<path d="M64.451 64.0831H55.3521C54.6422 64.0831 54.0684 63.5072 54.0684 62.7993C54.0684 62.0894 54.6442 61.5155 55.3521 61.5155H64.451C65.161 61.5155 65.7348 62.0913 65.7348 62.7993C65.7348 63.5072 65.159 64.0831 64.451 64.0831Z" fill="white"/>
</svg>
