<svg width="95" height="86" viewBox="0 0 95 86" fill="none" xmlns="http://www.w3.org/2000/svg">
<path d="M83.4196 77.7837C90.36 69.5185 94.5333 58.8447 94.4998 47.1929C94.4273 21.492 73.5779 0.362368 47.9194 0.00471212C21.5188 -0.364121 0 20.9667 0 47.3271C0 58.9285 4.16763 69.552 11.0802 77.7837C11.309 78.0575 11.7274 78.0687 11.9785 77.8172L47.2499 42.4875L82.5213 77.8172C82.7724 78.0743 83.1908 78.0575 83.4196 77.7837Z" fill="#019B69"/>
<path d="M47.25 85.5C68.3749 85.5 85.5 68.3749 85.5 47.25C85.5 26.1251 68.3749 9 47.25 9C26.1251 9 9 26.1251 9 47.25C9 68.3749 26.1251 85.5 47.25 85.5Z" fill="#EAFFF8"/>
<mask id="mask0_1805_11706" style="mask-type:alpha" maskUnits="userSpaceOnUse" x="9" y="9" width="77" height="77">
<path d="M47.2928 85.5856C68.4413 85.5856 85.5856 68.4413 85.5856 47.2928C85.5856 26.1443 68.4413 9 47.2928 9C26.1443 9 9 26.1443 9 47.2928C9 68.4413 26.1443 85.5856 47.2928 85.5856Z" fill="#FBC000"/>
</mask>
<g mask="url(#mask0_1805_11706)">
<g opacity="0.8">
<path d="M59.5 89L24 69.5L37.5 65.5L47.0276 61.2666V56.7666L60.5002 54.0632V50L64.8269 21.5L91.5 53L73.1572 80.5471L59.5 89Z" fill="#019B69" fill-opacity="0.5" style="mix-blend-mode:multiply"/>
</g>
</g>
<path d="M33.9648 22.0117V71.2871H58.9077C62.3971 71.2871 65.2258 68.4584 65.2258 64.969V22.0117C65.2258 21.4531 64.7727 21 64.2141 21H34.9766C34.4179 21 33.9648 21.4531 33.9648 22.0117Z" fill="white"/>
<path d="M65.2255 22.0117V64.9693C65.2255 68.458 62.3964 71.2871 58.907 71.2871H56.002C59.4917 71.2871 62.3208 68.458 62.3208 64.9693V22.0117C62.3208 21.4531 61.8673 21 61.3087 21H64.2138C64.7724 21 65.2255 21.4531 65.2255 22.0117Z" fill="#CBCBCD" fill-opacity="0.32"/>
<path d="M51.1774 62.3975C51.736 62.3975 52.1891 62.8502 52.1891 63.4092V64.9691C52.1891 68.4581 55.0178 71.2869 58.5068 71.2869H27.2439C23.7545 71.2869 20.9258 68.4581 20.9258 64.9687V63.4092C20.9258 62.8506 21.3785 62.3975 21.9375 62.3975H51.1774Z" fill="#EFEFEF"/>
<path d="M42.6989 38.0756C42.6989 39.0904 41.8759 39.913 40.8612 39.913C39.8464 39.913 39.0234 39.0904 39.0234 38.0756C39.0234 37.0605 39.8464 36.2379 40.8612 36.2379C41.8759 36.2379 42.6989 37.0605 42.6989 38.0756Z" fill="#019B69"/>
<path d="M49.4593 38.9981H45.7413C45.322 38.9981 44.9824 38.6585 44.9824 38.2392C44.9824 37.8203 45.322 37.4807 45.7413 37.4807H49.4593C49.8787 37.4807 50.2182 37.8203 50.2182 38.2392C50.2182 38.6585 49.8787 38.9981 49.4593 38.9981Z" fill="#ED1164"/>
<path d="M58.7029 40.8168H45.7413C45.322 40.8168 44.9824 40.4773 44.9824 40.058C44.9824 39.639 45.322 39.2991 45.7413 39.2991H58.7029C59.1222 39.2991 59.4617 39.639 59.4617 40.058C59.4617 40.4773 59.1222 40.8168 58.7029 40.8168Z" fill="#ED1164"/>
<path d="M45.7452 36.8525C45.3281 36.8525 44.9851 36.516 44.9824 36.0982C44.9798 35.6792 45.3135 35.3374 45.7325 35.3347H45.7402H45.7452C46.1618 35.3347 46.5013 35.6712 46.504 36.0886C46.5063 36.5079 46.1687 36.8498 45.7498 36.8525C45.7482 36.8525 45.7467 36.8525 45.7452 36.8525Z" fill="#ED1164"/>
<path d="M42.6989 46.0916C42.6989 47.1064 41.8759 47.9294 40.8612 47.9294C39.8464 47.9294 39.0234 47.1064 39.0234 46.0916C39.0234 45.0769 39.8464 44.2539 40.8612 44.2539C41.8759 44.2539 42.6989 45.0769 42.6989 46.0916Z" fill="#019B69"/>
<path d="M49.4593 47.0152H45.7413C45.322 47.0152 44.9824 46.6756 44.9824 46.2567C44.9824 45.8373 45.322 45.4978 45.7413 45.4978H49.4593C49.8787 45.4978 50.2182 45.8373 50.2182 46.2567C50.2182 46.6756 49.8787 47.0152 49.4593 47.0152Z" fill="#ED1164"/>
<path d="M58.7029 48.8339H45.7413C45.322 48.8339 44.9824 48.4944 44.9824 48.075C44.9824 47.6561 45.322 47.3162 45.7413 47.3162H58.7029C59.1222 47.3162 59.4617 47.6561 59.4617 48.075C59.4617 48.4944 59.1222 48.8339 58.7029 48.8339Z" fill="#ED1164"/>
<path d="M45.7452 44.8686C45.3281 44.8686 44.9851 44.5321 44.9824 44.1147C44.9798 43.6954 45.3135 43.3535 45.7325 43.3508H45.7402H45.7452C46.1618 43.3508 46.5013 43.6877 46.504 44.1051C46.5063 44.5241 46.1687 44.8659 45.7498 44.8686C45.7482 44.8686 45.7467 44.8686 45.7452 44.8686Z" fill="#ED1164"/>
<path d="M42.2087 54.6081C42.2087 55.6229 41.3857 56.4458 40.3709 56.4458C39.3562 56.4458 38.5332 55.6229 38.5332 54.6081C38.5332 53.5933 39.3562 52.7704 40.3709 52.7704C41.3857 52.7704 42.2087 53.5933 42.2087 54.6081Z" fill="#019B69"/>
<path d="M49.4593 55.0316H45.7413C45.322 55.0316 44.9824 54.6916 44.9824 54.2727C44.9824 53.8533 45.322 53.5138 45.7413 53.5138H49.4593C49.8787 53.5138 50.2182 53.8533 50.2182 54.2727C50.2182 54.6916 49.8787 55.0316 49.4593 55.0316Z" fill="#ED1164"/>
<path d="M58.7029 56.8497H45.7413C45.322 56.8497 44.9824 56.5101 44.9824 56.0908C44.9824 55.6718 45.322 55.3323 45.7413 55.3323H58.7029C59.1222 55.3323 59.4617 55.6718 59.4617 56.0908C59.4617 56.5101 59.1222 56.8497 58.7029 56.8497Z" fill="#ED1164"/>
<path d="M45.7452 52.8857C45.3281 52.8857 44.9851 52.5492 44.9824 52.1318C44.9798 51.7124 45.3135 51.3706 45.7325 51.3679H45.7402H45.7452C46.1618 51.3679 46.5013 51.7048 46.504 52.1222C46.5063 52.5412 46.1687 52.883 45.7498 52.8857C45.7482 52.8857 45.7467 52.8857 45.7452 52.8857Z" fill="#ED1164"/>
<path d="M57.6453 30.1411H40.3927C39.8707 30.1411 39.4473 29.6998 39.4473 29.1555V26.8404C39.4473 26.2964 39.8707 25.8552 40.3927 25.8552H57.6453C58.1676 25.8552 58.5906 26.2964 58.5906 26.8404V29.1555C58.5906 29.6998 58.1676 30.1411 57.6453 30.1411Z" fill="#F798BC"/>
<path d="M33.9688 49.2502L37.2268 50.87C37.5905 51.0507 37.9876 50.6939 37.8468 50.3129L36.5849 46.9003L33.9688 49.2502Z" fill="#019B69" fill-opacity="0.5"/>
<path d="M33.2681 49.051L20.1914 34.4931C19.9159 34.1865 19.9405 33.7142 20.2478 33.438L22.3288 31.5688C22.6361 31.293 23.1084 31.3187 23.3838 31.6256L36.4605 46.1832C36.7363 46.4905 36.7114 46.962 36.4037 47.2382L34.3231 49.1074C34.0154 49.3833 33.5439 49.3583 33.2681 49.051Z" fill="#019B69"/>
<path d="M33.2681 49.0511L20.1914 34.4931C19.9159 34.1865 19.9405 33.7142 20.2478 33.438L21.2883 32.5034L35.3632 48.1729L34.3231 49.1075C34.0154 49.3833 33.5439 49.3584 33.2681 49.0511Z" fill="#019B69" style="mix-blend-mode:multiply"/>
<path d="M21.6077 36.0698L20.1912 34.4934C19.9158 34.1865 19.9407 33.7142 20.248 33.4383L22.3286 31.5691C22.6363 31.2929 23.1082 31.3186 23.3837 31.6255L24.8001 33.2024L21.6077 36.0698Z" fill="#A7A9AC"/>
</svg>
