<svg width="60" height="44" viewBox="0 0 60 44" fill="none" xmlns="http://www.w3.org/2000/svg">
<path d="M59.1211 21.4227C59.6066 21.4227 60 21.0292 60 20.5438V19.4475C60 18.5956 59.6167 17.8041 58.9484 17.2758C58.28 16.7476 57.4213 16.5574 56.5925 16.7541L46.0637 19.2528V17.6717C46.0637 13.8092 42.9214 10.6669 39.0591 10.6669H29.2849C28.8435 6.36553 25.1991 2.99885 20.783 2.99885H9.32648C9.2325 1.53342 8.01105 0.369629 6.52219 0.369629H2.81074C1.26094 0.369746 0 1.63068 0 3.18061V11.3854C0 12.7937 1.04109 13.9631 2.39414 14.1651C1.79449 15.1971 1.44926 16.3946 1.44926 17.6717V36.626C1.44926 40.4884 4.59152 43.6308 8.45402 43.6308H39.0591C42.9214 43.6308 46.0637 40.4884 46.0637 36.626V35.1471L56.5622 37.7636C56.7866 37.8195 57.0132 37.847 57.2379 37.847C57.8471 37.847 58.4421 37.6447 58.9361 37.2588C59.6122 36.7306 59.9999 35.9356 59.9999 35.0775V24.7038C59.9999 24.2185 59.6065 23.8249 59.121 23.8249C58.6355 23.8249 58.2421 24.2185 58.2421 24.7038V35.0775C58.2421 35.3906 58.1005 35.6809 57.8537 35.8737C57.6069 36.0665 57.2917 36.1335 56.9873 36.0579L54.9009 35.5379V18.9622L56.9984 18.4644C57.3007 18.3925 57.6143 18.462 57.8582 18.6549C58.1021 18.8476 58.242 19.1366 58.242 19.4475V20.5438C58.2422 21.0292 58.6356 21.4227 59.1211 21.4227ZM9.33305 4.75678H20.7831C24.2285 4.75678 27.0807 7.33736 27.5134 10.667H9.33305V4.75678ZM1.75781 11.3854V3.18061C1.75781 2.59994 2.2302 2.12768 2.81074 2.12768H6.52219C7.10273 2.12768 7.57512 2.60006 7.57512 3.18061V10.7241C6.13828 10.9049 4.83586 11.5214 3.80484 12.4383H2.81074C2.2302 12.4383 1.75781 11.966 1.75781 11.3854ZM44.3061 36.6262H44.306C44.306 39.5193 41.9523 41.8731 39.0592 41.8731H8.45414C5.5609 41.8731 3.20719 39.5193 3.20719 36.6262V17.6718C3.20719 14.7785 5.56102 12.4248 8.45414 12.4248H8.46059C8.46246 12.4248 8.46434 12.4248 8.46621 12.4248H39.0593C41.9525 12.4248 44.3061 14.7785 44.3061 17.6718V36.6262ZM53.1432 35.1L46.0638 33.3356V21.0594L53.1432 19.3794V35.1Z" fill="white"/>
<path d="M19.509 34.8159C20.0305 34.8159 20.5536 34.6951 21.0403 34.4518L29.5298 30.2071C30.6956 29.6242 31.4198 28.4523 31.4198 27.1488C31.4198 25.8454 30.6956 24.6736 29.5298 24.0907L21.0403 19.8459C19.9725 19.312 18.7287 19.3681 17.7134 19.9956C16.698 20.6231 16.0918 21.7104 16.0918 22.9042V31.3937C16.0918 32.5874 16.698 33.6747 17.7133 34.3022C18.2661 34.6438 18.8864 34.8159 19.509 34.8159ZM17.8497 22.9041C17.8497 22.3154 18.137 21.8003 18.6377 21.4908C18.9097 21.3227 19.2079 21.238 19.5079 21.238C19.7601 21.238 20.0137 21.2978 20.2542 21.418L28.7437 25.6628C29.3187 25.9504 29.6621 26.5058 29.6621 27.1487C29.6621 27.7917 29.3187 28.3472 28.7437 28.6348L20.2543 32.8795C19.7279 33.1429 19.1387 33.1165 18.6377 32.8068C18.137 32.4973 17.8497 31.9822 17.8497 31.3935V22.9041Z" fill="white"/>
<path d="M37.3626 15.0749H10.1508C7.78352 15.0749 5.85742 17.001 5.85742 19.3683V34.9294C5.85742 36.8283 7.12996 38.5239 8.95199 39.053C9.41746 39.188 9.90566 38.9202 10.041 38.454C10.1764 37.9879 9.90824 37.5002 9.44207 37.3649C8.36641 37.0526 7.61524 36.0511 7.61524 34.9295V19.3683C7.61524 17.9701 8.75266 16.8327 10.1508 16.8327H37.3626C38.7607 16.8327 39.8982 17.9702 39.8982 19.3683V34.9294C39.8982 36.3275 38.7607 37.465 37.3626 37.465H13.3028C12.8173 37.465 12.4239 37.8585 12.4239 38.3439C12.4239 38.8293 12.8173 39.2228 13.3028 39.2228H37.3626C39.7299 39.2228 41.656 37.2968 41.656 34.9294V19.3683C41.656 17.001 39.7299 15.0749 37.3626 15.0749Z" fill="white"/>
</svg>
