<svg width="116" height="118" viewBox="0 0 116 118" fill="none" xmlns="http://www.w3.org/2000/svg">
<path d="M54.8421 9.18407C54.2803 10.6326 55.2415 12.2098 56.3178 13.3267C57.394 14.4435 58.7004 15.5062 59.0389 17.0157C59.3232 18.2883 58.8493 19.6082 58.9644 20.9011C59.0795 22.2278 59.797 23.4191 60.2031 24.6849C60.9409 26.9796 60.6431 29.4908 59.9865 31.8058C59.4518 33.7079 58.653 35.5761 57.3331 37.0517C56.0199 38.5273 54.1246 39.5698 52.1481 39.5359C51.5863 39.5224 50.9838 39.4073 50.6183 38.9809C50.3002 38.6153 50.2325 38.1009 50.1783 37.6203C49.0479 27.6768 49.0412 17.5978 50.1716 7.6543" fill="black"/>
<path d="M53.8004 41.2767C58.1054 41.0872 62.0788 45.2095 61.7335 49.501C66.0927 50.5637 69.1658 55.3561 68.3129 59.7559C68.0286 61.2112 67.3856 62.5921 67.2976 64.0677C67.2028 65.6787 67.7714 67.2423 68.0828 68.833C68.6446 71.6963 68.34 74.722 67.2231 77.416C66.5462 79.0541 65.2805 80.7463 63.507 80.7937C62.3021 80.8275 61.192 80.0491 60.5219 79.0473C59.8518 78.0455 59.5539 76.8474 59.3238 75.6696C58.5589 71.8046 58.3288 67.8312 57.2661 64.0406C56.2033 60.2433 54.1456 56.5068 50.7137 54.5777C48.8184 53.5082 46.5441 53.0073 45.0346 51.4369C43.4575 49.792 43.0919 47.1792 43.9177 45.0538C44.7436 42.9284 46.6253 41.3038 48.7643 40.5254" fill="black"/>
<path d="M24.0164 12.7249C23.9622 10.8838 25.6612 9.46908 27.3737 8.79218C29.0863 8.12206 30.9883 7.86484 32.5114 6.83596C33.8651 5.92893 34.7722 4.50746 35.9161 3.34997C38.7185 0.507023 43.1047 -0.670769 46.9562 0.378414C50.8078 1.4276 53.9824 4.66991 54.9571 8.54173C55.6137 11.1613 55.1669 14.2547 53.1024 15.9943C50.7062 18.0115 47.1593 17.5647 44.0862 16.9352C41.0199 16.3057 37.5407 15.6897 34.982 17.4902C33.4387 18.58 32.552 20.3467 31.6043 21.9848C30.6567 23.6229 29.4721 25.2948 27.6851 25.904C25.8981 26.52 23.4748 25.4573 23.4004 23.5687" fill="black"/>
<path d="M31.2665 13.1046C29.6758 13.2738 28.4844 14.6344 28.5183 16.2318L30.3527 57.7795C30.4271 62.6869 37.6022 65.4419 42.8549 65.32C48.1617 65.1982 48.3309 62.5922 48.3986 57.9284C48.5069 50.1306 48.5001 47.1996 48.5001 47.247C48.5001 47.247 55.2014 46.1166 56.5687 37.3712C57.2524 33.0187 57.0154 25.8911 56.6364 20.063C56.2912 14.8171 52.8052 8.38665 47.5728 8.94847L31.2665 13.1046Z" fill="#FFBE9D"/>
<path d="M55.1338 25.5455C55.1541 26.1412 54.6735 26.6421 54.0575 26.6827C53.4415 26.7165 52.9203 26.263 52.9 25.6741C52.8797 25.0852 53.3603 24.5708 53.9763 24.537C54.5923 24.5031 55.1135 24.9499 55.1338 25.5455Z" fill="black"/>
<path d="M55.1063 23.7648C54.9709 23.9137 54.118 23.2842 52.9064 23.291C51.7015 23.2774 50.8148 23.9002 50.6862 23.758C50.6185 23.6903 50.7606 23.4263 51.1464 23.1488C51.5255 22.8713 52.1753 22.5938 52.9267 22.5938C53.678 22.5938 54.3143 22.8713 54.6731 23.1556C55.0453 23.4399 55.174 23.7039 55.1063 23.7648Z" fill="black"/>
<path d="M43.5381 25.5455C43.5584 26.1412 43.0778 26.6421 42.4618 26.6827C41.8458 26.7165 41.3246 26.263 41.3043 25.6741C41.284 25.0852 41.7646 24.5708 42.3806 24.537C42.9966 24.5031 43.511 24.9499 43.5381 25.5455Z" fill="black"/>
<path d="M43.2407 24.0148C43.0986 24.1637 42.2525 23.5342 41.0408 23.5409C39.836 23.5274 38.9492 24.1501 38.8206 24.008C38.7597 23.9403 38.8951 23.6763 39.2809 23.3988C39.66 23.1213 40.3098 22.8438 41.0611 22.8438C41.8125 22.8438 42.4488 23.1213 42.8075 23.4056C43.1798 23.6899 43.3084 23.9539 43.2407 24.0148Z" fill="black"/>
<path d="M47.6404 32.9568C47.6336 32.8891 48.385 32.7537 49.6034 32.598C49.9147 32.5642 50.2058 32.5032 50.2532 32.2934C50.3277 32.07 50.1923 31.7384 50.0434 31.3796C49.7523 30.635 49.4477 29.8566 49.1296 29.0376C47.857 25.7005 46.9364 22.9523 47.0718 22.9049C47.2072 22.8575 48.3511 25.5177 49.6237 28.8616C49.9283 29.6874 50.2261 30.4726 50.5036 31.2239C50.6187 31.5759 50.8218 31.9685 50.6661 32.4356C50.5849 32.6657 50.3547 32.8349 50.1584 32.8891C49.9621 32.95 49.7861 32.9568 49.6372 32.9635C48.4053 33.0245 47.6472 33.0312 47.6404 32.9568Z" fill="black"/>
<path d="M48.507 47.2388C48.507 47.2388 42.6248 47.6314 36.7832 44.1387C36.7832 44.1387 39.6397 50.1427 48.3919 49.3034L48.507 47.2388Z" fill="#EB996E"/>
<path d="M47.1386 35.8671C46.7054 35.2917 45.9405 34.9804 45.1892 35.0616C44.668 35.1157 44.14 35.3729 43.8219 35.7994C43.5037 36.2258 43.436 36.835 43.7271 37.2412C44.052 37.7015 44.7357 37.803 45.311 37.6405C45.8864 37.4781 46.3805 37.0923 46.8543 36.7132C46.9829 36.6117 47.1183 36.4966 47.1996 36.3544C47.2808 36.2123 47.2943 36.0228 47.1996 35.9077" fill="#EB996E"/>
<path d="M44.0867 33.8028C44.283 33.7893 44.2898 35.1025 45.4134 36.0298C46.5371 36.9572 47.9315 36.8082 47.945 36.991C47.9653 37.0722 47.6336 37.2482 47.0447 37.2618C46.4694 37.2821 45.6233 37.0993 44.9328 36.5307C44.2492 35.9621 43.9513 35.204 43.904 34.6625C43.8566 34.121 43.9987 33.7961 44.0867 33.8028Z" fill="black"/>
<path d="M43.775 21.9031C43.66 22.2348 42.4483 22.0791 41.0336 22.2551C39.6122 22.3973 38.475 22.817 38.2855 22.5259C38.2042 22.3837 38.4005 22.0791 38.8608 21.7542C39.3211 21.4361 40.0454 21.1315 40.8983 21.0367C41.7511 20.942 42.5296 21.0773 43.044 21.2804C43.5652 21.4902 43.8292 21.7475 43.775 21.9031Z" fill="black"/>
<path d="M54.6524 20.2722C54.4426 20.5497 53.61 20.2654 52.6082 20.2519C51.6064 20.2045 50.7603 20.4414 50.564 20.1571C50.476 20.015 50.6114 19.7442 50.9837 19.4802C51.3492 19.223 51.9584 19.0064 52.642 19.0267C53.3257 19.047 53.9281 19.2975 54.2734 19.575C54.6321 19.8593 54.7472 20.1368 54.6524 20.2722Z" fill="black"/>
<path d="M25.1604 41.8787C27.5634 42.3661 30.183 41.6215 31.9835 39.9563C33.784 38.2844 34.7114 35.7258 34.4 33.2957C34.1292 31.15 32.9718 28.9636 33.7163 26.9262C34.6978 24.2389 38.4681 23.4131 39.4699 20.7258C40.052 19.169 39.5309 17.3414 40.1874 15.8184C40.8102 14.3833 42.3196 13.5575 43.7885 13.0228C45.2574 12.488 46.8345 12.1225 48.0732 11.1613C49.3052 10.2001 50.0768 8.38608 49.2849 7.03906C42.7596 7.82426 36.3291 9.38111 30.1694 11.6825C28.7412 12.2173 27.2453 12.8536 26.3991 14.1261C25.5056 15.4664 25.5463 17.206 25.6207 18.817C25.9862 26.6689 24.7949 34.0268 25.1604 41.8787Z" fill="black"/>
<path d="M48.4928 1.27869C48.4996 1.26515 48.6214 1.29222 48.8313 1.38022C49.0411 1.46822 49.3322 1.63067 49.6571 1.88112C50.3001 2.37525 51.0582 3.33644 51.2478 4.60223C51.4305 5.87478 50.9905 7.01196 50.5235 7.66855C50.2866 8.00699 50.0564 8.24391 49.8804 8.38605C49.7044 8.53497 49.5961 8.59589 49.5826 8.58235C49.5488 8.54851 49.9549 8.23714 50.3678 7.56701C50.7807 6.91043 51.1665 5.82063 50.9905 4.63607C50.8078 3.45151 50.1241 2.52417 49.5352 2.0165C48.9531 1.49529 48.4725 1.3193 48.4928 1.27869Z" fill="#535354"/>
<path d="M67.8725 61.3053C67.8455 61.2918 68.0282 60.9872 68.123 60.378C68.2245 59.7755 68.1771 58.8482 67.6965 57.8599C67.2295 56.8649 66.2412 55.9173 64.9348 55.2877C64.285 54.9696 63.554 54.7192 62.7891 54.5229C62.0174 54.3266 61.1984 54.1573 60.3793 53.8933C59.5671 53.6294 58.7683 53.2706 58.1727 52.6885C57.5499 52.1199 57.2589 51.3144 57.1303 50.5901C56.9949 49.8523 56.9475 49.1551 56.785 48.5324C56.6294 47.9096 56.3315 47.3816 55.9863 46.9552C55.2891 46.1023 54.4498 45.703 53.8676 45.5134C53.2787 45.3374 52.9268 45.3374 52.9268 45.3104C52.9268 45.3036 53.0148 45.2968 53.1772 45.3036C53.3397 45.3104 53.5833 45.3442 53.8947 45.4187C54.4972 45.5811 55.3771 45.9669 56.1217 46.8401C56.4872 47.2733 56.8121 47.8284 56.9813 48.4782C57.1573 49.1213 57.2115 49.832 57.3536 50.5427C57.489 51.2535 57.7598 51.9777 58.3351 52.5057C58.8902 53.0472 59.6483 53.3924 60.447 53.6497C61.2458 53.9069 62.058 54.0761 62.8365 54.2792C63.6217 54.4822 64.3595 54.7395 65.0296 55.0779C66.3698 55.7345 67.3852 56.7431 67.8522 57.7855C68.3328 58.8211 68.3531 59.7891 68.2177 60.3983C68.1568 60.7097 68.0621 60.9398 67.9944 61.0887C67.9199 61.2309 67.8793 61.3053 67.8725 61.3053Z" fill="#535354"/>
<path d="M29.8242 45.8115C25.3974 44.6269 21.5662 40.288 20.0161 35.9695C18.466 31.6509 18.4592 26.9397 18.8586 22.3707C19.1497 19.0607 19.725 15.5612 21.9249 13.0634C25.2417 9.3067 28.8292 7.38433 33.8382 7.54001" fill="black"/>
<path d="M23.0759 39.4141C23.0759 39.4208 23.0285 39.4005 22.9338 39.3667C22.839 39.3396 22.7036 39.2719 22.5344 39.1704C22.2027 38.9741 21.756 38.5612 21.4446 37.8775C21.1332 37.2074 20.9505 36.2665 21.1603 35.2241C21.3701 34.1817 21.9726 33.1054 22.751 32.0495C23.5159 30.98 24.4906 29.897 25.154 28.5161C25.4789 27.8324 25.7226 27.0675 25.7361 26.262C25.7496 25.4565 25.4924 24.651 25.2217 23.832C24.9441 23.013 24.6734 22.1262 24.7072 21.1854C24.7478 20.258 25.0118 19.3171 25.5059 18.4846C25.9933 17.652 26.6837 16.9142 27.5502 16.4065C28.4098 15.8718 29.4387 15.689 30.4337 15.5875C31.4288 15.4724 32.4238 15.4182 33.3173 15.0866C34.2175 14.7684 34.9147 14.078 35.348 13.259C35.7879 12.4399 36.0384 11.5464 36.3091 10.68C36.5731 9.8068 36.8845 8.95392 37.2974 8.18226C38.1029 6.62541 39.2401 5.32578 40.5736 4.49997C41.907 3.67416 43.3962 3.33571 44.7229 3.42371C46.0564 3.5117 47.2139 4.03968 47.9923 4.76395C48.7707 5.48146 49.231 6.3005 49.4544 7.00447C49.6845 7.7152 49.6913 8.3041 49.6575 8.68993C49.6236 9.07576 49.5559 9.27206 49.5559 9.27206C49.5424 9.27206 49.5898 9.06899 49.6101 8.68316C49.6304 8.3041 49.6033 7.72197 49.3664 7.03831C49.1362 6.35465 48.6692 5.55592 47.9043 4.87226C47.1462 4.18183 46.0158 3.68093 44.7229 3.60647C43.43 3.53201 41.9883 3.87046 40.6954 4.68273C39.4025 5.495 38.2992 6.76755 37.514 8.29733C37.1146 9.06222 36.81 9.88803 36.5528 10.7612C36.2888 11.6276 36.0384 12.5347 35.5781 13.3876C35.348 13.814 35.0569 14.2134 34.6914 14.5586C34.3258 14.897 33.8859 15.161 33.4188 15.337C32.4712 15.689 31.4626 15.7431 30.4743 15.8582C29.4861 15.9598 28.5113 16.1425 27.6923 16.6434C26.8665 17.124 26.2031 17.828 25.7361 18.6267C25.2623 19.4254 25.005 20.3189 24.9644 21.2057C24.9306 22.0992 25.181 22.9453 25.4586 23.7711C25.7293 24.5901 25.9933 25.4295 25.973 26.2824C25.9595 27.1285 25.7022 27.9272 25.357 28.6244C24.6666 30.0391 23.6783 31.1154 22.9134 32.1713C22.135 33.2137 21.5326 34.2561 21.316 35.2715C21.0994 36.28 21.2618 37.2006 21.5529 37.8572C21.844 38.5273 22.2636 38.9335 22.5818 39.1433C22.8796 39.3464 23.0827 39.3938 23.0759 39.4141Z" fill="#535354"/>
<path d="M55.695 55.4567L51.566 54.421C52.5339 53.6494 52.8047 52.6611 52.385 51.5375C51.8909 50.2243 50.6251 49.3579 49.2307 49.1954L30.3928 47.07C29.7159 46.9955 29.0593 47.3678 28.8156 47.9973C27.9763 50.116 27.9492 51.8691 28.7276 53.2432H28.6396L25.0115 53.9675L18.8721 108.241L59.1675 106.359L55.695 55.4567Z" fill="white"/>
<path d="M49.765 54.6308C49.765 54.6511 49.501 54.6985 49.0068 54.7729C48.5195 54.8542 47.8087 54.9422 46.922 55.0234C45.1553 55.1926 42.705 55.3077 40.0042 55.1723C37.2966 55.0369 34.8666 54.685 33.1337 54.3397C32.2673 54.1705 31.5633 54.0081 31.0895 53.8794C30.6089 53.7576 30.3449 53.6764 30.3517 53.6628C30.3585 53.6425 30.6292 53.6899 31.1098 53.7847C31.5972 53.8794 32.2944 54.0148 33.1676 54.1637C34.9072 54.4616 37.3305 54.7865 40.0177 54.9219C42.705 55.0505 45.1486 54.976 46.9085 54.8474C47.7884 54.7865 48.4992 54.7256 48.9933 54.6782C49.4942 54.6308 49.765 54.6105 49.765 54.6308Z" fill="#ED1164"/>
<path d="M31.5499 63.2541C31.489 63.2135 32.1253 62.1643 32.9579 60.9121C33.7972 59.653 34.5215 58.6715 34.5824 58.7122C34.6433 58.7528 34.0071 59.8019 33.1745 61.0542C32.3351 62.3065 31.6109 63.2947 31.5499 63.2541Z" fill="#F798BC"/>
<path d="M44.5398 64.1751C44.4856 64.2225 43.6801 63.3154 42.7528 62.1579C41.8187 61.0004 41.1079 60.019 41.1621 59.9783C41.2162 59.931 42.0217 60.838 42.9491 62.0022C43.8832 63.153 44.5939 64.1277 44.5398 64.1751Z" fill="#F798BC"/>
<path d="M38.5086 71.0721C38.4409 71.0857 38.1634 69.874 37.8994 68.3713C37.6354 66.8686 37.473 65.6367 37.5474 65.6232C37.6151 65.6096 37.8926 66.8213 38.1566 68.324C38.4206 69.8267 38.5763 71.0586 38.5086 71.0721Z" fill="#F798BC"/>
<path d="M48.4252 71.4997C48.4726 71.547 47.4504 72.6368 46.1373 73.9365C44.8241 75.2293 43.7208 76.2379 43.6666 76.1837C43.6192 76.1364 44.6413 75.0466 45.9545 73.7469C47.2677 72.4541 48.371 71.4523 48.4252 71.4997Z" fill="#F798BC"/>
<path d="M35.1246 80.7461C35.0908 80.8002 33.8656 80.0556 32.6607 78.7763C31.4491 77.5038 30.779 76.2312 30.8331 76.2041C30.9008 76.1635 31.6589 77.3481 32.8503 78.6003C34.0281 79.8594 35.172 80.6852 35.1246 80.7461Z" fill="#F798BC"/>
<path d="M39.3952 87.8875C39.4155 87.962 38.2648 88.3275 36.9584 89.018C35.652 89.7016 34.6976 90.4462 34.6502 90.3853C34.6028 90.3379 35.5031 89.4918 36.8366 88.7878C38.1768 88.0838 39.3817 87.8266 39.3952 87.8875Z" fill="#F798BC"/>
<path d="M46.3471 88.3545C46.3201 88.3748 46.0155 88.0566 45.562 87.5084C45.1084 86.9601 44.4992 86.1816 43.863 85.3017C43.2334 84.415 42.6919 83.5892 42.3264 82.98C41.9541 82.3708 41.7511 81.9782 41.7849 81.9579C41.8187 81.9375 42.076 82.2963 42.4821 82.8784C42.9492 83.5418 43.4839 84.3067 44.0796 85.146C44.6888 85.9786 45.237 86.7367 45.7109 87.3933C46.1238 87.9687 46.3742 88.3274 46.3471 88.3545Z" fill="#F798BC"/>
<path d="M47.0449 94.4394C47.0585 94.5071 45.7385 94.8591 44.0666 95.1299C42.4015 95.4074 41.0341 95.4954 41.0274 95.4277C41.0206 95.3532 42.3676 95.1502 44.026 94.8726C45.6844 94.6087 47.0246 94.3717 47.0449 94.4394Z" fill="#F798BC"/>
<path d="M35.7945 53.8605C35.7607 53.8334 35.9976 53.5627 36.2007 53.0414C36.4105 52.527 36.5391 51.7418 36.4173 50.8957C36.2954 50.0496 35.9976 49.3118 35.781 48.7838C35.5576 48.2558 35.4155 47.9309 35.4493 47.9106C35.4764 47.8971 35.6794 48.1881 35.9502 48.7026C36.2142 49.217 36.5459 49.9616 36.6812 50.8551C36.8099 51.7486 36.6406 52.5812 36.3766 53.1091C36.1059 53.6506 35.8081 53.8808 35.7945 53.8605Z" fill="#F798BC"/>
<path d="M43.3211 49.7981C43.3753 49.7642 43.8356 50.4411 44.0657 51.4159C44.2959 52.3906 44.1876 53.2029 44.1199 53.1961C44.0454 53.1961 44.0387 52.4041 43.8153 51.47C43.5987 50.5427 43.2535 49.8319 43.3211 49.7981Z" fill="#F798BC"/>
<path d="M77.2673 88.4683L96.0173 55.5442L98.2781 49.8313C98.2781 49.8313 104.12 37.2682 104.526 35.9888C105 34.5132 105.825 34.3846 106.353 34.5944C107.186 34.9261 107.45 36.1581 107.084 37.4374C106.956 37.8774 104.688 44.7817 104.688 44.7817C104.688 44.7817 105.189 44.3078 106.624 43.3399C108.066 42.3719 110.699 42.4058 113.143 43.2722C115.586 44.1386 116.189 44.5989 115.898 45.5669C115.782 45.9527 115.464 46.1964 115.112 46.3453C114.544 46.589 113.894 46.5822 113.305 46.3859C109.379 45.0456 107.639 46.8191 107.639 46.8191L107.342 47.5637C107.342 47.5637 110.293 46.616 111.972 47.9563C112.242 48.1729 112.439 48.4166 112.581 48.6738C113.63 49.019 114.476 49.926 114.733 50.9955C115.004 52.1124 114.625 53.3579 113.786 54.1431C113.386 54.5154 112.777 54.7861 112.296 54.5221C112.046 54.38 111.884 54.1228 111.735 53.8723C111.653 53.7437 111.565 53.6151 111.464 53.5L110.34 55.4766C110.34 55.4766 107.585 59.7816 106.597 61.792L93.6955 96.1781C91.9085 100.943 86.5543 103.319 81.8228 101.444C76.6852 99.4069 74.5327 93.281 77.2673 88.4683Z" fill="#FFBE9D"/>
<path d="M97.3105 55.4298C97.9739 55.863 98.8877 55.5652 99.4834 55.0507C100.079 54.5363 100.485 53.8323 101.04 53.2705C102.712 51.5986 105.508 51.4429 107.092 49.6965C107.315 49.4528 107.511 49.0805 107.322 48.8165C107.146 48.5661 106.774 48.5999 106.476 48.6609C103.917 49.1685 101.365 49.6762 98.8065 50.1771" fill="#FFBE9D"/>
<path d="M98.7992 50.1844C98.7924 50.1573 99.0835 50.0694 99.6115 49.934C100.139 49.7986 100.911 49.6226 101.859 49.4195C102.847 49.2097 103.977 48.9728 105.203 48.7088C105.521 48.6411 105.839 48.5802 106.171 48.5125C106.482 48.4719 106.875 48.2824 107.342 48.5531C107.572 48.702 107.653 49.0202 107.592 49.2503C107.538 49.4805 107.423 49.6564 107.294 49.8121C107.03 50.0964 106.753 50.3536 106.428 50.577C105.148 51.457 103.747 51.8225 102.637 52.4114C102.075 52.6957 101.574 53.0206 101.182 53.4064C100.789 53.7855 100.478 54.2255 100.146 54.5978C99.5235 55.3762 98.6909 55.762 98.1156 55.7417C97.5267 55.7282 97.2897 55.4506 97.3033 55.4506C97.3236 55.41 97.5808 55.6131 98.102 55.5725C98.6232 55.5319 99.3272 55.1731 99.9025 54.4015C100.207 54.0292 100.498 53.5824 100.918 53.156C101.338 52.7295 101.866 52.364 102.448 52.0594C103.598 51.4367 104.993 51.0508 106.171 50.225C106.462 50.022 106.726 49.7783 106.956 49.5414C107.172 49.2977 107.247 49.0066 107.091 48.9254C106.935 48.8103 106.583 48.878 106.259 48.9457C105.927 49.0066 105.602 49.0676 105.291 49.1285C104.052 49.3586 102.921 49.5617 101.926 49.7444C100.965 49.9137 100.187 50.0423 99.6521 50.1235C99.1106 50.1844 98.806 50.2115 98.7992 50.1844Z" fill="#EB996E"/>
<path d="M107.247 47.5713C107.302 47.5984 107.403 46.9621 108.127 46.3868C108.486 46.1092 109.007 45.9129 109.61 45.8994C110.212 45.8791 110.876 46.028 111.566 46.2311C112.256 46.4341 112.926 46.6372 113.576 46.6846C114.219 46.732 114.815 46.6507 115.262 46.4274C115.722 46.204 115.939 45.7979 115.979 45.5271C116.027 45.2563 115.979 45.1074 115.973 45.1074C115.945 45.1074 115.945 45.2563 115.871 45.5C115.796 45.7437 115.593 46.0686 115.174 46.2446C114.768 46.4274 114.206 46.4815 113.603 46.4274C112.994 46.3664 112.344 46.1634 111.654 45.9603C110.957 45.7572 110.26 45.6083 109.61 45.6422C108.96 45.6692 108.378 45.9062 108.012 46.2378C107.633 46.5627 107.437 46.9215 107.342 47.1719C107.234 47.4156 107.234 47.5645 107.247 47.5713Z" fill="#EB996E"/>
<path d="M107.22 36.9434C107.179 36.9367 107.017 37.4579 106.76 38.3107C106.469 39.2584 106.117 40.3888 105.738 41.6343C105.331 42.873 104.966 43.9966 104.661 44.9443C104.384 45.7904 104.215 46.3116 104.248 46.3319C104.282 46.3455 104.519 45.8446 104.851 45.0187C105.183 44.1862 105.595 43.0287 106.008 41.7291C106.421 40.4294 106.746 39.2449 106.956 38.3717C107.166 37.4985 107.261 36.9502 107.22 36.9434Z" fill="#EB996E"/>
<path d="M108.31 49.6298C108.317 49.6501 108.479 49.6298 108.763 49.6027C109.034 49.5824 109.494 49.5621 109.84 49.8938C110.009 50.0562 110.07 50.3067 110.016 50.5842C109.968 50.8617 109.812 51.1392 109.664 51.4574C109.515 51.7688 109.359 52.1681 109.481 52.5946C109.603 53.0075 109.948 53.3391 110.361 53.4813C110.787 53.6302 111.241 53.549 111.593 53.3594C111.951 53.1699 112.236 52.8992 112.412 52.5607C112.73 51.9177 112.865 51.3017 112.953 50.7805C113.034 50.2593 113.028 49.8193 112.967 49.5282C112.906 49.2372 112.804 49.095 112.791 49.1018C112.764 49.1153 112.825 49.2642 112.852 49.5418C112.879 49.8261 112.852 50.239 112.75 50.7399C112.642 51.234 112.479 51.8432 112.175 52.4253C111.877 52.9601 111.132 53.4339 110.449 53.197C110.117 53.0819 109.84 52.8112 109.745 52.5066C109.65 52.1952 109.758 51.8635 109.9 51.5589C110.036 51.2543 110.198 50.9429 110.246 50.618C110.313 50.2931 110.205 49.9276 109.975 49.7448C109.521 49.359 109.014 49.4402 108.736 49.4944C108.452 49.5553 108.303 49.6162 108.31 49.6298Z" fill="#EB996E"/>
<path d="M111.545 53.1094C111.532 53.1026 111.451 53.238 111.457 53.5156C111.471 53.7795 111.606 54.1992 112.033 54.4835C112.452 54.761 113.116 54.8084 113.698 54.5038C114.28 54.1992 114.734 53.5968 114.957 52.8996C115.18 52.1956 115.16 51.4646 114.957 50.8621C114.761 50.2529 114.395 49.7926 114.043 49.4745C113.684 49.1564 113.332 48.9871 113.089 48.8991C112.838 48.8112 112.696 48.7976 112.689 48.8111C112.669 48.8653 113.258 48.9939 113.901 49.6234C114.219 49.9348 114.537 50.3815 114.707 50.9366C114.876 51.4916 114.889 52.1618 114.686 52.8048C114.483 53.4411 114.077 53.9894 113.576 54.2601C113.082 54.5377 112.507 54.5173 112.141 54.3007C111.769 54.0841 111.613 53.7322 111.573 53.4952C111.525 53.2583 111.566 53.1162 111.545 53.1094Z" fill="#EB996E"/>
<path d="M105.298 56.2087C105.304 56.1816 105.074 56.053 104.634 56.0056C104.201 55.9582 103.544 56.0192 102.915 56.4185L103.125 56.5607C103.186 56.2628 103.24 55.9312 103.267 55.5927C103.436 53.6839 102.827 52.2083 102.766 52.2489C102.678 52.2692 103.145 53.7313 102.983 55.5656C102.956 55.8973 102.908 56.2155 102.854 56.5065L102.793 56.8314L103.064 56.6487C103.619 56.2764 104.215 56.1816 104.621 56.1816C105.04 56.1748 105.291 56.2425 105.298 56.2087Z" fill="#EB996E"/>
<path d="M109.204 44.4718C109.129 44.4854 109.238 45.0675 109.759 45.521C110.28 45.9813 110.869 46.0084 110.869 45.9339C110.889 45.8527 110.395 45.7038 109.948 45.3044C109.488 44.9118 109.278 44.4448 109.204 44.4718Z" fill="#EB996E"/>
<path d="M50.6729 115.789L70.2824 115.978L66.986 101.75L68.0893 104.437C70.1741 109.507 75.1087 112.817 80.5915 112.817C86.7918 112.817 91.0765 108.201 93.7029 102.583C99.8355 89.4441 105.745 68.2913 105.745 68.2913L93.7841 57.7859C85.1334 74.1531 76.9972 88.3679 76.9972 88.3679C76.9972 88.3679 74.6484 81.2267 72.8343 74.8639C71.0202 68.5011 71.0338 65.1505 68.245 61.9691C63.9602 57.0887 57.8547 55.8703 52.1823 54.4082L51.9725 80.8408L50.6729 115.789Z" fill="#ED1164"/>
<path d="M28.2404 96.5697L63.9465 103.528L65.6861 117.249H10.9323C4.58302 117.337 -0.466597 111.942 0.0343034 105.613C0.819498 95.6153 1.67915 83.2959 2.32897 78.0906C2.83664 74.0292 4.45441 69.8325 6.37678 66.2179C9.1385 61.0126 18.351 54.3317 26.4263 54L27.9561 88.0138" fill="#ED1164"/>
<path d="M21.4445 95.11C21.4377 95.11 21.4309 94.9949 21.4309 94.7851C21.4309 94.5414 21.4309 94.2368 21.4377 93.8509C21.4445 93.0048 21.4512 91.8406 21.458 90.4123C21.4648 87.5085 21.4106 83.4945 21.1805 79.0676C21.0722 76.8542 20.9233 74.749 20.7744 72.8334C20.6322 70.9178 20.463 69.1985 20.0569 67.8109C19.671 66.4165 19.0415 65.4079 18.4797 64.8258C17.9246 64.2437 17.5185 64.0271 17.5388 64C17.5388 64 17.9653 64.1828 18.5542 64.7581C19.143 65.3267 19.8132 66.3556 20.2328 67.7635C20.6661 69.1647 20.8556 70.9111 21.0113 72.8199C21.1805 74.7355 21.3294 76.8406 21.4445 79.0608C21.6679 83.4945 21.6949 87.5085 21.6476 90.4191C21.6205 91.8744 21.5799 93.0454 21.546 93.8577C21.5257 94.2435 21.5054 94.5549 21.4919 94.7918C21.4648 94.9949 21.4513 95.11 21.4445 95.11Z" fill="black"/>
<path d="M63.263 104.025C63.2359 104.059 62.9042 103.51 61.9633 102.969C61.4963 102.698 60.8803 102.448 60.1425 102.238C59.4047 102.028 58.5382 101.865 57.5838 101.669C53.7662 100.891 48.4999 99.8077 42.6584 98.7179C36.8168 97.6281 31.5099 96.7481 27.6652 96.1321C25.7631 95.8275 24.213 95.5771 23.1097 95.4011C22.5885 95.3131 22.1756 95.2454 21.871 95.1912C21.5867 95.1439 21.4378 95.11 21.4446 95.1033C21.4446 95.0965 21.5935 95.11 21.8778 95.1439C22.1824 95.1845 22.602 95.2386 23.1232 95.3063C24.1995 95.4485 25.7631 95.6718 27.6923 95.9561C31.5438 96.5247 36.8574 97.3776 42.7057 98.4742C48.5473 99.564 53.8135 100.674 57.6177 101.5C58.5653 101.71 59.4317 101.886 60.1763 102.109C60.9209 102.332 61.5436 102.603 62.0107 102.888C62.4845 103.172 62.7959 103.463 62.9922 103.679C63.0937 103.781 63.1547 103.876 63.202 103.93C63.2426 103.991 63.263 104.025 63.263 104.025Z" fill="black"/>
<path d="M21.5523 95.1102C21.5658 95.1576 20.8957 95.3133 19.8736 95.7262C19.3659 95.9292 18.777 96.2203 18.1475 96.579C17.5248 96.9513 16.8614 97.3981 16.2184 97.9328C15.5821 98.4743 15.027 99.0497 14.5532 99.598C14.0929 100.153 13.7071 100.688 13.416 101.155C12.8339 102.089 12.5632 102.718 12.5225 102.698C12.509 102.691 12.5632 102.529 12.6782 102.238C12.7865 101.947 12.9896 101.541 13.2604 101.053C13.5311 100.566 13.9102 100.018 14.3705 99.4423C14.8443 98.8737 15.4061 98.2848 16.0559 97.7298C16.7125 97.1815 17.3894 96.7347 18.0324 96.3692C18.6823 96.0104 19.2847 95.7397 19.8127 95.5502C20.3339 95.3606 20.7739 95.2388 21.0785 95.1779C21.3763 95.117 21.5455 95.0899 21.5523 95.1102Z" fill="black"/>
<path d="M67.6629 103.658C67.6562 103.658 67.6291 103.543 67.5885 103.32C67.5479 103.07 67.4937 102.745 67.426 102.339C67.2906 101.486 67.1079 100.247 66.898 98.7172C66.4784 95.6509 65.9775 91.4135 65.551 86.7159C65.1314 82.0183 64.8674 77.7538 64.732 74.6604C64.6643 73.1171 64.6237 71.8649 64.6034 70.9984C64.5966 70.5855 64.5898 70.2539 64.5898 70.0034C64.5898 69.7733 64.5898 69.6582 64.6034 69.6582C64.6102 69.6582 64.6237 69.78 64.644 70.0034C64.6575 70.2539 64.6846 70.5855 64.7049 70.9984C64.7591 71.8919 64.8268 73.1307 64.9148 74.6537C65.0975 77.7403 65.3818 81.9979 65.8083 86.6956C66.2347 91.3932 66.7085 95.6306 67.0808 98.6969C67.2636 100.206 67.4193 101.445 67.5276 102.332C67.5749 102.738 67.6156 103.07 67.6426 103.32C67.6629 103.537 67.6765 103.658 67.6629 103.658Z" fill="black"/>
<path d="M79.5017 98.3385C79.4882 98.352 79.3867 98.2302 79.2174 98.0136C79.0414 97.7969 78.8181 97.4585 78.5609 97.0321C78.0464 96.1792 77.4643 94.9066 77.1123 93.4175C76.7671 91.9283 76.7197 90.5271 76.8009 89.5321C76.8416 89.0312 76.8957 88.6318 76.9566 88.3611C77.0108 88.0903 77.0514 87.9414 77.0717 87.9414C77.1191 87.9482 77.0175 88.5574 76.9837 89.5389C76.9499 90.5204 77.0243 91.8877 77.3628 93.3565C77.708 94.8186 78.2495 96.0777 78.7165 96.9441C79.1836 97.8105 79.5423 98.3114 79.5017 98.3385Z" fill="black"/>
<path d="M21.3018 76.732C21.3018 76.7388 21.2409 76.7523 21.119 76.7726C20.9972 76.7862 20.8145 76.82 20.5843 76.8268C20.1173 76.8539 19.4268 76.8268 18.601 76.6711C17.7752 76.5222 16.814 76.2108 15.7851 75.7911C14.763 75.3647 13.6732 74.8232 12.5361 74.2546C11.3989 73.6928 10.2888 73.2122 9.24637 72.8737C8.20395 72.542 7.22923 72.3525 6.40342 72.3187C4.73827 72.2374 3.76354 72.6842 3.75 72.6165C3.75 72.6097 3.80415 72.5827 3.91922 72.5353C4.03429 72.4947 4.20352 72.4134 4.43366 72.3661C4.88718 72.2307 5.56407 72.1224 6.41019 72.1359C7.2563 72.1494 8.25134 72.3254 9.31406 72.6436C10.3768 72.9685 11.5004 73.4491 12.6511 74.0177C13.7951 74.5863 14.8713 75.1345 15.8799 75.5678C16.8885 76.001 17.8294 76.3191 18.6349 76.4883C20.2526 76.8471 21.3018 76.6711 21.3018 76.732Z" fill="#ED1164"/>
<path d="M27.4147 75.527C27.4283 75.5947 26.1219 75.879 24.5041 76.1565C22.8863 76.4341 21.5596 76.5965 21.5528 76.5288C21.5393 76.4611 22.8457 76.1768 24.4635 75.8993C26.0812 75.6218 27.4012 75.4593 27.4147 75.527Z" fill="#ED1164"/>
<path d="M21.0792 86.1476C21.0859 86.1611 20.8287 86.2762 20.3617 86.459C19.8946 86.6417 19.2042 86.8854 18.3513 87.163C16.6388 87.718 14.229 88.3746 11.5147 88.8552C10.1609 89.0921 8.86126 89.2681 7.66993 89.3832C6.48537 89.5118 5.40234 89.5659 4.49531 89.4712C3.58827 89.3832 2.87754 89.1259 2.43079 88.8823C2.20742 88.7604 2.04496 88.6521 1.94343 88.5641C1.84189 88.4829 1.78774 88.4355 1.79451 88.4287C1.80805 88.4084 2.03143 88.5844 2.47817 88.7943C2.92492 89.0041 3.62212 89.2275 4.50885 89.2884C5.39558 89.3628 6.46507 89.2884 7.64286 89.1462C8.82066 89.0176 10.1135 88.8349 11.4673 88.598C14.1681 88.1241 16.5711 87.5014 18.2904 86.987C19.15 86.7297 19.8472 86.5131 20.321 86.3575C20.8084 86.2085 21.0724 86.1273 21.0792 86.1476Z" fill="#ED1164"/>
<path d="M27.2728 88.746C27.2728 88.8204 26.0679 88.8949 24.5787 88.922C23.0896 88.949 21.8847 88.9084 21.8779 88.8407C21.8779 88.773 23.0828 88.6918 24.572 88.6647C26.0679 88.6377 27.2728 88.6783 27.2728 88.746Z" fill="#ED1164"/>
<path d="M1.82097 111.281C1.8142 111.281 1.82774 111.186 1.87512 111.017C1.92927 110.821 1.99696 110.577 2.07142 110.273C2.1188 110.11 2.16619 109.927 2.22034 109.738C2.28126 109.542 2.36925 109.339 2.45048 109.115C2.62647 108.675 2.78893 108.154 3.05968 107.626C3.18829 107.355 3.32367 107.071 3.46582 106.78C3.60797 106.489 3.79073 106.198 3.95995 105.893C4.29163 105.27 4.73161 104.661 5.17836 104.005C6.11924 102.732 7.27672 101.426 8.64404 100.214C10.0317 99.0227 11.4938 98.0615 12.8814 97.3034C13.5921 96.9514 14.2555 96.5994 14.9188 96.3625C15.2437 96.2339 15.5551 96.0918 15.8665 95.9902C16.1779 95.8955 16.4757 95.8007 16.76 95.7059C17.3218 95.5096 17.8633 95.4149 18.3236 95.3066C18.5537 95.2592 18.7703 95.205 18.9666 95.1644C19.1629 95.1373 19.3457 95.1103 19.5149 95.09C19.8195 95.0493 20.0768 95.0223 20.2798 94.9952C20.4558 94.9749 20.5438 94.9681 20.5506 94.9817C20.5506 94.9884 20.4626 95.0155 20.2866 95.0493C20.0835 95.09 19.8398 95.1306 19.5352 95.1915C19.366 95.2186 19.19 95.2524 18.9937 95.2863C18.7974 95.3269 18.5876 95.3878 18.3575 95.4419C17.9039 95.5638 17.376 95.6653 16.8209 95.8752C16.5366 95.9699 16.2455 96.0647 15.9409 96.173C15.6363 96.2745 15.3317 96.4234 15.0068 96.552C14.357 96.8025 13.7004 97.1545 13.0032 97.5065C11.6359 98.2646 10.1941 99.2258 8.82681 100.404C7.47302 101.602 6.3223 102.888 5.38142 104.14C4.93467 104.783 4.49469 105.385 4.15625 105.995C3.98025 106.299 3.7975 106.577 3.64858 106.868C3.50643 107.159 3.36429 107.436 3.23568 107.7C2.95138 108.222 2.77539 108.729 2.59263 109.163C2.50463 109.379 2.41663 109.582 2.34895 109.772C2.28802 109.961 2.23387 110.137 2.17972 110.3C2.07819 110.591 2.00373 110.834 1.93604 111.024C1.86835 111.2 1.83451 111.281 1.82097 111.281Z" fill="#ED1164"/>
<path d="M26.6296 96.0906C26.6838 96.1312 25.5466 96.8284 24.599 98.6425C24.1251 99.536 23.719 100.687 23.4618 102C23.1978 103.313 23.0963 104.795 22.9947 106.345C22.8932 107.902 22.7781 109.392 22.4871 110.725C22.2028 112.058 21.756 113.216 21.2483 114.109C20.7339 115.003 20.1721 115.639 19.7389 116.018C19.5223 116.208 19.3463 116.343 19.2177 116.424C19.0958 116.512 19.0281 116.553 19.0214 116.546C18.9672 116.506 20.1179 115.822 21.0859 114.021C21.5665 113.135 21.9862 111.991 22.2502 110.678C22.5209 109.364 22.6292 107.882 22.7307 106.332C22.8323 104.775 22.9406 103.286 23.2249 101.952C23.5024 100.619 23.9356 99.4547 24.4365 98.5545C24.9374 97.6542 25.4925 97.0112 25.9189 96.6253C26.1355 96.4358 26.3047 96.2936 26.4333 96.2056C26.5552 96.1244 26.6229 96.0838 26.6296 96.0906Z" fill="#ED1164"/>
<path d="M35.0706 116.858C34.9962 116.858 35.0842 112.593 35.2534 107.34C35.4226 102.088 35.6257 97.8301 35.6934 97.8301C35.7611 97.8301 35.6798 102.094 35.5106 107.347C35.3414 112.6 35.1383 116.858 35.0706 116.858Z" fill="#ED1164"/>
<path d="M48.4931 116.127C48.4728 116.134 48.3984 115.911 48.2765 115.511C48.2088 115.308 48.1412 115.065 48.0735 114.767C48.0058 114.476 47.9178 114.144 47.8636 113.772C47.7215 113.027 47.6335 112.134 47.5996 111.132C47.5861 110.13 47.6403 109.027 47.8095 107.89C47.9922 106.746 48.2698 105.683 48.5811 104.729C48.9128 103.781 49.2716 102.955 49.6235 102.285C49.786 101.947 49.9688 101.655 50.1177 101.398C50.2666 101.134 50.4087 100.924 50.5306 100.748C50.7743 100.403 50.9096 100.214 50.9232 100.227C50.9638 100.254 50.4358 101.019 49.7792 102.366C49.4476 103.036 49.1159 103.862 48.7977 104.803C48.4999 105.744 48.2292 106.8 48.0532 107.924C47.8839 109.054 47.823 110.137 47.8298 111.125C47.8501 112.113 47.9178 113 48.0329 113.738C48.263 115.22 48.5405 116.114 48.4931 116.127Z" fill="#ED1164"/>
<path d="M25.6953 61.4617C25.675 61.5023 24.9101 61.1571 23.6308 60.7442C22.3515 60.3313 20.5374 59.8846 18.4864 59.7018C16.4354 59.5258 14.574 59.6409 13.2405 59.8304C11.907 60.0132 11.0948 60.2162 11.0812 60.1756C11.0744 60.1553 11.2775 60.0944 11.643 59.9929C12.0086 59.8846 12.5433 59.7695 13.2134 59.6544C14.5537 59.4243 16.4354 59.2686 18.5135 59.4514C20.5848 59.6341 22.4192 60.1147 23.6917 60.5818C24.328 60.8119 24.8357 61.0217 25.1809 61.191C25.5193 61.3467 25.7021 61.4482 25.6953 61.4617Z" fill="#ED1164"/>
<path d="M64.7658 82.2549C64.7658 82.2887 64.0618 82.2684 62.9314 82.2278C61.801 82.1872 60.2374 82.1263 58.5113 82.0789C56.7852 82.0383 55.2216 82.018 54.0912 82.0044C52.9608 81.9909 52.2568 81.9774 52.2568 81.9435C52.2568 81.9232 52.4328 81.9029 52.751 81.8826C53.0691 81.8623 53.5226 81.842 54.0912 81.8217C55.2216 81.7878 56.792 81.7743 58.5181 81.8217C60.2509 81.8623 61.8146 81.9571 62.945 82.0451C63.5068 82.0924 63.9671 82.1331 64.2784 82.1737C64.5966 82.2075 64.7658 82.2414 64.7658 82.2549Z" fill="#ED1164"/>
<path d="M74.5334 80.4069C74.5469 80.4475 73.9106 80.6641 72.9494 81.1379C71.9883 81.6117 70.7089 82.3834 69.4838 83.4732C68.2654 84.563 67.3448 85.7475 66.7694 86.6478C66.1873 87.5481 65.903 88.1573 65.8624 88.137C65.8488 88.1302 65.903 87.9745 66.0248 87.6902C66.1399 87.4127 66.343 87.0201 66.6137 86.5463C67.162 85.6054 68.0691 84.387 69.3145 83.2769C70.56 82.1668 71.88 81.4087 72.875 80.9687C73.3691 80.7521 73.782 80.5964 74.0799 80.5152C74.3641 80.4339 74.5266 80.3933 74.5334 80.4069Z" fill="#ED1164"/>
<path d="M69.7132 64.5536C69.7132 64.6146 68.7047 64.3979 67.202 64.9056C66.4506 65.1425 65.5977 65.5487 64.6636 66.036C63.7295 66.5098 62.7006 67.0717 61.5296 67.444C59.1876 68.2088 56.8997 68.1479 55.3293 67.8501C54.5441 67.7012 53.9213 67.5049 53.5017 67.356C53.082 67.1935 52.8586 67.092 52.8654 67.0784C52.8789 67.0311 53.7927 67.4237 55.3563 67.6741C56.9064 67.9246 59.1469 67.9516 61.4416 67.207C62.5856 66.8415 63.6077 66.3 64.5485 65.833C65.4894 65.3591 66.3626 64.9665 67.1343 64.7432C67.9059 64.513 68.5625 64.4521 69.016 64.4724C69.2394 64.4724 69.4154 64.5062 69.5305 64.5198C69.6591 64.5266 69.72 64.5401 69.7132 64.5536Z" fill="#ED1164"/>
<path d="M67.25 97.7014C67.2568 97.715 67.0537 97.8097 66.6746 97.9722C66.4851 98.0534 66.255 98.1482 65.9774 98.2362C65.6999 98.3242 65.3885 98.446 65.0365 98.534C64.3326 98.7371 63.4797 98.9198 62.5185 99.0552C61.5573 99.177 60.4878 99.2515 59.371 99.2244C58.2541 99.1838 57.1914 99.0484 56.237 98.8724C55.2893 98.6761 54.4432 98.446 53.7528 98.1955C53.4008 98.0872 53.1029 97.9519 52.8322 97.8436C52.5614 97.7353 52.3381 97.6337 52.1553 97.539C51.7898 97.3562 51.5867 97.2547 51.6002 97.2344C51.6206 97.187 52.4328 97.5796 53.8205 98.0196C54.5109 98.2429 55.3502 98.4528 56.2911 98.6355C57.232 98.798 58.2812 98.9266 59.3845 98.9672C60.4878 98.9943 61.5438 98.9334 62.4914 98.8251C63.4391 98.7032 64.292 98.5408 64.9959 98.358C66.3971 97.9992 67.2297 97.654 67.25 97.7014Z" fill="#ED1164"/>
<path d="M78.614 112.336C78.6072 112.343 78.5395 112.289 78.4244 112.18C78.3094 112.065 78.1198 111.916 77.9168 111.679C77.4903 111.233 76.9217 110.536 76.3532 109.581C75.1957 107.693 74.2142 104.687 74.1465 101.296C74.0856 97.9047 74.7489 94.8926 75.2701 92.7536C75.5341 91.6841 75.7778 90.8244 75.947 90.2355C76.0282 89.9648 76.0959 89.7414 76.1569 89.5587C76.2042 89.403 76.2381 89.3217 76.2448 89.3285C76.2516 89.3285 76.2381 89.4165 76.2042 89.5722C76.1636 89.7617 76.1095 89.9851 76.0418 90.2626C75.8929 90.8989 75.6898 91.7586 75.4461 92.801C74.9723 94.9399 74.3428 97.9386 74.4037 101.289C74.4646 104.64 75.4055 107.598 76.5088 109.486C77.0503 110.434 77.5851 111.152 77.9912 111.612C78.3838 112.079 78.6275 112.323 78.614 112.336Z" fill="#ED1164"/>
<path d="M96.6132 95.5431C96.5726 95.604 95.7604 94.7105 94.0004 94.0743C93.1272 93.7561 92.051 93.4854 90.8326 93.2484C89.6209 93.0048 88.2672 92.7814 86.8931 92.3414C84.1314 91.4615 81.9653 89.8843 80.625 88.5711C79.9482 87.9145 79.4608 87.3256 79.1427 86.906C78.9802 86.6961 78.8719 86.5269 78.7907 86.4118C78.7162 86.2968 78.6756 86.2359 78.6824 86.2291C78.6959 86.2155 78.8787 86.4457 79.2171 86.845C79.5556 87.2444 80.0632 87.8062 80.7469 88.4425C82.1007 89.7083 84.2532 91.2313 86.9675 92.0977C88.3213 92.5309 89.6616 92.7611 90.8732 93.0183C92.0916 93.2688 93.1814 93.5531 94.0546 93.905C94.9346 94.2502 95.5911 94.6632 96.004 94.9881C96.2207 95.137 96.356 95.2927 96.4643 95.3874C96.5659 95.489 96.62 95.5431 96.6132 95.5431Z" fill="#ED1164"/>
<path d="M102.265 79.0404C102.252 79.0539 102.062 78.8847 101.737 78.5801C101.575 78.4244 101.372 78.2349 101.128 78.0318C100.884 77.8287 100.62 77.5783 100.295 77.3346C99.6727 76.8269 98.8942 76.2719 98.0007 75.7101C97.0937 75.1618 96.0716 74.6067 94.9479 74.1194C93.8243 73.6455 92.7142 73.28 91.6921 73.0093C90.6632 72.752 89.7291 72.5693 88.9304 72.4677C88.531 72.4001 88.1723 72.3797 87.8541 72.3459C87.536 72.3121 87.2652 72.2918 87.0351 72.285C86.5883 72.2579 86.3379 72.2376 86.3379 72.2173C86.3379 72.197 86.5883 72.1902 87.0419 72.1834C87.2652 72.1767 87.5428 72.1767 87.8677 72.2038C88.1858 72.2241 88.5513 72.2308 88.9575 72.285C89.763 72.3594 90.7174 72.5287 91.753 72.7723C92.7887 73.0363 93.9123 73.3951 95.0563 73.8757C96.1934 74.3698 97.2291 74.9316 98.1361 75.5002C99.0364 76.0823 99.8081 76.6577 100.424 77.1857C100.742 77.4361 100.999 77.7001 101.236 77.9167C101.473 78.1333 101.663 78.3296 101.818 78.4989C102.116 78.8373 102.279 79.0268 102.265 79.0404Z" fill="#ED1164"/>
<path d="M58.9916 56.3366C59.0051 56.3704 58.6531 56.5532 58.0507 56.7901C57.455 57.027 56.6089 57.3113 55.6477 57.5347C54.6933 57.758 53.8066 57.8799 53.1635 57.934C52.5205 57.9882 52.1211 57.9746 52.1211 57.9408C52.1143 57.8596 53.6915 57.731 55.5868 57.2842C57.4889 56.8442 58.9645 56.2621 58.9916 56.3366Z" fill="#ED1164"/>
<path d="M60.5 117.5L61.5 107L69 109.471C73.5 111.471 77 113 77 117L60.5 117.5Z" fill="#FFBE9D"/>
</svg>

