<svg width="95" height="86" viewBox="0 0 95 86" fill="none" xmlns="http://www.w3.org/2000/svg">
<path d="M83.4196 77.7837C90.36 69.5185 94.5333 58.8447 94.4998 47.1929C94.4273 21.492 73.5779 0.362368 47.9194 0.00471212C21.5188 -0.364121 0 20.9667 0 47.3271C0 58.9285 4.16763 69.552 11.0802 77.7837C11.309 78.0575 11.7274 78.0687 11.9785 77.8172L47.2499 42.4875L82.5213 77.8172C82.7724 78.0743 83.1908 78.0575 83.4196 77.7837Z" fill="#019B69"/>
<path d="M47.25 85.5C68.3749 85.5 85.5 68.3749 85.5 47.25C85.5 26.1251 68.3749 9 47.25 9C26.1251 9 9 26.1251 9 47.25C9 68.3749 26.1251 85.5 47.25 85.5Z" fill="#EAFFF8"/>
<mask id="mask0_2417_4524" style="mask-type:alpha" maskUnits="userSpaceOnUse" x="9" y="9" width="77" height="77">
<path d="M47.2928 85.5856C68.4413 85.5856 85.5856 68.4413 85.5856 47.2928C85.5856 26.1443 68.4413 9 47.2928 9C26.1443 9 9 26.1443 9 47.2928C9 68.4413 26.1443 85.5856 47.2928 85.5856Z" fill="#FBC000"/>
</mask>
<g mask="url(#mask0_2417_4524)">
<g opacity="0.8">
<path d="M59.5 89L24 69.5L37.5 65.5L47.0276 61.2666L61.5 30.5L67 30L70 26L70.5 22.5L91.5 53L73.1572 80.5471L59.5 89Z" fill="#019B69" fill-opacity="0.5" style="mix-blend-mode:multiply"/>
</g>
</g>
<path d="M28.4235 31.243C28.5557 31.243 28.6858 31.2103 28.8024 31.148C28.9189 31.0856 29.0183 30.9954 29.0916 30.8854L31.6356 27.0694L34.1797 30.8854C34.253 30.9954 34.3524 31.0856 34.4689 31.148C34.5855 31.2103 34.7156 31.243 34.8478 31.243C34.98 31.243 35.1102 31.2103 35.2267 31.148C35.3433 31.0856 35.4426 30.9954 35.5159 30.8854L38.06 27.0694L40.604 30.8854C40.6774 30.9954 40.7767 31.0856 40.8933 31.148C41.0098 31.2103 41.14 31.243 41.2722 31.243C41.4044 31.243 41.5345 31.2103 41.6511 31.148C41.7676 31.0856 41.867 30.9954 41.9403 30.8854L44.4843 27.0694L47.0284 30.8854C47.1017 30.9954 47.2011 31.0856 47.3176 31.148C47.4342 31.2103 47.5643 31.243 47.6965 31.243C47.8287 31.243 47.9589 31.2103 48.0754 31.148C48.192 31.0856 48.2913 30.9954 48.3647 30.8854L50.9087 27.0694L53.4527 30.8854C53.5261 30.9954 53.6254 31.0856 53.742 31.148C53.8585 31.2103 53.9887 31.243 54.1209 31.243C54.2531 31.243 54.3832 31.2103 54.4998 31.148C54.6163 31.0856 54.7157 30.9954 54.789 30.8854L57.333 27.0694L59.8771 30.8854C59.9504 30.9954 60.0498 31.0856 60.1663 31.148C60.2829 31.2103 60.413 31.243 60.5452 31.243C60.6774 31.243 60.8076 31.2103 60.9241 31.148C61.0407 31.0856 61.14 30.9954 61.2134 30.8854L63.7574 27.0694L66.3014 30.8854C66.3748 30.9954 66.4741 31.0856 66.5907 31.148C66.7072 31.2103 66.8374 31.243 66.9696 31.243C67.1018 31.243 67.2319 31.2103 67.3485 31.148C67.465 31.0856 67.5644 30.9954 67.6377 30.8854L70.8499 26.0672C70.9667 25.8899 71.0086 25.6737 70.9664 25.4657C70.9242 25.2577 70.8015 25.0748 70.6249 24.9571C70.4483 24.8393 70.2323 24.7963 70.024 24.8374C69.8158 24.8784 69.6323 25.0002 69.5136 25.1762L66.9696 28.9922L64.4255 25.1762C64.3522 25.0662 64.2528 24.976 64.1363 24.9137C64.0197 24.8513 63.8896 24.8186 63.7574 24.8186C63.6252 24.8186 63.4951 24.8513 63.3785 24.9137C63.262 24.976 63.1626 25.0662 63.0893 25.1762L60.5452 28.9922L58.0012 25.1762C57.9278 25.0662 57.8285 24.976 57.7119 24.9137C57.5954 24.8513 57.4652 24.8186 57.333 24.8186C57.2009 24.8186 57.0707 24.8513 56.9542 24.9137C56.8376 24.976 56.7383 25.0662 56.6649 25.1762L54.1209 28.9922L51.5768 25.1762C51.5035 25.0662 51.4041 24.976 51.2876 24.9137C51.171 24.8513 51.0409 24.8186 50.9087 24.8186C50.7765 24.8186 50.6464 24.8513 50.5298 24.9137C50.4133 24.976 50.3139 25.0662 50.2406 25.1762L47.6965 28.9922L45.1525 25.1762C45.0791 25.0662 44.9798 24.976 44.8632 24.9137C44.7467 24.8513 44.6165 24.8186 44.4843 24.8186C44.3522 24.8186 44.222 24.8513 44.1055 24.9137C43.9889 24.976 43.8895 25.0662 43.8162 25.1762L41.2722 28.9922L38.7281 25.1762C38.6548 25.0662 38.5554 24.976 38.4389 24.9137C38.3223 24.8513 38.1922 24.8186 38.06 24.8186C37.9278 24.8186 37.7977 24.8513 37.6811 24.9137C37.5645 24.976 37.4652 25.0662 37.3919 25.1762L34.8478 28.9922L32.3038 25.1762C32.2304 25.0662 32.1311 24.976 32.0145 24.9137C31.898 24.8513 31.7678 24.8186 31.6356 24.8186C31.5034 24.8186 31.3733 24.8513 31.2567 24.9137C31.1402 24.976 31.0408 25.0662 30.9675 25.1762L28.4235 28.9922L25.8794 25.1762C25.8212 25.0878 25.7461 25.0119 25.6584 24.9526C25.5707 24.8934 25.4722 24.8521 25.3684 24.8311C25.2647 24.81 25.1579 24.8097 25.0541 24.8301C24.9502 24.8505 24.8515 24.8913 24.7634 24.95C24.6754 25.0087 24.5998 25.0842 24.541 25.1722C24.4823 25.2602 24.4415 25.359 24.421 25.4628C24.4006 25.5666 24.4008 25.6734 24.4218 25.7772C24.4427 25.8809 24.484 25.9794 24.5432 26.0672L27.7553 30.8854C27.8287 30.9954 27.928 31.0856 28.0446 31.148C28.1611 31.2103 28.2913 31.243 28.4235 31.243Z" fill="#F4669C"/>
<path d="M70.9863 22.4093H24.4098V25.6215H70.9863V22.4093Z" fill="#F03C80"/>
<path d="M32.4402 61.0175V30.4396H62.9559V61.0175C62.9559 61.9933 62.9969 62.7548 63.7589 63.3644L70.9863 68.9857H24.4098L31.6372 63.3644C32.3992 62.7548 32.4402 61.9933 32.4402 61.0175Z" fill="white"/>
<path d="M28.4243 31.2427H66.9704C67.1834 31.2427 67.3876 31.1581 67.5382 31.0075C67.6888 30.8569 67.7734 30.6526 67.7734 30.4396C67.7734 30.2267 67.6888 30.0224 67.5382 29.8718C67.3876 29.7212 67.1834 29.6366 66.9704 29.6366H28.4243C28.2113 29.6366 28.007 29.7212 27.8564 29.8718C27.7058 30.0224 27.6212 30.2267 27.6212 30.4396C27.6212 30.6526 27.7058 30.8569 27.8564 31.0075C28.007 31.1581 28.2113 31.2427 28.4243 31.2427Z" fill="#F4669C"/>
<path d="M35.6523 64.1673H59.7121C59.9205 64.1705 60.1223 64.0945 60.2768 63.9548C60.4314 63.8151 60.5274 63.6221 60.5453 63.4145C60.5522 63.305 60.5365 63.1953 60.4993 63.092C60.4621 62.9888 60.4042 62.8943 60.3291 62.8144C60.2539 62.7344 60.1632 62.6707 60.0625 62.6272C59.9618 62.5837 59.8533 62.5612 59.7436 62.5612H35.6837C35.4753 62.5581 35.2736 62.6341 35.119 62.7738C34.9644 62.9135 34.8685 63.1065 34.8505 63.3141C34.8437 63.4236 34.8593 63.5333 34.8965 63.6365C34.9337 63.7398 34.9916 63.8343 35.0668 63.9142C35.1419 63.9942 35.2326 64.0579 35.3333 64.1014C35.434 64.1449 35.5425 64.1674 35.6523 64.1673Z" fill="#018258"/>
<path d="M66.1677 69.7888C66.3806 69.7888 66.5849 69.7042 66.7355 69.5536C66.8861 69.403 66.9707 69.1987 66.9707 68.9858V40.8792C66.9707 40.6662 66.8861 40.462 66.7355 40.3114C66.5849 40.1608 66.3806 40.0762 66.1677 40.0762C65.9547 40.0762 65.7504 40.1608 65.5998 40.3114C65.4492 40.462 65.3646 40.6662 65.3646 40.8792V68.9858C65.3646 69.1987 65.4492 69.403 65.5998 69.5536C65.7504 69.7042 65.9547 69.7888 66.1677 69.7888Z" fill="#F798BC"/>
<path d="M61.3494 69.7887C61.5371 69.789 61.719 69.7231 61.863 69.6026L66.6813 65.5874C66.8435 65.4506 66.9451 65.2552 66.9637 65.0438C66.9823 64.8325 66.9165 64.6223 66.7807 64.4593C66.6449 64.2963 66.45 64.1936 66.2388 64.1738C66.0275 64.154 65.817 64.2186 65.6532 64.3535L60.8349 68.3687C60.7081 68.4744 60.6169 68.6166 60.5738 68.7759C60.5307 68.9352 60.5377 69.104 60.594 69.2592C60.6502 69.4144 60.7529 69.5485 60.8881 69.6432C61.0232 69.738 61.1843 69.7888 61.3494 69.7887Z" fill="#F798BC"/>
<path d="M69.375 34.4463L65.3619 36.0507L66.9663 40.0638L70.9794 38.4594L69.375 34.4463Z" fill="#FCDBE8"/>
<path d="M62.1516 44.8946L65.3638 43.2885C66.9741 42.6444 67.5621 40.9033 66.9699 39.2733L65.3638 36.0611C64.7438 34.3563 63.0328 33.7814 61.3486 34.455L58.1364 36.0611L62.1516 44.8946Z" fill="#F03C80"/>
<path d="M29.2282 69.7888C29.4412 69.7888 29.6454 69.7042 29.796 69.5536C29.9466 69.403 30.0312 69.1987 30.0312 68.9858V40.8792C30.0312 40.6662 29.9466 40.462 29.796 40.3114C29.6454 40.1608 29.4412 40.0762 29.2282 40.0762C29.0152 40.0762 28.811 40.1608 28.6604 40.3114C28.5098 40.462 28.4252 40.6662 28.4252 40.8792V68.9858C28.4252 69.1987 28.5098 69.403 28.6604 69.5536C28.811 69.7042 29.0152 69.7888 29.2282 69.7888Z" fill="#F798BC"/>
<path d="M34.0462 69.7887C34.2113 69.7888 34.3723 69.738 34.5075 69.6432C34.6427 69.5485 34.7454 69.4144 34.8016 69.2592C34.8578 69.104 34.8648 68.9352 34.8217 68.7759C34.7786 68.6166 34.6874 68.4744 34.5606 68.3687L29.7424 64.3535C29.5786 64.2186 29.3681 64.154 29.1568 64.1738C28.9455 64.1936 28.7507 64.2963 28.6149 64.4593C28.479 64.6223 28.4133 64.8325 28.4319 65.0438C28.4505 65.2552 28.552 65.4506 28.7143 65.5874L33.5325 69.6026C33.6766 69.723 33.8584 69.7889 34.0462 69.7887Z" fill="#F798BC"/>
<path d="M24.4088 69.789C24.2437 69.7891 24.0826 69.7383 23.9475 69.6435C23.8123 69.5488 23.7096 69.4147 23.6534 69.2595C23.5972 69.1043 23.5901 68.9356 23.6332 68.7762C23.6764 68.6169 23.7675 68.4747 23.8943 68.369L28.7126 64.3538C28.7935 64.2856 28.8872 64.2341 28.9881 64.2021C29.089 64.1702 29.1952 64.1586 29.3007 64.1679C29.4061 64.1772 29.5086 64.2072 29.6024 64.2563C29.6962 64.3054 29.7794 64.3725 29.8471 64.4538C29.9149 64.5351 29.9659 64.629 29.9972 64.7301C30.0285 64.8312 30.0396 64.9375 30.0297 65.0429C30.0198 65.1482 29.9892 65.2506 29.9396 65.3441C29.89 65.4376 29.8224 65.5204 29.7407 65.5877L24.9224 69.6029C24.7784 69.7233 24.5966 69.7892 24.4088 69.789Z" fill="#F798BC"/>
<path d="M24.3828 38.4598L28.3959 40.0642L30.0003 36.0511L25.9872 34.4467L24.3828 38.4598Z" fill="#FCDBE8"/>
<path d="M33.2426 44.8946L30.0304 43.2885C28.4201 42.6444 27.8321 40.9033 28.4243 39.2733L30.0304 36.0611C30.6504 34.3563 32.3614 33.7814 34.0456 34.455L37.2578 36.0611L33.2426 44.8946Z" fill="#F03C80"/>
<path d="M54.9245 49.7128H40.4698C39.6178 49.7128 38.8008 50.0512 38.1984 50.6536C37.596 51.256 37.2576 52.073 37.2576 52.9249V62.5615H58.1367V52.9249C58.1367 52.073 57.7983 51.256 57.1959 50.6536C56.5935 50.0512 55.7765 49.7128 54.9245 49.7128Z" fill="#019B69" fill-opacity="0.73"/>
<path d="M38.0603 56.1367H39.6664V58.5459H55.7273V56.1367H57.3334C57.7593 56.1367 58.1678 56.3059 58.469 56.6071C58.7702 56.9083 58.9395 57.3168 58.9395 57.7428V62.5611H36.4542V57.7428C36.4542 57.3168 36.6234 56.9083 36.9246 56.6071C37.2258 56.3059 37.6344 56.1367 38.0603 56.1367Z" fill="#019B69"/>
<path d="M70.9856 69.7887C71.1507 69.7888 71.3118 69.738 71.447 69.6432C71.5821 69.5485 71.6848 69.4144 71.741 69.2592C71.7973 69.104 71.8043 68.9352 71.7612 68.7759C71.7181 68.6166 71.6269 68.4744 71.5001 68.3687L66.6818 64.3535C66.518 64.2186 66.3075 64.154 66.0963 64.1738C65.885 64.1936 65.6901 64.2963 65.5543 64.4593C65.4185 64.6223 65.3527 64.8325 65.3713 65.0438C65.3899 65.2552 65.4915 65.4506 65.6537 65.5874L70.472 69.6026C70.6161 69.723 70.7979 69.7889 70.9856 69.7887Z" fill="#F798BC"/>
</svg>
