<svg width="96" height="87" viewBox="0 0 96 87" fill="none" xmlns="http://www.w3.org/2000/svg">
<path d="M84.7441 79.0188C91.7948 70.6223 96.0343 59.779 96.0003 47.9423C95.9266 21.8333 74.7462 0.368122 48.6803 0.00478694C21.8605 -0.369902 0 21.2996 0 48.0785C0 59.8642 4.23381 70.6564 11.2561 79.0188C11.4885 79.2969 11.9136 79.3083 12.1687 79.0528L48.0001 43.1622L83.8316 79.0528C84.0867 79.314 84.5118 79.2969 84.7441 79.0188Z" fill="#019B69"/>
<path d="M47.9999 86.8575C69.4602 86.8575 86.8573 69.4605 86.8573 48.0002C86.8573 26.5399 69.4602 9.14282 47.9999 9.14282C26.5396 9.14282 9.14258 26.5399 9.14258 48.0002C9.14258 69.4605 26.5396 86.8575 47.9999 86.8575Z" fill="#EAFFF8"/>
<mask id="mask0_2417_4523" style="mask-type:alpha" maskUnits="userSpaceOnUse" x="9" y="9" width="78" height="78">
<path d="M47.9008 86.8017C69.3852 86.8017 86.8017 69.3852 86.8017 47.9008C86.8017 26.4165 69.3852 9 47.9008 9C26.4165 9 9 26.4165 9 47.9008C9 69.3852 26.4165 86.8017 47.9008 86.8017Z" fill="#FBC000"/>
</mask>
<g mask="url(#mask0_2417_4523)">
<g opacity="0.8">
<path d="M55.0668 88.8492L24 63.5001L43.5001 53.5001L26.5001 46.5001L46.0001 26.0001L62.0001 35.0001L72 31.5001L93 55.0001L74.176 81.6833L55.0668 88.8492Z" fill="#019B69" fill-opacity="0.5" style="mix-blend-mode:multiply"/>
</g>
</g>
<path d="M69.9078 29.7193H59.0358L57.5053 25.5202C56.9538 24.0069 55.515 23 53.9044 23H44.1134C42.5027 23 41.0639 24.0069 40.5125 25.5202L38.9821 29.7193H28.1101C25.288 29.7193 23 32.0071 23 34.8294V61.022C23 63.8441 25.2878 66.1321 28.1101 66.1321H69.9081C72.7302 66.1321 75.0181 63.8443 75.0181 61.022V34.8294C75.0177 32.0071 72.7299 29.7193 69.9078 29.7193Z" fill="white"/>
<path d="M69.9082 29.7193H59.0362L57.5057 25.5202C56.9541 24.0069 55.5154 23 53.9048 23H48.9863V66.1319H69.9083C72.7304 66.1319 75.0184 63.8441 75.0184 61.0219V34.8294C75.0181 32.0071 72.7303 29.7193 69.9082 29.7193Z" fill="#E6E7E8"/>
<path d="M49.0078 63.7472C57.5067 63.7472 64.3964 56.8575 64.3964 48.3586C64.3964 39.8597 57.5067 32.97 49.0078 32.97C40.5089 32.97 33.6191 39.8597 33.6191 48.3586C33.6191 56.8575 40.5089 63.7472 49.0078 63.7472Z" fill="#E6E7E8"/>
<path d="M49.0094 32.97C49.0017 32.97 48.994 32.9703 48.9863 32.9703V63.7471C48.994 63.7471 49.0017 63.7474 49.0094 63.7474C57.5083 63.7474 64.398 56.8576 64.398 48.3588C64.398 39.8599 57.5083 32.97 49.0094 32.97Z" fill="white"/>
<path d="M49.0096 58.3066C54.5032 58.3066 58.9567 53.8531 58.9567 48.3595C58.9567 42.8658 54.5032 38.4124 49.0096 38.4124C43.516 38.4124 39.0625 42.8658 39.0625 48.3595C39.0625 53.8531 43.516 58.3066 49.0096 58.3066Z" fill="#019B69"/>
<path d="M55.271 29.5341H42.748L43.9509 26.0342H54.0681L55.271 29.5341Z" fill="#ED1164"/>
<path d="M63.2012 33.7334H71.9672V38.7425H63.2012V33.7334Z" fill="#ED1164"/>
<path d="M29.4269 61.9847C31.0229 61.9847 32.3168 60.6909 32.3168 59.0949C32.3168 57.4989 31.0229 56.2051 29.4269 56.2051C27.8309 56.2051 26.5371 57.4989 26.5371 59.0949C26.5371 60.6909 27.8309 61.9847 29.4269 61.9847Z" fill="#019B69"/>
<path d="M43.7867 45.268C44.8241 45.268 45.6651 44.427 45.6651 43.3896C45.6651 42.3521 44.8241 41.5111 43.7867 41.5111C42.7492 41.5111 41.9082 42.3521 41.9082 43.3896C41.9082 44.427 42.7492 45.268 43.7867 45.268Z" fill="white"/>
<path d="M46.1579 50.7087C47.5999 50.7087 48.7689 49.5397 48.7689 48.0977C48.7689 46.6557 47.5999 45.4867 46.1579 45.4867C44.7159 45.4867 43.5469 46.6557 43.5469 48.0977C43.5469 49.5397 44.7159 50.7087 46.1579 50.7087Z" fill="white"/>
</svg>
