<svg width="96" height="87" viewBox="0 0 96 87" fill="none" xmlns="http://www.w3.org/2000/svg">
<path d="M84.7441 79.0188C91.7948 70.6223 96.0343 59.779 96.0003 47.9423C95.9266 21.8333 74.7462 0.368122 48.6803 0.00478694C21.8605 -0.369902 0 21.2996 0 48.0785C0 59.8642 4.23381 70.6564 11.2561 79.0188C11.4885 79.2969 11.9136 79.3083 12.1687 79.0528L48.0001 43.1622L83.8316 79.0528C84.0867 79.314 84.5118 79.2969 84.7441 79.0188Z" fill="#ED1164"/>
<path d="M47.9999 86.8575C69.4602 86.8575 86.8573 69.4605 86.8573 48.0002C86.8573 26.5399 69.4602 9.14282 47.9999 9.14282C26.5396 9.14282 9.14258 26.5399 9.14258 48.0002C9.14258 69.4605 26.5396 86.8575 47.9999 86.8575Z" fill="#FFD9E7"/>
<mask id="mask0_2417_4522" style="mask-type:alpha" maskUnits="userSpaceOnUse" x="9" y="9" width="78" height="78">
<path d="M47.9008 86.8017C69.3852 86.8017 86.8017 69.3852 86.8017 47.9008C86.8017 26.4165 69.3852 9 47.9008 9C26.4165 9 9 26.4165 9 47.9008C9 69.3852 26.4165 86.8017 47.9008 86.8017Z" fill="#FBC000"/>
</mask>
<g mask="url(#mask0_2417_4522)">
<g opacity="0.8">
<path d="M59 89.5001L22 63.5001L42.9999 48.5001L46.9999 46.8772L56.4999 42.0001L69.5 28.0001L91.5 55.0001L74.176 81.6833L59 89.5001Z" fill="#FFCDE0" fill-opacity="0.5" style="mix-blend-mode:multiply"/>
</g>
</g>
<path d="M32.4835 64.001C29.2917 64.001 26.4524 61.9573 25.4215 58.9148L25.3517 58.6855C25.1086 57.8798 25.0067 57.2022 25.0067 56.5242V42.9302L20.1698 59.0761C19.5477 61.451 20.9653 63.913 23.3438 64.5691L54.1743 72.8257C54.5591 72.9254 54.9439 72.9732 55.3228 72.9732C57.3085 72.9732 59.1229 71.6552 59.6315 69.713L61.4277 64.001H32.4835Z" fill="#ECECEC"/>
<path d="M71.6637 31.5959V58.8375C71.6637 61.7749 69.2712 64.1674 66.3338 64.1674H29.617C29.3801 64.1674 29.1433 64.1435 28.9299 64.1197C26.4428 63.8121 24.5005 61.7749 24.311 59.2639C24.2871 59.1217 24.2871 58.9794 24.2871 58.8375V31.5959C24.2871 28.6586 26.6796 26.2661 29.617 26.2661H66.3338C69.2712 26.2661 71.6637 28.6586 71.6637 31.5959Z" fill="white"/>
<path d="M67.8744 33.5951V56.5242C67.8744 58.9965 65.8607 61.0103 63.3884 61.0103H32.4841C32.2848 61.0103 32.0855 60.9902 31.9058 60.9701C29.8125 60.7113 28.1777 58.9965 28.0181 56.8831C27.998 56.7633 27.998 56.6436 27.998 56.5242V33.5951C27.998 31.1228 30.0118 29.109 32.4841 29.109H63.3884C65.8607 29.109 67.8744 31.1228 67.8744 33.5951Z" fill="#ECECEC"/>
<path d="M41.9536 39.0776C41.9536 41.2797 40.1684 43.0653 37.9663 43.0653C35.7637 43.0653 33.9785 41.2797 33.9785 39.0776C33.9785 36.8754 35.7637 35.0898 37.9663 35.0898C40.1684 35.0898 41.9536 36.8754 41.9536 39.0776Z" fill="#019B69"/>
<path d="M67.8748 50.9219V56.5247C67.8748 58.997 65.8611 61.0108 63.3888 61.0108H32.4845C32.2852 61.0108 32.0859 60.9907 31.9062 60.9707L52.4426 40.4346C53.7985 39.0787 56.0313 39.0787 57.3872 40.4346L67.8748 50.9219Z" fill="#ED1164"/>
<path d="M56.0304 61.0103H32.4836C32.2842 61.0103 32.0849 60.9903 31.9053 60.9702C29.8119 60.7113 28.1771 58.9966 28.0176 56.8831L37.4881 47.4123C38.844 46.0567 41.0768 46.0567 42.4327 47.4123L56.0304 61.0103Z" fill="#F03C80"/>
</svg>
