<svg width="95" height="87" viewBox="0 0 95 87" fill="none" xmlns="http://www.w3.org/2000/svg">
<path d="M83.4196 77.7837C90.36 69.5185 94.5333 58.8447 94.4998 47.1929C94.4273 21.492 73.5779 0.362368 47.9194 0.00471212C21.5188 -0.364121 0 20.9667 0 47.3271C0 58.9285 4.16763 69.552 11.0802 77.7837C11.309 78.0575 11.7274 78.0687 11.9785 77.8172L47.2499 42.4875L82.5213 77.8172C82.7724 78.0743 83.1908 78.0575 83.4196 77.7837Z" fill="#ED1164"/>
<path d="M47.25 85.5C68.3749 85.5 85.5 68.3749 85.5 47.25C85.5 26.1251 68.3749 9 47.25 9C26.1251 9 9 26.1251 9 47.25C9 68.3749 26.1251 85.5 47.25 85.5Z" fill="#FFD9E7"/>
<mask id="mask0_2417_4525" style="mask-type:alpha" maskUnits="userSpaceOnUse" x="9" y="9" width="77" height="77">
<path d="M47.2928 85.5856C68.4413 85.5856 85.5856 68.4413 85.5856 47.2928C85.5856 26.1443 68.4413 9 47.2928 9C26.1443 9 9 26.1443 9 47.2928C9 68.4413 26.1443 85.5856 47.2928 85.5856Z" fill="#FBC000"/>
</mask>
<g mask="url(#mask0_2417_4525)">
<g opacity="0.8">
<path d="M62.5 91L35.5 70L50.5 61L49 53.5L47 43.5L52 39.5L67 37V28.5L73.1572 26.5L94 53.5L73.1572 80.5471L62.5 91Z" fill="#FFCDE0" fill-opacity="0.5" style="mix-blend-mode:multiply"/>
</g>
</g>
<path d="M42.4902 43.6331H50.5106V52.277H42.4902V43.6331Z" fill="#019B69"/>
<path d="M46.5 43.6331H50.5102V52.277H46.5V43.6331Z" fill="#018258"/>
<path d="M57.856 37.6652L54.0704 44.9706H38.9281L35.1426 37.6652H57.856Z" fill="white"/>
<path d="M57.8567 37.6652L54.0711 44.9706H46.5V37.6652H57.8567Z" fill="#EDEDED"/>
<path d="M55.4086 50.5112H37.5894C34.7676 50.5112 32.4727 52.7256 32.4727 55.4485V65.7644C32.4727 68.4873 34.7676 70.7017 37.5894 70.7017H55.4086C58.2304 70.7017 60.5254 68.4873 60.5254 65.7644V55.4485C60.5254 52.7256 58.2304 50.5112 55.4086 50.5112Z" fill="white"/>
<path d="M60.5264 55.4485V65.7644C60.5264 68.4873 58.2314 70.7017 55.4096 70.7017H46.5V50.5112H55.4096C58.2314 50.5112 60.5264 52.7256 60.5264 55.4485Z" fill="#EDEDED"/>
<path d="M57.4199 55.4483V65.7643C57.4199 66.835 56.5173 67.705 55.4086 67.705H37.5894C36.4808 67.705 35.5781 66.835 35.5781 65.7643V55.4483C35.5781 54.3776 36.4808 53.5076 37.5894 53.5076H55.4086C56.5173 53.5076 57.4199 54.3776 57.4199 55.4483Z" fill="#019B69"/>
<path d="M57.4209 55.4483V65.7643C57.4209 66.835 56.5182 67.705 55.4096 67.705H46.5V53.5076H55.4096C56.5182 53.5076 57.4209 54.3776 57.4209 55.4483Z" fill="#018258"/>
<path d="M46.5004 64.2591C48.5911 64.2591 50.286 62.6237 50.286 60.6064C50.286 58.589 48.5911 56.9536 46.5004 56.9536C44.4097 56.9536 42.7148 58.589 42.7148 60.6064C42.7148 62.6237 44.4097 64.2591 46.5004 64.2591Z" fill="#ED1164"/>
<path d="M25.5742 27.9373H28.6797V34.8149H25.5742V27.9373Z" fill="#019B69"/>
<path d="M20 26.439H34.2556V29.4355H20V26.439Z" fill="#EDEDED"/>
<path d="M64.3203 27.9373H67.4258V34.8149H64.3203V27.9373Z" fill="#019B69"/>
<path d="M58.7441 26.439H72.9997V29.4355H58.7441V26.439Z" fill="white"/>
<path d="M69.6568 34.0124V37.6651C69.6568 39.6827 67.9622 41.3178 65.8712 41.3178C64.334 41.3178 63.0121 40.4339 62.4189 39.1634H30.5796C30.2825 39.7986 29.8043 40.337 29.208 40.7175C28.6107 41.0971 27.8954 41.3178 27.1274 41.3178C25.0363 41.3178 23.3418 39.6827 23.3418 37.6651V34.0124H30.9129V36.1668H39.7045L42.7137 30.3596H50.2848L53.294 36.1668H62.0856V34.0124H69.6568Z" fill="#EDEDED"/>
<path d="M69.6575 34.0124V37.6651C69.6575 39.6827 67.9629 41.3178 65.8719 41.3178C64.3347 41.3178 63.0128 40.4339 62.4197 39.1634H46.5V30.3596H50.2856L53.2948 36.1668H62.0863V34.0124H69.6575Z" fill="white"/>
</svg>
