<svg width="96" height="87" viewBox="0 0 96 87" fill="none" xmlns="http://www.w3.org/2000/svg">
<path d="M84.7441 79.0188C91.7948 70.6223 96.0343 59.779 96.0003 47.9423C95.9266 21.8333 74.7462 0.368122 48.6803 0.00478694C21.8605 -0.369902 0 21.2996 0 48.0785C0 59.8642 4.23381 70.6564 11.2561 79.0188C11.4885 79.2969 11.9136 79.3083 12.1687 79.0528L48.0001 43.1622L83.8316 79.0528C84.0867 79.314 84.5118 79.2969 84.7441 79.0188Z" fill="#ED1164"/>
<path d="M47.9999 86.8575C69.4602 86.8575 86.8573 69.4605 86.8573 48.0002C86.8573 26.5399 69.4602 9.14282 47.9999 9.14282C26.5396 9.14282 9.14258 26.5399 9.14258 48.0002C9.14258 69.4605 26.5396 86.8575 47.9999 86.8575Z" fill="#FFD9E7"/>
<mask id="mask0_1805_12429" style="mask-type:alpha" maskUnits="userSpaceOnUse" x="10" y="9" width="77" height="78">
<path d="M48.5686 86.5649C69.794 86.5649 87.0005 69.3584 87.0005 48.1331C87.0005 26.9077 69.794 9.70117 48.5686 9.70117C27.3433 9.70117 10.1367 26.9077 10.1367 48.1331C10.1367 69.3584 27.3433 86.5649 48.5686 86.5649Z" fill="#019B69"/>
</mask>
<g mask="url(#mask0_1805_12429)">
<g opacity="0.8">
<path d="M73 91.0002L24.5 66.5002L57 62.0002L58.5 55.5002L60 51.0002L61.379 19.5002L98.5 62.0002L73 91.0002Z" fill="#FFCDE0" fill-opacity="0.5" style="mix-blend-mode:multiply"/>
</g>
</g>
<path d="M31.9648 19.0117V68.2871H56.9077C60.3971 68.2871 63.2258 65.4584 63.2258 61.969V19.0117C63.2258 18.4531 62.7727 18 62.2141 18H32.9766C32.4179 18 31.9648 18.4531 31.9648 19.0117Z" fill="white"/>
<path d="M63.2255 19.0117V61.9693C63.2255 65.458 60.3964 68.2871 56.907 68.2871H54.002C57.4917 68.2871 60.3208 65.458 60.3208 61.9693V19.0117C60.3208 18.4531 59.8673 18 59.3087 18H62.2138C62.7724 18 63.2255 18.4531 63.2255 19.0117Z" fill="#CBCBCD" fill-opacity="0.32"/>
<path d="M49.1774 59.3975C49.736 59.3975 50.1891 59.8502 50.1891 60.4092V61.9691C50.1891 65.4581 53.0178 68.2869 56.5068 68.2869H25.2439C21.7545 68.2869 18.9258 65.4581 18.9258 61.9687V60.4092C18.9258 59.8506 19.3785 59.3975 19.9375 59.3975H49.1774Z" fill="#EFEFEF"/>
<path d="M40.6989 35.0755C40.6989 36.0903 39.8759 36.9129 38.8612 36.9129C37.8464 36.9129 37.0234 36.0903 37.0234 35.0755C37.0234 34.0604 37.8464 33.2378 38.8612 33.2378C39.8759 33.2378 40.6989 34.0604 40.6989 35.0755Z" fill="#019B69"/>
<path d="M47.4593 35.9981H43.7413C43.322 35.9981 42.9824 35.6585 42.9824 35.2392C42.9824 34.8203 43.322 34.4807 43.7413 34.4807H47.4593C47.8787 34.4807 48.2182 34.8203 48.2182 35.2392C48.2182 35.6585 47.8787 35.9981 47.4593 35.9981Z" fill="#ED1164"/>
<path d="M56.7029 37.8168H43.7413C43.322 37.8168 42.9824 37.4773 42.9824 37.058C42.9824 36.639 43.322 36.2991 43.7413 36.2991H56.7029C57.1222 36.2991 57.4617 36.639 57.4617 37.058C57.4617 37.4773 57.1222 37.8168 56.7029 37.8168Z" fill="#ED1164"/>
<path d="M43.7452 33.8525C43.3281 33.8525 42.9851 33.516 42.9824 33.0982C42.9798 32.6792 43.3135 32.3374 43.7325 32.3347H43.7402H43.7452C44.1618 32.3347 44.5013 32.6712 44.504 33.0886C44.5063 33.5079 44.1687 33.8498 43.7498 33.8525C43.7482 33.8525 43.7467 33.8525 43.7452 33.8525Z" fill="#ED1164"/>
<path d="M40.6989 43.0916C40.6989 44.1064 39.8759 44.9294 38.8612 44.9294C37.8464 44.9294 37.0234 44.1064 37.0234 43.0916C37.0234 42.0769 37.8464 41.2539 38.8612 41.2539C39.8759 41.2539 40.6989 42.0769 40.6989 43.0916Z" fill="#019B69"/>
<path d="M47.4593 44.0152H43.7413C43.322 44.0152 42.9824 43.6756 42.9824 43.2567C42.9824 42.8373 43.322 42.4978 43.7413 42.4978H47.4593C47.8787 42.4978 48.2182 42.8373 48.2182 43.2567C48.2182 43.6756 47.8787 44.0152 47.4593 44.0152Z" fill="#ED1164"/>
<path d="M56.7029 45.8339H43.7413C43.322 45.8339 42.9824 45.4944 42.9824 45.075C42.9824 44.6561 43.322 44.3162 43.7413 44.3162H56.7029C57.1222 44.3162 57.4617 44.6561 57.4617 45.075C57.4617 45.4944 57.1222 45.8339 56.7029 45.8339Z" fill="#ED1164"/>
<path d="M43.7452 41.8686C43.3281 41.8686 42.9851 41.5321 42.9824 41.1147C42.9798 40.6954 43.3135 40.3535 43.7325 40.3508H43.7402H43.7452C44.1618 40.3508 44.5013 40.6877 44.504 41.1051C44.5063 41.5241 44.1687 41.8659 43.7498 41.8686C43.7482 41.8686 43.7467 41.8686 43.7452 41.8686Z" fill="#ED1164"/>
<path d="M40.2087 51.6082C40.2087 52.623 39.3857 53.446 38.3709 53.446C37.3562 53.446 36.5332 52.623 36.5332 51.6082C36.5332 50.5935 37.3562 49.7705 38.3709 49.7705C39.3857 49.7705 40.2087 50.5935 40.2087 51.6082Z" fill="#019B69"/>
<path d="M47.4593 52.0317H43.7413C43.322 52.0317 42.9824 51.6918 42.9824 51.2728C42.9824 50.8535 43.322 50.5139 43.7413 50.5139H47.4593C47.8787 50.5139 48.2182 50.8535 48.2182 51.2728C48.2182 51.6918 47.8787 52.0317 47.4593 52.0317Z" fill="#ED1164"/>
<path d="M56.7029 53.8497H43.7413C43.322 53.8497 42.9824 53.5101 42.9824 53.0908C42.9824 52.6718 43.322 52.3323 43.7413 52.3323H56.7029C57.1222 52.3323 57.4617 52.6718 57.4617 53.0908C57.4617 53.5101 57.1222 53.8497 56.7029 53.8497Z" fill="#ED1164"/>
<path d="M43.7452 49.8857C43.3281 49.8857 42.9851 49.5492 42.9824 49.1318C42.9798 48.7124 43.3135 48.3706 43.7325 48.3679H43.7402H43.7452C44.1618 48.3679 44.5013 48.7048 44.504 49.1222C44.5063 49.5412 44.1687 49.883 43.7498 49.8857C43.7482 49.8857 43.7467 49.8857 43.7452 49.8857Z" fill="#ED1164"/>
<path d="M55.6453 27.1411H38.3927C37.8707 27.1411 37.4473 26.6998 37.4473 26.1555V23.8404C37.4473 23.2964 37.8707 22.8552 38.3927 22.8552H55.6453C56.1676 22.8552 56.5906 23.2964 56.5906 23.8404V26.1555C56.5906 26.6998 56.1676 27.1411 55.6453 27.1411Z" fill="#F798BC"/>
<path d="M31.9688 46.2501L35.2268 47.8699C35.5905 48.0506 35.9876 47.6938 35.8468 47.3128L34.5849 43.9001L31.9688 46.2501Z" fill="#019B69" fill-opacity="0.5"/>
<path d="M31.2681 46.0512L18.1914 31.4932C17.9159 31.1866 17.9405 30.7144 18.2478 30.4381L20.3288 28.5689C20.6361 28.2931 21.1084 28.3188 21.3838 28.6257L34.4605 43.1833C34.7363 43.4906 34.7114 43.9621 34.4037 44.2384L32.3231 46.1076C32.0154 46.3834 31.5439 46.3585 31.2681 46.0512Z" fill="#019B69"/>
<path d="M31.2681 46.0511L18.1914 31.4931C17.9159 31.1865 17.9405 30.7142 18.2478 30.438L19.2883 29.5034L33.3632 45.1729L32.3231 46.1075C32.0154 46.3833 31.5439 46.3584 31.2681 46.0511Z" fill="#019B69" style="mix-blend-mode:multiply"/>
<path d="M19.6077 33.07L18.1912 31.4935C17.9158 31.1866 17.9407 30.7143 18.248 30.4384L20.3286 28.5693C20.6363 28.293 21.1082 28.3187 21.3837 28.6257L22.8001 30.2025L19.6077 33.07Z" fill="#A7A9AC"/>
</svg>
