<svg width="58" height="64" viewBox="0 0 58 64" fill="none" xmlns="http://www.w3.org/2000/svg">
<path d="M57.9974 20.5832C57.9974 19.7822 57.3321 19.132 56.5191 19.132H48.0457L53.7474 26.0184H46.6229L40.9212 19.132H35.3409L41.0426 26.0184H33.9234L28.2163 19.132H22.636L28.3404 26.0184H21.2159L15.5115 19.1347H9.93121L15.6356 26.0184H8.51105L3.34783 19.7848L7.99897 11L1.14634 12.5421C0.351793 12.7216 -0.144488 13.4992 0.0376505 14.2793L1.1648 19.1398C1.20968 19.3349 1.29416 19.5117 1.40502 19.6652C1.19649 19.9148 1.06449 20.2321 1.06449 20.5832V25.5685C1.06449 26.1198 1.37863 26.5931 1.83794 26.8376C1.82738 26.8974 1.81944 26.9572 1.81944 27.0196V60.0237C1.81944 62.216 3.63028 64 5.85554 64H52.1452C54.3704 64 56.1812 62.216 56.1812 60.0237V27.0248V27.0222H56.5217C57.3348 27.0222 58 26.3721 58 25.5711L57.9974 20.5832ZM52.1425 61.9924H5.8529C4.75215 61.9924 3.85728 61.1108 3.85728 60.0263V58.9601H43.4738C44.0387 58.9601 44.4953 58.5102 44.4953 57.9536C44.4953 57.3971 44.0387 56.9472 43.4738 56.9472H3.85728V33.1856H10.4565C11.0214 33.1856 11.4781 32.7357 11.4781 32.1792C11.4781 31.6227 11.0214 31.1728 10.4565 31.1728H3.85728V28.0261H54.1355V31.0609H14.519C13.9541 31.0609 13.4974 31.5108 13.4974 32.0674C13.4974 32.6239 13.9541 33.0738 14.519 33.0738H54.1355V56.8354H47.5363C46.9714 56.8354 46.5147 57.2853 46.5147 57.8418C46.5147 58.3983 46.9714 58.8482 47.5363 58.8482H54.1355V60.0315C54.1381 61.1108 53.2433 61.9924 52.1425 61.9924Z" fill="#019B69"/>
<path d="M45 2L39.7281 3.29153L35 13L40.2719 11.7085L45 2Z" fill="#019B69"/>
<path d="M33 5L27.2009 6.28911L22 16L27.802 14.7109L33 5Z" fill="#019B69"/>
<path d="M21 8L15.7281 9.17411L11 18L16.2719 16.8259L21 8Z" fill="#019B69"/>
<path d="M55.9654 6.22087L54.9086 1.17211C54.7374 0.361721 53.9982 -0.146129 53.254 0.0375607L51.572 0.456269L47 10L54.926 8.02805C55.6702 7.84165 56.1341 7.03396 55.9654 6.22087Z" fill="#019B69"/>
<path d="M28.2463 39.2014L36.1449 43.7772C37.3205 44.4585 37.2748 46.2146 36.0642 46.8295L28.1737 50.8374C27.1729 51.3471 26 50.5965 26 49.447V40.5531C26.0027 39.3676 27.2429 38.6197 28.2463 39.2014Z" fill="white"/>
<path d="M22 50C21.447 50 21 49.5962 21 49.0966V40.9034C21 40.4038 21.447 40 22 40C22.553 40 23 40.4038 23 40.9034V49.0966C22.9974 49.5962 22.5504 50 22 50Z" fill="white"/>
</svg>
