<svg width="95" height="86" viewBox="0 0 95 86" fill="none" xmlns="http://www.w3.org/2000/svg">
<path d="M83.4196 77.7837C90.36 69.5185 94.5333 58.8447 94.4998 47.1929C94.4273 21.492 73.5779 0.362368 47.9194 0.00471212C21.5188 -0.364121 0 20.9667 0 47.3271C0 58.9285 4.16763 69.552 11.0802 77.7837C11.309 78.0575 11.7274 78.0687 11.9785 77.8172L47.2499 42.4875L82.5213 77.8172C82.7724 78.0743 83.1908 78.0575 83.4196 77.7837Z" fill="#019B69"/>
<path d="M47.25 85.5C68.3749 85.5 85.5 68.3749 85.5 47.25C85.5 26.1251 68.3749 9 47.25 9C26.1251 9 9 26.1251 9 47.25C9 68.3749 26.1251 85.5 47.25 85.5Z" fill="#EAFFF8"/>
<mask id="mask0_1805_12407" style="mask-type:alpha" maskUnits="userSpaceOnUse" x="9" y="9" width="77" height="77">
<path d="M47.2928 85.5856C68.4413 85.5856 85.5856 68.4413 85.5856 47.2928C85.5856 26.1443 68.4413 9 47.2928 9C26.1443 9 9 26.1443 9 47.2928C9 68.4413 26.1443 85.5856 47.2928 85.5856Z" fill="#FBC000"/>
</mask>
<g mask="url(#mask0_1805_12407)">
<g opacity="0.8">
<path d="M53 87.5L25 67L47 19.5L88 54L73.1572 80.5471L53 87.5Z" fill="#019B69" fill-opacity="0.5" style="mix-blend-mode:multiply"/>
</g>
</g>
<path d="M45.7968 62.7001L43.067 64.8489C42.3126 65.4428 41.2215 65.3128 40.6277 64.5584C40.0338 63.804 40.1638 62.7129 40.9182 62.1191L43.648 59.9703C44.401 59.3775 44.5312 58.2841 43.9385 57.531L41.9628 55.0212C41.3689 54.2667 41.4988 53.1757 42.2532 52.5819C43.0077 51.988 44.0988 52.118 44.6925 52.8724L46.6682 55.3822C48.4457 57.6401 48.0548 60.9226 45.7968 62.7001Z" fill="#252320"/>
<path d="M48.1472 74.1117C46.6396 75.2984 44.4553 75.0383 43.2687 73.5307L32.5245 59.8816L37.984 55.5839L48.7282 69.233C49.9151 70.7406 49.655 72.9249 48.1472 74.1117Z" fill="#434041"/>
<path d="M34.1806 45.1366L40.8421 53.5992L40.1322 58.3141L30.5778 65.835C28.3121 67.6185 25.0004 67.1748 23.2169 64.9088L18.9192 59.4492C17.1572 57.2107 17.5678 53.9693 19.8338 52.1858L29.3881 44.6649L34.1806 45.1366Z" fill="#ED1164"/>
<path d="M37.4895 49.3404L40.8417 53.5989L40.1318 58.3137L30.5774 65.8347C28.3117 67.6182 25 67.1744 23.2165 64.9085L21.1106 62.2332L37.4895 49.3404Z" fill="#CB1862"/>
<path d="M58.2771 25.3642C57.3253 25.252 56.6444 24.387 56.7579 23.4343L57.1676 19.9836C57.2809 19.0306 58.1447 18.3507 59.0976 18.4642C60.0494 18.5764 60.7303 19.4414 60.6169 20.3941L60.2071 23.8448C60.0937 24.7978 59.23 25.4777 58.2771 25.3642Z" fill="#ED1164"/>
<path d="M70.8424 37.3566L67.392 36.9446C66.4391 36.8311 65.7581 35.9661 65.8728 35.0146C65.9862 34.0618 66.85 33.382 67.8027 33.4954L71.2531 33.9074C72.206 34.0209 72.887 34.8859 72.7723 35.8374C72.6589 36.7901 71.7952 37.4701 70.8424 37.3566Z" fill="#ED1164"/>
<path d="M70.2488 23.5544C70.8504 24.3187 70.7227 25.3921 69.9583 25.9937L65.8636 29.217C65.0991 29.8187 64.0258 29.6908 63.4243 28.9265C62.8226 28.162 62.9504 27.0888 63.7148 26.4872L67.8095 23.2639C68.5738 22.6622 69.647 22.79 70.2488 23.5544Z" fill="#ED1164"/>
<path d="M49.2181 24.927L64.26 44.0358C64.6898 44.5818 64.6866 49.8013 65.3092 49.9745L60.3847 50.4024C53.0934 50.9689 45.8687 54.0917 40.7367 58.1315L40.2726 58.4968L29.5282 44.8476L29.9923 44.4823C35.3975 40.2275 39.7199 34.2604 42.0549 27.1169L43.6504 22.2354L49.2181 24.927Z" fill="white"/>
<path d="M32.0311 53.6383C32.6327 54.4026 32.505 55.476 31.7406 56.0776L29.0108 58.2265C28.2464 58.8283 27.173 58.7003 26.5715 57.936C25.9698 57.1716 26.0976 56.0984 26.862 55.4968L29.5918 53.348C30.3562 52.7462 31.4294 52.874 32.0311 53.6383Z" fill="white"/>
<path d="M56.2216 34.019L63.7426 43.5734C64.1724 44.1194 64.7549 49.8979 65.3774 50.0711L59.7354 50.3344C52.444 50.9009 46.1958 53.8897 41.0638 57.9295L40.0868 58.2807L34.3831 51.2098L56.2216 34.019Z" fill="#E0E0E0"/>
<path d="M32.0309 53.6381C32.6326 54.4024 32.5048 55.4757 31.7404 56.0774L29.0106 58.2263C28.2462 58.828 27.1729 58.7001 26.5714 57.9358L32.0309 53.6381Z" fill="#CBCBCD"/>
<path d="M49.6002 20.2236L68.9398 44.792C70.1216 46.2934 69.8602 48.4888 68.3588 49.6707C68.195 49.7996 67.9882 49.8738 67.7813 49.9482C66.9368 50.392 65.9867 50.4767 65.1102 50.1496C64.4877 49.9766 63.9098 49.6357 63.48 49.0897L44.1404 24.5212C43.6461 23.8932 43.4621 23.1539 43.4516 22.4105C43.4413 21.6671 43.6749 20.9526 44.1191 20.3377C44.3218 20.0896 44.4756 19.8359 44.7214 19.6425C46.2228 18.4607 48.4183 18.7222 49.6002 20.2236Z" fill="#019B69"/>
<path d="M59.3241 32.5185L68.9938 44.8026C70.1757 46.304 69.9142 48.4995 68.4129 49.6813C68.249 49.8103 68.0423 49.8845 67.8354 49.9588C66.9909 50.4027 66.0408 50.4874 65.1642 50.1603C64.5418 49.9873 63.9639 49.6463 63.5341 49.1003L53.8643 36.8162L59.3241 32.5185Z" fill="#018258"/>
</svg>
