<svg width="96" height="87" viewBox="0 0 96 87" fill="none" xmlns="http://www.w3.org/2000/svg">
<path d="M84.7441 79.0188C91.7948 70.6223 96.0343 59.779 96.0003 47.9423C95.9266 21.8333 74.7462 0.368122 48.6803 0.00478694C21.8605 -0.369902 0 21.2996 0 48.0785C0 59.8642 4.23381 70.6564 11.2561 79.0188C11.4885 79.2969 11.9136 79.3083 12.1687 79.0528L48.0001 43.1622L83.8316 79.0528C84.0867 79.314 84.5118 79.2969 84.7441 79.0188Z" fill="#019B69"/>
<path d="M47.9999 86.8575C69.4602 86.8575 86.8573 69.4605 86.8573 48.0002C86.8573 26.5399 69.4602 9.14282 47.9999 9.14282C26.5396 9.14282 9.14258 26.5399 9.14258 48.0002C9.14258 69.4605 26.5396 86.8575 47.9999 86.8575Z" fill="#EAFFF8"/>
<mask id="mask0_1805_12460" style="mask-type:alpha" maskUnits="userSpaceOnUse" x="9" y="9" width="78" height="78">
<path d="M47.9008 86.8017C69.3852 86.8017 86.8017 69.3852 86.8017 47.9008C86.8017 26.4165 69.3852 9 47.9008 9C26.4165 9 9 26.4165 9 47.9008C9 69.3852 26.4165 86.8017 47.9008 86.8017Z" fill="#FBC000"/>
</mask>
<g mask="url(#mask0_1805_12460)">
<g opacity="0.8">
<path d="M54.5668 89.3491L26 70L40 58.5L49.5 48.5L69.5 25L95.5 56.5L73.676 82.1831L54.5668 89.3491Z" fill="#019B69" fill-opacity="0.5" style="mix-blend-mode:multiply"/>
</g>
</g>
<path d="M45.1021 46.4046H26.3025C25.5834 46.4046 25 45.8212 25 45.1021V26.3025C25 25.5834 25.5834 25 26.3025 25H45.1021C45.8212 25 46.4046 25.5834 46.4046 26.3025V45.1021C46.4066 45.8212 45.8212 46.4046 45.1021 46.4046Z" fill="#ED1164"/>
<path d="M69.2213 46.4046H50.4216C49.7025 46.4046 49.1191 45.8212 49.1191 45.1021V26.3025C49.1191 25.5834 49.7025 25 50.4216 25H69.2213C69.9404 25 70.5238 25.5834 70.5238 26.3025V45.1021C70.5238 45.8212 69.9404 46.4046 69.2213 46.4046Z" fill="white"/>
<path d="M45.1021 70.3736H26.3025C25.5834 70.3736 25 69.7902 25 69.0711V50.2715C25 49.5524 25.5834 48.969 26.3025 48.969H45.1021C45.8212 48.969 46.4046 49.5524 46.4046 50.2715V69.0711C46.4066 69.7902 45.8212 70.3736 45.1021 70.3736Z" fill="white"/>
<path d="M69.2213 70.3736H50.4216C49.7025 70.3736 49.1191 69.7902 49.1191 69.0711V50.2715C49.1191 49.5524 49.7025 48.969 50.4216 48.969H69.2213C69.9404 48.969 70.5238 49.5524 70.5238 50.2715V69.0711C70.5238 69.7902 69.9404 70.3736 69.2213 70.3736Z" fill="#ED1164"/>
<path d="M33.0463 57.5242C34.514 57.5242 35.7039 56.3343 35.7039 54.8666C35.7039 53.3988 34.514 52.209 33.0463 52.209C31.5785 52.209 30.3887 53.3988 30.3887 54.8666C30.3887 56.3343 31.5785 57.5242 33.0463 57.5242Z" fill="#F798BC"/>
<mask id="mask1_1805_12460" style="mask-type:alpha" maskUnits="userSpaceOnUse" x="25" y="48" width="22" height="23">
<path d="M45.1021 70.3736H26.3025C25.5834 70.3736 25 69.7902 25 69.0711V50.2715C25 49.5524 25.5834 48.969 26.3025 48.969H45.1021C45.8212 48.969 46.4046 49.5524 46.4046 50.2715V69.0711C46.4066 69.7902 45.8212 70.3736 45.1021 70.3736Z" fill="white"/>
</mask>
<g mask="url(#mask1_1805_12460)">
<path d="M28.6406 70.2319L42.6133 55.4145C43.8793 54.0716 46.0102 54.0533 47.2985 55.372L63.0618 71.504L28.6406 70.2319Z" fill="#ED1164"/>
<path d="M22.6113 70.977L31.8744 61.1528C33.1404 59.8098 35.2714 59.7916 36.5597 61.1103L47.0827 71.8804L22.6113 70.977Z" fill="#F4669C"/>
</g>
<g style="mix-blend-mode:multiply" opacity="0.4">
<path d="M65.2121 29.0986L70.5212 34.7177V45.1536C70.5212 45.8464 69.9602 46.4054 69.2694 46.4054H61.4425L55.791 41.307L61.8557 30.4619L65.2121 29.0986Z" fill="#E0E0E0"/>
</g>
<g style="mix-blend-mode:multiply" opacity="0.4">
<path d="M39.9126 35.0003L46.4067 42.3067V45.1506C46.4067 45.8434 45.8456 46.4024 45.1549 46.4024H37.3259L31.2754 40.9434L34.1214 34.269L39.9126 35.0003Z" fill="#F798BC"/>
</g>
<g opacity="0.41">
<path d="M65.2125 56.1897L70.5217 60.1984V69.1212C70.5217 69.8139 69.9606 70.373 69.2698 70.373H61.4429L54.4322 64.047L60.3511 62.0072L54.1973 58.2072L65.2125 56.1897Z" fill="#019B69" fill-opacity="0.5" style="mix-blend-mode:multiply"/>
</g>
<path d="M65.2114 29.0986H62.4566H59.9691V31.5841V34.584C58.8267 34.114 57.423 34.1465 56.0233 35.0114C55.6384 35.2484 55.3163 35.5806 55.0895 35.9715C53.2705 39.1011 55.4824 42.3076 58.4418 42.3076C60.2082 42.3076 61.7051 41.1652 62.2419 39.5791C62.3776 39.176 62.4566 38.7446 62.4566 38.2949V31.5841H65.2114V29.0986Z" fill="#019B69"/>
<path d="M31.0918 31.2732V40.1312C31.0918 40.7571 31.7704 41.1481 32.3132 40.8321L39.9133 36.4041C40.4501 36.0901 40.4501 35.3143 39.9133 35.0003L32.3132 30.5724C31.7704 30.2564 31.0918 30.6473 31.0918 31.2732Z" fill="white"/>
<path d="M64.4949 58.6156H55.1488C54.4195 58.6156 53.8301 58.0241 53.8301 57.2969C53.8301 56.5677 54.4216 55.9783 55.1488 55.9783H64.4949C65.2241 55.9783 65.8136 56.5698 65.8136 57.2969C65.8136 58.0262 65.2221 58.6156 64.4949 58.6156Z" fill="white"/>
<path d="M64.4949 64.1173H55.1488C54.4195 64.1173 53.8301 63.5258 53.8301 62.7987C53.8301 62.0694 54.4216 61.48 55.1488 61.48H64.4949C65.2241 61.48 65.8136 62.0715 65.8136 62.7987C65.8136 63.5258 65.2221 64.1173 64.4949 64.1173Z" fill="white"/>
</svg>
