<svg width="59" height="57" viewBox="0 0 59 57" fill="none" xmlns="http://www.w3.org/2000/svg">
<path d="M30.5622 12.0338C30.612 12.0338 30.6626 12.0295 30.7133 12.0205C31.1833 11.9377 31.4972 11.4894 31.4142 11.0194L31.237 10.0143C31.154 9.54427 30.706 9.23038 30.2357 9.31335C29.7657 9.3962 29.4518 9.84446 29.5348 10.3145L29.712 11.3196C29.7861 11.7388 30.1507 12.0338 30.5622 12.0338Z" fill="white"/>
<path d="M19.6577 24.6646C19.1876 24.7475 18.8738 25.1957 18.9566 25.6659C19.0306 26.0852 19.3952 26.3801 19.8067 26.3801C19.8565 26.3801 19.9071 26.3758 19.9578 26.3668L33.6177 23.9582C34.0877 23.8754 34.4016 23.4271 34.3188 22.9571C34.2359 22.487 33.7878 22.1726 33.3175 22.2561L19.6577 24.6646Z" fill="white"/>
<path d="M19.1276 12.1494C19.0448 11.6794 18.5971 11.3649 18.1265 11.4483C17.6564 11.5312 17.3425 11.9793 17.4254 12.4495L17.6026 13.4546C17.6766 13.874 18.0412 14.1689 18.4528 14.1689C18.5026 14.1689 18.5532 14.1647 18.6039 14.1557C19.0739 14.0728 19.3878 13.6247 19.305 13.1545L19.1276 12.1494Z" fill="white"/>
<path d="M12.2114 30.8932C11.0847 30.6945 9.94734 30.9466 9.00979 31.6029C8.07237 32.2594 7.44653 33.2418 7.24787 34.3688C7.04909 35.4959 7.30122 36.6329 7.95771 37.5704C8.6142 38.508 9.59645 39.1336 10.7236 39.3324C10.9742 39.3766 11.2234 39.3979 11.4697 39.3979C13.5088 39.3979 15.3211 37.9328 15.6872 35.8569C16.0974 33.5302 14.5381 31.3033 12.2114 30.8932ZM13.9848 35.5567C13.74 36.9448 12.4111 37.8745 11.0235 37.6302C10.3511 37.5117 9.76515 37.1384 9.37347 36.579C8.98191 36.0197 8.83141 35.3415 8.9501 34.6691C9.06868 33.9966 9.44204 33.4106 10.0013 33.0189C10.4358 32.7146 10.9423 32.556 11.4621 32.556C11.6112 32.556 11.7615 32.5691 11.9114 32.5956C13.2994 32.8401 14.2295 34.1686 13.9848 35.5567Z" fill="white"/>
<path d="M58.567 3.57687C58.2148 3.15696 57.6983 2.91624 57.1501 2.91624H50.7666C48.476 2.91624 46.5248 4.55359 46.1269 6.80941L45.2425 11.8254L43.0729 24.1296L39.631 4.60971C39.4152 3.38582 38.7357 2.31921 37.7177 1.60638C36.6997 0.893541 35.4649 0.61963 34.2412 0.835809L14.7245 4.27703C10.4003 5.03953 7.50249 9.17792 8.26499 13.5023L9.15955 18.5755C9.24252 19.0455 9.69067 19.3597 10.1607 19.2764C10.6309 19.1936 10.9446 18.7453 10.8618 18.2752L10.3692 15.4812C10.3692 15.4812 10.3692 15.4812 10.3692 15.4811C10.3067 15.1272 10.3165 14.5278 10.5496 14.0032C10.7831 13.4779 11.1711 13.1741 11.7358 13.0745C14.2622 12.6291 15.9553 10.2111 15.5099 7.68461C15.4103 7.11996 15.563 6.65142 15.9769 6.25237C16.39 5.85401 16.9499 5.63979 17.3039 5.57733C17.3042 5.57733 17.3045 5.57721 17.3047 5.57721L34.5413 2.53804C36.1294 2.25791 37.6488 3.32209 37.9288 4.91001L41.5347 25.3604H39.446C36.7025 25.3604 34.3655 27.3215 33.8892 30.0231C33.7893 30.5897 33.779 31.1597 33.8498 31.7164L12.5704 27.9642L11.5745 22.3169C11.4917 21.8469 11.0435 21.5326 10.5734 21.6159C10.1033 21.6988 9.78942 22.147 9.87227 22.6172L10.7588 27.6449L5.92874 26.7932C4.79024 26.5916 3.70128 27.3551 3.50054 28.4933L0.0323514 48.1616C-0.0647906 48.713 0.0585095 49.2691 0.379666 49.7279C0.638596 50.0975 1.00216 50.3659 1.42184 50.5078C1.4253 50.5089 1.42829 50.5108 1.43175 50.5119C1.43959 50.5146 1.44696 50.5162 1.45468 50.5187C1.49156 50.5305 1.52843 50.5421 1.56611 50.5519C1.62223 50.567 1.6772 50.5799 1.73124 50.5896C1.73216 50.5897 1.7332 50.5898 1.73412 50.5899L33.5749 56.2043C33.6975 56.2261 33.8196 56.2364 33.94 56.2364C34.9373 56.2363 35.8239 55.5197 36.0031 54.5043L36.3135 52.7447C38.2422 54.3816 40.7372 55.3707 43.4591 55.3707C45.6239 55.3707 47.7207 54.745 49.5229 53.5613C49.9219 53.2994 50.0328 52.7635 49.7708 52.3645C49.5089 51.9655 48.9729 51.8544 48.574 52.1166C47.0545 53.1147 45.2858 53.6422 43.4591 53.6422C38.3144 53.6422 34.129 49.4568 34.129 44.3121C34.129 43.2998 34.2889 42.3163 34.5919 41.3895C34.6093 41.3486 34.6237 41.3067 34.6345 41.2638C35.2914 39.3478 36.565 37.6843 38.3124 36.5292C38.682 36.6047 39.0612 36.6454 39.446 36.6454H41.9948C43.4053 36.6454 44.7075 36.126 45.7055 35.2552C49.8358 36.275 52.7893 40.0147 52.7893 44.3121C52.7893 46.1652 52.2475 47.9553 51.2226 49.4891C50.9575 49.8858 51.0641 50.4227 51.461 50.6878C51.6085 50.7864 51.7754 50.8336 51.9404 50.8336C52.2193 50.8336 52.4932 50.6988 52.6598 50.4494C53.8754 48.6305 54.5178 46.5082 54.5178 44.3121C54.5178 39.4925 51.3818 35.2657 46.8959 33.8008C47.21 33.2498 47.4359 32.6384 47.5516 31.9827L50.927 12.8398H52.4245C55.4261 12.8398 57.983 10.6944 58.5042 7.73831L58.9717 5.08689C59.0668 4.54714 58.9193 3.9969 58.567 3.57687ZM13.8076 7.98491C14.0876 9.57271 13.0236 11.0924 11.4358 11.3724C10.8357 11.4782 10.3076 11.7235 9.874 12.087C9.88633 9.49954 11.5179 7.1694 13.9451 6.27277C13.7517 6.80468 13.7018 7.38477 13.8076 7.98491ZM3.89268 49.2154L13.3293 42.6079C13.9154 42.1977 14.7258 42.3406 15.1361 42.9265L16.8158 45.3254C16.8159 45.3256 16.816 45.3258 16.8163 45.326C16.8164 45.3262 16.8165 45.3264 16.8167 45.3265L21.7438 52.363L3.89268 49.2154ZM34.8276 51.2167L34.3009 54.2041C34.2658 54.4037 34.0745 54.5364 33.8752 54.5022L24.1511 52.7875L18.728 45.0426L27.9118 38.6121C28.4715 38.22 29.1504 38.0697 29.8233 38.1882C30.4962 38.3068 31.0827 38.6804 31.4747 39.2402L32.8425 41.1936C32.5528 42.1898 32.4005 43.2372 32.4005 44.312C32.4005 46.922 33.3099 49.3232 34.8276 51.2167ZM33.6057 39.2702L32.8905 38.2488C32.2337 37.3108 31.251 36.6849 30.1234 36.486C28.9955 36.2872 27.8582 36.5395 26.9203 37.1962L17.7365 43.6266L16.552 41.9349C15.5951 40.5684 13.7047 40.2351 12.3379 41.1919L1.73988 48.6127C1.72917 48.5696 1.72456 48.5191 1.7347 48.4617L5.20277 28.7932C5.23792 28.5938 5.42852 28.4606 5.62845 28.4951L11.6682 29.5601C11.6705 29.5606 11.6729 29.5609 11.6752 29.5614L34.4224 33.5723C34.6139 33.946 34.8478 34.3012 35.1236 34.6298C35.5028 35.0818 35.9453 35.4641 36.4315 35.7718C35.244 36.7442 34.288 37.9352 33.6057 39.2702ZM45.8493 31.6825C45.7128 32.4561 45.3562 33.1417 44.8509 33.6806C44.827 33.703 44.8041 33.7264 44.7828 33.7515C44.0683 34.4762 43.0773 34.917 41.9947 34.917H39.4459C38.2859 34.917 37.1931 34.4074 36.4476 33.5189C35.702 32.6303 35.3899 31.4656 35.5913 30.3233C35.9218 28.4491 37.5428 27.089 39.4459 27.089H42.561C42.5618 27.089 42.5626 27.0892 42.5635 27.0892C42.5644 27.0892 42.5652 27.089 42.5662 27.089H43.581C44.0005 27.089 44.3593 26.7879 44.4321 26.3749L46.8186 12.84H49.1716L45.8493 31.6825ZM56.8018 7.43812C56.4266 9.5666 54.5856 11.1113 52.4244 11.1113H47.1234L47.8291 7.10959C48.081 5.68139 49.3163 4.64463 50.7665 4.64463H57.15C57.1875 4.64463 57.2187 4.65915 57.2428 4.68784C57.2669 4.71653 57.2757 4.74984 57.2692 4.7866L56.8018 7.43812Z" fill="white"/>
<path d="M42.4515 38.9389C41.6218 38.5238 40.6552 38.5675 39.8659 39.0551C39.0767 39.5428 38.6055 40.3879 38.6055 41.3157V47.3084C38.6055 48.2361 39.0765 49.0813 39.8658 49.5689C40.2953 49.8344 40.7773 49.9683 41.2613 49.9683C41.6665 49.9683 42.0732 49.8744 42.4513 49.6853L48.444 46.6889C49.3501 46.2359 49.9129 45.3252 49.913 44.3122C49.913 43.2991 49.3502 42.3883 48.444 41.9352L42.4515 38.9389ZM47.6712 45.1429L41.6785 48.1393C41.3843 48.2864 41.0546 48.2715 40.7747 48.0986C40.4947 47.9255 40.3342 47.6375 40.3342 47.3084V41.3157C40.3342 40.9866 40.4947 40.6986 40.7747 40.5255C40.9268 40.4316 41.0936 40.3842 41.2613 40.3842C41.4023 40.3842 41.544 40.4177 41.6785 40.4848L47.6711 43.4811C47.9926 43.642 48.1847 43.9526 48.1847 44.3121C48.1847 44.6715 47.9927 44.9822 47.6712 45.1429Z" fill="white"/>
<path d="M18.2476 21.6505C18.3216 22.0698 18.6862 22.3647 19.0977 22.3647C19.1475 22.3647 19.1981 22.3604 19.2488 22.3514L32.9087 19.9428C33.3787 19.86 33.6926 19.4117 33.6098 18.9417C33.5269 18.4716 33.079 18.1577 32.6086 18.2407L18.9486 20.6493C18.4787 20.7321 18.1648 21.1804 18.2476 21.6505Z" fill="white"/>
<path d="M24.2729 13.9056C24.4468 13.9056 24.6217 13.8905 24.7957 13.8597C25.6534 13.7084 26.4036 13.1931 26.8538 12.4459C27.1002 12.0371 26.9685 11.506 26.5596 11.2596C26.1507 11.0133 25.6197 11.1452 25.3733 11.5538C25.181 11.873 24.861 12.0931 24.4955 12.1575C24.1299 12.2213 23.7538 12.1247 23.464 11.8905C23.0926 11.5907 22.5486 11.6486 22.2486 12.0198C21.9487 12.3912 22.0065 12.9353 22.3779 13.2353C22.9191 13.6724 23.5888 13.9056 24.2729 13.9056Z" fill="white"/>
</svg>
