<svg width="59" height="59" viewBox="0 0 59 59" fill="none" xmlns="http://www.w3.org/2000/svg">
<path d="M54.9947 15.0913H49.5965L48.3564 9.48738C47.8268 7.09351 45.7445 5.42157 43.2927 5.42157H24.5522C22.1005 5.42157 20.0182 7.09339 19.4884 9.48727L18.2483 15.0913H16.9673V12.7002C16.9673 11.3528 15.871 10.2565 14.5234 10.2565H6.6216C5.27405 10.2565 4.17771 11.3528 4.17771 12.7002V15.0913H4.0052C1.79673 15.0913 0 16.8881 0 19.0967V46.2236C0 48.4322 1.79673 50.229 4.00532 50.229H8.10155H22.5806C25.8503 52.347 29.745 53.5785 33.9224 53.5785C38.0997 53.5785 41.9945 52.347 45.2641 50.229H54.9947C57.2033 50.229 59 48.4322 59 46.2236V19.0967C59 16.8881 57.2033 15.0913 54.9947 15.0913ZM21.7385 9.9852C22.0329 8.65516 23.1899 7.72614 24.5521 7.72614H43.2926C44.6548 7.72614 45.8118 8.65505 46.1061 9.9852L47.2361 15.0913H45.2641C41.9944 12.9733 38.0997 11.7418 33.9224 11.7418C29.745 11.7418 25.8503 12.9733 22.5806 15.0913H20.6085L21.7385 9.9852ZM6.48239 12.7002C6.48239 12.6235 6.54485 12.5611 6.6216 12.5611H14.5233C14.6001 12.5611 14.6625 12.6236 14.6625 12.7002V15.0913H6.48239V12.7002ZM9.2539 47.9242V35.4077C9.2539 34.7713 8.73799 34.2554 8.10155 34.2554C7.46511 34.2554 6.94921 34.7713 6.94921 35.4077V47.9243H4.00532C3.06765 47.9243 2.30469 47.1613 2.30469 46.2236V19.0967C2.30469 18.1589 3.06765 17.396 4.00532 17.396H5.33017H15.8149H19.1734H19.6352C15.557 21.2156 13.004 26.645 13.004 32.6601C13.004 38.6752 15.557 44.1046 19.6352 47.9242H9.2539ZM44.5619 47.9243C43.1883 48.8846 41.6798 49.6642 40.0708 50.229C38.145 50.9049 36.0761 51.2738 33.9224 51.2738C31.7686 51.2738 29.6996 50.9048 27.7739 50.229C26.1649 49.6642 24.6565 48.8846 23.2828 47.9243C18.4658 44.5565 15.3087 38.9706 15.3087 32.6602C15.3087 26.3499 18.4658 20.7639 23.2828 17.3961C24.6564 16.4358 26.1649 15.6562 27.7739 15.0915C29.6997 14.4155 31.7686 14.0466 33.9224 14.0466C36.0761 14.0466 38.1451 14.4156 40.0708 15.0915C41.6798 15.6562 43.1882 16.4358 44.5619 17.3961C49.3789 20.7639 52.536 26.3499 52.536 32.6602C52.536 38.9706 49.3789 44.5565 44.5619 47.9243ZM56.6953 46.2235C56.6953 47.1613 55.9325 47.9242 54.9947 47.9242H48.2095C52.2877 44.1046 54.8407 38.6752 54.8407 32.6601C54.8407 26.645 52.2877 21.2156 48.2095 17.396H48.6713H54.9947C55.9325 17.396 56.6953 18.1589 56.6953 19.0967V46.2235Z" fill="white"/>
<path d="M33.922 17.5311C25.5798 17.5311 18.793 24.3179 18.793 32.6602C18.793 41.0024 25.5798 47.7892 33.922 47.7892C35.1375 47.7892 36.3473 47.6445 37.5179 47.359C38.1362 47.2082 38.5151 46.5848 38.3644 45.9665C38.2136 45.3482 37.5901 44.9691 36.9719 45.12C35.9798 45.362 34.9537 45.4846 33.922 45.4846C26.8506 45.4846 21.0977 39.7317 21.0977 32.6603C21.0977 25.5889 26.8506 19.8359 33.922 19.8359C40.9933 19.8359 46.7463 25.5888 46.7463 32.6603C46.7463 35.2376 45.9853 37.7227 44.5452 39.8468C44.1881 40.3735 44.3257 41.0902 44.8524 41.4473C45.3788 41.8043 46.0957 41.6669 46.4529 41.1401C48.1526 38.6329 49.051 35.7006 49.051 32.6604C49.051 24.3179 42.2641 17.5311 33.922 17.5311Z" fill="white"/>
<path d="M8.1013 21.3791C5.73531 21.3791 3.81055 23.304 3.81055 25.6698C3.81055 28.0357 5.73542 29.9606 8.1013 29.9606C10.4672 29.9606 12.3921 28.0357 12.3921 25.6698C12.3921 23.304 10.4672 21.3791 8.1013 21.3791ZM8.1013 27.656C7.00623 27.656 6.11523 26.765 6.11523 25.67C6.11523 24.5749 7.00623 23.6839 8.1013 23.6839C9.19637 23.6839 10.0874 24.5749 10.0874 25.67C10.0874 26.765 9.19649 27.656 8.1013 27.656Z" fill="white"/>
<path d="M43.2241 43.7741C43.209 43.7015 43.1871 43.6289 43.1583 43.5586C43.1295 43.4895 43.0938 43.4226 43.0523 43.3604C43.0109 43.297 42.9624 43.2383 42.9094 43.1853C42.8564 43.1323 42.7966 43.0839 42.7342 43.0412C42.6708 42.9997 42.604 42.964 42.5349 42.9352C42.4657 42.9064 42.3932 42.8845 42.3195 42.8695C42.1708 42.8396 42.0176 42.8396 41.8689 42.8695C41.7951 42.8845 41.7225 42.9064 41.6534 42.9352C41.5842 42.964 41.5175 42.9997 41.4541 43.0412C41.3919 43.0839 41.3331 43.1323 41.2789 43.1853C41.2259 43.2383 41.1775 43.297 41.136 43.3604C41.0946 43.4226 41.0588 43.4895 41.03 43.5586C41.0012 43.6289 40.9793 43.7015 40.9643 43.7741C40.9494 43.849 40.9414 43.9251 40.9414 44C40.9414 44.0749 40.9494 44.1509 40.9643 44.2247C40.9793 44.2984 41.0012 44.371 41.03 44.4402C41.0588 44.5104 41.0946 44.5773 41.136 44.6395C41.1775 44.7029 41.2259 44.7617 41.2789 44.8147C41.3331 44.8677 41.3917 44.9161 41.4541 44.9576C41.5176 44.999 41.5843 45.0348 41.6534 45.0636C41.7226 45.0924 41.7951 45.1143 41.8689 45.1293C41.9437 45.1442 42.0187 45.1523 42.0936 45.1523C42.1696 45.1523 42.2446 45.1442 42.3195 45.1293C42.3932 45.1143 42.4658 45.0924 42.5349 45.0636C42.6041 45.0348 42.671 44.999 42.7342 44.9576C42.7964 44.9161 42.8564 44.8677 42.9094 44.8147C43.1237 44.6003 43.246 44.303 43.246 44C43.246 43.9251 43.2389 43.849 43.2241 43.7741Z" fill="white"/>
</svg>
