<svg width="14" height="28" viewBox="0 0 14 28" fill="none" xmlns="http://www.w3.org/2000/svg">
<path d="M8.67336 27.6H4.08759C3.76825 27.6 3.5 27.3242 3.5 26.9959V14.7942H0.587591C0.268248 14.7942 0 14.5185 0 14.1901V9.85589C0 9.52754 0.268248 9.25169 0.587591 9.25169H3.47445C3.47445 8.66066 3.48723 7.57052 3.48723 5.71862C3.48723 2.50077 5.58212 0.412476 8.83941 0.412476H13.4124C13.7318 0.412476 14 0.68824 14 1.01659V5.67918C14 6.00753 13.7318 6.28337 13.4124 6.28337H12.3777C10.9982 6.28337 9.58029 6.25714 9.29927 6.55922L9.2865 9.47495H13.1825C13.3485 9.47495 13.5146 9.5538 13.6296 9.68514C13.7445 9.81648 13.7956 9.98722 13.7701 10.1711L13.1569 14.6104C13.1186 14.9125 12.8631 15.1357 12.5693 15.1357H9.27372V27.009C9.26095 27.3242 8.9927 27.6 8.67336 27.6ZM4.67518 26.3917H8.07299V14.5185C8.07299 14.1901 8.34124 13.9143 8.66058 13.9143H12.0328L12.4799 10.6833H8.67336C8.35401 10.6833 8.08576 10.4075 8.08576 10.0791V6.65117C8.08576 6.28341 8.2135 5.95502 8.4562 5.70547C9.09489 5.0619 10.3339 5.07507 12.3777 5.08821H12.812V1.63394H8.82664C6.8084 1.63394 4.64964 2.71093 4.64964 5.73177C4.64964 8.94962 4.63686 9.86896 4.63686 9.86896C4.63686 10.1973 4.36861 10.46 4.04927 10.46H1.17518V13.5728H4.08759C4.40693 13.5728 4.67518 13.8486 4.67518 14.177V26.3917V26.3917Z" fill="#ED1164"/>
</svg>
