<svg width="21" height="21" viewBox="0 0 21 21" fill="none" xmlns="http://www.w3.org/2000/svg">
<path d="M16.5492 0.524841H5.21232C2.87941 0.524841 0.979004 2.42093 0.979004 4.74858V16.0599C0.979004 18.3876 2.87941 20.2836 5.21232 20.2836H16.5492C18.8821 20.2836 20.7825 18.3876 20.7825 16.0599V4.74858C20.7825 2.42093 18.8821 0.524841 16.5492 0.524841ZM19.3539 16.0599C19.3539 17.603 18.0957 18.8583 16.5492 18.8583H5.21232C3.66578 18.8583 2.40759 17.603 2.40759 16.0599V4.74858C2.40759 3.20553 3.66578 1.95015 5.21232 1.95015H16.5492C18.0957 1.95015 19.3539 3.20553 19.3539 4.74858V16.0599Z" fill="#ED1164"/>
<path d="M10.8874 4.98383C7.89918 4.98383 5.46143 7.41611 5.46143 10.3976C5.46143 13.3791 7.89918 15.8113 10.8874 15.8113C13.8756 15.8113 16.3134 13.3791 16.3134 10.3976C16.3003 7.41611 13.8756 4.98383 10.8874 4.98383ZM10.8874 14.3859C8.68556 14.3859 6.89001 12.5945 6.89001 10.3976C6.89001 8.20071 8.68556 6.40922 10.8874 6.40922C13.0892 6.40922 14.8848 8.20071 14.8848 10.3976C14.8848 12.5945 13.0892 14.3859 10.8874 14.3859Z" fill="#ED1164"/>
<path d="M16.5106 5.69007C17.1621 5.69007 17.6902 5.16311 17.6902 4.51312C17.6902 3.86312 17.1621 3.33617 16.5106 3.33617C15.8592 3.33617 15.3311 3.86312 15.3311 4.51312C15.3311 5.16311 15.8592 5.69007 16.5106 5.69007Z" fill="#ED1164"/>
</svg>
