<svg width="22" height="22" viewBox="0 0 22 22" fill="none" xmlns="http://www.w3.org/2000/svg">
<path d="M4.52247 21.9016H2.12405C1.16731 21.9016 0.394043 21.1301 0.394043 20.1755V9.38721C0.394043 8.43261 1.16731 7.66108 2.12405 7.66108H4.52247C5.47922 7.66108 6.25249 8.43261 6.25249 9.38721V20.1755C6.25249 21.117 5.47922 21.9016 4.52247 21.9016ZM2.12405 8.94265C1.87504 8.94265 1.67844 9.13875 1.67844 9.38721V20.1755C1.67844 20.4239 1.87504 20.6201 2.12405 20.6201H4.52247C4.77149 20.6201 4.96809 20.4239 4.96809 20.1755V9.38721C4.96809 9.13875 4.77149 8.94265 4.52247 8.94265H2.12405Z" fill="#ED1164"/>
<path d="M3.32798 6.35343C1.71591 6.35343 0.405273 5.04578 0.405273 3.43734C0.405273 1.82889 1.71591 0.52124 3.32798 0.52124C4.94006 0.52124 6.25069 1.82889 6.25069 3.43734C6.25069 5.04578 4.94006 6.35343 3.32798 6.35343ZM3.32798 1.80274C2.42365 1.80274 1.68969 2.53504 1.68969 3.43734C1.68969 4.33963 2.42365 5.07193 3.32798 5.07193C4.23232 5.07193 4.96627 4.33963 4.96627 3.43734C4.96627 2.53504 4.23232 1.80274 3.32798 1.80274Z" fill="#ED1164"/>
<path d="M19.3588 21.9016H16.9603C16.0036 21.9016 15.2303 21.1301 15.2303 20.1755V13.9641C15.2303 13.4279 15.2303 12.421 14.7192 12.0679C14.3915 11.8456 13.8148 11.8457 13.0416 12.0941V20.1624C13.0416 21.117 12.2683 21.8885 11.3116 21.8885H8.91312C7.95637 21.8885 7.18311 21.117 7.18311 20.1624V9.37414C7.18311 8.41954 7.95637 7.64809 8.91312 7.64809H11.3116C11.8358 7.64809 12.3076 7.88342 12.6222 8.24957C13.3037 7.71342 14.1687 7.34732 15.0599 7.22963C16.3312 7.07271 17.5239 7.39961 18.5462 8.19729C21.3771 10.3942 21.0888 13.8726 21.0757 14.0164V20.1624C21.0888 21.117 20.3024 21.9016 19.3588 21.9016ZM14.077 10.6164C14.6143 10.6164 15.0599 10.7472 15.44 11.0087C16.5147 11.741 16.5147 13.2449 16.5147 13.9641V20.1755C16.5147 20.424 16.7113 20.6201 16.9603 20.6201H19.3588C19.6078 20.6201 19.8044 20.424 19.8044 20.1755V13.9641C19.8175 13.7941 20.0272 10.9826 17.7729 9.21723C16.8293 8.48493 15.8725 8.43265 15.2434 8.51111C14.326 8.62881 13.4348 9.1126 12.9236 9.77952C12.7532 10.0018 12.4649 10.0934 12.2028 10.0019C11.9407 9.91034 11.7703 9.66184 11.7703 9.38723C11.7703 9.13877 11.5737 8.94267 11.3247 8.94267H8.92622C8.67721 8.94267 8.48062 9.13877 8.48062 9.38723V20.1755C8.48062 20.424 8.67721 20.6201 8.92622 20.6201H11.3247C11.5737 20.6201 11.7703 20.424 11.7703 20.1755V11.6496C11.7703 11.388 11.9276 11.1395 12.1897 11.048C12.8974 10.7603 13.5265 10.6164 14.077 10.6164Z" fill="#ED1164"/>
</svg>
