<svg width="21" height="27" viewBox="0 0 21 27" fill="none" xmlns="http://www.w3.org/2000/svg">
<path d="M15.197 0.513977C15.2085 0.78646 15.2222 1.05845 15.2304 1.33093C15.3056 3.84604 16.8758 5.90785 19.1437 6.40898C19.7002 6.53202 20.2806 6.52604 20.8499 6.57984C20.8953 6.58433 20.9406 6.58981 21.0002 6.59678C21.0002 8.36169 21.0002 10.1256 21.0002 11.9015C18.9682 12.0425 17.0489 11.628 15.2359 10.5077C15.2359 10.6497 15.2359 10.7458 15.2359 10.8419C15.2387 13.1409 15.2437 15.4393 15.2446 17.7382C15.2465 21.8329 12.6177 25.2213 8.90874 25.9067C8.68475 25.9481 8.45938 25.9814 8.23447 26.0183C7.83734 26.0183 7.44065 26.0183 7.04352 26.0183C6.55843 25.9177 6.06601 25.8489 5.58963 25.712C2.64109 24.8616 0.399343 22.0013 0.0864875 18.7151C-0.311109 14.5372 2.2893 10.6651 6.04723 9.83968C7.14658 9.59808 8.24501 9.6185 9.35947 9.85562C9.35947 11.7261 9.35947 13.5982 9.35947 15.4981C9.05578 15.39 8.75621 15.2784 8.45389 15.1778C7.06184 14.714 5.62536 15.509 5.20028 17.0029C4.89658 18.0705 5.11279 19.0349 5.8434 19.8179C6.59324 20.6214 7.50799 20.8526 8.50336 20.477C9.46895 20.1128 10.0411 19.3467 10.2069 18.2423C10.2376 18.0391 10.2426 17.8294 10.2426 17.6226C10.2463 11.9199 10.2472 6.2172 10.249 0.513977C11.899 0.513977 13.548 0.513977 15.197 0.513977ZM7.99491 11.1249C7.46951 11.1767 6.96565 11.1916 6.47369 11.2813C3.31444 11.8552 1.03055 15.2405 1.46708 18.6807C1.97187 22.6554 5.50764 25.2781 9.09792 24.3401C11.9425 23.5968 13.8718 20.9413 13.8705 17.7616C13.8691 14.4824 13.8613 11.2036 13.8567 7.92433C13.8567 7.83167 13.8567 7.73902 13.8567 7.64636C13.876 7.63441 13.8956 7.62195 13.9149 7.61C15.5515 9.18811 17.3797 10.2945 19.6283 10.4056C19.6283 9.60356 19.6283 8.81102 19.6283 8.0389C16.4008 7.49642 14.4888 5.49688 13.8581 2.02334C13.1279 2.02334 12.384 2.02334 11.6218 2.02334C11.6218 2.13543 11.6218 2.23356 11.6218 2.33169C11.6209 7.43714 11.6214 12.5426 11.615 17.648C11.6145 17.9942 11.5879 18.3459 11.5298 18.6862C11.1743 20.7774 9.36405 22.2743 7.38569 22.1273C5.39679 21.9794 3.78212 20.1916 3.70379 18.051C3.61218 15.5419 5.42015 13.5219 7.72923 13.5533C7.81672 13.5543 7.90421 13.5533 7.99445 13.5533C7.99491 12.7493 7.99491 11.9787 7.99491 11.1249Z" fill="#ED1164"/>
</svg>
