<svg width="25" height="23" viewBox="0 0 25 23" fill="none" xmlns="http://www.w3.org/2000/svg">
<path d="M8.32476 22.425C4.61949 22.425 1.47446 21.0063 0.226641 19.8396C-0.00255059 19.6275 -0.0662088 19.2695 0.073853 18.9778C0.213915 18.6861 0.519499 18.5271 0.825089 18.5933C0.850554 18.5933 3.54993 19.1104 6.16017 17.6123C5.09061 17.188 3.74093 16.2997 2.90056 14.4701C2.78596 14.2182 2.82415 13.9265 2.97695 13.7143C3.04061 13.6215 3.12975 13.5552 3.21888 13.5154C2.04745 12.6404 0.952421 11.1024 0.888757 8.63642C0.876024 8.34474 1.04155 8.06631 1.30894 7.96024C1.47447 7.89395 1.64 7.88075 1.80553 7.93378C1.09248 6.71402 0.685042 4.88438 1.71641 2.28577C1.81827 2.03386 2.04745 1.86148 2.30211 1.84823C2.58223 1.82171 2.81144 1.96756 2.9515 2.19295C3.06609 2.37857 5.59993 6.70076 11.5589 7.01896C11.4698 5.36168 12.0173 2.88234 14.6021 1.41068C17.4797 -0.220076 19.8353 1.19855 20.9176 2.40505C21.6943 2.20618 22.7384 1.8217 23.1586 1.34441C23.3496 1.13228 23.6424 1.05271 23.9098 1.15877C24.1772 1.26484 24.3427 1.51681 24.3555 1.80849C24.3555 1.86153 24.3682 2.53763 24.0754 3.31987C24.2918 3.24032 24.521 3.26684 24.712 3.41269C24.9285 3.57178 25.0303 3.83697 24.9921 4.10214C24.9794 4.18169 24.712 5.97156 22.662 7.01896C22.7129 8.87511 22.4201 15.1064 16.9195 19.4286C14.1182 21.656 11.0623 22.425 8.32476 22.425ZM3.35894 20.0517C6.42757 21.2715 11.6353 21.8019 16.1046 18.2884C21.8598 13.7674 21.2869 6.71397 21.2741 6.63442C21.2487 6.31622 21.4269 6.01129 21.7198 5.89196C22.0126 5.77264 22.2673 5.64007 22.471 5.49423C22.0126 5.6003 21.7198 5.60032 21.6688 5.60032C21.3378 5.60032 21.0449 5.34841 20.994 5.01696C20.9303 4.67224 21.1086 4.34081 21.4269 4.20823C21.9108 4.00935 22.2418 3.71762 22.4837 3.41269C21.6943 3.73088 20.9558 3.87672 20.8157 3.90323C20.5611 3.95627 20.2937 3.85025 20.1281 3.62486C20.0518 3.5188 18.1927 1.02621 15.2896 2.67023C12.3356 4.34076 13.0232 7.4432 13.0487 7.57578C13.0996 7.78791 13.0487 8.01333 12.9213 8.18569C12.7685 8.38456 12.5266 8.46406 12.2847 8.46406C7.05147 8.46406 3.98285 5.71963 2.62043 4.08887C1.95832 7.19129 4.08471 8.39775 4.3521 8.53033C4.61949 8.67617 4.78503 8.98114 4.73409 9.29933C4.68316 9.61753 4.44123 9.85619 4.14837 9.89597C3.4608 9.98878 2.90055 9.93575 2.4549 9.81642C3.09154 12.5344 5.44713 13.0116 5.56172 13.0382C5.82911 13.0912 6.04558 13.2901 6.10925 13.5685C6.17291 13.8469 6.08377 14.1254 5.88005 14.311C5.53626 14.6159 5.14154 14.775 4.77229 14.8545C6.02011 16.4588 7.78999 16.5781 7.87912 16.5781C8.15924 16.5913 8.41389 16.7902 8.50302 17.0686C8.59215 17.347 8.51576 17.652 8.29931 17.8509C6.61856 19.296 4.81049 19.8661 3.35894 20.0517Z" fill="#ED1164"/>
</svg>
