<svg width="26" height="19" viewBox="0 0 26 19" fill="none" xmlns="http://www.w3.org/2000/svg">
<path d="M21.2652 0.528503H4.60714C2.33976 0.528503 0.504883 2.35925 0.504883 4.62152V14.7691C0.504883 17.0313 2.33976 18.8621 4.60714 18.8621H21.2652C23.5326 18.8621 25.3674 17.0313 25.3674 14.7691V4.62152C25.3674 2.35925 23.5326 0.528503 21.2652 0.528503ZM23.7554 14.7691C23.7554 16.129 22.6413 17.2406 21.2783 17.2406H4.60714C3.24409 17.2406 2.13006 16.129 2.13006 14.7691V4.62152C2.13006 3.26154 3.24409 2.15 4.60714 2.15H21.2652C22.6282 2.15 23.7423 3.26154 23.7423 4.62152V14.7691H23.7554Z" fill="#ED1164"/>
<path d="M16.5081 8.41373L12.5763 5.83761C12.1044 5.52378 11.5015 5.49764 11.0035 5.77225C10.5055 6.04685 10.1909 6.55688 10.1909 7.11917V12.2582C10.1909 12.8205 10.5055 13.3435 11.0035 13.6051C11.2394 13.7227 11.4884 13.7881 11.7375 13.7881C12.0258 13.7881 12.3272 13.7097 12.5763 13.5397L16.5081 10.9636C16.9406 10.6759 17.2028 10.1921 17.2028 9.68211C17.2028 9.17212 16.9406 8.70141 16.5081 8.41373ZM15.7218 9.78674L11.7899 12.3628C11.7768 12.3759 11.7375 12.402 11.6719 12.3628C11.6064 12.3366 11.6064 12.2844 11.6064 12.2582L11.6719 7.01453C11.6981 7.00145 11.7112 7.00144 11.7244 7.00144C11.7506 7.00144 11.7768 7.01454 11.7899 7.02762L15.7218 9.60365L16.1149 9.01519L15.7218 9.78674Z" fill="#ED1164"/>
</svg>

